<svg width="53" height="53" viewBox="0 0 53 53" fill="none" xmlns="http://www.w3.org/2000/svg">
<g filter="url(#filter0_d_530_2592)">
<rect width="52" height="52" fill="none"/>
<path d="M31.1921 25.7488C32.8611 26.1029 34.1092 26.6694 34.9383 27.4484C36.087 28.5342 36.6605 29.862 36.6605 31.4318C36.6605 32.6238 36.2823 33.7629 35.5242 34.8487C34.7661 35.9345 33.731 36.7312 32.4172 37.2387C31.1034 37.7462 29.0852 38 26.3629 38H15V37.345H15.9055C16.9116 37.345 17.6335 37.0263 18.0715 36.3889C18.3437 35.9759 18.4799 35.0965 18.4799 33.751V18.2423C18.4799 16.7552 18.3082 15.8169 17.965 15.4274C17.5034 14.9087 16.8168 14.6484 15.9055 14.6484H15V13.9934H25.4042C27.3453 13.9934 28.9018 14.135 30.0736 14.4183C31.849 14.8432 33.2037 15.592 34.1394 16.6667C35.075 17.7413 35.542 18.9859 35.542 20.4022C35.542 21.6061 35.1745 22.6802 34.4412 23.6243C33.7079 24.5685 32.6249 25.2767 31.1921 25.7488ZM21.8888 24.7928C22.3268 24.8755 22.8239 24.9344 23.3801 24.9698C23.9364 25.0053 24.5578 25.0288 25.2444 25.0407C26.9724 25.0407 28.2685 24.8578 29.1326 24.4918C29.9967 24.1259 30.6653 23.5535 31.1389 22.7745C31.6124 21.9956 31.8432 21.1576 31.8313 20.2606C31.8313 18.8566 31.2573 17.6581 30.1091 16.6667C28.9609 15.6752 27.2861 15.1795 25.0846 15.1795C23.9009 15.1795 22.8356 15.3088 21.8888 15.569V24.7928ZM21.8888 36.265C23.2617 36.5837 24.6171 36.743 25.9545 36.743C28.097 36.743 29.7304 36.265 30.8548 35.309C31.9792 34.353 32.5415 33.161 32.5415 31.7328C32.5415 30.8003 32.2876 29.9034 31.778 29.0418C31.269 28.1801 30.4406 27.5015 29.2924 27.0058C28.1442 26.5101 26.7238 26.2622 25.0313 26.2622C24.2975 26.2622 23.6701 26.2741 23.1493 26.2976C22.6286 26.3212 22.2083 26.3626 21.8888 26.4216V36.265Z" fill="black"/>
</g>
<defs>
<filter id="filter0_d_530_2592" x="0" y="0" width="53" height="53" filterUnits="userSpaceOnUse" color-interpolation-filters="sRGB">
<feFlood flood-opacity="0" result="BackgroundImageFix"/>
<feColorMatrix in="SourceAlpha" type="matrix" values="0 0 0 0 0 0 0 0 0 0 0 0 0 0 0 0 0 0 127 0" result="hardAlpha"/>
<feOffset dx="1" dy="1"/>
<feColorMatrix type="matrix" values="0 0 0 0 0 0 0 0 0 0 0 0 0 0 0 0 0 0 0.25 0"/>
<feBlend mode="normal" in2="BackgroundImageFix" result="effect1_dropShadow_530_2592"/>
<feBlend mode="normal" in="SourceGraphic" in2="effect1_dropShadow_530_2592" result="shape"/>
</filter>
</defs>
</svg>
