<svg width="53" height="53" viewBox="0 0 53 53" fill="none" xmlns="http://www.w3.org/2000/svg">
<g filter="url(#filter0_d_531_2711)">
<rect width="52" height="52" fill="white"/>
<path d="M22.8532 15.3035V24.7928H28.1441C29.517 24.7928 30.4344 24.5862 30.896 24.1732C31.5116 23.6302 31.8548 22.6742 31.9258 21.3051H32.5827V29.6614H31.9258C31.7602 28.4929 31.5943 27.7435 31.4287 27.413C31.2156 27 30.8664 26.6753 30.3812 26.4393C29.8959 26.2033 29.1502 26.0852 28.1441 26.0852H22.8532V33.9989C22.8532 35.0611 22.9006 35.7043 22.9953 35.9286C23.0899 36.1529 23.2557 36.3358 23.4924 36.4775C23.7291 36.6191 24.179 36.6899 24.8417 36.6899H28.9253C30.2865 36.6899 31.2747 36.5955 31.8903 36.4066C32.5058 36.2177 33.0976 35.846 33.6657 35.2913C34.399 34.5596 35.1518 33.4559 35.9206 31.9806H36.6307L34.5535 38H16V37.345H16.8522C17.4204 37.345 17.9589 37.2092 18.4679 36.9378C18.8466 36.7489 19.1012 36.4656 19.2313 36.088C19.3615 35.7103 19.4325 34.9372 19.4444 33.7687V18.1715C19.4444 16.649 19.2904 15.7107 18.9828 15.3566C18.5567 14.8839 17.8465 14.6484 16.8522 14.6484H16V13.9934H34.5535L34.8198 19.2515H34.1274C33.8788 17.9892 33.6072 17.1217 33.3107 16.649C33.0142 16.1763 32.565 15.8169 31.9613 15.569C31.4878 15.392 30.6533 15.3035 29.4579 15.3035H22.8532Z" fill="black"/>
</g>
<defs>
<filter id="filter0_d_531_2711" x="0" y="0" width="53" height="53" filterUnits="userSpaceOnUse" color-interpolation-filters="sRGB">
<feFlood flood-opacity="0" result="BackgroundImageFix"/>
<feColorMatrix in="SourceAlpha" type="matrix" values="0 0 0 0 0 0 0 0 0 0 0 0 0 0 0 0 0 0 127 0" result="hardAlpha"/>
<feOffset dx="1" dy="1"/>
<feColorMatrix type="matrix" values="0 0 0 0 0 0 0 0 0 0 0 0 0 0 0 0 0 0 0.25 0"/>
<feBlend mode="normal" in2="BackgroundImageFix" result="effect1_dropShadow_531_2711"/>
<feBlend mode="normal" in="SourceGraphic" in2="effect1_dropShadow_531_2711" result="shape"/>
</filter>
</defs>
</svg>
