<svg width="53" height="53" viewBox="0 0 53 53" fill="none" xmlns="http://www.w3.org/2000/svg">
<g filter="url(#filter0_d_531_2725)">
<rect width="52" height="52" fill="white"/>
<path d="M25.2746 38L15.9713 17.7997V33.8396C15.9713 35.3148 16.1311 36.2354 16.4506 36.6014C16.8886 37.0971 17.5811 37.345 18.5279 37.345H19.3801V38H11V37.345H11.8522C12.8701 37.345 13.5922 37.0381 14.0183 36.4243C14.2787 36.0467 14.4089 35.1851 14.4089 33.8396V18.1538C14.4089 17.0916 14.2904 16.325 14.0538 15.8523C13.8881 15.5106 13.5863 15.2273 13.1483 15.0025C12.7103 14.7776 11.9943 14.6608 11 14.6484V13.9934H17.8177L26.553 32.7773L35.1462 13.9934H41.9639V14.6484H41.1294C40.0997 14.6484 39.3717 14.9547 38.9456 15.569C38.6846 15.9461 38.555 16.8083 38.555 18.1538V33.8396C38.555 35.3148 38.7201 36.2354 39.0522 36.6014C39.4907 37.0971 40.1831 37.345 41.1294 37.345H41.9639V38H31.7373V37.345H32.5895C33.6193 37.345 34.3419 37.0381 34.7556 36.4243C35.0166 36.0467 35.1462 35.1851 35.1462 33.8396V17.7997L25.8605 38H25.2746Z" fill="black"/>
</g>
<defs>
<filter id="filter0_d_531_2725" x="0" y="0" width="53" height="53" filterUnits="userSpaceOnUse" color-interpolation-filters="sRGB">
<feFlood flood-opacity="0" result="BackgroundImageFix"/>
<feColorMatrix in="SourceAlpha" type="matrix" values="0 0 0 0 0 0 0 0 0 0 0 0 0 0 0 0 0 0 127 0" result="hardAlpha"/>
<feOffset dx="1" dy="1"/>
<feColorMatrix type="matrix" values="0 0 0 0 0 0 0 0 0 0 0 0 0 0 0 0 0 0 0.25 0"/>
<feBlend mode="normal" in2="BackgroundImageFix" result="effect1_dropShadow_531_2725"/>
<feBlend mode="normal" in="SourceGraphic" in2="effect1_dropShadow_531_2725" result="shape"/>
</filter>
</defs>
</svg>
