<svg width="52" height="52" viewBox="0 0 52 52" fill="none" xmlns="http://www.w3.org/2000/svg">
<path d="M39.36 25.68C39.36 27.8933 39.08 29.9067 38.52 31.72C37.96 33.5067 37.12 35.0533 36 36.36C34.9067 37.6667 33.5333 38.6667 31.88 39.36C30.2533 40.0533 28.36 40.4 26.2 40.4C23.96 40.4 22.0133 40.0533 20.36 39.36C18.7067 38.64 17.3333 37.64 16.24 36.36C15.1467 35.0533 14.3333 33.4933 13.8 31.68C13.2667 29.8667 13 27.8533 13 25.64C13 22.7067 13.48 20.1467 14.44 17.96C15.4 15.7733 16.8533 14.0667 18.8 12.84C20.7733 11.6133 23.2533 11 26.24 11C29.0933 11 31.4933 11.6133 33.44 12.84C35.3867 14.04 36.8533 15.7467 37.84 17.96C38.8533 20.1467 39.36 22.72 39.36 25.68ZM16.8 25.68C16.8 28.08 17.1333 30.1467 17.8 31.88C18.4667 33.6133 19.4933 34.9467 20.88 35.88C22.2933 36.8133 24.0667 37.28 26.2 37.28C28.36 37.28 30.12 36.8133 31.48 35.88C32.8667 34.9467 33.8933 33.6133 34.56 31.88C35.2267 30.1467 35.56 28.08 35.56 25.68C35.56 22.08 34.8133 19.2667 33.32 17.24C31.8267 15.1867 29.4667 14.16 26.24 14.16C24.08 14.16 22.2933 14.6267 20.88 15.56C19.4933 16.4667 18.4667 17.7867 17.8 19.52C17.1333 21.2267 16.8 23.28 16.8 25.68Z" fill="#454545"/>
</svg>
