<svg width="53" height="53" viewBox="0 0 53 53" fill="none" xmlns="http://www.w3.org/2000/svg">
<g filter="url(#filter0_d_531_2732)">
<rect width="52" height="52" fill="none"/>
<path d="M26.0198 12.8957C29.1446 12.8957 31.8486 14.0766 34.1336 16.4365C36.4186 18.7965 37.5656 21.7536 37.578 25.3062C37.578 28.9533 36.424 31.9806 34.1159 34.3884C31.8078 36.7961 29.0145 38 25.7357 38C22.4215 38 19.6401 36.8256 17.3911 34.4769C15.1421 32.1282 14.0119 29.089 14 25.3593C14 21.5471 15.3019 18.4371 17.906 16.0293C20.1667 13.9403 22.8714 12.8957 26.0198 12.8957ZM25.6825 14.1881C23.5283 14.1881 21.8001 14.9848 20.4982 16.5781C18.8766 18.561 18.0658 21.4645 18.0658 25.2885C18.0658 29.2069 18.9061 32.2227 20.5869 34.3353C21.8771 35.9404 23.5816 36.743 25.7002 36.743C27.9609 36.743 29.8251 35.8637 31.2929 34.1051C32.7612 32.3466 33.4998 29.5729 33.5122 25.7842C33.5122 21.6769 32.7008 18.6141 31.0798 16.5959C29.7779 14.9901 27.9787 14.1881 25.6825 14.1881Z" fill="black"/>
</g>
<defs>
<filter id="filter0_d_531_2732" x="0" y="0" width="53" height="53" filterUnits="userSpaceOnUse" color-interpolation-filters="sRGB">
<feFlood flood-opacity="0" result="BackgroundImageFix"/>
<feColorMatrix in="SourceAlpha" type="matrix" values="0 0 0 0 0 0 0 0 0 0 0 0 0 0 0 0 0 0 127 0" result="hardAlpha"/>
<feOffset dx="1" dy="1"/>
<feColorMatrix type="matrix" values="0 0 0 0 0 0 0 0 0 0 0 0 0 0 0 0 0 0 0.25 0"/>
<feBlend mode="normal" in2="BackgroundImageFix" result="effect1_dropShadow_531_2732"/>
<feBlend mode="normal" in="SourceGraphic" in2="effect1_dropShadow_531_2732" result="shape"/>
</filter>
</defs>
</svg>
