<svg width="53" height="53" viewBox="0 0 53 53" fill="none" xmlns="http://www.w3.org/2000/svg">
<g filter="url(#filter0_d_531_2734)">
<rect width="52" height="52" fill="white"/>
<path d="M32.0563 15.3034H20.8887V33.6271C20.8887 35.2086 21.0899 36.2119 21.4924 36.6368C21.8949 37.0617 22.8536 37.2977 24.3686 37.345V38H14V37.345C15.4914 37.2977 16.4443 37.0617 16.8585 36.6368C17.2727 36.2119 17.4799 35.2086 17.4799 33.6271V18.3662C17.4799 16.7853 17.2727 15.7814 16.8585 15.3565C16.4443 14.9317 15.4914 14.6962 14 14.6484V13.9933H38.9451V14.6484C37.4537 14.6962 36.5003 14.9317 36.0866 15.3565C35.6729 15.7814 35.4652 16.7853 35.4652 18.3662V33.6271C35.4652 35.2086 35.6729 36.2119 36.0866 36.6368C36.5003 37.0617 37.4537 37.2977 38.9451 37.345V38H28.5942V37.345C30.0737 37.2977 31.0207 37.0676 31.4349 36.6545C31.8486 36.2414 32.0563 35.2323 32.0563 33.6271V15.3034Z" fill="black"/>
</g>
<defs>
<filter id="filter0_d_531_2734" x="0" y="0" width="53" height="53" filterUnits="userSpaceOnUse" color-interpolation-filters="sRGB">
<feFlood flood-opacity="0" result="BackgroundImageFix"/>
<feColorMatrix in="SourceAlpha" type="matrix" values="0 0 0 0 0 0 0 0 0 0 0 0 0 0 0 0 0 0 127 0" result="hardAlpha"/>
<feOffset dx="1" dy="1"/>
<feColorMatrix type="matrix" values="0 0 0 0 0 0 0 0 0 0 0 0 0 0 0 0 0 0 0.25 0"/>
<feBlend mode="normal" in2="BackgroundImageFix" result="effect1_dropShadow_531_2734"/>
<feBlend mode="normal" in="SourceGraphic" in2="effect1_dropShadow_531_2734" result="shape"/>
</filter>
</defs>
</svg>
