<svg width="52" height="52" viewBox="0 0 52 52" fill="none" xmlns="http://www.w3.org/2000/svg">
<path d="M24.04 40.56V33.08C22.2267 33 20.6267 32.6933 19.24 32.16C17.8533 31.6267 16.6933 30.8667 15.76 29.88C14.8533 28.8933 14.16 27.6667 13.68 26.2C13.2267 24.7067 13 22.9733 13 21V12H16.68V21.04C16.68 23.3333 16.9867 25.1333 17.6 26.44C18.2133 27.7467 19.0667 28.6667 20.16 29.2C21.28 29.7333 22.5733 30 24.04 30V12H27.56V30C29.0267 30 30.3067 29.7333 31.4 29.2C32.52 28.6667 33.3867 27.7467 34 26.44C34.6133 25.1333 34.92 23.3333 34.92 21.04V12H38.6V21C38.6 23.64 38.1867 25.84 37.36 27.6C36.5333 29.3333 35.2933 30.6533 33.64 31.56C32.0133 32.44 29.9867 32.9467 27.56 33.08V40.56H24.04Z" fill="#454545"/>
</svg>
