<svg width="52" height="52" viewBox="0 0 52 52" fill="none" xmlns="http://www.w3.org/2000/svg">
<path d="M24.56 12C28.2933 12 31.0133 12.7333 32.72 14.2C34.4267 15.6667 35.28 17.7333 35.28 20.4C35.28 21.5733 35.08 22.7067 34.68 23.8C34.3067 24.8667 33.68 25.8267 32.8 26.68C31.92 27.5333 30.7467 28.2133 29.28 28.72C27.8133 29.2 26.0133 29.44 23.88 29.44H20.6V40.56H17V12H24.56ZM24.24 15.08H20.6V26.36H23.48C25.2933 26.36 26.8 26.1733 28 25.8C29.2 25.4 30.0933 24.7733 30.68 23.92C31.2667 23.0667 31.56 21.9467 31.56 20.56C31.56 18.72 30.9733 17.3467 29.8 16.44C28.6267 15.5333 26.7733 15.08 24.24 15.08Z" fill="#454545"/>
</svg>
