<svg width="53" height="53" viewBox="0 0 53 53" fill="none" xmlns="http://www.w3.org/2000/svg">
<g filter="url(#filter0_d_531_2735)">
<rect width="52" height="52" fill="white"/>
<path d="M23.8532 26.758V33.751C23.8532 35.2617 24.0189 36.2 24.3504 36.566C24.8001 37.0853 25.4808 37.345 26.3921 37.345H27.3154V38H17V37.345H17.9055C18.9233 37.345 19.6513 37.0145 20.0893 36.3535C20.326 35.9876 20.4444 35.1201 20.4444 33.751V18.2423C20.4444 16.7322 20.2846 15.7939 19.965 15.4274C19.5034 14.9087 18.8168 14.6484 17.9055 14.6484H17V13.9934H25.824C27.9782 13.9934 29.6767 14.2111 30.9195 14.6484C32.1624 15.0857 33.2099 15.8346 34.0621 16.8968C34.9143 17.9591 35.3404 19.2037 35.3404 20.6324C35.3404 22.5917 34.6959 24.185 33.4052 25.4124C32.115 26.6399 30.2804 27.2537 27.9013 27.2537C27.3212 27.2537 26.694 27.2124 26.0193 27.1297C25.3446 27.0471 24.6225 26.9231 23.8532 26.758ZM23.8532 25.7488C24.4805 25.8669 25.0369 25.9554 25.5222 26.0144C26.0074 26.0733 26.4218 26.1029 26.765 26.1029C27.9959 26.1029 29.0553 25.6307 29.943 24.6866C30.8308 23.7424 31.2805 22.509 31.2924 20.9864C31.2924 19.9472 31.0793 18.9859 30.6532 18.1007C30.2271 17.2155 29.6235 16.5481 28.8423 16.1001C28.0611 15.6522 27.1733 15.4274 26.1791 15.4274C25.5754 15.4274 24.8001 15.5389 23.8532 15.7638V25.7488Z" fill="black"/>
</g>
<defs>
<filter id="filter0_d_531_2735" x="0" y="0" width="53" height="53" filterUnits="userSpaceOnUse" color-interpolation-filters="sRGB">
<feFlood flood-opacity="0" result="BackgroundImageFix"/>
<feColorMatrix in="SourceAlpha" type="matrix" values="0 0 0 0 0 0 0 0 0 0 0 0 0 0 0 0 0 0 127 0" result="hardAlpha"/>
<feOffset dx="1" dy="1"/>
<feColorMatrix type="matrix" values="0 0 0 0 0 0 0 0 0 0 0 0 0 0 0 0 0 0 0.25 0"/>
<feBlend mode="normal" in2="BackgroundImageFix" result="effect1_dropShadow_531_2735"/>
<feBlend mode="normal" in="SourceGraphic" in2="effect1_dropShadow_531_2735" result="shape"/>
</filter>
</defs>
</svg>
