<svg width="53" height="53" viewBox="0 0 53 53" fill="none" xmlns="http://www.w3.org/2000/svg">
<g filter="url(#filter0_d_531_2718)">
<rect width="52" height="52" fill="none"/>
<path d="M26.0198 12.8957C28.9671 12.8957 31.6303 14.0288 34.0094 16.2949C36.3885 18.561 37.578 21.5707 37.578 25.3239C37.578 29.0418 36.4062 32.081 34.0626 34.4415C31.719 36.802 28.9435 37.9881 25.7358 38C22.1729 38 19.3264 36.7548 17.1958 34.2645C15.0653 31.7741 14 28.8058 14 25.3593C14 21.6296 15.1954 18.6194 17.5864 16.3303C19.9774 14.0412 22.7885 12.8957 26.0198 12.8957ZM25.6825 14.1881C23.3863 14.1881 21.5457 15.1317 20.1608 17.0207C18.776 18.9098 18.0777 21.665 18.0658 25.2885C18.0658 28.6641 18.7168 31.4141 20.0188 33.5386C21.3207 35.6631 23.2146 36.7312 25.7002 36.743C28.1149 36.743 30.0205 35.8106 31.4172 33.9458C32.8145 32.081 33.5122 29.3604 33.5122 25.7842C33.5122 22.1726 32.8607 19.34 31.5592 17.2863C30.2573 15.2326 28.2983 14.2005 25.6825 14.1881ZM21.5102 21.1635H22.1848C22.1848 22.1785 22.392 22.9043 22.8063 23.3411C23.2205 23.7778 23.9839 23.9961 25.0966 23.9961H26.5347C27.5881 23.9961 28.3279 23.7837 28.754 23.3588C29.1801 22.9339 29.3932 22.2022 29.3932 21.1635H30.0679V29.7145H29.3932C29.3932 28.7112 29.186 27.9914 28.7718 27.5546C28.3576 27.1179 27.6 26.8996 26.4992 26.8996H25.0256C23.9722 26.8996 23.2382 27.1179 22.824 27.5546C22.4098 27.9914 22.1967 28.7112 22.1848 29.7145H21.5102V21.1635Z" fill="black"/>
</g>
<defs>
<filter id="filter0_d_531_2718" x="0" y="0" width="53" height="53" filterUnits="userSpaceOnUse" color-interpolation-filters="sRGB">
<feFlood flood-opacity="0" result="BackgroundImageFix"/>
<feColorMatrix in="SourceAlpha" type="matrix" values="0 0 0 0 0 0 0 0 0 0 0 0 0 0 0 0 0 0 127 0" result="hardAlpha"/>
<feOffset dx="1" dy="1"/>
<feColorMatrix type="matrix" values="0 0 0 0 0 0 0 0 0 0 0 0 0 0 0 0 0 0 0.25 0"/>
<feBlend mode="normal" in2="BackgroundImageFix" result="effect1_dropShadow_531_2718"/>
<feBlend mode="normal" in="SourceGraphic" in2="effect1_dropShadow_531_2718" result="shape"/>
</filter>
</defs>
</svg>
