<svg width="53" height="53" viewBox="0 0 53 53" fill="none" xmlns="http://www.w3.org/2000/svg">
<g filter="url(#filter0_d_531_2742)">
<rect width="52" height="52" fill="none"/>
<path d="M29.9911 13.9933H38.3889V14.6484H37.9273C37.6202 14.6484 37.1692 14.7847 36.578 15.0556C35.9868 15.3265 35.447 15.7159 34.9623 16.2241C34.4776 16.7322 33.8793 17.5572 33.1691 18.7026L27.3634 27.8202V33.8396C27.3634 35.3148 27.529 36.2354 27.8605 36.6014C28.3102 37.0971 29.0204 37.345 29.9911 37.345H30.7723V38H20.5457V37.345H21.3979C22.4157 37.345 23.1378 37.0381 23.5639 36.4243C23.8244 36.0467 23.9545 35.1851 23.9545 33.8396V28.1566L17.3499 18.1007C16.5687 16.9198 16.0419 16.1833 15.7697 15.8877C15.4975 15.592 14.9175 15.2379 14.0298 14.8254C13.793 14.7068 13.4498 14.6484 13 14.6484V13.9933H23.2976V14.6484H22.765C22.2087 14.6484 21.6997 14.7776 21.2381 15.0379C20.7765 15.2981 20.5398 15.6876 20.5279 16.2063C20.5279 16.6312 20.8889 17.3978 21.6109 18.5079L26.6355 26.2445L31.3582 18.8442C32.0683 17.7342 32.4234 16.9092 32.4234 16.3657C32.4234 16.0346 32.34 15.7407 32.1749 15.4805C32.0098 15.2202 31.7612 15.0202 31.4292 14.8785C31.0972 14.7369 30.6178 14.6608 29.9911 14.6484V13.9933Z" fill="black"/>
</g>
<defs>
<filter id="filter0_d_531_2742" x="0" y="0" width="53" height="53" filterUnits="userSpaceOnUse" color-interpolation-filters="sRGB">
<feFlood flood-opacity="0" result="BackgroundImageFix"/>
<feColorMatrix in="SourceAlpha" type="matrix" values="0 0 0 0 0 0 0 0 0 0 0 0 0 0 0 0 0 0 127 0" result="hardAlpha"/>
<feOffset dx="1" dy="1"/>
<feColorMatrix type="matrix" values="0 0 0 0 0 0 0 0 0 0 0 0 0 0 0 0 0 0 0.25 0"/>
<feBlend mode="normal" in2="BackgroundImageFix" result="effect1_dropShadow_531_2742"/>
<feBlend mode="normal" in="SourceGraphic" in2="effect1_dropShadow_531_2742" result="shape"/>
</filter>
</defs>
</svg>
