<svg width="53" height="53" viewBox="0 0 53 53" fill="none" xmlns="http://www.w3.org/2000/svg">
<g filter="url(#filter0_d_531_2729)">
<rect width="52" height="52" fill="none"/>
<path d="M16.7457 13.9933H35.8318V19.8534H35.1571C35.0861 18.885 34.7665 18.1839 34.1984 17.7466C33.6302 17.3093 32.7372 17.0862 31.5174 17.0738H20.9535C18.6928 17.0738 17.515 17.9998 17.4204 19.8534H16.7457V13.9933ZM20.0125 22.0841H20.6872C20.6872 23.1699 20.9476 23.8722 21.4684 24.1909C21.9891 24.5095 22.8236 24.6689 23.9718 24.6689H28.6057C29.7775 24.6689 30.6178 24.5095 31.1268 24.1909C31.6359 23.8722 31.8903 23.1699 31.8903 22.0841H32.5472V30.0332H31.8903C31.8903 29.089 31.6772 28.4221 31.2511 28.0326C30.825 27.6431 29.9431 27.4426 28.6057 27.4307H23.9718C22.5988 27.4307 21.7111 27.6373 21.3086 28.0503C20.9061 28.4634 20.6991 29.1244 20.6872 30.0332H20.0125V22.0841ZM16 31.2548H16.6569V31.6797C16.6569 32.5767 16.8048 33.2553 17.1008 33.7156C17.3967 34.1759 17.7873 34.4769 18.2726 34.6185C18.7578 34.7602 19.5154 34.8368 20.5452 34.8487H32.2276C33.5184 34.8487 34.4523 34.6304 35.0328 34.1936C35.6134 33.7569 35.9028 32.9189 35.9028 31.6797V31.2548H36.5775V38H16V31.2548Z" fill="black"/>
</g>
<defs>
<filter id="filter0_d_531_2729" x="0" y="0" width="53" height="53" filterUnits="userSpaceOnUse" color-interpolation-filters="sRGB">
<feFlood flood-opacity="0" result="BackgroundImageFix"/>
<feColorMatrix in="SourceAlpha" type="matrix" values="0 0 0 0 0 0 0 0 0 0 0 0 0 0 0 0 0 0 127 0" result="hardAlpha"/>
<feOffset dx="1" dy="1"/>
<feColorMatrix type="matrix" values="0 0 0 0 0 0 0 0 0 0 0 0 0 0 0 0 0 0 0.25 0"/>
<feBlend mode="normal" in2="BackgroundImageFix" result="effect1_dropShadow_531_2729"/>
<feBlend mode="normal" in="SourceGraphic" in2="effect1_dropShadow_531_2729" result="shape"/>
</filter>
</defs>
</svg>
