<svg width="52" height="52" viewBox="0 0 52 52" fill="none" xmlns="http://www.w3.org/2000/svg">
<g clip-path="url(#clip0_285_6011)">
<path d="M52 0H0V52H52V0Z" fill="#D0F0FD"/>
<path d="M32.8648 30.8559C33.0675 30.8559 33.1689 31.0627 33.1689 31.4764C33.1689 31.5634 33.1689 31.6288 33.1689 31.6723C33.1689 31.7158 33.1689 31.7703 33.1689 31.8356C33.1689 31.9009 33.1486 31.9336 33.1081 31.9336C33.0675 31.9336 33.0574 31.9662 33.0777 32.0315C33.0979 32.0968 33.0777 32.1186 33.0169 32.0968C32.956 32.0751 32.9155 32.086 32.8952 32.1295C32.875 32.173 32.8344 32.1839 32.7736 32.1622C32.7128 32.1404 32.652 32.1622 32.5912 32.2275C31.8615 32.4234 31.1216 32.75 30.3716 33.2072C29.6216 33.6644 28.8615 34.4155 28.0912 35.4606C27.3209 36.5056 26.7939 37.7357 26.5101 39.1509C26.5101 39.1944 26.5 39.2489 26.4797 39.3142C26.4594 39.3795 26.4493 39.4557 26.4493 39.5428C26.4493 39.6299 26.4392 39.6734 26.4189 39.6734C26.3784 39.8911 26.277 40 26.1148 40C25.9324 40 25.8007 39.8041 25.7196 39.4122C25.6385 39.0203 25.4662 38.4215 25.2027 37.616C24.9392 36.8104 24.5236 36.0267 23.9561 35.2646C23.7331 34.9381 23.4797 34.6333 23.1959 34.3502C22.9122 34.0672 22.6081 33.8168 22.2838 33.5991C21.9595 33.3814 21.6554 33.1854 21.3716 33.0113C21.0878 32.8371 20.804 32.6956 20.5203 32.5867C20.2365 32.4779 20.0034 32.3799 19.8209 32.2928C19.6385 32.2057 19.4662 32.1513 19.3041 32.1295L19.1216 32.0642C19.0405 31.9771 19 31.7812 19 31.4764C19 31.0409 19.1115 30.8232 19.3345 30.8232C19.4358 30.8232 19.5777 30.8559 19.7601 30.9212C22.1115 31.6179 23.9459 33.0221 25.2635 35.134L25.4763 35.4606V23.4752C25.4763 21.7553 25.4763 19.9047 25.4763 17.9234C25.4763 15.9422 25.4662 14.7556 25.4459 14.3637C25.4459 12.8179 25.4662 11.8926 25.5067 11.5878C25.5473 11.283 25.6689 11.098 25.8716 11.0327C25.8919 11.0109 25.973 11 26.1148 11C26.3784 11.0435 26.5709 11.2068 26.6925 11.4899V35.4606L26.9054 35.134C27.5135 34.1325 28.2838 33.2834 29.2162 32.5867C30.1486 31.89 30.929 31.4219 31.5574 31.1824C32.1858 30.9429 32.6216 30.8341 32.8648 30.8559Z" fill="black"/>
</g>
<defs>
<clipPath id="clip0_285_6011">
<rect width="52" height="52" rx="4" fill="white"/>
</clipPath>
</defs>
</svg>
