<svg width="53" height="53" viewBox="0 0 53 53" fill="none" xmlns="http://www.w3.org/2000/svg">
<g filter="url(#filter0_d)">
<rect width="52" height="52" fill="white"/>
<path d="M16.0461 17.1631C15.9591 17.2718 15.8721 17.5654 15.7852 18.0438C15.372 19.6314 14.6217 21.0449 13.5343 22.2845C12.4469 23.5241 11.1312 24.4484 9.58718 25.0573C9.3697 25.1443 9.21747 25.2204 9.13048 25.2857C9.04349 25.3509 9 25.4596 9 25.6119C9.06524 25.7206 9.26097 25.8402 9.58718 25.9707C11.153 26.5796 12.4796 27.5039 13.5669 28.7435C14.6543 29.9831 15.3937 31.3967 15.7852 32.9842C15.8286 33.2887 15.8721 33.4953 15.9156 33.604C15.9591 33.7127 16.0135 33.8106 16.0787 33.8976C16.144 33.9846 16.2092 34.0281 16.2745 34.0281H16.6007C17.0356 34.0281 17.2531 33.9085 17.2531 33.6692C17.2531 33.517 17.1987 33.2452 17.09 32.8537C16.829 32.0491 16.5463 31.277 16.2418 30.5376C15.9374 29.7982 15.5786 29.1893 15.1654 28.7109C14.7522 28.2324 14.3933 27.8301 14.0889 27.5039C13.7844 27.1777 13.4691 26.8841 13.1429 26.6231L11.5 25.6119L12.5883 24.8616C12.9234 24.5637 12.8928 24.5898 13.2407 24.307C13.5887 24.0243 13.9149 23.7199 14.2193 23.3937C14.5238 23.0674 14.8609 22.6651 15.2306 22.1867C15.6003 21.7082 15.9483 21.1211 16.2745 20.4252C16.6007 19.7292 16.8725 18.979 17.09 18.1743C17.1987 17.7829 17.2531 17.511 17.2531 17.3588C17.2531 17.1196 17.0356 17 16.6007 17C16.318 17 16.1331 17.0543 16.0461 17.1631Z" fill="black"/>
<path d="M35.2069 33.865C35.2939 33.7563 35.3809 33.4627 35.4679 32.9843C35.8811 31.3967 36.6314 29.9831 37.7187 28.7435C38.8061 27.5039 40.1218 26.5797 41.6659 25.9708C41.8833 25.8838 42.0356 25.8076 42.1226 25.7424C42.2096 25.6772 42.2531 25.5684 42.2531 25.4162C42.1878 25.3075 41.9921 25.1879 41.6659 25.0574C40.1001 24.4484 38.7735 23.5242 37.6861 22.2846C36.5988 21.045 35.8594 19.6314 35.4679 18.0439C35.4244 17.7394 35.3809 17.5328 35.3374 17.4241C35.2939 17.3153 35.2396 17.2175 35.1743 17.1305C35.1091 17.0435 35.0438 17 34.9786 17H34.6524C34.2174 17 34 17.1196 34 17.3588C34 17.5111 34.0543 17.7829 34.1631 18.1744C34.424 18.979 34.7067 19.751 35.0112 20.4904C35.3157 21.2298 35.6745 21.8388 36.0877 22.3172C36.5009 22.7957 36.8597 23.198 37.1642 23.5242C37.4686 23.8504 37.784 24.144 38.1102 24.4049L39.7531 25.4162L38.6648 26.1665C38.3297 26.4643 38.3603 26.4383 38.0123 26.721C37.6644 27.0037 37.3382 27.3082 37.0337 27.6344C36.7292 27.9606 36.3922 28.363 36.0225 28.8414C35.6528 29.3198 35.3048 29.907 34.9786 30.6029C34.6524 31.2988 34.3805 32.0491 34.1631 32.8538C34.0543 33.2452 34 33.5171 34 33.6693C34 33.9085 34.2174 34.0281 34.6524 34.0281C34.9351 34.0281 35.1199 33.9738 35.2069 33.865Z" fill="black"/>
<line x1="13" y1="23.5" x2="38" y2="23.5" stroke="black"/>
<line x1="13" y1="27.5" x2="38" y2="27.5" stroke="black"/>
</g>
<defs>
<filter id="filter0_d" x="0" y="0" width="53" height="53" filterUnits="userSpaceOnUse" color-interpolation-filters="sRGB">
<feFlood flood-opacity="0" result="BackgroundImageFix"/>
<feColorMatrix in="SourceAlpha" type="matrix" values="0 0 0 0 0 0 0 0 0 0 0 0 0 0 0 0 0 0 127 0" result="hardAlpha"/>
<feOffset dx="1" dy="1"/>
<feColorMatrix type="matrix" values="0 0 0 0 0 0 0 0 0 0 0 0 0 0 0 0 0 0 0.25 0"/>
<feBlend mode="normal" in2="BackgroundImageFix" result="effect1_dropShadow"/>
<feBlend mode="normal" in="SourceGraphic" in2="effect1_dropShadow" result="shape"/>
</filter>
</defs>
</svg>
