<svg width="52" height="52" viewBox="0 0 52 52" fill="none" xmlns="http://www.w3.org/2000/svg">
<path d="M24.5801 17.0205C23.8601 18.1904 22.87 19.5103 21.79 20.7402C21.2641 21.2461 20.7765 21.7903 20.3311 22.3682L19.9902 22.8105C19.2126 23.6076 18.4212 24.3528 17.6592 25H40V27H17.7803C18.5048 27.6161 19.2536 28.325 19.9902 29.0801C20.3291 29.3591 20.6368 29.6746 20.9072 30.0205L21.79 31.1504C22.87 32.3804 23.8601 33.7002 24.5801 34.8701L22.8105 35.8896C20.5005 32.2297 16.57 28.2099 13 25.96C16.57 23.68 20.5006 19.66 22.8105 16L24.5801 17.0205Z" fill="#454545"/>
</svg>
