<svg width="52" height="52" viewBox="0 0 52 52" fill="none" xmlns="http://www.w3.org/2000/svg">
<path d="M28.4199 17.0205C29.1399 18.1904 30.13 19.5103 31.21 20.7402C31.7359 21.2461 32.2235 21.7903 32.6689 22.3682L33.0098 22.8105C33.7874 23.6076 34.5788 24.3528 35.3408 25H13V27H35.2197C34.4952 27.6161 33.7464 28.325 33.0098 29.0801C32.6709 29.3591 32.3632 29.6746 32.0928 30.0205L31.21 31.1504C30.13 32.3804 29.1399 33.7002 28.4199 34.8701L30.1895 35.8896C32.4995 32.2297 36.43 28.2099 40 25.96C36.43 23.68 32.4994 19.66 30.1895 16L28.4199 17.0205Z" fill="#454545"/>
</svg>
