<svg width="53" height="53" viewBox="0 0 53 53" fill="none" xmlns="http://www.w3.org/2000/svg">
<g filter="url(#filter0_d)">
<rect width="52" height="52" fill="none"/>
<path d="M12 25.9483C12 25.9483 12 25.8067 12 25.5237C12 25.2407 12.1524 25.023 12.4572 24.8706H37.4403C34.9148 22.9764 33.3581 20.5489 32.7703 17.5879C32.7703 17.5661 32.7703 17.5335 32.7703 17.4899C32.7703 17.4464 32.7594 17.4137 32.7376 17.392C32.7376 17.1307 32.9227 17.0001 33.2928 17.0001H33.3908C33.5867 17.0001 33.7173 17.011 33.7827 17.0327C33.848 17.0545 33.9133 17.098 33.9786 17.1634C34.0439 17.2287 34.0766 17.3266 34.0766 17.4573C34.0766 17.5879 34.1092 17.7621 34.1745 17.9798C34.2399 18.1975 34.327 18.4697 34.4358 18.7962C34.9148 20.2549 35.7095 21.5613 36.8198 22.7152C37.9302 23.8691 39.2256 24.6855 40.7061 25.1645C40.902 25.2298 41 25.3495 41 25.5237C41 25.6543 40.9456 25.7523 40.8367 25.8176C40.7279 25.8829 40.4666 25.9918 40.0529 26.1442C39.6393 26.2966 39.2256 26.5034 38.8119 26.7647C37.9193 27.3308 37.1464 27.9839 36.4932 28.7242C35.8401 29.4644 35.3502 30.1938 35.0236 30.9122C34.6971 31.6307 34.4685 32.175 34.3378 32.5451C34.2072 32.9152 34.1201 33.2527 34.0766 33.5575C34.033 33.7752 33.9786 33.9058 33.9133 33.9494C33.848 33.9929 33.6738 34.0256 33.3908 34.0474C32.9553 34.0474 32.7376 33.9276 32.7376 33.6881C32.7376 33.5357 32.792 33.2636 32.9009 32.8717C33.5976 30.1284 35.1107 27.8968 37.4403 26.1769H12.4572C12.1524 26.0245 12 25.8067 12 25.5237V25.9483Z" fill="black"/>
</g>
<defs>
<filter id="filter0_d" x="0" y="0" width="53" height="53" filterUnits="userSpaceOnUse" color-interpolation-filters="sRGB">
<feFlood flood-opacity="0" result="BackgroundImageFix"/>
<feColorMatrix in="SourceAlpha" type="matrix" values="0 0 0 0 0 0 0 0 0 0 0 0 0 0 0 0 0 0 127 0" result="hardAlpha"/>
<feOffset dx="1" dy="1"/>
<feColorMatrix type="matrix" values="0 0 0 0 0 0 0 0 0 0 0 0 0 0 0 0 0 0 0.25 0"/>
<feBlend mode="normal" in2="BackgroundImageFix" result="effect1_dropShadow"/>
<feBlend mode="normal" in="SourceGraphic" in2="effect1_dropShadow" result="shape"/>
</filter>
</defs>
</svg>
