<svg width="52" height="52" viewBox="0 0 52 52" fill="none" xmlns="http://www.w3.org/2000/svg">
<path d="M35.4243 24.0249C34.2544 23.3049 32.9345 22.3148 31.7046 21.2349C31.1988 20.7089 30.6546 20.2214 30.0767 19.7759L29.6343 19.4351C28.8372 18.6575 28.092 17.8661 27.4448 17.104L27.4448 39.4448H25.4448L25.4448 17.2251C24.8288 17.9497 24.1198 18.6984 23.3647 19.4351C23.0857 19.774 22.7702 20.0817 22.4243 20.3521L21.2944 21.2349C20.0645 22.3148 18.7447 23.3049 17.5747 24.0249L16.5552 22.2554C20.2151 19.9454 24.2349 16.0148 26.4849 12.4448C28.7649 16.0148 32.7848 19.9454 36.4448 22.2554L35.4243 24.0249Z" fill="#454545"/>
</svg>
