<svg width="53" height="53" viewBox="0 0 53 53" fill="none" xmlns="http://www.w3.org/2000/svg">
<g filter="url(#filter0_d)">
<rect width="52" height="52" fill="none"/>
<path d="M19.3161 17.8507C19.1054 17.8507 19 17.6505 19 17.2501C19 17.1658 19 17.1026 19 17.0604C19 17.0183 19 16.9656 19 16.9024C19 16.8392 19.0211 16.8076 19.0632 16.8076C19.1054 16.8076 19.1159 16.7759 19.0948 16.7127C19.0738 16.6495 19.0948 16.6284 19.158 16.6495C19.2213 16.6706 19.2634 16.66 19.2845 16.6179C19.3056 16.5758 19.3477 16.5652 19.4109 16.5863C19.4741 16.6074 19.5374 16.5863 19.6006 16.5231C20.5278 16.2913 21.4128 15.8909 22.2557 15.3219C23.0986 14.753 23.7308 14.1735 24.1523 13.5834C24.7845 12.8037 25.2375 12.024 25.5115 11.2444C25.7854 10.4647 25.9435 9.8957 25.9856 9.53746C26.0278 9.17923 26.1542 9.00011 26.3649 9.00011C26.5756 9.00011 26.6915 9.10547 26.7126 9.3162C26.7126 9.42156 26.7442 9.64283 26.8074 9.97999C26.8707 10.3172 27.0603 10.844 27.3764 11.5604C27.6925 12.2769 28.0823 12.9407 28.5459 13.5518C29.2413 14.3737 29.9894 15.0269 30.7902 15.5116C31.591 15.9963 32.2653 16.3123 32.8132 16.4599L33.6034 16.6811C33.6877 16.7654 33.7298 16.9551 33.7298 17.2501C33.7298 17.6715 33.6139 17.8823 33.3821 17.8823C33.2768 17.8823 33.1293 17.8507 32.9396 17.7874C30.4952 17.1131 28.5881 15.7539 27.2184 13.7099L26.9971 13.3938V37.6063L27.2184 37.2902C27.8505 36.3209 28.6513 35.4991 29.6207 34.8247C30.59 34.1504 31.4013 33.6973 32.0546 33.4655C32.7078 33.2337 33.1609 33.1284 33.4137 33.1495C33.6245 33.1495 33.7298 33.3496 33.7298 33.75C33.7298 33.8343 33.7298 33.8975 33.7298 33.9397C33.7298 33.9818 33.7298 34.0345 33.7298 34.0977C33.7298 34.1609 33.7088 34.1926 33.6666 34.1926C33.6245 34.1926 33.6139 34.2242 33.635 34.2874C33.6561 34.3506 33.635 34.3717 33.5718 34.3506C33.5086 34.3295 33.4664 34.3401 33.4454 34.3822C33.4243 34.4244 33.3821 34.4349 33.3189 34.4138C33.2557 34.3927 33.1925 34.4138 33.1293 34.477C31.9281 34.7931 30.8745 35.3199 29.9684 36.0575C29.0622 36.795 28.3879 37.5642 27.9454 38.365C27.5028 39.1657 27.1868 39.8611 26.9971 40.4512C26.8074 41.0412 26.7126 41.4521 26.7126 41.6839C26.6705 41.8946 26.5546 42 26.3649 42C26.1963 42 26.0804 41.8209 26.0172 41.4626C25.954 41.1044 25.7854 40.5354 25.5115 39.7558C25.2375 38.9761 24.7845 38.1964 24.1523 37.4167C23.9205 37.1006 23.6571 36.8056 23.3621 36.5316C23.067 36.2577 22.7509 36.0153 22.4138 35.8046C22.0766 35.5939 21.7605 35.4042 21.4655 35.2357C21.1705 35.0671 20.8755 34.9301 20.5805 34.8247C20.2854 34.7194 20.0431 34.6245 19.8534 34.5403C19.6638 34.456 19.4847 34.4033 19.3161 34.3822L19.1264 34.319C19.0421 34.2347 19 34.045 19 33.75C19 33.3286 19.1159 33.1178 19.3477 33.1178C19.4531 33.1178 19.6006 33.1495 19.7902 33.2127C22.2347 33.887 24.1417 35.2462 25.5115 37.2902L25.7327 37.6063V13.3938L25.5115 13.7099C24.8582 14.6792 24.0469 15.501 23.0776 16.1754C22.1082 16.8497 21.3075 17.3028 20.6753 17.5346C20.0431 17.7664 19.59 17.8717 19.3161 17.8507Z" fill="black"/>
</g>
<defs>
<filter id="filter0_d" x="0" y="0" width="53" height="53" filterUnits="userSpaceOnUse" color-interpolation-filters="sRGB">
<feFlood flood-opacity="0" result="BackgroundImageFix"/>
<feColorMatrix in="SourceAlpha" type="matrix" values="0 0 0 0 0 0 0 0 0 0 0 0 0 0 0 0 0 0 127 0" result="hardAlpha"/>
<feOffset dx="1" dy="1"/>
<feColorMatrix type="matrix" values="0 0 0 0 0 0 0 0 0 0 0 0 0 0 0 0 0 0 0.25 0"/>
<feBlend mode="normal" in2="BackgroundImageFix" result="effect1_dropShadow"/>
<feBlend mode="normal" in="SourceGraphic" in2="effect1_dropShadow" result="shape"/>
</filter>
</defs>
</svg>
