<svg width="52" height="52" viewBox="0 0 52 52" fill="none" xmlns="http://www.w3.org/2000/svg">
<rect width="52" height="52" rx="4" fill="#D0F0FD"/>
<path d="M22.89 16.02L21.15 15C18.99 18.66 15.33 22.68 12 24.93C15.33 27.21 18.99 31.23 21.15 34.89L22.89 33.87C22.23 32.7 21.27 31.38 20.25 30.15H32.31C31.29 31.38 30.33 32.7 29.67 33.87L31.41 34.89C33.57 31.23 37.23 27.21 40.56 24.93C37.23 22.68 33.57 18.66 31.41 15L29.67 16.02C30.33 17.19 31.29 18.51 32.31 19.74H20.25C21.27 18.51 22.23 17.19 22.89 16.02ZM18.6 21.81H33.96C35.1 23.04 36.27 24.15 37.35 24.93C36.27 25.74 35.1 26.85 33.96 28.08H18.6C17.46 26.85 16.29 25.74 15.21 24.93C16.29 24.15 17.46 23.04 18.6 21.81Z" fill="black"/>
</svg>
