<svg width="53" height="53" viewBox="0 0 53 53" fill="none" xmlns="http://www.w3.org/2000/svg">
<g filter="url(#filter0_d_535_1656)">
<rect width="52" height="52" fill="white"/>
<path d="M15.45 25.9596C16.56 25.1496 17.79 24.0396 18.99 22.8096L40.08 22.8096L40.08 20.7396L20.79 20.7396C21.87 19.5096 22.86 18.1896 23.58 17.0196L21.81 15.9996C19.5 19.6596 15.57 23.6796 12 25.9596C15.57 28.2096 19.5 32.2296 21.81 35.8896L23.58 34.8696C22.86 33.6996 21.87 32.3796 20.79 31.1496L40.08 31.1496L40.08 29.0796L18.99 29.0796C17.79 27.8496 16.56 26.7396 15.45 25.9596Z" fill="black"/>
</g>
<defs>
<filter id="filter0_d_535_1656" x="0" y="0" width="53" height="53" filterUnits="userSpaceOnUse" color-interpolation-filters="sRGB">
<feFlood flood-opacity="0" result="BackgroundImageFix"/>
<feColorMatrix in="SourceAlpha" type="matrix" values="0 0 0 0 0 0 0 0 0 0 0 0 0 0 0 0 0 0 127 0" result="hardAlpha"/>
<feOffset dx="1" dy="1"/>
<feColorMatrix type="matrix" values="0 0 0 0 0 0 0 0 0 0 0 0 0 0 0 0 0 0 0.25 0"/>
<feBlend mode="normal" in2="BackgroundImageFix" result="effect1_dropShadow_535_1656"/>
<feBlend mode="normal" in="SourceGraphic" in2="effect1_dropShadow_535_1656" result="shape"/>
</filter>
</defs>
</svg>
