<svg width="52" height="52" viewBox="0 0 52 52" fill="none" xmlns="http://www.w3.org/2000/svg">
<path d="M25.4727 36.5547C24.1055 38.3646 22.4714 39.2695 20.5703 39.2695C19.2943 39.2695 18.2135 38.8073 17.3281 37.8828C16.4427 36.9453 16 35.7539 16 34.3086C16 32.3685 16.7292 30.6953 18.1875 29.2891C19.6458 27.8698 21.2799 27.1602 23.0898 27.1602C24.0273 27.1602 24.8281 27.349 25.4922 27.7266C26.1693 28.0911 26.6055 28.5924 26.8008 29.2305C27.3997 26.7695 28.2591 23.918 29.3789 20.6758C30.5117 17.4206 31.5534 14.862 32.5039 13H35.6289C34.418 15.3958 32.9271 19.4583 31.1562 25.1875C29.3854 30.9036 28.5 34.4779 28.5 35.9102C28.5 36.418 28.6042 36.6719 28.8125 36.6719C29.3333 36.6719 30.1667 35.8451 31.3125 34.1914L32.1523 34.9727C31.332 36.431 30.4531 37.5117 29.5156 38.2148C28.5781 38.918 27.8229 39.2695 27.25 39.2695C26.6901 39.2695 26.2474 39.0677 25.9219 38.6641C25.6094 38.2474 25.4531 37.6484 25.4531 36.8672C25.4531 36.8411 25.4531 36.7956 25.4531 36.7305C25.4661 36.6523 25.4727 36.5938 25.4727 36.5547ZM19.5352 34.1914C19.5352 36.2878 20.3424 37.3359 21.957 37.3359C23.4674 37.3359 24.7109 36.3268 25.6875 34.3086C26.1432 33.3581 26.3711 32.5898 26.3711 32.0039C26.3711 29.8945 25.5703 28.8398 23.9688 28.8398C22.901 28.8398 21.8919 29.3346 20.9414 30.3242C20.0039 31.3008 19.5352 32.5898 19.5352 34.1914Z" fill="#454545"/>
</svg>
