<svg width="52" height="52" viewBox="0 0 52 52" fill="none" xmlns="http://www.w3.org/2000/svg">
<path d="M13 44.6217L14.0223 42.3726C15.0447 42.6452 15.9648 42.8156 16.7826 42.8156C18.725 42.8156 20.1563 41.8615 21.2468 38.9649C22.4054 35.8638 23.1892 31.0929 24.0071 26.2539C24.859 21.2785 25.711 16.235 27.04 12.725C28.5394 8.77204 31.1293 7 34.0941 7C35.355 7 36.684 7.34078 38.013 7.9201L36.9907 10.1692C35.9684 9.8966 35.0483 9.72622 34.2304 9.72622C32.288 9.72622 30.8567 10.6804 29.7662 13.6111C28.5394 16.7803 27.7216 21.6875 26.8696 26.6628C26.0517 31.5018 25.2339 36.375 23.973 39.7827C22.4736 43.7357 19.8837 45.5418 16.9189 45.5418C15.6581 45.5418 14.329 45.2011 13 44.6217Z" fill="#454545"/>
</svg>
