<svg width="52" height="52" viewBox="0 0 52 52" fill="none" xmlns="http://www.w3.org/2000/svg">
<rect width="52" height="52" rx="4" fill="#D0F0FD"/>
<path d="M31.3416 12.1724H31.3344C30.9323 12.0575 30.5373 12 30.1567 12C29.259 12 28.4763 12.1436 27.8156 12.4309C27.1549 12.7181 26.6019 13.1059 26.1639 13.5943C25.7258 14.0826 25.3955 14.6571 25.1729 15.3178C24.9502 15.9785 24.8425 16.6822 24.8425 17.4291V33.9461C24.8425 34.4991 24.7922 35.0305 24.6989 35.5404C24.6055 36.0503 24.4332 36.4955 24.1962 36.8761C23.9592 37.2567 23.6432 37.5583 23.2626 37.781C22.882 38.0036 22.4009 38.1113 21.8264 38.1113C21.5606 38.1113 21.2447 38.0754 20.8784 37.9964C20.5122 37.9174 20.347 37.8815 20.1172 37.7882C19.7222 37.6302 19.2842 37.8456 19.1621 38.2478L19.0328 38.6715C18.9107 39.0592 19.1405 39.4758 19.5355 39.5763L19.5571 39.5835L19.8299 39.6553C20.031 39.7127 20.2393 39.763 20.4475 39.8133C20.6558 39.8636 20.8569 39.9066 21.0508 39.9426C21.2447 39.9785 21.417 40 21.5678 40C22.4655 40 23.2554 39.8564 23.9233 39.5691C24.5912 39.2819 25.1513 38.8941 25.5894 38.4057C26.0274 37.9174 26.3578 37.3429 26.566 36.6822C26.7743 36.0215 26.882 35.3178 26.882 34.5709V18.0036C26.882 17.465 26.9395 16.9479 27.0544 16.4524C27.1693 15.9569 27.3488 15.5189 27.5858 15.1454C27.8228 14.772 28.1387 14.4704 28.5194 14.2406C28.9 14.0108 29.3596 13.8959 29.8982 13.8959C30.1854 13.8959 30.487 13.9318 30.803 14.0108C30.8174 14.0108 30.8246 14.018 30.8389 14.018C31.2913 14.1329 31.7581 13.9031 31.952 13.4722C32.1818 12.9479 31.8946 12.3375 31.3416 12.1724Z" fill="#111928" stroke="#111928" stroke-width="0.25"/>
</svg>
