<svg width="52" height="52" viewBox="0 0 52 52" fill="none" xmlns="http://www.w3.org/2000/svg">
<rect width="52" height="52" rx="4" fill="#D0F0FD"/>
<g clip-path="url(#clip0_285_5907)">
<path d="M36.4818 13C29.5267 13 22.572 12.9997 15.617 13.0018C15.4112 13.0018 15.2055 13.0289 15 13.0434V14.3912C15.0476 14.4994 15.1057 14.6045 15.1416 14.7163C16.4099 18.6672 17.6772 22.6184 18.9419 26.5706C20.4325 31.2283 21.9234 35.8856 23.4044 40.5463C23.5089 40.8756 23.6547 41.0169 24.0201 40.9988C24.6916 40.9657 25.3667 40.9675 26.0385 40.9979C26.4235 41.0154 26.853 40.8724 27 40.5C30.3876 31.9284 33.553 23.3872 36.9316 14.8124C37.1418 14.2785 37.1364 13.6598 37.2446 13.0003L36.4818 13ZM25.9129 36.3077C25.8756 36.3104 24.8382 36.3131 24.8011 36.3158C22.7047 29.6527 20.608 21.9893 18.4974 15.2813H33.5349C30.989 21.9703 28.451 29.6391 25.9129 36.3077Z" fill="#111928"/>
</g>
<defs>
<clipPath id="clip0_285_5907">
<rect width="22.2446" height="28" fill="white" transform="translate(15 12)"/>
</clipPath>
</defs>
</svg>
