<svg width="52" height="52" viewBox="0 0 52 52" fill="none" xmlns="http://www.w3.org/2000/svg">
<path d="M24.92 40.4C20.12 40.4 17 35.96 17 30.8C17 24.52 21.12 20.64 25.32 20.36C27.24 20.2 29.12 20.8 30.68 22.28C29.72 17.32 27.48 14.04 24.32 14.04C22.8 14.04 21.04 14.8 19.08 16.56L17.72 14.2C19.48 12.28 22.12 11 24.8 11C29.68 11 34.64 15.28 34.64 27.8C34.64 36.36 30.36 40.4 24.92 40.4ZM20.48 30.8C20.48 34.52 21.96 37.44 25.32 37.44C29.68 37.44 31.64 31.52 31.16 26.04C30 23.92 27.76 22.76 25.68 22.96C23 23.28 20.48 25.84 20.48 30.8Z" fill="#454545"/>
</svg>
