<svg width="52" height="52" viewBox="0 0 52 52" fill="none" xmlns="http://www.w3.org/2000/svg">
<rect width="52" height="52" rx="4" fill="#D0F0FD"/>
<path d="M18.2156 14.0135C19.4696 13.1018 21.5593 12 24.7884 12C30.031 12 34.78 16.7111 34.78 25.4491C34.78 35.0993 29.9172 40 24.5604 40C19.2036 40 17 36.0489 17 32.0215C17 26.8548 20.6472 22.7515 25.3203 22.7515C28.474 22.7515 30.5 25 31.513 26.0569L32 26.5C32.0379 26.1202 32 25.4177 32 25C32 18.3134 28.0713 14.5 24.5 14.5C22.0305 14.5 20.5259 15.2784 19.5 16L18.2156 14.0135ZM31.513 30C30.7914 28.1383 28.1213 25 25.5 25C22.4606 25 19 28.2984 19 32.0215C19 35.3648 21.8412 37.5 24.5 37.5C27.9196 37.5 30.9806 34.3309 31.513 30Z" fill="#111928"/>
</svg>
