<svg width="52" height="52" viewBox="0 0 52 52" fill="none" xmlns="http://www.w3.org/2000/svg">
<rect width="52" height="52" rx="4" fill="#D0F0FD"/>
<path d="M35.1206 18.1348C35.0576 18.1348 34.916 18.1033 34.6958 18.0404C34.4755 17.9774 34.3601 17.9145 34.3496 17.8516C34.3496 17.7781 34.6381 16.5614 35.215 14.2013C35.7919 11.8412 36.1118 10.6087 36.1747 10.5038C36.3321 10.1682 36.6048 10.0004 36.9929 10.0004C37.2027 10.0004 37.423 10.079 37.6537 10.2364C37.8845 10.3937 37.9999 10.6245 37.9999 10.9287C37.9999 10.9811 37.9894 11.0598 37.9684 11.1647C37.9579 11.2381 37.5016 12.4076 36.5996 14.6733C35.6975 16.939 35.2307 18.0823 35.1992 18.1033C35.1678 18.1243 35.1415 18.1348 35.1206 18.1348Z" fill="black"/>
<path d="M16.0892 40.2459C16.1334 40.2459 16.1997 40.268 16.2881 40.3123C16.3766 40.3565 16.4981 40.3896 16.6529 40.4117C16.8077 40.4339 16.9403 40.4449 17.0508 40.4449C17.3382 40.4449 17.6035 40.3012 17.8467 40.0138C18.0899 39.7264 18.2667 39.4059 18.3773 39.0521C18.5984 38.4552 18.9742 36.764 19.5048 33.9785C20.0353 31.1929 20.5438 28.54 21.0302 26.0198C21.5165 23.4995 21.7597 22.2283 21.7597 22.2062V22.1067H20.2012C19.1621 22.1067 18.6094 22.0846 18.5431 22.0404C18.4547 21.9741 18.4104 21.8636 18.4104 21.7088L18.6426 20.7803C18.6868 20.6698 18.7752 20.6145 18.9079 20.6145C19.0405 20.6145 19.56 20.6034 20.4664 20.5813C21.5276 20.5813 22.0582 20.5703 22.0582 20.5482C22.0582 20.504 22.1577 19.9513 22.3566 18.8901C22.5556 17.8289 22.6882 17.1878 22.7546 16.9668C23.5725 13.319 25.1864 11.4952 27.5961 11.4952C28.4141 11.5394 29.0884 11.7825 29.6189 12.2247C30.1495 12.6668 30.4148 13.2527 30.4148 13.9822C30.4148 14.7781 30.1827 15.3529 29.7184 15.7066C29.2542 16.0603 28.7899 16.2483 28.3257 16.2704C27.3529 16.2704 26.8666 15.8061 26.8666 14.8776C26.8666 14.4576 26.9882 14.0928 27.2313 13.7833C27.4745 13.4738 27.7398 13.2416 28.0272 13.0869L28.3257 12.9211C27.9719 12.7884 27.6403 12.7221 27.3308 12.7221C27.0655 12.7221 26.8113 12.8327 26.5681 13.0537C26.3249 13.2748 26.1591 13.5843 26.0707 13.9822C25.9159 14.6234 25.7391 15.4856 25.5401 16.5688C25.3411 17.6521 25.1643 18.5695 25.0095 19.3212C24.8548 20.0729 24.7774 20.4708 24.7774 20.515C24.7774 20.5592 25.3854 20.5813 26.6013 20.5813C27.5961 20.5813 28.1709 20.5924 28.3257 20.6145C28.4804 20.6366 28.602 20.7029 28.6904 20.8135C28.7125 20.9019 28.6904 21.0898 28.6241 21.3772C28.5578 21.6646 28.5025 21.8415 28.4583 21.9078C28.4141 22.0183 28.3146 22.0736 28.1598 22.0736C28.0051 22.0736 27.4082 22.0846 26.3691 22.1067H24.5121L23.7494 26.1524C22.6882 31.6351 21.9476 35.0617 21.5276 36.4324C20.9307 38.3115 20.1569 39.7043 19.2063 40.6107C18.3883 41.3182 17.5814 41.6719 16.7855 41.6719C16.0781 41.6719 15.437 41.4619 14.8622 41.0418C14.2874 40.6218 14 40.0249 14 39.2511C14 38.4331 14.2321 37.8362 14.6964 37.4604C15.1606 37.0846 15.6249 36.8967 16.0892 36.8967C17.0619 36.8967 17.5483 37.3609 17.5483 38.2894C17.5483 38.7095 17.4267 39.0742 17.1835 39.3837C16.9403 39.6933 16.675 39.9254 16.3876 40.0801L16.0892 40.2459Z" fill="black"/>
</svg>
