<svg width="53" height="53" viewBox="0 0 53 53" fill="none" xmlns="http://www.w3.org/2000/svg">
<g filter="url(#filter0_d_531_2748)">
<rect width="52" height="52" fill="white"/>
<path d="M27.5765 24.7043L32.743 32.3878C34.1758 34.5123 35.234 35.852 35.9211 36.4066C36.6082 36.9614 37.4888 37.2741 38.5665 37.345V38H28.2334V37.345C28.9199 37.3331 29.4288 37.2623 29.7603 37.1325C30.0088 37.0263 30.21 36.8669 30.3639 36.6545C30.5184 36.442 30.6001 36.2177 30.6125 35.9817C30.6125 35.7103 30.5592 35.4388 30.4527 35.1674C30.3698 34.9668 30.0443 34.4473 29.4762 33.6094L25.3927 27.4484L20.3504 33.8927C19.8177 34.5773 19.4982 35.0316 19.3916 35.2559C19.2851 35.4802 19.2318 35.722 19.2318 35.9817C19.2318 36.3594 19.3916 36.6722 19.7112 36.9201C20.0308 37.1679 20.6403 37.3095 21.5399 37.345V38H13V37.345C13.6037 37.2859 14.1244 37.162 14.5624 36.9732C15.2962 36.6663 15.9947 36.2532 16.6574 35.7339C17.3202 35.2146 18.0778 34.4179 18.93 33.3438L24.6115 26.1914L19.871 19.2692C18.5808 17.3925 17.486 16.1656 16.5864 15.5867C15.6868 15.0078 14.6512 14.6962 13.4794 14.6484V13.9934H24.6115V14.6484C23.6646 14.6838 23.0194 14.8378 22.6762 15.1087C22.333 15.3796 22.1555 15.6806 22.1436 16.0116C22.1436 16.4489 22.4276 17.0863 22.9958 17.9237L26.6887 23.4296L30.9676 18.0299C31.4647 17.3925 31.7665 16.9552 31.8731 16.7198C31.9796 16.4843 32.0382 16.2418 32.0506 15.9939C32.0506 15.7461 31.9796 15.5283 31.8375 15.3389C31.66 15.091 31.4345 14.9193 31.1629 14.8255C30.8912 14.7316 30.3284 14.6714 29.4762 14.6484V13.9934H38.0161V14.6484C37.3414 14.6838 36.7911 14.79 36.3649 14.9671C35.7258 15.238 35.1399 15.6044 34.6072 16.0647C34.0746 16.525 33.3236 17.3748 32.3524 18.6141L27.5765 24.7043Z" fill="black"/>
</g>
<defs>
<filter id="filter0_d_531_2748" x="0" y="0" width="53" height="53" filterUnits="userSpaceOnUse" color-interpolation-filters="sRGB">
<feFlood flood-opacity="0" result="BackgroundImageFix"/>
<feColorMatrix in="SourceAlpha" type="matrix" values="0 0 0 0 0 0 0 0 0 0 0 0 0 0 0 0 0 0 127 0" result="hardAlpha"/>
<feOffset dx="1" dy="1"/>
<feColorMatrix type="matrix" values="0 0 0 0 0 0 0 0 0 0 0 0 0 0 0 0 0 0 0.25 0"/>
<feBlend mode="normal" in2="BackgroundImageFix" result="effect1_dropShadow_531_2748"/>
<feBlend mode="normal" in="SourceGraphic" in2="effect1_dropShadow_531_2748" result="shape"/>
</filter>
</defs>
</svg>
