<svg width="53" height="53" viewBox="0 0 53 53" fill="none" xmlns="http://www.w3.org/2000/svg">
<g filter="url(#filter0_d_531_2737)">
<rect width="52" height="52" fill="white"/>
<path d="M16 13.9933H34.0563L34.5357 20.0304H33.861C33.7776 18.8389 33.577 17.929 33.2574 17.304C32.9378 16.679 32.4998 16.2187 31.9436 15.9231C31.3873 15.6274 30.5054 15.4858 29.2981 15.4982H21.0778L28.4104 24.8813L20.0658 34.7071H29.2094C30.8664 34.7071 32.133 34.4415 33.0088 33.9104C33.8841 33.3793 34.541 32.2697 34.9796 30.582L35.6543 30.7414L34.6245 38H16V37.3627L25.2679 26.457L16 14.6307V13.9933Z" fill="black"/>
</g>
<defs>
<filter id="filter0_d_531_2737" x="0" y="0" width="53" height="53" filterUnits="userSpaceOnUse" color-interpolation-filters="sRGB">
<feFlood flood-opacity="0" result="BackgroundImageFix"/>
<feColorMatrix in="SourceAlpha" type="matrix" values="0 0 0 0 0 0 0 0 0 0 0 0 0 0 0 0 0 0 127 0" result="hardAlpha"/>
<feOffset dx="1" dy="1"/>
<feColorMatrix type="matrix" values="0 0 0 0 0 0 0 0 0 0 0 0 0 0 0 0 0 0 0.25 0"/>
<feBlend mode="normal" in2="BackgroundImageFix" result="effect1_dropShadow_531_2737"/>
<feBlend mode="normal" in="SourceGraphic" in2="effect1_dropShadow_531_2737" result="shape"/>
</filter>
</defs>
</svg>
