<svg width="53" height="53" viewBox="0 0 53 53" fill="none" xmlns="http://www.w3.org/2000/svg">
<g filter="url(#filter0_d)">
<rect width="52" height="52" fill="white"/>
<path d="M18.3269 20.1545C18.109 20.1545 18 19.9474 18 19.5333C18 19.4461 18 19.3807 18 19.3371C18 19.2935 18 19.239 18 19.1736C18 19.1082 18.0218 19.0755 18.0654 19.0755C18.109 19.0755 18.1199 19.0428 18.0981 18.9775C18.0763 18.9121 18.0981 18.8903 18.1635 18.9121C18.2289 18.9339 18.2725 18.923 18.2943 18.8794C18.316 18.8358 18.3596 18.8249 18.425 18.8467C18.4904 18.8685 18.5558 18.8467 18.6212 18.7813C19.5802 18.5415 20.4957 18.1274 21.3675 17.5389C22.2394 16.9504 22.8933 16.351 23.3292 15.7407C24.3536 14.4765 24.9857 13.0706 25.2255 11.5231C25.2691 11.1744 25.4107 11 25.6505 11C25.8249 11 25.9339 11.109 25.9775 11.3269C25.9775 11.4795 26.021 11.752 26.1082 12.1443C26.1954 12.5366 26.4025 13.0924 26.7294 13.8117C27.0564 14.531 27.4487 15.174 27.9064 15.7407C28.3424 16.2638 28.811 16.7215 29.3123 17.1139C29.8136 17.5062 30.2713 17.8113 30.6855 18.0293C31.0996 18.2473 31.481 18.4216 31.8298 18.5524C32.1785 18.6832 32.4728 18.7704 32.7125 18.814C32.9523 18.8576 33.0831 18.9012 33.1048 18.9448C33.192 19.0319 33.2356 19.2281 33.2356 19.5333C33.2356 19.9692 33.1157 20.1871 32.876 20.1871C32.767 20.1871 32.6144 20.1545 32.4183 20.0891C29.8899 19.3916 27.9173 17.9857 26.5006 15.8715L26.2717 15.5445V39.5423C26.0973 39.8474 25.9012 40 25.6832 40H25.6178H25.5524C25.2909 40 25.0947 39.8474 24.9639 39.5423V15.5445L24.7351 15.8715C24.0594 16.8741 23.2202 17.7242 22.2176 18.4216C21.215 19.1191 20.3867 19.5877 19.7328 19.8275C19.0789 20.0673 18.6103 20.1762 18.3269 20.1545Z" fill="black"/>
</g>
<defs>
<filter id="filter0_d" x="0" y="0" width="53" height="53" filterUnits="userSpaceOnUse" color-interpolation-filters="sRGB">
<feFlood flood-opacity="0" result="BackgroundImageFix"/>
<feColorMatrix in="SourceAlpha" type="matrix" values="0 0 0 0 0 0 0 0 0 0 0 0 0 0 0 0 0 0 127 0" result="hardAlpha"/>
<feOffset dx="1" dy="1"/>
<feColorMatrix type="matrix" values="0 0 0 0 0 0 0 0 0 0 0 0 0 0 0 0 0 0 0.25 0"/>
<feBlend mode="normal" in2="BackgroundImageFix" result="effect1_dropShadow"/>
<feBlend mode="normal" in="SourceGraphic" in2="effect1_dropShadow" result="shape"/>
</filter>
</defs>
</svg>
