<svg width="53" height="53" viewBox="0 0 53 53" fill="none" xmlns="http://www.w3.org/2000/svg">
<g filter="url(#filter0_d_531_4398)">
<rect width="52" height="52" fill="none"/>
<path d="M30.5 25.4875C31.7125 24.65 32.5625 23.275 32.5625 22C32.5625 19.175 30.375 17 27.5625 17H19.75V34.5H28.55C31.1625 34.5 33.1875 32.375 33.1875 29.7625C33.1875 27.8625 32.1125 26.2375 30.5 25.4875V25.4875ZM23.5 20.125H27.25C28.2875 20.125 29.125 20.9625 29.125 22C29.125 23.0375 28.2875 23.875 27.25 23.875H23.5V20.125ZM27.875 31.375H23.5V27.625H27.875C28.9125 27.625 29.75 28.4625 29.75 29.5C29.75 30.5375 28.9125 31.375 27.875 31.375Z" fill="black"/>
</g>
<defs>
<filter id="filter0_d_531_4398" x="0" y="0" width="53" height="53" filterUnits="userSpaceOnUse" color-interpolation-filters="sRGB">
<feFlood flood-opacity="0" result="BackgroundImageFix"/>
<feColorMatrix in="SourceAlpha" type="matrix" values="0 0 0 0 0 0 0 0 0 0 0 0 0 0 0 0 0 0 127 0" result="hardAlpha"/>
<feOffset dx="1" dy="1"/>
<feColorMatrix type="matrix" values="0 0 0 0 0 0 0 0 0 0 0 0 0 0 0 0 0 0 0.25 0"/>
<feBlend mode="normal" in2="BackgroundImageFix" result="effect1_dropShadow_531_4398"/>
<feBlend mode="normal" in="SourceGraphic" in2="effect1_dropShadow_531_4398" result="shape"/>
</filter>
</defs>
</svg>
