<svg width="52" height="52" viewBox="0 0 52 52" fill="none" xmlns="http://www.w3.org/2000/svg">
<path d="M19 37V15H25.5057C26.9261 15 28.1856 15.1791 29.2841 15.5373C30.4015 15.8955 31.2727 16.4726 31.8977 17.2687C32.5417 18.0448 32.8636 19.0896 32.8636 20.403C32.8636 21.1194 32.7405 21.796 32.4943 22.4328C32.267 23.0697 31.9356 23.6368 31.5 24.1343C31.0644 24.6119 30.5246 24.9602 29.8807 25.1791V25.3284C31.0739 25.5871 32.0587 26.1542 32.8352 27.0299C33.6117 27.8856 34 29.0597 34 30.5522C34 32.005 33.6496 33.209 32.9489 34.1642C32.267 35.1194 31.3201 35.8358 30.108 36.3134C28.9148 36.7711 27.5417 37 25.9886 37H19ZM22.2955 24.194H25.108C26.6989 24.194 27.8447 23.8955 28.5455 23.2985C29.2652 22.7015 29.625 21.8955 29.625 20.8806C29.625 19.7463 29.2557 18.9403 28.517 18.4627C27.7784 17.9652 26.6705 17.7164 25.1932 17.7164H22.2955V24.194ZM22.2955 34.2836H25.6193C27.2481 34.2836 28.5076 33.9652 29.3977 33.3284C30.3068 32.6915 30.7614 31.7065 30.7614 30.3731C30.7614 29.1393 30.3163 28.2438 29.4261 27.6866C28.5549 27.1095 27.286 26.8209 25.6193 26.8209H22.2955V34.2836Z" fill="#454545"/>
</svg>
