<svg width="53" height="53" viewBox="0 0 53 53" fill="none" xmlns="http://www.w3.org/2000/svg">
<g filter="url(#filter0_d_531_4410)">
<rect width="52" height="52" fill="white"/>
<path d="M15.875 26C15.875 23.8625 17.6125 22.125 19.75 22.125H24.75V19.75H19.75C16.3 19.75 13.5 22.55 13.5 26C13.5 29.45 16.3 32.25 19.75 32.25H24.75V29.875H19.75C17.6125 29.875 15.875 28.1375 15.875 26ZM21 27.25H31V24.75H21V27.25ZM32.25 19.75H27.25V22.125H32.25C34.3875 22.125 36.125 23.8625 36.125 26C36.125 28.1375 34.3875 29.875 32.25 29.875H27.25V32.25H32.25C35.7 32.25 38.5 29.45 38.5 26C38.5 22.55 35.7 19.75 32.25 19.75Z" fill="black"/>
</g>
<defs>
<filter id="filter0_d_531_4410" x="0" y="0" width="53" height="53" filterUnits="userSpaceOnUse" color-interpolation-filters="sRGB">
<feFlood flood-opacity="0" result="BackgroundImageFix"/>
<feColorMatrix in="SourceAlpha" type="matrix" values="0 0 0 0 0 0 0 0 0 0 0 0 0 0 0 0 0 0 127 0" result="hardAlpha"/>
<feOffset dx="1" dy="1"/>
<feColorMatrix type="matrix" values="0 0 0 0 0 0 0 0 0 0 0 0 0 0 0 0 0 0 0.25 0"/>
<feBlend mode="normal" in2="BackgroundImageFix" result="effect1_dropShadow_531_4410"/>
<feBlend mode="normal" in="SourceGraphic" in2="effect1_dropShadow_531_4410" result="shape"/>
</filter>
</defs>
</svg>
