<svg width="52" height="52" viewBox="0 0 52 52" fill="none" xmlns="http://www.w3.org/2000/svg">
<path d="M16.55 26C16.55 24.005 18.1717 22.3833 20.1667 22.3833H24.8334V20.1667H20.1667C16.9467 20.1667 14.3334 22.78 14.3334 26C14.3334 29.22 16.9467 31.8333 20.1667 31.8333H24.8334V29.6167H20.1667C18.1717 29.6167 16.55 27.995 16.55 26ZM21.3334 27.1667H30.6667V24.8333H21.3334V27.1667ZM31.8334 20.1667H27.1667V22.3833H31.8334C33.8284 22.3833 35.45 24.005 35.45 26C35.45 27.995 33.8284 29.6167 31.8334 29.6167H27.1667V31.8333H31.8334C35.0534 31.8333 37.6667 29.22 37.6667 26C37.6667 22.78 35.0534 20.1667 31.8334 20.1667Z" fill="#454545"/>
</svg>
