<svg width="52" height="52" viewBox="0 0 52 52" fill="none" xmlns="http://www.w3.org/2000/svg">
<rect width="52" height="52" rx="4" fill="#D0F0FD"/>
<path fill-rule="evenodd" clip-rule="evenodd" d="M19.2273 23C18.3955 23 17.5977 23.3161 17.0095 23.8787C16.4213 24.4413 16.0909 25.2044 16.0909 26C16.0909 26.7956 16.4213 27.5587 17.0095 28.1213C17.5977 28.6839 18.3955 29 19.2273 29H22.3636C22.6409 29 22.9068 29.1054 23.1029 29.2929C23.2989 29.4804 23.4091 29.7348 23.4091 30C23.4091 30.2652 23.2989 30.5196 23.1029 30.7071C22.9068 30.8946 22.6409 31 22.3636 31H19.2273C17.8409 31 16.5113 30.4732 15.531 29.5355C14.5507 28.5979 14 27.3261 14 26C14 24.6739 14.5507 23.4021 15.531 22.4645C16.5113 21.5268 17.8409 21 19.2273 21H22.3636C22.6409 21 22.9068 21.1054 23.1029 21.2929C23.2989 21.4804 23.4091 21.7348 23.4091 22C23.4091 22.2652 23.2989 22.5196 23.1029 22.7071C22.9068 22.8946 22.6409 23 22.3636 23H19.2273ZM20.2727 26C20.2727 25.7348 20.3829 25.4804 20.5789 25.2929C20.775 25.1054 21.0409 25 21.3182 25H29.6818C29.9591 25 30.225 25.1054 30.4211 25.2929C30.6171 25.4804 30.7273 25.7348 30.7273 26C30.7273 26.2652 30.6171 26.5196 30.4211 26.7071C30.225 26.8946 29.9591 27 29.6818 27H21.3182C21.0409 27 20.775 26.8946 20.5789 26.7071C20.3829 26.5196 20.2727 26.2652 20.2727 26ZM28.6364 21C28.3591 21 28.0932 21.1054 27.8971 21.2929C27.7011 21.4804 27.5909 21.7348 27.5909 22C27.5909 22.2652 27.7011 22.5196 27.8971 22.7071C28.0932 22.8946 28.3591 23 28.6364 23H31.7727C32.6045 23 33.4023 23.3161 33.9905 23.8787C34.5787 24.4413 34.9091 25.2044 34.9091 26C34.9091 26.7956 34.5787 27.5587 33.9905 28.1213C33.4023 28.6839 32.6045 29 31.7727 29H28.6364C28.3591 29 28.0932 29.1054 27.8971 29.2929C27.7011 29.4804 27.5909 29.7348 27.5909 30C27.5909 30.2652 27.7011 30.5196 27.8971 30.7071C28.0932 30.8946 28.3591 31 28.6364 31H31.7727C33.1591 31 34.4887 30.4732 35.469 29.5355C36.4493 28.5979 37 27.3261 37 26C37 24.6739 36.4493 23.4021 35.469 22.4645C34.4887 21.5268 33.1591 21 31.7727 21H28.6364Z" fill="black"/>
</svg>
