<svg width="53" height="53" viewBox="0 0 53 53" fill="none" xmlns="http://www.w3.org/2000/svg">
<g filter="url(#filter0_d_531_4408)">
<rect width="52" height="52" fill="none"/>
<path d="M16 24.125C14.9625 24.125 14.125 24.9625 14.125 26C14.125 27.0375 14.9625 27.875 16 27.875C17.0375 27.875 17.875 27.0375 17.875 26C17.875 24.9625 17.0375 24.125 16 24.125ZM16 16.625C14.9625 16.625 14.125 17.4625 14.125 18.5C14.125 19.5375 14.9625 20.375 16 20.375C17.0375 20.375 17.875 19.5375 17.875 18.5C17.875 17.4625 17.0375 16.625 16 16.625ZM16 31.625C14.9625 31.625 14.125 32.475 14.125 33.5C14.125 34.525 14.975 35.375 16 35.375C17.025 35.375 17.875 34.525 17.875 33.5C17.875 32.475 17.0375 31.625 16 31.625ZM19.75 34.75H37.25V32.25H19.75V34.75ZM19.75 27.25H37.25V24.75H19.75V27.25ZM19.75 17.25V19.75H37.25V17.25H19.75Z" fill="black"/>
</g>
<defs>
<filter id="filter0_d_531_4408" x="0" y="0" width="53" height="53" filterUnits="userSpaceOnUse" color-interpolation-filters="sRGB">
<feFlood flood-opacity="0" result="BackgroundImageFix"/>
<feColorMatrix in="SourceAlpha" type="matrix" values="0 0 0 0 0 0 0 0 0 0 0 0 0 0 0 0 0 0 127 0" result="hardAlpha"/>
<feOffset dx="1" dy="1"/>
<feColorMatrix type="matrix" values="0 0 0 0 0 0 0 0 0 0 0 0 0 0 0 0 0 0 0.25 0"/>
<feBlend mode="normal" in2="BackgroundImageFix" result="effect1_dropShadow_531_4408"/>
<feBlend mode="normal" in="SourceGraphic" in2="effect1_dropShadow_531_4408" result="shape"/>
</filter>
</defs>
</svg>
