<svg width="52" height="52" viewBox="0 0 52 52" fill="none" xmlns="http://www.w3.org/2000/svg">
<rect width="52" height="52" rx="4" fill="#D0F0FD"/>
<path fill-rule="evenodd" clip-rule="evenodd" d="M27.3626 36H30V16H27.3626V24.4594H16.6374V16H14V36H16.6374V26.6723H27.3626V36ZM34.0456 32.0226C34.0152 32.3455 34 32.67 34 32.996C34 33.5083 34.0562 33.9523 34.1687 34.328C34.2812 34.7037 34.4347 35.0157 34.6293 35.2641C34.8239 35.5125 35.0534 35.6973 35.3179 35.8184C35.5855 35.9395 35.8712 36 36.1752 36C36.4853 36 36.765 35.9472 37.0143 35.8417C37.2636 35.7361 37.4764 35.5855 37.6528 35.3899C37.8291 35.1912 37.9644 34.9505 38.0586 34.668C38.1529 34.3855 38.2 34.0672 38.2 33.7132C38.2 33.3841 38.1544 33.0923 38.0632 32.8377C37.975 32.58 37.8489 32.3626 37.6847 32.1856C37.5205 32.0086 37.3214 31.8751 37.0873 31.7851C36.8532 31.6919 36.5917 31.6454 36.3029 31.6454C36.1236 31.6454 35.9609 31.6656 35.815 31.7059C35.6721 31.7463 35.5429 31.8022 35.4274 31.8736C35.3118 31.9419 35.21 32.0257 35.1218 32.1251C35.0367 32.2213 34.9637 32.3253 34.9029 32.4371H34.8482C34.8573 32.1887 34.8771 31.9497 34.9075 31.7199C34.9379 31.4901 34.985 31.2743 35.0489 31.0725C35.1127 30.8676 35.1948 30.6813 35.2951 30.5136C35.3985 30.346 35.5262 30.2016 35.6782 30.0805C35.8302 29.9594 36.0096 29.8663 36.2163 29.8011C36.4261 29.7328 36.6678 29.6986 36.9414 29.6986C37.0721 29.6986 37.2043 29.7079 37.3381 29.7265C37.4719 29.7452 37.592 29.7731 37.6984 29.8104V29.0885C37.6467 29.073 37.5874 29.0605 37.5205 29.0512C37.4567 29.0388 37.3883 29.0295 37.3153 29.0233C37.2454 29.014 37.1755 29.0078 37.1055 29.0047C37.0356 29.0016 36.9718 29 36.914 29C36.5097 29 36.157 29.0543 35.856 29.163C35.555 29.2686 35.2966 29.4161 35.0808 29.6055C34.8649 29.7917 34.6871 30.0122 34.5472 30.2668C34.4074 30.5214 34.2964 30.7977 34.2143 31.0958C34.1353 31.3908 34.079 31.6997 34.0456 32.0226ZM36.6632 35.1943C36.5142 35.2564 36.3485 35.2874 36.1661 35.2874C35.9442 35.2874 35.7496 35.2362 35.5824 35.1337C35.4152 35.0282 35.2754 34.8931 35.1629 34.7285C35.0534 34.564 34.9698 34.3792 34.9121 34.1743C34.8573 33.9663 34.83 33.7583 34.83 33.5502C34.83 33.4012 34.8619 33.2522 34.9257 33.1031C34.9926 32.9541 35.0853 32.8221 35.2039 32.7073C35.3225 32.5893 35.4654 32.4946 35.6326 32.4232C35.8028 32.3486 35.9898 32.3114 36.1935 32.3114C36.3941 32.3114 36.5689 32.344 36.7179 32.4092C36.8699 32.4744 36.9961 32.5675 37.0964 32.6886C37.1967 32.8097 37.2712 32.9572 37.3199 33.1311C37.3716 33.3018 37.3974 33.4959 37.3974 33.7132C37.3974 33.9834 37.367 34.2178 37.3062 34.4165C37.2484 34.6121 37.1648 34.7751 37.0554 34.9055C36.9459 35.0328 36.8152 35.1291 36.6632 35.1943Z" fill="black"/>
</svg>
