<svg width="52" height="52" viewBox="0 0 52 52" fill="none" xmlns="http://www.w3.org/2000/svg">
<rect width="52" height="52" rx="4" fill="#D0F0FD"/>
<path fill-rule="evenodd" clip-rule="evenodd" d="M26.3626 36H29V16H26.3626V24.4594H15.6374V16H13V36H15.6374V26.6723H26.3626V36ZM37.4789 34.4381H38.6V33.6476H37.4789V29H36.4895L33 33.681V34.4381H36.5526V36H37.4789V34.4381ZM36.5526 31.9524V33.6476H33.9368L36.1 30.7524C36.1386 30.7016 36.1807 30.6397 36.2263 30.5667C36.2719 30.4937 36.3158 30.419 36.3579 30.3429C36.4035 30.2635 36.4439 30.1857 36.4789 30.1095C36.5175 30.0302 36.5491 29.9587 36.5737 29.8952H36.6211C36.6175 30.0032 36.6105 30.1381 36.6 30.3C36.593 30.4619 36.586 30.6365 36.5789 30.8238C36.5719 31.0079 36.5649 31.1984 36.5579 31.3952C36.5544 31.5889 36.5526 31.7746 36.5526 31.9524Z" fill="black"/>
</svg>
