<svg width="52" height="52" viewBox="0 0 52 52" fill="none" xmlns="http://www.w3.org/2000/svg">
<rect width="52" height="52" rx="4" fill="#D0F0FD"/>
<path fill-rule="evenodd" clip-rule="evenodd" d="M27.3626 36H30V16H27.3626V24.4594H16.6374V16H14V36H16.6374V26.6723H27.3626V36ZM38.053 31.31C38.1256 31.1238 38.1619 30.9173 38.1619 30.6906C38.1619 30.4453 38.1177 30.2202 38.0294 30.0153C37.941 29.8073 37.81 29.6287 37.6364 29.4797C37.4628 29.3276 37.2465 29.2096 36.9877 29.1257C36.732 29.0419 36.4337 29 36.0928 29C35.8718 29 35.6619 29.0186 35.4631 29.0559C35.2674 29.0931 35.0827 29.1444 34.9091 29.2096C34.7355 29.2717 34.5745 29.3446 34.4261 29.4285C34.2809 29.5123 34.1484 29.6024 34.0284 29.6986L34.464 30.2808C34.6976 30.1131 34.9422 29.978 35.1979 29.8756C35.4568 29.77 35.7551 29.7172 36.0928 29.7172C36.2696 29.7172 36.4306 29.7405 36.5758 29.7871C36.721 29.8337 36.8456 29.902 36.9498 29.992C37.054 30.079 37.1345 30.1861 37.1913 30.3134C37.2481 30.4407 37.2765 30.5851 37.2765 30.7465C37.2765 30.9359 37.2418 31.1098 37.1723 31.2681C37.1029 31.4265 37.0003 31.5631 36.8646 31.678C36.732 31.7929 36.5663 31.8813 36.3674 31.9434C36.1686 32.0055 35.9413 32.0366 35.6856 32.0366H35.0559V32.7399H35.6856C35.9665 32.7399 36.2175 32.7631 36.4384 32.8097C36.6626 32.8563 36.852 32.9293 37.0066 33.0286C37.1613 33.1249 37.2797 33.2491 37.3617 33.4012C37.447 33.5502 37.4896 33.7303 37.4896 33.9415C37.4896 34.1495 37.4564 34.3373 37.3902 34.505C37.327 34.6727 37.226 34.8139 37.0871 34.9288C36.9514 35.0437 36.7778 35.1322 36.5663 35.1943C36.3548 35.2564 36.1039 35.2874 35.8134 35.2874C35.5199 35.2874 35.2121 35.2486 34.8902 35.171C34.5713 35.0934 34.2746 34.9831 34 34.8403V35.6321C34.2683 35.7718 34.554 35.868 34.857 35.9208C35.1632 35.9736 35.4883 36 35.8324 36C36.268 36 36.6452 35.9503 36.964 35.851C37.2828 35.7516 37.5464 35.6119 37.7547 35.4318C37.9631 35.2517 38.1177 35.0375 38.2188 34.7891C38.3229 34.5407 38.375 34.2675 38.375 33.9694C38.375 33.5192 38.2298 33.1544 37.9394 32.8749C37.649 32.5924 37.2244 32.4169 36.6657 32.3486V32.3207C36.8898 32.2834 37.0934 32.2213 37.2765 32.1344C37.4596 32.0444 37.6158 31.931 37.7453 31.7944C37.8778 31.6578 37.9804 31.4963 38.053 31.31Z" fill="black"/>
</svg>
