<svg width="52" height="52" viewBox="0 0 52 52" fill="none" xmlns="http://www.w3.org/2000/svg">
<rect width="52" height="52" rx="4" fill="#D0F0FD"/>
<path fill-rule="evenodd" clip-rule="evenodd" d="M27.3626 36H30V16H27.3626V24.4594H16.6374V16H14V36H16.6374V26.6723H27.3626V36ZM36.8444 31.8009C36.5749 31.7128 36.2831 31.6687 35.9692 31.6687C35.7409 31.6687 35.5427 31.6797 35.3746 31.7018C35.2097 31.7238 35.0766 31.7443 34.9751 31.7632L35.1606 29.7841H37.6911V29H34.4091L34.1475 32.2497L34.5755 32.5189C34.6421 32.5063 34.7198 32.4937 34.8086 32.4811C34.9006 32.4654 34.9957 32.4512 35.094 32.4386C35.1955 32.426 35.2954 32.4166 35.3937 32.4103C35.4951 32.4008 35.5887 32.3961 35.6743 32.3961C36.207 32.3961 36.6129 32.5157 36.892 32.7551C37.171 32.9912 37.3105 33.3345 37.3105 33.7847C37.3105 34.0398 37.2741 34.2602 37.2011 34.446C37.1282 34.6318 37.0236 34.7861 36.8872 34.9089C36.7508 35.0317 36.5844 35.123 36.3878 35.1829C36.1912 35.2395 35.9676 35.2679 35.7171 35.2679C35.5839 35.2679 35.4381 35.2584 35.2795 35.2395C35.1241 35.2175 34.9687 35.1876 34.8134 35.1498C34.658 35.112 34.5089 35.0648 34.3663 35.0081C34.2267 34.9514 34.1046 34.8869 34 34.8144V35.6269C34.1046 35.6898 34.222 35.7449 34.352 35.7922C34.482 35.8394 34.6183 35.8772 34.761 35.9055C34.9069 35.937 35.0575 35.9606 35.2129 35.9764C35.3715 35.9921 35.5316 36 35.6933 36C36.0992 36 36.4575 35.948 36.7683 35.8441C37.0822 35.7371 37.3454 35.5843 37.5579 35.386C37.7703 35.1876 37.9305 34.9451 38.0383 34.6586C38.1461 34.372 38.2 34.0493 38.2 33.6903C38.2 33.3596 38.1429 33.0684 38.0288 32.8165C37.9146 32.5646 37.7561 32.3536 37.5531 32.1835C37.3533 32.0135 37.1171 31.886 36.8444 31.8009Z" fill="black"/>
</svg>
