<svg width="53" height="53" viewBox="0 0 53 53" fill="none" xmlns="http://www.w3.org/2000/svg">
<g filter="url(#filter0_d_531_4405)">
<rect width="52" height="52" fill="none"/>
<path fill-rule="evenodd" clip-rule="evenodd" d="M17 17H20.5V24.25L29 24.25V17H32.5V35H29V27.75L20.5 27.75V35H17V27.75V24.25V17Z" fill="black"/>
<path d="M34.9331 32.791L36.5737 32.6211C36.6206 32.9922 36.7593 33.2871 36.9897 33.5059C37.2202 33.7207 37.4858 33.8281 37.7866 33.8281C38.1304 33.8281 38.4214 33.6895 38.6597 33.4121C38.8979 33.1309 39.0171 32.709 39.0171 32.1465C39.0171 31.6191 38.8979 31.2246 38.6597 30.9629C38.4253 30.6973 38.1187 30.5645 37.7397 30.5645C37.2671 30.5645 36.8433 30.7734 36.4683 31.1914L35.1323 30.998L35.9761 26.5273H40.3296V28.0684H37.2241L36.9663 29.5273C37.3335 29.3438 37.7085 29.252 38.0913 29.252C38.8218 29.252 39.4409 29.5176 39.9487 30.0488C40.4565 30.5801 40.7104 31.2695 40.7104 32.1172C40.7104 32.8242 40.5054 33.4551 40.0952 34.0098C39.5366 34.7676 38.7612 35.1465 37.769 35.1465C36.9761 35.1465 36.3296 34.9336 35.8296 34.5078C35.3296 34.082 35.0308 33.5098 34.9331 32.791Z" fill="black"/>
</g>
<defs>
<filter id="filter0_d_531_4405" x="0" y="0" width="53" height="53" filterUnits="userSpaceOnUse" color-interpolation-filters="sRGB">
<feFlood flood-opacity="0" result="BackgroundImageFix"/>
<feColorMatrix in="SourceAlpha" type="matrix" values="0 0 0 0 0 0 0 0 0 0 0 0 0 0 0 0 0 0 127 0" result="hardAlpha"/>
<feOffset dx="1" dy="1"/>
<feColorMatrix type="matrix" values="0 0 0 0 0 0 0 0 0 0 0 0 0 0 0 0 0 0 0.25 0"/>
<feBlend mode="normal" in2="BackgroundImageFix" result="effect1_dropShadow_531_4405"/>
<feBlend mode="normal" in="SourceGraphic" in2="effect1_dropShadow_531_4405" result="shape"/>
</filter>
</defs>
</svg>
