<svg width="52" height="52" viewBox="0 0 52 52" fill="none" xmlns="http://www.w3.org/2000/svg">
<rect width="52" height="52" rx="4" fill="#D0F0FD"/>
<path fill-rule="evenodd" clip-rule="evenodd" d="M28.3626 36H31V16H28.3626V24.4594H17.6374V16H15V36H17.6374V26.6723H28.3626V36ZM36.0094 36H37V29H36.1557L34 30.4316L34.5403 31.0205L35.3734 30.4412C35.4522 30.3837 35.5197 30.3342 35.576 30.2927C35.6323 30.2481 35.6848 30.2066 35.7336 30.1683C35.7861 30.13 35.8368 30.0901 35.8856 30.0486C35.9343 30.0071 35.9906 29.9576 36.0544 29.9001C36.0507 30.0087 36.045 30.1347 36.0375 30.2784C36.0338 30.4188 36.0281 30.5673 36.0206 30.7237L36.0094 31.1881V31.6286V36Z" fill="black"/>
</svg>
