<svg width="53" height="53" viewBox="0 0 53 53" fill="none" xmlns="http://www.w3.org/2000/svg">
<g filter="url(#filter0_d_531_4402)">
<rect width="52" height="52" fill="none"/>
<path fill-rule="evenodd" clip-rule="evenodd" d="M17 17H20.5V24.25L29 24.25V17H32.5V35H29V27.75L20.5 27.75V35H17V27.75V24.25V17Z" fill="black"/>
<path d="M40.4702 33.4707V35H34.6987C34.7612 34.4219 34.9487 33.875 35.2612 33.3594C35.5737 32.8398 36.1909 32.1523 37.1128 31.2969C37.855 30.6055 38.3101 30.1367 38.478 29.8906C38.7046 29.5508 38.8179 29.2148 38.8179 28.8828C38.8179 28.5156 38.7183 28.2344 38.519 28.0391C38.3237 27.8398 38.0522 27.7402 37.7046 27.7402C37.3608 27.7402 37.0874 27.8438 36.8843 28.0508C36.6812 28.2578 36.564 28.6016 36.5327 29.082L34.8921 28.918C34.9897 28.0117 35.2964 27.3613 35.812 26.9668C36.3276 26.5723 36.9722 26.375 37.7456 26.375C38.5933 26.375 39.2593 26.6035 39.7437 27.0605C40.228 27.5176 40.4702 28.0859 40.4702 28.7656C40.4702 29.1523 40.3999 29.5215 40.2593 29.873C40.1226 30.2207 39.9038 30.5859 39.603 30.9688C39.4038 31.2227 39.0444 31.5879 38.5249 32.0645C38.0054 32.541 37.6753 32.8574 37.5347 33.0137C37.3979 33.1699 37.2866 33.3223 37.2007 33.4707H40.4702Z" fill="black"/>
</g>
<defs>
<filter id="filter0_d_531_4402" x="0" y="0" width="53" height="53" filterUnits="userSpaceOnUse" color-interpolation-filters="sRGB">
<feFlood flood-opacity="0" result="BackgroundImageFix"/>
<feColorMatrix in="SourceAlpha" type="matrix" values="0 0 0 0 0 0 0 0 0 0 0 0 0 0 0 0 0 0 127 0" result="hardAlpha"/>
<feOffset dx="1" dy="1"/>
<feColorMatrix type="matrix" values="0 0 0 0 0 0 0 0 0 0 0 0 0 0 0 0 0 0 0.25 0"/>
<feBlend mode="normal" in2="BackgroundImageFix" result="effect1_dropShadow_531_4402"/>
<feBlend mode="normal" in="SourceGraphic" in2="effect1_dropShadow_531_4402" result="shape"/>
</filter>
</defs>
</svg>
