<svg width="53" height="53" viewBox="0 0 53 53" fill="none" xmlns="http://www.w3.org/2000/svg">
<g filter="url(#filter0_d_531_4403)">
<rect width="52" height="52" fill="none"/>
<path fill-rule="evenodd" clip-rule="evenodd" d="M17 17H20.5V24.25L29 24.25V17H32.5V35H29V27.75L20.5 27.75V35H17V27.75V24.25V17Z" fill="black"/>
<path d="M34.8511 32.7207L36.4448 32.5273C36.4956 32.9336 36.6323 33.2441 36.855 33.459C37.0776 33.6738 37.3472 33.7812 37.6636 33.7812C38.0034 33.7812 38.2886 33.6523 38.519 33.3945C38.7534 33.1367 38.8706 32.7891 38.8706 32.3516C38.8706 31.9375 38.7593 31.6094 38.5366 31.3672C38.314 31.125 38.0425 31.0039 37.7222 31.0039C37.5112 31.0039 37.2593 31.0449 36.9663 31.127L37.1479 29.7852C37.5933 29.7969 37.9331 29.7012 38.1675 29.498C38.4019 29.291 38.519 29.0176 38.519 28.6777C38.519 28.3887 38.4331 28.1582 38.2612 27.9863C38.0894 27.8145 37.8608 27.7285 37.5757 27.7285C37.2944 27.7285 37.0542 27.8262 36.855 28.0215C36.6558 28.2168 36.5347 28.502 36.4917 28.877L34.9741 28.6191C35.0796 28.0996 35.2378 27.6855 35.4487 27.377C35.6636 27.0645 35.9604 26.8203 36.3394 26.6445C36.7222 26.4648 37.1499 26.375 37.6226 26.375C38.4312 26.375 39.0796 26.6328 39.5679 27.1484C39.9702 27.5703 40.1714 28.0469 40.1714 28.5781C40.1714 29.332 39.7593 29.9336 38.9351 30.3828C39.4272 30.4883 39.8198 30.7246 40.1128 31.0918C40.4097 31.459 40.5581 31.9023 40.5581 32.4219C40.5581 33.1758 40.2827 33.8184 39.7319 34.3496C39.1812 34.8809 38.4956 35.1465 37.6753 35.1465C36.8979 35.1465 36.2534 34.9238 35.7417 34.4785C35.23 34.0293 34.9331 33.4434 34.8511 32.7207Z" fill="black"/>
</g>
<defs>
<filter id="filter0_d_531_4403" x="0" y="0" width="53" height="53" filterUnits="userSpaceOnUse" color-interpolation-filters="sRGB">
<feFlood flood-opacity="0" result="BackgroundImageFix"/>
<feColorMatrix in="SourceAlpha" type="matrix" values="0 0 0 0 0 0 0 0 0 0 0 0 0 0 0 0 0 0 127 0" result="hardAlpha"/>
<feOffset dx="1" dy="1"/>
<feColorMatrix type="matrix" values="0 0 0 0 0 0 0 0 0 0 0 0 0 0 0 0 0 0 0.25 0"/>
<feBlend mode="normal" in2="BackgroundImageFix" result="effect1_dropShadow_531_4403"/>
<feBlend mode="normal" in="SourceGraphic" in2="effect1_dropShadow_531_4403" result="shape"/>
</filter>
</defs>
</svg>
