<svg width="52" height="52" viewBox="0 0 52 52" fill="none" xmlns="http://www.w3.org/2000/svg">
<path d="M13 34V17H15.5448V23.943H22.4552V17H25V34H22.4552V26.2727H15.5448V34H13Z" fill="#454545"/>
<path d="M34.3684 34C33.6246 34 32.9298 33.8368 32.2842 33.5105C31.6386 33.1693 31.0702 32.6649 30.5789 31.9974C30.0877 31.315 29.7018 30.462 29.4211 29.4385C29.1404 28.4149 29 27.2059 29 25.8115C29 24.2391 29.1614 22.8966 29.4842 21.784C29.807 20.6566 30.2421 19.7443 30.7895 19.0471C31.3368 18.3499 31.9614 17.8381 32.6632 17.5118C33.3649 17.1706 34.0947 17 34.8526 17C35.7228 17 36.4737 17.1706 37.1053 17.5118C37.7509 17.853 38.2912 18.2683 38.7263 18.7579L37.4 20.3154C37.1193 19.9594 36.7614 19.6702 36.3263 19.4476C35.8912 19.2103 35.4421 19.0916 34.9789 19.0916C34.3053 19.0916 33.6807 19.3067 33.1053 19.7369C32.5439 20.1523 32.0947 20.8495 31.7579 21.8285C31.4211 22.8076 31.2526 24.1353 31.2526 25.8115C31.2526 27.2208 31.3789 28.3853 31.6316 29.305C31.8842 30.2099 32.2421 30.8922 32.7053 31.3521C33.1684 31.7971 33.7088 32.0196 34.3263 32.0196C34.7895 32.0196 35.1965 31.8787 35.5474 31.5969C35.9123 31.315 36.2 30.9219 36.4105 30.4175C36.6211 29.8983 36.7263 29.2901 36.7263 28.5929C36.7263 27.8957 36.6281 27.3024 36.4316 26.8128C36.2351 26.3233 35.9474 25.9524 35.5684 25.7003C35.2035 25.4481 34.7474 25.322 34.2 25.322C33.7368 25.322 33.2386 25.4777 32.7053 25.7893C32.186 26.1008 31.6877 26.6348 31.2105 27.3914L31.1263 25.5223C31.4211 25.0772 31.7649 24.7064 32.1579 24.4097C32.5509 24.0982 32.9579 23.8608 33.3789 23.6976C33.814 23.5345 34.2281 23.4529 34.6211 23.4529C35.4912 23.4529 36.2491 23.6457 36.8947 24.0314C37.5544 24.4023 38.0667 24.966 38.4316 25.7225C38.8105 26.4791 39 27.4359 39 28.5929C39 29.6758 38.7825 30.6252 38.3474 31.4411C37.9263 32.2421 37.3649 32.8726 36.6632 33.3325C35.9754 33.7775 35.2105 34 34.3684 34Z" fill="#454545"/>
</svg>
