<svg width="52" height="52" viewBox="0 0 52 52" fill="none" xmlns="http://www.w3.org/2000/svg">
<rect width="52" height="52" rx="4" fill="#D0F0FD"/>
<path d="M35 17C35 17.2652 34.8946 17.5196 34.7071 17.7071C34.5196 17.8946 34.2652 18 34 18H29.7213L24.3875 34H28C28.2652 34 28.5196 34.1054 28.7071 34.2929C28.8946 34.4804 29 34.7348 29 35C29 35.2652 28.8946 35.5196 28.7071 35.7071C28.5196 35.8946 28.2652 36 28 36H18C17.7348 36 17.4804 35.8946 17.2929 35.7071C17.1054 35.5196 17 35.2652 17 35C17 34.7348 17.1054 34.4804 17.2929 34.2929C17.4804 34.1054 17.7348 34 18 34H22.2788L27.6125 18H24C23.7348 18 23.4804 17.8946 23.2929 17.7071C23.1054 17.5196 23 17.2652 23 17C23 16.7348 23.1054 16.4804 23.2929 16.2929C23.4804 16.1054 23.7348 16 24 16H34C34.2652 16 34.5196 16.1054 34.7071 16.2929C34.8946 16.4804 35 16.7348 35 17Z" fill="black"/>
</svg>
