<svg width="52" height="52" viewBox="0 0 52 52" fill="none" xmlns="http://www.w3.org/2000/svg">
<path d="M15.5 37.6667V35.9167H18.4167V35.0417H16.6667V33.2917H18.4167V32.4167H15.5V30.6667H20.1667V33.2917L19 34.1667L20.1667 35.0417V37.6667H15.5ZM15.5 29.5V25.125H18.4167V24.25H15.5V22.5H20.1667V26.875H17.25V27.75H20.1667V29.5H15.5ZM17.25 21.3333V16.0833H15.5V14.3333H19V21.3333H17.25ZM22.5 34.1667V31.8333H36.5V34.1667H22.5ZM22.5 27.1667V24.8333H36.5V27.1667H22.5ZM22.5 20.1667V17.8333H36.5V20.1667H22.5Z" fill="#454545"/>
</svg>
