<svg width="53" height="53" viewBox="0 0 53 53" fill="none" xmlns="http://www.w3.org/2000/svg">
<g filter="url(#filter0_d_531_4409)">
<rect width="52" height="52" fill="none"/>
<path d="M13.5 32.25H16V32.875H14.75V34.125H16V34.75H13.5V36H17.25V31H13.5V32.25ZM14.75 21H16V16H13.5V17.25H14.75V21ZM13.5 24.75H15.75L13.5 27.375V28.5H17.25V27.25H15L17.25 24.625V23.5H13.5V24.75ZM19.75 17.25V19.75H37.25V17.25H19.75ZM19.75 34.75H37.25V32.25H19.75V34.75ZM19.75 27.25H37.25V24.75H19.75V27.25Z" fill="black"/>
</g>
<defs>
<filter id="filter0_d_531_4409" x="0" y="0" width="53" height="53" filterUnits="userSpaceOnUse" color-interpolation-filters="sRGB">
<feFlood flood-opacity="0" result="BackgroundImageFix"/>
<feColorMatrix in="SourceAlpha" type="matrix" values="0 0 0 0 0 0 0 0 0 0 0 0 0 0 0 0 0 0 127 0" result="hardAlpha"/>
<feOffset dx="1" dy="1"/>
<feColorMatrix type="matrix" values="0 0 0 0 0 0 0 0 0 0 0 0 0 0 0 0 0 0 0.25 0"/>
<feBlend mode="normal" in2="BackgroundImageFix" result="effect1_dropShadow_531_4409"/>
<feBlend mode="normal" in="SourceGraphic" in2="effect1_dropShadow_531_4409" result="shape"/>
</filter>
</defs>
</svg>
