<svg width="65" height="31" viewBox="0 0 65 31" fill="none" xmlns="http://www.w3.org/2000/svg">
<path d="M11.9391 13.0052H8.52796V9.59402C8.52796 9.14167 8.34826 8.70784 8.0284 8.38798C7.70854 8.06812 7.27472 7.88843 6.82236 7.88843C6.37001 7.88843 5.93619 8.06812 5.61633 8.38798C5.29647 8.70784 5.11677 9.14167 5.11677 9.59402L5.17732 13.0052H1.70559C1.25324 13.0052 0.819416 13.1849 0.499556 13.5048C0.179696 13.8246 0 14.2584 0 14.7108C0 15.1631 0.179696 15.597 0.499556 15.9168C0.819416 16.2367 1.25324 16.4164 1.70559 16.4164L5.17732 16.3558L5.11677 19.8276C5.11677 20.2799 5.29647 20.7137 5.61633 21.0336C5.93619 21.3535 6.37001 21.5332 6.82236 21.5332C7.27472 21.5332 7.70854 21.3535 8.0284 21.0336C8.34826 20.7137 8.52796 20.2799 8.52796 19.8276V16.3558L11.9391 16.4164C12.3915 16.4164 12.8253 16.2367 13.1452 15.9168C13.465 15.597 13.6447 15.1631 13.6447 14.7108C13.6447 14.2584 13.465 13.8246 13.1452 13.5048C12.8253 13.1849 12.3915 13.0052 11.9391 13.0052Z" fill="#0D56E8"/>
<path d="M60.0926 17.1774L57.6805 14.7653L60.0926 12.3533C60.4124 12.0334 60.5921 11.5996 60.5921 11.1472C60.5921 10.6949 60.4124 10.2611 60.0926 9.94121C59.7727 9.62135 59.3389 9.44165 58.8865 9.44165C58.4342 9.44165 58.0004 9.62135 57.6805 9.94121L55.3112 12.3961L52.8564 9.94121C52.5365 9.62135 52.1027 9.44165 51.6503 9.44165C51.198 9.44165 50.7642 9.62135 50.4443 9.94121C50.1244 10.2611 49.9447 10.6949 49.9447 11.1472C49.9447 11.5996 50.1244 12.0334 50.4443 12.3533L52.942 14.7653L50.4443 17.1774C50.1244 17.4973 49.9447 17.9311 49.9447 18.3835C49.9447 18.8358 50.1244 19.2696 50.4443 19.5895C50.7642 19.9093 51.198 20.089 51.6503 20.089C52.1027 20.089 52.5365 19.9093 52.8564 19.5895L55.3112 17.1346L57.6805 19.5895C58.0004 19.9093 58.4342 20.089 58.8865 20.089C59.3389 20.089 59.7727 19.9093 60.0926 19.5895C60.4124 19.2696 60.5921 18.8358 60.5921 18.3835C60.5921 17.9311 60.4124 17.4973 60.0926 17.1774Z" fill="#FEA400"/>
<path d="M13.245 7.49402C13.4177 7.49402 13.584 7.43006 13.7162 7.31706C15.5454 5.76284 17.9098 4.82477 20.4916 4.82477C22.7601 4.82477 24.9134 5.53472 26.7277 6.88C27.6871 7.59209 29.0324 7.58569 29.8959 6.76275C31.0066 5.70528 30.868 3.95918 29.6954 3.07654C27.0262 1.06394 23.8431 7.43866e-05 20.4895 7.43866e-05C15.3919 7.43866e-05 10.87 2.5073 8.08774 6.35127C7.74236 6.82671 8.092 7.49402 8.6783 7.49402H13.245Z" fill="#0D56E8"/>
<path d="M40.1039 11.7262C39.1402 10.8073 37.6137 10.8415 36.6927 11.8051C36.2087 12.3104 36.7161 11.8797 35.1448 13.8518C32.6973 16.924 28.6018 22.0664 26.9985 23.3562C25.4315 24.6184 23.5575 25.7867 20.4896 25.7867C17.4365 25.7867 14.6884 24.4734 12.7696 22.384C12.631 22.2327 12.437 22.141 12.2302 22.141H8.03234C7.46949 22.141 7.11772 22.7571 7.4098 23.239C10.0961 27.6543 14.9528 30.6114 20.4896 30.6114C25.0904 30.6114 28.0027 28.7438 30.0238 27.1149C31.8893 25.614 35.1555 21.5824 38.9185 16.8579C40.0612 15.4231 39.8246 15.5105 40.1827 15.1374C41.1016 14.1716 41.0675 12.6451 40.1039 11.7262Z" fill="#0D56E8"/>
<path d="M51.662 23.1152C51.4893 23.1152 51.323 23.1792 51.1908 23.2922C49.3615 24.8464 46.9972 25.7845 44.4153 25.7845C42.1469 25.7845 39.9936 25.0745 38.1793 23.7292C37.2199 23.0172 35.8746 23.0236 35.0111 23.8465C33.9004 24.904 34.0389 26.6501 35.2115 27.5327C37.8808 29.5453 41.0638 30.6092 44.4175 30.6092C49.5151 30.6092 54.037 28.102 56.8192 24.258C57.1646 23.7825 56.815 23.1152 56.2287 23.1152H51.662Z" fill="#FEA400"/>
<path d="M24.9472 18.6274C25.9109 19.5463 27.4374 19.5122 28.3584 18.5486C28.8424 18.0433 28.1921 18.7298 29.7634 16.7577C32.2109 13.6855 36.3064 8.54313 37.9097 7.25327C39.4767 5.99113 41.3507 4.8228 44.4187 4.8228C47.4717 4.8228 50.2198 6.13611 52.1386 8.22546C52.2772 8.37683 52.4712 8.46851 52.678 8.46851H56.878C57.4409 8.46851 57.7926 7.85236 57.5005 7.37053C54.81 2.95731 49.9533 0.000244141 44.4187 0.000244141C39.8178 0.000244141 36.9055 1.86787 34.8844 3.49671C33.0189 4.99763 29.7527 9.02922 25.9897 13.7537C24.847 15.1885 25.2265 14.8453 24.8683 15.2184C23.9494 16.1799 23.9835 17.7085 24.9472 18.6274Z" fill="#FEA400"/>
</svg>
