<svg width="16" height="16" viewBox="0 0 16 16" fill="none" xmlns="http://www.w3.org/2000/svg">
<g clip-path="url(#clip0_1192_545)">
<path d="M2 8H2.66667M8 2V2.66667M13.3333 8H14M3.73333 3.73333L4.2 4.2M12.2667 3.73333L11.8 4.2" stroke="#0D56E8" stroke-width="1.2" stroke-linecap="round" stroke-linejoin="round"/>
<path d="M6.00002 10.6667C5.44033 10.2469 5.02691 9.66167 4.81831 8.99388C4.60971 8.3261 4.61651 7.6096 4.83774 6.9459C5.05898 6.28219 5.48343 5.70492 6.05099 5.29585C6.61854 4.88678 7.30041 4.66666 8.00002 4.66666C8.69963 4.66666 9.3815 4.88678 9.94905 5.29585C10.5166 5.70492 10.9411 6.28219 11.1623 6.9459C11.3835 7.6096 11.3903 8.3261 11.1817 8.99388C10.9731 9.66167 10.5597 10.2469 10 10.6667C9.73973 10.9243 9.54375 11.2396 9.42793 11.5871C9.31212 11.9345 9.27972 12.3044 9.33335 12.6667C9.33335 13.0203 9.19288 13.3594 8.94283 13.6095C8.69278 13.8595 8.35364 14 8.00002 14C7.6464 14 7.30726 13.8595 7.05721 13.6095C6.80716 13.3594 6.66669 13.0203 6.66669 12.6667C6.72032 12.3044 6.68792 11.9345 6.57211 11.5871C6.45629 11.2396 6.26031 10.9243 6.00002 10.6667Z" stroke="#0D56E8" stroke-width="1.2" stroke-linecap="round" stroke-linejoin="round"/>
<path d="M6.46667 11.3333H9.53334" stroke="#454545" stroke-width="1.2" stroke-linecap="round" stroke-linejoin="round"/>
</g>
<defs>
<clipPath id="clip0_1192_545">
<rect width="16" height="16" rx="8" fill="white"/>
</clipPath>
</defs>
</svg>
