<svg width="53" height="53" viewBox="0 0 53 53" fill="none" xmlns="http://www.w3.org/2000/svg">
<g filter="url(#filter0_d)">
<rect width="52" height="52" fill="none"/>
<g clip-path="url(#clip0)">
<path d="M5.00223 53.7495H4.98062C4.89418 53.7495 4.82935 53.4903 4.78613 52.9718V25.9735L4.79694 -1.02478C4.86897 -1.50623 4.9374 -1.74696 5.00223 -1.74696C5.09588 -1.74696 5.16791 -1.4692 5.21833 -0.913677V52.9718C5.16071 53.4903 5.09588 53.7495 5.02384 53.7495H5.00223Z" fill="black"/>
</g>
<path d="M6.50378 13.5092C6.50378 12.8151 6.77751 12.1554 7.32497 11.53C7.87242 10.9046 8.48831 10.5885 9.17263 10.5816C9.54 10.5816 9.86415 10.75 10.1451 11.0867C10.2603 10.8806 10.426 10.7775 10.6421 10.7775C10.7358 10.7775 10.8186 10.805 10.8906 10.8599C10.9627 10.9149 10.9987 10.9836 10.9987 11.0661C10.9987 11.1555 10.8654 11.7052 10.5989 12.7155C10.3324 13.7257 10.1955 14.2961 10.1883 14.4267C10.1883 14.5985 10.2135 14.7119 10.2639 14.7668C10.3144 14.8218 10.39 14.8527 10.4908 14.8596C10.5557 14.8527 10.6277 14.8218 10.7069 14.7668C10.8582 14.6294 11.0059 14.2995 11.1499 13.7772C11.1932 13.6398 11.2292 13.5676 11.258 13.5608C11.2724 13.5539 11.3084 13.5504 11.366 13.5504H11.4093C11.5461 13.5504 11.6146 13.5814 11.6146 13.6432C11.6146 13.6845 11.5966 13.7772 11.5605 13.9215C11.5245 14.0659 11.4525 14.2514 11.3444 14.4782C11.2364 14.705 11.1211 14.8768 10.9987 14.9936C10.905 15.083 10.7898 15.1551 10.6529 15.2101C10.5953 15.2238 10.5088 15.2307 10.3936 15.2307C10.1487 15.2307 9.94339 15.1792 9.77771 15.0761C9.61203 14.973 9.50398 14.8665 9.45356 14.7565L9.38873 14.6019C9.38152 14.595 9.36712 14.5985 9.34551 14.6122C9.3311 14.626 9.31669 14.6397 9.30229 14.6534C8.87729 15.0383 8.44509 15.2307 8.00568 15.2307C7.6095 15.2307 7.26014 15.0933 6.9576 14.8184C6.65505 14.5435 6.50378 14.1071 6.50378 13.5092ZM9.93978 11.7465C9.93978 11.7052 9.92178 11.6296 9.88576 11.5197C9.84974 11.4097 9.7669 11.2895 9.63724 11.1589C9.50758 11.0283 9.34191 10.9596 9.14021 10.9527C8.88809 10.9527 8.64678 11.0592 8.41627 11.2723C8.18577 11.4853 8.00568 11.7637 7.87602 12.1073C7.66713 12.6502 7.51946 13.2137 7.43302 13.7978C7.43302 13.8185 7.43302 13.8563 7.43302 13.9112C7.43302 13.9662 7.42942 14.0074 7.42221 14.0349C7.42221 14.3442 7.48704 14.5572 7.6167 14.6741C7.74636 14.7909 7.90123 14.8527 8.08132 14.8596C8.35505 14.8596 8.62517 14.7462 8.8917 14.5194C9.15822 14.2926 9.31669 14.1174 9.36712 13.9937C9.38152 13.9662 9.47877 13.5985 9.65885 12.8907C9.83894 12.1829 9.93258 11.8014 9.93978 11.7465Z" fill="black"/>
<path d="M24.2512 8.45877C24.2512 8.39004 24.2656 8.31101 24.2944 8.22167C24.3232 8.13233 24.3664 8.08766 24.424 8.08766C24.4312 8.08766 24.6906 8.07048 25.202 8.03612C25.7134 8.00176 25.9764 7.98114 25.9908 7.97427C26.0772 7.97427 26.1204 8.0052 26.1204 8.06705C26.1204 8.1289 25.998 8.62027 25.7531 9.54115C25.6954 9.77481 25.6342 10.0153 25.5694 10.2627C25.5045 10.5101 25.4505 10.6957 25.4073 10.8194L25.3641 11.0153C25.3641 11.0359 25.3857 11.0256 25.4289 10.9843C25.7819 10.7094 26.1456 10.572 26.5202 10.572C26.9668 10.572 27.327 10.7301 27.6007 11.0462C27.8744 11.3623 28.0149 11.7609 28.0221 12.242C28.0221 13.0048 27.7376 13.6954 27.1685 14.3139C26.5995 14.9324 25.9872 15.2417 25.3317 15.2417C24.9715 15.2417 24.6437 15.1111 24.3484 14.85C24.0531 14.5888 23.9018 14.1662 23.8946 13.582V13.4893C23.8946 13.345 23.9234 13.1457 23.981 12.8914C24.0387 12.6371 24.2151 11.9602 24.5105 10.8606C24.8706 9.50679 25.0507 8.78864 25.0507 8.70617C25.0507 8.6237 24.9139 8.5756 24.6401 8.56185C24.6041 8.56185 24.5753 8.56185 24.5537 8.56185H24.4997C24.4276 8.56185 24.3808 8.56185 24.3592 8.56185C24.3376 8.56185 24.3124 8.55154 24.2836 8.53093C24.2548 8.51031 24.244 8.48626 24.2512 8.45877ZM27.0929 11.7781V11.7162C27.0929 11.2077 26.8732 10.9534 26.4338 10.9534C26.3113 10.9534 26.1853 10.9809 26.0556 11.0359C25.9259 11.0908 25.8071 11.163 25.699 11.2523C25.591 11.3417 25.4973 11.4242 25.4181 11.4997C25.3389 11.5753 25.274 11.6509 25.2236 11.7265L25.1588 11.809L24.9319 12.6955C24.7734 13.2865 24.6942 13.7057 24.6942 13.9531C24.6942 14.283 24.7806 14.5304 24.9535 14.6954C25.0687 14.8053 25.2128 14.8603 25.3857 14.8603C25.6234 14.8603 25.8647 14.7503 26.1096 14.5304C26.2897 14.3724 26.4338 14.1799 26.5418 13.9531C26.6499 13.7264 26.7687 13.3656 26.8984 12.8708C27.028 12.376 27.0929 12.0117 27.0929 11.7781Z" fill="black"/>
<path d="M40.6965 13.489C40.6965 12.7399 41.0062 12.0664 41.6257 11.4685C42.2452 10.8706 42.9151 10.5717 43.6354 10.5717C44.0388 10.5717 44.3558 10.6541 44.5863 10.8191C44.8168 10.984 44.9356 11.2005 44.9428 11.4685C44.9428 11.6678 44.8744 11.8362 44.7376 11.9736C44.6007 12.1111 44.4278 12.1832 44.2189 12.1901C44.082 12.1901 43.974 12.1557 43.8948 12.087C43.8155 12.0183 43.7759 11.9152 43.7759 11.7778C43.7759 11.6403 43.8155 11.5235 43.8948 11.4273C43.974 11.3311 44.0532 11.2589 44.1325 11.2108C44.2117 11.1627 44.2621 11.1421 44.2837 11.149H44.2945C44.2945 11.1352 44.2729 11.1146 44.2297 11.0871C44.1865 11.0596 44.1109 11.0321 44.0028 11.0046C43.8948 10.9771 43.7723 10.9634 43.6354 10.9634C43.4193 10.9634 43.214 11.0115 43.0196 11.1077C42.8683 11.1696 42.7134 11.2761 42.5549 11.4273C42.238 11.7297 42.0075 12.1557 41.8634 12.7055C41.7193 13.2553 41.6437 13.6539 41.6365 13.9013C41.6365 14.2174 41.7302 14.4545 41.9174 14.6126C42.0759 14.7775 42.2848 14.86 42.5441 14.86H42.5874C43.3941 14.86 44.0604 14.5679 44.5863 13.9838C44.6511 13.915 44.6943 13.8807 44.7159 13.8807C44.7448 13.8807 44.7916 13.9116 44.8564 13.9735C44.9212 14.0353 44.9573 14.0834 44.9645 14.1178C44.9717 14.1521 44.9392 14.2037 44.8672 14.2724C44.7952 14.3411 44.6907 14.4373 44.5539 14.561C44.417 14.6847 44.2549 14.7878 44.0676 14.8703C43.8804 14.9528 43.6498 15.0387 43.3761 15.128C43.1024 15.2173 42.8143 15.2551 42.5117 15.2414C41.9715 15.2414 41.5357 15.0765 41.2043 14.7466C40.873 14.4167 40.7037 13.9975 40.6965 13.489Z" fill="black"/>
<path d="M10.1503 21.4334C10.1575 21.4334 10.4168 21.4162 10.9282 21.3819C11.4397 21.3475 11.7026 21.3269 11.717 21.32C11.8034 21.32 11.8467 21.3475 11.8467 21.4025C11.8467 21.4506 11.5837 22.4883 11.0579 24.5156C10.532 26.543 10.2619 27.5772 10.2475 27.6185C10.2331 27.6597 10.2295 27.7112 10.2367 27.7731C10.2367 28.0617 10.3375 28.206 10.5392 28.206C10.6041 28.1992 10.6761 28.1682 10.7553 28.1133C10.9066 27.9758 11.0543 27.646 11.1983 27.1237C11.2416 26.9862 11.2776 26.9141 11.3064 26.9072C11.3208 26.9003 11.3568 26.8969 11.4145 26.8969H11.4577H11.5009C11.6089 26.8969 11.663 26.9244 11.663 26.9793C11.663 27.0137 11.6522 27.0687 11.6306 27.1443C11.5369 27.4879 11.4289 27.7662 11.3064 27.9793C11.1839 28.1923 11.0831 28.3297 11.0039 28.3916C10.9246 28.4534 10.8238 28.5084 10.7013 28.5565C10.6437 28.5703 10.5573 28.5771 10.442 28.5771C10.1971 28.5771 9.99179 28.5256 9.82611 28.4225C9.66043 28.3194 9.55238 28.2129 9.50196 28.103L9.43713 27.9483C9.42993 27.9415 9.41552 27.9449 9.39391 27.9586C9.3795 27.9724 9.3651 27.9861 9.35069 27.9999C8.92569 28.3847 8.49349 28.5771 8.05408 28.5771C7.6579 28.5771 7.30854 28.4397 7.006 28.1648C6.70346 27.8899 6.55219 27.4535 6.55219 26.8556C6.55219 26.5258 6.62422 26.189 6.76829 25.8454C6.91235 25.5018 7.08523 25.2063 7.28693 24.9589C7.62549 24.5672 7.96404 24.2957 8.3026 24.1445C8.64116 23.9933 8.9473 23.9177 9.22103 23.9177C9.62442 23.9177 9.92696 24.0621 10.1287 24.3507C10.1647 24.3919 10.1827 24.4057 10.1827 24.3919C10.1899 24.3644 10.2871 23.9899 10.4744 23.2683C10.6617 22.5467 10.7625 22.1653 10.777 22.1241C10.777 22.0347 10.7517 21.9798 10.7013 21.9592C10.6509 21.9385 10.5104 21.9214 10.2799 21.9076H10.053C10.0098 21.8664 9.98819 21.8389 9.98819 21.8251C9.98819 21.8114 9.99539 21.7461 10.0098 21.6293C10.0458 21.4987 10.0926 21.4334 10.1503 21.4334ZM9.99899 25.1135C9.83331 24.5706 9.56319 24.2992 9.18861 24.2992C8.9365 24.2992 8.69518 24.4057 8.46468 24.6187C8.23417 24.8318 8.05408 25.1101 7.92442 25.4537C7.71553 25.9966 7.56786 26.5601 7.48142 27.1443C7.48142 27.1649 7.48142 27.2027 7.48142 27.2577C7.48142 27.3127 7.47782 27.3539 7.47061 27.3814C7.47061 27.6906 7.53544 27.9037 7.6651 28.0205C7.79476 28.1373 7.94964 28.1992 8.12972 28.206C8.5187 28.206 8.91849 27.9586 9.32908 27.4638L9.41552 27.3504L9.99899 25.1135Z" fill="black"/>
<path d="M23.6835 26.7422C23.6835 26.3505 23.752 25.9931 23.8888 25.6701C24.0257 25.3471 24.2022 25.0791 24.4183 24.8661C24.6344 24.653 24.8757 24.4743 25.1422 24.33C25.4087 24.1857 25.6609 24.0792 25.8986 24.0105C26.1363 23.9417 26.3632 23.9108 26.5793 23.9177H26.6117C26.9358 23.9177 27.2168 23.9933 27.4545 24.1445C27.6922 24.2957 27.811 24.519 27.811 24.8145C27.811 25.433 27.4113 25.8385 26.6117 26.0309C26.2587 26.1203 25.7761 26.1684 25.1638 26.1752C24.8973 26.1752 24.7604 26.1821 24.7532 26.1959C24.7532 26.2096 24.7316 26.3299 24.6884 26.5566C24.6452 26.7834 24.62 26.9827 24.6128 27.1545C24.6128 27.4775 24.6884 27.7318 24.8397 27.9174C24.9909 28.1029 25.2178 28.1991 25.5204 28.206C25.8229 28.2129 26.1579 28.1476 26.5253 28.0101C26.8926 27.8727 27.224 27.6459 27.5193 27.3298C27.5841 27.2611 27.6274 27.2267 27.649 27.2267C27.6778 27.2267 27.7246 27.2576 27.7894 27.3195C27.8543 27.3813 27.8903 27.4294 27.8975 27.4638C27.9047 27.4981 27.8723 27.5531 27.8002 27.6287C27.7282 27.7043 27.6202 27.7971 27.4761 27.907C27.332 28.017 27.1663 28.1235 26.9791 28.2266C26.7918 28.3297 26.5649 28.4156 26.2983 28.4843C26.0318 28.553 25.7581 28.5874 25.4772 28.5874C24.9081 28.5874 24.4687 28.4053 24.159 28.0411C23.8492 27.6768 23.6907 27.2439 23.6835 26.7422ZM27.2924 24.8351C27.2492 24.4778 27.0043 24.2991 26.5577 24.2991C26.32 24.2991 26.1003 24.3472 25.8986 24.4434C25.6969 24.5396 25.5348 24.6565 25.4123 24.7939C25.2899 24.9314 25.1854 25.0722 25.099 25.2166C25.0125 25.3609 24.9549 25.4846 24.9261 25.5877C24.8973 25.6907 24.8793 25.756 24.8721 25.7835C24.8721 25.7904 24.9441 25.7938 25.0882 25.7938C25.9022 25.7938 26.4712 25.7114 26.7954 25.5464C27.1195 25.3815 27.2852 25.1444 27.2924 24.8351Z" fill="black"/>
<path d="M40.9714 30.1441C40.9858 30.1441 41.0074 30.151 41.0363 30.1648C41.0651 30.1785 41.1047 30.1888 41.1551 30.1957C41.2055 30.2026 41.2488 30.206 41.2848 30.206C41.3784 30.206 41.4649 30.1613 41.5441 30.072C41.6233 29.9826 41.681 29.883 41.717 29.773C41.789 29.5875 41.9115 29.0618 42.0843 28.1959C42.2572 27.3299 42.4229 26.5053 42.5814 25.7218C42.7398 24.9384 42.8191 24.5432 42.8191 24.5364V24.5054H42.3113C41.9727 24.5054 41.7926 24.4986 41.771 24.4848C41.7422 24.4642 41.7278 24.4298 41.7278 24.3817L41.8034 24.0931C41.8178 24.0587 41.8466 24.0416 41.8899 24.0416C41.9331 24.0416 42.1024 24.0381 42.3977 24.0313C42.7435 24.0313 42.9163 24.0278 42.9163 24.0209C42.9163 24.0072 42.9487 23.8354 43.0136 23.5055C43.0784 23.1757 43.1216 22.9764 43.1432 22.9076C43.4098 21.7737 43.9356 21.2067 44.7208 21.2067C44.9873 21.2205 45.207 21.2961 45.3799 21.4335C45.5528 21.571 45.6392 21.7531 45.6392 21.9799C45.6392 22.2273 45.5636 22.406 45.4123 22.5159C45.261 22.6259 45.1098 22.6843 44.9585 22.6912C44.6415 22.6912 44.4831 22.5468 44.4831 22.2582C44.4831 22.1276 44.5227 22.0142 44.6019 21.918C44.6812 21.8218 44.7676 21.7497 44.8612 21.7016L44.9585 21.65C44.8432 21.6088 44.7352 21.5882 44.6343 21.5882C44.5479 21.5882 44.4651 21.6225 44.3858 21.6912C44.3066 21.76 44.2526 21.8562 44.2237 21.9799C44.1733 22.1792 44.1157 22.4472 44.0509 22.7839C43.986 23.1207 43.9284 23.4059 43.878 23.6395C43.8276 23.8732 43.8023 23.9969 43.8023 24.0106C43.8023 24.0244 44.0004 24.0313 44.3966 24.0313C44.7208 24.0313 44.9081 24.0347 44.9585 24.0416C45.0089 24.0484 45.0485 24.069 45.0773 24.1034C45.0845 24.1309 45.0773 24.1893 45.0557 24.2787C45.0341 24.368 45.0161 24.423 45.0017 24.4436C44.9873 24.4779 44.9549 24.4951 44.9045 24.4951C44.854 24.4951 44.6595 24.4986 44.321 24.5054H43.7159L43.4674 25.7631C43.1216 27.4674 42.8803 28.5326 42.7435 28.9587C42.549 29.5428 42.2968 29.9758 41.9871 30.2575C41.7206 30.4774 41.4577 30.5874 41.1983 30.5874C40.9678 30.5874 40.7589 30.5221 40.5716 30.3915C40.3844 30.261 40.2907 30.0754 40.2907 29.8349C40.2907 29.5806 40.3663 29.3951 40.5176 29.2782C40.6689 29.1614 40.8202 29.103 40.9714 29.103C41.2884 29.103 41.4468 29.2473 41.4468 29.5359C41.4468 29.6665 41.4072 29.7799 41.328 29.8761C41.2488 29.9723 41.1623 30.0445 41.0687 30.0926L40.9714 30.1441Z" fill="black"/>
<path d="M9.78875 41.3776C9.6807 41.4669 9.52223 41.5631 9.31333 41.6662C9.10443 41.7693 8.88473 41.8209 8.65423 41.8209C8.20041 41.8209 7.83664 41.6662 7.56292 41.357C7.28919 41.0477 7.14872 40.6526 7.14152 40.1715C7.14152 39.4499 7.41885 38.7868 7.97351 38.182C8.52817 37.5772 9.14405 37.2714 9.82117 37.2645C10.1597 37.2645 10.4731 37.4295 10.7612 37.7593L10.7936 37.7181C10.808 37.6975 10.826 37.6769 10.8476 37.6563C10.8693 37.6356 10.9017 37.6082 10.9449 37.5738C10.9881 37.5394 11.0349 37.5154 11.0854 37.5016C11.1358 37.4879 11.1934 37.4776 11.2582 37.4707C11.3591 37.4707 11.4419 37.5016 11.5068 37.5635C11.5716 37.6253 11.6076 37.6906 11.6148 37.7593C11.6148 37.8624 11.4095 38.694 10.9989 40.254C10.5883 41.814 10.3722 42.6112 10.3506 42.6455C10.221 43.0166 9.94363 43.3225 9.51863 43.563C9.09363 43.8035 8.6074 43.9272 8.05995 43.9341C7.04427 43.9341 6.53644 43.7004 6.53644 43.2331C6.53644 43.0544 6.60127 42.8964 6.73093 42.7589C6.86059 42.6215 7.02627 42.5528 7.22796 42.5528C7.33601 42.5528 7.43686 42.5837 7.5305 42.6455C7.62415 42.7074 7.67457 42.8139 7.68177 42.9651C7.68177 43.0338 7.67457 43.0991 7.66016 43.161C7.64576 43.2228 7.62054 43.2709 7.58453 43.3053C7.54851 43.3396 7.5197 43.374 7.49809 43.4084C7.47648 43.4427 7.45126 43.4702 7.42245 43.4908L7.40084 43.5114H7.41165C7.48368 43.5321 7.69978 43.5424 8.05995 43.5424C8.33368 43.5424 8.54978 43.5011 8.70825 43.4187C8.87393 43.3431 9.0288 43.2297 9.17287 43.0785C9.31693 42.9273 9.41778 42.7658 9.47541 42.594C9.51863 42.4634 9.57626 42.2504 9.64829 41.9549C9.74193 41.625 9.78875 41.4326 9.78875 41.3776ZM10.5775 38.4397L10.5343 38.3263C10.5127 38.2507 10.4947 38.1992 10.4803 38.1717C10.4659 38.1442 10.4443 38.0961 10.4154 38.0274C10.3866 37.9586 10.3506 37.9105 10.3074 37.883C10.2642 37.8556 10.2174 37.8178 10.1669 37.7697C10.1165 37.7216 10.0517 37.6906 9.97244 37.6769C9.8932 37.6631 9.81397 37.6528 9.73473 37.646C9.41778 37.646 9.11164 37.8281 8.8163 38.1923C8.6002 38.4603 8.42012 38.8692 8.27605 39.419C8.13198 39.9688 8.05995 40.3674 8.05995 40.6148C8.05995 41.1577 8.28325 41.4291 8.72986 41.4291C9.13325 41.4291 9.52943 41.1886 9.91841 40.7076L10.0049 40.6045L10.5775 38.4397Z" fill="black"/>
<path d="M24.1484 34.7798C24.1556 34.7798 24.4149 34.7626 24.9264 34.7283C25.4378 34.6939 25.7007 34.6733 25.7151 34.6664C25.8016 34.6664 25.8448 34.6973 25.8448 34.7592C25.8448 34.8348 25.7151 35.3536 25.4558 36.3158C25.1821 37.3329 25.0452 37.8517 25.0452 37.8723C25.0452 37.8861 25.0704 37.8689 25.1209 37.8208C25.5603 37.4497 26.0285 37.2641 26.5255 37.2641C26.9145 37.2641 27.2279 37.3569 27.4656 37.5425C27.7033 37.728 27.8257 37.9995 27.8329 38.3568C27.8329 38.7073 27.6961 39.2502 27.4223 39.9855C27.1486 40.7209 27.0118 41.1607 27.0118 41.305C27.019 41.4012 27.037 41.4665 27.0658 41.5009C27.0946 41.5352 27.1486 41.5524 27.2279 41.5524C27.4295 41.5524 27.6168 41.4493 27.7897 41.2432C27.9626 41.037 28.1031 40.7552 28.2111 40.3979C28.2327 40.3223 28.2543 40.2776 28.2759 40.2639C28.2975 40.2501 28.3552 40.2433 28.4488 40.2433C28.5929 40.2433 28.6649 40.2707 28.6649 40.3257C28.6649 40.3326 28.6505 40.3841 28.6217 40.4804C28.5064 40.8858 28.3228 41.2191 28.0706 41.4803C27.8257 41.7758 27.534 41.9235 27.1954 41.9235H27.1414C26.8029 41.9235 26.5579 41.8308 26.4067 41.6452C26.2554 41.4597 26.1798 41.2638 26.1798 41.0576C26.1798 40.9477 26.3094 40.5422 26.5687 39.8412C26.8281 39.1403 26.9613 38.6145 26.9685 38.264C26.9685 37.8586 26.8101 37.6558 26.4931 37.6558H26.4391C25.8412 37.6558 25.3226 37.9926 24.8832 38.6661L24.8075 38.8001L24.4402 40.1917C24.2096 41.0851 24.0764 41.573 24.0404 41.6555C23.9467 41.8411 23.7882 41.9338 23.5649 41.9338C23.4641 41.9338 23.3777 41.9029 23.3056 41.8411C23.2336 41.7792 23.194 41.7174 23.1868 41.6555C23.1868 41.5593 23.4497 40.5147 23.9755 38.5218L24.7751 35.4705C24.7751 35.3811 24.7499 35.3261 24.6995 35.3055C24.649 35.2849 24.5086 35.2677 24.2781 35.254H24.0512C24.008 35.2128 23.9863 35.1853 23.9863 35.1715C23.9863 35.1578 23.9935 35.0925 24.008 34.9757C24.044 34.8451 24.0908 34.7798 24.1484 34.7798Z" fill="black"/>
<path d="M42.793 35.6354C42.793 35.4705 42.8614 35.3262 42.9983 35.2025C43.1351 35.0788 43.2936 35.0135 43.4737 35.0066C43.6033 35.0066 43.7114 35.0478 43.7978 35.1303C43.8843 35.2128 43.9311 35.3158 43.9383 35.4395C43.9383 35.5976 43.8663 35.7419 43.7222 35.8725C43.5781 36.0031 43.4197 36.0718 43.2468 36.0787C43.1387 36.0787 43.0379 36.0443 42.9442 35.9756C42.8506 35.9069 42.8002 35.7935 42.793 35.6354ZM41.0317 38.8619C41.0317 38.807 41.0642 38.7004 41.129 38.5424C41.1938 38.3843 41.2803 38.2091 41.3883 38.0166C41.4964 37.8242 41.6548 37.649 41.8637 37.4909C42.0726 37.3329 42.2887 37.2573 42.512 37.2641C42.793 37.2641 43.0271 37.3432 43.2144 37.5012C43.4016 37.6593 43.4989 37.8723 43.5061 38.1403C43.5061 38.2572 43.4557 38.4496 43.3548 38.7176C43.254 38.9856 43.1099 39.3464 42.9226 39.8C42.7353 40.2536 42.5841 40.6419 42.4688 40.9648C42.4328 41.116 42.4148 41.226 42.4148 41.2947C42.4148 41.4665 42.476 41.5524 42.5985 41.5524C42.6633 41.5524 42.7317 41.5421 42.8038 41.5215C42.8758 41.5009 42.9586 41.4528 43.0523 41.3772C43.1459 41.3016 43.2432 41.1813 43.344 41.0164C43.4449 40.8515 43.5349 40.6487 43.6141 40.4082C43.6358 40.3257 43.6538 40.2776 43.6682 40.2639C43.6826 40.2501 43.7438 40.2433 43.8519 40.2433C43.9959 40.2433 44.068 40.2776 44.068 40.3463C44.068 40.4013 44.0355 40.5078 43.9707 40.6659C43.9059 40.824 43.8158 40.9992 43.7006 41.1916C43.5853 41.3841 43.4233 41.5559 43.2144 41.7071C43.0055 41.8582 42.7822 41.9338 42.5444 41.9338C42.3139 41.9338 42.1014 41.8617 41.9069 41.7174C41.7125 41.573 41.6116 41.3531 41.6044 41.0576C41.6044 40.9408 41.6224 40.8308 41.6584 40.7278C41.6944 40.6247 41.8493 40.233 42.123 39.5526C42.3968 38.8585 42.5552 38.4427 42.5985 38.3053C42.6417 38.1678 42.6669 38.0338 42.6741 37.9033C42.6741 37.7383 42.6129 37.6559 42.4904 37.6559H42.4688C42.2527 37.6559 42.0546 37.7692 41.8745 37.996C41.6944 38.2228 41.5576 38.5114 41.4639 38.8619C41.4567 38.8688 41.4495 38.8791 41.4423 38.8929C41.4351 38.9066 41.4315 38.9169 41.4315 38.9238C41.4315 38.9307 41.4243 38.9375 41.4099 38.9444C41.3955 38.9513 41.3847 38.9547 41.3775 38.9547C41.3703 38.9547 41.3559 38.9547 41.3343 38.9547C41.3127 38.9547 41.2839 38.9547 41.2478 38.9547H41.0966C41.0533 38.9135 41.0317 38.8826 41.0317 38.8619Z" fill="black"/>
<g clip-path="url(#clip1)">
<path d="M47.1415 53.7495H47.1198C47.0334 53.7495 46.9686 53.4903 46.9254 52.9718V25.9735L46.9362 -1.02478C47.0082 -1.50623 47.0766 -1.74696 47.1415 -1.74696C47.2351 -1.74696 47.3071 -1.4692 47.3576 -0.913677V52.9718C47.2999 53.4903 47.2351 53.7495 47.1631 53.7495H47.1415Z" fill="black"/>
</g>
</g>
<defs>
<filter id="filter0_d" x="0" y="0" width="53" height="53" filterUnits="userSpaceOnUse" color-interpolation-filters="sRGB">
<feFlood flood-opacity="0" result="BackgroundImageFix"/>
<feColorMatrix in="SourceAlpha" type="matrix" values="0 0 0 0 0 0 0 0 0 0 0 0 0 0 0 0 0 0 127 0" result="hardAlpha"/>
<feOffset dx="1" dy="1"/>
<feColorMatrix type="matrix" values="0 0 0 0 0 0 0 0 0 0 0 0 0 0 0 0 0 0 0.25 0"/>
<feBlend mode="normal" in2="BackgroundImageFix" result="effect1_dropShadow"/>
<feBlend mode="normal" in="SourceGraphic" in2="effect1_dropShadow" result="shape"/>
</filter>
<clipPath id="clip0">
<rect width="3.0038" height="37" fill="none" transform="matrix(1 0 0 -1 3.5 44.5)"/>
</clipPath>
<clipPath id="clip1">
<rect width="3.0038" height="37" fill="none" transform="matrix(1 0 0 -1 45.6392 44.5)"/>
</clipPath>
</defs>
</svg>
