<svg width="53" height="53" viewBox="0 0 53 53" fill="none" xmlns="http://www.w3.org/2000/svg">
<g filter="url(#filter0_d)">
<rect width="52" height="52" fill="white"/>
<g clip-path="url(#clip0)">
<path d="M7.66134 52.9985H7.63025C7.50587 52.9985 7.41259 52.7463 7.3504 52.2419V25.9758L7.36595 -0.290321C7.4696 -0.758717 7.56806 -0.992912 7.66134 -0.992912C7.79608 -0.992912 7.89973 -0.722687 7.97228 -0.182232V52.2419C7.88937 52.7463 7.79608 52.9985 7.69244 52.9985H7.66134Z" fill="black"/>
</g>
<path d="M10 18.9248C10 17.8684 10.3939 16.8644 11.1816 15.9127C11.9693 14.9609 12.8555 14.4798 13.8401 14.4693C14.3687 14.4693 14.8351 14.7256 15.2393 15.2381C15.4052 14.9243 15.6436 14.7674 15.9545 14.7674C16.0893 14.7674 16.2084 14.8093 16.3121 14.8929C16.4157 14.9766 16.4676 15.0812 16.4676 15.2067C16.4676 15.3426 16.2758 16.1793 15.8923 17.7168C15.5088 19.2542 15.3119 20.1223 15.3015 20.321C15.3015 20.5825 15.3378 20.755 15.4104 20.8387C15.4829 20.9224 15.5917 20.9694 15.7369 20.9799C15.8301 20.9694 15.9338 20.9224 16.0478 20.8387C16.2655 20.6295 16.4779 20.1275 16.6852 19.3327C16.7474 19.1235 16.7992 19.0137 16.8407 19.0032C16.8614 18.9927 16.9132 18.9875 16.9962 18.9875H17.0583C17.2553 18.9875 17.3537 19.0346 17.3537 19.1287C17.3537 19.1915 17.3278 19.3327 17.276 19.5523C17.2242 19.7719 17.1205 20.0543 16.9651 20.3994C16.8096 20.7446 16.6438 21.0061 16.4676 21.1839C16.3328 21.3198 16.167 21.4296 15.9701 21.5133C15.8871 21.5342 15.7628 21.5447 15.5969 21.5447C15.2445 21.5447 14.9491 21.4662 14.7107 21.3094C14.4724 21.1525 14.3169 20.9904 14.2443 20.823L14.1511 20.5877C14.1407 20.5772 14.12 20.5825 14.0889 20.6034C14.0681 20.6243 14.0474 20.6452 14.0267 20.6661C13.4152 21.2518 12.7933 21.5447 12.161 21.5447C11.591 21.5447 11.0883 21.3355 10.653 20.9172C10.2177 20.4988 10 19.8347 10 18.9248ZM14.944 16.2421C14.944 16.1793 14.918 16.0643 14.8662 15.897C14.8144 15.7296 14.6952 15.5466 14.5086 15.3479C14.3221 15.1492 14.0837 15.0446 13.7935 15.0341C13.4307 15.0341 13.0835 15.1962 12.7518 15.5204C12.4202 15.8447 12.161 16.2682 11.9745 16.7912C11.6739 17.6174 11.4614 18.475 11.337 19.364C11.337 19.3954 11.337 19.4529 11.337 19.5366C11.337 19.6203 11.3319 19.683 11.3215 19.7249C11.3215 20.1955 11.4148 20.5197 11.6013 20.6975C11.7879 20.8753 12.0107 20.9694 12.2699 20.9799C12.6637 20.9799 13.0524 20.8073 13.4359 20.4622C13.8194 20.1171 14.0474 19.8504 14.12 19.6621C14.1407 19.6203 14.2806 19.0607 14.5397 17.9835C14.7988 16.9062 14.9336 16.3258 14.944 16.2421Z" fill="black"/>
<path d="M35.1006 11.2373C35.1006 11.1327 35.1214 11.0124 35.1628 10.8765C35.2043 10.7405 35.2665 10.6725 35.3494 10.6725C35.3598 10.6725 35.7329 10.6464 36.4688 10.5941C37.2047 10.5418 37.583 10.5104 37.6037 10.5C37.7281 10.5 37.7903 10.547 37.7903 10.6411C37.7903 10.7353 37.6141 11.4831 37.2617 12.8845C37.1788 13.2401 37.0907 13.6062 36.9974 13.9827C36.9041 14.3592 36.8264 14.6416 36.7642 14.8299L36.702 15.1279C36.702 15.1593 36.7331 15.1436 36.7953 15.0809C37.3031 14.6625 37.8265 14.4534 38.3655 14.4534C39.0081 14.4534 39.5264 14.6939 39.9202 15.175C40.3141 15.6561 40.5162 16.2627 40.5265 16.9948C40.5265 18.1557 40.1171 19.2068 39.2983 20.1481C38.4795 21.0894 37.5985 21.5601 36.6553 21.5601C36.1371 21.5601 35.6655 21.3613 35.2406 20.9639C34.8156 20.5665 34.598 19.9233 34.5876 19.0343V18.8931C34.5876 18.6734 34.629 18.3701 34.712 17.9832C34.7949 17.5962 35.0488 16.566 35.4738 14.8926C35.992 12.8322 36.2511 11.7393 36.2511 11.6138C36.2511 11.4883 36.0542 11.4151 35.6603 11.3942C35.6085 11.3942 35.567 11.3942 35.536 11.3942H35.4582C35.3546 11.3942 35.2872 11.3942 35.2561 11.3942C35.225 11.3942 35.1887 11.3785 35.1473 11.3471C35.1058 11.3157 35.0903 11.2791 35.1006 11.2373ZM39.1895 16.2889V16.1947C39.1895 15.4208 38.8734 15.0338 38.2411 15.0338C38.0649 15.0338 37.8836 15.0756 37.697 15.1593C37.5104 15.243 37.3394 15.3528 37.1839 15.4888C37.0285 15.6247 36.8937 15.7502 36.7797 15.8653C36.6657 15.9803 36.5724 16.0954 36.4999 16.2104L36.4066 16.3359L36.0801 17.6851C35.8521 18.5846 35.7381 19.2225 35.7381 19.599C35.7381 20.1011 35.8624 20.4776 36.1112 20.7286C36.277 20.8959 36.4843 20.9796 36.7331 20.9796C37.0751 20.9796 37.4223 20.8123 37.7747 20.4776C38.0338 20.237 38.2411 19.9442 38.3966 19.599C38.5521 19.2539 38.7231 18.7048 38.9097 17.9518C39.0962 17.1988 39.1895 16.6445 39.1895 16.2889Z" fill="black"/>
<path d="M10.7617 39.2026C10.7617 38.0626 11.2073 37.0377 12.0987 36.1278C12.9901 35.2178 13.954 34.7629 14.9905 34.7629C15.5709 34.7629 16.0269 34.8884 16.3586 35.1394C16.6903 35.3904 16.8613 35.7199 16.8716 36.1278C16.8716 36.4311 16.7732 36.6873 16.5762 36.8965C16.3793 37.1056 16.1306 37.2155 15.83 37.2259C15.6331 37.2259 15.4776 37.1736 15.3636 37.069C15.2496 36.9645 15.1926 36.8076 15.1926 36.5984C15.1926 36.3892 15.2496 36.2114 15.3636 36.065C15.4776 35.9186 15.5916 35.8088 15.7056 35.7356C15.8196 35.6623 15.8922 35.631 15.9233 35.6414H15.9388C15.9388 35.6205 15.9077 35.5891 15.8455 35.5473C15.7833 35.5055 15.6745 35.4636 15.5191 35.4218C15.3636 35.38 15.1874 35.359 14.9905 35.359C14.6795 35.359 14.3841 35.4322 14.1043 35.5787C13.8866 35.6728 13.6638 35.8349 13.4357 36.065C12.9797 36.5252 12.648 37.1736 12.4407 38.0103C12.2334 38.847 12.1246 39.4536 12.1142 39.8301C12.1142 40.3112 12.249 40.6721 12.5185 40.9126C12.7465 41.1636 13.0471 41.2891 13.4202 41.2891H13.4824C14.6432 41.2891 15.602 40.8446 16.3586 39.9556C16.4519 39.8511 16.5141 39.7988 16.5452 39.7988C16.5866 39.7988 16.654 39.8458 16.7473 39.94C16.8405 40.0341 16.8924 40.1073 16.9027 40.1596C16.9131 40.2119 16.8665 40.2903 16.7628 40.3949C16.6592 40.4995 16.5089 40.6459 16.3119 40.8342C16.115 41.0224 15.8818 41.1793 15.6123 41.3048C15.3429 41.4303 15.0112 41.5611 14.6173 41.697C14.2235 41.833 13.8089 41.8905 13.3736 41.8696C12.5962 41.8696 11.9691 41.6186 11.4924 41.1166C11.0156 40.6145 10.772 39.9766 10.7617 39.2026Z" fill="black"/>
<path d="M38.9486 30.9817C38.959 30.9817 39.3321 30.9555 40.068 30.9032C40.8039 30.8509 41.1822 30.8195 41.2029 30.8091C41.3273 30.8091 41.3895 30.8509 41.3895 30.9346C41.3895 31.0078 41.0112 32.5871 40.2545 35.6724C39.4979 38.7577 39.1092 40.3318 39.0885 40.3945C39.0678 40.4573 39.0626 40.5357 39.073 40.6298C39.073 41.0691 39.2181 41.2887 39.5083 41.2887C39.6016 41.2783 39.7052 41.2312 39.8192 41.1476C40.0369 40.9384 40.2494 40.4364 40.4567 39.6415C40.5188 39.4323 40.5707 39.3225 40.6121 39.312C40.6329 39.3016 40.6847 39.2964 40.7676 39.2964H40.8298H40.892C41.0474 39.2964 41.1252 39.3382 41.1252 39.4219C41.1252 39.4742 41.1096 39.5578 41.0785 39.6729C40.9438 40.1958 40.7883 40.6194 40.6121 40.9436C40.4359 41.2678 40.2908 41.477 40.1768 41.5711C40.0628 41.6653 39.9177 41.7489 39.7415 41.8221C39.6586 41.8431 39.5342 41.8535 39.3684 41.8535C39.016 41.8535 38.7206 41.7751 38.4822 41.6182C38.2438 41.4613 38.0883 41.2992 38.0158 41.1319L37.9225 40.8965C37.9121 40.8861 37.8914 40.8913 37.8603 40.9122C37.8396 40.9331 37.8188 40.9541 37.7981 40.975C37.1866 41.5607 36.5647 41.8535 35.9325 41.8535C35.3624 41.8535 34.8597 41.6443 34.4244 41.226C33.9891 40.8076 33.7714 40.1435 33.7714 39.2336C33.7714 38.7316 33.8751 38.2191 34.0824 37.6962C34.2897 37.1732 34.5384 36.7235 34.8286 36.347C35.3158 35.7508 35.8029 35.3377 36.29 35.1076C36.7772 34.8775 37.2177 34.7625 37.6115 34.7625C38.192 34.7625 38.6273 34.9821 38.9175 35.4214C38.9693 35.4841 38.9952 35.5051 38.9952 35.4841C39.0056 35.4423 39.1455 34.8723 39.415 33.7741C39.6845 32.676 39.8296 32.0955 39.8503 32.0328C39.8503 31.8968 39.814 31.8131 39.7415 31.7817C39.6689 31.7504 39.4668 31.7242 39.1352 31.7033H38.8087C38.7465 31.6406 38.7154 31.5987 38.7154 31.5778C38.7154 31.5569 38.7257 31.4575 38.7465 31.2797C38.7983 31.081 38.8657 30.9817 38.9486 30.9817ZM38.7309 36.5823C38.4925 35.7561 38.1039 35.3429 37.5649 35.3429C37.2021 35.3429 36.8549 35.5051 36.5232 35.8293C36.1916 36.1535 35.9325 36.5771 35.7459 37.1C35.4453 37.9263 35.2328 38.7839 35.1085 39.6729C35.1085 39.7042 35.1085 39.7618 35.1085 39.8454C35.1085 39.9291 35.1033 39.9919 35.0929 40.0337C35.0929 40.5043 35.1862 40.8286 35.3728 41.0064C35.5593 41.1842 35.7822 41.2783 36.0413 41.2887C36.601 41.2887 37.1762 40.9122 37.767 40.1592L37.8914 39.9866L38.7309 36.5823Z" fill="black"/>
<g clip-path="url(#clip1)">
<path d="M43.8393 52.9985H43.8082C43.6839 52.9985 43.5906 52.7463 43.5284 52.2419V25.9758L43.5439 -0.290321C43.6476 -0.758717 43.746 -0.992912 43.8393 -0.992912C43.9741 -0.992912 44.0777 -0.722687 44.1503 -0.182232V52.2419C44.0673 52.7463 43.9741 52.9985 43.8704 52.9985H43.8393Z" fill="black"/>
</g>
</g>
<defs>
<filter id="filter0_d" x="0" y="0" width="53" height="53" filterUnits="userSpaceOnUse" color-interpolation-filters="sRGB">
<feFlood flood-opacity="0" result="BackgroundImageFix"/>
<feColorMatrix in="SourceAlpha" type="matrix" values="0 0 0 0 0 0 0 0 0 0 0 0 0 0 0 0 0 0 127 0" result="hardAlpha"/>
<feOffset dx="1" dy="1"/>
<feColorMatrix type="matrix" values="0 0 0 0 0 0 0 0 0 0 0 0 0 0 0 0 0 0 0.25 0"/>
<feBlend mode="normal" in2="BackgroundImageFix" result="effect1_dropShadow"/>
<feBlend mode="normal" in="SourceGraphic" in2="effect1_dropShadow" result="shape"/>
</filter>
<clipPath id="clip0">
<rect width="4.32207" height="35.9995" fill="white" transform="matrix(1 0 0 -1 5.5 43.9995)"/>
</clipPath>
<clipPath id="clip1">
<rect width="4.32207" height="35.9995" fill="white" transform="matrix(1 0 0 -1 41.678 43.9995)"/>
</clipPath>
</defs>
</svg>
