<svg width="52" height="52" viewBox="0 0 52 52" fill="none" xmlns="http://www.w3.org/2000/svg">
<path d="M8 7H9V45H8V7Z" fill="#454545"/>
<path d="M14.6575 19.9858C13.7945 19.9858 13 19.3171 13 17.7378C13 15.1626 15.1233 13 16.9178 13C17.2603 13 17.726 13.0854 18.1918 13.3415C18.5753 13.2988 19 13.2419 19.4247 13.1565L19.4658 13.2134C19.2466 14.0102 19.0959 14.6931 18.9315 15.4329L18.3014 18.25C18.274 18.378 18.2055 18.6199 18.2055 18.8049C18.2055 18.9756 18.2603 19.1037 18.4521 19.1037C18.7671 19.1037 19.3014 18.7195 19.6849 18.2215C19.8082 18.3069 19.9041 18.3923 20 18.5061C19.3836 19.3598 18.6849 20 17.7945 20C17.1233 20 16.8493 19.6159 16.8493 19.0752C16.8493 18.8191 16.9041 18.5203 17 18.1931H16.9315C16.2466 19.4167 15.4658 19.9858 14.6575 19.9858ZM17.8356 14.2378C17.4521 13.8821 17.0274 13.6402 16.589 13.6402C15.2192 13.6402 14.4658 15.9593 14.4658 17.624C14.4658 18.7622 14.8082 19.0894 15.2055 19.0894C15.9041 19.0894 16.9589 18.0793 17.5616 15.4329L17.8356 14.2378Z" fill="#454545"/>
<path d="M34 19.472L35.404 12.62C35.452 12.392 35.488 12.2 35.488 12.08C35.488 11.78 35.26 11.744 34.492 11.732C34.468 11.624 34.456 11.516 34.48 11.408C35.332 11.348 36.196 11.24 36.808 11L36.964 11.084C36.808 11.636 36.616 12.464 36.46 13.244L36.112 14.936L35.932 15.656H35.98C36.568 14.852 37.3 14.264 38.104 14.264C39.004 14.264 39.556 15.032 39.556 16.172C39.556 18.176 37.852 20.156 36.172 20.156C35.512 20.156 34.648 19.892 34 19.472ZM35.68 17.12L35.26 19.172C35.62 19.46 36.004 19.64 36.376 19.64C37.696 19.64 38.26 17.528 38.26 16.256C38.26 15.416 38.008 15.02 37.564 15.02C36.808 15.02 35.884 16.148 35.68 17.12Z" fill="#454545"/>
<path d="M15.4478 38C13.9104 38 13 37.0163 13 35.4766C13 32.9959 15.3284 31 17.3731 31C18.3134 31 19 31.4277 19 32.0122C19 32.4114 18.6866 32.7108 18.2388 32.7108C17.806 32.7108 17.2537 32.4257 17.1493 31.5845C15.6716 31.6415 14.5821 33.9226 14.5821 35.5051C14.5821 36.3177 14.8806 37.0306 15.9254 37.0306C16.7761 37.0306 17.5224 36.5601 18.0597 35.833C18.209 35.9043 18.3433 36.0041 18.4179 36.1039C17.8358 37.0876 16.9254 38 15.4478 38Z" fill="#454545"/>
<path d="M37.672 36.62H37.612C36.856 37.784 36.064 38.156 35.452 38.156C34.684 38.156 34 37.568 34 36.26C34 34.172 35.764 32.264 37.432 32.264C37.756 32.264 38.116 32.336 38.44 32.492L38.824 30.62C38.872 30.392 38.908 30.2 38.908 30.08C38.908 29.78 38.68 29.744 37.912 29.732C37.888 29.624 37.876 29.516 37.9 29.408C38.764 29.348 39.628 29.24 40.228 29L40.384 29.084C40.216 29.684 40.06 30.368 39.88 31.244L38.764 36.692C38.74 36.8 38.692 37.016 38.692 37.16C38.692 37.316 38.74 37.424 38.908 37.424C39.184 37.424 39.652 37.1 39.988 36.68C40.096 36.752 40.18 36.824 40.264 36.92C39.724 37.64 39.1 38.18 38.332 38.18C37.756 38.18 37.54 37.88 37.54 37.412C37.54 37.196 37.588 36.968 37.672 36.62ZM37.912 35.036L38.26 33.32C37.792 32.912 37.396 32.804 37.12 32.804C35.92 32.804 35.284 34.772 35.284 36.176C35.284 37.088 35.548 37.4 35.968 37.4C36.76 37.4 37.636 36.26 37.912 35.036Z" fill="#454545"/>
<path d="M44 7H45V45H44V7Z" fill="#454545"/>
</svg>
