<svg width="52" height="52" viewBox="0 0 52 52" fill="none" xmlns="http://www.w3.org/2000/svg">
<g clip-path="url(#clip0_315_6215)">
<path d="M52 0H0V52H52V0Z" fill="white"/>
<path d="M11 40.5013V12.4395H14.1432V13.1647H11.7245V39.776H14.1432V40.5013H11Z" fill="#0B76B7"/>
<path d="M14.6709 19.3757C14.6709 18.5881 14.9669 17.8395 15.5589 17.1298C16.151 16.4202 16.817 16.0614 17.5571 16.0537C17.9544 16.0537 18.3049 16.2448 18.6087 16.6268C18.7333 16.3929 18.9125 16.2759 19.1462 16.2759C19.2475 16.2759 19.337 16.3072 19.415 16.3695C19.4929 16.4319 19.5318 16.5099 19.5318 16.6035C19.5318 16.7048 19.3877 17.3287 19.0995 18.475C18.8113 19.6214 18.6632 20.2686 18.6554 20.4168C18.6554 20.6118 18.6827 20.7404 18.7372 20.8028C18.7918 20.8652 18.8736 20.9003 18.9826 20.9081C19.0527 20.9003 19.1306 20.8652 19.2163 20.8028C19.3799 20.6468 19.5396 20.2725 19.6954 19.6799C19.7421 19.5239 19.7811 19.442 19.8122 19.4342C19.8278 19.4264 19.8667 19.4225 19.929 19.4225H19.9758C20.1238 19.4225 20.1978 19.4576 20.1978 19.5278C20.1978 19.5745 20.1783 19.6799 20.1394 19.8436C20.1005 20.0073 20.0226 20.2179 19.9057 20.4753C19.7889 20.7326 19.6642 20.9276 19.5318 21.0601C19.4306 21.1615 19.3059 21.2433 19.1579 21.3057C19.0956 21.3214 19.0021 21.3292 18.8775 21.3292C18.6126 21.3292 18.3905 21.2707 18.2114 21.1537C18.0322 21.0367 17.9154 20.9159 17.8609 20.7911L17.7907 20.6157C17.7829 20.6079 17.7674 20.6118 17.744 20.6273C17.7284 20.6429 17.7128 20.6585 17.6973 20.6741C17.2377 21.1108 16.7703 21.3292 16.295 21.3292C15.8666 21.3292 15.4889 21.1732 15.1617 20.8613C14.8345 20.5494 14.6709 20.0542 14.6709 19.3757ZM18.3866 17.3755C18.3866 17.3287 18.3672 17.2429 18.3282 17.1181C18.2893 16.9933 18.1998 16.8569 18.0595 16.7087C17.9193 16.5605 17.7401 16.4826 17.522 16.4748C17.2494 16.4748 16.9884 16.5957 16.7391 16.8374C16.4898 17.0791 16.295 17.395 16.1549 17.7849C15.9289 18.401 15.7693 19.0404 15.6758 19.7032C15.6758 19.7266 15.6758 19.7695 15.6758 19.8319C15.6758 19.8943 15.6719 19.9411 15.6641 19.9723C15.6641 20.3232 15.7342 20.5649 15.8744 20.6975C16.0146 20.8301 16.1821 20.9003 16.3769 20.9081C16.6729 20.9081 16.9651 20.7794 17.2533 20.522C17.5415 20.2647 17.7128 20.0658 17.7674 19.9255C17.7829 19.8943 17.8882 19.4771 18.0828 18.6739C18.2776 17.8706 18.3789 17.4378 18.3866 17.3755Z" fill="#0B76B7"/>
<path d="M33.535 13.6445C33.535 13.5665 33.5506 13.4769 33.5818 13.3754C33.613 13.2741 33.6597 13.2234 33.722 13.2234C33.7298 13.2234 34.0102 13.2039 34.5633 13.1649C35.1164 13.1259 35.4007 13.1025 35.4163 13.0947C35.5098 13.0947 35.5565 13.1298 35.5565 13.2C35.5565 13.2702 35.4241 13.8278 35.1592 14.8727C35.0969 15.1379 35.0307 15.4108 34.9606 15.6916C34.8905 15.9723 34.8321 16.1828 34.7853 16.3231L34.7385 16.5454C34.7385 16.5688 34.7619 16.5572 34.8087 16.5103C35.1904 16.1984 35.5838 16.0424 35.9888 16.0424C36.4718 16.0424 36.8613 16.2218 37.1573 16.5805C37.4533 16.9392 37.6053 17.3915 37.6131 17.9374C37.6131 18.803 37.3054 19.5867 36.69 20.2886C36.0746 20.9904 35.4124 21.3413 34.7035 21.3413C34.314 21.3413 33.9596 21.1931 33.6402 20.8968C33.3208 20.6005 33.1572 20.1209 33.1494 19.458V19.3528C33.1494 19.189 33.1806 18.9629 33.2429 18.6743C33.3053 18.3858 33.4961 17.6176 33.8154 16.37C34.205 14.8338 34.3997 14.0188 34.3997 13.9252C34.3997 13.8317 34.2517 13.7771 33.9557 13.7615C33.9168 13.7615 33.8856 13.7615 33.8622 13.7615H33.8038C33.7259 13.7615 33.6753 13.7615 33.6519 13.7615C33.6285 13.7615 33.6013 13.7498 33.5701 13.7264C33.5389 13.703 33.5272 13.6757 33.535 13.6445ZM36.6082 17.411V17.3409C36.6082 16.7638 36.3706 16.4753 35.8954 16.4753C35.763 16.4753 35.6266 16.5064 35.4864 16.5688C35.3461 16.6312 35.2177 16.7131 35.1008 16.8144C34.9839 16.9159 34.8827 17.0094 34.797 17.0952C34.7113 17.1809 34.6412 17.2668 34.5867 17.3526L34.5166 17.4461L34.2712 18.4521C34.0998 19.1227 34.0141 19.5984 34.0141 19.8792C34.0141 20.2535 34.1076 20.5342 34.2946 20.7214C34.4192 20.8461 34.575 20.9085 34.7619 20.9085C35.019 20.9085 35.28 20.7837 35.5448 20.5342C35.7396 20.3549 35.8954 20.1365 36.0122 19.8792C36.1291 19.6218 36.2576 19.2124 36.3978 18.651C36.538 18.0895 36.6082 17.6761 36.6082 17.411Z" fill="#0B76B7"/>
<path d="M15.2451 35.7283C15.2451 34.8783 15.58 34.114 16.25 33.4356C16.92 32.7571 17.6444 32.418 18.4234 32.418C18.8596 32.418 19.2023 32.5115 19.4516 32.6987C19.7009 32.8858 19.8294 33.1315 19.8372 33.4356C19.8372 33.6617 19.7632 33.8528 19.6153 34.0088C19.4672 34.1647 19.2803 34.2466 19.0544 34.2544C18.9063 34.2544 18.7895 34.2154 18.7039 34.1375C18.6181 34.0595 18.5753 33.9425 18.5753 33.7865C18.5753 33.6306 18.6181 33.498 18.7039 33.3888C18.7895 33.2797 18.8752 33.1978 18.9609 33.1432C19.0466 33.0886 19.1011 33.0652 19.1245 33.073H19.1362C19.1362 33.0574 19.1128 33.034 19.0661 33.0028C19.0193 32.9716 18.9375 32.9404 18.8207 32.9093C18.7039 32.878 18.5714 32.8624 18.4234 32.8624C18.1897 32.8624 17.9677 32.9171 17.7574 33.0262C17.5938 33.0964 17.4262 33.2173 17.2549 33.3888C16.9122 33.7319 16.6629 34.2154 16.507 34.8393C16.3513 35.4631 16.2695 35.9154 16.2617 36.1961C16.2617 36.5548 16.363 36.8239 16.5655 37.0033C16.7369 37.1904 16.9628 37.284 17.2432 37.284H17.29C18.1624 37.284 18.883 36.9526 19.4516 36.2898C19.5217 36.2118 19.5685 36.1728 19.5919 36.1728C19.6231 36.1728 19.6737 36.2079 19.7438 36.278C19.8139 36.3482 19.8528 36.4028 19.8606 36.4418C19.8684 36.4808 19.8333 36.5393 19.7554 36.6172C19.6776 36.6952 19.5646 36.8044 19.4166 36.9448C19.2686 37.0852 19.0933 37.2021 18.8908 37.2957C18.6883 37.3893 18.439 37.4867 18.143 37.5882C17.8469 37.6895 17.5354 37.7324 17.2082 37.7168C16.6239 37.7168 16.1526 37.5297 15.7943 37.1554C15.436 36.781 15.2529 36.3054 15.2451 35.7283Z" fill="#0B76B7"/>
<path d="M36.4272 29.5993C36.435 29.5993 36.7154 29.5799 37.2685 29.5408C37.8216 29.5019 38.106 29.4784 38.1215 29.4707C38.215 29.4707 38.2617 29.5019 38.2617 29.5642C38.2617 29.6188 37.9774 30.7964 37.4087 33.0969C36.8401 35.3973 36.548 36.5709 36.5324 36.6178C36.5168 36.6645 36.5129 36.723 36.5207 36.7932C36.5207 37.1207 36.6298 37.2845 36.8479 37.2845C36.918 37.2767 36.9959 37.2415 37.0815 37.1791C37.2452 37.0232 37.4048 36.6489 37.5606 36.0563C37.6074 35.9003 37.6463 35.8184 37.6775 35.8106C37.693 35.8028 37.732 35.7989 37.7944 35.7989H37.8411H37.8878C38.0046 35.7989 38.0631 35.8301 38.0631 35.8925C38.0631 35.9315 38.0514 35.9939 38.028 36.0796C37.9268 36.4696 37.8099 36.7854 37.6775 37.0271C37.5451 37.2689 37.436 37.4248 37.3503 37.495C37.2646 37.5652 37.1556 37.6276 37.0231 37.6821C36.9608 37.6978 36.8674 37.7056 36.7427 37.7056C36.4778 37.7056 36.2559 37.6471 36.0767 37.5301C35.8974 37.4132 35.7806 37.2923 35.7261 37.1675L35.656 36.992C35.6482 36.9843 35.6327 36.9882 35.6092 37.0037C35.5936 37.0193 35.5781 37.0349 35.5625 37.0506C35.1029 37.4872 34.6355 37.7056 34.1604 37.7056C33.7319 37.7056 33.3541 37.5496 33.0269 37.2376C32.6997 36.9258 32.5361 36.4306 32.5361 35.7521C32.5361 35.3778 32.6141 34.9957 32.7698 34.6058C32.9257 34.2159 33.1126 33.8805 33.3307 33.5999C33.6968 33.1553 34.0629 32.8473 34.4291 32.6758C34.7952 32.5041 35.1263 32.4184 35.4223 32.4184C35.8585 32.4184 36.1857 32.5821 36.4038 32.9097C36.4428 32.9565 36.4622 32.9721 36.4622 32.9565C36.47 32.9252 36.5752 32.5002 36.7777 31.6815C36.9803 30.8626 37.0893 30.4298 37.1049 30.3831C37.1049 30.2816 37.0776 30.2193 37.0231 30.1959C36.9686 30.1725 36.8167 30.153 36.5675 30.1374H36.3221C36.2753 30.0906 36.252 30.0594 36.252 30.0438C36.252 30.0282 36.2598 29.9542 36.2753 29.8216C36.3143 29.6734 36.3649 29.5993 36.4272 29.5993ZM36.2637 33.7753C36.0844 33.1592 35.7923 32.8512 35.3873 32.8512C35.1146 32.8512 34.8536 32.9721 34.6044 33.2138C34.3551 33.4556 34.1604 33.7714 34.0201 34.1612C33.7942 34.7773 33.6345 35.4168 33.5411 36.0796C33.5411 36.103 33.5411 36.1459 33.5411 36.2083C33.5411 36.2707 33.5372 36.3174 33.5294 36.3487C33.5294 36.6996 33.5995 36.9413 33.7397 37.0739C33.8799 37.2065 34.0474 37.2767 34.2421 37.2845C34.6628 37.2845 35.0952 37.0037 35.5391 36.4422L35.6327 36.3135L36.2637 33.7753Z" fill="#0B76B7"/>
<path d="M38.3564 13.1647V12.4395H41.4997V40.5013H38.3564V39.776H40.7752V13.1647H38.3564Z" fill="#0B76B7"/>
</g>
<defs>
<clipPath id="clip0_315_6215">
<rect width="52" height="52" rx="4" fill="white"/>
</clipPath>
</defs>
</svg>
