<svg width="52" height="52" viewBox="0 0 52 52" fill="none" xmlns="http://www.w3.org/2000/svg">
<g clip-path="url(#clip0_315_6256)">
<path d="M52 0H0V52H52V0Z" fill="white"/>
<path d="M9.86523 25.341V11.999H12.4387V12.622H10.4882V25.341H9.86523Z" fill="#0B76B7"/>
<path d="M9.86523 40.1808V26.8389H10.4882V39.5578H12.4387V40.1808H9.86523Z" fill="#0B76B7"/>
<mask id="mask0_315_6256" style="mask-type:luminance" maskUnits="userSpaceOnUse" x="7" y="24" width="6" height="4">
<path d="M12.4467 27.9414H7.5V24.9601H12.4467V27.9414Z" fill="white"/>
</mask>
<g mask="url(#mask0_315_6256)">
<path d="M9.86426 28.6874V24.2139H10.4872V28.6874H9.86426Z" fill="#0B76B7"/>
</g>
<path d="M12.6904 16.3962C12.6904 15.8969 12.8783 15.4222 13.2541 14.9723C13.6298 14.5224 14.0526 14.2949 14.5223 14.29C14.7744 14.29 14.9969 14.4112 15.1897 14.6534C15.2688 14.5051 15.3825 14.431 15.5308 14.431C15.5951 14.431 15.652 14.4507 15.7014 14.4903C15.7509 14.5298 15.7756 14.5793 15.7756 14.6386C15.7756 14.7029 15.6841 15.0984 15.5012 15.8252C15.3183 16.552 15.2243 16.9624 15.2194 17.0563C15.2194 17.1799 15.2367 17.2615 15.2713 17.3011C15.3059 17.3406 15.3578 17.3628 15.427 17.3678C15.4716 17.3628 15.521 17.3406 15.5754 17.3011C15.6792 17.2022 15.7806 16.9649 15.8794 16.5891C15.9091 16.4902 15.9338 16.4383 15.9536 16.4333C15.9635 16.4284 15.9882 16.4259 16.0277 16.4259H16.0574C16.1514 16.4259 16.1983 16.4482 16.1983 16.4927C16.1983 16.5223 16.186 16.5891 16.1612 16.6929C16.1366 16.7968 16.0871 16.9302 16.0129 17.0934C15.9388 17.2566 15.8596 17.3802 15.7756 17.4642C15.7113 17.5285 15.6323 17.5804 15.5383 17.62C15.4988 17.6298 15.4394 17.6348 15.3603 17.6348C15.1922 17.6348 15.0512 17.5977 14.9376 17.5235C14.8239 17.4494 14.7497 17.3727 14.7151 17.2937L14.6706 17.1824C14.6657 17.1774 14.6558 17.1799 14.6409 17.1898C14.631 17.1997 14.6211 17.2096 14.6112 17.2195C14.3195 17.4963 14.0229 17.6348 13.7213 17.6348C13.4494 17.6348 13.2096 17.5359 13.0019 17.3381C12.7943 17.1404 12.6904 16.8264 12.6904 16.3962ZM15.0488 15.1281C15.0488 15.0984 15.0364 15.0441 15.0118 14.9649C14.987 14.8858 14.9301 14.7993 14.8412 14.7054C14.7521 14.6114 14.6384 14.562 14.5 14.557C14.327 14.557 14.1613 14.6336 14.0031 14.7869C13.8449 14.9402 13.7213 15.1404 13.6323 15.3877C13.4889 15.7782 13.3876 16.1837 13.3282 16.6039C13.3282 16.6188 13.3282 16.646 13.3282 16.6855C13.3282 16.725 13.3258 16.7547 13.3208 16.7745C13.3208 16.997 13.3653 17.1502 13.4543 17.2343C13.5433 17.3183 13.6496 17.3628 13.7732 17.3678C13.9611 17.3678 14.1465 17.2863 14.3294 17.1231C14.5124 16.9599 14.6211 16.8338 14.6558 16.7448C14.6657 16.725 14.7323 16.4606 14.856 15.9513C14.9796 15.442 15.0438 15.1676 15.0488 15.1281Z" fill="#0B76B7"/>
<path d="M24.8717 12.7617C24.8717 12.7122 24.8816 12.6554 24.9014 12.5911C24.9212 12.5268 24.9508 12.4947 24.9904 12.4947C24.9953 12.4947 25.1733 12.4823 25.5244 12.4576C25.8754 12.4329 26.0558 12.418 26.0657 12.4131C26.1251 12.4131 26.1547 12.4353 26.1547 12.4798C26.1547 12.5243 26.0706 12.8778 25.9026 13.5404C25.863 13.7085 25.821 13.8815 25.7765 14.0595C25.732 14.2375 25.6949 14.371 25.6653 14.46L25.6356 14.6009C25.6356 14.6157 25.6504 14.6083 25.6801 14.5786C25.9223 14.3809 26.1721 14.282 26.4291 14.282C26.7356 14.282 26.9829 14.3957 27.1708 14.6231C27.3586 14.8506 27.4551 15.1374 27.46 15.4835C27.46 16.0322 27.2647 16.5291 26.8741 16.9741C26.4835 17.4191 26.0632 17.6416 25.6133 17.6416C25.3661 17.6416 25.1411 17.5477 24.9385 17.3598C24.7358 17.1719 24.6319 16.8678 24.627 16.4476V16.3808C24.627 16.277 24.6467 16.1336 24.6863 15.9507C24.7259 15.7677 24.847 15.2807 25.0497 14.4897C25.2969 13.5156 25.4205 12.999 25.4205 12.9396C25.4205 12.8803 25.3266 12.8457 25.1387 12.8358C25.1139 12.8358 25.0942 12.8358 25.0794 12.8358H25.0423C24.9928 12.8358 24.9607 12.8358 24.9459 12.8358C24.9311 12.8358 24.9138 12.8284 24.894 12.8136C24.8742 12.7987 24.8668 12.7814 24.8717 12.7617ZM26.8222 15.1497V15.1052C26.8222 14.7393 26.6714 14.5564 26.3698 14.5564C26.2857 14.5564 26.1993 14.5761 26.1102 14.6157C26.0213 14.6553 25.9396 14.7072 25.8655 14.7715C25.7913 14.8358 25.7271 14.895 25.6727 14.9495C25.6183 15.0039 25.5738 15.0582 25.5392 15.1126L25.4947 15.172L25.3389 15.8098C25.2302 16.235 25.1758 16.5365 25.1758 16.7145C25.1758 16.9519 25.2351 17.1298 25.3538 17.2486C25.4328 17.3276 25.5318 17.3672 25.6504 17.3672C25.8136 17.3672 25.9792 17.288 26.1473 17.1298C26.2709 17.0161 26.3698 16.8777 26.444 16.7145C26.5182 16.5514 26.5997 16.2918 26.6887 15.9358C26.7777 15.5798 26.8222 15.3178 26.8222 15.1497Z" fill="#0B76B7"/>
<path d="M36.1592 16.382C36.1592 15.843 36.3718 15.3585 36.797 14.9284C37.2222 14.4983 37.682 14.2832 38.1764 14.2832C38.4532 14.2832 38.6708 14.3425 38.829 14.4612C38.9873 14.5798 39.0688 14.7356 39.0738 14.9284C39.0738 15.0718 39.0268 15.1929 38.9328 15.2918C38.8389 15.3907 38.7203 15.4426 38.5769 15.4476C38.4829 15.4476 38.4088 15.4228 38.3544 15.3734C38.3 15.324 38.2728 15.2498 38.2728 15.1509C38.2728 15.052 38.3 14.968 38.3544 14.8987C38.4088 14.8296 38.4631 14.7776 38.5176 14.743C38.572 14.7084 38.6065 14.6936 38.6214 14.6985H38.6288C38.6288 14.6886 38.6139 14.6738 38.5843 14.654C38.5547 14.6342 38.5027 14.6144 38.4286 14.5947C38.3544 14.5749 38.2704 14.565 38.1764 14.565C38.0281 14.565 37.8872 14.5996 37.7537 14.6689C37.6498 14.7133 37.5435 14.79 37.4348 14.8987C37.2172 15.1163 37.059 15.4228 36.9602 15.8183C36.8612 16.2139 36.8094 16.5006 36.8044 16.6786C36.8044 16.9061 36.8686 17.0767 36.9972 17.1904C37.106 17.309 37.2494 17.3684 37.4274 17.3684H37.4571C38.0108 17.3684 38.4681 17.1582 38.829 16.738C38.8736 16.6885 38.9032 16.6638 38.918 16.6638C38.9378 16.6638 38.9699 16.6861 39.0145 16.7306C39.059 16.7751 39.0836 16.8096 39.0886 16.8344C39.0935 16.8591 39.0713 16.8962 39.0219 16.9456C38.9724 16.9951 38.9008 17.0643 38.8068 17.1533C38.7129 17.2423 38.6016 17.3164 38.473 17.3758C38.3445 17.4351 38.1863 17.4969 37.9984 17.5612C37.8105 17.6254 37.6128 17.6527 37.4051 17.6428C37.0343 17.6428 36.7352 17.5241 36.5078 17.2868C36.2803 17.0495 36.1641 16.7479 36.1592 16.382Z" fill="#0B76B7"/>
<path d="M15.1933 22.8784C15.1982 22.8784 15.3762 22.866 15.7273 22.8414C16.0783 22.8167 16.2587 22.8018 16.2686 22.7969C16.328 22.7969 16.3576 22.8167 16.3576 22.8562C16.3576 22.8908 16.1772 23.6374 15.8162 25.0959C15.4553 26.5544 15.2699 27.2986 15.26 27.3282C15.2501 27.3579 15.2477 27.395 15.2526 27.4395C15.2526 27.6471 15.3218 27.751 15.4602 27.751C15.5047 27.746 15.5542 27.7238 15.6085 27.6842C15.7124 27.5853 15.8137 27.348 15.9126 26.9723C15.9423 26.8733 15.967 26.8215 15.9868 26.8165C15.9967 26.8116 16.0214 26.8091 16.061 26.8091H16.0906H16.1203C16.1945 26.8091 16.2315 26.8289 16.2315 26.8684C16.2315 26.8931 16.2241 26.9327 16.2093 26.9871C16.145 27.2343 16.0709 27.4345 15.9868 27.5878C15.9028 27.7411 15.8335 27.8399 15.7791 27.8845C15.7248 27.929 15.6555 27.9685 15.5715 28.0031C15.5319 28.013 15.4726 28.0179 15.3935 28.0179C15.2254 28.0179 15.0845 27.9808 14.9707 27.9067C14.857 27.8325 14.7829 27.7559 14.7483 27.6768L14.7038 27.5656C14.6988 27.5606 14.6889 27.5631 14.6741 27.573C14.6642 27.5829 14.6543 27.5928 14.6444 27.6027C14.3527 27.8795 14.0561 28.0179 13.7545 28.0179C13.4826 28.0179 13.2428 27.9191 13.0351 27.7213C12.8275 27.5235 12.7236 27.2095 12.7236 26.7794C12.7236 26.5421 12.7731 26.2998 12.872 26.0526C12.9708 25.8054 13.0895 25.5928 13.2279 25.4148C13.4603 25.133 13.6927 24.9377 13.9251 24.8289C14.1575 24.7202 14.3676 24.6658 14.5555 24.6658C14.8323 24.6658 15.04 24.7696 15.1784 24.9772C15.2031 25.0069 15.2155 25.0168 15.2155 25.0069C15.2205 24.9871 15.2872 24.7177 15.4158 24.1985C15.5443 23.6794 15.6135 23.405 15.6234 23.3753C15.6234 23.3111 15.6061 23.2715 15.5715 23.2567C15.5369 23.2418 15.4405 23.2295 15.2822 23.2196H15.1265C15.0969 23.1899 15.082 23.1701 15.082 23.1603C15.082 23.1504 15.087 23.1034 15.0969 23.0193C15.1216 22.9254 15.1537 22.8784 15.1933 22.8784ZM15.0895 25.5261C14.9757 25.1355 14.7903 24.9401 14.5332 24.9401C14.3601 24.9401 14.1945 25.0168 14.0363 25.1701C13.8781 25.3234 13.7545 25.5236 13.6655 25.7708C13.5221 26.1614 13.4208 26.5668 13.3614 26.9871C13.3614 27.0019 13.3614 27.0291 13.3614 27.0686C13.3614 27.1082 13.359 27.1379 13.354 27.1576C13.354 27.3801 13.3985 27.5334 13.4875 27.6175C13.5765 27.7015 13.6828 27.746 13.8064 27.751C14.0734 27.751 14.3478 27.573 14.6296 27.217L14.6889 27.1354L15.0895 25.5261Z" fill="#0B76B7"/>
<path d="M24.4814 26.6978C24.4814 26.416 24.5284 26.1589 24.6224 25.9265C24.7163 25.6941 24.8374 25.5013 24.9857 25.348C25.1341 25.1948 25.2997 25.0662 25.4826 24.9624C25.6656 24.8586 25.8386 24.7819 26.0018 24.7325C26.165 24.683 26.3207 24.6608 26.469 24.6657H26.4913C26.7137 24.6657 26.9066 24.7201 27.0697 24.8289C27.2329 24.9376 27.3145 25.0983 27.3145 25.3109C27.3145 25.7559 27.04 26.0476 26.4913 26.1861C26.249 26.2503 25.9177 26.285 25.4975 26.2899C25.3145 26.2899 25.2206 26.2949 25.2157 26.3047C25.2157 26.3146 25.2008 26.4011 25.1712 26.5643C25.1415 26.7274 25.1242 26.8708 25.1192 26.9944C25.1192 27.2268 25.1712 27.4098 25.275 27.5432C25.3789 27.6767 25.5346 27.746 25.7422 27.7509C25.9499 27.7559 26.1798 27.7089 26.4319 27.61C26.6841 27.5111 26.9115 27.3479 27.1143 27.1206C27.1588 27.0711 27.1884 27.0463 27.2032 27.0463C27.223 27.0463 27.2551 27.0686 27.2997 27.1131C27.3441 27.1576 27.3688 27.1922 27.3738 27.2169C27.3787 27.2417 27.3565 27.2812 27.3071 27.3356C27.2576 27.39 27.1834 27.4567 27.0846 27.5358C26.9857 27.6149 26.8719 27.6916 26.7434 27.7658C26.6149 27.8399 26.4591 27.9017 26.2762 27.9511C26.0932 28.0006 25.9054 28.0253 25.7126 28.0253C25.322 28.0253 25.0204 27.8943 24.8077 27.6322C24.5952 27.3702 24.4864 27.0587 24.4814 26.6978ZM26.9585 25.3258C26.9288 25.0687 26.7607 24.9401 26.4542 24.9401C26.291 24.9401 26.1402 24.9747 26.0018 25.044C25.8634 25.1132 25.7521 25.1973 25.6681 25.2961C25.584 25.395 25.5123 25.4964 25.453 25.6002C25.3937 25.704 25.3541 25.793 25.3343 25.8672C25.3145 25.9413 25.3022 25.9883 25.2972 26.0081C25.2972 26.013 25.3467 26.0155 25.4455 26.0155C26.0043 26.0155 26.3948 25.9562 26.6173 25.8375C26.8399 25.7188 26.9536 25.5483 26.9585 25.3258Z" fill="#0B76B7"/>
<path d="M36.3471 29.1458C36.357 29.1458 36.3719 29.1507 36.3917 29.1606C36.4114 29.1705 36.4386 29.1779 36.4732 29.1829C36.5078 29.1878 36.5375 29.1903 36.5622 29.1903C36.6264 29.1903 36.6858 29.1581 36.7401 29.0938C36.7946 29.0296 36.8341 28.9579 36.8589 28.8788C36.9082 28.7453 36.9923 28.3671 37.111 27.7441C37.2296 27.1211 37.3434 26.5278 37.4521 25.9642C37.5609 25.4005 37.6153 25.1162 37.6153 25.1113V25.089H37.2667C37.0344 25.089 36.9107 25.0841 36.8959 25.0742C36.8762 25.0594 36.8663 25.0347 36.8663 25.0001L36.9181 24.7924C36.928 24.7676 36.9478 24.7553 36.9775 24.7553C37.0072 24.7553 37.1234 24.7528 37.3261 24.7479C37.5634 24.7479 37.6821 24.7454 37.6821 24.7405C37.6821 24.7306 37.7043 24.607 37.7488 24.3697C37.7933 24.1323 37.823 23.9889 37.8378 23.9395C38.0207 23.1238 38.3816 22.7158 38.9206 22.7158C39.1035 22.7257 39.2543 22.7801 39.373 22.879C39.4916 22.9779 39.551 23.1089 39.551 23.2721C39.551 23.4501 39.499 23.5786 39.3952 23.6577C39.2914 23.7368 39.1875 23.7788 39.0838 23.7838C38.8662 23.7838 38.7574 23.6799 38.7574 23.4723C38.7574 23.3784 38.7846 23.2968 38.839 23.2276C38.8934 23.1583 38.9527 23.1065 39.017 23.0718L39.0838 23.0347C39.0046 23.005 38.9305 22.9902 38.8612 22.9902C38.8019 22.9902 38.7451 23.0149 38.6906 23.0644C38.6363 23.1139 38.5992 23.183 38.5794 23.2721C38.5448 23.4155 38.5052 23.6083 38.4608 23.8505C38.4163 24.0928 38.3767 24.2979 38.3421 24.4661C38.3075 24.6342 38.2902 24.7232 38.2902 24.7331C38.2902 24.7429 38.4262 24.7479 38.6981 24.7479C38.9206 24.7479 39.0491 24.7503 39.0838 24.7553C39.1183 24.7602 39.1455 24.7751 39.1653 24.7998C39.1702 24.8196 39.1653 24.8616 39.1504 24.9259C39.1356 24.9902 39.1233 25.0297 39.1134 25.0446C39.1035 25.0692 39.0813 25.0816 39.0467 25.0816C39.012 25.0816 38.8785 25.0841 38.6461 25.089H38.2308L38.0603 25.9939C37.823 27.22 37.6574 27.9863 37.5634 28.2929C37.4299 28.7132 37.2568 29.0247 37.0442 29.2273C36.8613 29.3855 36.6809 29.4647 36.5029 29.4647C36.3447 29.4647 36.2013 29.4177 36.0727 29.3238C35.9441 29.2298 35.8799 29.0963 35.8799 28.9232C35.8799 28.7403 35.9318 28.6068 36.0356 28.5228C36.1394 28.4387 36.2433 28.3967 36.3471 28.3967C36.5647 28.3967 36.6734 28.5006 36.6734 28.7082C36.6734 28.8021 36.6462 28.8837 36.5918 28.9529C36.5375 29.0222 36.4781 29.074 36.4139 29.1087L36.3471 29.1458Z" fill="#0B76B7"/>
<path d="M14.9442 38.0069C14.87 38.0712 14.7613 38.1404 14.6179 38.2146C14.4746 38.2887 14.3238 38.3258 14.1655 38.3258C13.854 38.3258 13.6043 38.2146 13.4165 37.9921C13.2286 37.7696 13.1322 37.4853 13.1272 37.1392C13.1272 36.6201 13.3176 36.143 13.6983 35.7079C14.079 35.2728 14.5017 35.0528 14.9665 35.0479C15.1988 35.0479 15.4139 35.1665 15.6117 35.4038L15.6339 35.3742C15.6438 35.3593 15.6562 35.3445 15.671 35.3297C15.6858 35.3148 15.7081 35.295 15.7378 35.2703C15.7675 35.2456 15.7995 35.2283 15.8342 35.2184C15.8688 35.2085 15.9084 35.2011 15.9528 35.1962C16.0221 35.1962 16.079 35.2184 16.1234 35.2629C16.1679 35.3074 16.1926 35.3544 16.1976 35.4038C16.1976 35.478 16.0567 36.0762 15.7748 37.1985C15.493 38.3209 15.3447 38.8944 15.3298 38.9191C15.2409 39.1862 15.0505 39.4061 14.7588 39.5792C14.4671 39.7522 14.1334 39.8412 13.7576 39.8462C13.0605 39.8462 12.7119 39.6781 12.7119 39.3419C12.7119 39.2133 12.7564 39.0996 12.8454 39.0007C12.9344 38.9018 13.0481 38.8524 13.1866 38.8524C13.2607 38.8524 13.3299 38.8747 13.3942 38.9191C13.4585 38.9636 13.4931 39.0403 13.498 39.1491C13.498 39.1985 13.4931 39.2454 13.4832 39.2899C13.4733 39.3345 13.456 39.369 13.4313 39.3937C13.4066 39.4185 13.3868 39.4432 13.372 39.468C13.3571 39.4927 13.3398 39.5125 13.3201 39.5273L13.3052 39.5421H13.3126C13.3621 39.5569 13.5104 39.5643 13.7576 39.5643C13.9455 39.5643 14.0938 39.5347 14.2026 39.4754C14.3163 39.421 14.4226 39.3394 14.5215 39.2306C14.6204 39.1218 14.6896 39.0057 14.7291 38.8821C14.7588 38.7881 14.7984 38.6348 14.8478 38.4222C14.9121 38.1849 14.9442 38.0465 14.9442 38.0069ZM15.4856 35.8933L15.4559 35.8117C15.4411 35.7573 15.4288 35.7202 15.4189 35.7005C15.409 35.6807 15.3942 35.6461 15.3744 35.5966C15.3546 35.5472 15.3298 35.5126 15.3002 35.4928C15.2706 35.473 15.2384 35.4458 15.2038 35.4112C15.1691 35.3766 15.1247 35.3544 15.0703 35.3445C15.0159 35.3346 14.9616 35.3272 14.9071 35.3222C14.6896 35.3222 14.4795 35.4532 14.2768 35.7153C14.1284 35.9081 14.0049 36.2023 13.9059 36.5978C13.8071 36.9933 13.7576 37.2802 13.7576 37.4581C13.7576 37.8487 13.9109 38.044 14.2174 38.044C14.4943 38.044 14.7662 37.871 15.0332 37.5249L15.0926 37.4507L15.4856 35.8933Z" fill="#0B76B7"/>
<path d="M24.8006 33.2613C24.8056 33.2613 24.9836 33.2489 25.3346 33.2242C25.6857 33.1995 25.8661 33.1847 25.876 33.1797C25.9353 33.1797 25.965 33.202 25.965 33.2464C25.965 33.3008 25.876 33.6742 25.698 34.3663C25.5102 35.0981 25.4162 35.4713 25.4162 35.4861C25.4162 35.496 25.4335 35.4837 25.4681 35.4491C25.7697 35.1821 26.0911 35.0486 26.4322 35.0486C26.6992 35.0486 26.9143 35.1154 27.0774 35.2489C27.2406 35.3824 27.3246 35.5777 27.3296 35.8347C27.3296 36.0869 27.2357 36.4775 27.0478 37.0065C26.8599 37.5356 26.766 37.852 26.766 37.9558C26.7709 38.025 26.7833 38.072 26.8031 38.0967C26.8228 38.1215 26.8599 38.1338 26.9143 38.1338C27.0527 38.1338 27.1812 38.0596 27.2999 37.9113C27.4186 37.763 27.515 37.5602 27.5892 37.3032C27.604 37.2488 27.6188 37.2167 27.6336 37.2068C27.6485 37.1969 27.688 37.192 27.7524 37.192C27.8512 37.192 27.9007 37.2117 27.9007 37.2512C27.9007 37.2562 27.8908 37.2933 27.871 37.3625C27.7919 37.6542 27.6658 37.894 27.4927 38.0819C27.3246 38.2945 27.1244 38.4008 26.892 38.4008H26.8549C26.6226 38.4008 26.4545 38.334 26.3506 38.2005C26.2468 38.067 26.1949 37.9261 26.1949 37.7778C26.1949 37.6987 26.2839 37.407 26.4619 36.9027C26.6399 36.3984 26.7313 36.0202 26.7363 35.768C26.7363 35.4763 26.6275 35.3304 26.41 35.3304H26.3729C25.9625 35.3304 25.6065 35.5727 25.3049 36.0573L25.253 36.1536L25.0009 37.1549C24.8427 37.7976 24.7512 38.1487 24.7265 38.2079C24.6622 38.3414 24.5535 38.4082 24.4002 38.4082C24.3309 38.4082 24.2716 38.3859 24.2222 38.3414C24.1727 38.297 24.1455 38.2525 24.1406 38.2079C24.1406 38.1388 24.321 37.3872 24.682 35.9534L25.2308 33.7582C25.2308 33.6939 25.2135 33.6544 25.1789 33.6395C25.1443 33.6247 25.0479 33.6123 24.8897 33.6024H24.7339C24.7042 33.5727 24.6894 33.553 24.6894 33.5431C24.6894 33.5332 24.6943 33.4863 24.7042 33.4022C24.729 33.3083 24.7611 33.2613 24.8006 33.2613Z" fill="#0B76B7"/>
<path d="M37.5975 33.8772C37.5975 33.7586 37.6445 33.6547 37.7384 33.5657C37.8324 33.4768 37.9412 33.4298 38.0647 33.4248C38.1538 33.4248 38.2279 33.4545 38.2873 33.5138C38.3466 33.5731 38.3787 33.6474 38.3836 33.7363C38.3836 33.85 38.3342 33.9539 38.2353 34.0478C38.1365 34.1417 38.0277 34.1912 37.909 34.1961C37.8349 34.1961 37.7656 34.1714 37.7013 34.122C37.6371 34.0725 37.6025 33.9909 37.5975 33.8772ZM36.3887 36.1986C36.3887 36.159 36.411 36.0823 36.4554 35.9686C36.4999 35.8549 36.5593 35.7288 36.6334 35.5904C36.7076 35.4519 36.8163 35.3259 36.9597 35.2122C37.1031 35.0984 37.2514 35.0441 37.4047 35.049C37.5975 35.049 37.7582 35.1058 37.8867 35.2196C38.0153 35.3333 38.0821 35.4865 38.087 35.6794C38.087 35.7634 38.0524 35.9019 37.9832 36.0947C37.9139 36.2875 37.8151 36.5471 37.6866 36.8734C37.5579 37.1997 37.4542 37.4791 37.375 37.7114C37.3504 37.8202 37.338 37.8993 37.338 37.9488C37.338 38.0724 37.38 38.1342 37.464 38.1342C37.5086 38.1342 37.5555 38.1268 37.6049 38.112C37.6544 38.0971 37.7112 38.0625 37.7755 38.0081C37.8398 37.9537 37.9065 37.8672 37.9758 37.7485C38.045 37.6299 38.1068 37.484 38.1612 37.311C38.176 37.2516 38.1883 37.217 38.1982 37.2071C38.2081 37.1972 38.2502 37.1923 38.3244 37.1923C38.4232 37.1923 38.4727 37.217 38.4727 37.2665C38.4727 37.3061 38.4504 37.3826 38.4059 37.4964C38.3614 37.6101 38.2996 37.7362 38.2205 37.8746C38.1414 38.013 38.0301 38.1366 37.8867 38.2454C37.7434 38.3542 37.5901 38.4086 37.4269 38.4086C37.2687 38.4086 37.1229 38.3567 36.9894 38.2529C36.8559 38.149 36.7867 37.9908 36.7817 37.7782C36.7817 37.6941 36.7941 37.6151 36.8188 37.5408C36.8436 37.4667 36.9498 37.1849 37.1377 36.6954C37.3256 36.1961 37.4344 35.8969 37.464 35.798C37.4937 35.6992 37.511 35.6027 37.516 35.5088C37.516 35.3902 37.4739 35.3308 37.3899 35.3308H37.375C37.2267 35.3308 37.0907 35.4124 36.9671 35.5756C36.8436 35.7387 36.7496 35.9463 36.6853 36.1986C36.6804 36.2035 36.6754 36.2109 36.6705 36.2208C36.6656 36.2306 36.6631 36.238 36.6631 36.243C36.6631 36.2479 36.6581 36.2529 36.6482 36.2578C36.6383 36.2628 36.6309 36.2652 36.626 36.2652C36.621 36.2652 36.6111 36.2652 36.5963 36.2652C36.5815 36.2652 36.5618 36.2652 36.537 36.2652H36.4332C36.4035 36.2356 36.3887 36.2134 36.3887 36.1986Z" fill="#0B76B7"/>
<path d="M39.5518 12.622V11.999H42.1252V25.341H41.5022V12.622H39.5518Z" fill="#0B76B7"/>
<path d="M41.5022 39.5578V26.8389H42.1252V40.1808H39.5518V39.5578H41.5022Z" fill="#0B76B7"/>
<mask id="mask1_315_6256" style="mask-type:luminance" maskUnits="userSpaceOnUse" x="39" y="24" width="6" height="4">
<path d="M44.4994 27.9424H39.5527V24.961H44.4994V27.9424Z" fill="white"/>
</mask>
<g mask="url(#mask1_315_6256)">
<path d="M41.5029 28.6884V24.2148H42.1259V28.6884H41.5029Z" fill="#0B76B7"/>
</g>
</g>
<defs>
<clipPath id="clip0_315_6256">
<rect width="52" height="52" rx="4" fill="white"/>
</clipPath>
</defs>
</svg>
