<svg width="52" height="52" viewBox="0 0 52 52" fill="none" xmlns="http://www.w3.org/2000/svg">
<path d="M11.184 13.9898C10.5675 13.9898 10 13.5122 10 12.3841C10 10.5447 11.5166 9 12.7984 9C13.0431 9 13.3757 9.06098 13.7084 9.2439C13.9824 9.21341 14.2857 9.17276 14.589 9.11179L14.6184 9.15244C14.4618 9.72155 14.3542 10.2093 14.2368 10.7378L13.7867 12.75C13.7671 12.8415 13.7182 13.0142 13.7182 13.1463C13.7182 13.2683 13.7573 13.3598 13.8943 13.3598C14.1194 13.3598 14.501 13.0854 14.775 12.7297C14.863 12.7907 14.9315 12.8516 15 12.9329C14.5597 13.5427 14.0607 14 13.4247 14C12.9452 14 12.7495 13.7256 12.7495 13.3394C12.7495 13.1565 12.7886 12.9431 12.8571 12.7093H12.8082C12.319 13.5833 11.7613 13.9898 11.184 13.9898ZM13.454 9.88415C13.18 9.63008 12.8767 9.45732 12.5636 9.45732C11.5851 9.45732 11.047 11.1138 11.047 12.3028C11.047 13.1159 11.2916 13.3496 11.5753 13.3496C12.0744 13.3496 12.8278 12.628 13.2583 10.7378L13.454 9.88415Z" fill="#454545"/>
<path d="M24 14.4771L25.0108 9.23853C25.0454 9.06422 25.0713 8.91743 25.0713 8.82569C25.0713 8.59633 24.9071 8.56881 24.3542 8.55963C24.3369 8.47706 24.3283 8.3945 24.3456 8.31193C24.959 8.26605 25.581 8.18349 26.0216 8L26.1339 8.06422C26.0216 8.48624 25.8834 9.11927 25.7711 9.7156L25.5205 11.0092L25.3909 11.5596H25.4255C25.8488 10.945 26.3758 10.4954 26.9546 10.4954C27.6026 10.4954 28 11.0826 28 11.9541C28 13.4862 26.7732 15 25.5637 15C25.0886 15 24.4665 14.7982 24 14.4771ZM25.2095 12.6789L24.9071 14.2477C25.1663 14.4679 25.4428 14.6055 25.7106 14.6055C26.6609 14.6055 27.067 12.9908 27.067 12.0183C27.067 11.3761 26.8855 11.0734 26.5659 11.0734C26.0216 11.0734 25.3564 11.9358 25.2095 12.6789Z" fill="#454545"/>
<path d="M38.6318 14C37.607 14 37 13.2974 37 12.1976C37 10.4257 38.5522 9 39.9154 9C40.5423 9 41 9.3055 41 9.72301C41 10.0081 40.791 10.222 40.4925 10.222C40.204 10.222 39.8358 10.0183 39.7662 9.41751C38.7811 9.45825 38.0547 11.0876 38.0547 12.2179C38.0547 12.7984 38.2537 13.3075 38.9502 13.3075C39.5174 13.3075 40.0149 12.9715 40.3731 12.4521C40.4726 12.5031 40.5622 12.5743 40.6119 12.6456C40.2239 13.3483 39.6169 14 38.6318 14Z" fill="#454545"/>
<path d="M12.8759 27.6405H12.8289C12.2368 28.6549 11.6165 28.9791 11.1372 28.9791C10.5357 28.9791 10 28.4667 10 27.3268C10 25.5072 11.3816 23.8444 12.688 23.8444C12.9417 23.8444 13.2237 23.9072 13.4774 24.0431L13.7782 22.4118C13.8158 22.2131 13.844 22.0458 13.844 21.9412C13.844 21.6797 13.6654 21.6484 13.0639 21.6379C13.0451 21.5438 13.0357 21.4497 13.0545 21.3556C13.7312 21.3033 14.4079 21.2092 14.8778 21L15 21.0732C14.8684 21.5961 14.7462 22.1922 14.6053 22.9556L13.7312 27.7033C13.7124 27.7974 13.6748 27.9856 13.6748 28.1111C13.6748 28.2471 13.7124 28.3412 13.844 28.3412C14.0602 28.3412 14.4267 28.0588 14.6898 27.6928C14.7744 27.7556 14.8402 27.8183 14.906 27.902C14.4831 28.5294 13.9944 29 13.3929 29C12.9417 29 12.7726 28.7386 12.7726 28.3307C12.7726 28.1425 12.8102 27.9438 12.8759 27.6405ZM13.0639 26.2601L13.3365 24.7647C12.9699 24.4091 12.6598 24.315 12.4436 24.315C11.5038 24.315 11.0056 26.0301 11.0056 27.2536C11.0056 28.0484 11.2124 28.3203 11.5414 28.3203C12.1617 28.3203 12.8477 27.3268 13.0639 26.2601Z" fill="#454545"/>
<path d="M25.1062 25.6423C25.0667 25.8455 25.0469 26.0488 25.0469 26.2317C25.0469 26.9126 25.3235 27.3394 25.9654 27.3394C26.5284 27.3394 27.042 26.9939 27.4272 26.4959C27.516 26.5467 27.6049 26.6179 27.6543 26.689C27.2 27.4817 26.5679 28 25.679 28C24.6321 28 24 27.3089 24 26.2215C24 24.7073 25.2247 23 26.9235 23C27.6642 23 28 23.3252 28 23.8333C28 24.8902 26.5383 25.4797 25.1062 25.6423ZM25.1852 25.2866C26.1136 25.1545 27.0617 24.7276 27.0617 23.9248C27.0617 23.6301 26.9333 23.4268 26.6469 23.4268C26.0247 23.4268 25.442 24.3415 25.1852 25.2866Z" fill="#454545"/>
<path d="M41.3358 23.3927H40.1813L39.4532 26.6864C39.0579 28.457 38.2571 30 36.9049 30C36.364 30 36 29.7527 36 29.4065C36 29.1197 36.2496 28.9416 36.5097 28.9416C36.7801 28.9416 37.1129 29.1494 37.2793 29.5747C37.7578 29.4263 38.0386 28.6746 38.3507 27.1711L39.1412 23.3927H38.3299C38.3299 23.3037 38.3403 23.2245 38.3715 23.1652C39.0267 23.0564 39.1724 23.0069 39.2244 22.9179C39.266 22.8487 39.2972 22.6904 39.3492 22.4629C39.6508 21.1375 40.5765 20 41.8975 20C42.5319 20 43 20.2868 43 20.6627C43 20.9298 42.792 21.1276 42.4903 21.1276C42.2095 21.1276 41.8455 20.9298 41.7727 20.3858C41.7415 20.3759 41.7103 20.3759 41.6686 20.3759C40.8678 20.3759 40.6285 21.4243 40.2749 22.9575H41.4086C41.4086 23.1058 41.3878 23.2641 41.3358 23.3927Z" fill="#454545"/>
<path d="M11.0773 43C10.1072 43 9 42.6265 9 41.7912C9 41.172 9.60105 40.7887 10.2865 40.4545C9.98067 40.3268 9.76977 40.1302 9.76977 39.8256C9.76977 39.4619 10.0545 39.1671 10.7399 38.8034C10.2759 38.5577 9.97012 38.1548 9.97012 37.6143C9.97012 36.6118 11.0351 35.7764 12.3322 35.7764C12.9332 35.7764 13.4605 35.9631 13.7873 36.2973C13.9877 36.1794 14.1353 36.0713 14.2302 35.9435C14.0931 35.8059 14.0299 35.6388 14.0299 35.4816C14.0299 35.226 14.2197 35 14.5255 35C14.7786 35 15 35.1474 15 35.4521C15 35.855 14.5993 36.1794 13.9772 36.5332C14.0931 36.7297 14.167 36.9656 14.167 37.2408C14.167 38.2629 13.1652 39.059 11.8787 39.059C11.594 39.059 11.3199 39.0197 11.0773 38.941C10.7926 39.1179 10.6239 39.2948 10.6239 39.4521C10.6239 40.199 14.167 39.6486 14.167 41.231C14.167 42.371 12.3322 43 11.0773 43ZM11.8787 38.715C12.775 38.715 13.123 37.7617 13.123 37.1229C13.123 36.6904 12.9649 36.0909 12.2373 36.0909C11.3304 36.0909 11.0141 37.0541 11.0141 37.6732C11.0141 38.145 11.1933 38.715 11.8787 38.715ZM10.6872 40.5823C10.2127 40.887 9.94903 41.2211 9.94903 41.6437C9.94903 42.3317 10.6661 42.6167 11.3726 42.6167C12.1845 42.6167 13.239 42.2334 13.239 41.5848C13.239 40.8084 11.7206 40.8378 10.6872 40.5823Z" fill="#454545"/>
<path d="M25.3577 41.45L25.0422 42.9159H24.1053L25.3099 37.2628C25.3482 37.0887 25.3769 36.9421 25.3769 36.8505C25.3769 36.6214 25.1952 36.5939 24.5834 36.5848C24.5642 36.5023 24.5547 36.4199 24.5738 36.3374C25.2621 36.2916 25.9505 36.2091 26.4285 36.0259L26.5528 36.09C26.3998 36.6123 26.2755 37.1528 26.1512 37.7392L25.8453 39.1319L25.6923 39.7549H25.7401C26.2564 38.9487 26.9639 38.518 27.6235 38.518C28.2162 38.518 28.5604 38.8754 28.5604 39.3426C28.5604 39.9932 27.853 41.8989 27.853 42.2746C27.853 42.357 27.8912 42.4487 28.025 42.4487C28.2449 42.4487 28.6178 42.2013 28.8855 41.8806C28.9715 41.9356 29.0384 41.9905 29.1053 42.0638C28.6751 42.6136 28.178 43.0259 27.5757 43.0259C27.0977 43.0259 26.8874 42.7693 26.8874 42.4303C26.8874 41.8165 27.5853 40.0206 27.5853 39.4617C27.5853 39.2144 27.4705 39.0494 27.2124 39.0494C26.6962 39.0494 25.7306 39.7274 25.3577 41.45Z" fill="#454545"/>
<path d="M40.2447 36.4575C39.8617 36.4575 39.5957 36.166 39.5957 35.7881C39.5957 35.3563 39.9468 35 40.3723 35C40.7553 35 41 35.2807 41 35.6586C41 36.0904 40.6809 36.4575 40.2447 36.4575ZM40.734 41.6505C40.8298 41.7152 40.9043 41.78 40.9787 41.8664C40.5 42.5142 39.9468 43 39.266 43C38.7447 43 38.5106 42.7085 38.5106 42.2659C38.5106 42.1039 38.5426 41.9312 38.5851 41.7368L39.2234 39.0378C39.2766 38.8111 39.2979 38.7139 39.2979 38.6275C39.2979 38.444 39.2234 38.3684 39.1064 38.3684C38.9043 38.3684 38.5532 38.6167 38.2447 38.9514C38.1489 38.8866 38.0745 38.8111 38 38.7247C38.5638 38.0445 39.2021 37.7099 39.7234 37.7099C40.2021 37.7099 40.3936 38.0013 40.3936 38.3684C40.3936 38.498 40.3723 38.6491 40.3404 38.8111L39.6596 41.6829C39.6383 41.78 39.5851 41.9528 39.5851 42.0931C39.5851 42.2227 39.6277 42.3198 39.7766 42.3198C40.0213 42.3198 40.4362 42.0283 40.734 41.6505Z" fill="#454545"/>
<path d="M43 46H48V6H43V7.83761H46.4279V44.1624H43V46Z" fill="#454545"/>
<path d="M9 46H4V6H9V7.83761H5.57205V44.1624H9V46Z" fill="#454545"/>
</svg>
