<svg width="53" height="53" viewBox="0 0 53 53" fill="none" xmlns="http://www.w3.org/2000/svg">
<g filter="url(#filter0_d)">
<rect width="52" height="52" fill="white"/>
<path d="M5.03723 25.1282V7.99999H8.341V8.79975H5.83699V25.1282H5.03723Z" fill="black"/>
<path d="M5.03723 44.1797V27.0515H5.83699V43.3799H8.341V44.1797H5.03723Z" fill="black"/>
<g clip-path="url(#clip0)">
<path d="M5.03723 29.427V23.6839H5.83699V29.427H5.03723Z" fill="black"/>
</g>
<path d="M8.66461 13.6458C8.66461 13.0048 8.90581 12.3954 9.3882 11.8178C9.8706 11.2402 10.4133 10.9482 11.0163 10.9419C11.34 10.9419 11.6256 11.0974 11.8732 11.4084C11.9747 11.218 12.1207 11.1228 12.3111 11.1228C12.3936 11.1228 12.4666 11.1482 12.5301 11.199C12.5936 11.2497 12.6253 11.3132 12.6253 11.3894C12.6253 11.4719 12.5079 11.9797 12.2731 12.9127C12.0382 13.8458 11.9176 14.3726 11.9113 14.4932C11.9113 14.6519 11.9335 14.7566 11.9779 14.8074C12.0223 14.8582 12.089 14.8867 12.1778 14.8931C12.235 14.8867 12.2984 14.8582 12.3683 14.8074C12.5016 14.6805 12.6317 14.3758 12.7586 13.8934C12.7967 13.7664 12.8284 13.6998 12.8538 13.6934C12.8665 13.6871 12.8983 13.6839 12.949 13.6839H12.9871C13.1077 13.6839 13.168 13.7125 13.168 13.7696C13.168 13.8077 13.1522 13.8934 13.1204 14.0267C13.0887 14.16 13.0252 14.3313 12.93 14.5408C12.8348 14.7503 12.7332 14.909 12.6253 15.0169C12.5428 15.0994 12.4413 15.166 12.3207 15.2168C12.2699 15.2295 12.1937 15.2358 12.0922 15.2358C11.8763 15.2358 11.6954 15.1882 11.5495 15.093C11.4035 14.9978 11.3083 14.8994 11.2638 14.7979L11.2067 14.6551C11.2004 14.6487 11.1877 14.6519 11.1686 14.6646C11.1559 14.6773 11.1432 14.69 11.1305 14.7027C10.756 15.0581 10.3752 15.2358 9.98802 15.2358C9.63892 15.2358 9.33108 15.1089 9.06449 14.855C8.79791 14.6011 8.66461 14.1981 8.66461 13.6458ZM11.6923 12.0178C11.6923 11.9797 11.6764 11.9099 11.6447 11.8083C11.6129 11.7067 11.5399 11.5957 11.4257 11.4751C11.3114 11.3545 11.1654 11.291 10.9877 11.2846C10.7656 11.2846 10.5529 11.383 10.3498 11.5798C10.1467 11.7766 9.98802 12.0336 9.87377 12.351C9.6897 12.8524 9.55958 13.3729 9.48341 13.9124C9.48341 13.9315 9.48341 13.9664 9.48341 14.0172C9.48341 14.0679 9.48024 14.106 9.47389 14.1314C9.47389 14.417 9.53102 14.6138 9.64527 14.7217C9.75952 14.8296 9.89599 14.8867 10.0547 14.8931C10.2959 14.8931 10.5339 14.7884 10.7687 14.5789C11.0036 14.3694 11.1432 14.2076 11.1877 14.0933C11.2004 14.0679 11.286 13.7284 11.4447 13.0746C11.6034 12.4208 11.6859 12.0685 11.6923 12.0178Z" fill="black"/>
<path d="M24.3027 8.98058C24.3027 8.91711 24.3154 8.84411 24.3408 8.7616C24.3662 8.67908 24.4043 8.63782 24.4551 8.63782C24.4614 8.63782 24.6899 8.62196 25.1406 8.59022C25.5912 8.55848 25.8229 8.53944 25.8356 8.53309C25.9118 8.53309 25.9498 8.56166 25.9498 8.61878C25.9498 8.67591 25.8419 9.12974 25.6261 9.98028C25.5753 10.1961 25.5214 10.4182 25.4643 10.6467C25.4071 10.8752 25.3595 11.0466 25.3215 11.1609L25.2834 11.3418C25.2834 11.3608 25.3024 11.3513 25.3405 11.3132C25.6515 11.0593 25.9721 10.9324 26.3021 10.9324C26.6956 10.9324 27.013 11.0784 27.2542 11.3703C27.4954 11.6623 27.6192 12.0305 27.6255 12.4748C27.6255 13.1793 27.3748 13.8172 26.8734 14.3885C26.3719 14.9597 25.8324 15.2454 25.2548 15.2454C24.9374 15.2454 24.6486 15.1248 24.3884 14.8836C24.1282 14.6424 23.9949 14.252 23.9885 13.7125V13.6268C23.9885 13.4935 24.0139 13.3094 24.0647 13.0746C24.1155 12.8397 24.271 12.2145 24.5312 11.199C24.8486 9.94854 25.0073 9.28525 25.0073 9.20908C25.0073 9.13291 24.8867 9.08848 24.6455 9.07579C24.6137 9.07579 24.5883 9.07579 24.5693 9.07579H24.5217C24.4582 9.07579 24.417 9.07579 24.3979 9.07579C24.3789 9.07579 24.3567 9.06627 24.3313 9.04723C24.3059 9.02818 24.2964 9.00597 24.3027 8.98058ZM26.8067 12.0463V11.9892C26.8067 11.5195 26.6131 11.2846 26.2259 11.2846C26.118 11.2846 26.007 11.31 25.8927 11.3608C25.7785 11.4116 25.6737 11.4782 25.5785 11.5608C25.4833 11.6433 25.4008 11.7194 25.331 11.7893C25.2612 11.8591 25.204 11.9289 25.1596 11.9987L25.1025 12.0749L24.9025 12.8937C24.7629 13.4396 24.6931 13.8267 24.6931 14.0552C24.6931 14.3599 24.7692 14.5884 24.9216 14.7408C25.0231 14.8423 25.1501 14.8931 25.3024 14.8931C25.5119 14.8931 25.7245 14.7915 25.9403 14.5884C26.099 14.4424 26.2259 14.2647 26.3212 14.0552C26.4164 13.8458 26.5211 13.5125 26.6353 13.0555C26.7496 12.5985 26.8067 12.2621 26.8067 12.0463Z" fill="black"/>
<path d="M38.7937 13.6267C38.7937 12.9348 39.0666 12.3128 39.6125 11.7606C40.1584 11.2084 40.7487 10.9323 41.3834 10.9323C41.7388 10.9323 42.0181 11.0084 42.2212 11.1608C42.4244 11.3131 42.5291 11.5131 42.5354 11.7606C42.5354 11.9447 42.4751 12.1002 42.3545 12.2271C42.2339 12.3541 42.0816 12.4207 41.8975 12.4271C41.7769 12.4271 41.6817 12.3953 41.6119 12.3319C41.5421 12.2684 41.5072 12.1732 41.5072 12.0462C41.5072 11.9193 41.5421 11.8114 41.6119 11.7225C41.6817 11.6337 41.7515 11.567 41.8214 11.5226C41.8912 11.4781 41.9356 11.4591 41.9547 11.4654H41.9642C41.9642 11.4528 41.9451 11.4337 41.907 11.4083C41.869 11.3829 41.8023 11.3575 41.7071 11.3322C41.6119 11.3068 41.504 11.2941 41.3834 11.2941C41.193 11.2941 41.0121 11.3385 40.8407 11.4274C40.7074 11.4845 40.5709 11.5829 40.4313 11.7225C40.152 12.0018 39.9489 12.3953 39.822 12.9031C39.695 13.4109 39.6284 13.779 39.622 14.0075C39.622 14.2995 39.7045 14.5185 39.8696 14.6645C40.0092 14.8168 40.1933 14.893 40.4218 14.893H40.4599C41.1708 14.893 41.7579 14.6232 42.2212 14.0837C42.2784 14.0202 42.3165 13.9885 42.3355 13.9885C42.3609 13.9885 42.4021 14.0171 42.4593 14.0742C42.5164 14.1313 42.5481 14.1757 42.5545 14.2075C42.5608 14.2392 42.5323 14.2868 42.4688 14.3503C42.4053 14.4138 42.3133 14.5026 42.1927 14.6169C42.0721 14.7311 41.9293 14.8263 41.7642 14.9025C41.5992 14.9787 41.3961 15.058 41.1549 15.1405C40.9137 15.223 40.6598 15.258 40.3932 15.2453C39.9172 15.2453 39.5332 15.0929 39.2412 14.7883C38.9492 14.4836 38.8 14.0964 38.7937 13.6267Z" fill="black"/>
<path d="M11.8781 21.9674C11.8844 21.9674 12.1129 21.9515 12.5636 21.9198C13.0142 21.8881 13.2459 21.869 13.2586 21.8627C13.3348 21.8627 13.3728 21.8881 13.3728 21.9388C13.3728 21.9833 13.1412 22.9417 12.6778 24.8142C12.2145 26.6866 11.9764 27.6419 11.9637 27.68C11.951 27.7181 11.9479 27.7657 11.9542 27.8228C11.9542 28.0894 12.0431 28.2227 12.2208 28.2227C12.2779 28.2163 12.3414 28.1878 12.4112 28.137C12.5445 28.01 12.6746 27.7054 12.8016 27.223C12.8397 27.096 12.8714 27.0294 12.8968 27.023C12.9095 27.0167 12.9412 27.0135 12.992 27.0135H13.0301H13.0682C13.1634 27.0135 13.211 27.0389 13.211 27.0897C13.211 27.1214 13.2015 27.1722 13.1824 27.242C13.0999 27.5594 13.0047 27.8164 12.8968 28.0132C12.7889 28.21 12.7 28.3369 12.6302 28.3941C12.5604 28.4512 12.4715 28.502 12.3636 28.5464C12.3128 28.5591 12.2367 28.5654 12.1351 28.5654C11.9193 28.5654 11.7384 28.5178 11.5924 28.4226C11.4464 28.3274 11.3512 28.229 11.3068 28.1275L11.2497 27.9847C11.2433 27.9783 11.2306 27.9815 11.2116 27.9942C11.1989 28.0069 11.1862 28.0196 11.1735 28.0323C10.799 28.3877 10.4182 28.5654 10.031 28.5654C9.68189 28.5654 9.37405 28.4385 9.10746 28.1846C8.84087 27.9307 8.70758 27.5276 8.70758 26.9754C8.70758 26.6708 8.77105 26.3597 8.898 26.0424C9.02495 25.725 9.17728 25.4521 9.355 25.2236C9.65333 24.8618 9.95165 24.6111 10.25 24.4714C10.5483 24.3318 10.8181 24.262 11.0593 24.262C11.4147 24.262 11.6813 24.3953 11.859 24.6618C11.8907 24.6999 11.9066 24.7126 11.9066 24.6999C11.913 24.6745 11.9987 24.3286 12.1637 23.6621C12.3287 22.9957 12.4176 22.6434 12.4303 22.6053C12.4303 22.5228 12.4081 22.472 12.3636 22.453C12.3192 22.4339 12.1954 22.4181 11.9923 22.4054H11.7924C11.7543 22.3673 11.7352 22.3419 11.7352 22.3292C11.7352 22.3165 11.7416 22.2562 11.7543 22.1483C11.786 22.0277 11.8273 21.9674 11.8781 21.9674ZM11.7448 25.3664C11.5988 24.865 11.3608 24.6142 11.0307 24.6142C10.8085 24.6142 10.5959 24.7126 10.3928 24.9094C10.1897 25.1062 10.031 25.3632 9.91674 25.6806C9.73267 26.182 9.60255 26.7025 9.52638 27.242C9.52638 27.2611 9.52638 27.296 9.52638 27.3467C9.52638 27.3975 9.52321 27.4356 9.51686 27.461C9.51686 27.7466 9.57399 27.9434 9.68824 28.0513C9.80249 28.1592 9.93896 28.2163 10.0976 28.2227C10.4404 28.2227 10.7927 27.9942 11.1545 27.5372L11.2306 27.4324L11.7448 25.3664Z" fill="black"/>
<path d="M23.8029 26.8705C23.8029 26.5087 23.8632 26.1786 23.9838 25.8803C24.1044 25.582 24.2599 25.3344 24.4503 25.1376C24.6408 24.9409 24.8534 24.7759 25.0882 24.6426C25.3231 24.5093 25.5452 24.4109 25.7547 24.3474C25.9642 24.2839 26.1641 24.2554 26.3545 24.2617H26.3831C26.6687 24.2617 26.9163 24.3315 27.1257 24.4712C27.3352 24.6108 27.4399 24.8171 27.4399 25.09C27.4399 25.6613 27.0876 26.0358 26.3831 26.2135C26.0721 26.296 25.6468 26.3405 25.1073 26.3468C24.8724 26.3468 24.7518 26.3532 24.7455 26.3658C24.7455 26.3785 24.7264 26.4896 24.6884 26.6991C24.6503 26.9085 24.6281 27.0926 24.6217 27.2513C24.6217 27.5496 24.6884 27.7845 24.8217 27.9558C24.955 28.1272 25.1549 28.2161 25.4215 28.2224C25.6881 28.2288 25.9832 28.1685 26.3069 28.0415C26.6306 27.9146 26.9226 27.7051 27.1829 27.4132C27.24 27.3497 27.2781 27.3179 27.2971 27.3179C27.3225 27.3179 27.3637 27.3465 27.4209 27.4036C27.478 27.4608 27.5097 27.5052 27.5161 27.5369C27.5224 27.5687 27.4939 27.6194 27.4304 27.6893C27.3669 27.7591 27.2717 27.8448 27.1448 27.9463C27.0178 28.0479 26.8718 28.1463 26.7068 28.2415C26.5418 28.3367 26.3418 28.416 26.107 28.4795C25.8721 28.543 25.6309 28.5747 25.3834 28.5747C24.882 28.5747 24.4948 28.4065 24.2218 28.0701C23.9489 27.7337 23.8093 27.3338 23.8029 26.8705ZM26.9829 25.1091C26.9448 24.779 26.729 24.614 26.3355 24.614C26.126 24.614 25.9324 24.6584 25.7547 24.7473C25.577 24.8362 25.4342 24.9441 25.3263 25.071C25.2184 25.1979 25.1263 25.3281 25.0502 25.4614C24.974 25.5947 24.9232 25.7089 24.8978 25.8041C24.8724 25.8993 24.8566 25.9596 24.8502 25.985C24.8502 25.9914 24.9137 25.9945 25.0406 25.9945C25.7579 25.9945 26.2593 25.9184 26.5449 25.766C26.8306 25.6137 26.9766 25.3947 26.9829 25.1091Z" fill="black"/>
<path d="M39.0365 30.0125C39.0492 30.0125 39.0683 30.0188 39.0937 30.0315C39.119 30.0442 39.154 30.0537 39.1984 30.0601C39.2428 30.0664 39.2809 30.0696 39.3126 30.0696C39.3951 30.0696 39.4713 30.0283 39.5411 29.9458C39.611 29.8633 39.6617 29.7713 39.6935 29.6697C39.7569 29.4983 39.8648 29.0128 40.0172 28.213C40.1695 27.4133 40.3155 26.6516 40.4551 25.928C40.5948 25.2044 40.6646 24.8394 40.6646 24.8331V24.8045H40.2171C39.9188 24.8045 39.7601 24.7982 39.7411 24.7855C39.7157 24.7664 39.703 24.7347 39.703 24.6903L39.7696 24.4237C39.7823 24.3919 39.8077 24.3761 39.8458 24.3761C39.8839 24.3761 40.0331 24.3729 40.2933 24.3666C40.598 24.3666 40.7503 24.3634 40.7503 24.357C40.7503 24.3443 40.7789 24.1857 40.836 23.881C40.8931 23.5763 40.9312 23.3922 40.9502 23.3288C41.1851 22.2815 41.6484 21.7578 42.3403 21.7578C42.5751 21.7705 42.7687 21.8403 42.9211 21.9673C43.0734 22.0942 43.1496 22.2624 43.1496 22.4719C43.1496 22.7004 43.0829 22.8654 42.9496 22.967C42.8163 23.0685 42.683 23.1225 42.5498 23.1288C42.2705 23.1288 42.1308 22.9955 42.1308 22.729C42.1308 22.6084 42.1657 22.5036 42.2356 22.4148C42.3054 22.3259 42.3816 22.2593 42.4641 22.2148L42.5498 22.1672C42.4482 22.1291 42.353 22.1101 42.2641 22.1101C42.188 22.1101 42.115 22.1418 42.0451 22.2053C41.9753 22.2688 41.9277 22.3576 41.9023 22.4719C41.8579 22.656 41.8071 22.9035 41.75 23.2145C41.6929 23.5255 41.6421 23.7889 41.5977 24.0048C41.5532 24.2206 41.531 24.3348 41.531 24.3475C41.531 24.3602 41.7056 24.3666 42.0547 24.3666C42.3403 24.3666 42.5053 24.3697 42.5498 24.3761C42.5942 24.3824 42.6291 24.4015 42.6545 24.4332C42.6608 24.4586 42.6545 24.5125 42.6354 24.5951C42.6164 24.6776 42.6005 24.7283 42.5878 24.7474C42.5751 24.7791 42.5466 24.795 42.5022 24.795C42.4577 24.795 42.2863 24.7982 41.988 24.8045H41.4548L41.2359 25.9661C40.9312 27.5402 40.7186 28.524 40.598 28.9176C40.4266 29.4571 40.2044 29.857 39.9315 30.1172C39.6966 30.3203 39.465 30.4219 39.2365 30.4219C39.0334 30.4219 38.8493 30.3616 38.6843 30.241C38.5192 30.1204 38.4367 29.949 38.4367 29.7268C38.4367 29.492 38.5034 29.3206 38.6366 29.2127C38.7699 29.1048 38.9032 29.0509 39.0365 29.0509C39.3158 29.0509 39.4554 29.1842 39.4554 29.4507C39.4554 29.5713 39.4205 29.6761 39.3507 29.7649C39.2809 29.8538 39.2047 29.9204 39.1222 29.9649L39.0365 30.0125Z" fill="black"/>
<path d="M11.5593 41.39C11.4641 41.4725 11.3245 41.5614 11.1404 41.6566C10.9564 41.7518 10.7628 41.7994 10.5596 41.7994C10.1598 41.7994 9.83923 41.6566 9.59803 41.371C9.35684 41.0854 9.23306 40.7204 9.22672 40.2761C9.22672 39.6096 9.47109 38.9971 9.95983 38.4385C10.4486 37.88 10.9913 37.5975 11.5879 37.5912C11.8862 37.5912 12.1623 37.7435 12.4162 38.0482L12.4448 38.0101C12.4575 37.991 12.4734 37.972 12.4924 37.953C12.5114 37.9339 12.54 37.9085 12.5781 37.8768C12.6162 37.8451 12.6574 37.8228 12.7019 37.8101C12.7463 37.7975 12.7971 37.7879 12.8542 37.7816C12.9431 37.7816 13.0161 37.8101 13.0732 37.8673C13.1303 37.9244 13.162 37.9847 13.1684 38.0482C13.1684 38.1434 12.9875 38.9114 12.6257 40.3522C12.2639 41.7931 12.0735 42.5294 12.0544 42.5611C11.9402 42.9039 11.6958 43.1863 11.3213 43.4085C10.9468 43.6306 10.5184 43.7449 10.036 43.7512C9.14103 43.7512 8.69354 43.5354 8.69354 43.1038C8.69354 42.9388 8.75067 42.7928 8.86492 42.6658C8.97917 42.5389 9.12516 42.4754 9.30288 42.4754C9.39809 42.4754 9.48695 42.504 9.56947 42.5611C9.65198 42.6182 9.69642 42.7166 9.70276 42.8563C9.70276 42.9197 9.69642 42.98 9.68372 43.0371C9.67103 43.0943 9.64881 43.1387 9.61707 43.1704C9.58534 43.2022 9.55995 43.2339 9.54091 43.2657C9.52186 43.2974 9.49965 43.3228 9.47426 43.3418L9.45522 43.3609H9.46474C9.52821 43.3799 9.71863 43.3894 10.036 43.3894C10.2772 43.3894 10.4676 43.3513 10.6073 43.2752C10.7532 43.2054 10.8897 43.1006 11.0167 42.961C11.1436 42.8213 11.2325 42.6722 11.2832 42.5135C11.3213 42.3929 11.3721 42.1961 11.4356 41.9232C11.5181 41.6185 11.5593 41.4408 11.5593 41.39ZM12.2544 38.6766L12.2163 38.5718C12.1973 38.502 12.1814 38.4544 12.1687 38.429C12.156 38.4036 12.137 38.3592 12.1116 38.2957C12.0862 38.2322 12.0544 38.1878 12.0164 38.1624C11.9783 38.137 11.937 38.1021 11.8926 38.0577C11.8481 38.0133 11.791 37.9847 11.7212 37.972C11.6514 37.9593 11.5816 37.9498 11.5117 37.9434C11.2325 37.9434 10.9627 38.1116 10.7025 38.4481C10.512 38.6956 10.3534 39.0733 10.2264 39.581C10.0995 40.0888 10.036 40.457 10.036 40.6855C10.036 41.1869 10.2328 41.4376 10.6263 41.4376C10.9817 41.4376 11.3308 41.2155 11.6736 40.7712L11.7498 40.676L12.2544 38.6766Z" fill="black"/>
<path d="M24.2124 35.2968C24.2188 35.2968 24.4473 35.2809 24.8979 35.2492C25.3486 35.2174 25.5803 35.1984 25.593 35.192C25.6691 35.192 25.7072 35.2206 25.7072 35.2777C25.7072 35.3475 25.593 35.8268 25.3645 36.7154C25.1233 37.6548 25.0027 38.134 25.0027 38.153C25.0027 38.1657 25.0249 38.1499 25.0693 38.1054C25.4565 37.7627 25.8691 37.5913 26.307 37.5913C26.6498 37.5913 26.9259 37.677 27.1353 37.8484C27.3448 38.0198 27.4527 38.2705 27.4591 38.6005C27.4591 38.9242 27.3385 39.4257 27.0973 40.1048C26.8561 40.784 26.7355 41.1902 26.7355 41.3235C26.7418 41.4124 26.7577 41.4727 26.7831 41.5044C26.8085 41.5362 26.8561 41.552 26.9259 41.552C27.1036 41.552 27.2686 41.4568 27.421 41.2664C27.5733 41.076 27.6971 40.8157 27.7923 40.4857C27.8113 40.4159 27.8304 40.3746 27.8494 40.3619C27.8685 40.3492 27.9192 40.3429 28.0018 40.3429C28.1287 40.3429 28.1922 40.3683 28.1922 40.419C28.1922 40.4254 28.1795 40.473 28.1541 40.5618C28.0525 40.9363 27.8907 41.2442 27.6685 41.4854C27.4527 41.7583 27.1956 41.8948 26.8973 41.8948H26.8497C26.5514 41.8948 26.3356 41.8091 26.2023 41.6377C26.069 41.4663 26.0024 41.2854 26.0024 41.095C26.0024 40.9935 26.1166 40.619 26.3451 39.9715C26.5736 39.3241 26.691 38.8386 26.6974 38.5148C26.6974 38.1404 26.5577 37.9531 26.2785 37.9531H26.2309C25.704 37.9531 25.247 38.2641 24.8598 38.8862L24.7932 39.0099L24.4695 40.2953C24.2664 41.1204 24.1489 41.5711 24.1172 41.6472C24.0347 41.8186 23.8951 41.9043 23.6983 41.9043C23.6094 41.9043 23.5333 41.8757 23.4698 41.8186C23.4063 41.7615 23.3714 41.7044 23.3651 41.6472C23.3651 41.5584 23.5967 40.5936 24.0601 38.7529L24.7646 35.9347C24.7646 35.8522 24.7424 35.8014 24.698 35.7823C24.6536 35.7633 24.5298 35.7474 24.3267 35.7347H24.1267C24.0886 35.6966 24.0696 35.6713 24.0696 35.6586C24.0696 35.6459 24.0759 35.5856 24.0886 35.4777C24.1204 35.3571 24.1616 35.2968 24.2124 35.2968Z" fill="black"/>
<path d="M40.6407 36.087C40.6407 35.9347 40.701 35.8014 40.8216 35.6871C40.9422 35.5729 41.0819 35.5126 41.2405 35.5062C41.3548 35.5062 41.45 35.5443 41.5262 35.6205C41.6023 35.6966 41.6436 35.7919 41.6499 35.9061C41.6499 36.0521 41.5865 36.1854 41.4595 36.306C41.3326 36.4266 41.1929 36.4901 41.0406 36.4964C40.9454 36.4964 40.8565 36.4647 40.774 36.4012C40.6915 36.3377 40.6471 36.233 40.6407 36.087ZM39.0888 39.0671C39.0888 39.0163 39.1174 38.9179 39.1745 38.7719C39.2316 38.6259 39.3078 38.4641 39.403 38.2863C39.4982 38.1086 39.6378 37.9468 39.8219 37.8008C40.006 37.6548 40.1964 37.585 40.3932 37.5913C40.6407 37.5913 40.847 37.6643 41.012 37.8103C41.1771 37.9563 41.2628 38.153 41.2691 38.4006C41.2691 38.5085 41.2247 38.6862 41.1358 38.9338C41.0469 39.1813 40.92 39.5145 40.755 39.9335C40.5899 40.3524 40.4567 40.711 40.3551 41.0093C40.3234 41.149 40.3075 41.2505 40.3075 41.314C40.3075 41.4727 40.3614 41.552 40.4693 41.552C40.5265 41.552 40.5868 41.5425 40.6502 41.5235C40.7137 41.5044 40.7867 41.46 40.8692 41.3902C40.9517 41.3203 41.0374 41.2093 41.1263 41.0569C41.2152 40.9046 41.2945 40.7174 41.3643 40.4952C41.3834 40.419 41.3992 40.3746 41.4119 40.3619C41.4246 40.3492 41.4786 40.3429 41.5738 40.3429C41.7007 40.3429 41.7642 40.3746 41.7642 40.4381C41.7642 40.4889 41.7356 40.5872 41.6785 40.7332C41.6214 40.8792 41.542 41.0411 41.4405 41.2188C41.3389 41.3965 41.1961 41.5552 41.012 41.6948C40.828 41.8345 40.6312 41.9043 40.4217 41.9043C40.2186 41.9043 40.0314 41.8377 39.86 41.7044C39.6886 41.5711 39.5998 41.368 39.5934 41.095C39.5934 40.9871 39.6093 40.8856 39.641 40.7903C39.6728 40.6951 39.8092 40.3333 40.0504 39.705C40.2916 39.0639 40.4313 38.6799 40.4693 38.5529C40.5074 38.426 40.5296 38.3022 40.536 38.1816C40.536 38.0293 40.482 37.9531 40.3741 37.9531H40.3551C40.1647 37.9531 39.9901 38.0578 39.8314 38.2673C39.6728 38.4768 39.5522 38.7433 39.4696 39.0671C39.4633 39.0734 39.4569 39.0829 39.4506 39.0956C39.4443 39.1083 39.4411 39.1178 39.4411 39.1242C39.4411 39.1305 39.4347 39.1369 39.422 39.1432C39.4093 39.1496 39.3998 39.1527 39.3935 39.1527C39.3871 39.1527 39.3744 39.1527 39.3554 39.1527C39.3364 39.1527 39.311 39.1527 39.2792 39.1527H39.1459C39.1078 39.1147 39.0888 39.0861 39.0888 39.0671Z" fill="black"/>
<path d="M43.1495 8.79975V7.99999H46.4533V25.1282H45.6535V8.79975H43.1495Z" fill="black"/>
<path d="M45.6535 43.3799V27.0515H46.4533V44.1797H43.1495V43.3799H45.6535Z" fill="black"/>
<g clip-path="url(#clip1)">
<path d="M45.6535 29.427V23.6839H46.4533V29.427H45.6535Z" fill="black"/>
</g>
</g>
<defs>
<filter id="filter0_d" x="0" y="0" width="53" height="53" filterUnits="userSpaceOnUse" color-interpolation-filters="sRGB">
<feFlood flood-opacity="0" result="BackgroundImageFix"/>
<feColorMatrix in="SourceAlpha" type="matrix" values="0 0 0 0 0 0 0 0 0 0 0 0 0 0 0 0 0 0 127 0" result="hardAlpha"/>
<feOffset dx="1" dy="1"/>
<feColorMatrix type="matrix" values="0 0 0 0 0 0 0 0 0 0 0 0 0 0 0 0 0 0 0.25 0"/>
<feBlend mode="normal" in2="BackgroundImageFix" result="effect1_dropShadow"/>
<feBlend mode="normal" in="SourceGraphic" in2="effect1_dropShadow" result="shape"/>
</filter>
<clipPath id="clip0">
<rect width="6.35047" height="3.82742" fill="white" transform="matrix(1 0 0 -1 2 28.4702)"/>
</clipPath>
<clipPath id="clip1">
<rect width="6.35047" height="3.82742" fill="white" transform="matrix(1 0 0 -1 43.1495 28.4702)"/>
</clipPath>
</defs>
</svg>
