<svg width="52" height="52" viewBox="0 0 52 52" fill="none" xmlns="http://www.w3.org/2000/svg">
<path d="M12 44H7V7H12V8.69979H8.57205V42.3002H12V44Z" fill="#454545"/>
<path d="M13.6575 19.9858C12.7945 19.9858 12 19.3171 12 17.7378C12 15.1626 14.1233 13 15.9178 13C16.2603 13 16.726 13.0854 17.1918 13.3415C17.5753 13.2988 18 13.2419 18.4247 13.1565L18.4658 13.2134C18.2466 14.0102 18.0959 14.6931 17.9315 15.4329L17.3014 18.25C17.274 18.378 17.2055 18.6199 17.2055 18.8049C17.2055 18.9756 17.2603 19.1037 17.4521 19.1037C17.7671 19.1037 18.3014 18.7195 18.6849 18.2215C18.8082 18.3069 18.9041 18.3923 19 18.5061C18.3836 19.3598 17.6849 20 16.7945 20C16.1233 20 15.8493 19.6159 15.8493 19.0752C15.8493 18.8191 15.9041 18.5203 16 18.1931H15.9315C15.2466 19.4167 14.4658 19.9858 13.6575 19.9858ZM16.8356 14.2378C16.4521 13.8821 16.0274 13.6402 15.589 13.6402C14.2192 13.6402 13.4658 15.9593 13.4658 17.624C13.4658 18.7622 13.8082 19.0894 14.2055 19.0894C14.9041 19.0894 15.9589 18.0793 16.5616 15.4329L16.8356 14.2378Z" fill="#454545"/>
<path d="M33 19.472L34.404 12.62C34.452 12.392 34.488 12.2 34.488 12.08C34.488 11.78 34.26 11.744 33.492 11.732C33.468 11.624 33.456 11.516 33.48 11.408C34.332 11.348 35.196 11.24 35.808 11L35.964 11.084C35.808 11.636 35.616 12.464 35.46 13.244L35.112 14.936L34.932 15.656H34.98C35.568 14.852 36.3 14.264 37.104 14.264C38.004 14.264 38.556 15.032 38.556 16.172C38.556 18.176 36.852 20.156 35.172 20.156C34.512 20.156 33.648 19.892 33 19.472ZM34.68 17.12L34.26 19.172C34.62 19.46 35.004 19.64 35.376 19.64C36.696 19.64 37.26 17.528 37.26 16.256C37.26 15.416 37.008 15.02 36.564 15.02C35.808 15.02 34.884 16.148 34.68 17.12Z" fill="#454545"/>
<path d="M14.4478 38C12.9104 38 12 37.0163 12 35.4766C12 32.9959 14.3284 31 16.3731 31C17.3134 31 18 31.4277 18 32.0122C18 32.4114 17.6866 32.7108 17.2388 32.7108C16.806 32.7108 16.2537 32.4257 16.1493 31.5845C14.6716 31.6415 13.5821 33.9226 13.5821 35.5051C13.5821 36.3177 13.8806 37.0306 14.9254 37.0306C15.7761 37.0306 16.5224 36.5601 17.0597 35.833C17.209 35.9043 17.3433 36.0041 17.4179 36.1039C16.8358 37.0876 15.9254 38 14.4478 38Z" fill="#454545"/>
<path d="M36.672 36.62H36.612C35.856 37.784 35.064 38.156 34.452 38.156C33.684 38.156 33 37.568 33 36.26C33 34.172 34.764 32.264 36.432 32.264C36.756 32.264 37.116 32.336 37.44 32.492L37.824 30.62C37.872 30.392 37.908 30.2 37.908 30.08C37.908 29.78 37.68 29.744 36.912 29.732C36.888 29.624 36.876 29.516 36.9 29.408C37.764 29.348 38.628 29.24 39.228 29L39.384 29.084C39.216 29.684 39.06 30.368 38.88 31.244L37.764 36.692C37.74 36.8 37.692 37.016 37.692 37.16C37.692 37.316 37.74 37.424 37.908 37.424C38.184 37.424 38.652 37.1 38.988 36.68C39.096 36.752 39.18 36.824 39.264 36.92C38.724 37.64 38.1 38.18 37.332 38.18C36.756 38.18 36.54 37.88 36.54 37.412C36.54 37.196 36.588 36.968 36.672 36.62ZM36.912 35.036L37.26 33.32C36.792 32.912 36.396 32.804 36.12 32.804C34.92 32.804 34.284 34.772 34.284 36.176C34.284 37.088 34.548 37.4 34.968 37.4C35.76 37.4 36.636 36.26 36.912 35.036Z" fill="#454545"/>
<path d="M41 44H46V7H41V8.69979H44.4279V42.3002H41V44Z" fill="#454545"/>
</svg>
