<svg width="52" height="52" viewBox="0 0 52 52" fill="none" xmlns="http://www.w3.org/2000/svg">
<path d="M25.088 17.9601L24.384 21.0001H22.784L24.096 15.3201C24.176 14.9841 24.208 14.8401 24.208 14.7121C24.208 14.4401 24.096 14.3281 23.92 14.3281C23.616 14.3281 23.088 14.6961 22.624 15.1921C22.48 15.0961 22.368 14.9841 22.256 14.8561C23.104 13.8481 24.048 13.3521 24.848 13.3521C25.568 13.3521 25.84 13.7841 25.84 14.2641C25.84 14.5201 25.76 14.8881 25.68 15.2721H25.728C26.544 13.9761 27.728 13.3201 28.752 13.3201C29.776 13.3201 30.336 13.9601 30.336 14.7761C30.336 15.9121 29.152 19.2241 29.152 19.8801C29.152 20.0241 29.216 20.1841 29.44 20.1841C29.808 20.1841 30.432 19.7521 30.88 19.1921C31.024 19.2881 31.136 19.3841 31.248 19.5121C30.528 20.4721 29.696 21.1921 28.672 21.1921C27.888 21.1921 27.536 20.7441 27.536 20.1521C27.536 19.0801 28.704 15.9441 28.704 14.9841C28.704 14.5681 28.528 14.2481 28.048 14.2481C27.12 14.2481 25.696 15.4161 25.088 17.9601Z" fill="#454545"/>
<path d="M24.176 40H22.608L24.624 30.128C24.688 29.824 24.736 29.568 24.736 29.408C24.736 29.008 24.432 28.96 23.408 28.944C23.392 28.864 23.376 28.768 23.376 28.672C23.376 28.624 23.376 28.576 23.392 28.512C24.544 28.432 25.696 28.288 26.496 27.968L26.704 28.08C26.448 28.992 26.224 30 26.032 30.96L25.536 33.36L25.232 34.608H25.312C26.352 33.12 27.488 32.32 28.688 32.32C29.696 32.32 30.048 32.912 30.048 33.52C30.048 34.528 29.136 35.376 26.928 36.24C27.888 38.912 28.096 39.088 28.368 39.088C28.752 39.088 29.248 38.72 29.696 38.192C29.84 38.288 29.952 38.384 30.064 38.512C29.264 39.584 28.368 40.192 27.616 40.192C26.704 40.192 26.368 39.408 25.328 36.288C28 35.36 28.496 34.416 28.496 33.808C28.496 33.504 28.368 33.296 28 33.296C26.992 33.296 25.216 34.944 24.848 36.752L24.176 40Z" fill="#454545"/>
<path d="M18.5785 11L19 11.774C16.7969 14.9755 15.6667 20.2175 15.6667 27.5C15.6667 34.7825 16.7969 40.0597 19 43.2612L18.5785 44C15.4943 39.9542 14 34.4307 14 27.4296C14 20.3582 15.5134 14.7996 18.5785 11Z" fill="#454545"/>
<path d="M33.4215 11L33 11.774C35.2031 14.9755 36.3333 20.2175 36.3333 27.5C36.3333 34.7825 35.2031 40.0597 33 43.2612L33.4215 44C36.5057 39.9542 38 34.4307 38 27.4296C38 20.3582 36.4866 14.7996 33.4215 11Z" fill="#454545"/>
</svg>
