<svg width="52" height="52" viewBox="0 0 52 52" fill="none" xmlns="http://www.w3.org/2000/svg">
<path d="M12 15.0015H22V13.0015H12V13.0005H10V37.7192H12V15.0015Z" fill="#454545"/>
<path d="M40 15.0005H30V13.0005H42V38.061H40V15.0005Z" fill="#454545"/>
<path d="M33.4774 31.4498C33.7261 31.5962 34.117 31.9255 34.2946 32.2181C32.6956 34.3767 30.9545 35.8401 29.1068 35.8401C26.7616 35.8401 26.122 34.4498 24.8428 29.3645C22.0713 33.6816 20.4368 35.8401 18.1271 35.8401C16.3149 35.8401 15.32 34.523 15.32 33.3889C15.32 32.3645 16.1017 31.523 17.2388 31.523C18.0916 31.523 19.0154 32.0352 19.6906 33.3889C21.0763 32.4742 23.0662 29.6206 24.3454 27.3889C22.8175 21.0962 22.6043 20.2547 21.3251 20.2547C20.4012 20.2547 19.2997 21.3157 18.6956 21.9376C18.4469 21.7547 18.0916 21.462 17.8784 21.1694C19.2642 19.4864 21.1119 17.9498 23.1017 17.9498C25.3403 17.9498 25.9444 19.1937 27.0814 23.8401C29.5687 19.962 31.4164 17.8401 33.655 17.8401C35.2185 17.8401 36.32 18.8645 36.32 20.1084C36.32 21.2425 35.5027 22.0474 34.4012 22.0474C33.655 22.0474 32.589 21.645 32.1271 20.1816C30.919 20.9498 29.3911 22.8157 27.5434 25.7425C27.5789 25.8523 27.6144 25.9986 27.6499 26.145C29.2134 32.6937 29.4977 33.5352 30.7413 33.5352C31.7007 33.5352 32.6601 32.4376 33.4774 31.4498Z" fill="#454545"/>
</svg>
