<svg width="53" height="53" viewBox="0 0 53 53" fill="none" xmlns="http://www.w3.org/2000/svg">
<g filter="url(#filter0_d)">
<rect width="52" height="52" fill="white"/>
<path d="M11.96 25.3954C11.96 21.8328 13.328 18.7097 16.064 16.0261C18.8 13.3426 22.088 12.0008 25.928 12.0008C29.768 12.0008 33.056 13.2963 35.792 15.8873C38.528 18.4783 39.92 21.694 39.968 25.5342C39.968 29.1432 38.624 32.2894 35.936 34.973C33.248 37.6565 29.936 38.9983 26 38.9983C22.16 38.9983 18.872 37.6796 16.136 35.0424C13.4 32.4051 12.008 29.1894 11.96 25.3954ZM25.64 14.8463C22.904 14.8463 20.432 15.8179 18.224 17.7612C16.016 19.7045 14.912 22.2723 14.912 25.4648C14.912 28.5648 15.992 31.1096 18.152 33.0991C20.312 35.0886 22.928 36.1065 26 36.1528C27.632 36.1528 29.144 35.8521 30.536 35.2506C31.928 34.6491 32.912 34.0476 33.488 33.4461C34.064 32.8446 34.568 32.2663 35 31.7111C36.344 29.9991 37.016 27.9171 37.016 25.4648C37.016 22.5499 35.984 20.0515 33.92 17.9694C31.856 15.8873 29.096 14.8463 25.64 14.8463Z" fill="black"/>
</g>
<defs>
<filter id="filter0_d" x="0" y="0" width="53" height="53" filterUnits="userSpaceOnUse" color-interpolation-filters="sRGB">
<feFlood flood-opacity="0" result="BackgroundImageFix"/>
<feColorMatrix in="SourceAlpha" type="matrix" values="0 0 0 0 0 0 0 0 0 0 0 0 0 0 0 0 0 0 127 0" result="hardAlpha"/>
<feOffset dx="1" dy="1"/>
<feColorMatrix type="matrix" values="0 0 0 0 0 0 0 0 0 0 0 0 0 0 0 0 0 0 0.25 0"/>
<feBlend mode="normal" in2="BackgroundImageFix" result="effect1_dropShadow"/>
<feBlend mode="normal" in="SourceGraphic" in2="effect1_dropShadow" result="shape"/>
</filter>
</defs>
</svg>
