<svg width="52" height="52" viewBox="0 0 52 52" fill="none" xmlns="http://www.w3.org/2000/svg">
<rect width="52" height="52" rx="4" fill="#D0F0FD"/>
<path fill-rule="evenodd" clip-rule="evenodd" d="M12.0002 14C12.0002 13.4477 11.5524 13 11.0002 13C10.4479 13 10.0002 13.4477 10.0002 14V37.9819C10.0001 37.9879 10 37.994 10 38C10 38.5523 10.4477 39 11 39H11.0002H21C21.5523 39 22 38.5523 22 38C22 37.4477 21.5523 37 21 37H12.0002V14Z" fill="#111928"/>
<path fill-rule="evenodd" clip-rule="evenodd" d="M40 14C40 13.4477 40.4477 13 41 13C41.5523 13 42 13.4477 42 14V38C42 38.5523 41.5523 39 41 39H31C30.4477 39 30 38.5523 30 38C30 37.4477 30.4477 37 31 37H40V14Z" fill="#111928"/>
<path d="M30.3216 18.1662H33.4287L26.966 26.6674L28.1378 29.9801C28.5284 31.0804 28.9782 31.7768 29.4872 32.0697C29.9962 32.3627 30.6235 32.5091 31.3692 32.5091C33.0972 32.5091 34.0204 31.8362 34.1389 30.4906H34.7958C34.7722 31.67 34.4288 32.5961 33.766 33.2689C33.1032 33.9418 32.2095 34.2821 31.0851 34.29C30.1027 34.29 29.3215 34.0802 28.7415 33.6608C28.1614 33.2413 27.6466 32.4102 27.1968 31.1674L26.025 27.8666L21.2846 34.2425H18.1775L25.0485 25.1121L24.0543 22.31C23.6873 21.2889 23.3205 20.6002 22.9535 20.244C22.5865 19.8878 22.0125 19.7058 21.2313 19.6979C19.8465 19.6979 18.9884 20.4023 18.6569 21.8113H18C18 20.7032 18.2841 19.7929 18.8522 19.0805C19.4204 18.3681 20.2784 18.008 21.4266 18C22.409 18 23.143 18.2414 23.6282 18.7243C24.1134 19.2071 24.5869 20.0817 25.0485 21.3482L25.9718 23.9129L30.3216 18.1662Z" fill="black"/>
</svg>
