<svg width="52" height="52" viewBox="0 0 52 52" fill="none" xmlns="http://www.w3.org/2000/svg">
<rect width="52" height="52" rx="4" fill="#D0F0FD"/>
<path d="M33.8295 19.75C30.3795 19.75 27.8895 21.73 25.9995 24.1C24.1095 21.73 21.6195 19.75 18.1395 19.75C15.2295 19.75 12.0195 21.76 12.0195 25.72C12.0195 29.71 15.2295 31.72 18.1395 31.72C21.6195 31.72 24.1095 29.74 25.9995 27.37C27.8895 29.74 30.3795 31.72 33.8295 31.72C36.7395 31.72 39.9495 29.71 39.9495 25.72C39.9495 21.76 36.7395 19.75 33.8295 19.75ZM18.1095 29.65C16.0095 29.65 14.0895 28.24 14.0895 25.72C14.0895 23.23 16.0095 21.79 18.1095 21.79C20.8395 21.79 22.9695 23.44 24.6795 25.72C22.9695 28.03 20.8395 29.65 18.1095 29.65ZM33.8895 29.65C31.1295 29.65 29.0295 28.03 27.3195 25.72C29.0295 23.44 31.1295 21.79 33.8895 21.79C35.9595 21.79 37.8795 23.23 37.8795 25.72C37.8795 28.24 35.9595 29.65 33.8895 29.65Z" fill="black"/>
</svg>
