<svg width="53" height="53" viewBox="0 0 53 53" fill="none" xmlns="http://www.w3.org/2000/svg">
<g filter="url(#filter0_d_535_1650)">
<rect width="52" height="52" fill="none"/>
<path d="M33.83 19.75C30.38 19.75 27.89 21.73 26 24.1C24.11 21.73 21.62 19.75 18.14 19.75C15.23 19.75 12.02 21.76 12.02 25.72C12.02 29.71 15.23 31.72 18.14 31.72C21.62 31.72 24.11 29.74 26 27.37C27.89 29.74 30.38 31.72 33.83 31.72C36.74 31.72 39.95 29.71 39.95 25.72C39.95 21.76 36.74 19.75 33.83 19.75ZM18.11 29.65C16.01 29.65 14.09 28.24 14.09 25.72C14.09 23.23 16.01 21.79 18.11 21.79C20.84 21.79 22.97 23.44 24.68 25.72C22.97 28.03 20.84 29.65 18.11 29.65ZM33.89 29.65C31.13 29.65 29.03 28.03 27.32 25.72C29.03 23.44 31.13 21.79 33.89 21.79C35.96 21.79 37.88 23.23 37.88 25.72C37.88 28.24 35.96 29.65 33.89 29.65Z" fill="black"/>
</g>
<defs>
<filter id="filter0_d_535_1650" x="0" y="0" width="53" height="53" filterUnits="userSpaceOnUse" color-interpolation-filters="sRGB">
<feFlood flood-opacity="0" result="BackgroundImageFix"/>
<feColorMatrix in="SourceAlpha" type="matrix" values="0 0 0 0 0 0 0 0 0 0 0 0 0 0 0 0 0 0 127 0" result="hardAlpha"/>
<feOffset dx="1" dy="1"/>
<feColorMatrix type="matrix" values="0 0 0 0 0 0 0 0 0 0 0 0 0 0 0 0 0 0 0.25 0"/>
<feBlend mode="normal" in2="BackgroundImageFix" result="effect1_dropShadow_535_1650"/>
<feBlend mode="normal" in="SourceGraphic" in2="effect1_dropShadow_535_1650" result="shape"/>
</filter>
</defs>
</svg>
