<svg width="52" height="52" viewBox="0 0 52 52" fill="none" xmlns="http://www.w3.org/2000/svg">
<path d="M35.0711 39.88C34.0351 39.88 31.9911 39.768 30.5911 39.768C29.5831 39.768 27.3431 39.824 26.3911 39.824C26.3911 39.572 26.4191 39.208 26.5311 38.928C28.9111 38.648 29.0511 38.732 29.4431 36.8L32.0191 23.528C32.1591 22.828 32.2431 22.408 32.2431 22.072C32.2431 21.232 31.7391 21.204 29.8071 21.064C29.8351 20.784 29.8911 20.476 29.9751 20.168C31.0391 20.168 33.0271 20.224 34.0351 20.224C34.7631 20.224 36.8911 20.196 37.4511 20.196C40.5311 20.196 43.6391 21.036 43.6391 24.452C43.6391 27.644 40.9231 28.96 38.3751 29.548V29.604C40.5871 29.912 42.9671 31.116 42.9671 34.308C42.9671 38.62 38.5711 39.88 35.0711 39.88ZM35.5191 21.372L34.0071 29.128C34.5111 29.156 35.1551 29.156 35.4631 29.156C38.7111 29.156 40.4751 27.364 40.4751 24.676C40.4751 22.156 38.9071 21.344 36.8911 21.344C36.6111 21.344 36.1351 21.344 35.5191 21.372ZM33.7831 30.332L32.2151 38.48C33.0831 38.648 34.3151 38.76 35.0151 38.76C37.9551 38.76 39.6631 36.968 39.6631 34.14C39.6631 31.172 37.8151 30.276 35.1271 30.276C34.8471 30.276 34.2591 30.276 33.7831 30.332Z" fill="#454545"/>
<path d="M20.4201 36.128L19.8601 32.516H13.7001L11.7681 36.044C11.2641 36.968 10.8721 37.752 10.8721 38.144C10.8721 38.704 11.4041 38.76 12.9161 38.928C12.9161 39.208 12.8601 39.544 12.7481 39.824C11.9641 39.796 9.86406 39.768 9.02406 39.768C7.96006 39.768 7.12006 39.796 6.00006 39.824C6.00006 39.544 6.05606 39.236 6.16806 38.956C8.38006 38.788 8.60406 38.732 10.9841 34.644C13.0841 31.004 16.8081 24.424 19.2441 20.224C19.7481 20.112 20.1681 20.028 20.5881 20L23.4721 35.988C23.9761 38.704 24.2281 38.704 26.3281 38.928C26.3281 39.208 26.2721 39.544 26.1601 39.824C25.2641 39.796 23.8921 39.768 22.6601 39.768C21.5681 39.768 19.5801 39.796 18.0681 39.824C18.0961 39.544 18.1241 39.208 18.2361 38.928C20.2241 38.732 20.6161 38.704 20.6161 37.528C20.6161 37.332 20.5881 37.024 20.4201 36.128ZM14.3721 31.34H19.6641L18.4881 23.836L14.3721 31.34Z" fill="#454545"/>
<path d="M41.3545 9.79395L43.3555 12.4023H43.4033V12.4639L43.6562 12.7939L44.123 13.4023L43.6562 14.0107L43.4033 14.3398V14.4023H43.3555L41.3545 17.0107L40.7461 17.8047L39.1592 16.5869L39.7686 15.7939L40.8359 14.4023H11.2871L12.3545 15.7939L12.9639 16.5869L11.377 17.8047L10.7686 17.0107L8.4668 14.0107L8 13.4023L8.4668 12.7939L10.7686 9.79395L11.377 9L12.9639 10.2178L12.3545 11.0107L11.2871 12.4023H40.8359L39.7686 11.0107L39.1592 10.2178L40.7461 9L41.3545 9.79395Z" fill="#454545"/>
</svg>
