<svg width="53" height="53" viewBox="0 0 53 53" fill="none" xmlns="http://www.w3.org/2000/svg">
<g filter="url(#filter0_d)">
<rect width="52" height="52" fill="white"/>
<path d="M24.269 34.8374C24.269 35.187 24.161 35.4783 23.945 35.7114C23.729 35.9445 23.4658 36.061 23.1554 36.061H23.0136C23.6345 37.2118 24.4579 37.7871 25.4838 37.7871C26.4287 37.7871 27.1171 37.3501 27.5491 36.4762C27.8055 35.9955 27.9338 35.0632 27.9338 33.6794C27.9338 32.179 27.7515 31.1666 27.3871 30.6422C27.0361 30.1615 26.6447 29.9212 26.2127 29.9212H26.0912C25.0384 29.9212 24.242 30.4165 23.702 31.407C23.648 31.509 23.6008 31.5672 23.5603 31.5818C23.5198 31.5964 23.4186 31.6109 23.2566 31.6255C23.0271 31.6255 22.8989 31.5818 22.8719 31.4944C22.8449 31.4361 22.8314 30.1615 22.8314 27.6707V24.852C22.8314 24.1237 22.8651 23.7595 22.9326 23.7595C22.9596 23.7304 22.9866 23.7158 23.0136 23.7158C23.0271 23.7158 23.1689 23.7741 23.4388 23.8906C23.7088 24.0072 24.08 24.1237 24.5524 24.2402C25.0249 24.3568 25.5311 24.415 26.071 24.415C27.0294 24.415 27.9473 24.2111 28.8246 23.8032C28.9326 23.745 29.0204 23.7158 29.0879 23.7158C29.1958 23.7158 29.2498 23.8469 29.2498 24.1091V24.3932C28.143 25.8061 26.7594 26.5126 25.0991 26.5126C24.6807 26.5126 24.3027 26.4689 23.9653 26.3815L23.7628 26.3378V30.096C24.0192 29.8921 24.2217 29.7318 24.3702 29.6153C24.5187 29.4988 24.7617 29.3822 25.0991 29.2657C25.4366 29.1492 25.7808 29.0909 26.1317 29.0909C27.2251 29.0909 28.1497 29.5643 28.9056 30.5111C29.6615 31.458 30.0395 32.5796 30.0395 33.876C30.0395 35.2161 29.6075 36.3596 28.7437 37.3064C27.8798 38.2533 26.8269 38.734 25.5851 38.7485C24.4917 38.7485 23.6143 38.3552 22.9529 37.5686C22.2915 36.782 21.9608 35.8935 21.9608 34.903C21.9608 34.5534 22.035 34.2766 22.1835 34.0727C22.332 33.8687 22.4872 33.7376 22.6492 33.6794C22.8111 33.6211 22.9664 33.592 23.1149 33.592C23.4523 33.592 23.729 33.7158 23.945 33.9634C24.161 34.2111 24.269 34.5024 24.269 34.8374Z" fill="black"/>
<path d="M21.2115 11.6991C21.2655 11.3786 21.3195 11.182 21.3735 11.1092C21.4274 11.0363 21.5422 10.9999 21.7177 10.9999C21.9876 10.9999 22.1226 11.08 22.1226 11.2403C22.1226 11.3422 22.0889 11.5243 22.0214 11.7865C21.8864 12.3255 21.7177 12.828 21.5152 13.2941C21.3127 13.7603 21.0967 14.1536 20.8673 14.474C20.6378 14.7945 20.4286 15.064 20.2396 15.2825C20.0506 15.501 19.8481 15.7049 19.6322 15.8943C19.4162 16.0836 19.2812 16.2074 19.2272 16.2657H32.793C31.3622 15.115 30.4241 13.6219 29.9786 11.7865C29.9111 11.5243 29.8774 11.3422 29.8774 11.2403C29.8774 11.08 30.0124 10.9999 30.2823 10.9999C30.4038 10.9999 30.4848 11.0072 30.5253 11.0218C30.5658 11.0363 30.6063 11.0655 30.6468 11.1092C30.6873 11.1529 30.7075 11.2184 30.7075 11.3058C30.7075 11.3932 30.7278 11.5097 30.7683 11.6554C30.8088 11.8011 30.8628 11.9831 30.9303 12.2016C31.2272 13.1776 31.7199 14.0516 32.4083 14.8236C33.0967 15.5957 33.8999 16.1419 34.8178 16.4624C34.9393 16.5061 35 16.5862 35 16.7027C35 16.7901 34.9663 16.8557 34.8988 16.8994C34.8313 16.9431 34.6693 17.0159 34.4128 17.1179C34.1564 17.2198 33.8999 17.3582 33.6434 17.533C33.09 17.9117 32.6108 18.3487 32.2058 18.844C31.8009 19.3393 31.4972 19.8272 31.2947 20.3079C31.0922 20.7886 30.9505 21.1528 30.8695 21.4004C30.7885 21.6481 30.7345 21.8738 30.7075 22.0778C30.6805 22.2234 30.6468 22.3108 30.6063 22.34C30.5658 22.3691 30.4578 22.391 30.2823 22.4055C30.0124 22.4055 29.8774 22.3254 29.8774 22.1652C29.8774 22.0632 29.9111 21.8811 29.9786 21.6189C30.4106 19.7835 31.3487 18.2905 32.793 17.1397H19.2272C19.2542 17.1688 19.369 17.2708 19.5714 17.4456C19.7739 17.6204 19.9696 17.8171 20.1586 18.0356C20.3476 18.254 20.5703 18.5235 20.8268 18.844C21.0832 19.1645 21.306 19.5723 21.4949 20.0676C21.6839 20.5628 21.8594 21.08 22.0214 21.6189C22.0889 21.8811 22.1226 22.0632 22.1226 22.1652C22.1226 22.3254 21.9876 22.4055 21.7177 22.4055C21.6232 22.4055 21.5557 22.4055 21.5152 22.4055C21.4747 22.4055 21.4342 22.3764 21.3937 22.3181C21.3532 22.2599 21.3195 22.1943 21.2925 22.1215C21.2655 22.0486 21.2385 21.9103 21.2115 21.7063C20.9685 20.643 20.5096 19.6961 19.8346 18.8658C19.1597 18.0356 18.3363 17.4165 17.3645 17.0086C17.162 16.9212 17.0405 16.8411 17 16.7683C17 16.6663 17.027 16.5935 17.081 16.5498C17.135 16.5061 17.2295 16.4551 17.3645 16.3968C18.3228 15.9889 19.1395 15.3699 19.8144 14.5396C20.4893 13.7093 20.955 12.7625 21.2115 11.6991Z" fill="black"/>
<rect x="20" y="23" width="12" height="18" fill="#C4C4C4"/>
</g>
<defs>
<filter id="filter0_d" x="0" y="0" width="53" height="53" filterUnits="userSpaceOnUse" color-interpolation-filters="sRGB">
<feFlood flood-opacity="0" result="BackgroundImageFix"/>
<feColorMatrix in="SourceAlpha" type="matrix" values="0 0 0 0 0 0 0 0 0 0 0 0 0 0 0 0 0 0 127 0" result="hardAlpha"/>
<feOffset dx="1" dy="1"/>
<feColorMatrix type="matrix" values="0 0 0 0 0 0 0 0 0 0 0 0 0 0 0 0 0 0 0.25 0"/>
<feBlend mode="normal" in2="BackgroundImageFix" result="effect1_dropShadow"/>
<feBlend mode="normal" in="SourceGraphic" in2="effect1_dropShadow" result="shape"/>
</filter>
</defs>
</svg>
