<svg width="53" height="53" viewBox="0 0 53 53" fill="none" xmlns="http://www.w3.org/2000/svg">
<g filter="url(#filter0_d)">
<rect width="52" height="52" fill="white"/>
<path d="M24.1384 34.5127C24.1384 35.0032 23.9749 35.412 23.6479 35.739C23.3209 36.066 22.9224 36.2295 22.4523 36.2295H22.2377C23.1778 37.8441 24.4245 38.6514 25.9778 38.6514C27.4085 38.6514 28.4508 38.0382 29.1048 36.812C29.4931 36.1375 29.6873 34.8295 29.6873 32.8879C29.6873 30.7828 29.4114 29.3624 28.8595 28.6266C28.3282 27.9522 27.7355 27.615 27.0814 27.615H26.8975C25.3034 27.615 24.0975 28.3098 23.28 29.6996C23.1983 29.8427 23.1267 29.9244 23.0654 29.9449C23.0041 29.9653 22.8508 29.9857 22.6056 30.0062C22.2581 30.0062 22.064 29.9449 22.0231 29.8222C21.9822 29.7405 21.9618 27.9522 21.9618 24.4573V20.5026C21.9618 19.4807 22.0129 18.9698 22.1151 18.9698C22.1559 18.9289 22.1968 18.9085 22.2377 18.9085C22.2581 18.9085 22.4727 18.9902 22.8815 19.1537C23.2902 19.3172 23.8523 19.4807 24.5676 19.6442C25.2829 19.8077 26.0493 19.8895 26.8669 19.8895C28.3179 19.8895 29.7077 19.6034 31.0362 19.0311C31.1997 18.9493 31.3325 18.9085 31.4347 18.9085C31.5982 18.9085 31.6799 19.0924 31.6799 19.4603V19.8588C30.004 21.8413 27.9092 22.8325 25.3953 22.8325C24.7618 22.8325 24.1895 22.7712 23.6786 22.6486L23.372 22.5873V27.8602C23.7603 27.5741 24.0669 27.3493 24.2917 27.1858C24.5165 27.0223 24.8844 26.8588 25.3953 26.6953C25.9063 26.5318 26.4274 26.45 26.9588 26.45C28.6143 26.45 30.0143 27.1142 31.1588 28.4427C32.3033 29.7711 32.8756 31.3449 32.8756 33.1638C32.8756 35.0441 32.2215 36.6485 30.9135 37.9769C29.6055 39.3054 28.0114 39.9798 26.1311 40.0002C24.4756 40.0002 23.1472 39.4484 22.1457 38.3448C21.1443 37.2411 20.6436 35.9944 20.6436 34.6047C20.6436 34.1142 20.756 33.7259 20.9808 33.4397C21.2056 33.1536 21.4406 32.9697 21.6859 32.8879C21.9311 32.8062 22.1662 32.7653 22.391 32.7653C22.9019 32.7653 23.3209 32.939 23.6479 33.2864C23.9749 33.6339 24.1384 34.0426 24.1384 34.5127Z" fill="black"/>
<path d="M30.6685 11.6132C30.6685 11.4497 30.7196 11.3066 30.8218 11.184C30.924 11.0614 31.0773 11.0001 31.2816 11.0001C31.4247 11.0001 31.5473 11.0511 31.6495 11.1533C31.7517 11.2351 31.8539 11.4292 31.9561 11.7358C32.1605 12.492 32.5794 13.0745 33.213 13.4832C33.4378 13.6263 33.5502 13.8102 33.5502 14.0351C33.5502 14.219 33.5196 14.3416 33.4583 14.4029C33.397 14.4643 33.2539 14.5562 33.0291 14.6789C32.1502 15.1285 31.3838 15.7723 30.7298 16.6102C30.6889 16.6511 30.6379 16.7124 30.5765 16.7942C30.5152 16.8759 30.4641 16.9372 30.4233 16.9781C30.3824 17.019 30.3313 17.0394 30.27 17.0394C30.2087 17.0394 30.1371 17.0496 30.0554 17.0701C29.9123 17.0701 29.7795 17.019 29.6568 16.9168C29.5342 16.8146 29.4627 16.6613 29.4422 16.4569C29.4422 16.0686 29.9225 15.4657 30.8831 14.6482H25.6408L20.3985 14.6175C20.1328 14.4336 20 14.2394 20 14.0351C20 13.892 20.1328 13.6876 20.3985 13.4219H31.4043C30.9138 12.6453 30.6685 12.0424 30.6685 11.6132Z" fill="black"/>
<rect x="19" y="19" width="15" height="21" fill="#C4C4C4"/>
</g>
<defs>
<filter id="filter0_d" x="0" y="0" width="53" height="53" filterUnits="userSpaceOnUse" color-interpolation-filters="sRGB">
<feFlood flood-opacity="0" result="BackgroundImageFix"/>
<feColorMatrix in="SourceAlpha" type="matrix" values="0 0 0 0 0 0 0 0 0 0 0 0 0 0 0 0 0 0 127 0" result="hardAlpha"/>
<feOffset dx="1" dy="1"/>
<feColorMatrix type="matrix" values="0 0 0 0 0 0 0 0 0 0 0 0 0 0 0 0 0 0 0.25 0"/>
<feBlend mode="normal" in2="BackgroundImageFix" result="effect1_dropShadow"/>
<feBlend mode="normal" in="SourceGraphic" in2="effect1_dropShadow" result="shape"/>
</filter>
</defs>
</svg>
