<svg width="52" height="52" viewBox="0 0 52 52" fill="none" xmlns="http://www.w3.org/2000/svg">
<rect width="52" height="52" rx="4" fill="#D0F0FD"/>
<path d="M18.5599 34.211C18.5599 34.5403 18.8755 34.7323 19.5065 34.7872C19.7534 34.7872 19.8769 34.8626 19.8769 35.0136C19.8769 35.0273 19.8632 35.1164 19.8358 35.281C19.7946 35.4731 19.7534 35.5966 19.7122 35.6514C19.6711 35.7063 19.5819 35.7337 19.4448 35.7337C19.4173 35.7337 19.3351 35.7337 19.1978 35.7337C19.0606 35.7337 18.8274 35.7269 18.4982 35.7132C18.1689 35.6994 17.73 35.6926 17.1812 35.6926C16.2072 35.6926 15.583 35.7063 15.3087 35.7337H15.144C15.048 35.6377 15 35.5623 15 35.5074C15.0274 35.137 15.1166 34.8969 15.2675 34.7872H15.5556C16.5159 34.746 17.2155 34.403 17.6545 33.7583C17.7368 33.676 18.9784 31.5839 21.379 27.482C23.7797 23.3802 25.0007 21.3019 25.0418 21.247C25.1378 21.0823 25.3025 21 25.5357 21H25.7004H26.0501C26.1325 21.1235 26.1737 21.1921 26.1737 21.2058L26.7498 27.8525C27.1339 32.2835 27.3397 34.5197 27.3671 34.5609C27.4357 34.7117 27.8815 34.7872 28.7046 34.7872C29.0476 34.7872 29.2191 34.8557 29.2191 34.993C29.2191 35.0204 29.1985 35.1164 29.1573 35.281C29.1162 35.4868 29.0819 35.6103 29.0545 35.6514C29.027 35.6926 28.931 35.72 28.7664 35.7337C28.7252 35.7337 28.6292 35.7337 28.4783 35.7337C28.3274 35.7337 28.0599 35.7269 27.6758 35.7132C27.2917 35.6994 26.7909 35.6926 26.1737 35.6926C24.8841 35.6926 24.0404 35.7063 23.6426 35.7337H23.3957C23.3133 35.6514 23.2722 35.5897 23.2722 35.5486C23.2722 35.5074 23.2859 35.384 23.3133 35.1782C23.3682 34.9999 23.4094 34.8901 23.4368 34.8489L23.5191 34.7872H23.9307C24.6714 34.746 25.1104 34.6294 25.2477 34.4373L25.0007 31.3507H20.1032L19.4036 32.5442C18.8411 33.4908 18.5599 34.0464 18.5599 34.211ZM24.8978 30.3835C24.8978 30.2327 24.8155 29.1626 24.6508 27.1733C24.4863 25.1842 24.3903 24.1827 24.3628 24.169L23.8072 25.0538C23.5877 25.4242 23.1556 26.1582 22.5109 27.2557L20.6588 30.3835L22.7783 30.4041C24.1913 30.4041 24.8978 30.3973 24.8978 30.3835Z" fill="black"/>
<path d="M34.4668 22.6253C34.0964 22.6253 33.8769 22.6184 33.8083 22.6047C33.7397 22.591 33.7054 22.5156 33.7054 22.3784C33.7054 22.008 33.7808 21.7816 33.9318 21.6993C33.9455 21.6856 34.8372 21.6787 36.6069 21.6787C40.1599 21.6787 42.0325 21.6925 42.2245 21.7199C43.0888 21.8571 43.809 22.1657 44.3852 22.6459C44.9614 23.126 45.2563 23.7571 45.2701 24.5391C45.2701 25.4171 44.8722 26.2059 44.0765 26.9055C43.2808 27.6052 42.3686 28.0785 41.3397 28.3254L41.134 28.3872C42.0119 28.5106 42.7321 28.8261 43.2945 29.3337C43.8571 29.8413 44.1451 30.4724 44.1588 31.2268C44.1588 32.2284 43.665 33.1955 42.6773 34.1283C41.6895 35.0612 40.4754 35.5894 39.035 35.7129C38.939 35.7266 37.4917 35.7334 34.6931 35.7334C31.9494 35.7334 30.557 35.7197 30.5159 35.6923C30.461 35.6511 30.4336 35.5963 30.4336 35.5276C30.4336 35.4316 30.4473 35.3356 30.4747 35.2396C30.5433 34.9789 30.6119 34.8349 30.6805 34.8074C30.7354 34.7937 30.8383 34.7869 30.9892 34.7869H31.1126C31.483 34.7869 31.8946 34.7663 32.3473 34.7251C32.5394 34.6839 32.6697 34.6016 32.7383 34.4782C32.7794 34.4233 33.2733 32.5164 34.2198 28.7576C35.1664 24.9987 35.6397 23.0163 35.6397 22.8106C35.6397 22.7145 35.2488 22.6527 34.4668 22.6253ZM43.0682 24.5391C43.0682 24.1275 42.9654 23.7434 42.7595 23.3867C42.5538 23.03 42.2177 22.7968 41.7513 22.687C41.6553 22.6596 41.0242 22.639 39.8581 22.6253C39.5837 22.6253 39.2957 22.6253 38.9939 22.6253C38.692 22.6253 38.452 22.6322 38.2736 22.6459H38.0062C37.8003 22.6596 37.6701 22.7282 37.6152 22.8517C37.5878 22.9066 37.3682 23.7297 36.9567 25.3211C36.9567 25.3622 36.9498 25.4034 36.9361 25.4445L36.2982 28.0373H37.965C39.0762 28.0373 39.714 28.0236 39.8787 27.9962C40.7018 27.859 41.4357 27.4612 42.0805 26.8026C42.7253 26.1441 43.0545 25.3896 43.0682 24.5391ZM41.957 31.0211C41.957 30.4175 41.7993 29.9167 41.4837 29.5189C41.1683 29.1211 40.7567 28.8879 40.2491 28.8193C40.1668 28.8056 39.5975 28.7987 38.5412 28.7987C36.9224 28.7987 36.1061 28.8056 36.0924 28.8193C36.0924 28.8467 35.9758 29.3474 35.7426 30.3214C35.5094 31.2955 35.2694 32.2626 35.0224 33.2229L34.652 34.6633C34.652 34.7183 34.7343 34.7457 34.8989 34.7457C35.0635 34.7457 35.6191 34.7594 36.5657 34.7869C37.7866 34.7869 38.4452 34.78 38.5412 34.7663C39.3917 34.6702 40.1736 34.2724 40.887 33.5728C41.6004 32.8731 41.957 32.0225 41.957 31.0211Z" fill="black"/>
<path d="M18.5599 34.211C18.5599 34.5403 18.8755 34.7323 19.5065 34.7872C19.7534 34.7872 19.8769 34.8626 19.8769 35.0136C19.8769 35.0273 19.8632 35.1164 19.8358 35.281C19.7946 35.4731 19.7534 35.5966 19.7122 35.6514C19.6711 35.7063 19.5819 35.7337 19.4448 35.7337C19.4173 35.7337 19.3351 35.7337 19.1978 35.7337C19.0606 35.7337 18.8274 35.7269 18.4982 35.7132C18.1689 35.6994 17.73 35.6926 17.1812 35.6926C16.2072 35.6926 15.583 35.7063 15.3087 35.7337H15.144C15.048 35.6377 15 35.5623 15 35.5074C15.0274 35.137 15.1166 34.8969 15.2675 34.7872H15.5556C16.5159 34.746 17.2155 34.403 17.6545 33.7583C17.7368 33.676 18.9784 31.5839 21.379 27.482C23.7797 23.3802 25.0007 21.3019 25.0418 21.247C25.1378 21.0823 25.3025 21 25.5357 21H25.7004H26.0501C26.1325 21.1235 26.1737 21.1921 26.1737 21.2058L26.7498 27.8525C27.1339 32.2835 27.3397 34.5197 27.3671 34.5609C27.4357 34.7117 27.8815 34.7872 28.7046 34.7872C29.0476 34.7872 29.2191 34.8557 29.2191 34.993C29.2191 35.0204 29.1985 35.1164 29.1573 35.281C29.1162 35.4868 29.0819 35.6103 29.0545 35.6514C29.027 35.6926 28.931 35.72 28.7664 35.7337C28.7252 35.7337 28.6292 35.7337 28.4783 35.7337C28.3274 35.7337 28.0599 35.7269 27.6758 35.7132C27.2917 35.6994 26.7909 35.6926 26.1737 35.6926C24.8841 35.6926 24.0404 35.7063 23.6426 35.7337H23.3957C23.3133 35.6514 23.2722 35.5897 23.2722 35.5486C23.2722 35.5074 23.2859 35.384 23.3133 35.1782C23.3682 34.9999 23.4094 34.89 23.4368 34.8489L23.5191 34.7872H23.9307C24.6714 34.746 25.1104 34.6294 25.2477 34.4373L25.0007 31.3507H20.1032L19.4036 32.5442C18.8411 33.4908 18.5599 34.0464 18.5599 34.211ZM24.8978 30.3835C24.8978 30.2327 24.8155 29.1626 24.6508 27.1733C24.4863 25.1842 24.3903 24.1827 24.3628 24.169L23.8072 25.0538C23.5877 25.4242 23.1556 26.1582 22.5109 27.2557L20.6588 30.3835L22.7783 30.4041C24.1913 30.4041 24.8978 30.3973 24.8978 30.3835Z" fill="black"/>
<path d="M34.4668 22.6253C34.0964 22.6253 33.8769 22.6184 33.8083 22.6047C33.7397 22.591 33.7054 22.5156 33.7054 22.3784C33.7054 22.008 33.7808 21.7816 33.9318 21.6993C33.9455 21.6856 34.8372 21.6787 36.6069 21.6787C40.1599 21.6787 42.0325 21.6925 42.2245 21.7199C43.0888 21.8571 43.809 22.1657 44.3852 22.6459C44.9614 23.126 45.2563 23.7571 45.2701 24.5391C45.2701 25.4171 44.8722 26.2059 44.0765 26.9055C43.2808 27.6052 42.3686 28.0785 41.3397 28.3254L41.134 28.3872C42.0119 28.5106 42.7321 28.8261 43.2945 29.3337C43.8571 29.8413 44.1451 30.4724 44.1588 31.2268C44.1588 32.2284 43.665 33.1955 42.6773 34.1283C41.6895 35.0612 40.4754 35.5894 39.035 35.7129C38.939 35.7266 37.4917 35.7334 34.6931 35.7334C31.9494 35.7334 30.557 35.7197 30.5159 35.6923C30.461 35.6511 30.4336 35.5963 30.4336 35.5276C30.4336 35.4316 30.4473 35.3356 30.4747 35.2396C30.5433 34.9789 30.6119 34.8349 30.6805 34.8074C30.7354 34.7937 30.8383 34.7869 30.9892 34.7869H31.1126C31.483 34.7869 31.8946 34.7663 32.3473 34.7251C32.5394 34.6839 32.6697 34.6016 32.7383 34.4782C32.7794 34.4233 33.2733 32.5164 34.2198 28.7576C35.1664 24.9987 35.6397 23.0163 35.6397 22.8106C35.6397 22.7145 35.2488 22.6527 34.4668 22.6253ZM43.0682 24.5391C43.0682 24.1275 42.9654 23.7434 42.7595 23.3867C42.5538 23.03 42.2177 22.7968 41.7513 22.687C41.6553 22.6596 41.0242 22.639 39.8581 22.6253C39.5837 22.6253 39.2957 22.6253 38.9939 22.6253C38.692 22.6253 38.452 22.6322 38.2736 22.6459H38.0062C37.8003 22.6596 37.6701 22.7282 37.6152 22.8517C37.5878 22.9066 37.3682 23.7297 36.9567 25.3211C36.9567 25.3622 36.9498 25.4034 36.9361 25.4445L36.2982 28.0373H37.965C39.0762 28.0373 39.714 28.0236 39.8787 27.9962C40.7018 27.859 41.4357 27.4612 42.0805 26.8026C42.7253 26.1441 43.0545 25.3896 43.0682 24.5391ZM41.957 31.0211C41.957 30.4175 41.7993 29.9167 41.4837 29.5189C41.1683 29.1211 40.7567 28.8879 40.2491 28.8193C40.1668 28.8056 39.5975 28.7987 38.5412 28.7987C36.9224 28.7987 36.1061 28.8056 36.0924 28.8193C36.0924 28.8467 35.9758 29.3474 35.7426 30.3214C35.5094 31.2955 35.2694 32.2626 35.0224 33.2229L34.652 34.6633C34.652 34.7183 34.7343 34.7457 34.8989 34.7457C35.0635 34.7457 35.6191 34.7594 36.5657 34.7869C37.7866 34.7869 38.4452 34.78 38.5412 34.7663C39.3917 34.6702 40.1736 34.2724 40.887 33.5728C41.6004 32.8731 41.957 32.0225 41.957 31.0211Z" fill="black"/>
<path d="M8 34C8 33.4667 8.18733 33 8.56198 32.6C8.93664 32.2 9.41047 32 9.98347 32C10.5124 32 10.9752 32.1778 11.3719 32.5333C11.7686 32.8889 11.978 33.3667 12 33.9667C12 34.5222 11.8127 35 11.438 35.4C11.0634 35.8 10.5895 36 10.0165 36C9.44353 36 8.9697 35.8111 8.59504 35.4333C8.22039 35.0556 8.02204 34.5778 8 34Z" fill="black"/>
<path d="M19 16.6523V15.6523H45V16.6523H19Z" fill="black"/>
</svg>
