<svg width="52" height="52" viewBox="0 0 52 52" fill="none" xmlns="http://www.w3.org/2000/svg">
<rect width="52" height="52" rx="4" fill="#D0F0FD"/>
<path d="M34.25 29.5211C34.4502 29.4677 34.7237 29.4677 35.0707 29.5211C35.8312 29.7079 36.3249 30.1216 36.5518 30.762L36.5918 30.8821L36.812 30.682C37.0655 30.4285 37.299 30.235 37.5125 30.1015C38.1797 29.6746 38.9136 29.4677 39.7142 29.4811C40.4747 29.5211 41.0552 29.7346 41.4555 30.1216C41.9759 30.6286 42.156 31.3692 41.9959 32.3432C41.8624 33.1171 41.4955 34.2914 40.895 35.8659C40.6682 36.493 40.5548 36.9334 40.5548 37.1869C40.5548 37.4004 40.6015 37.5338 40.6949 37.5872C40.8016 37.6406 40.9684 37.6272 41.1953 37.5472C41.7157 37.347 42.136 36.7933 42.4562 35.8859C42.4829 35.7925 42.5096 35.6991 42.5363 35.6057C42.603 35.4055 42.6697 35.2988 42.7364 35.2854C42.7765 35.2721 42.8966 35.2654 43.0967 35.2654C43.3502 35.2654 43.497 35.2788 43.537 35.3055C43.5637 35.3322 43.5771 35.3855 43.5771 35.4656C43.5771 35.6924 43.4436 36.0727 43.1768 36.6064C42.9366 37.1001 42.643 37.5071 42.2961 37.8274C41.7757 38.3211 41.2086 38.5613 40.5948 38.5479C39.8342 38.5079 39.3005 38.1943 38.9936 37.6072C38.8735 37.367 38.8135 37.0935 38.8135 36.7866C38.8268 36.5197 38.9069 36.2061 39.0537 35.8459C39.5607 34.4582 39.8876 33.4507 40.0344 32.8236C40.2479 32.023 40.2879 31.4092 40.1545 30.9822C40.0477 30.6086 39.7875 30.4218 39.3739 30.4218C38.2531 30.4218 37.3057 31.0689 36.5318 32.3632L36.4117 32.5834L35.7512 35.1854C35.3375 36.8933 35.0973 37.8073 35.0306 37.9274C34.8438 38.3277 34.5302 38.5346 34.0899 38.5479C33.8764 38.5479 33.6896 38.4879 33.5295 38.3678C33.4628 38.3411 33.4027 38.2677 33.3494 38.1476C33.2826 38.0142 33.276 37.814 33.3293 37.5472C33.3961 37.2403 33.6296 36.2795 34.0299 34.665C34.5503 32.5968 34.8171 31.5226 34.8305 31.4426C34.9105 30.8288 34.8038 30.4885 34.5102 30.4218C34.1366 30.3818 33.8231 30.6887 33.5695 31.3425C33.4761 31.5827 33.3827 31.8962 33.2893 32.2832L33.1892 32.6435C33.0425 32.7235 32.8823 32.7635 32.7089 32.7635H32.3286L32.2685 32.7035C32.2152 32.6501 32.2152 32.51 32.2685 32.2832C32.7489 30.6153 33.4094 29.6946 34.25 29.5211Z" fill="#111928"/>
<path d="M37.1355 14.1146C38.1543 14.0382 38.6511 14 38.6256 14C38.7402 14 38.8166 14.0446 38.8548 14.1337C38.8676 14.1847 38.5555 15.4965 37.9187 18.0692L36.9444 21.9282L37.0399 21.8709C37.3966 21.6544 37.9124 21.2277 38.5874 20.5909C39.0077 20.1834 39.3452 19.8713 39.5999 19.6548C40.3004 19.069 40.969 18.7888 41.6058 18.8142C41.8096 18.827 41.9752 18.8715 42.1025 18.948C42.37 19.0881 42.5547 19.3428 42.6565 19.7121C42.733 20.0178 42.7457 20.368 42.6948 20.7629C42.5801 21.3742 42.3063 21.7881 41.8733 22.0046C41.5167 22.1702 41.1792 22.1829 40.8608 22.0428C40.4914 21.8645 40.3513 21.5398 40.4405 21.0685C40.4914 20.8138 40.6124 20.5782 40.8034 20.3617C41.0582 20.1324 41.332 19.9987 41.6249 19.9605C41.7013 19.9605 41.7396 19.9541 41.7396 19.9414C41.7396 19.9032 41.695 19.8395 41.6058 19.7503C41.4657 19.6484 41.1855 19.6739 40.7652 19.8268C40.5742 19.8904 40.3513 20.0114 40.0966 20.1897C39.7782 20.3935 39.307 20.8011 38.6829 21.4124C38.2881 21.7945 37.9888 22.0747 37.785 22.253C37.7213 22.3039 37.7086 22.3358 37.7468 22.3485C37.785 22.3485 37.8678 22.3612 37.9951 22.3867C38.4409 22.5013 38.772 22.616 38.9886 22.7306C39.5107 22.9726 39.8737 23.3037 40.0775 23.724C40.1666 23.9023 40.2112 24.1379 40.2112 24.4308C40.2112 24.6346 40.1921 24.8257 40.1539 25.004C40.0775 25.3224 40.0393 25.6153 40.0393 25.8828C40.0393 26.1757 40.0839 26.3667 40.173 26.4559C40.2749 26.5578 40.4405 26.5832 40.6697 26.5323C40.8098 26.4941 40.9372 26.4113 41.0518 26.2839C41.3193 26.0165 41.574 25.4179 41.816 24.4882C41.8414 24.399 41.937 24.3481 42.1025 24.3353C42.1407 24.3353 42.2044 24.3353 42.2936 24.3353C42.5356 24.3353 42.6693 24.3481 42.6948 24.3735C42.7712 24.4245 42.7712 24.5773 42.6948 24.832C42.5037 25.5198 42.2299 26.0993 41.8733 26.5705C41.5549 27.0163 41.1792 27.2965 40.7461 27.4111C40.657 27.4366 40.5042 27.4493 40.2876 27.4493C40.0584 27.4493 39.8928 27.4366 39.7909 27.4111C39.5235 27.3347 39.307 27.2391 39.1414 27.1245C38.6829 26.8189 38.4154 26.354 38.339 25.7299C38.3135 25.4752 38.3327 25.2268 38.3963 24.9849C38.46 24.6537 38.46 24.3926 38.3963 24.2016C38.218 23.7049 37.715 23.3674 36.8871 23.1891L36.6579 23.1509L36.1994 24.9467C35.881 26.182 35.709 26.8252 35.6835 26.8762C35.5562 27.1436 35.3397 27.3283 35.034 27.4302C34.8302 27.4811 34.6265 27.4748 34.4227 27.4111C34.2698 27.3474 34.1489 27.2328 34.0597 27.0672C33.996 26.9653 33.9833 26.8316 34.0215 26.666C34.0597 26.4113 34.4991 24.5964 35.3397 21.2214C36.2821 17.4769 36.7279 15.5474 36.677 15.4328C36.5878 15.3437 36.314 15.2927 35.8555 15.28C35.5498 15.28 35.3779 15.2354 35.3397 15.1462C35.3142 15.108 35.3333 14.9616 35.397 14.7069C35.4607 14.4394 35.5116 14.2929 35.5498 14.2675C35.588 14.2292 35.6262 14.2101 35.6644 14.2101L37.1355 14.1146Z" fill="#111928"/>
<path d="M22.6395 15.9115C17.2635 15.9115 15.5035 20.4875 15.5035 25.9595C15.5035 31.8155 17.4875 35.8795 22.5755 35.8795C26.0635 35.8795 27.7595 33.1595 28.5275 30.3115H29.6475V35.2075C27.8875 36.6475 25.1995 37.4795 22.5435 37.4795C15.9515 37.4795 11.7275 32.5195 11.7275 26.0875C11.7275 19.2395 16.4315 14.3115 22.8315 14.3115C25.2635 14.3115 27.6955 14.9195 29.6475 16.0395V21.7675H28.5275C27.5995 18.4395 26.1275 15.9115 22.6395 15.9115Z" fill="#111928"/>
</svg>
