<svg width="52" height="52" viewBox="0 0 52 52" fill="none" xmlns="http://www.w3.org/2000/svg">
<path d="M36.1495 33.3049L35.3665 36.7805H33.5872L35.0463 30.2866C35.1352 29.9024 35.1708 29.7378 35.1708 29.5915C35.1708 29.2805 35.0463 29.1524 34.8505 29.1524C34.5125 29.1524 33.9253 29.5732 33.4093 30.1402C33.2491 30.0305 33.1246 29.9024 33 29.7561C33.9431 28.6037 34.9929 28.0366 35.8826 28.0366C36.6833 28.0366 36.9858 28.5305 36.9858 29.0793C36.9858 29.372 36.8968 29.7927 36.8078 30.2317H36.8612C37.7687 28.75 39.0854 28 40.2242 28C41.363 28 41.9858 28.7317 41.9858 29.6646C41.9858 30.9634 40.669 34.75 40.669 35.5C40.669 35.6646 40.7402 35.8476 40.9893 35.8476C41.3986 35.8476 42.0925 35.3537 42.5907 34.7134C42.7509 34.8232 42.8754 34.9329 43 35.0793C42.1993 36.1768 41.274 37 40.1352 37C39.2633 37 38.8719 36.4878 38.8719 35.811C38.8719 34.5854 40.1708 31 40.1708 29.9024C40.1708 29.4268 39.9751 29.061 39.4413 29.061C38.4093 29.061 36.8256 30.3963 36.1495 33.3049Z" fill="#454545"/>
<path d="M34.8927 26.7801H33L35.4335 15.4738C35.5107 15.1257 35.5687 14.8325 35.5687 14.6492C35.5687 14.1911 35.2017 14.1361 33.9657 14.1178C33.9464 14.0262 33.927 13.9162 33.927 13.8063C33.927 13.7513 33.927 13.6963 33.9464 13.623C35.3369 13.5314 36.7275 13.3665 37.6931 13L37.9442 13.1283C37.6352 14.1728 37.3648 15.3272 37.133 16.4267L36.5343 19.1754L36.1674 20.6047H36.2639C37.5193 18.9005 38.8906 17.9843 40.3391 17.9843C41.5558 17.9843 41.9807 18.6623 41.9807 19.3586C41.9807 20.5131 40.8798 21.4843 38.2146 22.4738C39.3734 25.534 39.6245 25.7356 39.9528 25.7356C40.4163 25.7356 41.015 25.3141 41.5558 24.7094C41.7296 24.8194 41.8648 24.9293 42 25.0759C41.0343 26.3037 39.9528 27 39.0451 27C37.9442 27 37.5386 26.1021 36.2833 22.5288C39.5086 21.466 40.1073 20.3848 40.1073 19.6885C40.1073 19.3403 39.9528 19.1021 39.5086 19.1021C38.2918 19.1021 36.1481 20.9895 35.7039 23.0602L34.8927 26.7801Z" fill="#454545"/>
<path d="M24.48 18.104C24.48 17.144 24.224 16.696 23.616 16.504C23.328 16.408 22.464 16.376 21.728 16.312V15H30.56V16.312C30.112 16.344 29.024 16.376 28.672 16.504C28.032 16.696 27.808 17.176 27.808 18.104V34.072C27.808 35.032 28.064 35.48 28.672 35.672C28.96 35.768 29.824 35.8 30.56 35.864V37.176H21.728V35.864C22.176 35.832 23.264 35.8 23.616 35.672C24.256 35.48 24.48 35 24.48 34.072V26.488H14.08V34.072C14.08 35.032 14.336 35.48 14.944 35.672C15.232 35.768 16.096 35.8 16.832 35.864V37.176H8V35.864C8.448 35.832 9.536 35.8 9.888 35.672C10.528 35.48 10.752 35 10.752 34.072V18.104C10.752 17.144 10.496 16.696 9.888 16.504C9.6 16.408 8.736 16.376 8 16.312V15H16.832V16.312C16.384 16.344 15.296 16.376 14.944 16.504C14.304 16.696 14.08 17.176 14.08 18.104V24.792H24.48V18.104Z" fill="#454545"/>
</svg>
