<svg width="52" height="52" viewBox="0 0 52 52" fill="none" xmlns="http://www.w3.org/2000/svg">
<rect width="52" height="52" rx="4" fill="#D0F0FD"/>
<path d="M36.5358 13.1175C37.5803 13.0392 38.0895 13 38.0634 13C38.1809 13 38.2593 13.0457 38.2984 13.1371C38.3115 13.1893 37.9916 14.5342 37.3388 17.1717L36.3399 21.128L36.4378 21.0692C36.8034 20.8472 37.3322 20.4098 38.0243 19.757C38.4551 19.3392 38.8011 19.0193 39.0623 18.7973C39.7804 18.1967 40.4659 17.9094 41.1188 17.9355C41.3277 17.9486 41.4974 17.9943 41.628 18.0726C41.9022 18.2163 42.0915 18.4774 42.196 18.8561C42.2743 19.1694 42.2874 19.5285 42.2351 19.9333C42.1176 20.56 41.8369 20.9843 41.393 21.2063C41.0274 21.3761 40.6813 21.3891 40.3549 21.2455C39.9763 21.0627 39.8326 20.7297 39.924 20.2466C39.9763 19.9855 40.1003 19.7439 40.2962 19.522C40.5573 19.2869 40.838 19.1498 41.1383 19.1107C41.2167 19.1107 41.2559 19.1041 41.2559 19.0911C41.2559 19.0519 41.2102 18.9866 41.1188 18.8952C40.9751 18.7908 40.6879 18.8169 40.257 18.9736C40.0611 19.0389 39.8326 19.1629 39.5715 19.3457C39.2451 19.5546 38.762 19.9724 38.1222 20.5992C37.7174 20.9909 37.4106 21.2781 37.2017 21.4609C37.1364 21.5132 37.1233 21.5458 37.1625 21.5589C37.2017 21.5589 37.2865 21.5719 37.4171 21.598C37.8741 21.7155 38.2136 21.8331 38.4355 21.9506C38.9709 22.1986 39.343 22.5381 39.5519 22.969C39.6433 23.1518 39.689 23.3934 39.689 23.6937C39.689 23.9026 39.6694 24.0984 39.6303 24.2812C39.5519 24.6077 39.5127 24.908 39.5127 25.1822C39.5127 25.4825 39.5584 25.6783 39.6498 25.7697C39.7543 25.8742 39.924 25.9003 40.1591 25.8481C40.3027 25.8089 40.4333 25.724 40.5508 25.5935C40.825 25.3193 41.0861 24.7056 41.3342 23.7524C41.3603 23.661 41.4582 23.6088 41.628 23.5957C41.6672 23.5957 41.7324 23.5957 41.8238 23.5957C42.0719 23.5957 42.209 23.6088 42.2351 23.6349C42.3135 23.6871 42.3135 23.8438 42.2351 24.105C42.0393 24.81 41.7586 25.4041 41.393 25.8872C41.0665 26.3442 40.6814 26.6315 40.2374 26.749C40.146 26.7751 39.9893 26.7882 39.7674 26.7882C39.5323 26.7882 39.3626 26.7751 39.2581 26.749C38.9839 26.6707 38.762 26.5727 38.5922 26.4552C38.1222 26.1419 37.848 25.6653 37.7696 25.0255C37.7435 24.7643 37.7631 24.5097 37.8284 24.2617C37.8937 23.9222 37.8937 23.6545 37.8284 23.4586C37.6456 22.9494 37.1298 22.6034 36.2811 22.4206L36.0461 22.3814L35.5761 24.2225C35.2496 25.489 35.0734 26.1484 35.0473 26.2006C34.9167 26.4748 34.6947 26.6641 34.3814 26.7686C34.1724 26.8208 33.9635 26.8143 33.7546 26.749C33.5979 26.6837 33.4739 26.5662 33.3825 26.3965C33.3172 26.292 33.3042 26.1549 33.3433 25.9852C33.3825 25.724 33.833 23.8634 34.6947 20.4033C35.6609 16.5646 36.1179 14.5864 36.0657 14.4689C35.9743 14.3775 35.6936 14.3253 35.2235 14.3122C34.9102 14.3122 34.7339 14.2665 34.6947 14.1751C34.6686 14.136 34.6882 13.9858 34.7535 13.7247C34.8188 13.4505 34.871 13.3003 34.9102 13.2742C34.9493 13.235 34.9885 13.2154 35.0277 13.2154L36.5358 13.1175Z" fill="#111928"/>
<path d="M34.7555 29.1667C34.9513 29.1145 35.219 29.1145 35.5585 29.1667C36.3027 29.3495 36.7858 29.7543 37.0078 30.381L37.047 30.4985L37.2624 30.3027C37.5105 30.0546 37.739 29.8653 37.9479 29.7347C38.6008 29.3169 39.3189 29.1145 40.1023 29.1275C40.8466 29.1667 41.4145 29.3756 41.8063 29.7543C42.3155 30.2504 42.4917 30.9751 42.3351 31.9283C42.2045 32.6856 41.8454 33.8346 41.2579 35.3753C41.0359 35.989 40.9249 36.4199 40.9249 36.668C40.9249 36.8769 40.9706 37.0074 41.062 37.0597C41.1665 37.1119 41.3297 37.0988 41.5516 37.0205C42.0609 36.8246 42.4722 36.2828 42.7855 35.3949C42.8116 35.3035 42.8378 35.2121 42.8639 35.1207C42.9292 34.9248 42.9944 34.8204 43.0597 34.8073C43.0989 34.7943 43.2164 34.7878 43.4123 34.7878C43.6603 34.7878 43.804 34.8008 43.8431 34.8269C43.8693 34.853 43.8823 34.9053 43.8823 34.9836C43.8823 35.2056 43.7517 35.5777 43.4906 36.1C43.2556 36.5831 42.9683 36.9813 42.6288 37.2947C42.1196 37.7778 41.5647 38.0128 40.9641 37.9998C40.2198 37.9606 39.6975 37.6538 39.3972 37.0793C39.2797 36.8442 39.221 36.5766 39.221 36.2762C39.234 36.0151 39.3124 35.7083 39.456 35.3557C39.9522 33.9978 40.2721 33.012 40.4157 32.3983C40.6246 31.6149 40.6638 31.0143 40.5332 30.5965C40.4287 30.2309 40.1741 30.0481 39.7694 30.0481C38.6726 30.0481 37.7455 30.6813 36.9882 31.9479L36.8707 32.1633L36.2244 34.7094C35.8196 36.3807 35.5846 37.2751 35.5193 37.3926C35.3365 37.7843 35.0297 37.9867 34.5988 37.9998C34.3899 37.9998 34.2071 37.941 34.0504 37.8235C33.9851 37.7974 33.9264 37.7256 33.8741 37.6081C33.8088 37.4775 33.8023 37.2816 33.8545 37.0205C33.9198 36.7202 34.1483 35.7801 34.54 34.2002C35.0493 32.1764 35.3104 31.1253 35.3235 31.0469C35.4018 30.4463 35.2973 30.1133 35.0101 30.0481C34.6445 30.0089 34.3377 30.3092 34.0896 30.949C33.9982 31.184 33.9068 31.4909 33.8154 31.8695L33.7174 32.2221C33.5738 32.3004 33.4171 32.3396 33.2474 32.3396H32.8753L32.8165 32.2808C32.7643 32.2286 32.7643 32.0915 32.8165 31.8695C33.2866 30.2374 33.9329 29.3365 34.7555 29.1667Z" fill="#111928"/>
<path d="M24.48 18.104C24.48 17.144 24.224 16.696 23.616 16.504C23.328 16.408 22.464 16.376 21.728 16.312V15H30.56V16.312C30.112 16.344 29.024 16.376 28.672 16.504C28.032 16.696 27.808 17.176 27.808 18.104V34.072C27.808 35.032 28.064 35.48 28.672 35.672C28.96 35.768 29.824 35.8 30.56 35.864V37.176H21.728V35.864C22.176 35.832 23.264 35.8 23.616 35.672C24.256 35.48 24.48 35 24.48 34.072V26.488H14.08V34.072C14.08 35.032 14.336 35.48 14.944 35.672C15.232 35.768 16.096 35.8 16.832 35.864V37.176H8V35.864C8.448 35.832 9.536 35.8 9.888 35.672C10.528 35.48 10.752 35 10.752 34.072V18.104C10.752 17.144 10.496 16.696 9.888 16.504C9.6 16.408 8.736 16.376 8 16.312V15H16.832V16.312C16.384 16.344 15.296 16.376 14.944 16.504C14.304 16.696 14.08 17.176 14.08 18.104V24.792H24.48V18.104Z" fill="#111928"/>
</svg>
