<svg width="52" height="52" viewBox="0 0 52 52" fill="none" xmlns="http://www.w3.org/2000/svg">
<path d="M35.1495 33.3049L34.3665 36.7805H32.5872L34.0463 30.2866C34.1352 29.9024 34.1708 29.7378 34.1708 29.5915C34.1708 29.2805 34.0463 29.1524 33.8505 29.1524C33.5125 29.1524 32.9253 29.5732 32.4093 30.1402C32.2491 30.0305 32.1246 29.9024 32 29.7561C32.9431 28.6037 33.9929 28.0366 34.8826 28.0366C35.6833 28.0366 35.9858 28.5305 35.9858 29.0793C35.9858 29.372 35.8968 29.7927 35.8078 30.2317H35.8612C36.7687 28.75 38.0854 28 39.2242 28C40.363 28 40.9858 28.7317 40.9858 29.6646C40.9858 30.9634 39.669 34.75 39.669 35.5C39.669 35.6646 39.7402 35.8476 39.9893 35.8476C40.3986 35.8476 41.0925 35.3537 41.5907 34.7134C41.7509 34.8232 41.8754 34.9329 42 35.0793C41.1993 36.1768 40.274 37 39.1352 37C38.2633 37 37.8719 36.4878 37.8719 35.811C37.8719 34.5854 39.1708 31 39.1708 29.9024C39.1708 29.4268 38.9751 29.061 38.4413 29.061C37.4093 29.061 35.8256 30.3963 35.1495 33.3049Z" fill="#454545"/>
<path d="M33.8927 26.7801H32L34.4335 15.4738C34.5107 15.1257 34.5687 14.8325 34.5687 14.6492C34.5687 14.1911 34.2017 14.1361 32.9657 14.1178C32.9464 14.0262 32.927 13.9162 32.927 13.8063C32.927 13.7513 32.927 13.6963 32.9464 13.623C34.3369 13.5314 35.7275 13.3665 36.6931 13L36.9442 13.1283C36.6352 14.1728 36.3648 15.3272 36.133 16.4267L35.5343 19.1754L35.1674 20.6047H35.2639C36.5193 18.9005 37.8906 17.9843 39.3391 17.9843C40.5558 17.9843 40.9807 18.6623 40.9807 19.3586C40.9807 20.5131 39.8798 21.4843 37.2146 22.4738C38.3734 25.534 38.6245 25.7356 38.9528 25.7356C39.4163 25.7356 40.015 25.3141 40.5558 24.7094C40.7296 24.8194 40.8648 24.9293 41 25.0759C40.0343 26.3037 38.9528 27 38.0451 27C36.9442 27 36.5386 26.1021 35.2833 22.5288C38.5086 21.466 39.1073 20.3848 39.1073 19.6885C39.1073 19.3403 38.9528 19.1021 38.5086 19.1021C37.2918 19.1021 35.1481 20.9895 34.7039 23.0602L33.8927 26.7801Z" fill="#454545"/>
<path d="M22.168 27.624H18.68V33.896C18.68 34.792 18.936 35.336 19.544 35.496C20.056 35.624 20.856 35.624 21.752 35.688V37H12.6V35.688C13.208 35.656 14.04 35.624 14.488 35.496C15.096 35.336 15.352 34.792 15.352 33.896V17.928C15.352 17.032 15.096 16.488 14.488 16.328C14.04 16.2 13.528 16.232 12.6 16.136V14.824H22.616C26.488 14.824 29.432 16.968 29.432 20.808C29.432 24.776 26.328 27.624 22.168 27.624ZM21.592 16.424H18.68V26.024H21.08C24.056 26.024 25.592 24.04 25.592 21.128C25.592 18.344 24.056 16.424 21.592 16.424Z" fill="#454545"/>
</svg>
