<svg width="52" height="52" viewBox="0 0 52 52" fill="none" xmlns="http://www.w3.org/2000/svg">
<rect width="52" height="52" rx="4" fill="#D0F0FD"/>
<path d="M36.5358 14.1175C37.5803 14.0392 38.0895 14 38.0634 14C38.1809 14 38.2593 14.0457 38.2984 14.1371C38.3115 14.1893 37.9916 15.5342 37.3388 18.1717L36.3399 22.128L36.4378 22.0692C36.8034 21.8472 37.3322 21.4098 38.0243 20.757C38.4551 20.3392 38.8011 20.0193 39.0623 19.7973C39.7804 19.1967 40.4659 18.9094 41.1188 18.9355C41.3277 18.9486 41.4974 18.9943 41.628 19.0726C41.9022 19.2163 42.0915 19.4774 42.196 19.8561C42.2743 20.1694 42.2874 20.5285 42.2351 20.9333C42.1176 21.56 41.8369 21.9843 41.393 22.2063C41.0274 22.3761 40.6813 22.3891 40.3549 22.2455C39.9763 22.0627 39.8326 21.7297 39.924 21.2466C39.9763 20.9855 40.1003 20.7439 40.2962 20.522C40.5573 20.2869 40.838 20.1498 41.1383 20.1107C41.2167 20.1107 41.2559 20.1041 41.2559 20.0911C41.2559 20.0519 41.2102 19.9866 41.1188 19.8952C40.9751 19.7908 40.6879 19.8169 40.257 19.9736C40.0611 20.0389 39.8326 20.1629 39.5715 20.3457C39.2451 20.5546 38.762 20.9724 38.1222 21.5992C37.7174 21.9909 37.4106 22.2781 37.2017 22.4609C37.1364 22.5132 37.1233 22.5458 37.1625 22.5589C37.2017 22.5589 37.2865 22.5719 37.4171 22.598C37.8741 22.7155 38.2136 22.8331 38.4355 22.9506C38.9709 23.1986 39.343 23.5381 39.5519 23.969C39.6433 24.1518 39.689 24.3934 39.689 24.6937C39.689 24.9026 39.6694 25.0984 39.6303 25.2812C39.5519 25.6077 39.5127 25.908 39.5127 26.1822C39.5127 26.4825 39.5584 26.6783 39.6498 26.7697C39.7543 26.8742 39.924 26.9003 40.1591 26.8481C40.3027 26.8089 40.4333 26.724 40.5508 26.5935C40.825 26.3193 41.0861 25.7056 41.3342 24.7524C41.3603 24.661 41.4582 24.6088 41.628 24.5957C41.6672 24.5957 41.7324 24.5957 41.8238 24.5957C42.0719 24.5957 42.209 24.6088 42.2351 24.6349C42.3135 24.6871 42.3135 24.8438 42.2351 25.105C42.0393 25.81 41.7586 26.4041 41.393 26.8872C41.0665 27.3442 40.6814 27.6315 40.2374 27.749C40.146 27.7751 39.9893 27.7882 39.7674 27.7882C39.5323 27.7882 39.3626 27.7751 39.2581 27.749C38.9839 27.6707 38.762 27.5727 38.5922 27.4552C38.1222 27.1419 37.848 26.6653 37.7696 26.0255C37.7435 25.7643 37.7631 25.5097 37.8284 25.2617C37.8937 24.9222 37.8937 24.6545 37.8284 24.4586C37.6456 23.9494 37.1298 23.6034 36.2811 23.4206L36.0461 23.3814L35.5761 25.2225C35.2496 26.489 35.0734 27.1484 35.0473 27.2006C34.9167 27.4748 34.6947 27.6641 34.3814 27.7686C34.1724 27.8208 33.9635 27.8143 33.7546 27.749C33.5979 27.6837 33.4739 27.5662 33.3825 27.3965C33.3172 27.292 33.3042 27.1549 33.3433 26.9852C33.3825 26.724 33.833 24.8634 34.6947 21.4033C35.6609 17.5646 36.1179 15.5864 36.0657 15.4689C35.9743 15.3775 35.6936 15.3253 35.2235 15.3122C34.9102 15.3122 34.7339 15.2665 34.6947 15.1751C34.6686 15.136 34.6882 14.9858 34.7535 14.7247C34.8188 14.4505 34.871 14.3003 34.9102 14.2742C34.9493 14.235 34.9885 14.2154 35.0277 14.2154L36.5358 14.1175Z" fill="#111928"/>
<path d="M34.7555 30.1667C34.9513 30.1145 35.219 30.1145 35.5585 30.1667C36.3027 30.3495 36.7858 30.7543 37.0078 31.381L37.047 31.4985L37.2624 31.3027C37.5105 31.0546 37.739 30.8653 37.9479 30.7347C38.6008 30.3169 39.3189 30.1145 40.1023 30.1275C40.8466 30.1667 41.4145 30.3756 41.8063 30.7543C42.3155 31.2504 42.4917 31.9751 42.3351 32.9283C42.2045 33.6856 41.8454 34.8346 41.2579 36.3753C41.0359 36.989 40.9249 37.4199 40.9249 37.668C40.9249 37.8769 40.9706 38.0074 41.062 38.0597C41.1665 38.1119 41.3297 38.0988 41.5516 38.0205C42.0609 37.8246 42.4722 37.2828 42.7855 36.3949C42.8116 36.3035 42.8378 36.2121 42.8639 36.1207C42.9292 35.9248 42.9944 35.8204 43.0597 35.8073C43.0989 35.7943 43.2164 35.7878 43.4123 35.7878C43.6603 35.7878 43.804 35.8008 43.8431 35.8269C43.8693 35.853 43.8823 35.9053 43.8823 35.9836C43.8823 36.2056 43.7517 36.5777 43.4906 37.1C43.2556 37.5831 42.9683 37.9813 42.6288 38.2947C42.1196 38.7778 41.5647 39.0128 40.9641 38.9998C40.2198 38.9606 39.6975 38.6538 39.3972 38.0793C39.2797 37.8442 39.221 37.5766 39.221 37.2762C39.234 37.0151 39.3124 36.7083 39.456 36.3557C39.9522 34.9978 40.2721 34.012 40.4157 33.3983C40.6246 32.6149 40.6638 32.0143 40.5332 31.5965C40.4287 31.2309 40.1741 31.0481 39.7694 31.0481C38.6726 31.0481 37.7455 31.6813 36.9882 32.9479L36.8707 33.1633L36.2244 35.7094C35.8196 37.3807 35.5846 38.2751 35.5193 38.3926C35.3365 38.7843 35.0297 38.9867 34.5988 38.9998C34.3899 38.9998 34.2071 38.941 34.0504 38.8235C33.9851 38.7974 33.9264 38.7256 33.8741 38.6081C33.8088 38.4775 33.8023 38.2816 33.8545 38.0205C33.9198 37.7202 34.1483 36.7801 34.54 35.2002C35.0493 33.1764 35.3104 32.1253 35.3235 32.0469C35.4018 31.4463 35.2973 31.1133 35.0101 31.0481C34.6445 31.0089 34.3377 31.3092 34.0896 31.949C33.9982 32.184 33.9068 32.4909 33.8154 32.8695L33.7174 33.2221C33.5738 33.3004 33.4171 33.3396 33.2474 33.3396H32.8753L32.8165 33.2808C32.7643 33.2286 32.7643 33.0915 32.8165 32.8695C33.2866 31.2374 33.9329 30.3365 34.7555 30.1667Z" fill="#111928"/>
<path d="M22.1676 27.6242H18.6796V33.8962C18.6796 34.7922 18.9356 35.3362 19.5436 35.4962C20.0556 35.6242 20.8556 35.6242 21.7516 35.6882V37.0002H12.5996V35.6882C13.2076 35.6562 14.0396 35.6242 14.4876 35.4962C15.0956 35.3362 15.3516 34.7922 15.3516 33.8962V17.9282C15.3516 17.0322 15.0956 16.4882 14.4876 16.3282C14.0396 16.2002 13.5276 16.2322 12.5996 16.1362V14.8242H22.6156C26.4876 14.8242 29.4316 16.9682 29.4316 20.8082C29.4316 24.7762 26.3276 27.6242 22.1676 27.6242ZM21.5916 16.4242H18.6796V26.0242H21.0796C24.0556 26.0242 25.5916 24.0402 25.5916 21.1282C25.5916 18.3442 24.0556 16.4242 21.5916 16.4242Z" fill="#111928"/>
</svg>
