<svg width="52" height="52" viewBox="0 0 52 52" fill="none" xmlns="http://www.w3.org/2000/svg">
<rect width="52" height="52" rx="4" fill="#D0F0FD"/>
<path d="M7.61572 26.2432C7.61572 26.2432 7.50069 26.2432 7.27062 26.2432C7.04055 26.2432 6.84708 26.1648 6.69021 26.0079C6.53335 25.851 6.45491 25.6471 6.45491 25.3961C6.45491 25.0301 6.63269 24.7059 6.98826 24.4236C7.34382 24.1412 7.97652 24 8.88634 24C9.64976 24 10.2668 24.1673 10.7374 24.502C11.208 24.8366 11.5217 25.234 11.6786 25.6942C11.7309 25.8406 11.757 26.0027 11.757 26.1805C11.757 26.3583 11.7622 26.9596 11.7727 27.9844V29.0825C11.7727 29.5845 11.7988 29.9296 11.8511 30.1178C11.9034 30.3061 12.0132 30.4002 12.1805 30.4002C12.3374 30.4002 12.442 30.3165 12.4943 30.1492C12.5466 29.9819 12.5727 29.7047 12.5727 29.3178V28.7531H13.2002V29.3649C13.1897 29.7832 13.174 30.0289 13.1531 30.1021C13.059 30.4159 12.876 30.6616 12.6041 30.8394C12.3322 31.0172 12.0446 31.1113 11.7413 31.1218C11.438 31.1322 11.1923 31.0381 11.004 30.8394C10.8158 30.6407 10.6903 30.4211 10.6276 30.1806V30.1178L10.5962 30.1649C10.5753 30.1962 10.5491 30.2276 10.5178 30.259C10.4864 30.2904 10.4446 30.3374 10.3923 30.4002C10.34 30.4629 10.2772 30.5204 10.204 30.5727C10.1308 30.625 10.0524 30.6878 9.96872 30.761C9.88506 30.8342 9.79094 30.8917 9.68636 30.9335C9.58178 30.9754 9.46675 31.0172 9.34126 31.059C9.21576 31.1008 9.07981 31.1322 8.9334 31.1531C8.78699 31.1741 8.6249 31.1897 8.44712 31.2002C7.81965 31.2002 7.25493 31.0381 6.75296 30.7139C6.25099 30.3897 6 29.9348 6 29.3492C6 29.1296 6.0366 28.9204 6.10981 28.7217C6.18301 28.523 6.32419 28.3086 6.53335 28.0786C6.7425 27.8485 6.99349 27.655 7.28631 27.4981C7.57912 27.3413 7.98698 27.1949 8.50986 27.0589C9.03275 26.923 9.60793 26.8445 10.2354 26.8236H10.455V26.4785C10.455 26.123 10.4236 25.8615 10.3609 25.6942C10.1308 24.9517 9.62362 24.5804 8.83928 24.5804C8.65104 24.5804 8.47326 24.5857 8.30594 24.5961C8.13861 24.6066 8.00789 24.6275 7.91377 24.6589C7.81965 24.6902 7.77782 24.7059 7.78828 24.7059C8.01835 24.8628 8.13338 25.0929 8.13338 25.3961C8.13338 25.6576 8.04972 25.8615 7.8824 26.0079L7.61572 26.2432ZM7.44317 29.3649C7.44317 29.689 7.56866 29.9766 7.81965 30.2276C8.07064 30.4786 8.37914 30.6093 8.74516 30.6198C9.14256 30.6198 9.49289 30.4995 9.79617 30.259C10.0994 30.0185 10.3034 29.7047 10.4079 29.3178C10.4289 29.2446 10.4446 28.8995 10.455 28.2825C10.455 27.6759 10.4498 27.3727 10.4393 27.3727C10.3557 27.3727 10.2459 27.3779 10.1099 27.3883C9.97395 27.3988 9.73865 27.4459 9.404 27.5295C9.06935 27.6132 8.76608 27.7178 8.49418 27.8433C8.22228 27.9687 7.98175 28.1622 7.77259 28.4237C7.56344 28.6851 7.45363 28.9988 7.44317 29.3649Z" fill="#111928"/>
<path d="M13.8711 30.3058H14.0907C14.4986 30.3058 14.7443 30.2326 14.828 30.0861V29.9607C14.828 29.8665 14.828 29.7463 14.828 29.5999C14.828 29.4535 14.8332 29.2914 14.8437 29.1136C14.8541 28.9358 14.8541 28.7319 14.8437 28.5018C14.8332 28.2717 14.8332 28.0521 14.8437 27.843C14.8437 27.5188 14.8437 27.1737 14.8437 26.8076C14.8437 26.4416 14.8437 26.1331 14.8437 25.8821L14.828 25.5213C14.7966 25.3226 14.7234 25.1919 14.6084 25.1292C14.4933 25.0664 14.258 25.0194 13.9025 24.988H13.6201V24.6272C13.6201 24.3867 13.6306 24.2664 13.6515 24.2664L13.8084 24.2507C13.9129 24.2403 14.0593 24.2298 14.2476 24.2193C14.4358 24.2089 14.6241 24.1984 14.8123 24.188C14.9796 24.1775 15.1626 24.167 15.3613 24.1566C15.56 24.1461 15.7117 24.1304 15.8162 24.1095C15.9208 24.0886 15.9783 24.0834 15.9888 24.0938H16.0359V25.1762C16.4437 24.4651 16.9509 24.1095 17.5575 24.1095H17.6516C18.1222 24.1095 18.4673 24.2246 18.6869 24.4546C18.9065 24.6847 19.0163 24.9252 19.0163 25.1762C19.0163 25.3958 18.9483 25.5841 18.8124 25.7409C18.6764 25.8978 18.4777 25.9762 18.2163 25.9762C17.9549 25.9762 17.7614 25.8926 17.6359 25.7253C17.5104 25.5579 17.4424 25.3802 17.432 25.1919C17.432 25.0978 17.4424 25.0141 17.4633 24.9409C17.4843 24.8677 17.5104 24.805 17.5418 24.7527C17.5732 24.7004 17.5888 24.6743 17.5888 24.6743C17.5679 24.6533 17.4477 24.6743 17.228 24.737C17.0607 24.8207 16.9352 24.8991 16.8516 24.9723C16.3601 25.4429 16.1143 26.3789 16.1143 27.7802V28.6116C16.1143 28.7476 16.1143 28.8887 16.1143 29.0351C16.1143 29.1815 16.1143 29.3175 16.1143 29.443C16.1143 29.5685 16.1195 29.6731 16.13 29.7567C16.1404 29.8404 16.1404 29.9188 16.13 29.992V30.0705C16.1404 30.0914 16.1561 30.1123 16.177 30.1332C16.198 30.1541 16.2241 30.1698 16.2555 30.1803C16.2868 30.1907 16.313 30.2064 16.3339 30.2273C16.3548 30.2482 16.3914 30.2587 16.4437 30.2587C16.496 30.2587 16.5326 30.2639 16.5535 30.2744C16.5744 30.2848 16.6215 30.2901 16.6947 30.2901C16.7679 30.2901 16.815 30.2901 16.8359 30.2901C16.8568 30.2901 16.9091 30.2953 16.9927 30.3058C17.0764 30.3162 17.1287 30.3162 17.1496 30.3058H17.6359V31.0273H17.4947C17.3065 30.996 16.6424 30.9803 15.5025 30.9803C14.4254 30.9803 13.8397 30.996 13.7456 31.0273H13.6201V30.3058H13.8711Z" fill="#111928"/>
<path d="M25.2619 26.2431C25.2619 26.2431 25.1521 26.2431 24.9325 26.2431C24.7129 26.2431 24.5247 26.1647 24.3678 26.0078C24.2109 25.851 24.1273 25.6523 24.1168 25.4118C24.1168 25.1712 24.1952 24.9725 24.3521 24.8157C24.4044 24.7634 24.4305 24.732 24.4305 24.7215C24.4305 24.7111 24.3782 24.7006 24.2737 24.6902C24.0018 24.6483 23.7455 24.6274 23.505 24.6274C22.9926 24.6274 22.5743 24.7947 22.2501 25.1294C21.7586 25.6209 21.5128 26.4418 21.5128 27.5922C21.5128 28.4497 21.6749 29.1243 21.9991 29.6158C22.4279 30.2537 23.003 30.5727 23.7246 30.5727C24.1534 30.5727 24.4985 30.4367 24.76 30.1648C25.0214 29.8929 25.2096 29.5687 25.3247 29.1922C25.3456 29.1086 25.3717 29.0563 25.4031 29.0354C25.4345 29.0145 25.5181 29.004 25.6541 29.004H25.8737C25.9365 29.0667 25.9678 29.1138 25.9678 29.1452C25.9678 29.187 25.9469 29.2707 25.9051 29.3962C25.8632 29.5217 25.7796 29.6942 25.6541 29.9138C25.5286 30.1334 25.377 30.3321 25.1992 30.5099C25.0214 30.6877 24.7704 30.8498 24.4462 30.9962C24.122 31.1426 23.7612 31.2106 23.3638 31.2001C22.4645 31.2001 21.6801 30.8655 21.0108 30.1962C20.3415 29.5269 20.0017 28.685 19.9912 27.6706C19.9912 26.583 20.3311 25.6993 21.0108 25.0196C21.6906 24.3398 22.4802 24 23.3795 24C24.2789 24 24.9064 24.1411 25.2619 24.4235C25.6175 24.7059 25.7953 25.0405 25.7953 25.4274C25.7953 25.668 25.7064 25.8614 25.5286 26.0078L25.2619 26.2431Z" fill="#111928"/>
<path d="M32.2277 26.2431C32.2277 26.2431 32.1179 26.2431 31.8983 26.2431C31.6787 26.2431 31.4905 26.1647 31.3336 26.0078C31.1767 25.851 31.0931 25.6523 31.0826 25.4118C31.0826 25.1712 31.1611 24.9725 31.3179 24.8157C31.3702 24.7634 31.3964 24.732 31.3964 24.7215C31.3964 24.7111 31.3441 24.7006 31.2395 24.6902C30.9676 24.6483 30.7114 24.6274 30.4708 24.6274C29.9584 24.6274 29.5401 24.7947 29.2159 25.1294C28.7244 25.6209 28.4786 26.4418 28.4786 27.5922C28.4786 28.4497 28.6407 29.1243 28.9649 29.6158C29.3937 30.2537 29.9689 30.5727 30.6905 30.5727C31.1192 30.5727 31.4643 30.4367 31.7258 30.1648C31.9872 29.8929 32.1755 29.5687 32.2905 29.1922C32.3114 29.1086 32.3376 29.0563 32.3689 29.0354C32.4003 29.0145 32.484 29.004 32.6199 29.004H32.8395C32.9023 29.0667 32.9336 29.1138 32.9336 29.1452C32.9336 29.187 32.9127 29.2707 32.8709 29.3962C32.8291 29.5217 32.7454 29.6942 32.6199 29.9138C32.4944 30.1334 32.3428 30.3321 32.165 30.5099C31.9872 30.6877 31.7362 30.8498 31.412 30.9962C31.0878 31.1426 30.7271 31.2106 30.3297 31.2001C29.4303 31.2001 28.646 30.8655 27.9767 30.1962C27.3074 29.5269 26.9675 28.685 26.957 27.6706C26.957 26.583 27.2969 25.6993 27.9767 25.0196C28.6564 24.3398 29.446 24 30.3453 24C31.2447 24 31.8722 24.1411 32.2277 24.4235C32.5833 24.7059 32.7611 25.0405 32.7611 25.4274C32.7611 25.668 32.6722 25.8614 32.4944 26.0078L32.2277 26.2431Z" fill="#111928"/>
<path d="M33.8281 27.6708C33.8281 26.6773 34.168 25.8197 34.8478 25.0982C35.5275 24.3766 36.3484 24.0105 37.3106 24.0001C38.2518 24.0001 39.0622 24.3557 39.742 25.0668C40.4217 25.7779 40.7669 26.6407 40.7773 27.6551C40.7773 28.6486 40.4427 29.4852 39.7734 30.1649C39.1041 30.8447 38.2831 31.1846 37.3106 31.1846C36.2962 31.1846 35.4648 30.8342 34.8164 30.1336C34.168 29.4329 33.8386 28.612 33.8281 27.6708ZM37.3106 30.5571C38.5864 30.5571 39.2243 29.7048 39.2243 28.0002V27.4982V27.106C39.2243 26.876 39.2191 26.6773 39.2086 26.5099C39.1982 26.3426 39.1616 26.1439 39.0988 25.9139C39.0361 25.6838 38.9524 25.4955 38.8479 25.3491C38.7433 25.2027 38.5812 25.0563 38.3616 24.9099C38.142 24.7635 37.8857 24.6589 37.5929 24.5962C37.5406 24.5857 37.457 24.5805 37.3419 24.5805C37.0282 24.5805 36.7302 24.6432 36.4478 24.7687C35.9981 24.9988 35.7053 25.3178 35.5693 25.7256C35.4334 26.1335 35.3654 26.6145 35.3654 27.1688V27.4825C35.3654 28.4865 35.4648 29.1924 35.6635 29.6002C35.9981 30.2381 36.5471 30.5571 37.3106 30.5571Z" fill="#111928"/>
<path d="M45.8589 26.0707C45.8589 25.6524 45.7177 25.2916 45.4354 24.9883C45.153 24.685 44.7452 24.5334 44.2118 24.5334C43.8353 24.5334 43.5112 24.6013 43.2393 24.7373C42.9255 24.936 42.7687 25.2079 42.7687 25.553C42.7582 25.6053 42.7582 25.6733 42.7687 25.7569C42.7791 25.8406 42.8628 25.9661 43.0196 26.1334C43.1765 26.3007 43.4014 26.4315 43.6942 26.5256C43.8824 26.5779 44.1125 26.6249 44.3844 26.6668C44.6563 26.7086 44.8864 26.7556 45.0746 26.8079C45.2628 26.8602 45.4302 26.9282 45.5766 27.0119C45.7543 27.0955 45.9269 27.2001 46.0942 27.3256C46.2615 27.4511 46.4289 27.6655 46.5962 27.9687C46.7635 28.272 46.8524 28.5962 46.8629 28.9413C46.8629 29.5897 46.6642 30.123 46.2668 30.5414C45.8694 30.9597 45.2262 31.1741 44.3373 31.1845H44.2118C43.668 31.1845 43.1661 30.9963 42.7059 30.6198L42.5804 30.7296L42.4392 30.8708C42.3765 30.9335 42.3137 30.991 42.251 31.0433L42.0784 31.2002H41.9529H41.8902C41.8588 31.2002 41.8118 31.1688 41.749 31.1061V29.8668V28.957C41.749 28.7374 41.7595 28.6067 41.7804 28.5648C41.8013 28.523 41.8536 28.4969 41.9373 28.4864H42.0784C42.2039 28.4864 42.2876 28.5073 42.3294 28.5492C42.3713 28.591 42.3974 28.6537 42.4079 28.7374C42.4183 28.8211 42.4549 28.9622 42.5177 29.1609C42.5804 29.3596 42.6798 29.5792 42.8157 29.8198C43.1817 30.3531 43.6889 30.6198 44.3373 30.6198C45.3517 30.6198 45.8589 30.2119 45.8589 29.3962C45.8589 29.093 45.7648 28.8472 45.5766 28.659C45.3674 28.408 44.9334 28.2197 44.2746 28.0942C43.6157 27.9687 43.1817 27.8485 42.9726 27.7334C42.5961 27.5557 42.2981 27.3151 42.0784 27.0119C41.8588 26.7086 41.749 26.3844 41.749 26.0393C41.749 25.6314 41.8379 25.2863 42.0157 25.004C42.1935 24.7216 42.4183 24.5125 42.6902 24.3765C42.9621 24.2406 43.2236 24.1464 43.4746 24.0941C43.7255 24.0419 43.9556 24.0157 44.1648 24.0157H44.3373C44.7556 24.0157 45.1217 24.0941 45.4354 24.251L45.6707 24.3765L45.8119 24.2667C45.9164 24.1726 46.0315 24.0837 46.157 24H46.2825H46.3452C46.3766 24 46.4236 24.0314 46.4864 24.0941V26.1648L46.3923 26.2589H45.953C45.8903 26.1962 45.8589 26.1334 45.8589 26.0707Z" fill="#111928"/>
</svg>
