<svg width="52" height="52" viewBox="0 0 52 52" fill="none" xmlns="http://www.w3.org/2000/svg">
<rect width="52" height="52" rx="4" fill="#D0F0FD"/>
<path d="M7.6375 26.1852C7.6375 26.1852 7.52092 26.1852 7.28775 26.1852C7.05457 26.1852 6.8585 26.1057 6.69952 25.9467C6.54054 25.7877 6.46104 25.5811 6.46104 25.3267C6.46104 24.9557 6.64122 24.6272 7.00158 24.341C7.36194 24.0548 8.00316 23.9118 8.92525 23.9118C9.69896 23.9118 10.3243 24.0813 10.8012 24.4205C11.2782 24.7597 11.5961 25.1624 11.7551 25.6288C11.8081 25.7771 11.8346 25.9414 11.8346 26.1216C11.8346 26.3018 11.8399 26.9112 11.8505 27.9499V29.0627C11.8505 29.5715 11.877 29.9212 11.93 30.112C11.983 30.3028 12.0943 30.3982 12.2638 30.3982C12.4228 30.3982 12.5288 30.3134 12.5818 30.1438C12.6348 29.9742 12.6613 29.6934 12.6613 29.3012V28.7289H13.2972V29.3489C13.2866 29.7729 13.2707 30.0219 13.2495 30.0961C13.1541 30.4141 12.9687 30.6631 12.6931 30.8433C12.4175 31.0235 12.1261 31.1189 11.8187 31.1295C11.5113 31.1401 11.2623 31.0447 11.0715 30.8433C10.8807 30.642 10.7535 30.4194 10.6899 30.1756V30.112L10.6581 30.1597C10.6369 30.1915 10.6104 30.2233 10.5786 30.2551C10.5469 30.2869 10.5045 30.3346 10.4515 30.3982C10.3985 30.4618 10.3349 30.5201 10.2607 30.5731C10.1865 30.6261 10.107 30.6896 10.0222 30.7638C9.93743 30.838 9.84204 30.8963 9.73605 30.9387C9.63006 30.9811 9.51348 31.0235 9.38629 31.0659C9.25911 31.1083 9.12133 31.1401 8.97294 31.1613C8.82456 31.1825 8.66028 31.1984 8.4801 31.209C7.84418 31.209 7.27185 31.0447 6.76311 30.7161C6.25437 30.3876 6 29.9265 6 29.333C6 29.1104 6.0371 28.8985 6.11129 28.6971C6.18548 28.4957 6.32856 28.2784 6.54054 28.0453C6.75251 27.8121 7.00688 27.616 7.30364 27.457C7.60041 27.2981 8.01376 27.1497 8.54369 27.0119C9.07363 26.8741 9.65656 26.7946 10.2925 26.7734H10.5151V26.4237C10.5151 26.0633 10.4833 25.7983 10.4197 25.6288C10.1865 24.8762 9.67246 24.5 8.87755 24.5C8.68678 24.5 8.5066 24.5053 8.33702 24.5159C8.16744 24.5265 8.03496 24.5477 7.93957 24.5795C7.84418 24.6113 7.80178 24.6272 7.81238 24.6272C8.04555 24.7862 8.16214 25.0193 8.16214 25.3267C8.16214 25.5917 8.07735 25.7983 7.90777 25.9467L7.6375 26.1852ZM7.46262 29.3489C7.46262 29.6775 7.58981 29.9689 7.84418 30.2233C8.09855 30.4777 8.41121 30.6102 8.78217 30.6208C9.18492 30.6208 9.53997 30.4989 9.84734 30.2551C10.1547 30.0113 10.3614 29.6934 10.4674 29.3012C10.4886 29.227 10.5045 28.8773 10.5151 28.2519C10.5151 27.6372 10.5098 27.3299 10.4992 27.3299C10.4144 27.3299 10.3031 27.3351 10.1653 27.3457C10.0275 27.3563 9.78904 27.404 9.44989 27.4888C9.11073 27.5736 8.80336 27.6796 8.5278 27.8068C8.25223 27.934 8.00846 28.1301 7.79648 28.395C7.58451 28.66 7.47322 28.978 7.46262 29.3489Z" fill="#111928"/>
<path d="M13.978 30.3029H14.2006C14.6139 30.3029 14.863 30.2287 14.9478 30.0803V29.9531C14.9478 29.8577 14.9478 29.7358 14.9478 29.5875C14.9478 29.4391 14.9531 29.2748 14.9637 29.0946C14.9743 28.9144 14.9743 28.7078 14.9637 28.4746C14.9531 28.2414 14.9531 28.0188 14.9637 27.8069C14.9637 27.4783 14.9637 27.1285 14.9637 26.7576C14.9637 26.3866 14.9637 26.074 14.9637 25.8196L14.9478 25.4539C14.916 25.2526 14.8418 25.1201 14.7252 25.0565C14.6086 24.9929 14.3702 24.9452 14.0098 24.9134H13.7236V24.5478C13.7236 24.304 13.7342 24.1821 13.7554 24.1821L13.9144 24.1662C14.0204 24.1556 14.1688 24.145 14.3596 24.1344C14.5503 24.1238 14.7411 24.1132 14.9319 24.1026C15.1015 24.092 15.2869 24.0814 15.4883 24.0708C15.6897 24.0602 15.8434 24.0443 15.9494 24.0231C16.0554 24.0019 16.1136 23.9966 16.1242 24.0072H16.1719V25.1042C16.5853 24.3835 17.0993 24.0231 17.7141 24.0231H17.8094C18.2864 24.0231 18.6361 24.1397 18.8587 24.3729C19.0813 24.6061 19.1926 24.8498 19.1926 25.1042C19.1926 25.3268 19.1237 25.5175 18.9859 25.6765C18.8481 25.8355 18.6467 25.915 18.3818 25.915C18.1168 25.915 17.9207 25.8302 17.7935 25.6606C17.6664 25.491 17.5975 25.3109 17.5869 25.1201C17.5869 25.0247 17.5975 24.9399 17.6187 24.8657C17.6399 24.7915 17.6664 24.7279 17.6982 24.6749C17.73 24.6219 17.7458 24.5955 17.7458 24.5955C17.7247 24.5743 17.6028 24.5955 17.3802 24.659C17.2106 24.7438 17.0834 24.8233 16.9986 24.8975C16.5005 25.3745 16.2514 26.323 16.2514 27.7433V28.5859C16.2514 28.7237 16.2514 28.8667 16.2514 29.0151C16.2514 29.1635 16.2514 29.3013 16.2514 29.4285C16.2514 29.5557 16.2567 29.6616 16.2673 29.7464C16.2779 29.8312 16.2779 29.9107 16.2673 29.9849V30.0644C16.2779 30.0856 16.2938 30.1068 16.315 30.128C16.3362 30.1492 16.3627 30.1651 16.3945 30.1757C16.4263 30.1863 16.4528 30.2022 16.474 30.2234C16.4952 30.2446 16.5323 30.2552 16.5853 30.2552C16.6383 30.2552 16.6754 30.2605 16.6966 30.2711C16.7178 30.2817 16.7655 30.287 16.8397 30.287C16.9138 30.287 16.9615 30.287 16.9827 30.287C17.0039 30.287 17.0569 30.2923 17.1417 30.3029C17.2265 30.3135 17.2795 30.3135 17.3007 30.3029H17.7935V31.0342H17.6505C17.4597 31.0024 16.7867 30.9865 15.6314 30.9865C14.5397 30.9865 13.9462 31.0024 13.8508 31.0342H13.7236V30.3029H13.978Z" fill="#111928"/>
<path d="M25.5214 26.1851C25.5214 26.1851 25.4102 26.1851 25.1876 26.1851C24.965 26.1851 24.7742 26.1056 24.6153 25.9466C24.4563 25.7877 24.3715 25.5863 24.3609 25.3425C24.3609 25.0987 24.4404 24.8974 24.5994 24.7384C24.6523 24.6854 24.6788 24.6536 24.6788 24.643C24.6788 24.6324 24.6259 24.6218 24.5199 24.6112C24.2443 24.5688 23.9846 24.5476 23.7409 24.5476C23.2215 24.5476 22.7976 24.7172 22.469 25.0563C21.9709 25.5545 21.7218 26.3865 21.7218 27.5523C21.7218 28.4214 21.8861 29.1051 22.2146 29.6032C22.6492 30.2497 23.2321 30.573 23.9634 30.573C24.398 30.573 24.7477 30.4352 25.0127 30.1596C25.2777 29.8841 25.4685 29.5555 25.585 29.1739C25.6062 29.0892 25.6327 29.0362 25.6645 29.015C25.6963 28.9938 25.7811 28.9832 25.9189 28.9832H26.1415C26.2051 29.0468 26.2369 29.0945 26.2369 29.1263C26.2369 29.1686 26.2157 29.2534 26.1733 29.3806C26.1309 29.5078 26.0461 29.6827 25.9189 29.9053C25.7917 30.1278 25.638 30.3292 25.4579 30.5094C25.2777 30.6896 25.0233 30.8538 24.6947 31.0022C24.3662 31.1506 24.0005 31.2195 23.5978 31.2089C22.6863 31.2089 21.8914 30.8697 21.2131 30.1914C20.5347 29.5131 20.1903 28.6599 20.1797 27.6318C20.1797 26.5296 20.5241 25.634 21.2131 24.9451C21.902 24.2561 22.7022 23.9117 23.6137 23.9117C24.5252 23.9117 25.1611 24.0548 25.5214 24.3409C25.8818 24.6271 26.062 24.9663 26.062 25.3584C26.062 25.6022 25.9719 25.7983 25.7917 25.9466L25.5214 26.1851Z" fill="#111928"/>
<path d="M31.388 26.0103C31.388 25.5864 31.2449 25.2207 30.9587 24.9133C30.6725 24.606 30.2592 24.4523 29.7187 24.4523C29.3371 24.4523 29.0085 24.5212 28.733 24.659C28.415 24.8603 28.256 25.1359 28.256 25.4857C28.2454 25.5387 28.2454 25.6076 28.256 25.6923C28.2666 25.7771 28.3514 25.9043 28.5104 26.0739C28.6694 26.2435 28.8973 26.376 29.194 26.4714C29.3848 26.5243 29.618 26.572 29.8935 26.6144C30.1691 26.6568 30.4023 26.7045 30.5931 26.7575C30.7838 26.8105 30.9534 26.8794 31.1018 26.9642C31.282 27.049 31.4568 27.155 31.6264 27.2822C31.796 27.4093 31.9656 27.6266 32.1352 27.934C32.3047 28.2413 32.3948 28.5699 32.4054 28.9197C32.4054 29.5768 32.2041 30.1173 31.8013 30.5413C31.3986 30.9652 30.7467 31.1825 29.8458 31.1931H29.7187C29.1675 31.1931 28.6588 31.0023 28.1924 30.6208L28.0653 30.732L27.9222 30.8751C27.8586 30.9387 27.795 30.997 27.7314 31.05L27.5565 31.209H27.4293H27.3657C27.3339 31.209 27.2862 31.1772 27.2227 31.1136V29.8576V28.9356C27.2227 28.713 27.2333 28.5805 27.2545 28.5381C27.2756 28.4957 27.3286 28.4692 27.4134 28.4586H27.5565C27.6837 28.4586 27.7685 28.4798 27.8109 28.5222C27.8533 28.5646 27.8798 28.6282 27.8904 28.713C27.901 28.7978 27.9381 28.9409 28.0017 29.1422C28.0653 29.3436 28.1659 29.5662 28.3037 29.81C28.6747 30.3505 29.1887 30.6208 29.8458 30.6208C30.8739 30.6208 31.388 30.2074 31.388 29.3807C31.388 29.0733 31.2926 28.8243 31.1018 28.6335C30.8898 28.3791 30.45 28.1883 29.7822 28.0612C29.1145 27.934 28.6747 27.8121 28.4627 27.6955C28.0812 27.5153 27.7791 27.2716 27.5565 26.9642C27.3339 26.6568 27.2227 26.3283 27.2227 25.9785C27.2227 25.5652 27.3127 25.2154 27.4929 24.9292C27.6731 24.6431 27.901 24.4311 28.1765 24.2933C28.4521 24.1555 28.7171 24.0601 28.9714 24.0071C29.2258 23.9542 29.459 23.9277 29.671 23.9277H29.8458C30.2698 23.9277 30.6407 24.0071 30.9587 24.1661L31.1972 24.2933L31.3403 24.182C31.4462 24.0866 31.5628 23.9966 31.69 23.9118H31.8172H31.8808C31.9126 23.9118 31.9603 23.9436 32.0239 24.0071V26.1057L31.9285 26.2011H31.4833C31.4198 26.1375 31.388 26.0739 31.388 26.0103Z" fill="#111928"/>
<path d="M34.0576 21.3522C34.0576 21.0555 34.153 20.8223 34.3438 20.6527C34.5346 20.4831 34.7678 20.3984 35.0433 20.3984C35.2871 20.4196 35.4991 20.5096 35.6792 20.6686C35.8594 20.8276 35.9495 21.0555 35.9495 21.3522C35.9495 21.6702 35.8594 21.9087 35.6792 22.0677C35.4991 22.2266 35.2765 22.3061 35.0115 22.3061C34.7466 22.3061 34.524 22.2266 34.3438 22.0677C34.1636 21.9087 34.0682 21.6702 34.0576 21.3522ZM36.8875 31.0342C36.7285 31.0024 36.1774 30.9865 35.2341 30.9865C35.1175 30.9865 34.9214 30.9865 34.6459 30.9865C34.3703 30.9865 34.1053 30.9971 33.851 31.0183L33.5012 31.0342H33.374V30.3029H33.6284C33.9252 30.3029 34.1848 30.287 34.4074 30.2552C34.5028 30.2128 34.5611 30.1545 34.5823 30.0803C34.6035 30.0061 34.6141 29.7835 34.6141 29.4126V27.7751V26.376C34.6141 25.8249 34.6035 25.4751 34.5823 25.3268C34.5611 25.1784 34.4869 25.0777 34.3597 25.0247C34.2113 24.9505 33.9623 24.9134 33.6125 24.9134H33.4376V24.5478C33.4376 24.304 33.4482 24.1821 33.4694 24.1821L33.6284 24.1662C33.7344 24.1556 33.8828 24.145 34.0735 24.1344C34.2643 24.1238 34.4551 24.1132 34.6459 24.1026C34.826 24.092 35.0168 24.0814 35.2182 24.0708C35.4196 24.0602 35.5733 24.0443 35.6792 24.0231C35.7852 24.0019 35.8435 23.9966 35.8541 24.0072H35.9018V30.0485C35.9548 30.1545 36.0184 30.2181 36.0926 30.2393C36.1668 30.2605 36.3523 30.2817 36.649 30.3029H37.0147V31.0342H36.8875Z" fill="#111928"/>
<path d="M38.0346 30.3029H38.2572C38.6706 30.3029 38.9196 30.2287 39.0044 30.0803V29.9531C39.0044 29.8577 39.0044 29.7358 39.0044 29.5875C39.0044 29.4391 39.0044 29.2748 39.0044 29.0946C39.0044 28.9144 39.0097 28.7078 39.0203 28.4746C39.0309 28.2414 39.0309 28.0188 39.0203 27.8069C39.0203 27.4783 39.0203 27.1285 39.0203 26.7576C39.0203 26.3866 39.015 26.074 39.0044 25.8196V25.4539C38.9726 25.2526 38.8984 25.1201 38.7819 25.0565C38.6653 24.9929 38.4268 24.9452 38.0664 24.9134H37.7803V24.5478C37.7803 24.304 37.7909 24.1821 37.8121 24.1821L37.9711 24.1662C38.077 24.1556 38.2254 24.145 38.4162 24.1344C38.607 24.1238 38.8031 24.1132 39.0044 24.1026C39.1846 24.092 39.3754 24.0814 39.5768 24.0708C39.7781 24.0602 39.9318 24.0443 40.0378 24.0231C40.1438 24.0019 40.2021 23.9966 40.2127 24.0072H40.2604V24.6431C40.2604 25.0459 40.2657 25.2473 40.2763 25.2473C40.2869 25.2473 40.3134 25.2208 40.3558 25.1678C40.3982 25.1148 40.4618 25.0353 40.5465 24.9293C40.6313 24.8233 40.732 24.7279 40.8486 24.6431C40.9652 24.5584 41.1189 24.4577 41.3096 24.3411C41.5004 24.2245 41.7018 24.1397 41.9138 24.0867C42.1258 24.0337 42.396 24.0072 42.7246 24.0072C43.9328 24.0496 44.6059 24.6484 44.7436 25.8037C44.7542 25.8779 44.7595 26.6145 44.7595 28.0135V29.3808C44.7595 29.7835 44.7701 30.022 44.7913 30.0962C44.8125 30.1704 44.8708 30.2234 44.9662 30.2552C45.1888 30.287 45.4485 30.3029 45.7452 30.3029H45.9996V31.0342H45.8724L45.4908 31.0183C45.2471 31.0077 44.9821 31.0024 44.6959 31.0024C44.4098 31.0024 44.2084 30.9971 44.0918 30.9865C43.0001 30.9865 42.4066 31.0024 42.3112 31.0342H42.184V30.3029H42.4384C43.0849 30.3029 43.4082 30.2181 43.4082 30.0485C43.4188 30.0273 43.4241 29.296 43.4241 27.8546C43.4135 26.4237 43.4029 25.6659 43.3923 25.5811C43.3287 25.2844 43.2227 25.0618 43.0743 24.9134C42.926 24.765 42.7988 24.6749 42.6928 24.6431C42.5868 24.6114 42.449 24.6008 42.2794 24.6114C41.8025 24.6114 41.3838 24.7915 41.0235 25.1519C40.7373 25.4381 40.5571 25.7295 40.4829 26.0263C40.4088 26.323 40.3664 26.7629 40.3558 27.3458V28.3633V29.3172C40.3558 29.6351 40.3611 29.8471 40.3717 29.9531C40.3823 30.0591 40.3982 30.128 40.4194 30.1598C40.4406 30.1916 40.4882 30.2234 40.5624 30.2552C40.785 30.287 41.0447 30.3029 41.3414 30.3029H41.5958V31.0342H41.4686L41.103 31.0183C40.8486 31.0077 40.5783 31.0024 40.2922 31.0024C40.006 31.0024 39.8046 30.9971 39.688 30.9865C38.5964 30.9865 38.0028 31.0024 37.9075 31.0342H37.7803V30.3029H38.0346Z" fill="#111928"/>
</svg>
