<svg width="52" height="52" viewBox="0 0 52 52" fill="none" xmlns="http://www.w3.org/2000/svg">
<path d="M40.1834 27.27L39.5534 30H38.0534L39.2833 24.675C39.3533 24.385 39.3883 24.195 39.3883 24.105C39.3883 23.865 39.2983 23.745 39.1183 23.745C38.9783 23.745 38.7933 23.825 38.5633 23.985C38.3433 24.135 38.1233 24.325 37.9033 24.555C37.8333 24.505 37.7683 24.455 37.7083 24.405C37.6583 24.355 37.6083 24.3 37.5583 24.24C37.9583 23.77 38.3684 23.42 38.7884 23.19C39.2184 22.95 39.6183 22.83 39.9883 22.83C40.3283 22.83 40.5683 22.915 40.7083 23.085C40.8483 23.255 40.9183 23.455 40.9183 23.685C40.9183 23.805 40.8984 23.95 40.8584 24.12C40.8284 24.28 40.7984 24.45 40.7684 24.63H40.8133C41.1933 24.02 41.6384 23.565 42.1484 23.265C42.6684 22.955 43.1684 22.8 43.6484 22.8C44.1284 22.8 44.4933 22.935 44.7433 23.205C45.0033 23.465 45.1333 23.785 45.1333 24.165C45.1333 24.375 45.0933 24.655 45.0133 25.005C44.9433 25.355 44.8533 25.73 44.7433 26.13C44.6333 26.53 44.5234 26.925 44.4134 27.315C44.3034 27.695 44.2084 28.035 44.1284 28.335C44.0584 28.625 44.0234 28.83 44.0234 28.95C44.0234 29.02 44.0433 29.0851 44.0833 29.1451C44.1233 29.205 44.1934 29.2351 44.2934 29.2351C44.4634 29.2351 44.6783 29.145 44.9383 28.965C45.1983 28.785 45.4334 28.5651 45.6434 28.305C45.7734 28.3951 45.8884 28.495 45.9884 28.605C45.6484 29.055 45.2784 29.43 44.8784 29.73C44.4884 30.03 44.0534 30.18 43.5734 30.18C43.2034 30.18 42.9333 30.09 42.7633 29.91C42.5933 29.72 42.5083 29.485 42.5083 29.205C42.5083 29.005 42.5434 28.74 42.6134 28.41C42.6934 28.08 42.7884 27.72 42.8984 27.33C43.0084 26.94 43.1134 26.555 43.2134 26.175C43.3234 25.785 43.4134 25.43 43.4834 25.11C43.5634 24.79 43.6033 24.54 43.6033 24.36C43.6033 24.16 43.5584 23.995 43.4684 23.865C43.3784 23.735 43.2184 23.67 42.9884 23.67C42.6984 23.67 42.3733 23.795 42.0133 24.045C41.6533 24.295 41.3083 24.675 40.9783 25.185C40.6583 25.695 40.4034 26.35 40.2134 27.15L40.1834 27.27Z" fill="#454545"/>
<path d="M36.7977 28.3049C36.9277 28.3949 37.0427 28.4949 37.1427 28.6049C36.8027 29.0549 36.4327 29.4299 36.0327 29.7299C35.6427 30.0299 35.2077 30.1799 34.7277 30.1799C34.3577 30.1799 34.0877 30.0899 33.9177 29.9099C33.7477 29.7199 33.6627 29.4699 33.6627 29.1599C33.6627 29.0499 33.6727 28.9349 33.6927 28.8149C33.7127 28.6849 33.7377 28.5549 33.7677 28.4249L34.6677 24.6749C34.7377 24.3849 34.7727 24.1949 34.7727 24.1049C34.7727 23.8649 34.6827 23.7449 34.5027 23.7449C34.3627 23.7449 34.1777 23.8249 33.9477 23.9849C33.7277 24.1349 33.5077 24.3249 33.2877 24.5549C33.2177 24.5049 33.1527 24.4549 33.0927 24.4049C33.0427 24.3549 32.9927 24.2999 32.9427 24.2399C33.3427 23.7699 33.7527 23.4199 34.1727 23.1899C34.6027 22.9499 35.0027 22.8299 35.3727 22.8299C35.7127 22.8299 35.9527 22.9199 36.0927 23.0999C36.2427 23.2699 36.3177 23.4849 36.3177 23.7449C36.3177 23.8349 36.3077 23.9349 36.2877 24.0449C36.2777 24.1449 36.2627 24.2499 36.2427 24.3599L35.2827 28.3499C35.2727 28.4199 35.2527 28.5099 35.2227 28.6199C35.1927 28.7199 35.1777 28.8199 35.1777 28.9199C35.1777 29.0099 35.1977 29.0849 35.2377 29.1449C35.2777 29.2049 35.3477 29.2349 35.4477 29.2349C35.6177 29.2349 35.8327 29.1449 36.0927 28.9649C36.3527 28.7849 36.5877 28.5649 36.7977 28.3049ZM36.1077 21.0899C35.8377 21.0899 35.6177 20.9999 35.4477 20.8199C35.2777 20.6399 35.1927 20.4199 35.1927 20.1599C35.1927 19.8599 35.2977 19.6049 35.5077 19.3949C35.7277 19.1749 35.9877 19.0649 36.2877 19.0649C36.5577 19.0649 36.7727 19.1549 36.9327 19.3349C37.0927 19.5049 37.1727 19.7199 37.1727 19.9799C37.1727 20.2799 37.0727 20.5399 36.8727 20.7599C36.6727 20.9799 36.4177 21.0899 36.1077 21.0899Z" fill="#454545"/>
<path d="M29.07 30.1799C28.28 30.1799 27.675 30.0399 27.255 29.7599C26.835 29.4799 26.625 29.1849 26.625 28.8749C26.625 28.7049 26.69 28.5449 26.82 28.3949C26.95 28.2449 27.14 28.1699 27.39 28.1699C27.64 28.1699 27.84 28.2399 27.99 28.3799C28.15 28.5199 28.27 28.6999 28.35 28.9199C28.44 29.1399 28.5 29.3599 28.53 29.5799C28.64 29.6099 28.745 29.6299 28.845 29.6399C28.955 29.6499 29.06 29.6549 29.16 29.6549C29.57 29.6549 29.915 29.5699 30.195 29.3999C30.475 29.2199 30.615 28.9549 30.615 28.6049C30.615 28.2949 30.495 28.0349 30.255 27.8249C30.015 27.6049 29.665 27.3399 29.205 27.0299C28.935 26.8399 28.675 26.6449 28.425 26.4449C28.175 26.2349 27.97 26.0049 27.81 25.7549C27.65 25.5049 27.57 25.2249 27.57 24.9149C27.57 24.5949 27.665 24.2749 27.855 23.9549C28.055 23.6249 28.365 23.3549 28.785 23.1449C29.205 22.9249 29.74 22.8149 30.39 22.8149C31.11 22.8149 31.65 22.9399 32.01 23.1899C32.37 23.4399 32.55 23.7099 32.55 23.9999C32.55 24.1499 32.495 24.3049 32.385 24.4649C32.285 24.6249 32.105 24.7049 31.845 24.7049C31.515 24.7049 31.26 24.5749 31.08 24.3149C30.91 24.0449 30.805 23.7599 30.765 23.4599C30.555 23.4099 30.345 23.3849 30.135 23.3849C29.735 23.3849 29.43 23.4799 29.22 23.6699C29.01 23.8499 28.905 24.0849 28.905 24.3749C28.905 24.6849 29.025 24.9549 29.265 25.1849C29.515 25.4049 29.875 25.6749 30.345 25.9949C30.615 26.1749 30.875 26.3699 31.125 26.5799C31.375 26.7799 31.58 27.0099 31.74 27.2699C31.9 27.5199 31.98 27.8199 31.98 28.1699C31.98 28.5899 31.855 28.9499 31.605 29.2499C31.355 29.5499 31.01 29.7799 30.57 29.9399C30.13 30.0999 29.63 30.1799 29.07 30.1799Z" fill="#454545"/>
<path d="M23.149 30.1799C22.379 30.1799 21.774 29.9399 21.334 29.4599C20.904 28.9799 20.689 28.3349 20.689 27.5249C20.689 26.8749 20.819 26.2649 21.079 25.6949C21.339 25.1249 21.684 24.6249 22.114 24.1949C22.544 23.7649 23.019 23.4299 23.539 23.1899C24.059 22.9399 24.574 22.8149 25.084 22.8149C25.554 22.8149 25.944 22.9149 26.254 23.1149C26.564 23.3149 26.719 23.5699 26.719 23.8799C26.719 24.0899 26.649 24.2649 26.509 24.4049C26.369 24.5449 26.184 24.6149 25.954 24.6149C25.734 24.6149 25.509 24.5299 25.279 24.3599C25.049 24.1799 24.909 23.8699 24.859 23.4299C24.489 23.4399 24.144 23.5799 23.824 23.8499C23.514 24.1199 23.244 24.4649 23.014 24.8849C22.784 25.3049 22.604 25.7499 22.474 26.2199C22.344 26.6899 22.279 27.1349 22.279 27.5549C22.279 27.9849 22.374 28.3599 22.564 28.6799C22.754 28.9999 23.109 29.1599 23.629 29.1599C24.059 29.1599 24.454 29.0449 24.814 28.8149C25.184 28.5849 25.504 28.2799 25.774 27.8999C25.934 27.9799 26.054 28.0749 26.134 28.1849C25.944 28.5249 25.709 28.8499 25.429 29.1599C25.159 29.4599 24.834 29.7049 24.454 29.8949C24.084 30.0849 23.649 30.1799 23.149 30.1799Z" fill="#454545"/>
<path d="M16.4217 30H14.9217L16.1517 24.675C16.2217 24.385 16.2567 24.195 16.2567 24.105C16.2567 23.865 16.1667 23.745 15.9867 23.745C15.8467 23.745 15.6617 23.825 15.4317 23.985C15.2117 24.135 14.9917 24.325 14.7717 24.555C14.7017 24.505 14.6367 24.455 14.5767 24.405C14.5267 24.355 14.4767 24.3 14.4267 24.24C14.8267 23.77 15.2417 23.42 15.6717 23.19C16.1017 22.95 16.5017 22.83 16.8717 22.83C17.2017 22.83 17.4217 22.91 17.5317 23.07C17.6417 23.22 17.6967 23.4 17.6967 23.61C17.6967 23.74 17.6767 23.895 17.6367 24.075C17.5967 24.245 17.5167 24.535 17.3967 24.945L16.9167 26.49L17.0067 26.505C17.5267 25.255 18.0367 24.325 18.5367 23.715C19.0367 23.105 19.5767 22.8 20.1567 22.8C20.5067 22.8 20.7517 22.89 20.8917 23.07C21.0417 23.25 21.1167 23.445 21.1167 23.655C21.1167 23.905 21.0367 24.1 20.8767 24.24C20.7167 24.38 20.5267 24.45 20.3067 24.45C20.1467 24.45 19.9767 24.41 19.7967 24.33C19.6167 24.24 19.4667 24.1 19.3467 23.91C19.0367 24.11 18.7017 24.475 18.3417 25.005C17.9817 25.525 17.6317 26.205 17.2917 27.045C16.9617 27.875 16.6717 28.86 16.4217 30Z" fill="#454545"/>
<path d="M8.19 30.1651C7.88 30.1651 7.585 30.085 7.305 29.925C7.025 29.755 6.8 29.495 6.63 29.1451C6.46 28.7951 6.375 28.345 6.375 27.795C6.375 27.115 6.505 26.475 6.765 25.875C7.025 25.275 7.365 24.745 7.785 24.285C8.205 23.825 8.665 23.465 9.165 23.205C9.675 22.935 10.175 22.8 10.665 22.8C10.855 22.8 11.07 22.83 11.31 22.89C11.55 22.94 11.8 23.03 12.06 23.16C12.27 23.13 12.485 23.1 12.705 23.07C12.935 23.04 13.17 23.005 13.41 22.965L13.455 23.025C13.335 23.445 13.23 23.845 13.14 24.225C13.05 24.595 12.96 24.975 12.87 25.365L12.18 28.335C12.17 28.405 12.15 28.495 12.12 28.605C12.09 28.715 12.075 28.82 12.075 28.92C12.075 29.01 12.095 29.0851 12.135 29.1451C12.175 29.205 12.245 29.2351 12.345 29.2351C12.515 29.2351 12.73 29.145 12.99 28.965C13.25 28.785 13.485 28.5651 13.695 28.305C13.825 28.3951 13.94 28.495 14.04 28.605C13.7 29.055 13.335 29.43 12.945 29.73C12.555 30.03 12.115 30.18 11.625 30.18C11.255 30.18 10.99 30.09 10.83 29.91C10.67 29.72 10.59 29.485 10.59 29.205C10.59 28.935 10.645 28.625 10.755 28.275H10.68C10.31 28.915 9.91 29.3901 9.48 29.7001C9.06 30.0101 8.63 30.1651 8.19 30.1651ZM11.67 24.105C11.46 23.915 11.24 23.765 11.01 23.655C10.78 23.535 10.545 23.475 10.305 23.475C9.935 23.475 9.605 23.61 9.315 23.88C9.025 24.15 8.78 24.5 8.58 24.93C8.38 25.35 8.23 25.805 8.13 26.295C8.03 26.775 7.98 27.235 7.98 27.675C7.98 28.275 8.06 28.685 8.22 28.905C8.38 29.115 8.57 29.22 8.79 29.22C9.05 29.22 9.335 29.095 9.645 28.845C9.965 28.585 10.275 28.175 10.575 27.615C10.885 27.045 11.15 26.295 11.37 25.365L11.67 24.105Z" fill="#454545"/>
</svg>
