<svg width="52" height="52" viewBox="0 0 52 52" fill="none" xmlns="http://www.w3.org/2000/svg">
<rect width="52" height="52" rx="4" fill="#D0F0FD"/>
<path d="M20.0092 25.4815C20.0092 25.4815 19.8427 25.4815 19.5097 25.4815C19.1767 25.4815 18.8912 25.3626 18.6533 25.1247C18.4155 24.8868 18.2886 24.5855 18.2727 24.2208C18.2727 23.856 18.3917 23.5547 18.6296 23.3169C18.7088 23.2376 18.7485 23.19 18.7485 23.1741C18.7485 23.1583 18.6692 23.1424 18.5106 23.1266C18.0983 23.0631 17.7098 23.0314 17.345 23.0314C16.568 23.0314 15.9336 23.2851 15.442 23.7926C14.6967 24.538 14.324 25.7828 14.324 27.5273C14.324 28.8277 14.5698 29.8505 15.0614 30.5959C15.7116 31.5632 16.5838 32.0469 17.6781 32.0469C18.3282 32.0469 18.8516 31.8408 19.248 31.4284C19.6445 31.0161 19.9299 30.5245 20.1044 29.9536C20.1361 29.8267 20.1757 29.7474 20.2233 29.7157C20.2709 29.684 20.3978 29.6681 20.6039 29.6681H20.937C21.0321 29.7633 21.0797 29.8347 21.0797 29.8822C21.0797 29.9457 21.048 30.0725 20.9845 30.2628C20.9211 30.4531 20.7942 30.7148 20.6039 31.0478C20.4136 31.3809 20.1837 31.6822 19.9141 31.9518C19.6445 32.2214 19.2639 32.4672 18.7723 32.6892C18.2807 32.9112 17.7336 33.0143 17.1309 32.9984C15.7671 32.9984 14.5777 32.4909 13.5628 31.476C12.5479 30.4611 12.0325 29.1845 12.0166 27.6462C12.0166 25.9969 12.532 24.6569 13.5628 23.6261C14.5936 22.5953 15.7909 22.0799 17.1547 22.0799C18.5185 22.0799 19.4701 22.294 20.0092 22.7222C20.5484 23.1503 20.818 23.6578 20.818 24.2446C20.818 24.6093 20.6832 24.9027 20.4136 25.1247L20.0092 25.4815Z" fill="#111928"/>
<path d="M28.7851 25.2195C28.7851 24.5852 28.571 24.038 28.1428 23.5782C27.7146 23.1183 27.0962 22.8883 26.2874 22.8883C25.7165 22.8883 25.2249 22.9914 24.8126 23.1976C24.3368 23.4989 24.0989 23.9112 24.0989 24.4345C24.0831 24.5138 24.0831 24.6169 24.0989 24.7437C24.1148 24.8706 24.2417 25.0609 24.4795 25.3147C24.7174 25.5684 25.0584 25.7666 25.5024 25.9093C25.7878 25.9886 26.1367 26.06 26.5491 26.1234C26.9614 26.1869 27.3103 26.2582 27.5957 26.3375C27.8812 26.4168 28.1349 26.5199 28.3569 26.6468C28.6265 26.7736 28.8882 26.9322 29.1419 27.1225C29.3956 27.3128 29.6494 27.6379 29.9031 28.0978C30.1568 28.5577 30.2916 29.0493 30.3075 29.5726C30.3075 30.5559 30.0062 31.3646 29.4036 31.999C28.8009 32.6333 27.8257 32.9584 26.4777 32.9743H26.2874C25.4628 32.9743 24.7015 32.6888 24.0038 32.1179L23.8135 32.2844L23.5994 32.4985C23.5042 32.5937 23.4091 32.6809 23.3139 32.7602L23.0523 32.998H22.862H22.7668C22.7192 32.998 22.6479 32.9505 22.5527 32.8553V30.9761V29.5964C22.5527 29.2634 22.5686 29.0652 22.6003 29.0017C22.632 28.9383 22.7113 28.8986 22.8382 28.8828H23.0523C23.2426 28.8828 23.3694 28.9145 23.4329 28.9779C23.4963 29.0414 23.536 29.1365 23.5518 29.2634C23.5677 29.3903 23.6232 29.6043 23.7183 29.9057C23.8135 30.207 23.9641 30.54 24.1703 30.9047C24.7253 31.7135 25.4945 32.1179 26.4777 32.1179C28.016 32.1179 28.7851 31.4994 28.7851 30.2625C28.7851 29.8026 28.6424 29.4299 28.3569 29.1445C28.0397 28.7639 27.3816 28.4784 26.3825 28.2881C25.3835 28.0978 24.7253 27.9154 24.4082 27.741C23.8373 27.4714 23.3853 27.1067 23.0523 26.6468C22.7192 26.1869 22.5527 25.6953 22.5527 25.1719C22.5527 24.5534 22.6875 24.0301 22.9571 23.6019C23.2267 23.1738 23.5677 22.8566 23.98 22.6504C24.3923 22.4443 24.7888 22.3016 25.1694 22.2223C25.55 22.143 25.8989 22.1033 26.216 22.1033H26.4777C27.112 22.1033 27.6671 22.2223 28.1428 22.4601L28.4996 22.6504L28.7137 22.4839C28.8723 22.3412 29.0468 22.2064 29.2371 22.0795H29.4274H29.5225C29.5701 22.0795 29.6414 22.1271 29.7366 22.2223V25.3622L29.5939 25.505H28.9278C28.8327 25.4098 28.7851 25.3147 28.7851 25.2195Z" fill="#111928"/>
<path d="M39.9458 25.4815C39.9458 25.4815 39.7792 25.4815 39.4462 25.4815C39.1132 25.4815 38.8277 25.3626 38.5899 25.1247C38.352 24.8868 38.2251 24.5855 38.2093 24.2208C38.2093 23.856 38.3282 23.5547 38.5661 23.3169C38.6454 23.2376 38.685 23.19 38.685 23.1741C38.685 23.1583 38.6057 23.1424 38.4471 23.1266C38.0348 23.0631 37.6463 23.0314 37.2815 23.0314C36.5045 23.0314 35.8702 23.2851 35.3785 23.7926C34.6332 24.538 34.2605 25.7828 34.2605 27.5273C34.2605 28.8277 34.5063 29.8505 34.9979 30.5959C35.6481 31.5632 36.5203 32.0469 37.6146 32.0469C38.2648 32.0469 38.7881 31.8408 39.1846 31.4284C39.581 31.0161 39.8665 30.5245 40.0409 29.9536C40.0726 29.8267 40.1123 29.7474 40.1598 29.7157C40.2074 29.684 40.3343 29.6681 40.5404 29.6681H40.8735C40.9686 29.7633 41.0162 29.8347 41.0162 29.8822C41.0162 29.9457 40.9845 30.0725 40.9211 30.2628C40.8576 30.4531 40.7308 30.7148 40.5404 31.0478C40.3501 31.3809 40.1202 31.6822 39.8506 31.9518C39.581 32.2214 39.2004 32.4672 38.7088 32.6892C38.2172 32.9112 37.6701 33.0143 37.0675 32.9984C35.7036 32.9984 34.5143 32.4909 33.4993 31.476C32.4844 30.4611 31.969 29.1845 31.9531 27.6462C31.9531 25.9969 32.4685 24.6569 33.4993 23.6261C34.5301 22.5953 35.7274 22.0799 37.0912 22.0799C38.4551 22.0799 39.4066 22.294 39.9458 22.7222C40.4849 23.1503 40.7545 23.6578 40.7545 24.2446C40.7545 24.6093 40.6197 24.9027 40.3501 25.1247L39.9458 25.4815Z" fill="#111928"/>
</svg>
