<svg width="52" height="52" viewBox="0 0 52 52" fill="none" xmlns="http://www.w3.org/2000/svg">
<rect width="52" height="52" rx="4" fill="#D0F0FD"/>
<path d="M17.7427 25.4266C17.7427 25.4266 17.571 25.4266 17.2276 25.4266C16.8841 25.4266 16.5897 25.3068 16.3444 25.0671C16.0991 24.8275 15.9683 24.524 15.9519 24.1566C15.9519 23.7892 16.0746 23.4857 16.3199 23.2461C16.4017 23.1662 16.4425 23.1183 16.4425 23.1023C16.4425 23.0863 16.3608 23.0704 16.1972 23.0544C15.772 22.9905 15.3713 22.9585 14.9952 22.9585C14.1938 22.9585 13.5396 23.2141 13.0326 23.7253C12.2639 24.4761 11.8796 25.7301 11.8796 27.4873C11.8796 28.7972 12.1331 29.8275 12.6401 30.5783C13.3106 31.5527 14.2101 32.0399 15.3386 32.0399C16.0091 32.0399 16.5488 31.8323 16.9577 31.4169C17.3666 31.0016 17.661 30.5064 17.8409 29.9313C17.8736 29.8035 17.9145 29.7237 17.9635 29.6917C18.0126 29.6598 18.1434 29.6438 18.356 29.6438H18.6995C18.7976 29.7396 18.8467 29.8115 18.8467 29.8594C18.8467 29.9233 18.814 30.0511 18.7485 30.2428C18.6831 30.4345 18.5523 30.6981 18.356 31.0336C18.1598 31.369 17.9226 31.6725 17.6446 31.9441C17.3666 32.2157 16.9741 32.4633 16.4671 32.6869C15.9601 32.9105 15.3958 33.0144 14.7744 32.9984C13.3679 32.9984 12.1413 32.4872 11.0946 31.4649C10.0479 30.4425 9.51635 29.1566 9.5 27.6071C9.5 25.9457 10.0315 24.5959 11.0946 23.5576C12.1576 22.5192 13.3924 22.0001 14.7989 22.0001C16.2054 22.0001 17.1867 22.2157 17.7427 22.647C18.2988 23.0783 18.5768 23.5895 18.5768 24.1806C18.5768 24.548 18.4378 24.8435 18.1598 25.0671L17.7427 25.4266Z" fill="#111928"/>
<path d="M20.3467 27.6072C20.3467 26.0897 20.8782 24.7798 21.9413 23.6775C23.0043 22.5753 24.2881 22.0162 25.7928 22.0002C27.2647 22.0002 28.5322 22.5434 29.5952 23.6296C30.6583 24.7159 31.198 26.0338 31.2143 27.5833C31.2143 29.1008 30.691 30.3788 29.6443 31.4171C28.5976 32.4554 27.3137 32.9746 25.7928 32.9746C24.2064 32.9746 22.9062 32.4395 21.8922 31.3692C20.8782 30.2989 20.363 29.0449 20.3467 27.6072ZM25.7928 32.0161C27.788 32.0161 28.7857 30.7142 28.7857 28.1104V27.3437V26.7446C28.7857 26.3932 28.7775 26.0897 28.7611 25.8341C28.7448 25.5785 28.6875 25.275 28.5894 24.9235C28.4913 24.5721 28.3604 24.2846 28.1969 24.0609C28.0334 23.8373 27.7799 23.6136 27.4364 23.39C27.093 23.1664 26.6923 23.0066 26.2343 22.9108C26.1526 22.8948 26.0217 22.8868 25.8418 22.8868C25.3512 22.8868 24.8851 22.9827 24.4435 23.1744C23.7403 23.5258 23.2823 24.013 23.0697 24.636C22.8571 25.259 22.7508 25.9938 22.7508 26.8405V27.3197C22.7508 28.8532 22.9062 29.9315 23.2169 30.5545C23.7403 31.5289 24.5989 32.0161 25.7928 32.0161Z" fill="#111928"/>
<path d="M39.6296 25.1634C39.6296 24.5243 39.4088 23.9731 38.9671 23.5098C38.5253 23.0465 37.8873 22.8148 37.053 22.8148C36.464 22.8148 35.9568 22.9187 35.5315 23.1264C35.0407 23.4299 34.7953 23.8453 34.7953 24.3725C34.7789 24.4524 34.7789 24.5563 34.7953 24.6841C34.8116 24.8119 34.9425 25.0036 35.1879 25.2593C35.4333 25.5149 35.7851 25.7146 36.2431 25.8584C36.5376 25.9383 36.8975 26.0102 37.3229 26.0741C37.7483 26.138 38.1082 26.2099 38.4026 26.2898C38.6971 26.3696 38.9589 26.4735 39.1879 26.6013C39.466 26.7291 39.736 26.8889 39.9977 27.0806C40.2595 27.2723 40.5213 27.5999 40.783 28.0632C41.0448 28.5265 41.1838 29.0218 41.2002 29.549C41.2002 30.5396 40.8894 31.3544 40.2677 31.9935C39.646 32.6325 38.6399 32.9601 37.2493 32.976H37.053C36.2022 32.976 35.417 32.6885 34.6971 32.1133L34.5008 32.281L34.2799 32.4967C34.1818 32.5926 34.0836 32.6805 33.9855 32.7603L33.7155 33H33.5192H33.4211C33.372 33 33.2984 32.9521 33.2002 32.8562V30.963V29.573C33.2002 29.2375 33.2166 29.0378 33.2493 28.9739C33.282 28.9099 33.3638 28.87 33.4947 28.854H33.7155C33.9119 28.854 34.0427 28.886 34.1082 28.9499C34.1736 29.0138 34.2145 29.1097 34.2309 29.2375C34.2472 29.3653 34.3045 29.581 34.4026 29.8845C34.5008 30.1881 34.6562 30.5236 34.8689 30.8911C35.4415 31.7059 36.235 32.1133 37.2493 32.1133C38.8362 32.1133 39.6296 31.4902 39.6296 30.244C39.6296 29.7807 39.4824 29.4052 39.1879 29.1176C38.8607 28.7342 38.1818 28.4466 37.1511 28.2549C36.1204 28.0632 35.4415 27.8794 35.1143 27.7037C34.5253 27.4321 34.0591 27.0646 33.7155 26.6013C33.372 26.138 33.2002 25.6427 33.2002 25.1155C33.2002 24.4924 33.3393 23.9651 33.6174 23.5338C33.8955 23.1024 34.2472 22.7829 34.6726 22.5752C35.0979 22.3675 35.5069 22.2237 35.8996 22.1438C36.2922 22.0639 36.6521 22.024 36.9793 22.024H37.2493C37.9037 22.024 38.4763 22.1438 38.9671 22.3834L39.3352 22.5752L39.556 22.4074C39.7196 22.2636 39.8996 22.1278 40.0959 22H40.2922H40.3904C40.4395 22 40.5131 22.0479 40.6112 22.1438V25.3072L40.464 25.451H39.7769C39.6787 25.3551 39.6296 25.2593 39.6296 25.1634Z" fill="#111928"/>
</svg>
