<svg width="52" height="52" viewBox="0 0 52 52" fill="none" xmlns="http://www.w3.org/2000/svg">
<rect width="52" height="52" rx="4" fill="#D0F0FD"/>
<path d="M17.8381 25.8769C17.8381 25.8769 17.6748 25.8769 17.3482 25.8769C17.0216 25.8769 16.7417 25.7603 16.5084 25.527C16.2751 25.2937 16.1507 24.9983 16.1352 24.6406C16.1352 24.2829 16.2518 23.9874 16.4851 23.7541C16.5628 23.6764 16.6017 23.6297 16.6017 23.6142C16.6017 23.5986 16.5239 23.583 16.3684 23.5675C15.9641 23.5053 15.5831 23.4742 15.2254 23.4742C14.4633 23.4742 13.8413 23.723 13.3592 24.2207C12.6282 24.9516 12.2628 26.1724 12.2628 27.8831C12.2628 29.1583 12.5038 30.1614 12.9859 30.8924C13.6236 31.841 14.4789 32.3153 15.552 32.3153C16.1896 32.3153 16.7028 32.1132 17.0916 31.7088C17.4804 31.3045 17.7603 30.8224 17.9314 30.2625C17.9625 30.1381 18.0014 30.0603 18.048 30.0292C18.0947 29.9981 18.2191 29.9826 18.4213 29.9826H18.7478C18.8412 30.0759 18.8878 30.1459 18.8878 30.1925C18.8878 30.2547 18.8567 30.3792 18.7945 30.5658C18.7323 30.7524 18.6079 31.009 18.4213 31.3356C18.2346 31.6622 18.0091 31.9577 17.7448 32.222C17.4804 32.4864 17.1071 32.7275 16.625 32.9452C16.1429 33.1629 15.6064 33.264 15.0154 33.2484C13.678 33.2484 12.5116 32.7508 11.5163 31.7555C10.521 30.7602 10.0156 29.5083 10 27.9997C10 26.3824 10.5054 25.0682 11.5163 24.0574C12.5272 23.0465 13.7013 22.5411 15.0388 22.5411C16.3762 22.5411 17.3093 22.751 17.8381 23.1709C18.3668 23.5908 18.6312 24.0885 18.6312 24.6639C18.6312 25.0216 18.499 25.3093 18.2346 25.527L17.8381 25.8769Z" fill="#111928"/>
<path d="M20.2178 28.0002C20.2178 26.5228 20.7232 25.2476 21.7341 24.1745C22.7449 23.1014 23.9657 22.5571 25.3965 22.5416C26.7962 22.5416 28.0014 23.0703 29.0123 24.1278C30.0231 25.1853 30.5363 26.4684 30.5519 27.9769C30.5519 29.4543 30.0542 30.6984 29.0589 31.7093C28.0636 32.7202 26.8428 33.2256 25.3965 33.2256C23.888 33.2256 22.6516 32.7046 21.6874 31.6626C20.7232 30.6207 20.2333 29.3999 20.2178 28.0002ZM25.3965 32.2925C27.2938 32.2925 28.2425 31.025 28.2425 28.4901V27.7436V27.1604C28.2425 26.8183 28.2347 26.5228 28.2191 26.274C28.2036 26.0251 28.1492 25.7297 28.0558 25.3875C27.9625 25.0454 27.8381 24.7654 27.6826 24.5477C27.5271 24.33 27.286 24.1123 26.9594 23.8946C26.6329 23.6768 26.2518 23.5213 25.8164 23.428C25.7386 23.4124 25.6142 23.4047 25.4432 23.4047C24.9766 23.4047 24.5334 23.498 24.1135 23.6846C23.4448 24.0267 23.0093 24.5011 22.8071 25.1076C22.605 25.7141 22.5039 26.4295 22.5039 27.2537V27.7203C22.5039 29.2132 22.6516 30.263 22.9471 30.8695C23.4448 31.8182 24.2612 32.2925 25.3965 32.2925Z" fill="#111928"/>
<path d="M31.8613 23.1481C32.6856 23.0859 33.3232 22.6504 33.7742 21.8417C34.2252 21.033 34.474 20.0844 34.5207 18.9958V18.6458H35.4538V22.9381H38.603V24.0112H35.4538V27.3704C35.4693 29.3143 35.4771 30.4107 35.4771 30.6596C35.4771 30.9084 35.5315 31.1572 35.6404 31.406C35.8581 32.0126 36.2391 32.3158 36.7834 32.3158C37.4677 32.3158 37.8876 31.7637 38.0431 30.6596C38.0587 30.5351 38.0665 30.1774 38.0665 29.5865V28.77H38.9996V29.5865V29.8664C38.9996 31.0639 38.673 31.9737 38.0198 32.5957C37.5999 33.0156 37.0556 33.2256 36.3869 33.2256C35.8581 33.2256 35.3993 33.1323 35.0105 32.9457C34.6217 32.759 34.3263 32.518 34.1241 32.2225C33.9219 31.927 33.7742 31.6549 33.6809 31.406C33.5876 31.1572 33.5331 30.9084 33.5176 30.6596C33.502 30.5507 33.4942 29.3999 33.4942 27.2071V24.0112H31.6514V23.1481H31.8613Z" fill="#111928"/>
</svg>
