<svg width="52" height="52" viewBox="0 0 52 52" fill="none" xmlns="http://www.w3.org/2000/svg">
<rect width="52" height="52" rx="4" fill="#D0F0FD"/>
<path d="M9.15543 24.6566C9.76563 24.6105 10.2377 24.2882 10.5716 23.6895C10.9054 23.0908 11.0897 22.3885 11.1242 21.5825V21.3235H11.815V24.5012H14.1464V25.2956H11.815V27.7824C11.8265 29.2216 11.8323 30.0333 11.8323 30.2175C11.8323 30.4017 11.8726 30.5859 11.9532 30.7701C12.1143 31.2192 12.3964 31.4437 12.7994 31.4437C13.306 31.4437 13.6168 31.0349 13.732 30.2175C13.7435 30.1254 13.7492 29.8606 13.7492 29.4231V28.8186H14.44V29.4231V29.6303C14.44 30.5168 14.1982 31.1904 13.7147 31.6509C13.4038 31.9618 13.0009 32.1172 12.5058 32.1172C12.1143 32.1172 11.7747 32.0481 11.4869 31.9099C11.199 31.7718 10.9803 31.5933 10.8306 31.3746C10.6809 31.1558 10.5716 30.9543 10.5025 30.7701C10.4334 30.5859 10.3931 30.4017 10.3816 30.2175C10.3701 30.1369 10.3643 29.2849 10.3643 27.6616V25.2956H9V24.6566H9.15543Z" fill="#111928"/>
<path d="M17.7749 26.6775C17.7749 26.6775 17.6482 26.6775 17.395 26.6775C17.1417 26.6775 16.9287 26.5911 16.756 26.4184C16.5833 26.2457 16.4969 26.0212 16.4969 25.7449C16.4969 25.3419 16.6926 24.985 17.0841 24.6742C17.4755 24.3633 18.1721 24.2079 19.1738 24.2079C20.0142 24.2079 20.6935 24.3921 21.2116 24.7605C21.7297 25.1289 22.0751 25.5664 22.2478 26.073C22.3054 26.2342 22.3341 26.4127 22.3341 26.6084C22.3341 26.8041 22.3399 27.4661 22.3514 28.5944V29.8033C22.3514 30.356 22.3802 30.7359 22.4378 30.9431C22.4953 31.1504 22.6162 31.254 22.8004 31.254C22.9731 31.254 23.0883 31.1619 23.1458 30.9777C23.2034 30.7935 23.2322 30.4884 23.2322 30.0624V29.4407H23.923V30.1142C23.9115 30.5747 23.8942 30.8453 23.8712 30.9259C23.7676 31.2713 23.5661 31.5418 23.2667 31.7376C22.9674 31.9333 22.6508 32.0369 22.3169 32.0484C21.983 32.0599 21.7124 31.9563 21.5052 31.7376C21.298 31.5188 21.1598 31.277 21.0907 31.0122V30.9431L21.0562 30.995C21.0331 31.0295 21.0044 31.064 20.9698 31.0986C20.9353 31.1331 20.8892 31.1849 20.8317 31.254C20.7741 31.3231 20.705 31.3864 20.6244 31.444C20.5438 31.5015 20.4575 31.5706 20.3654 31.6512C20.2733 31.7318 20.1697 31.7951 20.0545 31.8412C19.9394 31.8872 19.8127 31.9333 19.6746 31.9793C19.5364 32.0254 19.3868 32.0599 19.2256 32.083C19.0644 32.106 18.8859 32.1233 18.6902 32.1348C17.9994 32.1348 17.3777 31.9563 16.825 31.5994C16.2724 31.2425 15.9961 30.7417 15.9961 30.0969C15.9961 29.8551 16.0364 29.6249 16.117 29.4061C16.1976 29.1874 16.353 28.9513 16.5833 28.6981C16.8135 28.4448 17.0899 28.2318 17.4122 28.0591C17.7346 27.8864 18.1836 27.7252 18.7593 27.5755C19.3349 27.4258 19.9682 27.3395 20.659 27.3165H20.9007V26.9365C20.9007 26.5451 20.8662 26.2572 20.7971 26.073C20.5438 25.2556 19.9854 24.8469 19.1219 24.8469C18.9147 24.8469 18.719 24.8526 18.5348 24.8641C18.3506 24.8756 18.2066 24.8987 18.103 24.9332C17.9994 24.9678 17.9533 24.985 17.9649 24.985C18.2182 25.1577 18.3448 25.411 18.3448 25.7449C18.3448 26.0327 18.2527 26.2572 18.0685 26.4184L17.7749 26.6775ZM17.5849 30.1142C17.5849 30.4711 17.7231 30.7877 17.9994 31.064C18.2757 31.3404 18.6154 31.4843 19.0183 31.4958C19.4558 31.4958 19.8415 31.3634 20.1754 31.0986C20.5093 30.8338 20.7338 30.4884 20.8489 30.0624C20.872 29.9818 20.8892 29.6018 20.9007 28.9226C20.9007 28.2548 20.895 27.9209 20.8835 27.9209C20.7914 27.9209 20.6705 27.9267 20.5208 27.9382C20.3711 27.9497 20.1121 28.0015 19.7437 28.0936C19.3752 28.1857 19.0414 28.3008 18.742 28.439C18.4427 28.5772 18.1779 28.7902 17.9476 29.078C17.7173 29.3658 17.5964 29.7112 17.5849 30.1142Z" fill="#111928"/>
<path d="M24.746 31.1499H24.9878C25.4368 31.1499 25.7074 31.0693 25.7995 30.9081V30.77C25.7995 30.6664 25.7995 30.534 25.7995 30.3728C25.7995 30.2116 25.7995 30.0331 25.7995 29.8374C25.7995 29.6417 25.8053 29.4172 25.8168 29.1639C25.8283 28.9106 25.8283 28.6688 25.8168 28.4385C25.8168 28.0816 25.8168 27.7017 25.8168 27.2987C25.8168 26.8958 25.811 26.5561 25.7995 26.2798V25.8826C25.765 25.6638 25.6844 25.5199 25.5577 25.4509C25.4311 25.3818 25.172 25.33 24.7806 25.2954H24.4697V24.8982C24.4697 24.6334 24.4812 24.501 24.5043 24.501L24.677 24.4837C24.7921 24.4722 24.9533 24.4607 25.1605 24.4492C25.3678 24.4377 25.5808 24.4262 25.7995 24.4147C25.9952 24.4031 26.2025 24.3916 26.4212 24.3801C26.64 24.3686 26.8069 24.3513 26.9221 24.3283C27.0372 24.3053 27.1005 24.2995 27.112 24.311H27.1638V25.0018C27.1638 25.4393 27.1696 25.6581 27.1811 25.6581C27.1926 25.6581 27.2214 25.6293 27.2675 25.5717C27.3135 25.5142 27.3826 25.4278 27.4747 25.3127C27.5668 25.1976 27.6762 25.0939 27.8028 25.0018C27.9295 24.9097 28.0964 24.8004 28.3036 24.6737C28.5109 24.5471 28.7296 24.455 28.9599 24.3974C29.1902 24.3398 29.4838 24.311 29.8407 24.311C31.1532 24.3571 31.8843 25.0076 32.0339 26.2625C32.0455 26.3431 32.0512 27.1433 32.0512 28.6631V30.1483C32.0512 30.5858 32.0627 30.8448 32.0858 30.9254C32.1088 31.006 32.1721 31.0636 32.2757 31.0981C32.5175 31.1327 32.7996 31.1499 33.1219 31.1499H33.3983V31.9443H33.2601L32.8456 31.9271C32.5808 31.9156 32.293 31.9098 31.9821 31.9098C31.6713 31.9098 31.4525 31.904 31.3259 31.8925C30.14 31.8925 29.4953 31.9098 29.3916 31.9443H29.2535V31.1499H29.5298C30.2321 31.1499 30.5833 31.0578 30.5833 30.8736C30.5948 30.8506 30.6005 30.0562 30.6005 28.4904C30.589 26.9361 30.5775 26.1129 30.566 26.0208C30.4969 25.6984 30.3818 25.4566 30.2206 25.2954C30.0594 25.1342 29.9213 25.0364 29.8061 25.0018C29.691 24.9673 29.5413 24.9558 29.3571 24.9673C28.839 24.9673 28.3842 25.163 27.9928 25.5545C27.6819 25.8653 27.4862 26.1819 27.4056 26.5043C27.325 26.8267 27.279 27.3045 27.2675 27.9377V29.043V30.0792C27.2675 30.4246 27.2732 30.6548 27.2847 30.77C27.2962 30.8851 27.3135 30.96 27.3365 30.9945C27.3596 31.029 27.4114 31.0636 27.492 31.0981C27.7337 31.1327 28.0158 31.1499 28.3382 31.1499H28.6145V31.9443H28.4763L28.0791 31.9271C27.8028 31.9156 27.5092 31.9098 27.1984 31.9098C26.8875 31.9098 26.6688 31.904 26.5421 31.8925C25.3562 31.8925 24.7115 31.9098 24.6079 31.9443H24.4697V31.1499H24.746Z" fill="#111928"/>
<path d="M34.3476 31.1499H34.5894C35.0384 31.1499 35.309 31.0693 35.4011 30.9081V30.77C35.4011 30.6664 35.4011 30.534 35.4011 30.3728C35.4011 30.2116 35.4011 30.0216 35.4011 29.8029C35.4011 29.5841 35.4011 29.3366 35.4011 29.0603C35.4011 28.7839 35.4068 28.4961 35.4183 28.1968C35.4299 27.8974 35.4299 27.5808 35.4183 27.2469C35.4068 26.913 35.4068 26.5849 35.4183 26.2625C35.4183 25.8365 35.4183 25.3875 35.4183 24.9155C35.4183 24.4434 35.4183 24.0117 35.4183 23.6202C35.4183 23.2288 35.4126 22.8834 35.4011 22.584C35.3896 22.2847 35.3896 22.0314 35.4011 21.8242C35.4126 21.6169 35.4126 21.5191 35.4011 21.5306C35.3665 21.3118 35.2859 21.1679 35.1593 21.0988C35.0326 21.0298 34.7736 20.9779 34.3821 20.9434H34.0713V20.5462C34.0713 20.2814 34.0828 20.149 34.1058 20.149L34.2785 20.1317C34.3937 20.1202 34.5606 20.1087 34.7794 20.0972C34.9981 20.0857 35.2111 20.0742 35.4183 20.0626C35.6141 20.0511 35.8271 20.0396 36.0573 20.0281C36.2876 20.0166 36.4603 19.9993 36.5754 19.9763C36.6906 19.9533 36.7539 19.9475 36.7654 19.959H36.8172V25.6063C37.508 24.7428 38.337 24.311 39.3041 24.311C40.7202 24.311 41.4973 24.9615 41.6355 26.2625C41.647 26.3431 41.6528 27.1433 41.6528 28.6631V30.1483C41.6528 30.5858 41.6643 30.8448 41.6873 30.9254C41.7103 31.006 41.7737 31.0636 41.8773 31.0981C42.1191 31.1327 42.4011 31.1499 42.7235 31.1499H42.9998V31.9443H42.8617L42.4472 31.9271C42.1824 31.9156 41.8946 31.9098 41.5837 31.9098C41.2728 31.9098 41.0541 31.904 40.9274 31.8925C39.7416 31.8925 39.0968 31.9098 38.9932 31.9443H38.8551V31.1499H39.1314C39.8337 31.1499 40.1848 31.0578 40.1848 30.8736C40.1963 30.8506 40.2021 30.0562 40.2021 28.4904C40.1906 26.9361 40.1791 26.1129 40.1676 26.0208C40.0985 25.6984 39.9834 25.4566 39.8222 25.2954C39.661 25.1342 39.5228 25.0364 39.4077 25.0018C39.2926 24.9673 39.1429 24.9558 38.9587 24.9673C38.4406 24.9673 37.9858 25.163 37.5943 25.5545C37.2835 25.8653 37.0878 26.1819 37.0072 26.5043C36.9266 26.8267 36.8805 27.3045 36.869 27.9377V29.043V30.0792C36.869 30.4246 36.8748 30.6548 36.8863 30.77C36.8978 30.8851 36.9151 30.96 36.9381 30.9945C36.9611 31.029 37.0129 31.0636 37.0935 31.0981C37.3353 31.1327 37.6174 31.1499 37.9397 31.1499H38.2161V31.9443H38.0779L37.6807 31.9271C37.4044 31.9156 37.1108 31.9098 36.7999 31.9098C36.4891 31.9098 36.2703 31.904 36.1437 31.8925C34.9578 31.8925 34.3131 31.9098 34.2094 31.9443H34.0713V31.1499H34.3476Z" fill="#111928"/>
</svg>
