<svg width="52" height="52" viewBox="0 0 52 52" fill="none" xmlns="http://www.w3.org/2000/svg">
<path d="M10.26 31.24C9.20667 31.24 8.4 31.0533 7.84 30.68C7.28 30.3067 7 29.9133 7 29.5C7 29.2733 7.08667 29.06 7.26 28.86C7.43333 28.66 7.68667 28.56 8.02 28.56C8.35333 28.56 8.62 28.6533 8.82 28.84C9.03333 29.0267 9.19333 29.2667 9.3 29.56C9.42 29.8533 9.5 30.1467 9.54 30.44C9.68667 30.48 9.82667 30.5067 9.96 30.52C10.1067 30.5333 10.2467 30.54 10.38 30.54C10.9267 30.54 11.3867 30.4267 11.76 30.2C12.1333 29.96 12.32 29.6067 12.32 29.14C12.32 28.7267 12.16 28.38 11.84 28.1C11.52 27.8067 11.0533 27.4533 10.44 27.04C10.08 26.7867 9.73333 26.5267 9.4 26.26C9.06667 25.98 8.79333 25.6733 8.58 25.34C8.36667 25.0067 8.26 24.6333 8.26 24.22C8.26 23.7933 8.38667 23.3667 8.64 22.94C8.90667 22.5 9.32 22.14 9.88 21.86C10.44 21.5667 11.1533 21.42 12.02 21.42C12.98 21.42 13.7 21.5867 14.18 21.92C14.66 22.2533 14.9 22.6133 14.9 23C14.9 23.2 14.8267 23.4067 14.68 23.62C14.5467 23.8333 14.3067 23.94 13.96 23.94C13.52 23.94 13.18 23.7667 12.94 23.42C12.7133 23.06 12.5733 22.68 12.52 22.28C12.24 22.2133 11.96 22.18 11.68 22.18C11.1467 22.18 10.74 22.3067 10.46 22.56C10.18 22.8 10.04 23.1133 10.04 23.5C10.04 23.9133 10.2 24.2733 10.52 24.58C10.8533 24.8733 11.3333 25.2333 11.96 25.66C12.32 25.9 12.6667 26.16 13 26.44C13.3333 26.7067 13.6067 27.0133 13.82 27.36C14.0333 27.6933 14.14 28.0933 14.14 28.56C14.14 29.12 13.9733 29.6 13.64 30C13.3067 30.4 12.8467 30.7067 12.26 30.92C11.6733 31.1333 11.0067 31.24 10.26 31.24ZM20.5636 28.74C20.7369 28.86 20.8903 28.9933 21.0236 29.14C20.5703 29.74 20.0769 30.24 19.5436 30.64C19.0236 31.04 18.4436 31.24 17.8036 31.24C17.3103 31.24 16.9503 31.12 16.7236 30.88C16.4969 30.6267 16.3836 30.2933 16.3836 29.88C16.3836 29.7333 16.3969 29.58 16.4236 29.42C16.4503 29.2467 16.4836 29.0733 16.5236 28.9L17.7236 23.9C17.8169 23.5133 17.8636 23.26 17.8636 23.14C17.8636 22.82 17.7436 22.66 17.5036 22.66C17.3169 22.66 17.0703 22.7667 16.7636 22.98C16.4703 23.18 16.1769 23.4333 15.8836 23.74C15.7903 23.6733 15.7036 23.6067 15.6236 23.54C15.5569 23.4733 15.4903 23.4 15.4236 23.32C15.9569 22.6933 16.5036 22.2267 17.0636 21.92C17.6369 21.6 18.1703 21.44 18.6636 21.44C19.1169 21.44 19.4369 21.56 19.6236 21.8C19.8236 22.0267 19.9236 22.3133 19.9236 22.66C19.9236 22.78 19.9103 22.9133 19.8836 23.06C19.8703 23.1933 19.8503 23.3333 19.8236 23.48L18.5436 28.8C18.5303 28.8933 18.5036 29.0133 18.4636 29.16C18.4236 29.2933 18.4036 29.4267 18.4036 29.56C18.4036 29.68 18.4303 29.78 18.4836 29.86C18.5369 29.94 18.6303 29.98 18.7636 29.98C18.9903 29.98 19.2769 29.86 19.6236 29.62C19.9703 29.38 20.2836 29.0867 20.5636 28.74ZM19.6436 19.12C19.2836 19.12 18.9903 19 18.7636 18.76C18.5369 18.52 18.4236 18.2267 18.4236 17.88C18.4236 17.48 18.5636 17.14 18.8436 16.86C19.1369 16.5667 19.4836 16.42 19.8836 16.42C20.2436 16.42 20.5303 16.54 20.7436 16.78C20.9569 17.0067 21.0636 17.2933 21.0636 17.64C21.0636 18.04 20.9303 18.3867 20.6636 18.68C20.3969 18.9733 20.0569 19.12 19.6436 19.12ZM25.0778 27.36L24.2378 31H22.2378L23.8778 23.9C23.9711 23.5133 24.0178 23.26 24.0178 23.14C24.0178 22.82 23.8978 22.66 23.6578 22.66C23.4711 22.66 23.2245 22.7667 22.9178 22.98C22.6245 23.18 22.3311 23.4333 22.0378 23.74C21.9445 23.6733 21.8578 23.6067 21.7778 23.54C21.7111 23.4733 21.6445 23.4 21.5778 23.32C22.1111 22.6933 22.6578 22.2267 23.2178 21.92C23.7911 21.6 24.3245 21.44 24.8178 21.44C25.2711 21.44 25.5911 21.5533 25.7778 21.78C25.9645 22.0067 26.0578 22.2733 26.0578 22.58C26.0578 22.74 26.0311 22.9333 25.9778 23.16C25.9378 23.3733 25.8978 23.6 25.8578 23.84H25.9178C26.4245 23.0267 27.0178 22.42 27.6978 22.02C28.3911 21.6067 29.0578 21.4 29.6978 21.4C30.3378 21.4 30.8245 21.58 31.1578 21.94C31.5045 22.2867 31.6778 22.7133 31.6778 23.22C31.6778 23.5 31.6245 23.8733 31.5178 24.34C31.4245 24.8067 31.3045 25.3067 31.1578 25.84C31.0111 26.3733 30.8645 26.9 30.7178 27.42C30.5711 27.9267 30.4445 28.38 30.3378 28.78C30.2445 29.1667 30.1978 29.44 30.1978 29.6C30.1978 29.6933 30.2245 29.78 30.2778 29.86C30.3311 29.94 30.4245 29.98 30.5578 29.98C30.7845 29.98 31.0711 29.86 31.4178 29.62C31.7645 29.38 32.0778 29.0867 32.3578 28.74C32.5311 28.86 32.6845 28.9933 32.8178 29.14C32.3645 29.74 31.8711 30.24 31.3378 30.64C30.8178 31.04 30.2378 31.24 29.5978 31.24C29.1045 31.24 28.7445 31.12 28.5178 30.88C28.2911 30.6267 28.1778 30.3133 28.1778 29.94C28.1778 29.6733 28.2245 29.32 28.3178 28.88C28.4245 28.44 28.5511 27.96 28.6978 27.44C28.8445 26.92 28.9845 26.4067 29.1178 25.9C29.2645 25.38 29.3845 24.9067 29.4778 24.48C29.5845 24.0533 29.6378 23.72 29.6378 23.48C29.6378 23.2133 29.5778 22.9933 29.4578 22.82C29.3378 22.6467 29.1245 22.56 28.8178 22.56C28.4311 22.56 27.9978 22.7267 27.5178 23.06C27.0378 23.3933 26.5778 23.9 26.1378 24.58C25.7111 25.26 25.3711 26.1333 25.1178 27.2L25.0778 27.36ZM36.4923 27.8L35.8323 31H33.8723L36.3923 18.66C36.4323 18.4733 36.4657 18.3 36.4923 18.14C36.519 17.98 36.5323 17.8533 36.5323 17.76C36.5323 17.5067 36.4123 17.3533 36.1723 17.3C35.9457 17.2333 35.5123 17.1933 34.8723 17.18C34.859 17.0867 34.8457 17 34.8323 16.92C34.8323 16.8267 34.839 16.7333 34.8523 16.64C35.5723 16.5867 36.2723 16.5133 36.9523 16.42C37.6457 16.3133 38.239 16.16 38.7323 15.96L38.9923 16.1C38.8323 16.6733 38.6857 17.26 38.5523 17.86C38.419 18.4467 38.2857 19.06 38.1523 19.7L37.5123 22.74L37.1923 24.1H37.2923C37.839 23.22 38.459 22.5533 39.1523 22.1C39.8457 21.6333 40.539 21.4 41.2323 21.4C41.859 21.4 42.339 21.5733 42.6723 21.92C43.019 22.2667 43.1923 22.6933 43.1923 23.2C43.1923 23.48 43.139 23.8533 43.0323 24.32C42.939 24.7867 42.819 25.2933 42.6723 25.84C42.5257 26.3733 42.379 26.9 42.2323 27.42C42.0857 27.9267 41.959 28.38 41.8523 28.78C41.759 29.1667 41.7123 29.44 41.7123 29.6C41.7123 29.6933 41.739 29.78 41.7923 29.86C41.8457 29.94 41.939 29.98 42.0723 29.98C42.299 29.98 42.5857 29.86 42.9323 29.62C43.279 29.38 43.5923 29.0867 43.8723 28.74C44.0457 28.86 44.199 28.9933 44.3323 29.14C43.879 29.74 43.3857 30.24 42.8523 30.64C42.3323 31.04 41.759 31.24 41.1323 31.24C40.639 31.24 40.2723 31.12 40.0323 30.88C39.8057 30.6267 39.6923 30.3133 39.6923 29.94C39.6923 29.6733 39.739 29.32 39.8323 28.88C39.939 28.44 40.0657 27.96 40.2123 27.44C40.359 26.92 40.499 26.4 40.6323 25.88C40.779 25.36 40.899 24.8867 40.9923 24.46C41.099 24.0333 41.1523 23.7 41.1523 23.46C41.1523 23.1933 41.0857 22.98 40.9523 22.82C40.8323 22.6467 40.639 22.56 40.3723 22.56C40.0123 22.56 39.579 22.74 39.0723 23.1C38.5657 23.4467 38.0723 24.0067 37.5923 24.78C37.1257 25.54 36.759 26.5467 36.4923 27.8Z" fill="#454545"/>
</svg>
