<svg width="52" height="52" viewBox="0 0 52 52" fill="none" xmlns="http://www.w3.org/2000/svg">
<path d="M36.5398 29.84L35.8798 33.04H33.9198L36.4398 20.7C36.4798 20.5133 36.5131 20.34 36.5398 20.18C36.5665 20.02 36.5798 19.8933 36.5798 19.8C36.5798 19.5467 36.4598 19.3933 36.2198 19.34C35.9931 19.2733 35.5598 19.2333 34.9198 19.22C34.9065 19.1267 34.8931 19.04 34.8798 18.96C34.8798 18.8667 34.8865 18.7733 34.8998 18.68C35.6198 18.6267 36.3198 18.5533 36.9998 18.46C37.6931 18.3533 38.2865 18.2 38.7798 18L39.0398 18.14C38.8798 18.7133 38.7331 19.3 38.5998 19.9C38.4665 20.4867 38.3331 21.1 38.1998 21.74L37.5598 24.78L37.2398 26.14H37.3398C37.8865 25.26 38.5065 24.5933 39.1998 24.14C39.8931 23.6733 40.5865 23.44 41.2798 23.44C41.9065 23.44 42.3865 23.6133 42.7198 23.96C43.0665 24.3067 43.2398 24.7333 43.2398 25.24C43.2398 25.52 43.1865 25.8933 43.0798 26.36C42.9865 26.8267 42.8665 27.3333 42.7198 27.88C42.5731 28.4133 42.4265 28.94 42.2798 29.46C42.1331 29.9667 42.0065 30.42 41.8998 30.82C41.8065 31.2067 41.7598 31.48 41.7598 31.64C41.7598 31.7333 41.7865 31.82 41.8398 31.9C41.8931 31.98 41.9865 32.02 42.1198 32.02C42.3465 32.02 42.6331 31.9 42.9798 31.66C43.3265 31.42 43.6398 31.1267 43.9198 30.78C44.0931 30.9 44.2465 31.0333 44.3798 31.18C43.9265 31.78 43.4331 32.28 42.8998 32.68C42.3798 33.08 41.8065 33.28 41.1798 33.28C40.6865 33.28 40.3198 33.16 40.0798 32.92C39.8531 32.6667 39.7398 32.3533 39.7398 31.98C39.7398 31.7133 39.7865 31.36 39.8798 30.92C39.9865 30.48 40.1131 30 40.2598 29.48C40.4065 28.96 40.5465 28.44 40.6798 27.92C40.8265 27.4 40.9465 26.9267 41.0398 26.5C41.1465 26.0733 41.1998 25.74 41.1998 25.5C41.1998 25.2333 41.1331 25.02 40.9998 24.86C40.8798 24.6867 40.6865 24.6 40.4198 24.6C40.0598 24.6 39.6265 24.78 39.1198 25.14C38.6131 25.4867 38.1198 26.0467 37.6398 26.82C37.1731 27.58 36.8065 28.5867 36.5398 29.84Z" fill="#454545"/>
<path d="M33.4216 24.78H31.1216L29.8616 30.26C29.7416 30.78 29.6816 31.1534 29.6816 31.38C29.6816 31.5934 29.7282 31.7667 29.8216 31.9C29.9149 32.02 30.0816 32.08 30.3216 32.08C30.6016 32.08 30.9349 31.9667 31.3216 31.74C31.7082 31.5 32.0549 31.1867 32.3616 30.8C32.5349 30.92 32.6882 31.0534 32.8216 31.2C32.3549 31.8534 31.8216 32.3667 31.2216 32.74C30.6216 33.1134 30.0016 33.3 29.3616 33.3C28.9349 33.3 28.5949 33.2134 28.3416 33.04C28.1016 32.8667 27.9349 32.66 27.8416 32.42C27.7482 32.1667 27.7016 31.9334 27.7016 31.72C27.7016 31.5734 27.7149 31.3934 27.7416 31.18C27.7682 30.9667 27.8149 30.7067 27.8816 30.4L29.1216 24.78H27.6216C27.6216 24.6734 27.6282 24.5734 27.6416 24.48C27.6549 24.3867 27.6816 24.2934 27.7216 24.2L29.3016 23.96C29.3949 23.5734 29.4949 23.14 29.6016 22.66C29.7216 22.1667 29.8282 21.7 29.9216 21.26C30.2416 21.2334 30.5682 21.2067 30.9016 21.18C31.2482 21.14 31.5816 21.0934 31.9016 21.04L31.9616 21.12C31.8682 21.52 31.7749 21.9267 31.6816 22.34C31.5882 22.74 31.4682 23.26 31.3216 23.9H33.5816C33.5816 24.06 33.5682 24.2134 33.5416 24.36C33.5149 24.4934 33.4749 24.6334 33.4216 24.78Z" fill="#454545"/>
<path d="M25.4309 27.0665C25.4309 27.7465 25.3176 28.4332 25.0909 29.1265C24.8776 29.8198 24.5509 30.4598 24.1109 31.0465C23.6709 31.6198 23.1242 32.0865 22.4709 32.4465C21.8176 32.8065 21.0642 32.9865 20.2109 32.9865C19.4909 32.9865 18.8842 32.8598 18.3909 32.6065C17.9109 32.3532 17.5242 32.0265 17.2309 31.6265C16.9376 31.2265 16.7242 30.7932 16.5909 30.3265C16.4709 29.8465 16.4109 29.3865 16.4109 28.9465C16.4109 28.3732 16.5109 27.7532 16.7109 27.0865C16.9242 26.4198 17.2442 25.7865 17.6709 25.1865C18.0976 24.5865 18.6442 24.0998 19.3109 23.7265C19.9776 23.3398 20.7709 23.1465 21.6909 23.1465C22.5576 23.1465 23.2642 23.3265 23.8109 23.6865C24.3709 24.0332 24.7776 24.5065 25.0309 25.1065C25.2976 25.6932 25.4309 26.3465 25.4309 27.0665ZM23.3109 26.7465C23.3109 25.9198 23.1776 25.2398 22.9109 24.7065C22.6576 24.1598 22.2242 23.8865 21.6109 23.8865C21.1309 23.8865 20.6976 24.0465 20.3109 24.3665C19.9376 24.6865 19.6176 25.1132 19.3509 25.6465C19.0842 26.1798 18.8776 26.7665 18.7309 27.4065C18.5976 28.0332 18.5309 28.6665 18.5309 29.3065C18.5309 30.1332 18.6642 30.8332 18.9309 31.4065C19.2109 31.9665 19.6642 32.2465 20.2909 32.2465C20.7842 32.2465 21.2176 32.0798 21.5909 31.7465C21.9642 31.4132 22.2776 30.9732 22.5309 30.4265C22.7842 29.8798 22.9776 29.2865 23.1109 28.6465C23.2442 27.9932 23.3109 27.3598 23.3109 26.7465Z" fill="#454545"/>
<path d="M11.28 33.28C10.2533 33.28 9.44667 32.96 8.86 32.32C8.28667 31.68 8 30.82 8 29.74C8 28.8733 8.17333 28.06 8.52 27.3C8.86667 26.54 9.32667 25.8733 9.9 25.3C10.4733 24.7266 11.1067 24.28 11.8 23.96C12.4933 23.6266 13.18 23.46 13.86 23.46C14.4867 23.46 15.0067 23.5933 15.42 23.86C15.8333 24.1266 16.04 24.4666 16.04 24.88C16.04 25.16 15.9467 25.3933 15.76 25.58C15.5733 25.7666 15.3267 25.86 15.02 25.86C14.7267 25.86 14.4267 25.7466 14.12 25.52C13.8133 25.28 13.6267 24.8666 13.56 24.28C13.0667 24.2933 12.6067 24.48 12.18 24.84C11.7667 25.2 11.4067 25.66 11.1 26.22C10.7933 26.78 10.5533 27.3733 10.38 28C10.2067 28.6266 10.12 29.22 10.12 29.78C10.12 30.3533 10.2467 30.8533 10.5 31.28C10.7533 31.7066 11.2267 31.92 11.92 31.92C12.4933 31.92 13.02 31.7666 13.5 31.46C13.9933 31.1533 14.42 30.7466 14.78 30.24C14.9933 30.3466 15.1533 30.4733 15.26 30.62C15.0067 31.0733 14.6933 31.5066 14.32 31.92C13.96 32.32 13.5267 32.6466 13.02 32.9C12.5267 33.1533 11.9467 33.28 11.28 33.28Z" fill="#454545"/>
</svg>
