<svg width="52" height="52" viewBox="0 0 52 52" fill="none" xmlns="http://www.w3.org/2000/svg">
<rect width="52" height="52" rx="4" fill="#D0F0FD"/>
<path d="M13.977 25.9689C13.977 25.4624 13.806 25.0255 13.4641 24.6582C13.1222 24.2909 12.6283 24.1073 11.9824 24.1073C11.5265 24.1073 11.1339 24.1896 10.8046 24.3543C10.4247 24.5949 10.2347 24.9241 10.2347 25.3421C10.2221 25.4054 10.2221 25.4877 10.2347 25.589C10.2474 25.6903 10.3487 25.8423 10.5387 26.0449C10.7286 26.2475 11.0009 26.4058 11.3555 26.5198C11.5835 26.5831 11.8621 26.6401 12.1913 26.6908C12.5206 26.7414 12.7992 26.7984 13.0272 26.8618C13.2551 26.9251 13.4578 27.0074 13.6351 27.1087C13.8503 27.21 14.0593 27.3367 14.2619 27.4886C14.4645 27.6406 14.6672 27.9002 14.8698 28.2675C15.0724 28.6347 15.1801 29.0273 15.1927 29.4452C15.1927 30.2304 14.9521 30.8763 14.4709 31.3828C13.9896 31.8894 13.2108 32.149 12.1344 32.1617H11.9824C11.3239 32.1617 10.716 31.9337 10.1588 31.4778L10.0068 31.6108L9.83583 31.7817C9.75984 31.8577 9.68386 31.9274 9.60788 31.9907L9.39892 32.1807H9.24695H9.17097C9.13297 32.1807 9.07598 32.1427 9 32.0667V30.566V29.4642C9 29.1983 9.01266 29.04 9.03799 28.9893C9.06332 28.9387 9.12664 28.907 9.22795 28.8943H9.39892C9.55089 28.8943 9.6522 28.9197 9.70286 28.9703C9.75351 29.021 9.78517 29.097 9.79784 29.1983C9.8105 29.2996 9.85483 29.4706 9.93081 29.7112C10.0068 29.9518 10.1271 30.2177 10.2917 30.509C10.735 31.1549 11.3492 31.4778 12.1344 31.4778C13.3628 31.4778 13.977 30.9839 13.977 29.9961C13.977 29.6289 13.863 29.3312 13.6351 29.1033C13.3818 28.7994 12.8562 28.5714 12.0584 28.4194C11.2605 28.2675 10.735 28.1218 10.4817 27.9825C10.0258 27.7672 9.66486 27.476 9.39892 27.1087C9.13297 26.7414 9 26.3489 9 25.9309C9 25.437 9.10764 25.0191 9.32293 24.6772C9.53822 24.3353 9.8105 24.082 10.1398 23.9174C10.469 23.7527 10.7856 23.6387 11.0896 23.5754C11.3935 23.5121 11.6721 23.4804 11.9254 23.4804H12.1344C12.6409 23.4804 13.0842 23.5754 13.4641 23.7654L13.749 23.9174L13.92 23.7844C14.0466 23.6704 14.1859 23.5628 14.3379 23.4614H14.4899H14.5659C14.6039 23.4614 14.6608 23.4994 14.7368 23.5754V26.0829L14.6228 26.1969H14.091C14.015 26.1209 13.977 26.0449 13.977 25.9689Z" fill="#111928"/>
<path d="M17.1684 20.403C17.1684 20.0485 17.2824 19.7698 17.5103 19.5672C17.7383 19.3646 18.0169 19.2633 18.3462 19.2633C18.6374 19.2886 18.8907 19.3963 19.106 19.5862C19.3213 19.7762 19.4289 20.0485 19.4289 20.403C19.4289 20.783 19.3213 21.0679 19.106 21.2579C18.8907 21.4478 18.6248 21.5428 18.3082 21.5428C17.9916 21.5428 17.7256 21.4478 17.5103 21.2579C17.295 21.0679 17.1811 20.783 17.1684 20.403ZM20.5497 31.9717C20.3597 31.9337 19.7012 31.9147 18.5741 31.9147C18.4348 31.9147 18.2005 31.9147 17.8713 31.9147C17.542 31.9147 17.2254 31.9274 16.9214 31.9527L16.5035 31.9717H16.3516V31.0979H16.6555C17.0101 31.0979 17.3204 31.0789 17.5863 31.0409C17.7003 30.9902 17.7699 30.9206 17.7953 30.8319C17.8206 30.7433 17.8333 30.4773 17.8333 30.0341V28.0775V26.4058C17.8333 25.7473 17.8206 25.3294 17.7953 25.1521C17.7699 24.9748 17.6813 24.8545 17.5293 24.7911C17.352 24.7025 17.0544 24.6582 16.6365 24.6582H16.4275V24.2213C16.4275 23.93 16.4402 23.7844 16.4655 23.7844L16.6555 23.7654C16.7821 23.7527 16.9594 23.74 17.1874 23.7274C17.4153 23.7147 17.6433 23.702 17.8713 23.6894C18.0865 23.6767 18.3145 23.664 18.5551 23.6514C18.7957 23.6387 18.9794 23.6197 19.106 23.5944C19.2326 23.5691 19.3023 23.5627 19.315 23.5754H19.3719V30.7939C19.4353 30.9206 19.5112 30.9965 19.5999 31.0219C19.6885 31.0472 19.9102 31.0725 20.2648 31.0979H20.7017V31.9717H20.5497Z" fill="#111928"/>
<path d="M21.9192 31.0979H22.1851C22.679 31.0979 22.9766 31.0092 23.0779 30.8319V30.6799C23.0779 30.566 23.0779 30.4203 23.0779 30.243C23.0779 30.0657 23.0779 29.8694 23.0779 29.6542C23.0779 29.4389 23.0843 29.1919 23.0969 28.9133C23.1096 28.6347 23.1096 28.3687 23.0969 28.1155C23.0969 27.7229 23.0969 27.305 23.0969 26.8617C23.0969 26.4185 23.0906 26.0449 23.0779 25.741V25.304C23.0399 25.0634 22.9513 24.9051 22.812 24.8291C22.6727 24.7532 22.3877 24.6962 21.9572 24.6582H21.6152V24.2213C21.6152 23.93 21.6279 23.7844 21.6532 23.7844L21.8432 23.7654C21.9698 23.7527 22.1471 23.74 22.3751 23.7274C22.603 23.7147 22.8373 23.702 23.0779 23.6894C23.2932 23.6767 23.5212 23.664 23.7618 23.6514C24.0024 23.6387 24.186 23.6197 24.3127 23.5944C24.4393 23.5691 24.509 23.5627 24.5216 23.5754H24.5786V24.3352C24.5786 24.8165 24.585 25.0571 24.5976 25.0571C24.6103 25.0571 24.6419 25.0254 24.6926 24.9621C24.7433 24.8988 24.8192 24.8038 24.9206 24.6772C25.0219 24.5505 25.1422 24.4366 25.2815 24.3352C25.4208 24.2339 25.6044 24.1136 25.8324 23.9743C26.0603 23.835 26.3009 23.7337 26.5542 23.6704C26.8075 23.6071 27.1304 23.5754 27.523 23.5754C28.9667 23.6261 29.7709 24.3416 29.9355 25.722C29.9482 25.8106 29.9545 26.6908 29.9545 28.3624V29.9961C29.9545 30.4773 29.9672 30.7623 29.9925 30.8509C30.0179 30.9396 30.0875 31.0029 30.2015 31.0409C30.4674 31.0789 30.7777 31.0979 31.1323 31.0979H31.4362V31.9717H31.2843L30.8284 31.9527C30.5371 31.94 30.2205 31.9337 29.8785 31.9337C29.5366 31.9337 29.296 31.9274 29.1567 31.9147C27.8523 31.9147 27.1431 31.9337 27.0291 31.9717H26.8772V31.0979H27.1811C27.9536 31.0979 28.3399 30.9965 28.3399 30.7939C28.3525 30.7686 28.3589 29.8948 28.3589 28.1725C28.3462 26.4628 28.3335 25.5573 28.3209 25.456C28.2449 25.1014 28.1182 24.8355 27.9409 24.6582C27.7636 24.4809 27.6117 24.3732 27.485 24.3352C27.3584 24.2972 27.1938 24.2846 26.9911 24.2972C26.4213 24.2972 25.921 24.5125 25.4904 24.9431C25.1485 25.285 24.9332 25.6333 24.8446 25.9879C24.7559 26.3425 24.7053 26.8681 24.6926 27.5646V28.7803V29.9201C24.6926 30.3 24.6989 30.5533 24.7116 30.6799C24.7243 30.8066 24.7433 30.8889 24.7686 30.9269C24.7939 30.9649 24.8509 31.0029 24.9396 31.0409C25.2055 31.0789 25.5158 31.0979 25.8704 31.0979H26.1743V31.9717H26.0223L25.5854 31.9527C25.2815 31.94 24.9586 31.9337 24.6166 31.9337C24.2747 31.9337 24.0341 31.9274 23.8948 31.9147C22.5904 31.9147 21.8812 31.9337 21.7672 31.9717H21.6152V31.0979H21.9192Z" fill="#111928"/>
<path d="M32.4826 31.0979H32.7486C33.2425 31.0979 33.5401 31.0092 33.6414 30.8319V30.6799C33.6414 30.566 33.6414 30.4203 33.6414 30.243C33.6414 30.0657 33.6414 29.8568 33.6414 29.6162C33.6414 29.3755 33.6414 29.1033 33.6414 28.7993C33.6414 28.4954 33.6477 28.1788 33.6604 27.8495C33.6731 27.5203 33.6731 27.172 33.6604 26.8047C33.6477 26.4375 33.6477 26.0766 33.6604 25.722C33.6604 25.2534 33.6604 24.7595 33.6604 24.2403C33.6604 23.721 33.6604 23.2461 33.6604 22.8156C33.6604 22.385 33.6541 22.0051 33.6414 21.6758C33.6287 21.3465 33.6287 21.0679 33.6414 20.84C33.6541 20.612 33.6541 20.5044 33.6414 20.517C33.6034 20.2764 33.5148 20.1181 33.3755 20.0421C33.2362 19.9661 32.9512 19.9091 32.5206 19.8712H32.1787V19.4342C32.1787 19.143 32.1914 18.9973 32.2167 18.9973L32.4067 18.9783C32.5333 18.9657 32.7169 18.953 32.9576 18.9403C33.1982 18.9277 33.4325 18.915 33.6604 18.9024C33.8757 18.8897 34.11 18.877 34.3633 18.8644C34.6165 18.8517 34.8065 18.8327 34.9331 18.8074C35.0598 18.782 35.1294 18.7757 35.1421 18.7884H35.1991V25.0001C35.9589 24.0503 36.8708 23.5754 37.9345 23.5754C39.4922 23.5754 40.347 24.2909 40.499 25.722C40.5117 25.8106 40.518 26.6908 40.518 28.3624V29.9961C40.518 30.4773 40.5307 30.7623 40.556 30.8509C40.5813 30.9396 40.651 31.0029 40.765 31.0409C41.0309 31.0789 41.3412 31.0979 41.6958 31.0979H41.9997V31.9717H41.8477L41.3918 31.9527C41.1006 31.94 40.784 31.9337 40.442 31.9337C40.1001 31.9337 39.8595 31.9274 39.7202 31.9147C38.4158 31.9147 37.7066 31.9337 37.5926 31.9717H37.4406V31.0979H37.7446C38.5171 31.0979 38.9033 30.9965 38.9033 30.7939C38.916 30.7686 38.9223 29.8948 38.9223 28.1725C38.9097 26.4628 38.897 25.5573 38.8843 25.456C38.8084 25.1014 38.6817 24.8355 38.5044 24.6582C38.3271 24.4809 38.1752 24.3732 38.0485 24.3352C37.9219 24.2972 37.7572 24.2846 37.5546 24.2972C36.9847 24.2972 36.4845 24.5125 36.0539 24.9431C35.712 25.285 35.4967 25.6333 35.4081 25.9879C35.3194 26.3425 35.2687 26.8681 35.2561 27.5646V28.7803V29.9201C35.2561 30.3 35.2624 30.5533 35.2751 30.6799C35.2877 30.8066 35.3067 30.8889 35.3321 30.9269C35.3574 30.9649 35.4144 31.0029 35.503 31.0409C35.769 31.0789 36.0792 31.0979 36.4338 31.0979H36.7378V31.9717H36.5858L36.1489 31.9527C35.845 31.94 35.522 31.9337 35.1801 31.9337C34.8382 31.9337 34.5975 31.9274 34.4582 31.9147C33.1538 31.9147 32.4447 31.9337 32.3307 31.9717H32.1787V31.0979H32.4826Z" fill="#111928"/>
</svg>
