<svg width="52" height="52" viewBox="0 0 52 52" fill="none" xmlns="http://www.w3.org/2000/svg">
<rect width="52" height="52" rx="4" fill="#D0F0FD"/>
<path d="M18.2266 25.377C18.2266 24.7433 18.0127 24.1966 17.585 23.7372C17.1572 23.2777 16.5393 23.048 15.7312 23.048C15.1609 23.048 14.6697 23.151 14.2578 23.3569C13.7824 23.658 13.5448 24.0699 13.5448 24.5927C13.5289 24.672 13.5289 24.775 13.5448 24.9017C13.5606 25.0285 13.6874 25.2186 13.925 25.4721C14.1627 25.7256 14.5033 25.9236 14.947 26.0662C15.2322 26.1454 15.5807 26.2167 15.9927 26.2801C16.4046 26.3435 16.7532 26.4148 17.0384 26.494C17.3235 26.5732 17.577 26.6762 17.7989 26.803C18.0682 26.9297 18.3296 27.0882 18.5831 27.2783C18.8366 27.4684 19.0901 27.7932 19.3436 28.2527C19.5971 28.7122 19.7318 29.2033 19.7477 29.7262C19.7477 30.7085 19.4466 31.5165 18.8446 32.1503C18.2425 32.784 17.2681 33.1088 15.9214 33.1247H15.7312C14.9074 33.1247 14.1468 32.8395 13.4497 32.2691L13.2596 32.4355L13.0457 32.6494C12.9506 32.7444 12.8556 32.8316 12.7605 32.9108L12.4991 33.1484H12.309H12.2139C12.1664 33.1484 12.0951 33.1009 12 33.0058V31.1283V29.7499C12 29.4172 12.0158 29.2192 12.0475 29.1558C12.0792 29.0924 12.1584 29.0528 12.2852 29.037H12.4991C12.6892 29.037 12.816 29.0686 12.8793 29.132C12.9427 29.1954 12.9823 29.2905 12.9982 29.4172C13.014 29.544 13.0695 29.7578 13.1645 30.0589C13.2596 30.3599 13.4101 30.6926 13.6161 31.057C14.1706 31.8651 14.939 32.2691 15.9214 32.2691C17.4582 32.2691 18.2266 31.6512 18.2266 30.4154C18.2266 29.9559 18.084 29.5836 17.7989 29.2984C17.482 28.9181 16.8245 28.6329 15.8263 28.4428C14.8281 28.2527 14.1706 28.0705 13.8537 27.8962C13.2834 27.6268 12.8318 27.2624 12.4991 26.803C12.1664 26.3435 12 25.8523 12 25.3295C12 24.7116 12.1347 24.1887 12.404 23.7609C12.6734 23.3332 13.014 23.0163 13.4259 22.8103C13.8379 22.6043 14.234 22.4617 14.6142 22.3825C14.9945 22.3033 15.3431 22.2637 15.6599 22.2637H15.9214C16.5551 22.2637 17.1096 22.3825 17.585 22.6202L17.9415 22.8103L18.1553 22.6439C18.3138 22.5014 18.4881 22.3667 18.6782 22.2399H18.8683H18.9634C19.0109 22.2399 19.0822 22.2875 19.1773 22.3825V25.5196L19.0347 25.6622H18.3692C18.2742 25.5671 18.2266 25.4721 18.2266 25.377Z" fill="#111928"/>
<path d="M21.248 27.7061C21.248 26.8347 21.4065 26.0425 21.7234 25.3295C22.0402 24.6165 22.4363 24.0382 22.9117 23.5946C23.387 23.151 23.9019 22.8182 24.4564 22.5964C25.011 22.3746 25.5338 22.2558 26.025 22.2399C26.8647 22.2399 27.5856 22.3825 28.1877 22.6677C28.7897 22.9529 29.2492 23.349 29.5661 23.856C29.883 24.363 30.1048 24.87 30.2315 25.377C30.3583 25.884 30.4296 26.4465 30.4454 27.0644C30.4454 27.1753 30.39 27.2862 30.2791 27.3971H23.5771V27.7536C23.5771 30.0985 24.3693 31.5244 25.9537 32.0314C26.2706 32.1265 26.6191 32.174 26.9994 32.174C27.6648 32.174 28.2352 31.9205 28.7105 31.4135C28.9799 31.1442 29.1937 30.8115 29.3522 30.4154L29.5898 29.845C29.6374 29.7975 29.7641 29.7737 29.9701 29.7737H30.0414C30.3107 29.7737 30.4454 29.8529 30.4454 30.0114C30.4454 30.0747 30.4216 30.1777 30.3741 30.3203C30.0731 31.1917 29.574 31.8809 28.8769 32.3879C28.1797 32.8949 27.3955 33.1484 26.5241 33.1484C25.0189 33.1484 23.7672 32.6018 22.7691 31.5086C21.7709 30.4154 21.2639 29.1479 21.248 27.7061ZM28.4966 26.3514C28.3223 24.3234 27.5698 23.246 26.2389 23.1193H26.1913C26.0646 23.1193 25.9378 23.1272 25.8111 23.143C25.6843 23.1589 25.4863 23.2223 25.2169 23.3332C24.9476 23.4441 24.7179 23.6104 24.5277 23.8322C24.3376 24.0541 24.1554 24.3789 23.9811 24.8066C23.8068 25.2344 23.6801 25.7573 23.6009 26.3752V26.5415H28.4966V26.3514Z" fill="#111928"/>
<path d="M39.9306 25.6388C39.9306 25.6388 39.7643 25.6388 39.4315 25.6388C39.0988 25.6388 38.8136 25.52 38.576 25.2823C38.3383 25.0447 38.2116 24.7436 38.1957 24.3792C38.1957 24.0148 38.3145 23.7138 38.5522 23.4761C38.6314 23.3969 38.671 23.3494 38.671 23.3335C38.671 23.3177 38.5918 23.3018 38.4334 23.286C38.0214 23.2226 37.6333 23.1909 37.2689 23.1909C36.4925 23.1909 35.8587 23.4444 35.3676 23.9514C34.6229 24.6961 34.2506 25.9398 34.2506 27.6827C34.2506 28.9819 34.4962 30.0038 34.9873 30.7485C35.6369 31.7149 36.5083 32.1982 37.6016 32.1982C38.2512 32.1982 38.774 31.9922 39.1701 31.5803C39.5662 31.1683 39.8514 30.6772 40.0257 30.1068C40.0574 29.98 40.097 29.9008 40.1445 29.8691C40.192 29.8374 40.3188 29.8216 40.5248 29.8216H40.8575C40.9526 29.9167 41.0001 29.988 41.0001 30.0355C41.0001 30.0989 40.9684 30.2256 40.905 30.4157C40.8416 30.6059 40.7149 30.8673 40.5248 31.2C40.3346 31.5327 40.1049 31.8338 39.8356 32.1031C39.5662 32.3725 39.186 32.618 38.6948 32.8399C38.2036 33.0617 37.657 33.1647 37.055 33.1488C35.6924 33.1488 34.5041 32.6418 33.4901 31.6278C32.4761 30.6138 31.9612 29.3384 31.9453 27.8015C31.9453 26.1537 32.4602 24.8149 33.4901 23.7851C34.5199 22.7552 35.7162 22.2403 37.0787 22.2403C38.4413 22.2403 39.3919 22.4542 39.9306 22.882C40.4693 23.3098 40.7387 23.8168 40.7387 24.403C40.7387 24.7674 40.604 25.0605 40.3346 25.2823L39.9306 25.6388Z" fill="#111928"/>
</svg>
