<svg width="52" height="52" viewBox="0 0 52 52" fill="none" xmlns="http://www.w3.org/2000/svg">
<rect width="52" height="52" rx="4" fill="#D0F0FD"/>
<path d="M17.4294 25.1634C17.4294 24.5243 17.2086 23.9731 16.7669 23.5098C16.3252 23.0465 15.6871 22.8148 14.8528 22.8148C14.2638 22.8148 13.7566 22.9187 13.3313 23.1264C12.8405 23.4299 12.5951 23.8453 12.5951 24.3725C12.5787 24.4524 12.5787 24.5563 12.5951 24.6841C12.6115 24.8119 12.7423 25.0036 12.9877 25.2593C13.2331 25.5149 13.5849 25.7146 14.0429 25.8584C14.3374 25.9383 14.6973 26.0102 15.1227 26.0741C15.5481 26.138 15.908 26.2099 16.2025 26.2898C16.4969 26.3696 16.7587 26.4735 16.9877 26.6013C17.2658 26.7291 17.5358 26.8889 17.7975 27.0806C18.0593 27.2723 18.3211 27.5999 18.5828 28.0632C18.8446 28.5265 18.9836 29.0218 19 29.549C19 30.5396 18.6892 31.3544 18.0675 31.9935C17.4458 32.6325 16.4397 32.9601 15.0491 32.976H14.8528C14.002 32.976 13.2168 32.6885 12.4969 32.1133L12.3006 32.281L12.0798 32.4967C11.9816 32.5926 11.8834 32.6805 11.7853 32.7603L11.5153 33H11.319H11.2209C11.1718 33 11.0982 32.9521 11 32.8562V30.963V29.573C11 29.2375 11.0164 29.0378 11.0491 28.9739C11.0818 28.9099 11.1636 28.87 11.2945 28.854H11.5153C11.7117 28.854 11.8425 28.886 11.908 28.9499C11.9734 29.0138 12.0143 29.1097 12.0307 29.2375C12.047 29.3653 12.1043 29.581 12.2025 29.8845C12.3006 30.1881 12.456 30.5236 12.6687 30.8911C13.2413 31.7059 14.0348 32.1133 15.0491 32.1133C16.636 32.1133 17.4294 31.4902 17.4294 30.244C17.4294 29.7807 17.2822 29.4052 16.9877 29.1176C16.6605 28.7342 15.9816 28.4466 14.9509 28.2549C13.9202 28.0632 13.2413 27.8794 12.9141 27.7037C12.3252 27.4321 11.8589 27.0646 11.5153 26.6013C11.1718 26.138 11 25.6427 11 25.1155C11 24.4924 11.1391 23.9651 11.4172 23.5338C11.6953 23.1024 12.047 22.7829 12.4724 22.5752C12.8978 22.3675 13.3067 22.2237 13.6994 22.1438C14.092 22.0639 14.4519 22.024 14.7791 22.024H15.0491C15.7035 22.024 16.2761 22.1438 16.7669 22.3834L17.135 22.5752L17.3558 22.4074C17.5194 22.2636 17.6994 22.1278 17.8957 22H18.092H18.1902C18.2393 22 18.3129 22.0479 18.411 22.1438V25.3072L18.2638 25.451H17.5767C17.4785 25.3551 17.4294 25.2593 17.4294 25.1634Z" fill="#111928"/>
<path d="M21.8674 18.4067C21.8674 17.9692 22.0103 17.6254 22.296 17.3754C22.5818 17.1254 22.931 17.0005 23.3437 17.0005C23.7088 17.0317 24.0263 17.1645 24.2962 17.3989C24.566 17.6332 24.701 17.9692 24.701 18.4067C24.701 18.8754 24.566 19.2269 24.2962 19.4613C24.0263 19.6957 23.693 19.8129 23.2961 19.8129C22.8992 19.8129 22.5659 19.6957 22.296 19.4613C22.0262 19.2269 21.8833 18.8754 21.8674 18.4067ZM26.2623 32.2109C26.0242 32.1641 25.1987 32.1406 23.7859 32.1406C23.6113 32.1406 23.3176 32.1406 22.9049 32.1406C22.4922 32.1406 22.0953 32.1563 21.7143 32.1875L21.1905 32.2109H21V31.1328H21.381C21.8255 31.1328 22.2144 31.1094 22.5477 31.0625C22.6906 31 22.7779 30.9141 22.8097 30.8047C22.8414 30.6954 22.8573 30.3672 22.8573 29.8204V27.4064V25.344C22.8573 24.5315 22.8414 24.0159 22.8097 23.7971C22.7779 23.5784 22.6668 23.43 22.4763 23.3518C22.2541 23.2425 21.881 23.1878 21.3572 23.1878H21.0952V22.6487C21.0952 22.2894 21.1111 22.1097 21.1429 22.1097L21.381 22.0863C21.5397 22.0706 21.762 22.055 22.0477 22.0394C22.3334 22.0238 22.6192 22.0081 22.9049 21.9925C23.1748 21.9769 23.4605 21.9613 23.7621 21.9456C24.0637 21.93 24.2939 21.9066 24.4526 21.8753C24.6114 21.8441 24.6987 21.8363 24.7146 21.8519H24.786V30.7579C24.8654 30.9141 24.9606 31.0078 25.0717 31.0391C25.1828 31.0703 25.4606 31.1016 25.9051 31.1328H26.4528V32.2109H26.2623Z" fill="#111928"/>
<path d="M28.5968 31.1328H28.9302C29.5493 31.1328 29.9223 31.0235 30.0493 30.8047V30.6172C30.0493 30.4766 30.0493 30.2969 30.0493 30.0782C30.0493 29.8594 30.0493 29.6173 30.0493 29.3517C30.0493 29.086 30.0572 28.7814 30.0731 28.4376C30.089 28.0939 30.089 27.7658 30.0731 27.4533C30.0731 26.9689 30.0731 26.4533 30.0731 25.9064C30.0731 25.3596 30.0652 24.8987 30.0493 24.5237V23.9846C30.0017 23.6878 29.8905 23.4925 29.7159 23.3987C29.5413 23.305 29.1841 23.2347 28.6444 23.1878H28.2158V22.6487C28.2158 22.2894 28.2317 22.1097 28.2634 22.1097L28.5016 22.0863C28.6603 22.0706 28.8825 22.055 29.1683 22.0394C29.454 22.0238 29.7477 22.0081 30.0493 21.9925C30.3191 21.9769 30.6049 21.9613 30.9065 21.9456C31.2081 21.93 31.4383 21.9066 31.597 21.8753C31.7558 21.8441 31.8431 21.8363 31.8589 21.8519H31.9304V22.7894C31.9304 23.3831 31.9383 23.68 31.9542 23.68C31.9701 23.68 32.0097 23.6409 32.0732 23.5628C32.1367 23.4846 32.232 23.3675 32.359 23.2112C32.486 23.055 32.6368 22.9144 32.8114 22.7894C32.986 22.6644 33.2162 22.5159 33.5019 22.3441C33.7877 22.1722 34.0893 22.0472 34.4067 21.9691C34.7242 21.8909 35.129 21.8519 35.6211 21.8519C37.4308 21.9144 38.4388 22.7972 38.6451 24.5002C38.661 24.6096 38.669 25.6955 38.669 27.758V29.7735C38.669 30.3672 38.6848 30.7188 38.7166 30.8282C38.7483 30.9375 38.8356 31.0157 38.9785 31.0625C39.3119 31.1094 39.7008 31.1328 40.1453 31.1328H40.5262V32.2109H40.3357L39.7643 32.1875C39.3992 32.1719 39.0023 32.1641 38.5737 32.1641C38.1451 32.1641 37.8435 32.1563 37.6689 32.1406C36.0338 32.1406 35.1449 32.1641 35.002 32.2109H34.8115V31.1328H35.1925C36.1608 31.1328 36.645 31.0078 36.645 30.7579C36.6609 30.7266 36.6688 29.6485 36.6688 27.5236C36.6529 25.4143 36.6371 24.2971 36.6212 24.1721C36.5259 23.7346 36.3672 23.4065 36.145 23.1878C35.9227 22.969 35.7322 22.8362 35.5735 22.7894C35.4148 22.7425 35.2084 22.7269 34.9544 22.7425C34.2401 22.7425 33.613 23.0081 33.0733 23.5393C32.6447 23.9612 32.3749 24.3909 32.2637 24.8284C32.1526 25.2658 32.0891 25.9143 32.0732 26.7736V28.2736V29.6798C32.0732 30.1485 32.0812 30.461 32.0971 30.6172C32.1129 30.7735 32.1367 30.875 32.1685 30.9219C32.2002 30.9688 32.2717 31.0157 32.3828 31.0625C32.7161 31.1094 33.1051 31.1328 33.5495 31.1328H33.9305V32.2109H33.74L33.1924 32.1875C32.8114 32.1719 32.4066 32.1641 31.978 32.1641C31.5494 32.1641 31.2478 32.1563 31.0732 32.1406C29.4381 32.1406 28.5492 32.1641 28.4063 32.2109H28.2158V31.1328H28.5968Z" fill="#111928"/>
</svg>
