<svg width="52" height="52" viewBox="0 0 52 52" fill="none" xmlns="http://www.w3.org/2000/svg">
<rect width="52" height="52" rx="4" fill="#D0F0FD"/>
<path d="M10.1975 23.7495C10.9728 23.691 11.5725 23.2814 11.9967 22.5208C12.4209 21.7601 12.655 20.8678 12.6989 19.8439V19.5147H13.5766V23.5521H16.5387V24.5614H13.5766V27.7211C13.5912 29.5496 13.5985 30.5808 13.5985 30.8149C13.5985 31.0489 13.6497 31.283 13.7521 31.517C13.9569 32.0875 14.3153 32.3728 14.8273 32.3728C15.4709 32.3728 15.8658 31.8535 16.0121 30.8149C16.0268 30.6979 16.0341 30.3614 16.0341 29.8056V29.0376H16.9118V29.8056V30.0689C16.9118 31.1952 16.6046 32.051 15.9902 32.6361C15.5952 33.031 15.0832 33.2285 14.4542 33.2285C13.9569 33.2285 13.5254 33.1407 13.1597 32.9652C12.794 32.7897 12.516 32.5629 12.3259 32.285C12.1357 32.0071 11.9967 31.7511 11.909 31.517C11.8212 31.283 11.77 31.0489 11.7554 30.8149C11.7407 30.7125 11.7334 29.63 11.7334 27.5675V24.5614H10V23.7495H10.1975Z" fill="#111928"/>
<path d="M21.1477 26.3163C21.1477 26.3163 20.9868 26.3163 20.665 26.3163C20.3432 26.3163 20.0726 26.2066 19.8531 25.9872C19.6337 25.7678 19.524 25.4825 19.524 25.1314C19.524 24.6195 19.7727 24.166 20.27 23.771C20.7674 23.3761 21.6524 23.1786 22.925 23.1786C23.9929 23.1786 24.8559 23.4126 25.5142 23.8807C26.1725 24.3488 26.6113 24.9047 26.8307 25.5483C26.9039 25.7531 26.9404 25.9799 26.9404 26.2285C26.9404 26.4772 26.9477 27.3183 26.9624 28.7519V30.2878C26.9624 30.99 26.9989 31.4727 27.0721 31.736C27.1452 31.9993 27.2988 32.131 27.5329 32.131C27.7523 32.131 27.8986 32.0139 27.9717 31.7799C28.0449 31.5458 28.0814 31.1582 28.0814 30.617V29.827H28.9591V30.6828C28.9445 31.2679 28.9225 31.6117 28.8933 31.7141C28.7616 32.1529 28.5056 32.4967 28.1253 32.7453C27.745 32.994 27.3427 33.1257 26.9185 33.1403C26.4943 33.1549 26.1505 33.0233 25.8872 32.7453C25.6239 32.4674 25.4484 32.1602 25.3606 31.8238V31.736L25.3167 31.8018C25.2875 31.8457 25.2509 31.8896 25.207 31.9335C25.1631 31.9774 25.1046 32.0432 25.0315 32.131C24.9583 32.2187 24.8706 32.2992 24.7682 32.3723C24.6658 32.4455 24.5561 32.5332 24.439 32.6356C24.322 32.738 24.1904 32.8185 24.0441 32.877C23.8978 32.9355 23.7369 32.994 23.5614 33.0525C23.3858 33.111 23.1957 33.1549 22.9909 33.1842C22.7861 33.2134 22.5593 33.2354 22.3107 33.25C21.433 33.25 20.6431 33.0233 19.9409 32.5698C19.2388 32.1163 18.8877 31.48 18.8877 30.6608C18.8877 30.3536 18.9389 30.0611 19.0413 29.7832C19.1437 29.5052 19.3412 29.2053 19.6337 28.8835C19.9263 28.5617 20.2774 28.2911 20.6869 28.0717C21.0965 27.8523 21.667 27.6475 22.3984 27.4573C23.1298 27.2671 23.9344 27.1574 24.8121 27.1282H25.1192V26.6454C25.1192 26.1481 25.0754 25.7824 24.9876 25.5483C24.6658 24.5097 23.9563 23.9904 22.8592 23.9904C22.5959 23.9904 22.3472 23.9978 22.1132 24.0124C21.8791 24.027 21.6963 24.0563 21.5646 24.1002C21.433 24.144 21.3745 24.166 21.3891 24.166C21.7109 24.3854 21.8718 24.7072 21.8718 25.1314C21.8718 25.4971 21.7548 25.7824 21.5207 25.9872L21.1477 26.3163ZM20.9064 30.6828C20.9064 31.1362 21.0819 31.5385 21.433 31.8896C21.784 32.2407 22.2156 32.4235 22.7276 32.4381C23.2834 32.4381 23.7735 32.2699 24.1977 31.9335C24.6219 31.597 24.9071 31.1582 25.0534 30.617C25.0827 30.5146 25.1046 30.0318 25.1192 29.1688C25.1192 28.3204 25.1119 27.8961 25.0973 27.8961C24.9803 27.8961 24.8267 27.9035 24.6365 27.9181C24.4464 27.9327 24.1172 27.9985 23.6491 28.1156C23.181 28.2326 22.7568 28.3789 22.3765 28.5544C21.9962 28.7299 21.6597 29.0006 21.3671 29.3663C21.0746 29.732 20.921 30.1708 20.9064 30.6828Z" fill="#111928"/>
<path d="M30.0063 31.9995H30.3135C30.884 31.9995 31.2278 31.8971 31.3448 31.6923V31.5167C31.3448 31.3851 31.3448 31.2169 31.3448 31.0121C31.3448 30.8073 31.3448 30.5805 31.3448 30.3319C31.3448 30.0832 31.3521 29.7979 31.3668 29.4761C31.3814 29.1543 31.3814 28.8471 31.3668 28.5545C31.3668 28.1011 31.3668 27.6184 31.3668 27.1064C31.3668 26.5944 31.3594 26.1629 31.3448 25.8118V25.3071C31.3009 25.0292 31.1985 24.8463 31.0376 24.7586C30.8767 24.6708 30.5476 24.605 30.0502 24.5611H29.6553V24.0564C29.6553 23.72 29.6699 23.5518 29.6992 23.5518L29.9186 23.5298C30.0649 23.5152 30.2697 23.5006 30.533 23.4859C30.7963 23.4713 31.0669 23.4567 31.3448 23.442C31.5935 23.4274 31.8568 23.4128 32.1347 23.3982C32.4127 23.3835 32.6248 23.3616 32.771 23.3323C32.9173 23.3031 32.9978 23.2958 33.0124 23.3104H33.0782V24.1881C33.0782 24.7439 33.0855 25.0219 33.1002 25.0219C33.1148 25.0219 33.1514 24.9853 33.2099 24.9122C33.2684 24.839 33.3562 24.7293 33.4732 24.583C33.5902 24.4368 33.7292 24.3051 33.8901 24.1881C34.051 24.0711 34.2631 23.9321 34.5264 23.7712C34.7897 23.6103 35.0676 23.4932 35.3602 23.4201C35.6528 23.347 36.0258 23.3104 36.4793 23.3104C38.1469 23.3689 39.0757 24.1954 39.2659 25.7898C39.2805 25.8922 39.2878 26.9089 39.2878 28.8398V30.7268C39.2878 31.2827 39.3025 31.6118 39.3317 31.7142C39.361 31.8166 39.4414 31.8897 39.5731 31.9336C39.8803 31.9775 40.2387 31.9995 40.6482 31.9995H40.9993V33.0088H40.8238L40.2972 32.9868C39.9607 32.9722 39.595 32.9649 39.2001 32.9649C38.8051 32.9649 38.5272 32.9576 38.3663 32.943C36.8596 32.943 36.0404 32.9649 35.9088 33.0088H35.7332V31.9995H36.0843C36.9766 31.9995 37.4228 31.8824 37.4228 31.6484C37.4374 31.6191 37.4447 30.6098 37.4447 28.6204C37.4301 26.6456 37.4155 25.5997 37.4008 25.4827C37.3131 25.0731 37.1668 24.7659 36.962 24.5611C36.7572 24.3563 36.5817 24.232 36.4354 24.1881C36.2891 24.1442 36.0989 24.1296 35.8649 24.1442C35.2066 24.1442 34.6288 24.3929 34.1315 24.8902C33.7365 25.2852 33.4878 25.6875 33.3854 26.097C33.283 26.5066 33.2245 27.1137 33.2099 27.9182V29.3225V30.639C33.2099 31.0779 33.2172 31.3704 33.2318 31.5167C33.2465 31.663 33.2684 31.7581 33.2977 31.802C33.3269 31.8459 33.3927 31.8897 33.4951 31.9336C33.8023 31.9775 34.1607 31.9995 34.5703 31.9995H34.9214V33.0088H34.7458L34.2412 32.9868C33.8901 32.9722 33.5171 32.9649 33.1221 32.9649C32.7272 32.9649 32.4492 32.9576 32.2883 32.943C30.7816 32.943 29.9625 32.9649 29.8308 33.0088H29.6553V31.9995H30.0063Z" fill="#111928"/>
</svg>
