<svg width="52" height="52" viewBox="0 0 52 52" fill="none" xmlns="http://www.w3.org/2000/svg">
<path d="M33.584 28.8681L32.492 33.6001H29.892L32.024 24.3701C32.1453 23.8675 32.206 23.5381 32.206 23.3821C32.206 22.9661 32.05 22.7581 31.738 22.7581C31.4953 22.7581 31.1747 22.8968 30.776 23.1741C30.3947 23.4341 30.0133 23.7635 29.632 24.1621C29.5107 24.0754 29.398 23.9888 29.294 23.9021C29.2073 23.8155 29.1207 23.7201 29.034 23.6161C29.7273 22.8015 30.438 22.1948 31.166 21.7961C31.9113 21.3801 32.6047 21.1721 33.246 21.1721C33.8353 21.1721 34.2513 21.3195 34.494 21.6141C34.7367 21.9088 34.858 22.2554 34.858 22.6541C34.858 22.8621 34.8233 23.1134 34.754 23.4081C34.702 23.6854 34.65 23.9801 34.598 24.2921H34.676C35.3347 23.2348 36.106 22.4461 36.99 21.9261C37.8913 21.3888 38.758 21.1201 39.59 21.1201C40.422 21.1201 41.0547 21.3541 41.488 21.8221C41.9387 22.2728 42.164 22.8275 42.164 23.4861C42.164 23.8501 42.0947 24.3354 41.956 24.9421C41.8347 25.5488 41.6787 26.1988 41.488 26.8921C41.2973 27.5855 41.1067 28.2701 40.916 28.9461C40.7253 29.6048 40.5607 30.1941 40.422 30.7141C40.3007 31.2168 40.24 31.5721 40.24 31.7801C40.24 31.9015 40.2747 32.0141 40.344 32.1181C40.4133 32.2221 40.5347 32.2741 40.708 32.2741C41.0027 32.2741 41.3753 32.1181 41.826 31.8061C42.2767 31.4941 42.684 31.1128 43.048 30.6621C43.2733 30.8181 43.4727 30.9915 43.646 31.1821C43.0567 31.9621 42.4153 32.6121 41.722 33.1321C41.046 33.6521 40.292 33.9121 39.46 33.9121C38.8187 33.9121 38.3507 33.7561 38.056 33.4441C37.7613 33.1148 37.614 32.7074 37.614 32.2221C37.614 31.8755 37.6747 31.4161 37.796 30.8441C37.9347 30.2721 38.0993 29.6481 38.29 28.9721C38.4807 28.2961 38.6627 27.6288 38.836 26.9701C39.0267 26.2941 39.1827 25.6788 39.304 25.1241C39.4427 24.5695 39.512 24.1361 39.512 23.8241C39.512 23.4774 39.434 23.1914 39.278 22.9661C39.122 22.7408 38.8447 22.6281 38.446 22.6281C37.9433 22.6281 37.38 22.8448 36.756 23.2781C36.132 23.7114 35.534 24.3701 34.962 25.2541C34.4073 26.1381 33.9653 27.2734 33.636 28.6601L33.584 28.8681Z" fill="#454545"/>
<path d="M18.894 33.8861C18.3567 33.8861 17.8453 33.7475 17.36 33.4701C16.8747 33.1755 16.4847 32.7248 16.19 32.1181C15.8953 31.5114 15.748 30.7314 15.748 29.7781C15.748 28.5994 15.9733 27.4901 16.424 26.4501C16.8747 25.4101 17.464 24.4915 18.192 23.6941C18.92 22.8968 19.7173 22.2728 20.584 21.8221C21.468 21.3541 22.3347 21.1201 23.184 21.1201C23.5133 21.1201 23.886 21.1721 24.302 21.2761C24.718 21.3628 25.1513 21.5188 25.602 21.7441C25.966 21.6921 26.3387 21.6401 26.72 21.5881C27.1187 21.5361 27.526 21.4754 27.942 21.4061L28.02 21.5101C27.812 22.2381 27.63 22.9315 27.474 23.5901C27.318 24.2314 27.162 24.8901 27.006 25.5661L25.81 30.7141C25.7927 30.8355 25.758 30.9915 25.706 31.1821C25.654 31.3728 25.628 31.5548 25.628 31.7281C25.628 31.8841 25.6627 32.0141 25.732 32.1181C25.8013 32.2221 25.9227 32.2741 26.096 32.2741C26.3907 32.2741 26.7633 32.1181 27.214 31.8061C27.6647 31.4941 28.072 31.1128 28.436 30.6621C28.6613 30.8181 28.8607 30.9915 29.034 31.1821C28.4447 31.9621 27.812 32.6121 27.136 33.1321C26.46 33.6521 25.6973 33.9121 24.848 33.9121C24.2067 33.9121 23.7473 33.7561 23.47 33.4441C23.1927 33.1148 23.054 32.7074 23.054 32.2221C23.054 31.7541 23.1493 31.2168 23.34 30.6101H23.21C22.5687 31.7194 21.8753 32.5428 21.13 33.0801C20.402 33.6174 19.6567 33.8861 18.894 33.8861ZM24.926 23.3821C24.562 23.0528 24.1807 22.7928 23.782 22.6021C23.3833 22.3941 22.976 22.2901 22.56 22.2901C21.9187 22.2901 21.3467 22.5241 20.844 22.9921C20.3413 23.4601 19.9167 24.0668 19.57 24.8121C19.2233 25.5401 18.9633 26.3288 18.79 27.1781C18.6167 28.0101 18.53 28.8074 18.53 29.5701C18.53 30.6101 18.6687 31.3208 18.946 31.7021C19.2233 32.0661 19.5527 32.2481 19.934 32.2481C20.3847 32.2481 20.8787 32.0314 21.416 31.5981C21.9707 31.1474 22.508 30.4368 23.028 29.4661C23.5653 28.4781 24.0247 27.1781 24.406 25.5661L24.926 23.3821Z" fill="#454545"/>
<path d="M15.54 22.862H12.55L10.912 29.986C10.756 30.662 10.678 31.1473 10.678 31.442C10.678 31.7193 10.7387 31.9447 10.86 32.118C10.9813 32.274 11.198 32.352 11.51 32.352C11.874 32.352 12.3073 32.2047 12.81 31.91C13.3127 31.598 13.7633 31.1907 14.162 30.688C14.3873 30.844 14.5867 31.0173 14.76 31.208C14.1533 32.0573 13.46 32.7247 12.68 33.21C11.9 33.6953 11.094 33.938 10.262 33.938C9.70733 33.938 9.26533 33.8253 8.936 33.6C8.624 33.3747 8.40733 33.106 8.286 32.794C8.16467 32.4647 8.104 32.1613 8.104 31.884C8.104 31.6933 8.12133 31.4593 8.156 31.182C8.19067 30.9047 8.25133 30.5667 8.338 30.168L9.95 22.862H8C8 22.7233 8.00867 22.5933 8.026 22.472C8.04333 22.3507 8.078 22.2293 8.13 22.108L10.184 21.796C10.3053 21.2933 10.4353 20.73 10.574 20.106C10.73 19.4647 10.8687 18.858 10.99 18.286C11.406 18.2513 11.8307 18.2167 12.264 18.182C12.7147 18.13 13.148 18.0693 13.564 18L13.642 18.104C13.5207 18.624 13.3993 19.1527 13.278 19.69C13.1567 20.21 13.0007 20.886 12.81 21.718H15.748C15.748 21.926 15.7307 22.1253 15.696 22.316C15.6613 22.4893 15.6093 22.6713 15.54 22.862Z" fill="#454545"/>
</svg>
