<svg width="53" height="53" viewBox="0 0 53 53" fill="none" xmlns="http://www.w3.org/2000/svg">
<g filter="url(#filter0_d_531_2746)">
<rect width="52" height="52" fill="white"/>
<path d="M26.8423 29.6791C28.097 29.3132 28.9906 28.611 29.5232 27.5723C30.0559 26.5337 30.482 24.5037 30.8015 21.4822C31.062 19.0155 31.2868 17.369 31.4762 16.5428C31.6657 15.7165 32.0563 15.0498 32.648 14.5422C33.2392 14.0346 34.0027 13.7809 34.9384 13.7809C35.4941 13.7809 36.0977 13.8636 36.7493 14.0288V14.7015C36.6197 14.6897 36.5061 14.6838 36.412 14.6838C35.9024 14.6838 35.471 14.9906 35.1159 15.6044C34.7608 16.2182 34.4537 17.7525 34.1927 20.2075C33.9441 22.3909 33.6725 23.943 33.376 24.8636C33.0794 25.7842 32.5948 26.693 31.9201 27.59C31.2454 28.4871 30.5056 29.1598 29.7008 29.6083C28.8959 30.0568 27.9431 30.3932 26.8423 30.6174V38H24.907V30.6174C23.7588 30.3814 22.7706 30.0214 21.942 29.5375C21.1134 29.0536 20.3915 28.3749 19.776 27.5015C19.1604 26.6282 18.6988 25.7311 18.3911 24.8105C18.0834 23.8899 17.7994 22.2611 17.5389 19.9242C17.2903 17.6346 16.9885 16.1887 16.6334 15.5867C16.2783 14.9848 15.8522 14.6838 15.3551 14.6838C15.2486 14.6838 15.1302 14.6897 15 14.7015V14.0288C15.651 13.8636 16.2547 13.7809 16.811 13.7809C17.7461 13.7809 18.5035 14.0288 19.0835 14.5245C19.6636 15.0202 20.06 15.6871 20.2731 16.525C20.4862 17.363 20.6933 18.8561 20.8945 21.0042C21.2141 24.5214 21.6757 26.7638 22.2794 27.7317C22.883 28.6995 23.7588 29.3486 24.907 29.6791V13.7809H26.8423V29.6791Z" fill="black"/>
</g>
<defs>
<filter id="filter0_d_531_2746" x="0" y="0" width="53" height="53" filterUnits="userSpaceOnUse" color-interpolation-filters="sRGB">
<feFlood flood-opacity="0" result="BackgroundImageFix"/>
<feColorMatrix in="SourceAlpha" type="matrix" values="0 0 0 0 0 0 0 0 0 0 0 0 0 0 0 0 0 0 127 0" result="hardAlpha"/>
<feOffset dx="1" dy="1"/>
<feColorMatrix type="matrix" values="0 0 0 0 0 0 0 0 0 0 0 0 0 0 0 0 0 0 0.25 0"/>
<feBlend mode="normal" in2="BackgroundImageFix" result="effect1_dropShadow_531_2746"/>
<feBlend mode="normal" in="SourceGraphic" in2="effect1_dropShadow_531_2746" result="shape"/>
</filter>
</defs>
</svg>
