<svg width="53" height="53" viewBox="0 0 53 53" fill="none" xmlns="http://www.w3.org/2000/svg">
<g filter="url(#filter0_d_531_2730)">
<rect width="52" height="52" fill="white"/>
<path d="M24.2198 10.0528V10.7256C23.0599 10.8902 22.4799 11.3983 22.4799 12.2481C22.4799 13.1687 23.1427 13.7583 24.4684 14.0185C25.226 13.2042 26.1196 12.4907 27.1493 11.8764C28.1791 11.262 29.0965 10.9504 29.9013 10.938C30.5049 10.938 30.8068 11.2089 30.8068 11.7524C30.8068 12.473 30.215 13.1811 29.0313 13.8769C27.8476 14.5727 26.4333 14.9338 24.788 14.9569C23.8173 15.9359 23.3321 16.9751 23.3321 18.0728C23.3321 19.2294 23.9003 20.1795 25.0365 20.9231C26.741 19.9906 28.54 19.5245 30.4339 19.5245C31.7359 19.5245 32.3869 19.849 32.3869 20.4982C32.3869 20.935 32.0437 21.3067 31.3572 21.6136C30.6706 21.9204 29.6824 22.0739 28.3921 22.0739C27.315 22.0739 26.2675 21.9972 25.2496 21.8437C22.1367 23.8266 20.5802 26.075 20.5802 28.5889C20.5802 29.6984 20.9708 30.6191 21.752 31.3508C22.5332 32.0825 23.7996 32.4484 25.5514 32.4484C25.8591 32.4484 26.2735 32.4307 26.7942 32.3953C28.1555 32.2891 29.0727 32.236 29.5462 32.236C30.9785 32.236 32.0199 32.6963 32.671 33.6169C33.3221 34.5375 33.6475 35.6882 33.6475 37.0692C33.6475 39.0047 33.1149 40.4742 32.0496 41.4775C30.9843 42.4807 29.7829 42.9881 28.4454 43C27.7352 43 27.1493 42.8584 26.6877 42.5751C26.2261 42.2918 25.9953 41.8965 25.9953 41.3889C25.9953 41.0349 26.1137 40.7516 26.3504 40.5391C26.587 40.3267 26.8653 40.2205 27.1848 40.2205C27.3979 40.2205 27.6997 40.2854 28.0903 40.4152C28.8241 40.6512 29.41 40.7693 29.848 40.7693C30.6528 40.7693 31.2861 40.4919 31.7478 39.9372C32.2094 39.3825 32.4402 38.6861 32.4402 37.8481C32.4402 37.2581 32.2626 36.7387 31.9075 36.2902C31.5525 35.8417 30.9724 35.6115 30.1676 35.5997C29.8125 35.5997 29.3864 35.6115 28.8893 35.6351C27.4098 35.7178 26.4214 35.7591 25.9243 35.7591C23.8173 35.7591 22.1367 35.1453 20.882 33.9178C19.6273 32.6904 19 31.1148 19 29.1909C19 26.1693 20.6689 23.6377 24.0068 21.5959C22.7995 20.6398 22.1958 19.548 22.1958 18.3206C22.1958 17.1645 22.7048 16.0138 23.7227 14.8683C22.0302 14.4434 21.1838 13.5812 21.1838 12.2835C21.1838 10.8318 22.1958 10.0882 24.2198 10.0528Z" fill="black"/>
</g>
<defs>
<filter id="filter0_d_531_2730" x="0" y="0" width="53" height="53" filterUnits="userSpaceOnUse" color-interpolation-filters="sRGB">
<feFlood flood-opacity="0" result="BackgroundImageFix"/>
<feColorMatrix in="SourceAlpha" type="matrix" values="0 0 0 0 0 0 0 0 0 0 0 0 0 0 0 0 0 0 127 0" result="hardAlpha"/>
<feOffset dx="1" dy="1"/>
<feColorMatrix type="matrix" values="0 0 0 0 0 0 0 0 0 0 0 0 0 0 0 0 0 0 0.25 0"/>
<feBlend mode="normal" in2="BackgroundImageFix" result="effect1_dropShadow_531_2730"/>
<feBlend mode="normal" in="SourceGraphic" in2="effect1_dropShadow_531_2730" result="shape"/>
</filter>
</defs>
</svg>
