<svg width="40" height="40" viewBox="0 0 40 40" fill="none" xmlns="http://www.w3.org/2000/svg">
<path d="M17.3432 13.5096C17.5849 13.1335 17.4508 12.6392 17.0651 12.4131V12.4131C16.6756 12.1847 16.1761 12.3149 15.9318 12.6946C14.4432 15.0077 12.2965 17.4147 10.1807 19.1134C9.6305 19.5552 9.62793 20.4243 10.1765 20.8681C12.2936 22.5808 14.4422 24.9907 15.9318 27.3054C16.1761 27.6851 16.6756 27.8153 17.0651 27.5869V27.5869C17.4508 27.3608 17.5849 26.8665 17.3432 26.4904C16.8593 25.7375 16.2619 24.9412 15.6365 24.187H25.3379C24.7124 24.9412 24.115 25.7375 23.6312 26.4904C23.3894 26.8665 23.5235 27.3608 23.9092 27.5869V27.5869C24.2987 27.8153 24.7982 27.6851 25.0425 27.3054C26.5321 24.9907 28.6807 22.5808 30.7978 20.8681C31.3464 20.4243 31.3439 19.5552 30.7936 19.1134C28.6779 17.4147 26.5311 15.0077 25.0425 12.6946C24.7982 12.3149 24.2987 12.1847 23.9092 12.4131V12.4131C23.5235 12.6392 23.3894 13.1335 23.6312 13.5096C24.115 14.2625 24.7124 15.0588 25.3379 15.813H15.6365C16.2619 15.0588 16.8593 14.2625 17.3432 13.5096ZM14.3092 17.4781H26.6652C27.5822 18.4676 28.5234 19.3605 29.3922 19.9879C28.5234 20.6395 27.5822 21.5324 26.6652 22.5219H14.3092C13.3922 21.5324 12.451 20.6395 11.5822 19.9879C12.451 19.3605 13.3922 18.4676 14.3092 17.4781Z" fill="black"/>
</svg>
