<svg width="44" height="44" viewBox="0 0 44 44" fill="none" xmlns="http://www.w3.org/2000/svg">
<g clip-path="url(#clip0_620_6702)">
<path d="M0 2C0 0.895431 0.895431 0 2 0H42C43.1046 0 44 0.895431 44 2V44H0V2Z" fill="#F7F9FA"/>
<path d="M0 2C0 0.895431 0.895431 0 2 0H42C43.1046 0 44 0.895431 44 2V44H0V2Z" stroke="#DDDDDD"/>
<g clip-path="url(#clip1_620_6702)">
<path d="M25.5764 13.1108H25.572C25.3251 13.0369 25.0826 13 24.849 13C24.2979 13 23.8174 13.0923 23.4118 13.277C23.0062 13.4617 22.6668 13.711 22.3978 14.0249C22.1289 14.3388 21.9261 14.7081 21.7895 15.1329C21.6528 15.5576 21.5867 16.01 21.5867 16.4901V27.1082C21.5867 27.4637 21.5558 27.8053 21.4985 28.1331C21.4412 28.4609 21.3354 28.7471 21.1899 28.9918C21.0444 29.2365 20.8504 29.4304 20.6168 29.5735C20.3831 29.7166 20.0878 29.7858 19.7351 29.7858C19.572 29.7858 19.378 29.7628 19.1531 29.712C18.9283 29.6612 18.8269 29.6381 18.6858 29.5781C18.4434 29.4765 18.1744 29.615 18.0995 29.8736L18.0201 30.1459C17.9452 30.3952 18.0863 30.663 18.3287 30.7276L18.342 30.7322L18.5095 30.7784C18.6329 30.8153 18.7608 30.8477 18.8886 30.88C19.0165 30.9123 19.1399 30.94 19.2589 30.9631C19.378 30.9862 19.4838 31 19.5764 31C20.1274 31 20.6124 30.9077 21.0224 30.723C21.4324 30.5383 21.7762 30.289 22.0452 29.9751C22.3141 29.6612 22.5169 29.2919 22.6447 28.8671C22.7726 28.4424 22.8387 27.99 22.8387 27.5099V16.8595C22.8387 16.5132 22.874 16.1808 22.9445 15.8623C23.015 15.5437 23.1252 15.2621 23.2707 15.0221C23.4162 14.782 23.6102 14.5881 23.8438 14.4404C24.0775 14.2926 24.3596 14.2188 24.6903 14.2188C24.8666 14.2188 25.0518 14.2419 25.2458 14.2926C25.2546 14.2926 25.259 14.2973 25.2678 14.2973C25.5455 14.3711 25.8321 14.2234 25.9511 13.9464C26.0922 13.6094 25.9159 13.217 25.5764 13.1108Z" fill="black" stroke="black" stroke-width="0.5"/>
</g>
</g>
<defs>
<clipPath id="clip0_620_6702">
<rect width="44" height="44" rx="4" fill="white"/>
</clipPath>
<clipPath id="clip1_620_6702">
<rect width="40" height="40" fill="white" transform="translate(2 2)"/>
</clipPath>
</defs>
</svg>
