<svg width="44" height="44" viewBox="0 0 44 44" fill="none" xmlns="http://www.w3.org/2000/svg">
<g clip-path="url(#clip0_620_6712)">
<path d="M0 2C0 0.895431 0.895431 0 2 0H42C43.1046 0 44 0.895431 44 2V44H0V2Z" fill="#F7F9FA"/>
<path d="M0 2C0 0.895431 0.895431 0 2 0H42C43.1046 0 44 0.895431 44 2V44H0V2Z" stroke="#DDDDDD"/>
<g clip-path="url(#clip1_620_6712)">
<path d="M24.6609 15.7891C22.8458 15.7891 21.0306 15.7824 19.2158 15.792C18.3284 15.7968 17.4333 15.8405 16.6084 16.1973C15.0751 16.8609 14.0606 17.9922 13.7656 19.6656C13.5925 20.6466 13.9151 21.5388 14.4743 22.342C15.1203 23.2694 16.0588 23.7453 17.1254 24.0094C18.0264 24.2325 18.9465 24.3001 19.8691 24.299C23.3102 24.2942 26.7516 24.2766 30.1927 24.2619C30.3581 24.2611 30.5131 24.27 30.6013 24.4397C30.7399 24.7057 30.5679 24.9935 30.253 25.003C29.5078 25.0265 28.7623 25.0453 28.0167 25.0592C25.933 25.0978 23.8492 25.172 21.7658 25.1559C20.4001 25.1456 19.0302 25.0493 17.6711 24.9064C16.3248 24.7649 15.1317 24.213 14.1734 23.2305C13.2239 22.2571 12.8664 21.082 13.0439 19.7372C13.2192 18.4115 13.7938 17.2956 14.8006 16.4148C15.6862 15.6399 16.7319 15.2588 17.9007 15.1637C19.4921 15.0347 21.0861 14.9895 22.6808 15.002C24.7524 15.0182 26.824 15.0619 28.8957 15.0865C29.4211 15.0928 29.9465 15.0707 30.4724 15.0623C30.8398 15.0564 31 15.171 31 15.4374C31 15.7027 30.8449 15.8203 30.4724 15.821C28.6697 15.8243 26.8667 15.8254 25.064 15.8269C24.9295 15.8269 24.795 15.8269 24.6605 15.8269L24.6609 15.7891Z" fill="black" stroke="black"/>
<path d="M22.0116 28.885C19.1945 28.885 16.3773 28.885 13.5601 28.8846C13.2474 28.8846 13.0986 28.7387 13.1251 28.4584C13.1412 28.2868 13.2331 28.1758 13.4054 28.1438C13.4708 28.1317 13.5388 28.1295 13.6057 28.1295C19.2154 28.1288 24.8251 28.1288 30.4352 28.1291C30.7751 28.1291 30.921 28.246 30.9184 28.5131C30.9162 28.7512 30.7773 28.8831 30.5175 28.8839C29.8392 28.8857 29.1609 28.885 28.4826 28.885C26.3254 28.885 24.1685 28.885 22.0113 28.885H22.0116Z" fill="black" stroke="black"/>
</g>
</g>
<defs>
<clipPath id="clip0_620_6712">
<rect width="44" height="44" rx="4" fill="white"/>
</clipPath>
<clipPath id="clip1_620_6712">
<rect width="40" height="40" fill="white" transform="translate(2 2)"/>
</clipPath>
</defs>
</svg>
