<svg width="52" height="52" viewBox="0 0 52 52" fill="none" xmlns="http://www.w3.org/2000/svg">
<path d="M20.64 36.84C18.9867 36.84 17.5867 36.3867 16.44 35.48C15.32 34.5733 14.4667 33.3067 13.88 31.68C13.2933 30.0533 13 28.1733 13 26.04C13 23.5067 13.3467 21.32 14.04 19.48C14.7333 17.64 15.5733 16.1467 16.56 15H20.16C19.4933 15.7733 18.88 16.6933 18.32 17.76C17.7867 18.8 17.3467 20.0133 17 21.4C16.68 22.7867 16.52 24.3467 16.52 26.08C16.52 28.6667 16.92 30.6267 17.72 31.96C18.52 33.2667 19.5733 33.92 20.88 33.92C21.76 33.92 22.48 33.6933 23.04 33.24C23.6267 32.7867 24.0533 32.1733 24.32 31.4C24.5867 30.6 24.72 29.7067 24.72 28.72V22.28H28.08V28.72C28.08 29.8133 28.2267 30.76 28.52 31.56C28.84 32.3333 29.28 32.92 29.84 33.32C30.4 33.72 31.08 33.92 31.88 33.92C32.7867 33.92 33.56 33.6267 34.2 33.04C34.8667 32.4533 35.3733 31.5733 35.72 30.4C36.0933 29.2267 36.28 27.7867 36.28 26.08C36.28 24.4 36.1333 22.8933 35.84 21.56C35.5467 20.2 35.12 18.9867 34.56 17.92C34.0267 16.8267 33.3867 15.8533 32.64 15H36.24C36.96 15.8267 37.5867 16.7867 38.12 17.88C38.6533 18.9467 39.0667 20.16 39.36 21.52C39.6533 22.88 39.8 24.3867 39.8 26.04C39.8 28.1733 39.5067 30.0533 38.92 31.68C38.3333 33.3067 37.4667 34.5733 36.32 35.48C35.2 36.3867 33.8133 36.84 32.16 36.84C30.6933 36.84 29.4933 36.5067 28.56 35.84C27.6267 35.1467 26.9333 34.0133 26.48 32.44H26.28C26.0133 33.48 25.6267 34.3333 25.12 35C24.6133 35.64 23.9867 36.1067 23.24 36.4C22.4933 36.6933 21.6267 36.84 20.64 36.84Z" fill="#454545"/>
</svg>
