<svg width="52" height="52" viewBox="0 0 52 52" fill="none" xmlns="http://www.w3.org/2000/svg">
<path d="M36.0556 37.5517C36.3821 37.5517 36.5601 37.5813 36.5898 37.6407C36.6492 37.6704 36.6789 37.8484 36.6789 38.1749V39.3768C36.6789 39.7032 36.6492 39.8961 36.5898 39.9555C36.5601 39.9852 36.3821 40 36.0556 40H15.6232C15.2968 40 15.1039 39.9852 15.0445 39.9555C15.0148 39.8961 15 39.7032 15 39.3768V38.1749C15 37.8484 15.0148 37.6704 15.0445 37.6407C15.1039 37.5813 15.2968 37.5517 15.6232 37.5517H36.0556ZM27.1081 33.7679C27.1081 34.0943 27.0784 34.2872 27.0191 34.3466C26.9894 34.3763 26.8113 34.3911 26.4849 34.3911H25.2385C24.912 34.3911 24.7191 34.3763 24.6598 34.3466C24.6301 34.2872 24.6153 34.0943 24.6153 33.7679V24.3752H15.6232C15.2968 24.3752 15.1039 24.3604 15.0445 24.3307C15.0148 24.2713 15 24.0784 15 23.752V22.5501C15 22.2236 15.0148 22.0456 15.0445 22.0159C15.1039 21.9565 15.2968 21.9269 15.6232 21.9269H24.6153V12.6232C24.6153 12.2968 24.6301 12.1187 24.6598 12.089C24.7191 12.0297 24.912 12 25.2385 12H26.4849C26.8113 12 26.9894 12.0297 27.0191 12.089C27.0784 12.1187 27.1081 12.2968 27.1081 12.6232V21.9269H36.0556C36.3821 21.9269 36.5601 21.9565 36.5898 22.0159C36.6492 22.0456 36.6789 22.2236 36.6789 22.5501V23.752C36.6789 24.0784 36.6492 24.2713 36.5898 24.3307C36.5601 24.3604 36.3821 24.3752 36.0556 24.3752H27.1081V33.7679Z" fill="#454545"/>
</svg>
