<svg width="40" height="40" viewBox="0 0 40 40" fill="none" xmlns="http://www.w3.org/2000/svg">
<path d="M13 20H13.01M20 20H20.01M27 20H27.01M14 20C14 20.5523 13.5523 21 13 21C12.4477 21 12 20.5523 12 20C12 19.4477 12.4477 19 13 19C13.5523 19 14 19.4477 14 20ZM21 20C21 20.5523 20.5523 21 20 21C19.4477 21 19 20.5523 19 20C19 19.4477 19.4477 19 20 19C20.5523 19 21 19.4477 21 20ZM28 20C28 20.5523 27.5523 21 27 21C26.4477 21 26 20.5523 26 20C26 19.4477 26.4477 19 27 19C27.5523 19 28 19.4477 28 20Z" stroke="#111827" stroke-width="2" stroke-linecap="round" stroke-linejoin="round"/>
</svg>
