<svg width="40" height="40" viewBox="0 0 40 40" fill="none" xmlns="http://www.w3.org/2000/svg">
<path d="M10.7052 19.9215C10.7052 17.1439 11.6632 14.8672 13.5792 13.0913C15.4953 11.3155 17.7618 10.3023 20.3788 10.0519C20.4022 10.0519 20.6008 10.0519 20.9747 10.0519C21.3486 10.0519 21.8392 10.0405 22.4468 10.0177C23.0543 9.99497 23.6385 9.99497 24.1992 10.0177H27.6692C28.0196 10.1999 28.1949 10.4275 28.1949 10.7008C28.1949 10.9057 28.043 11.1219 27.7393 11.3496L24.0941 11.3838C21.5004 11.4065 19.8998 11.4748 19.2923 11.5887C18.1474 11.8619 17.1309 12.2717 16.243 12.8181C15.3551 13.3645 14.6658 13.9223 14.1751 14.4915C13.6844 15.0607 13.2638 15.6868 12.9133 16.3698C12.5628 17.0528 12.3525 17.5992 12.2824 18.009C12.2123 18.4188 12.1539 18.8059 12.1072 19.1702V19.2385H27.6692C28.0196 19.4206 28.1949 19.6483 28.1949 19.9215C28.1949 20.1947 28.0196 20.4224 27.6692 20.6045H12.1072V20.6728C12.1072 21.1509 12.224 21.7315 12.4576 22.4145C12.6913 23.0975 13.0769 23.8374 13.6143 24.6343C14.1517 25.4311 14.8994 26.1597 15.8575 26.8199C16.8155 27.4802 17.9487 27.9469 19.2573 28.2201C19.8882 28.3567 21.5004 28.4364 24.0941 28.4592H27.7393C28.043 28.6869 28.1949 28.9145 28.1949 29.1422C28.1949 29.4154 28.0196 29.6431 27.6692 29.8252H24.2693C24.1058 29.8252 23.8137 29.8252 23.3931 29.8252C22.9725 29.8252 22.6337 29.8366 22.3767 29.8594C18.7549 29.8594 15.8925 28.8804 13.7895 26.9224C11.7333 25.0555 10.7052 22.7218 10.7052 19.9215Z" fill="black" stroke="black" stroke-width="0.5"/>
</svg>
