<svg width="52" height="52" viewBox="0 0 52 52" fill="none" xmlns="http://www.w3.org/2000/svg">
<path d="M32.5012 30.2221L31.4092 34.9541H28.8092L30.9412 25.7241C31.0625 25.2215 31.1232 24.8921 31.1232 24.7361C31.1232 24.3201 30.9672 24.1121 30.6552 24.1121C30.4125 24.1121 30.0918 24.2508 29.6932 24.5281C29.3118 24.7881 28.9305 25.1175 28.5492 25.5161C28.4278 25.4295 28.3152 25.3428 28.2112 25.2561C28.1245 25.1695 28.0378 25.0741 27.9512 24.9701C28.6445 24.1555 29.3552 23.5488 30.0832 23.1501C30.8285 22.7341 31.5218 22.5261 32.1632 22.5261C32.7525 22.5261 33.1685 22.6735 33.4112 22.9681C33.6538 23.2628 33.7752 23.6095 33.7752 24.0081C33.7752 24.2161 33.7405 24.4675 33.6712 24.7621C33.6192 25.0395 33.5672 25.3341 33.5152 25.6461H33.5932C34.2518 24.5888 35.0232 23.8001 35.9072 23.2801C36.8085 22.7428 37.6752 22.4741 38.5072 22.4741C39.3392 22.4741 39.9718 22.7081 40.4052 23.1761C40.8558 23.6268 41.0812 24.1815 41.0812 24.8401C41.0812 25.2041 41.0118 25.6895 40.8732 26.2961C40.7518 26.9028 40.5958 27.5528 40.4052 28.2461C40.2145 28.9395 40.0238 29.6241 39.8332 30.3001C39.6425 30.9588 39.4778 31.5481 39.3392 32.0681C39.2178 32.5708 39.1572 32.9261 39.1572 33.1341C39.1572 33.2555 39.1918 33.3681 39.2612 33.4721C39.3305 33.5761 39.4518 33.6281 39.6252 33.6281C39.9198 33.6281 40.2925 33.4721 40.7432 33.1601C41.1938 32.8481 41.6012 32.4668 41.9652 32.0161C42.1905 32.1721 42.3898 32.3455 42.5632 32.5361C41.9738 33.3161 41.3325 33.9661 40.6392 34.4861C39.9632 35.0061 39.2092 35.2661 38.3772 35.2661C37.7358 35.2661 37.2678 35.1101 36.9732 34.7981C36.6785 34.4688 36.5312 34.0615 36.5312 33.5761C36.5312 33.2295 36.5918 32.7701 36.7132 32.1981C36.8518 31.6261 37.0165 31.0021 37.2072 30.3261C37.3978 29.6501 37.5798 28.9828 37.7532 28.3241C37.9438 27.6481 38.0998 27.0328 38.2212 26.4781C38.3598 25.9235 38.4292 25.4901 38.4292 25.1781C38.4292 24.8315 38.3512 24.5455 38.1952 24.3201C38.0392 24.0948 37.7618 23.9821 37.3632 23.9821C36.8605 23.9821 36.2972 24.1988 35.6732 24.6321C35.0492 25.0655 34.4512 25.7241 33.8792 26.6081C33.3245 27.4921 32.8825 28.6275 32.5532 30.0141L32.5012 30.2221Z" fill="#454545"/>
<path d="M26.6327 32.0161C26.858 32.1721 27.0574 32.3455 27.2307 32.5361C26.6414 33.3161 26 33.9661 25.3067 34.4861C24.6307 35.0061 23.8767 35.2661 23.0447 35.2661C22.4033 35.2661 21.9353 35.1101 21.6407 34.7981C21.346 34.4688 21.1987 34.0355 21.1987 33.4981C21.1987 33.3075 21.216 33.1081 21.2507 32.9001C21.2854 32.6748 21.3287 32.4495 21.3807 32.2241L22.9407 25.7241C23.062 25.2215 23.1227 24.8921 23.1227 24.7361C23.1227 24.3201 22.9667 24.1121 22.6547 24.1121C22.412 24.1121 22.0913 24.2508 21.6927 24.5281C21.3113 24.7881 20.93 25.1175 20.5487 25.5161C20.4273 25.4295 20.3147 25.3428 20.2107 25.2561C20.124 25.1695 20.0374 25.0741 19.9507 24.9701C20.644 24.1555 21.3547 23.5488 22.0827 23.1501C22.828 22.7341 23.5214 22.5261 24.1627 22.5261C24.752 22.5261 25.168 22.6821 25.4107 22.9941C25.6707 23.2888 25.8007 23.6615 25.8007 24.1121C25.8007 24.2681 25.7834 24.4415 25.7487 24.6321C25.7314 24.8055 25.7053 24.9875 25.6707 25.1781L24.0067 32.0941C23.9893 32.2155 23.9547 32.3715 23.9027 32.5621C23.8507 32.7355 23.8247 32.9088 23.8247 33.0821C23.8247 33.2381 23.8593 33.3681 23.9287 33.4721C23.998 33.5761 24.1194 33.6281 24.2927 33.6281C24.5874 33.6281 24.96 33.4721 25.4107 33.1601C25.8614 32.8481 26.2687 32.4668 26.6327 32.0161ZM25.4367 19.5101C24.9687 19.5101 24.5874 19.3541 24.2927 19.0421C23.998 18.7301 23.8507 18.3488 23.8507 17.8981C23.8507 17.3781 24.0327 16.9361 24.3967 16.5721C24.778 16.1908 25.2287 16.0001 25.7487 16.0001C26.2167 16.0001 26.5894 16.1561 26.8667 16.4681C27.144 16.7628 27.2827 17.1355 27.2827 17.5861C27.2827 18.1061 27.1094 18.5568 26.7627 18.9381C26.416 19.3195 25.974 19.5101 25.4367 19.5101Z" fill="#454545"/>
<path d="M13.238 35.2661C11.8687 35.2661 10.82 35.0235 10.092 34.5381C9.364 34.0528 9 33.5415 9 33.0041C9 32.7095 9.11267 32.4321 9.338 32.1721C9.56333 31.9121 9.89267 31.7821 10.326 31.7821C10.7593 31.7821 11.106 31.9035 11.366 32.1461C11.6433 32.3888 11.8513 32.7008 11.99 33.0821C12.146 33.4635 12.25 33.8448 12.302 34.2261C12.4927 34.2781 12.6747 34.3128 12.848 34.3301C13.0387 34.3475 13.2207 34.3561 13.394 34.3561C14.1047 34.3561 14.7027 34.2088 15.188 33.9141C15.6733 33.6021 15.916 33.1428 15.916 32.5361C15.916 31.9988 15.708 31.5481 15.292 31.1841C14.876 30.8028 14.2693 30.3435 13.472 29.8061C13.004 29.4768 12.5533 29.1388 12.12 28.7921C11.6867 28.4281 11.3313 28.0295 11.054 27.5961C10.7767 27.1628 10.638 26.6775 10.638 26.1401C10.638 25.5855 10.8027 25.0308 11.132 24.4761C11.4787 23.9041 12.016 23.4361 12.744 23.0721C13.472 22.6908 14.3993 22.5001 15.526 22.5001C16.774 22.5001 17.71 22.7168 18.334 23.1501C18.958 23.5835 19.27 24.0515 19.27 24.5541C19.27 24.8141 19.1747 25.0828 18.984 25.3601C18.8107 25.6375 18.4987 25.7761 18.048 25.7761C17.476 25.7761 17.034 25.5508 16.722 25.1001C16.4273 24.6321 16.2453 24.1381 16.176 23.6181C15.812 23.5315 15.448 23.4881 15.084 23.4881C14.3907 23.4881 13.862 23.6528 13.498 23.9821C13.134 24.2941 12.952 24.7015 12.952 25.2041C12.952 25.7415 13.16 26.2095 13.576 26.6081C14.0093 26.9895 14.6333 27.4575 15.448 28.0121C15.916 28.3241 16.3667 28.6621 16.8 29.0261C17.2333 29.3728 17.5887 29.7715 17.866 30.2221C18.1433 30.6555 18.282 31.1755 18.282 31.7821C18.282 32.5101 18.0653 33.1341 17.632 33.6541C17.1987 34.1741 16.6007 34.5728 15.838 34.8501C15.0753 35.1275 14.2087 35.2661 13.238 35.2661Z" fill="#454545"/>
</svg>
