<svg width="44" height="44" viewBox="0 0 44 44" fill="none" xmlns="http://www.w3.org/2000/svg">
<g clip-path="url(#clip0_620_6722)">
<path d="M0 2C0 0.895431 0.895431 0 2 0H42C43.1046 0 44 0.895431 44 2V44H0V2Z" fill="#F7F9FA"/>
<path d="M0 2C0 0.895431 0.895431 0 2 0H42C43.1046 0 44 0.895431 44 2V44H0V2Z" stroke="#DDDDDD"/>
<g clip-path="url(#clip1_620_6722)">
<path d="M16.9196 21.9764C16.9196 21.5868 16.7849 21.2507 16.5156 20.9683C16.2464 20.6858 15.8574 20.5446 15.3487 20.5446C14.9897 20.5446 14.6805 20.6079 14.4212 20.7345C14.122 20.9196 13.9724 21.1728 13.9724 21.4942C13.9624 21.5429 13.9624 21.6062 13.9724 21.6842C13.9824 21.7621 14.0622 21.879 14.2118 22.0348C14.3614 22.1907 14.5758 22.3124 14.8551 22.4001C15.0346 22.4488 15.254 22.4926 15.5133 22.5316C15.7726 22.5705 15.992 22.6144 16.1716 22.6631C16.3511 22.7118 16.5107 22.7751 16.6503 22.853C16.8198 22.9309 16.9844 23.0283 17.144 23.1452C17.3035 23.2621 17.4631 23.4617 17.6227 23.7442C17.7823 24.0267 17.867 24.3286 17.877 24.65C17.877 25.2539 17.6875 25.7507 17.3085 26.1403C16.9295 26.5299 16.3162 26.7296 15.4684 26.7393H15.3487C14.8301 26.7393 14.3514 26.564 13.9126 26.2133L13.7929 26.3156L13.6582 26.4471C13.5984 26.5055 13.5386 26.5591 13.4787 26.6078L13.3142 26.7539H13.1945H13.1346C13.1047 26.7539 13.0598 26.7247 13 26.6662V25.512V24.6646C13 24.4601 13.01 24.3384 13.0299 24.2994C13.0499 24.2604 13.0997 24.2361 13.1795 24.2263H13.3142C13.4338 24.2263 13.5136 24.2458 13.5535 24.2848C13.5934 24.3237 13.6184 24.3822 13.6283 24.4601C13.6383 24.538 13.6732 24.6695 13.733 24.8546C13.7929 25.0396 13.8876 25.2442 14.0173 25.4682C14.3664 25.965 14.8501 26.2133 15.4684 26.2133C16.4359 26.2133 16.9196 25.8335 16.9196 25.0737C16.9196 24.7913 16.8298 24.5624 16.6503 24.3871C16.4508 24.1533 16.0369 23.978 15.4086 23.8611C14.7803 23.7442 14.3664 23.6322 14.1669 23.5251C13.8078 23.3595 13.5236 23.1354 13.3142 22.853C13.1047 22.5705 13 22.2686 13 21.9472C13 21.5673 13.0848 21.2459 13.2543 20.9829C13.4239 20.7199 13.6383 20.5251 13.8976 20.3985C14.1569 20.2718 14.4063 20.1842 14.6456 20.1355C14.885 20.0868 15.1044 20.0624 15.3039 20.0624H15.4684C15.8674 20.0624 16.2164 20.1355 16.5156 20.2816L16.74 20.3985L16.8747 20.2962C16.9744 20.2085 17.0841 20.1257 17.2038 20.0478H17.3235H17.3833C17.4133 20.0478 17.4581 20.077 17.518 20.1355V22.064L17.4282 22.1517H17.0093C16.9495 22.0933 16.9196 22.0348 16.9196 21.9764Z" fill="black"/>
<path d="M19.6255 17.8568C19.6255 17.5901 19.7126 17.3805 19.8868 17.2281C20.061 17.0757 20.2739 16.9995 20.5255 16.9995C20.7481 17.0185 20.9416 17.0995 21.1061 17.2424C21.2706 17.3853 21.3529 17.5901 21.3529 17.8568C21.3529 18.1425 21.2706 18.3569 21.1061 18.4997C20.9416 18.6426 20.7384 18.7141 20.4964 18.7141C20.2545 18.7141 20.0513 18.6426 19.8868 18.4997C19.7223 18.3569 19.6352 18.1425 19.6255 17.8568ZM22.3047 26.2725C22.1596 26.2439 21.6563 26.2296 20.795 26.2296C20.6886 26.2296 20.5096 26.2296 20.258 26.2296C20.0063 26.2296 19.7644 26.2391 19.5322 26.2582L19.2128 26.2725H19.0967V25.6152H19.3289C19.5999 25.6152 19.837 25.6009 20.0402 25.5723C20.1273 25.5342 20.1805 25.4819 20.1999 25.4152C20.2192 25.3485 20.2289 25.1485 20.2289 24.8151V23.3434V22.0861C20.2289 21.5907 20.2192 21.2764 20.1999 21.143C20.1805 21.0097 20.1128 20.9192 19.9967 20.8716C19.8612 20.8049 19.6338 20.7716 19.3144 20.7716H19.1547V20.4429C19.1547 20.2238 19.1644 20.1143 19.1838 20.1143L19.3289 20.1C19.4257 20.0905 19.5612 20.081 19.7354 20.0714C19.9096 20.0619 20.0838 20.0524 20.258 20.0429C20.4225 20.0333 20.5967 20.0238 20.7805 20.0143C20.9644 20.0048 21.1047 19.9905 21.2015 19.9714C21.2983 19.9524 21.3515 19.9476 21.3612 19.9571H21.4047V25.3866C21.4531 25.4819 21.5112 25.539 21.5789 25.5581C21.6467 25.5771 21.816 25.5962 22.087 25.6152H22.4208V26.2725H22.3047Z" fill="black"/>
<path d="M23.7274 25.6152H23.9306C24.308 25.6152 24.5354 25.5485 24.6128 25.4152V25.3009C24.6128 25.2151 24.6128 25.1056 24.6128 24.9722C24.6128 24.8389 24.6128 24.6912 24.6128 24.5293C24.6128 24.3674 24.6177 24.1816 24.6274 23.9721C24.637 23.7625 24.637 23.5625 24.6274 23.372C24.6274 23.0767 24.6274 22.7624 24.6274 22.429C24.6274 22.0956 24.6225 21.8146 24.6128 21.586V21.2573C24.5838 21.0764 24.5161 20.9573 24.4096 20.9001C24.3032 20.843 24.0854 20.8001 23.7564 20.7716H23.4951V20.4429C23.4951 20.2238 23.5048 20.1143 23.5241 20.1143L23.6693 20.1C23.7661 20.0905 23.9016 20.081 24.0758 20.0714C24.2499 20.0619 24.429 20.0524 24.6128 20.0429C24.7774 20.0333 24.9516 20.0238 25.1354 20.0143C25.3193 20.0048 25.4596 19.9905 25.5564 19.9714C25.6532 19.9524 25.7064 19.9476 25.7161 19.9571H25.7596V20.5287C25.7596 20.8906 25.7644 21.0716 25.7741 21.0716C25.7838 21.0716 25.808 21.0478 25.8467 21.0002C25.8854 20.9525 25.9435 20.8811 26.0209 20.7858C26.0983 20.6906 26.1903 20.6049 26.2967 20.5287C26.4032 20.4524 26.5435 20.362 26.7177 20.2572C26.8919 20.1524 27.0757 20.0762 27.2693 20.0286C27.4628 19.9809 27.7096 19.9571 28.0096 19.9571C29.1128 19.9952 29.7273 20.5334 29.8531 21.5717C29.8628 21.6384 29.8676 22.3004 29.8676 23.5577V24.7865C29.8676 25.1485 29.8773 25.3628 29.8967 25.4295C29.916 25.4961 29.9692 25.5438 30.0563 25.5723C30.2596 25.6009 30.4967 25.6152 30.7676 25.6152H30.9999V26.2725H30.8838L30.5354 26.2582C30.3128 26.2486 30.0709 26.2439 29.8096 26.2439C29.5483 26.2439 29.3644 26.2391 29.258 26.2296C28.2612 26.2296 27.7193 26.2439 27.6322 26.2725H27.516V25.6152H27.7483C28.3386 25.6152 28.6338 25.539 28.6338 25.3866C28.6435 25.3675 28.6483 24.7103 28.6483 23.4148C28.6386 22.1289 28.6289 21.4479 28.6193 21.3716C28.5612 21.1049 28.4644 20.9049 28.3289 20.7716C28.1935 20.6382 28.0773 20.5572 27.9806 20.5287C27.8838 20.5001 27.758 20.4906 27.6031 20.5001C27.1677 20.5001 26.7854 20.662 26.4564 20.9859C26.1951 21.2431 26.0306 21.505 25.9628 21.7717C25.8951 22.0384 25.8564 22.4337 25.8467 22.9576V23.8721V24.7293C25.8467 25.0151 25.8515 25.2056 25.8612 25.3009C25.8709 25.3961 25.8854 25.458 25.9048 25.4866C25.9241 25.5152 25.9677 25.5438 26.0354 25.5723C26.2386 25.6009 26.4757 25.6152 26.7467 25.6152H26.979V26.2725H26.8628L26.529 26.2582C26.2967 26.2486 26.0499 26.2439 25.7886 26.2439C25.5274 26.2439 25.3435 26.2391 25.237 26.2296C24.2403 26.2296 23.6983 26.2439 23.6112 26.2725H23.4951V25.6152H23.7274Z" fill="black"/>
</g>
</g>
<defs>
<clipPath id="clip0_620_6722">
<rect width="44" height="44" rx="4" fill="white"/>
</clipPath>
<clipPath id="clip1_620_6722">
<rect width="40" height="40" fill="white" transform="translate(2 2)"/>
</clipPath>
</defs>
</svg>
