<svg width="40" height="40" viewBox="0 0 40 40" fill="none" xmlns="http://www.w3.org/2000/svg">
<path d="M11 25.2499C11 25.108 11.1151 24.9929 11.2571 24.9929V24.9929C11.3934 24.9929 11.5046 25.0997 11.5214 25.235C11.5806 25.7127 11.7343 26.0545 12.0143 26.2603C12.3395 26.4993 12.8574 26.6188 13.5678 26.6188H17.0728L17.0471 25.761C15.6862 25.488 14.445 24.7326 13.3238 23.495C12.2026 22.2574 11.6419 20.6956 11.6419 18.8094C11.6419 16.7184 12.4209 14.9342 13.9786 13.4581C15.5363 11.9819 17.5777 11.2433 20.1027 11.2433C22.5421 11.2433 24.5359 11.9384 26.0856 13.33C27.6352 14.7216 28.4094 16.5092 28.4094 18.6942C28.4094 20.4609 27.9305 21.9588 26.9715 23.1878C26.0124 24.4168 24.708 25.2745 23.0556 25.761L22.9272 26.6188H26.4964C27.3091 26.6188 27.8445 26.4652 28.1013 26.1579C28.3151 25.9021 28.4661 25.5901 28.5255 25.2218C28.546 25.0943 28.651 24.9929 28.7802 24.9929V24.9929C28.9151 24.9929 29.0243 25.1027 29.0234 25.2376L29 29H21.8103L22.1441 25.1337C24.3524 24.4424 25.4565 22.4068 25.4565 19.027C25.4565 16.8165 24.9173 15.1223 23.8388 13.9445C22.7603 12.7667 21.4893 12.1778 20.0257 12.1778C18.4764 12.1778 17.1969 12.8013 16.1869 14.047C15.1768 15.2926 14.6677 16.8933 14.6591 18.8478C14.6591 20.2561 14.8859 21.5363 15.3395 22.6885C15.7931 23.8407 16.6619 24.6558 17.9458 25.1337L18.1897 29H11V25.2499Z" fill="black"/>
</svg>
