<svg width="52" height="52" viewBox="0 0 52 52" fill="none" xmlns="http://www.w3.org/2000/svg">
<path d="M13 40V36.84H19.32C18.3333 36.0933 17.3733 35.16 16.44 34.04C15.5067 32.8933 14.7333 31.5333 14.12 29.96C13.5333 28.3867 13.24 26.6133 13.24 24.64C13.24 22.0267 13.7467 19.6933 14.76 17.64C15.7733 15.5867 17.2533 13.9733 19.2 12.8C21.1467 11.6 23.52 11 26.32 11C29.1467 11 31.5333 11.5867 33.48 12.76C35.4267 13.9333 36.9067 15.5467 37.92 17.6C38.9333 19.6533 39.44 21.9867 39.44 24.6C39.44 26.6 39.1467 28.3867 38.56 29.96C37.9733 31.5333 37.2133 32.8933 36.28 34.04C35.3733 35.16 34.4133 36.0933 33.4 36.84H39.68V40H28.96V37.12C30.6133 35.9467 31.9333 34.7467 32.92 33.52C33.9067 32.2933 34.6133 30.9733 35.04 29.56C35.4667 28.12 35.68 26.52 35.68 24.76C35.68 22.7333 35.3467 20.92 34.68 19.32C34.0133 17.72 32.9867 16.4667 31.6 15.56C30.24 14.6267 28.48 14.16 26.32 14.16C24.1867 14.16 22.4267 14.6267 21.04 15.56C19.68 16.4667 18.6667 17.72 18 19.32C17.36 20.92 17.04 22.7333 17.04 24.76C17.04 26.52 17.2533 28.12 17.68 29.56C18.1067 30.9733 18.8 32.2933 19.76 33.52C20.7467 34.72 22.0667 35.92 23.72 37.12V40H13Z" fill="#454545"/>
</svg>
