<svg width="114" height="53" viewBox="0 0 114 53" fill="none" xmlns="http://www.w3.org/2000/svg">
<g filter="url(#filter0_d)">
<rect width="113" height="52" fill="white"/>
<path d="M6 25.8884C6 25.8339 6.03067 25.7282 6.092 25.5715C6.15333 25.4147 6.23852 25.2376 6.34755 25.0399C6.45659 24.8423 6.60651 24.6719 6.79733 24.5288C6.98814 24.3857 7.18918 24.3108 7.40043 24.3039C7.71391 24.3039 7.94902 24.3891 8.10576 24.5595C8.2625 24.7299 8.34087 24.9309 8.34087 25.1626C8.34087 25.2853 8.22502 25.6669 7.99332 26.3075C7.76161 26.9481 7.64576 27.4285 7.64576 27.7488C7.64576 28.0418 7.69347 28.2463 7.78887 28.3621C7.88428 28.478 8.02739 28.5393 8.2182 28.5461C8.40902 28.5529 8.58961 28.495 8.75998 28.3724C8.93035 28.2497 9.05642 28.1338 9.1382 28.0248L9.25064 27.851C9.26427 27.8238 9.39375 27.3058 9.63908 26.2973C9.84352 25.4795 9.96619 25.0025 10.0071 24.8662C10.048 24.7299 10.0957 24.6311 10.1502 24.5697C10.266 24.4675 10.3887 24.4164 10.5182 24.4164C10.634 24.4164 10.7192 24.4505 10.7737 24.5186C10.8283 24.5868 10.8555 24.6515 10.8555 24.7128L10.0786 27.9635C10.0718 27.9975 10.0684 28.0521 10.0684 28.127C10.0684 28.2974 10.0923 28.4098 10.14 28.4644C10.1877 28.5189 10.2592 28.5495 10.3546 28.5564C10.5046 28.5359 10.6238 28.4303 10.7124 28.2395C10.801 28.0487 10.9032 27.7488 11.0191 27.3399C11.0327 27.2854 11.1008 27.2581 11.2235 27.2581C11.353 27.2581 11.4177 27.2888 11.4177 27.3501C11.4109 27.3842 11.4041 27.4319 11.3973 27.4932C11.3905 27.5546 11.3598 27.6636 11.3053 27.8204C11.2508 27.9771 11.1928 28.1236 11.1315 28.2599C11.0702 28.3962 10.985 28.5257 10.876 28.6484C10.7669 28.771 10.6443 28.8562 10.508 28.9039C10.4534 28.9175 10.3717 28.9243 10.2626 28.9243C9.81286 28.9243 9.50279 28.7335 9.33242 28.3519C9.31879 28.3587 9.28131 28.3928 9.21997 28.4541C9.15864 28.5155 9.09731 28.5666 9.03597 28.6075C8.97464 28.6484 8.89968 28.6995 8.81109 28.7608C8.7225 28.8221 8.62368 28.863 8.51465 28.8835C8.40561 28.9039 8.28976 28.9209 8.16709 28.9346C7.86724 28.9346 7.60147 28.8732 7.36977 28.7506C7.0154 28.5393 6.83822 28.1781 6.83822 27.667C6.83822 27.2786 6.95747 26.7709 7.19599 26.1439C7.43451 25.517 7.55376 25.1183 7.55376 24.9479C7.55376 24.9411 7.55376 24.9343 7.55376 24.9275C7.55376 24.8662 7.55376 24.8253 7.55376 24.8048C7.55376 24.7844 7.54014 24.7605 7.51288 24.7333C7.48562 24.706 7.44814 24.6924 7.40043 24.6924H7.35954C7.2028 24.6924 7.05969 24.7571 6.93021 24.8866C6.80073 25.0161 6.69851 25.1558 6.62355 25.3057C6.54859 25.4556 6.49066 25.5987 6.44977 25.735C6.40889 25.8713 6.38163 25.9463 6.368 25.9599C6.35437 25.9736 6.29985 25.9804 6.20444 25.9804H6.06133C6.02044 25.9395 6 25.9088 6 25.8884Z" fill="black"/>
<path d="M12.5933 26.2666C12.5933 25.7964 12.6273 25.35 12.6955 24.9275C12.7636 24.505 12.842 24.1404 12.9306 23.8337C13.0192 23.5271 13.1453 23.2272 13.3088 22.9342C13.4724 22.6412 13.6018 22.4129 13.6973 22.2493C13.7927 22.0858 13.9358 21.9086 14.1266 21.7178C14.3174 21.527 14.4298 21.4111 14.4639 21.3702C14.498 21.3293 14.5832 21.2578 14.7195 21.1555H14.8524H14.8932C14.9886 21.1555 15.0364 21.1862 15.0364 21.2475C15.0364 21.268 14.9784 21.3395 14.8626 21.4622C14.7467 21.5849 14.607 21.7655 14.4435 22.004C14.2799 22.2425 14.113 22.5355 13.9426 22.8831C13.7722 23.2306 13.6291 23.7009 13.5133 24.2937C13.3974 24.8866 13.3395 25.5443 13.3395 26.2666C13.3395 26.989 13.3974 27.6432 13.5133 28.2293C13.6291 28.8153 13.7688 29.289 13.9324 29.6501C14.0959 30.0113 14.2629 30.3044 14.4332 30.5292C14.6036 30.7541 14.7467 30.9347 14.8626 31.071C14.9784 31.2073 15.0364 31.2789 15.0364 31.2857C15.0364 31.347 14.9852 31.3777 14.883 31.3777H14.8524H14.7195L14.4332 31.1324C13.7927 30.5531 13.3258 29.8307 13.0328 28.9653C12.7398 28.0998 12.5933 27.2002 12.5933 26.2666Z" fill="black"/>
<path d="M16.1403 25.8679C16.188 25.5817 16.372 25.2512 16.6923 24.8764C17.0126 24.5016 17.4079 24.3108 17.8781 24.3039C18.1166 24.3039 18.3347 24.3653 18.5323 24.4879C18.7299 24.6106 18.8765 24.7639 18.9719 24.9479C19.2581 24.5186 19.6022 24.3039 20.0043 24.3039C20.2564 24.3039 20.4745 24.3789 20.6585 24.5288C20.8425 24.6788 20.9379 24.8798 20.9447 25.1319C20.9447 25.3296 20.897 25.4897 20.8016 25.6124C20.7062 25.735 20.6142 25.81 20.5256 25.8373C20.437 25.8645 20.3587 25.8782 20.2905 25.8782C20.161 25.8782 20.0554 25.8407 19.9736 25.7657C19.8919 25.6907 19.851 25.5919 19.851 25.4693C19.851 25.1558 20.0213 24.9411 20.3621 24.8253C20.2871 24.7367 20.1508 24.6924 19.9532 24.6924C19.8646 24.6924 19.7999 24.6992 19.759 24.7128C19.5 24.8219 19.3092 25.0468 19.1865 25.3875C18.7776 26.8936 18.5732 27.7727 18.5732 28.0248C18.5732 28.2156 18.6277 28.3519 18.7368 28.4337C18.8458 28.5155 18.965 28.5564 19.0945 28.5564C19.3467 28.5564 19.5954 28.4439 19.8407 28.219C20.0861 27.9941 20.253 27.7181 20.3416 27.391C20.3621 27.3229 20.3825 27.2854 20.403 27.2786C20.4234 27.2718 20.4779 27.265 20.5665 27.2581H20.6074C20.7096 27.2581 20.7607 27.2854 20.7607 27.3399C20.7607 27.3467 20.7539 27.3842 20.7403 27.4524C20.6313 27.8408 20.42 28.1849 20.1065 28.4848C19.793 28.7846 19.4284 28.9346 19.0127 28.9346C18.5357 28.9346 18.1745 28.7199 17.9292 28.2906C17.6498 28.7131 17.3295 28.9243 16.9683 28.9243H16.907C16.5731 28.9243 16.3345 28.8358 16.1914 28.6586C16.0483 28.4814 15.9734 28.294 15.9666 28.0964C15.9666 27.8783 16.0313 27.7011 16.1608 27.5648C16.2903 27.4285 16.4436 27.3604 16.6208 27.3604C16.9138 27.3604 17.0603 27.5035 17.0603 27.7897C17.0603 27.926 17.0194 28.0452 16.9377 28.1475C16.8559 28.2497 16.7775 28.3178 16.7025 28.3519C16.6276 28.386 16.5833 28.403 16.5697 28.403L16.539 28.4132C16.539 28.4201 16.5594 28.4337 16.6003 28.4541C16.6412 28.4746 16.6957 28.4984 16.7639 28.5257C16.832 28.5529 16.8968 28.5632 16.9581 28.5564C17.2034 28.5564 17.4147 28.403 17.5919 28.0964C17.6532 27.9873 17.7316 27.7556 17.827 27.4012C17.9224 27.0469 18.0178 26.6789 18.1132 26.2973C18.2086 25.9156 18.2631 25.6907 18.2768 25.6226C18.3108 25.4386 18.3279 25.3057 18.3279 25.2239C18.3279 25.0331 18.2768 24.8968 18.1745 24.815C18.0723 24.7333 17.9565 24.6924 17.827 24.6924C17.5544 24.6924 17.2988 24.8014 17.0603 25.0195C16.8218 25.2376 16.6548 25.517 16.5594 25.8577C16.5458 25.919 16.5288 25.9531 16.5083 25.9599C16.4879 25.9667 16.4334 25.9736 16.3448 25.9804H16.2017C16.1608 25.9395 16.1403 25.902 16.1403 25.8679Z" fill="black"/>
<path d="M22.0692 21.1658L22.1101 21.1555C22.1441 21.1555 22.1782 21.1555 22.2123 21.1555H22.335L22.6212 21.4009C23.2618 21.9801 23.7286 22.7025 24.0216 23.568C24.3146 24.4334 24.4612 25.333 24.4612 26.2666C24.4612 26.73 24.4271 27.1764 24.3589 27.6057C24.2908 28.035 24.2124 28.3996 24.1238 28.6995C24.0352 28.9993 23.9092 29.2992 23.7456 29.599C23.5821 29.8989 23.4526 30.1272 23.3572 30.2839C23.2618 30.4407 23.1221 30.6144 22.9381 30.8052C22.7541 30.9961 22.645 31.1085 22.611 31.1426C22.5769 31.1767 22.4985 31.2414 22.3758 31.3368C22.3554 31.3572 22.3418 31.3709 22.335 31.3777H22.2123C22.1578 31.3777 22.1203 31.3777 22.0998 31.3777C22.0794 31.3777 22.0624 31.3675 22.0487 31.347C22.0351 31.3266 22.0249 31.2959 22.0181 31.255C22.0249 31.2482 22.0624 31.2039 22.1305 31.1221C23.1868 30.025 23.7149 28.4065 23.7149 26.2666C23.7149 24.1268 23.1868 22.5083 22.1305 21.4111C22.0624 21.3293 22.0249 21.285 22.0181 21.2782C22.0181 21.2237 22.0351 21.1862 22.0692 21.1658Z" fill="black"/>
<path d="M28.8445 25.2751C28.8445 25.1865 28.8922 25.1184 28.9876 25.0707H35.4991C35.6013 25.1252 35.6524 25.1933 35.6524 25.2751C35.6524 25.3501 35.6047 25.4148 35.5093 25.4693L32.2587 25.4796H29.008C28.899 25.4455 28.8445 25.3773 28.8445 25.2751ZM28.8445 27.2582C28.8445 27.156 28.899 27.0878 29.008 27.0538H35.5093C35.6047 27.1219 35.6524 27.1901 35.6524 27.2582C35.6524 27.3468 35.6013 27.4149 35.4991 27.4626H28.9876C28.8922 27.4149 28.8445 27.3468 28.8445 27.2582Z" fill="black"/>
<path d="M45.3818 38.4616L45.3205 38.5229H45.0138L44.8707 38.4616C44.2165 38.189 43.6816 37.8415 43.2659 37.419C42.8502 36.9964 42.581 36.5262 42.4583 36.0083C42.4242 35.8652 42.4072 35.6948 42.4072 35.4972C42.4072 35.2996 42.4004 34.2671 42.3867 32.3999C42.3799 30.2055 42.3731 29.0743 42.3663 29.0061C42.3254 28.7199 42.2505 28.4507 42.1414 28.1986C42.0324 27.9464 41.9063 27.7318 41.7632 27.5546C41.6201 27.3774 41.4736 27.2173 41.3236 27.0742C41.1737 26.931 41.0306 26.8152 40.8943 26.7266C40.758 26.638 40.649 26.5699 40.5672 26.5222C40.4854 26.4745 40.4343 26.4438 40.4139 26.4302C40.4002 26.4029 40.3934 26.3484 40.3934 26.2666C40.3934 26.2325 40.3934 26.2053 40.3934 26.1848C40.3934 26.1644 40.3968 26.1439 40.4037 26.1235C40.4105 26.1031 40.4139 26.0928 40.4139 26.0928C40.4139 26.0928 40.4207 26.086 40.4343 26.0724C40.448 26.0588 40.465 26.0485 40.4854 26.0417C40.5059 26.0349 40.5229 26.0247 40.5365 26.0111C40.9659 25.7862 41.3475 25.4727 41.6814 25.0706C42.0494 24.6004 42.2777 24.0825 42.3663 23.5169C42.3731 23.4487 42.3799 22.3175 42.3867 20.1231C42.3936 18.2627 42.397 17.2302 42.397 17.0258C42.397 16.8214 42.4174 16.6476 42.4583 16.5045C42.7105 15.4618 43.5078 14.6509 44.8503 14.0716L45.0138 14H45.3205L45.3818 14.0614V14.2147C45.3818 14.3237 45.375 14.3851 45.3614 14.3987L45.2796 14.4498C45.2183 14.4771 45.1399 14.5214 45.0445 14.5827C44.9491 14.644 44.8367 14.7156 44.7072 14.7974C44.5777 14.8791 44.4516 14.978 44.329 15.0938C44.2063 15.2097 44.0836 15.3391 43.961 15.4823C43.8383 15.6254 43.7361 15.7889 43.6543 15.9729C43.5725 16.1569 43.5044 16.3511 43.4499 16.5556C43.4226 16.6919 43.409 16.8554 43.409 17.0462C43.409 17.2371 43.4021 18.2627 43.3885 20.1231C43.3817 21.9767 43.3783 23.0057 43.3783 23.2102C43.3783 23.4146 43.3579 23.5884 43.317 23.7315C43.2556 23.9973 43.1602 24.2494 43.0307 24.488C42.9013 24.7265 42.7582 24.9309 42.6014 25.1013C42.4447 25.2717 42.2777 25.4284 42.1005 25.5715C41.9233 25.7146 41.7632 25.8305 41.6201 25.9191C41.477 26.0076 41.3543 26.0758 41.2521 26.1235C41.1499 26.1712 41.0919 26.2053 41.0783 26.2257L40.9863 26.2564L41.1601 26.3484C41.7393 26.6346 42.2164 26.989 42.5912 27.4115C42.966 27.834 43.2079 28.294 43.317 28.7915C43.351 28.9346 43.3681 29.1084 43.3681 29.3128C43.3681 29.5172 43.3749 30.5429 43.3885 32.3897C43.3885 32.7168 43.3885 33.1359 43.3885 33.647C43.3953 35.044 43.4124 35.8005 43.4396 35.9163C43.4464 35.9367 43.4499 35.9538 43.4499 35.9674C43.4839 36.1242 43.5316 36.2741 43.593 36.4172C43.6543 36.5603 43.7293 36.6932 43.8178 36.8159C43.9064 36.9385 43.995 37.0544 44.0836 37.1634C44.1722 37.2724 44.2676 37.3713 44.3698 37.4598C44.4721 37.5484 44.5709 37.6268 44.6663 37.695C44.7617 37.7631 44.8503 37.8244 44.9321 37.879C45.0138 37.9335 45.0854 37.9778 45.1467 38.0118C45.2081 38.0459 45.2592 38.0766 45.3001 38.1038L45.3614 38.1243C45.375 38.1379 45.3818 38.1992 45.3818 38.3083V38.4616Z" fill="black"/>
<path d="M47.7123 16.7092C48.0939 16.1572 48.6153 15.8812 49.2763 15.8812C49.6034 15.8812 49.9305 15.9698 50.2576 16.147C50.5847 16.3242 50.8505 16.6377 51.0549 17.0874C51.3071 17.6531 51.4332 18.43 51.4332 19.4181C51.4332 20.4744 51.2866 21.2819 50.9936 21.8407C50.8573 22.127 50.6699 22.3553 50.4314 22.5256C50.1929 22.696 49.985 22.8016 49.8078 22.8425C49.6307 22.8834 49.4569 22.9072 49.2865 22.9141C49.1093 22.9141 48.9321 22.8936 48.755 22.8527C48.5778 22.8118 48.3699 22.7028 48.1314 22.5256C47.8929 22.3484 47.7055 22.1201 47.5692 21.8407C47.2762 21.2819 47.1296 20.4744 47.1296 19.4181C47.1296 18.2323 47.3239 17.3294 47.7123 16.7092ZM50.0123 16.5866C49.8078 16.3685 49.5659 16.2595 49.2865 16.2595C49.0003 16.2595 48.755 16.3685 48.5505 16.5866C48.3801 16.7637 48.2677 17.0091 48.2132 17.3226C48.1587 17.636 48.1314 18.2902 48.1314 19.2852C48.1314 20.3619 48.1587 21.0707 48.2132 21.4114C48.2677 21.7521 48.3904 22.0213 48.5812 22.219C48.772 22.4234 49.0071 22.5256 49.2865 22.5256C49.5591 22.5256 49.7908 22.4234 49.9816 22.219C50.1792 22.0145 50.3019 21.7283 50.3496 21.3603C50.3973 20.9923 50.4246 20.3006 50.4314 19.2852C50.4314 18.2971 50.4041 17.6463 50.3496 17.3328C50.2951 17.0193 50.1827 16.7706 50.0123 16.5866Z" fill="black"/>
<path d="M62.5957 19.7351C62.6434 19.4489 62.8274 19.1184 63.1476 18.7436C63.4679 18.3688 63.8632 18.1779 64.3334 18.1711C64.5719 18.1711 64.79 18.2325 64.9876 18.3551C65.1853 18.4778 65.3318 18.6311 65.4272 18.8151C65.7134 18.3858 66.0575 18.1711 66.4596 18.1711C66.7118 18.1711 66.9298 18.2461 67.1138 18.396C67.2978 18.5459 67.3932 18.747 67.4001 18.9991C67.4001 19.1968 67.3524 19.3569 67.2569 19.4796C67.1615 19.6022 67.0695 19.6772 66.9809 19.7045C66.8924 19.7317 66.814 19.7453 66.7458 19.7453C66.6164 19.7453 66.5107 19.7079 66.429 19.6329C66.3472 19.5579 66.3063 19.4591 66.3063 19.3365C66.3063 19.023 66.4767 18.8083 66.8174 18.6925C66.7424 18.6039 66.6061 18.5596 66.4085 18.5596C66.3199 18.5596 66.2552 18.5664 66.2143 18.58C65.9553 18.6891 65.7645 18.9139 65.6418 19.2547C65.233 20.7607 65.0285 21.6398 65.0285 21.892C65.0285 22.0828 65.083 22.2191 65.1921 22.3009C65.3011 22.3827 65.4204 22.4235 65.5498 22.4235C65.802 22.4235 66.0507 22.3111 66.2961 22.0862C66.5414 21.8613 66.7084 21.5853 66.7969 21.2582C66.8174 21.1901 66.8378 21.1526 66.8583 21.1458C66.8787 21.139 66.9332 21.1321 67.0218 21.1253H67.0627C67.1649 21.1253 67.2161 21.1526 67.2161 21.2071C67.2161 21.2139 67.2092 21.2514 67.1956 21.3195C67.0866 21.708 66.8753 22.0521 66.5618 22.352C66.2484 22.6518 65.8838 22.8018 65.4681 22.8018C64.991 22.8018 64.6299 22.5871 64.3845 22.1578C64.1051 22.5803 63.7848 22.7915 63.4236 22.7915H63.3623C63.0284 22.7915 62.7899 22.7029 62.6468 22.5258C62.5037 22.3486 62.4287 22.1612 62.4219 21.9635C62.4219 21.7455 62.4866 21.5683 62.6161 21.432C62.7456 21.2957 62.8989 21.2275 63.0761 21.2275C63.3691 21.2275 63.5156 21.3707 63.5156 21.6569C63.5156 21.7932 63.4748 21.9124 63.393 22.0147C63.3112 22.1169 63.2328 22.185 63.1579 22.2191C63.0829 22.2532 63.0386 22.2702 63.025 22.2702L62.9943 22.2804C62.9943 22.2872 63.0148 22.3009 63.0556 22.3213C63.0965 22.3418 63.1511 22.3656 63.2192 22.3929C63.2873 22.4201 63.3521 22.4304 63.4134 22.4235C63.6588 22.4235 63.87 22.2702 64.0472 21.9635C64.1085 21.8545 64.1869 21.6228 64.2823 21.2684C64.3777 20.9141 64.4731 20.5461 64.5685 20.1644C64.6639 19.7828 64.7184 19.5579 64.7321 19.4898C64.7662 19.3058 64.7832 19.1729 64.7832 19.0911C64.7832 18.9003 64.7321 18.764 64.6299 18.6822C64.5276 18.6005 64.4118 18.5596 64.2823 18.5596C64.0097 18.5596 63.7542 18.6686 63.5156 18.8867C63.2771 19.1048 63.1102 19.3842 63.0148 19.7249C63.0011 19.7862 62.9841 19.8203 62.9636 19.8271C62.9432 19.8339 62.8887 19.8407 62.8001 19.8476H62.657C62.6161 19.8067 62.5957 19.7692 62.5957 19.7351Z" fill="black"/>
<path d="M77.8451 22.8017C77.8451 22.8017 77.8451 22.829 77.8451 22.8835C77.8451 22.938 77.8246 22.9857 77.7838 23.0266C77.7429 23.0675 77.7088 23.0913 77.6815 23.0981C77.6338 23.0981 77.1091 22.863 76.1073 22.3928C75.1056 21.9226 74.1174 21.4558 73.1429 20.9924L71.6709 20.2871C71.6232 20.253 71.5994 20.2019 71.5994 20.1337C71.5994 20.0588 71.6266 20.0042 71.6811 19.9702C75.586 18.1029 77.5861 17.1693 77.6815 17.1693C77.702 17.1693 77.7326 17.1897 77.7735 17.2306C77.8144 17.2715 77.8383 17.3226 77.8451 17.384C77.8519 17.4453 77.8281 17.493 77.7735 17.5271C77.7667 17.5339 76.8467 17.9734 75.0136 18.8457L72.2945 20.1337L75.0136 21.4217C76.8467 22.294 77.7667 22.7336 77.7735 22.7404C77.8212 22.7813 77.8451 22.829 77.8451 22.8835V22.8017Z" fill="black"/>
<path d="M82.5248 16.7092C82.9064 16.1572 83.4278 15.8812 84.0888 15.8812C84.4159 15.8812 84.743 15.9698 85.0701 16.147C85.3972 16.3242 85.663 16.6377 85.8674 17.0874C86.1196 17.6531 86.2457 18.43 86.2457 19.4181C86.2457 20.4744 86.0991 21.2819 85.8061 21.8407C85.6698 22.127 85.4824 22.3553 85.2439 22.5256C85.0054 22.696 84.7975 22.8016 84.6203 22.8425C84.4432 22.8834 84.2694 22.9072 84.099 22.9141C83.9218 22.9141 83.7446 22.8936 83.5675 22.8527C83.3903 22.8118 83.1824 22.7028 82.9439 22.5256C82.7054 22.3484 82.518 22.1201 82.3817 21.8407C82.0887 21.2819 81.9421 20.4744 81.9421 19.4181C81.9421 18.2323 82.1364 17.3294 82.5248 16.7092ZM84.8248 16.5866C84.6203 16.3685 84.3784 16.2595 84.099 16.2595C83.8128 16.2595 83.5675 16.3685 83.363 16.5866C83.1926 16.7637 83.0802 17.0091 83.0257 17.3226C82.9712 17.636 82.9439 18.2902 82.9439 19.2852C82.9439 20.3619 82.9712 21.0707 83.0257 21.4114C83.0802 21.7521 83.2029 22.0213 83.3937 22.219C83.5845 22.4234 83.8196 22.5256 84.099 22.5256C84.3716 22.5256 84.6033 22.4234 84.7941 22.219C84.9917 22.0145 85.1144 21.7283 85.1621 21.3603C85.2098 20.9923 85.2371 20.3006 85.2439 19.2852C85.2439 18.2971 85.2166 17.6463 85.1621 17.3328C85.1076 17.0193 84.9952 16.7706 84.8248 16.5866Z" fill="black"/>
<path d="M48.9083 29.0472L48.7755 29.0983C48.6801 29.1324 48.5438 29.1664 48.3666 29.2005C48.1894 29.2346 47.9918 29.2584 47.7737 29.2721H47.5795V28.8018H47.7737C48.094 28.7882 48.3904 28.7371 48.663 28.6485C48.9356 28.5599 49.1264 28.4781 49.2355 28.4032C49.3445 28.3282 49.4399 28.2533 49.5217 28.1783C49.5353 28.1578 49.5762 28.1476 49.6443 28.1476C49.7057 28.1476 49.7636 28.1681 49.8181 28.209V31.2654L49.8283 34.332C49.876 34.3797 49.9169 34.4104 49.951 34.424C49.9851 34.4376 50.0669 34.4513 50.1963 34.4649C50.3258 34.4785 50.5371 34.4853 50.8301 34.4853H51.0959V34.9556H50.9834C50.8403 34.9351 50.2986 34.9249 49.3581 34.9249C48.4313 34.9249 47.8964 34.9351 47.7532 34.9556H47.6306V34.4853H47.8964C48.0463 34.4853 48.1758 34.4853 48.2848 34.4853C48.3938 34.4853 48.479 34.4819 48.5403 34.4751C48.6017 34.4683 48.6562 34.4581 48.7039 34.4445C48.7516 34.4308 48.7789 34.424 48.7857 34.424C48.7925 34.424 48.8129 34.407 48.847 34.3729C48.8811 34.3388 48.9015 34.3252 48.9083 34.332V29.0472Z" fill="black"/>
<path d="M64.119 35.0679C63.6079 35.0679 63.1956 34.9009 62.8821 34.567C62.5686 34.2331 62.4119 33.831 62.4119 33.3608C62.4119 32.9178 62.5141 32.4987 62.7185 32.1035C62.923 31.7082 63.2024 31.3641 63.5567 31.071C64.0747 30.6553 64.6028 30.4475 65.1412 30.4475C65.3592 30.4475 65.4955 30.4509 65.5501 30.4577C65.6387 30.4781 65.7272 30.502 65.8158 30.5292C65.9044 30.5565 66.0237 30.611 66.1736 30.6928C66.3235 30.7746 66.4462 30.8768 66.5416 30.9995C66.637 31.1221 66.7256 31.2891 66.8074 31.5003C66.8892 31.7116 66.93 31.9501 66.93 32.2159C66.93 32.9451 66.637 33.6027 66.0509 34.1888C65.4649 34.7748 64.8209 35.0679 64.119 35.0679ZM63.3012 33.7288C63.3012 34.0695 63.3898 34.3148 63.567 34.4648C63.7442 34.6147 63.9452 34.6897 64.1701 34.6897C64.4699 34.6897 64.7527 34.5806 65.0185 34.3625C65.2843 34.1445 65.4955 33.8583 65.6523 33.5039C65.7136 33.3608 65.792 33.1086 65.8874 32.7474C65.9828 32.3863 66.0305 32.0728 66.0305 31.807C66.0305 31.5072 65.9692 31.2789 65.8465 31.1221C65.6829 30.9177 65.4649 30.8155 65.1923 30.8155C64.763 30.8155 64.3847 31.0131 64.0576 31.4083C63.8055 31.7082 63.6181 32.1069 63.4954 32.6043C63.3727 33.1018 63.308 33.4766 63.3012 33.7288Z" fill="black"/>
<path d="M67.2879 31.0199C67.2402 30.9722 67.2163 30.9381 67.2163 30.9177C67.2163 30.8904 67.2265 30.8359 67.247 30.7541C67.2674 30.6724 67.2845 30.6246 67.2981 30.611C67.3117 30.5769 67.3424 30.5599 67.3901 30.5599C67.4378 30.5599 67.6116 30.5565 67.9114 30.5497H68.4532L68.6474 29.7319C68.6679 29.657 68.6917 29.5581 68.719 29.4355C68.7462 29.3128 68.7701 29.2242 68.7905 29.1697C68.811 29.1152 68.8314 29.047 68.8519 28.9653C68.8723 28.8835 68.8996 28.8256 68.9336 28.7915C68.9677 28.7574 69.0018 28.7165 69.0358 28.6688C69.0699 28.6211 69.1176 28.5904 69.179 28.5768C69.2403 28.5632 69.3016 28.5564 69.363 28.5564C69.4856 28.5632 69.5708 28.6007 69.6185 28.6688C69.6662 28.737 69.6901 28.8017 69.6901 28.863C69.6901 28.9107 69.6594 29.0709 69.5981 29.3435C69.5367 29.6161 69.4686 29.8852 69.3936 30.151L69.2914 30.5292C69.2914 30.5429 69.4618 30.5497 69.8025 30.5497H70.3238C70.3715 30.5974 70.3954 30.6349 70.3954 30.6621C70.3954 30.8121 70.3511 30.9313 70.2625 31.0199H69.1687L68.8007 32.5021C68.535 33.5925 68.4021 34.1785 68.4021 34.2603C68.4021 34.5465 68.4941 34.6897 68.6781 34.6897C68.9166 34.6897 69.1483 34.5738 69.3732 34.3421C69.5981 34.1104 69.7787 33.8242 69.915 33.4834C69.9286 33.4426 69.9456 33.4187 69.9661 33.4119C69.9865 33.4051 70.0376 33.3983 70.1194 33.3914H70.1603C70.2625 33.3914 70.3136 33.4187 70.3136 33.4732C70.3136 33.4937 70.3034 33.5346 70.2829 33.5959C70.2489 33.7049 70.1875 33.8344 70.099 33.9843C70.0104 34.1342 69.8945 34.2944 69.7514 34.4648C69.6083 34.6351 69.4345 34.7782 69.2301 34.8941C69.0256 35.0099 68.8178 35.0679 68.6065 35.0679C68.4021 35.0679 68.2079 35.0168 68.0239 34.9145C67.8399 34.8123 67.707 34.6351 67.6252 34.383C67.6116 34.3285 67.6047 34.2365 67.6047 34.107V33.923L67.9625 32.4919C68.201 31.531 68.3237 31.0472 68.3305 31.0403C68.3305 31.0267 68.1567 31.0199 67.8092 31.0199H67.2879Z" fill="black"/>
<path d="M72.1128 27.9737C72.1196 27.9737 72.3649 27.9567 72.8488 27.9226C73.3326 27.8885 73.5814 27.8681 73.595 27.8613C73.6768 27.8613 73.7176 27.8919 73.7176 27.9533C73.7176 28.0282 73.595 28.5427 73.3497 29.4968C73.0907 30.5054 72.9612 31.0199 72.9612 31.0403C72.9612 31.054 72.9851 31.0369 73.0328 30.9892C73.4485 30.6212 73.8914 30.4372 74.3616 30.4372C74.7296 30.4372 75.0261 30.5292 75.251 30.7132C75.4759 30.8972 75.5917 31.1664 75.5985 31.5208C75.5985 31.8683 75.469 32.4067 75.2101 33.1359C74.9511 33.8651 74.8216 34.3012 74.8216 34.4443C74.8285 34.5397 74.8455 34.6045 74.8728 34.6385C74.9 34.6726 74.9511 34.6897 75.0261 34.6897C75.2169 34.6897 75.3941 34.5874 75.5576 34.383C75.7212 34.1785 75.8541 33.8991 75.9563 33.5448C75.9767 33.4698 75.9972 33.4255 76.0176 33.4119C76.0381 33.3983 76.0926 33.3914 76.1812 33.3914C76.3175 33.3914 76.3856 33.4187 76.3856 33.4732C76.3856 33.48 76.372 33.5311 76.3447 33.6265C76.2357 34.0286 76.0619 34.3591 75.8234 34.6181C75.5917 34.9111 75.3157 35.0576 74.9954 35.0576H74.9443C74.624 35.0576 74.3923 34.9656 74.2492 34.7817C74.1061 34.5977 74.0345 34.4034 74.0345 34.199C74.0345 34.09 74.1572 33.6879 74.4025 32.9928C74.6479 32.2977 74.7739 31.7763 74.7808 31.4288C74.7808 31.0267 74.6308 30.8257 74.331 30.8257H74.2799C73.7142 30.8257 73.2236 31.1596 72.8079 31.8275L72.7363 31.9603L72.3888 33.3403C72.1707 34.2262 72.0446 34.7101 72.0106 34.7919C71.922 34.9759 71.772 35.0679 71.5608 35.0679C71.4654 35.0679 71.3836 35.0372 71.3154 34.9759C71.2473 34.9145 71.2098 34.8532 71.203 34.7919C71.203 34.6965 71.4517 33.6606 71.9492 31.6843L72.7057 28.6586C72.7057 28.57 72.6818 28.5155 72.6341 28.495C72.5864 28.4746 72.4535 28.4576 72.2354 28.4439H72.0208C71.9799 28.403 71.9594 28.3758 71.9594 28.3621C71.9594 28.3485 71.9663 28.2838 71.9799 28.1679C72.014 28.0384 72.0583 27.9737 72.1128 27.9737Z" fill="black"/>
<path d="M76.9989 33.2381C76.9989 32.8497 77.0636 32.4953 77.1931 32.175C77.3226 31.8547 77.4896 31.5889 77.694 31.3777C77.8984 31.1664 78.1267 30.9892 78.3789 30.8461C78.631 30.703 78.8696 30.5974 79.0944 30.5292C79.3193 30.4611 79.534 30.4304 79.7384 30.4372H79.7691C80.0758 30.4372 80.3415 30.5122 80.5664 30.6621C80.7913 30.8121 80.9038 31.0335 80.9038 31.3266C80.9038 31.9399 80.5255 32.342 79.7691 32.5328C79.4352 32.6214 78.9786 32.6691 78.3993 32.6759C78.1472 32.6759 78.0177 32.6827 78.0109 32.6963C78.0109 32.71 77.9904 32.8292 77.9496 33.0541C77.9087 33.279 77.8848 33.4766 77.878 33.647C77.878 33.9673 77.9496 34.2194 78.0927 34.4034C78.2358 34.5874 78.4504 34.6828 78.7367 34.6897C79.0229 34.6965 79.3398 34.6317 79.6873 34.4954C80.0349 34.3591 80.3484 34.1342 80.6278 33.8208C80.6891 33.7526 80.73 33.7185 80.7504 33.7185C80.7777 33.7185 80.822 33.7492 80.8833 33.8105C80.9446 33.8719 80.9787 33.9196 80.9855 33.9537C80.9923 33.9877 80.9617 34.0423 80.8935 34.1172C80.8254 34.1922 80.7232 34.2842 80.5869 34.3932C80.4506 34.5022 80.2938 34.6079 80.1167 34.7101C79.9395 34.8123 79.7248 34.8975 79.4727 34.9656C79.2205 35.0338 78.9616 35.0679 78.6958 35.0679C78.1574 35.0679 77.7417 34.8873 77.4487 34.5261C77.1556 34.1649 77.0057 33.7356 76.9989 33.2381ZM80.4131 31.347C80.3722 30.9926 80.1405 30.8155 79.718 30.8155C79.4931 30.8155 79.2853 30.8632 79.0944 30.9586C78.9036 31.054 78.7503 31.1698 78.6344 31.3061C78.5186 31.4424 78.4198 31.5821 78.338 31.7252C78.2562 31.8683 78.2017 31.991 78.1744 32.0932C78.1472 32.1955 78.1302 32.2602 78.1233 32.2875C78.1233 32.2943 78.1915 32.2977 78.3278 32.2977C79.0978 32.2977 79.6362 32.2159 79.9429 32.0523C80.2495 31.8888 80.4063 31.6537 80.4131 31.347Z" fill="black"/>
<path d="M81.5784 32.0217C81.5852 32.0012 81.592 31.974 81.5988 31.9399C81.6056 31.9058 81.6227 31.8309 81.6499 31.715C81.6772 31.5992 81.7113 31.4935 81.7521 31.3981C81.793 31.3027 81.8441 31.1903 81.9055 31.0608C81.9668 30.9313 82.035 30.8291 82.1099 30.7541C82.1849 30.6792 82.2735 30.6042 82.3757 30.5292C82.4779 30.4543 82.5904 30.4236 82.713 30.4372C82.9107 30.4372 83.0844 30.4781 83.2344 30.5599C83.3843 30.6417 83.4899 30.7166 83.5512 30.7848C83.6126 30.8529 83.6501 30.9211 83.6637 30.9892C83.6773 31.0301 83.6875 31.0506 83.6944 31.0506C83.7012 31.0506 83.7284 31.0267 83.7761 30.979C84.1032 30.6246 84.4815 30.4475 84.9108 30.4475H84.9415C85.2686 30.4475 85.5139 30.5872 85.6774 30.8666C85.732 30.9961 85.7592 31.1221 85.7592 31.2448C85.7592 31.4492 85.7149 31.6128 85.6263 31.7355C85.5377 31.8581 85.4492 31.9365 85.3606 31.9706C85.272 32.0046 85.1868 32.0183 85.105 32.0115C84.9687 32.0115 84.8597 31.974 84.7779 31.899C84.6961 31.824 84.6552 31.7252 84.6552 31.6026C84.6552 31.2755 84.846 31.0574 85.2277 30.9484C85.0777 30.8598 84.9551 30.8155 84.8597 30.8155C84.478 30.8155 84.1271 31.0676 83.8068 31.5719C83.7386 31.6809 83.6875 31.7934 83.6535 31.9092C83.6194 32.0251 83.5035 32.4783 83.3059 33.2688C83.0742 34.2228 82.9413 34.7305 82.9072 34.7919C82.8187 34.9759 82.6721 35.0679 82.4677 35.0679C82.3791 35.0679 82.3075 35.0474 82.253 35.0065C82.1985 34.9656 82.161 34.9248 82.1406 34.8839C82.1201 34.843 82.1133 34.8089 82.1201 34.7817C82.1201 34.6931 82.2564 34.107 82.529 33.0234C82.8016 31.9399 82.9379 31.3368 82.9379 31.2141C82.9379 30.9484 82.8493 30.8155 82.6721 30.8155C82.529 30.8155 82.4064 30.9109 82.3041 31.1017C82.2019 31.2925 82.1201 31.5003 82.0588 31.7252C81.9975 31.9501 81.96 32.0728 81.9464 32.0932C81.9327 32.1069 81.8782 32.1137 81.7828 32.1137H81.6397C81.5988 32.0728 81.5784 32.0421 81.5784 32.0217Z" fill="black"/>
<path d="M91.9028 31.0199C91.9028 30.8768 91.9675 30.7439 92.097 30.6212C92.2265 30.4986 92.3696 30.4338 92.5263 30.427C92.649 30.427 92.7614 30.4884 92.8637 30.611C92.9659 30.7337 93.0204 30.9279 93.0272 31.1937C93.0272 31.3913 92.9625 31.7832 92.833 32.3692C92.7308 32.7509 92.6388 33.0643 92.557 33.3097C92.4752 33.555 92.356 33.831 92.1992 34.1377C92.0425 34.4443 91.8551 34.676 91.637 34.8328C91.4189 34.9895 91.1736 35.0679 90.901 35.0679C90.6012 35.0679 90.3354 35.0134 90.1037 34.9043C89.872 34.7953 89.705 34.6488 89.6028 34.4648C89.596 34.4716 89.5858 34.4852 89.5721 34.5057C89.2927 34.8805 88.952 35.0679 88.5499 35.0679C88.3727 35.0679 88.2024 35.0474 88.0388 35.0065C87.8753 34.9656 87.7151 34.9009 87.5584 34.8123C87.4016 34.7237 87.2756 34.5908 87.1801 34.4137C87.0847 34.2365 87.037 34.0218 87.037 33.7697C87.037 33.4017 87.1529 32.9042 87.3846 32.2772C87.6163 31.6503 87.7355 31.2516 87.7424 31.0812C87.7424 31.0744 87.7424 31.0676 87.7424 31.0608C87.7424 30.9995 87.7424 30.9586 87.7424 30.9381C87.7424 30.9177 87.7287 30.8938 87.7015 30.8666C87.6742 30.8393 87.6367 30.8257 87.589 30.8257H87.5481C87.3914 30.8257 87.2483 30.8904 87.1188 31.0199C86.9893 31.1494 86.8871 31.2891 86.8121 31.439C86.7372 31.5889 86.6793 31.732 86.6384 31.8683C86.5975 32.0046 86.5702 32.0796 86.5566 32.0932C86.543 32.1069 86.4884 32.1137 86.393 32.1137H86.2499C86.209 32.0728 86.1886 32.0421 86.1886 32.0217C86.1886 31.9808 86.2159 31.8854 86.2704 31.7355C86.3249 31.5855 86.4033 31.4118 86.5055 31.2141C86.6077 31.0165 86.7576 30.8393 86.9553 30.6826C87.1529 30.5258 87.3744 30.4475 87.6197 30.4475C87.9127 30.4475 88.1376 30.5326 88.2944 30.703C88.4511 30.8734 88.5295 31.071 88.5295 31.2959C88.5295 31.4186 88.417 31.7866 88.1921 32.3999C87.9673 33.0132 87.8548 33.4868 87.8548 33.8208C87.8548 34.1342 87.9264 34.3557 88.0695 34.4852C88.2126 34.6147 88.3932 34.6828 88.6112 34.6897C88.9043 34.6897 89.1632 34.4818 89.3881 34.0661L89.4392 33.9741V33.739C89.4392 33.7185 89.4392 33.6879 89.4392 33.647C89.4392 33.6061 89.4426 33.5788 89.4495 33.5652C89.4563 33.5516 89.4597 33.5277 89.4597 33.4937C89.4597 33.4596 89.4631 33.4289 89.4699 33.4017C89.4767 33.3744 89.4869 33.3301 89.5006 33.2688C89.5142 33.2074 89.5244 33.1495 89.5312 33.095C89.5381 33.0405 89.5585 32.9587 89.5926 32.8497C89.6266 32.7406 89.6539 32.6316 89.6743 32.5226C89.6948 32.4135 89.7323 32.267 89.7868 32.083C89.9844 31.3061 90.0969 30.887 90.1241 30.8257C90.2127 30.6417 90.3592 30.5497 90.5637 30.5497C90.6932 30.5497 90.7817 30.5838 90.8294 30.6519C90.8772 30.7201 90.9044 30.7848 90.9112 30.8461C90.9112 30.9347 90.8124 31.3709 90.6148 32.1546C90.4172 32.9383 90.3081 33.388 90.2877 33.5039C90.274 33.5788 90.2672 33.6981 90.2672 33.8617V33.9332C90.2672 34.0354 90.2775 34.1342 90.2979 34.2297C90.3183 34.3251 90.3831 34.4239 90.4921 34.5261C90.6012 34.6283 90.7545 34.6828 90.9521 34.6897C91.436 34.6897 91.821 34.274 92.1072 33.4426C92.1685 33.2858 92.2367 33.0643 92.3117 32.7781C92.3866 32.4919 92.4275 32.2874 92.4343 32.1648C92.4343 31.9399 92.39 31.7627 92.3014 31.6332C92.2128 31.5038 92.1243 31.3947 92.0357 31.3061C91.9471 31.2175 91.9028 31.1221 91.9028 31.0199Z" fill="black"/>
<path d="M95.1739 28.8221C95.1739 28.6586 95.2386 28.5155 95.3681 28.3928C95.4976 28.2702 95.6475 28.2054 95.8179 28.1986C95.9406 28.1986 96.0428 28.2395 96.1246 28.3213C96.2063 28.403 96.2506 28.5053 96.2574 28.6279C96.2574 28.7847 96.1893 28.9278 96.053 29.0573C95.9167 29.1867 95.7668 29.2549 95.6032 29.2617C95.501 29.2617 95.4056 29.2276 95.317 29.1595C95.2284 29.0913 95.1807 28.9789 95.1739 28.8221ZM93.5077 32.0217C93.5077 31.9672 93.5384 31.8615 93.5997 31.7048C93.661 31.548 93.7428 31.3743 93.845 31.1835C93.9472 30.9926 94.0972 30.8189 94.2948 30.6621C94.4924 30.5054 94.6969 30.4304 94.9081 30.4372C95.1739 30.4372 95.3954 30.5156 95.5726 30.6724C95.7497 30.8291 95.8417 31.0403 95.8486 31.3061C95.8486 31.422 95.8009 31.6128 95.7054 31.8786C95.61 32.1443 95.4737 32.5021 95.2966 32.9519C95.1194 33.4017 94.9763 33.7867 94.8672 34.107C94.8332 34.2569 94.8161 34.366 94.8161 34.4341C94.8161 34.6045 94.874 34.6897 94.9899 34.6897C95.0512 34.6897 95.116 34.6794 95.1841 34.659C95.2523 34.6385 95.3306 34.5908 95.4192 34.5159C95.5078 34.4409 95.5998 34.3217 95.6952 34.1581C95.7906 33.9945 95.8758 33.7935 95.9508 33.555C95.9712 33.4732 95.9883 33.4255 96.0019 33.4119C96.0155 33.3983 96.0734 33.3914 96.1757 33.3914C96.312 33.3914 96.3801 33.4255 96.3801 33.4937C96.3801 33.5482 96.3494 33.6538 96.2881 33.8105C96.2268 33.9673 96.1416 34.1411 96.0326 34.3319C95.9235 34.5227 95.7702 34.6931 95.5726 34.843C95.3749 34.9929 95.1637 35.0679 94.9388 35.0679C94.7207 35.0679 94.5197 34.9963 94.3357 34.8532C94.1517 34.7101 94.0563 34.492 94.0495 34.199C94.0495 34.0831 94.0665 33.9741 94.1006 33.8719C94.1346 33.7697 94.2812 33.3812 94.5401 32.7066C94.7991 32.0183 94.949 31.606 94.9899 31.4697C95.0308 31.3334 95.0546 31.2005 95.0615 31.071C95.0615 30.9075 95.0035 30.8257 94.8877 30.8257H94.8672C94.6628 30.8257 94.4754 30.9381 94.305 31.163C94.1346 31.3879 94.0052 31.6741 93.9166 32.0217C93.9098 32.0285 93.9029 32.0387 93.8961 32.0523C93.8893 32.066 93.8859 32.0762 93.8859 32.083C93.8859 32.0898 93.8791 32.0966 93.8655 32.1035C93.8518 32.1103 93.8416 32.1137 93.8348 32.1137C93.828 32.1137 93.8144 32.1137 93.7939 32.1137C93.7735 32.1137 93.7462 32.1137 93.7121 32.1137H93.569C93.5281 32.0728 93.5077 32.0421 93.5077 32.0217Z" fill="black"/>
<path d="M98.1588 32.0012C98.1588 31.7831 98.2133 31.5616 98.3223 31.3368C98.4314 31.1119 98.6222 30.904 98.8948 30.7132C99.1674 30.5224 99.4979 30.4304 99.8863 30.4372C100.309 30.4372 100.615 30.5292 100.806 30.7132C100.997 30.8972 101.096 31.1017 101.103 31.3265C101.103 31.5446 101.045 31.7048 100.929 31.807C100.813 31.9092 100.684 31.9637 100.541 31.9705C100.452 31.9705 100.37 31.9433 100.295 31.8888C100.22 31.8342 100.179 31.7456 100.173 31.623C100.173 31.5139 100.203 31.4185 100.265 31.3368C100.326 31.255 100.384 31.1936 100.438 31.1528C100.493 31.1119 100.537 31.0914 100.571 31.0914C100.578 31.0914 100.581 31.088 100.581 31.0812C100.581 31.0608 100.558 31.0301 100.51 30.9892C100.462 30.9483 100.377 30.9108 100.254 30.8768C100.132 30.8427 99.9988 30.8222 99.8557 30.8154C99.5285 30.8154 99.29 30.904 99.1401 31.0812C98.9902 31.2584 98.9118 31.439 98.905 31.623C98.905 31.7933 98.9697 31.9126 99.0992 31.9808C99.2287 32.0489 99.4161 32.1068 99.6614 32.1545C99.9068 32.2022 100.084 32.2533 100.193 32.3079C100.643 32.5055 100.868 32.8326 100.868 33.2892C100.868 33.48 100.83 33.6708 100.755 33.8616C100.68 34.0524 100.568 34.2433 100.418 34.4341C100.268 34.6249 100.053 34.7748 99.7739 34.8838C99.4945 34.9929 99.1742 35.0508 98.813 35.0576C98.2883 35.0576 97.9169 34.9588 97.6988 34.7612C97.4807 34.5635 97.3683 34.3318 97.3615 34.0661C97.3615 33.8003 97.433 33.6095 97.5761 33.4936C97.7192 33.3778 97.8691 33.3199 98.0259 33.3199C98.1281 33.3199 98.2235 33.3505 98.3121 33.4119C98.4007 33.4732 98.4484 33.5788 98.4552 33.7287C98.4552 33.9059 98.3939 34.0558 98.2712 34.1785C98.1486 34.3012 98.0429 34.3625 97.9543 34.3625C97.9407 34.3693 97.9305 34.3727 97.9237 34.3727C97.9169 34.3727 97.9134 34.3795 97.9134 34.3932C97.9203 34.4136 97.9475 34.4409 97.9952 34.475C98.0429 34.509 98.1486 34.5533 98.3121 34.6078C98.4757 34.6624 98.6631 34.6862 98.8743 34.6794C99.1197 34.6794 99.3309 34.6419 99.5081 34.567C99.6853 34.492 99.8148 34.3966 99.8965 34.2807C99.9783 34.1649 100.036 34.0593 100.07 33.9638C100.104 33.8684 100.121 33.7833 100.121 33.7083C100.121 33.5175 100.05 33.3744 99.9068 33.279C99.7637 33.1836 99.6001 33.1256 99.4161 33.1052C99.2321 33.0847 99.0311 33.0336 98.813 32.9519C98.5949 32.8701 98.4348 32.7508 98.3326 32.5941C98.2167 32.4237 98.1588 32.2261 98.1588 32.0012Z" fill="black"/>
<path d="M102.012 33.2381C102.012 32.8497 102.077 32.4953 102.207 32.175C102.336 31.8547 102.503 31.5889 102.708 31.3777C102.912 31.1664 103.14 30.9892 103.392 30.8461C103.645 30.703 103.883 30.5974 104.108 30.5292C104.333 30.4611 104.548 30.4304 104.752 30.4372H104.783C105.089 30.4372 105.355 30.5122 105.58 30.6621C105.805 30.8121 105.917 31.0335 105.917 31.3266C105.917 31.9399 105.539 32.342 104.783 32.5328C104.449 32.6214 103.992 32.6691 103.413 32.6759C103.161 32.6759 103.031 32.6827 103.024 32.6963C103.024 32.71 103.004 32.8292 102.963 33.0541C102.922 33.279 102.898 33.4766 102.892 33.647C102.892 33.9673 102.963 34.2194 103.106 34.4034C103.249 34.5874 103.464 34.6828 103.75 34.6897C104.036 34.6965 104.353 34.6317 104.701 34.4954C105.048 34.3591 105.362 34.1342 105.641 33.8208C105.703 33.7526 105.744 33.7185 105.764 33.7185C105.791 33.7185 105.836 33.7492 105.897 33.8105C105.958 33.8719 105.992 33.9196 105.999 33.9537C106.006 33.9877 105.975 34.0423 105.907 34.1172C105.839 34.1922 105.737 34.2842 105.6 34.3932C105.464 34.5022 105.307 34.6079 105.13 34.7101C104.953 34.8123 104.738 34.8975 104.486 34.9656C104.234 35.0338 103.975 35.0679 103.709 35.0679C103.171 35.0679 102.755 34.8873 102.462 34.5261C102.169 34.1649 102.019 33.7356 102.012 33.2381ZM105.427 31.347C105.386 30.9926 105.154 30.8155 104.732 30.8155C104.507 30.8155 104.299 30.8632 104.108 30.9586C103.917 31.054 103.764 31.1698 103.648 31.3061C103.532 31.4424 103.433 31.5821 103.352 31.7252C103.27 31.8683 103.215 31.991 103.188 32.0932C103.161 32.1955 103.144 32.2602 103.137 32.2875C103.137 32.2943 103.205 32.2977 103.341 32.2977C104.111 32.2977 104.65 32.2159 104.956 32.0523C105.263 31.8888 105.42 31.6537 105.427 31.347Z" fill="black"/>
</g>
<defs>
<filter id="filter0_d" x="0" y="0" width="114" height="53" filterUnits="userSpaceOnUse" color-interpolation-filters="sRGB">
<feFlood flood-opacity="0" result="BackgroundImageFix"/>
<feColorMatrix in="SourceAlpha" type="matrix" values="0 0 0 0 0 0 0 0 0 0 0 0 0 0 0 0 0 0 127 0" result="hardAlpha"/>
<feOffset dx="1" dy="1"/>
<feColorMatrix type="matrix" values="0 0 0 0 0 0 0 0 0 0 0 0 0 0 0 0 0 0 0.25 0"/>
<feBlend mode="normal" in2="BackgroundImageFix" result="effect1_dropShadow"/>
<feBlend mode="normal" in="SourceGraphic" in2="effect1_dropShadow" result="shape"/>
</filter>
</defs>
</svg>
