<svg width="52" height="52" viewBox="0 0 52 52" fill="none" xmlns="http://www.w3.org/2000/svg">
<path d="M15 24.288V20.544C16.536 18.864 18.456 18 20.76 18C22.584 18 24.168 18.288 27.096 19.536C29.4 20.544 30.744 20.832 32.088 20.832C33.96 20.832 36.072 19.584 37.608 18V21.696C36.072 23.376 34.152 24.288 31.848 24.288C30.024 24.288 28.392 24 25.512 22.752C23.208 21.744 21.864 21.456 20.472 21.456C18.696 21.456 16.536 22.704 15 24.288ZM15 33.744V30C16.536 28.32 18.456 27.456 20.76 27.456C22.584 27.456 24.168 27.744 27.096 28.992C29.4 30 30.744 30.288 32.088 30.288C33.96 30.288 36.072 29.04 37.608 27.456V31.152C36.072 32.832 34.152 33.744 31.848 33.744C30.024 33.744 28.392 33.456 25.512 32.208C23.208 31.2 21.864 30.912 20.472 30.912C18.696 30.912 16.536 32.16 15 33.744Z" fill="#454545"/>
</svg>
