<svg width="52" height="52" viewBox="0 0 52 52" fill="none" xmlns="http://www.w3.org/2000/svg">
<g clip-path="url(#clip0_620_6683)">
<path d="M52 0H0V52H52V0Z" fill="#D0F0FD"/>
<path d="M13.9434 22.8288C13.9434 22.5385 14.1053 22.3151 14.4292 22.1588H36.5359C36.8829 22.3374 37.0565 22.5608 37.0565 22.8288C37.0565 23.0745 36.8945 23.2866 36.5706 23.4653L25.5346 23.4988H14.4986C14.1284 23.3871 13.9434 23.1638 13.9434 22.8288ZM13.9434 29.328C13.9434 28.993 14.1284 28.7697 14.4986 28.658H36.5706C36.8945 28.8813 37.0565 29.1047 37.0565 29.328C37.0565 29.596 36.8829 29.8194 36.5359 29.998H14.4292C14.1053 29.8417 13.9434 29.6184 13.9434 29.328Z" fill="black"/>
<circle cx="26" cy="17" r="3" fill="black"/>
<circle cx="26" cy="35" r="3" fill="black"/>
</g>
<defs>
<clipPath id="clip0_620_6683">
<rect width="52" height="52" rx="4" fill="white"/>
</clipPath>
</defs>
</svg>
