<svg width="52" height="52" viewBox="0 0 52 52" fill="none" xmlns="http://www.w3.org/2000/svg">
<g clip-path="url(#clip0_285_6198)">
<path d="M52 0H0V52H52V0Z" fill="#D0F0FD"/>
<path d="M17.0018 14.6219C17.0018 14.456 17.064 14.3109 17.1884 14.1865C17.3128 14.0622 17.4164 14 17.4993 14C17.6652 14 19.2613 14.7048 22.2877 16.1143C25.3142 17.5239 28.3199 18.9439 31.3049 20.3742C34.2899 21.8045 35.7823 22.53 35.7823 22.5507C35.9274 22.6544 36 22.8098 36 23.0171C36 23.2244 35.9274 23.3799 35.7823 23.4835C35.7409 23.525 32.7144 24.9656 26.703 27.8055L17.7481 32.0343H17.5615C17.1884 31.9928 17.0018 31.7855 17.0018 31.4124C17.0018 31.3917 17.0018 31.3606 17.0018 31.3191C16.9811 31.174 17.1366 31.0082 17.4682 30.8216C17.8621 30.6143 19.4168 29.8681 22.1323 28.5829C23.7491 27.8159 25.0965 27.1837 26.1744 26.6862L33.8856 23.0171L25.6147 19.0993C24.1844 18.4153 22.5261 17.6276 20.6398 16.7362C18.8156 15.8863 17.7584 15.3785 17.4682 15.2126C17.178 15.0468 17.0226 14.8499 17.0018 14.6219ZM17.0329 37.4445C17.0329 37.2372 17.1884 37.03 17.4993 36.8227H35.5025C35.8342 36.947 36 37.1543 36 37.4445C36 37.6933 35.8445 37.9006 35.5336 38.0664H17.4682C17.178 37.9213 17.0329 37.714 17.0329 37.4445Z" fill="black"/>
</g>
<defs>
<clipPath id="clip0_285_6198">
<rect width="52" height="52" rx="4" fill="white"/>
</clipPath>
</defs>
</svg>
