<svg width="52" height="52" viewBox="0 0 52 52" fill="none" xmlns="http://www.w3.org/2000/svg">
<g clip-path="url(#clip0_285_6202)">
<path d="M52 0H0V52H52V0Z" fill="#D0F0FD"/>
<path d="M35.3781 14C35.5439 14 35.689 14.0622 35.8134 14.1866C35.9378 14.311 36 14.4665 36 14.653C36 14.8396 35.9274 14.9847 35.7823 15.0884C35.7616 15.1091 32.9629 16.4463 27.3863 19.0998L19.1146 23.018L26.8265 26.6874C32.7971 29.5068 35.8238 30.9684 35.9067 31.072C35.9689 31.1964 36 31.3104 36 31.4141C36 31.7872 35.8134 31.9946 35.4403 32.036H35.2537L26.2979 27.8069C20.2859 24.9667 17.2591 23.5259 17.2177 23.4845C17.0726 23.3808 17 23.2046 17 22.9558C17.0207 22.7278 17.1555 22.5516 17.4043 22.4272C17.5701 22.3443 20.5346 20.9449 26.2979 18.2291C32.0611 15.5134 34.9945 14.1244 35.0982 14.0622C35.1811 14.0207 35.2744 14 35.3781 14ZM17.0311 37.4468C17.0311 37.2395 17.1866 37.0322 17.4975 36.8249H35.5025C35.8342 36.9493 36 37.1566 36 37.4468C36 37.6956 35.8445 37.9029 35.5336 38.0687H17.4664C17.1762 37.9236 17.0311 37.7163 17.0311 37.4468Z" fill="black"/>
</g>
<defs>
<clipPath id="clip0_285_6202">
<rect width="52" height="52" rx="4" fill="white"/>
</clipPath>
</defs>
</svg>
