<svg width="53" height="53" viewBox="0 0 53 53" fill="none" xmlns="http://www.w3.org/2000/svg">
<g filter="url(#filter0_d)">
<rect width="52" height="52" fill="none"/>
<path d="M35.3781 14.0001C35.5439 14.0001 35.689 14.0623 35.8134 14.1867C35.9378 14.3111 36 14.4666 36 14.6531C36 14.8397 35.9274 14.9848 35.7823 15.0885C35.7616 15.1092 32.9629 16.4464 27.3863 19.0999L19.1146 23.0181L26.8265 26.6875C32.7971 29.5069 35.8238 30.9685 35.9067 31.0721C35.9689 31.1965 36 31.3105 36 31.4142C36 31.7873 35.8134 31.9947 35.4403 32.0361H35.2537L26.2979 27.807C20.2859 24.9668 17.2591 23.526 17.2177 23.4846C17.0726 23.3809 17 23.2047 17 22.9559C17.0207 22.7279 17.1555 22.5517 17.4043 22.4273C17.5701 22.3444 20.5346 20.945 26.2979 18.2292C32.0611 15.5135 34.9945 14.1245 35.0982 14.0623C35.1811 14.0208 35.2744 14.0001 35.3781 14.0001ZM17.0311 37.4469C17.0311 37.2396 17.1866 37.0323 17.4975 36.825H35.5025C35.8342 36.9494 36 37.1567 36 37.4469C36 37.6957 35.8445 37.903 35.5336 38.0688H17.4664C17.1762 37.9237 17.0311 37.7164 17.0311 37.4469Z" fill="black"/>
</g>
<defs>
<filter id="filter0_d" x="0" y="0" width="53" height="53" filterUnits="userSpaceOnUse" color-interpolation-filters="sRGB">
<feFlood flood-opacity="0" result="BackgroundImageFix"/>
<feColorMatrix in="SourceAlpha" type="matrix" values="0 0 0 0 0 0 0 0 0 0 0 0 0 0 0 0 0 0 127 0" result="hardAlpha"/>
<feOffset dx="1" dy="1"/>
<feColorMatrix type="matrix" values="0 0 0 0 0 0 0 0 0 0 0 0 0 0 0 0 0 0 0.25 0"/>
<feBlend mode="normal" in2="BackgroundImageFix" result="effect1_dropShadow"/>
<feBlend mode="normal" in="SourceGraphic" in2="effect1_dropShadow" result="shape"/>
</filter>
</defs>
</svg>
