<svg width="52" height="52" viewBox="0 0 52 52" fill="none" xmlns="http://www.w3.org/2000/svg">
<g clip-path="url(#clip0_285_6210)">
<path d="M52 0H0V52H52V0Z" fill="#D0F0FD"/>
<path d="M17.4595 40.3559C17.4595 40.3559 17.3649 40.3559 17.1757 40.3559C16.9865 40.3559 16.8243 40.3243 16.6892 40.2613C16.5541 40.1982 16.473 40.1141 16.4459 40.009C16.4189 39.9039 16.3919 39.8303 16.3649 39.7883C16.3649 39.6411 16.4324 39.494 16.5676 39.3468L23.1351 29.3829H13.5676C13.1892 29.2357 13 29.0255 13 28.7523C13 28.4369 13.2162 28.2267 13.6486 28.1216H23.9865L27.1892 23.2658H13.6486C13.2162 23.1607 13 22.9505 13 22.6351C13 22.3619 13.1892 22.1517 13.5676 22.0045H28C32.6216 14.9625 35 11.3889 35.1351 11.2838C35.2162 11.0946 35.4324 11 35.7838 11C35.973 11 36.1351 11.042 36.2703 11.1261C36.4054 11.2102 36.4865 11.3048 36.5135 11.4099C36.5405 11.515 36.5676 11.5886 36.5946 11.6306C36.5946 11.7147 34.3378 15.1727 29.8243 22.0045H39.3919C39.7973 22.1727 40 22.3829 40 22.6351C40 22.8664 39.8108 23.0661 39.4324 23.2342L29.0135 23.2658L25.7703 28.1216H39.4324C39.8108 28.3318 40 28.542 40 28.7523C40 29.0255 39.7973 29.2357 39.3919 29.3829H24.9595C20.2027 36.5931 17.7568 40.2192 17.6216 40.2613C17.5135 40.3243 17.3649 40.3559 17.1757 40.3559H17.4595Z" fill="black"/>
</g>
<defs>
<clipPath id="clip0_285_6210">
<rect width="52" height="52" rx="4" fill="white"/>
</clipPath>
</defs>
</svg>
