<svg width="53" height="53" viewBox="0 0 53 53" fill="none" xmlns="http://www.w3.org/2000/svg">
<g filter="url(#filter0_d)">
<rect width="52" height="52" fill="white"/>
<path d="M17.4595 40.356C17.4595 40.356 17.3649 40.356 17.1757 40.356C16.9865 40.356 16.8243 40.3244 16.6892 40.2614C16.5541 40.1983 16.473 40.1142 16.4459 40.0091C16.4189 39.904 16.3919 39.8304 16.3649 39.7884C16.3649 39.6412 16.4324 39.4941 16.5676 39.3469L23.1351 29.383H13.5676C13.1892 29.2358 13 29.0256 13 28.7524C13 28.437 13.2162 28.2268 13.6486 28.1217H23.9865L27.1892 23.2659H13.6486C13.2162 23.1608 13 22.9506 13 22.6352C13 22.362 13.1892 22.1518 13.5676 22.0046H28C32.6216 14.9626 35 11.389 35.1351 11.2839C35.2162 11.0947 35.4324 11.0001 35.7838 11.0001C35.973 11.0001 36.1351 11.0421 36.2703 11.1262C36.4054 11.2103 36.4865 11.3049 36.5135 11.41C36.5405 11.5151 36.5676 11.5887 36.5946 11.6307C36.5946 11.7148 34.3378 15.1728 29.8243 22.0046H39.3919C39.7973 22.1728 40 22.383 40 22.6352C40 22.8665 39.8108 23.0662 39.4324 23.2343L29.0135 23.2659L25.7703 28.1217H39.4324C39.8108 28.3319 40 28.5421 40 28.7524C40 29.0256 39.7973 29.2358 39.3919 29.383H24.9595C20.2027 36.5932 17.7568 40.2193 17.6216 40.2614C17.5135 40.3244 17.3649 40.356 17.1757 40.356H17.4595Z" fill="black"/>
</g>
<defs>
<filter id="filter0_d" x="0" y="0" width="53" height="53" filterUnits="userSpaceOnUse" color-interpolation-filters="sRGB">
<feFlood flood-opacity="0" result="BackgroundImageFix"/>
<feColorMatrix in="SourceAlpha" type="matrix" values="0 0 0 0 0 0 0 0 0 0 0 0 0 0 0 0 0 0 127 0" result="hardAlpha"/>
<feOffset dx="1" dy="1"/>
<feColorMatrix type="matrix" values="0 0 0 0 0 0 0 0 0 0 0 0 0 0 0 0 0 0 0.25 0"/>
<feBlend mode="normal" in2="BackgroundImageFix" result="effect1_dropShadow"/>
<feBlend mode="normal" in="SourceGraphic" in2="effect1_dropShadow" result="shape"/>
</filter>
</defs>
</svg>
