<svg width="52" height="52" viewBox="0 0 52 52" fill="none" xmlns="http://www.w3.org/2000/svg">
<rect width="52" height="52" rx="4" fill="#D0F0FD"/>
<path d="M28.5873 13.6713C28.7901 13.1619 29.0182 12.5887 28.3814 12.3353C27.7446 12.0818 27.4658 12.7823 27.2757 13.2599L15.54 42.7435C15.3373 43.2529 15.0711 43.9216 15.7079 44.1751C16.3447 44.4285 16.5728 43.8554 16.7756 43.346L28.5873 13.6713Z" fill="black"/>
<path d="M34.6461 13.6713C34.8488 13.1619 35.077 12.5887 34.4402 12.3353C33.8034 12.0818 33.5246 12.7823 33.3345 13.2599L21.5988 42.7435C21.396 43.2529 21.1299 43.9216 21.7667 44.1751C22.4035 44.4285 22.6316 43.8554 22.8344 43.346L34.6461 13.6713Z" fill="black"/>
</svg>
