<svg width="53" height="53" viewBox="0 0 53 53" fill="none" xmlns="http://www.w3.org/2000/svg">
<g filter="url(#filter0_d)">
<rect width="52" height="52" fill="white"/>
<path d="M28.5873 13.6713C28.7901 13.1619 29.0182 12.5887 28.3814 12.3353C27.7446 12.0818 27.4658 12.7823 27.2757 13.2599L15.54 42.7435C15.3373 43.2529 15.0711 43.9216 15.7079 44.1751C16.3447 44.4285 16.5728 43.8554 16.7756 43.346L28.5873 13.6713Z" fill="black"/>
<path d="M34.6461 13.6713C34.8488 13.1619 35.077 12.5887 34.4402 12.3353C33.8034 12.0818 33.5246 12.7823 33.3345 13.2599L21.5988 42.7435C21.396 43.2529 21.1299 43.9216 21.7667 44.1751C22.4035 44.4285 22.6316 43.8554 22.8344 43.346L34.6461 13.6713Z" fill="black"/>
</g>
<defs>
<filter id="filter0_d" x="0" y="0" width="53" height="53" filterUnits="userSpaceOnUse" color-interpolation-filters="sRGB">
<feFlood flood-opacity="0" result="BackgroundImageFix"/>
<feColorMatrix in="SourceAlpha" type="matrix" values="0 0 0 0 0 0 0 0 0 0 0 0 0 0 0 0 0 0 127 0" result="hardAlpha"/>
<feOffset dx="1" dy="1"/>
<feColorMatrix type="matrix" values="0 0 0 0 0 0 0 0 0 0 0 0 0 0 0 0 0 0 0.25 0"/>
<feBlend mode="normal" in2="BackgroundImageFix" result="effect1_dropShadow"/>
<feBlend mode="normal" in="SourceGraphic" in2="effect1_dropShadow" result="shape"/>
</filter>
</defs>
</svg>
