<svg width="52" height="52" viewBox="0 0 52 52" fill="none" xmlns="http://www.w3.org/2000/svg">
<rect width="52" height="52" rx="4" fill="#D0F0FD"/>
<path d="M29.1057 23.1686C31.6757 19.3713 34.6037 16.2591 40 17.4293C39.6619 18.4299 39.3655 19.3065 39.0529 20.2321C36.6939 19.5802 34.864 20.4411 33.2853 22.0296C32.8221 22.4956 32.375 22.988 31.9891 23.5184C30.3091 25.8293 30.2986 26.0868 32.0288 28.3454C33.7768 30.6275 35.9237 32.0905 39.0626 31.3936C39.3708 32.325 39.6635 33.2093 39.9546 34.0884C36.8506 35.2452 32.503 34.3435 29.0499 28.4139C28.4639 29.1917 27.9274 29.9667 27.3273 30.6891C25.1392 33.3231 22.4967 34.9836 18.8998 34.3912C15.3605 33.8086 13.0091 31.6014 12.2645 28.0928C11.5089 24.5328 12.3434 21.3866 15.1402 18.9643C18.8375 15.7619 24.1832 16.5628 27.3974 20.7278C27.9963 21.504 28.5251 22.3345 29.1061 23.1686H29.1057ZM15.1884 25.7329C15.2556 27.9284 16.0197 29.7938 18.0633 30.8669C20.0927 31.9322 22.1861 31.7828 23.8791 30.2931C25.2109 29.1213 26.2219 27.5793 27.3282 26.165C27.4707 25.9828 27.446 25.4989 27.3022 25.2908C26.4645 24.0792 25.6789 22.8021 24.6666 21.7477C22.9381 19.9471 20.7414 19.4288 18.4232 20.3783C16.114 21.3242 15.3285 23.365 15.188 25.7325L15.1884 25.7329Z" fill="black"/>
</svg>
