<svg width="52" height="52" viewBox="0 0 52 52" fill="none" xmlns="http://www.w3.org/2000/svg">
<path d="M15.3312 39.0776C15.4362 39.1376 15.6012 39.2726 15.6762 39.3926C15.0012 40.2776 14.2662 40.8776 13.4862 40.8776C12.4962 40.8776 12.2262 40.3076 11.6862 38.2226C10.5162 39.9926 9.8262 40.8776 8.8512 40.8776C8.0862 40.8776 7.6662 40.3376 7.6662 39.8726C7.6662 39.4526 7.9962 39.1076 8.4762 39.1076C8.8362 39.1076 9.2262 39.3176 9.5112 39.8726C10.0962 39.4976 10.9362 38.3276 11.4762 37.4126C10.8312 34.8326 10.7412 34.4876 10.2012 34.4876C9.8112 34.4876 9.3462 34.9226 9.0912 35.1776C8.9862 35.1026 8.8362 34.9826 8.7462 34.8626C9.3312 34.1726 10.1112 33.5426 10.9512 33.5426C11.8962 33.5426 12.1512 34.0526 12.6312 35.9576C13.6812 34.3676 14.4612 33.4976 15.4062 33.4976C16.0662 33.4976 16.5312 33.9176 16.5312 34.4276C16.5312 34.8926 16.1862 35.2226 15.7212 35.2226C15.4062 35.2226 14.9562 35.0576 14.7612 34.4576C14.2512 34.7726 13.6062 35.5376 12.8262 36.7376C12.8412 36.7826 12.8562 36.8426 12.8712 36.9026C13.5312 39.5876 13.6512 39.9326 14.1762 39.9326C14.5812 39.9326 14.9862 39.4826 15.3312 39.0776Z" fill="#454545"/>
<path d="M17.9814 36.8256C17.9814 36.8256 17.9814 36.7526 17.9814 36.6067C17.9814 36.4609 18.06 36.3486 18.2171 36.2701H31.0939C29.7922 35.2938 28.9898 34.0426 28.6869 32.5165C28.6869 32.5052 28.6869 32.4884 28.6869 32.466C28.6869 32.4435 28.6812 32.4267 28.67 32.4155C28.67 32.2808 28.7654 32.2135 28.9562 32.2135H29.0067C29.1077 32.2135 29.175 32.2191 29.2087 32.2303C29.2423 32.2415 29.276 32.264 29.3097 32.2976C29.3433 32.3313 29.3602 32.3818 29.3602 32.4491C29.3602 32.5165 29.377 32.6062 29.4107 32.7185C29.4443 32.8307 29.4892 32.9709 29.5453 33.1393C29.7922 33.8911 30.2018 34.5644 30.7741 35.1592C31.3464 35.7539 32.0141 36.1747 32.7771 36.4216C32.8781 36.4553 32.9286 36.517 32.9286 36.6067C32.9286 36.6741 32.9006 36.7246 32.8445 36.7582C32.7884 36.7919 32.6537 36.848 32.4405 36.9266C32.2273 37.0051 32.0141 37.1117 31.8009 37.2464C31.3408 37.5381 30.9424 37.8748 30.6058 38.2563C30.2691 38.6379 30.0166 39.0138 29.8483 39.3841C29.68 39.7544 29.5621 40.0349 29.4948 40.2257C29.4275 40.4165 29.3826 40.5904 29.3602 40.7475C29.3377 40.8597 29.3097 40.9271 29.276 40.9495C29.2423 40.9719 29.1526 40.9888 29.0067 41C28.7822 41 28.67 40.9383 28.67 40.8148C28.67 40.7363 28.6981 40.596 28.7542 40.394C29.1133 38.9801 29.8932 37.8299 31.0939 36.9434H18.2171C18.06 36.8648 17.9814 36.7526 17.9814 36.6067V36.8256Z" fill="#454545"/>
<path d="M37.3695 37.847L36.7095 40.697H35.2095L36.4395 35.372C36.5145 35.057 36.5445 34.922 36.5445 34.802C36.5445 34.547 36.4395 34.442 36.2745 34.442C35.9895 34.442 35.4945 34.787 35.0595 35.252C34.9245 35.162 34.8195 35.057 34.7145 34.937C35.5095 33.992 36.3945 33.527 37.1445 33.527C37.8195 33.527 38.0745 33.932 38.0745 34.382C38.0745 34.622 37.9995 34.967 37.9245 35.327H37.9695C38.7345 34.112 39.8445 33.497 40.8045 33.497C41.7645 33.497 42.2895 34.097 42.2895 34.862C42.2895 35.927 41.1795 39.032 41.1795 39.647C41.1795 39.782 41.2395 39.932 41.4495 39.932C41.7945 39.932 42.3795 39.527 42.7995 39.002C42.9345 39.092 43.0395 39.182 43.1445 39.302C42.4695 40.202 41.6895 40.877 40.7295 40.877C39.9945 40.877 39.6645 40.457 39.6645 39.902C39.6645 38.897 40.7595 35.957 40.7595 35.057C40.7595 34.667 40.5945 34.367 40.1445 34.367C39.2745 34.367 37.9395 35.462 37.3695 37.847Z" fill="#454545"/>
<path d="M38.5129 26.3359C37.3129 26.3359 36.7849 25.6639 36.7849 24.7759C36.7849 23.1919 38.5369 18.4399 38.5369 16.9279C38.5369 16.4239 38.3929 15.9199 37.7209 15.9199C36.5449 15.9199 34.2649 17.4559 33.2569 21.6799L32.2249 26.0479H29.8249L31.7449 17.9119C31.8649 17.4079 31.9369 17.0239 31.9369 16.7119C31.9369 16.2079 31.7929 15.9199 31.2169 15.9199C29.7289 15.9199 27.6409 17.7439 26.7049 21.6799L25.6729 26.0479H23.2729L25.2409 17.5279C25.3609 17.0239 25.4089 16.8079 25.4089 16.6159C25.4089 16.2079 25.2409 16.0399 24.9769 16.0399C24.5209 16.0399 23.7289 16.5919 23.0329 17.3359C22.8169 17.1919 22.6489 17.0239 22.4809 16.8319C23.7049 15.3679 25.1449 14.5759 26.3449 14.5759C27.4489 14.5759 27.8569 15.2479 27.8569 15.9919C27.8569 16.2559 27.7609 16.8079 27.6409 17.4559H27.7129C28.8649 15.6799 30.5209 14.5279 32.1289 14.5279C33.3289 14.5279 34.2889 15.1519 34.2889 16.4239C34.2889 16.6399 34.2889 16.8799 34.1929 17.4559H34.2649C35.4889 15.5839 37.1449 14.5279 38.7049 14.5279C40.1209 14.5279 40.9849 15.3679 40.9849 16.6399C40.9849 18.3919 39.2089 23.3599 39.2089 24.3439C39.2089 24.5839 39.3049 24.8239 39.6409 24.8239C40.1929 24.8239 41.1289 24.1759 41.8009 23.3359C42.0169 23.4799 42.1849 23.6239 42.3529 23.8159C41.2729 25.2559 40.0249 26.3359 38.5129 26.3359Z" fill="#454545"/>
<path d="M20.1599 11.7919C19.2959 11.7919 18.6959 11.1439 18.6959 10.3039C18.6959 9.34385 19.4879 8.55185 20.4479 8.55185C21.3119 8.55185 21.8639 9.17585 21.8639 10.0159C21.8639 10.9759 21.1439 11.7919 20.1599 11.7919ZM21.2639 23.3359C21.4799 23.4799 21.6479 23.6239 21.8159 23.8159C20.7359 25.2559 19.4879 26.3359 17.9519 26.3359C16.7759 26.3359 16.2479 25.6879 16.2479 24.7039C16.2479 24.3439 16.3199 23.9599 16.4159 23.5279L17.8559 17.5279C17.9759 17.0239 18.0239 16.8079 18.0239 16.6159C18.0239 16.2079 17.8559 16.0399 17.5919 16.0399C17.1359 16.0399 16.3439 16.5919 15.6479 17.3359C15.4319 17.1919 15.2639 17.0239 15.0959 16.8319C16.3679 15.3199 17.8079 14.5759 18.9839 14.5759C20.0639 14.5759 20.4959 15.2239 20.4959 16.0399C20.4959 16.3279 20.4479 16.6639 20.3759 17.0239L18.8399 23.4079C18.7919 23.6239 18.6719 24.0079 18.6719 24.3199C18.6719 24.6079 18.7679 24.8239 19.1039 24.8239C19.6559 24.8239 20.5919 24.1759 21.2639 23.3359Z" fill="#454545"/>
<path d="M14.016 23.3359C14.232 23.4799 14.4 23.6239 14.568 23.8159C13.488 25.2559 12.24 26.3359 10.704 26.3359C9.52805 26.3359 9.00005 25.6879 9.00005 24.7039C9.00005 24.3439 9.07205 23.9359 9.16805 23.5039L11.688 11.2399C11.784 10.7839 11.856 10.3999 11.856 10.1839C11.856 9.55985 11.4 9.48785 9.86405 9.46385C9.81605 9.24785 9.79205 9.03185 9.84005 8.81585C11.568 8.69585 13.2961 8.47985 14.496 7.99985L14.8081 8.16785C14.4721 9.36785 14.1601 10.7359 13.8 12.4879L11.568 23.3599C11.52 23.5759 11.424 24.0079 11.424 24.3199C11.424 24.6079 11.52 24.8239 11.856 24.8239C12.408 24.8239 13.344 24.1759 14.016 23.3359Z" fill="#454545"/>
</svg>
