<svg width="52" height="52" viewBox="0 0 52 52" fill="none" xmlns="http://www.w3.org/2000/svg">
<g clip-path="url(#clip0_285_6047)">
<path d="M52 0H0V52H52V0Z" fill="#D0F0FD"/>
<path d="M8.9889 16L6 16.2365V16.8601C7.46219 16.8601 7.63422 17.0106 7.63422 18.0643V29.3318C7.63422 30.2994 7.39768 30.2994 6 30.2994V30.923C6.60208 30.88 7.65572 30.88 8.30081 30.88C8.94589 30.88 10.021 30.88 10.6231 30.923V30.2994C9.24693 30.2994 8.9889 30.2994 8.9889 29.3318V16Z" fill="black"/>
<path d="M21.0089 26.3216C21.0089 23.5478 18.9016 21.333 16.4073 21.333C13.827 21.333 11.7842 23.6123 11.7842 26.3216C11.7842 29.074 13.9345 31.1383 16.3858 31.1383C18.9231 31.1383 21.0089 29.031 21.0089 26.3216ZM16.4073 30.6652C15.6117 30.6652 14.6441 30.3212 14.0205 29.2675C13.4399 28.2999 13.4184 27.0312 13.4184 26.1281C13.4184 25.311 13.4184 23.9993 14.085 23.0317C14.6871 22.1071 15.6332 21.763 16.3858 21.763C17.2244 21.763 18.1275 22.1501 18.7081 22.9887C19.3747 23.9778 19.3747 25.3325 19.3747 26.1281C19.3747 26.8807 19.3747 28.2139 18.8156 29.2245C18.2135 30.2566 17.2244 30.6652 16.4073 30.6652Z" fill="black"/>
<path d="M24.2254 27.0314C25.236 27.698 26.0961 27.698 26.3327 27.698C28.2679 27.698 29.7086 26.2358 29.7086 24.5801C29.7086 23.9995 29.5366 23.1824 28.8485 22.4943C29.6871 21.6342 30.6977 21.6342 30.8053 21.6342C30.8913 21.6342 30.9988 21.6342 31.0848 21.6772C30.8698 21.7632 30.7623 21.9782 30.7623 22.2148C30.7623 22.5158 30.9773 22.7738 31.3213 22.7738C31.4934 22.7738 31.8804 22.6663 31.8804 22.1933C31.8804 21.8062 31.5794 21.2041 30.8268 21.2041C29.7086 21.2041 28.87 21.8922 28.569 22.2148C27.9239 21.7202 27.1713 21.4407 26.3542 21.4407C24.4189 21.4407 22.9782 22.9029 22.9782 24.5586C22.9782 25.7842 23.7308 26.5798 23.9459 26.7734C23.6878 27.0959 23.3008 27.7195 23.3008 28.5581C23.3008 29.8053 24.0534 30.3428 24.2254 30.4504C23.2363 30.7299 22.2471 31.504 22.2471 32.6221C22.2471 34.1058 24.2684 35.3315 26.9132 35.3315C29.4721 35.3315 31.6009 34.1919 31.6009 32.5791C31.6009 32.0416 31.4503 30.7729 30.1602 30.1063C29.0635 29.5472 27.9884 29.5472 26.1391 29.5472C24.8275 29.5472 24.6769 29.5472 24.2899 29.1387C24.0749 28.9237 23.8813 28.5151 23.8813 28.0635C23.8813 27.698 24.0104 27.3324 24.2254 27.0314ZM26.3542 27.2464C24.4619 27.2464 24.4619 25.0746 24.4619 24.5801C24.4619 24.193 24.4619 23.3114 24.8275 22.7308C25.236 22.1073 25.8811 21.8922 26.3327 21.8922C28.2249 21.8922 28.2249 24.064 28.2249 24.5586C28.2249 24.9456 28.2249 25.8272 27.8594 26.4078C27.4508 27.0314 26.8057 27.2464 26.3542 27.2464ZM26.9347 34.8799C24.8705 34.8799 23.3008 33.8263 23.3008 32.6006C23.3008 32.4286 23.3438 31.59 24.1609 31.0309C24.6339 30.7299 24.8275 30.7299 26.3327 30.7299C28.1174 30.7299 30.5472 30.7299 30.5472 32.6006C30.5472 33.8693 28.913 34.8799 26.9347 34.8799Z" fill="black"/>
<path d="M36.5289 33.0753C36.7582 32.8603 37.3603 32.3873 37.5897 32.1866C38.4784 31.3695 39.3242 30.581 39.3242 29.2765C39.3242 27.5706 37.8907 26.4668 36.0988 26.4668C34.3786 26.4668 33.2461 27.7713 33.2461 29.0471C33.2461 29.7496 33.8052 29.8499 34.0059 29.8499C34.3069 29.8499 34.7513 29.6349 34.7513 29.0902C34.7513 28.3447 34.0345 28.3447 33.8625 28.3447C34.2782 27.2982 35.2387 26.9399 35.9411 26.9399C37.2743 26.9399 37.9624 28.0723 37.9624 29.2765C37.9624 30.7674 36.9159 31.8569 35.2244 33.5914L33.4181 35.455C33.2461 35.6127 33.2461 35.6414 33.2461 35.9997H38.9085L39.3242 33.4337H38.8798C38.8368 33.7204 38.7221 34.4372 38.5501 34.7096C38.4641 34.8242 37.3746 34.8242 37.1453 34.8242H34.5936L36.5289 33.0753Z" fill="black"/>
<path d="M45 21H33V41H45V21Z" fill="#C4C4C4"/>
</g>
<defs>
<clipPath id="clip0_285_6047">
<rect width="52" height="52" rx="4" fill="white"/>
</clipPath>
</defs>
</svg>
