<svg width="53" height="53" viewBox="0 0 53 53" fill="none" xmlns="http://www.w3.org/2000/svg">
<g filter="url(#filter0_d)">
<rect width="52" height="52" fill="none"/>
<path d="M28.931 22.6725C28.437 22.6725 28.0437 22.5079 27.751 22.1786C27.4582 21.8492 27.3119 21.4468 27.3119 20.9711C27.3119 19.6722 27.7967 18.5471 28.7663 17.5958C29.7359 16.6444 30.9434 16.1688 32.3886 16.1688C34.0534 16.1688 35.4438 16.681 36.5598 17.7055C37.6758 18.73 38.2429 20.0564 38.2612 21.6846C38.2612 22.4713 38.0783 23.2213 37.7124 23.9348C37.3465 24.6483 36.9074 25.2703 36.3952 25.8009C35.8829 26.3314 35.1511 27.0083 34.1998 27.8316C33.5412 28.3987 32.6265 29.2403 31.4556 30.3562L29.8365 31.893L31.9221 31.9204C34.7944 31.9204 36.322 31.8747 36.5049 31.7832C36.633 31.7466 36.8525 30.9325 37.1635 29.3409V29.2586H38.2612V29.3409C38.2429 29.3958 38.124 30.2282 37.9045 31.8381C37.6849 33.448 37.5477 34.2896 37.4928 34.3627V34.4451H27.3119V33.9237V33.5944C27.3119 33.4663 27.3668 33.3291 27.4765 33.1827C27.5863 33.0364 27.8607 32.7162 28.2998 32.2223C28.8303 31.6369 29.2877 31.1246 29.6719 30.6855C29.8365 30.5026 30.1476 30.1641 30.6049 29.6702C31.0623 29.1762 31.3733 28.8378 31.5379 28.6548C31.7026 28.4719 31.9679 28.17 32.3338 27.7493C32.6996 27.3285 32.9558 27.0175 33.1021 26.8162C33.2485 26.615 33.4589 26.3406 33.7333 25.993C34.0077 25.6454 34.1998 25.3527 34.3096 25.1148C34.4193 24.877 34.5565 24.6117 34.7212 24.319C34.8858 24.0263 35.0048 23.7336 35.0779 23.4409C35.1511 23.1482 35.2152 22.8737 35.27 22.6176C35.3249 22.3615 35.3524 22.0596 35.3524 21.712C35.3524 20.5595 35.0414 19.5624 34.4193 18.7209C33.7973 17.8793 32.91 17.4585 31.7575 17.4585C31.1538 17.4585 30.6232 17.6141 30.1658 17.9251C29.7085 18.2361 29.3883 18.5379 29.2054 18.8306C29.0224 19.1234 28.931 19.2972 28.931 19.352C28.931 19.3703 28.9767 19.3795 29.0682 19.3795C29.3975 19.3795 29.7359 19.5075 30.0835 19.7637C30.4311 20.0198 30.6049 20.4406 30.6049 21.026C30.6049 21.4834 30.4586 21.8675 30.1658 22.1786C29.8731 22.4896 29.4615 22.6542 28.931 22.6725Z" fill="black"/>
<path d="M5.68754 29.3491C5.57777 29.3491 5.44971 29.276 5.30335 29.1296C5.15699 28.9832 5.07467 28.8552 5.05637 28.7454C5.03808 28.6356 5.32165 28.3612 5.90707 27.9222C6.4925 27.4831 7.09622 27.0257 7.71824 26.5501C8.34025 26.0744 8.68785 25.8091 8.76103 25.7543C8.79762 25.7177 8.84335 25.6994 8.89824 25.6994H8.92568C9.03545 25.6994 9.16351 25.8549 9.30986 26.1659C9.45622 26.4769 9.95017 27.5471 10.7917 29.3766C11.1393 30.1632 11.4229 30.7944 11.6424 31.2701L13.975 36.3468C13.9933 36.3468 14.9446 34.3984 16.8289 30.5017C18.7133 26.605 20.5976 22.6808 22.482 18.7291C24.3663 14.7775 25.3451 12.756 25.4182 12.6645C25.528 12.4084 25.711 12.2803 25.9671 12.2803C26.0951 12.2803 26.2049 12.3352 26.2964 12.4449C26.3879 12.5547 26.4519 12.6645 26.4885 12.7742V12.9389L20.0945 26.1933L13.6457 39.5301C13.5725 39.6581 13.3987 39.7222 13.1243 39.7222C12.9596 39.7222 12.8499 39.6947 12.795 39.6398C12.7584 39.6033 11.862 37.664 10.1057 33.8222L7.47126 28.0594L7.03219 28.3612C6.75777 28.5808 6.4742 28.8003 6.18149 29.0198C5.88878 29.2394 5.72413 29.3491 5.68754 29.3491Z" fill="black"/>
<path d="M39.6606 13.9243H25.9396V12.2778H39.6606V13.9243Z" fill="black"/>
<rect x="26" y="15.8889" width="13" height="21.6667" fill="#C4C4C4"/>
</g>
<defs>
<filter id="filter0_d" x="0" y="0" width="53" height="53" filterUnits="userSpaceOnUse" color-interpolation-filters="sRGB">
<feFlood flood-opacity="0" result="BackgroundImageFix"/>
<feColorMatrix in="SourceAlpha" type="matrix" values="0 0 0 0 0 0 0 0 0 0 0 0 0 0 0 0 0 0 127 0" result="hardAlpha"/>
<feOffset dx="1" dy="1"/>
<feColorMatrix type="matrix" values="0 0 0 0 0 0 0 0 0 0 0 0 0 0 0 0 0 0 0.25 0"/>
<feBlend mode="normal" in2="BackgroundImageFix" result="effect1_dropShadow"/>
<feBlend mode="normal" in="SourceGraphic" in2="effect1_dropShadow" result="shape"/>
</filter>
</defs>
</svg>
