<svg width="52" height="52" viewBox="0 0 52 52" fill="none" xmlns="http://www.w3.org/2000/svg">
<g clip-path="url(#clip0_285_6071)">
<path d="M52 0H0V52H52V0Z" fill="#D0F0FD"/>
<path d="M16.075 14.7195C16.105 14.6995 19.1308 14.6895 25.1523 14.6895H34.1845L35.0548 16.715C35.6449 18.0954 35.96 18.8256 36 18.9056H35.3999L35.2948 18.6955C35.0848 18.2854 34.8047 17.8953 34.4546 17.5252C33.9545 17.0451 33.3993 16.66 32.7892 16.37C32.179 16.0799 31.4739 15.8648 30.6737 15.7248C29.8735 15.5848 29.1183 15.4997 28.4081 15.4697C27.6979 15.4397 26.7827 15.4197 25.6624 15.4097H23.7869H23.3218H18.9407L19.0608 15.5748C23.6919 21.9063 26.0175 25.1021 26.0375 25.1621C26.0475 25.1822 26.0475 25.2122 26.0375 25.2522C26.0075 25.2822 24.6872 26.7926 22.0765 29.7833L18.1155 34.2844C18.1155 34.2944 19.1708 34.2994 21.2813 34.2994C21.8015 34.2994 22.5066 34.2994 23.3968 34.2994C24.2871 34.2994 24.9272 34.3044 25.3173 34.3144C26.6777 34.3144 27.7779 34.2894 28.6182 34.2394C29.4584 34.1894 30.2936 34.0844 31.1238 33.9243C31.954 33.7643 32.6592 33.5192 33.2393 33.1892C33.8195 32.8591 34.3346 32.424 34.7847 31.8838C34.9947 31.6238 35.1998 31.2637 35.3999 30.8036H36C36 30.8136 35.965 30.9186 35.895 31.1186C35.825 31.3187 35.6999 31.6438 35.5199 32.0939C35.3398 32.544 35.1848 32.9641 35.0548 33.3542L34.1845 35.6798L25.1673 35.6948C19.1458 35.6948 16.12 35.6848 16.09 35.6648C16.03 35.6448 16 35.5998 16 35.5297C16 35.5097 16.01 35.4797 16.03 35.4397L24.027 26.2874C24.027 26.2774 23.862 26.0524 23.5319 25.6123C23.2018 25.1722 22.6767 24.452 21.9565 23.4517C21.2363 22.4515 20.5861 21.5612 20.006 20.7811L16.015 15.3047L16 15.0796C16 14.8696 16.025 14.7495 16.075 14.7195Z" fill="black"/>
<path d="M26.1285 38.8491C26.1285 38.6794 26.1956 38.5309 26.33 38.4036C26.4644 38.2763 26.62 38.2092 26.7967 38.2021C26.924 38.2021 27.0301 38.2445 27.115 38.3294C27.1998 38.4142 27.2458 38.5203 27.2529 38.6476C27.2529 38.8103 27.1822 38.9588 27.0407 39.0931C26.8993 39.2275 26.7437 39.2982 26.574 39.3053C26.4679 39.3053 26.3689 39.2699 26.277 39.1992C26.185 39.1285 26.1355 39.0118 26.1285 38.8491ZM24.3994 42.1693C24.3994 42.1128 24.4312 42.0032 24.4949 41.8405C24.5585 41.6779 24.6434 41.4975 24.7495 41.2995C24.8555 41.1015 25.0111 40.9212 25.2162 40.7585C25.4213 40.5959 25.6334 40.5181 25.8527 40.5252C26.1285 40.5252 26.3583 40.6065 26.5422 40.7691C26.726 40.9318 26.8215 41.151 26.8286 41.4268C26.8286 41.547 26.7791 41.745 26.6801 42.0208C26.5811 42.2966 26.4396 42.6679 26.2558 43.1346C26.0719 43.6014 25.9234 44.0009 25.8102 44.3333C25.7749 44.4889 25.7572 44.602 25.7572 44.6727C25.7572 44.8495 25.8173 44.938 25.9375 44.938C26.0012 44.938 26.0684 44.9273 26.1391 44.9061C26.2098 44.8849 26.2911 44.8354 26.383 44.7576C26.475 44.6798 26.5705 44.5561 26.6695 44.3863C26.7685 44.2166 26.8569 44.008 26.9346 43.7605C26.9559 43.6756 26.9735 43.6261 26.9877 43.612C27.0018 43.5978 27.0619 43.5908 27.168 43.5908C27.3095 43.5908 27.3802 43.6261 27.3802 43.6968C27.3802 43.7534 27.3483 43.863 27.2847 44.0257C27.2211 44.1883 27.1327 44.3687 27.0195 44.5667C26.9064 44.7647 26.7472 44.9415 26.5422 45.0971C26.3371 45.2526 26.1179 45.3304 25.8845 45.3304C25.6582 45.3304 25.4496 45.2562 25.2586 45.1077C25.0677 44.9592 24.9687 44.7329 24.9616 44.4288C24.9616 44.3086 24.9793 44.1954 25.0147 44.0893C25.05 43.9833 25.2021 43.5802 25.4708 42.8801C25.7395 42.1658 25.8951 41.738 25.9375 41.5965C25.98 41.4551 26.0047 41.3172 26.0118 41.1828C26.0118 41.0131 25.9517 40.9282 25.8315 40.9282H25.8102C25.5981 40.9282 25.4036 41.0449 25.2268 41.2783C25.05 41.5117 24.9157 41.8087 24.8237 42.1693C24.8167 42.1764 24.8096 42.187 24.8025 42.2012C24.7954 42.2153 24.7919 42.2259 24.7919 42.233C24.7919 42.2401 24.7848 42.2471 24.7707 42.2542C24.7565 42.2613 24.7459 42.2649 24.7389 42.2649C24.7318 42.2649 24.7176 42.2649 24.6964 42.2649C24.6752 42.2649 24.6469 42.2649 24.6116 42.2649H24.4631C24.4206 42.2225 24.3994 42.1906 24.3994 42.1693Z" fill="black"/>
<path d="M23.0479 8.64474C23.0549 8.60231 23.0655 8.54574 23.0797 8.47502C23.0938 8.4043 23.1363 8.26994 23.207 8.07193C23.2777 7.87392 23.3484 7.70773 23.4191 7.57337C23.4898 7.43901 23.6065 7.30818 23.7692 7.18089C23.9318 7.0536 24.0945 6.99349 24.2571 7.00056C24.5117 7.00056 24.7239 7.0642 24.8936 7.19149C25.0633 7.31879 25.1694 7.43901 25.2118 7.55216C25.2541 7.6653 25.2755 7.73956 25.2755 7.77492C25.2755 7.78906 25.279 7.79613 25.2861 7.79613L25.4028 7.67945C25.834 7.22685 26.3256 7.00056 26.8772 7.00056C27.2591 7.00056 27.5667 7.09603 27.8001 7.28696C28.0335 7.4779 28.1537 7.75724 28.1607 8.12497C28.1678 8.4927 28.0335 9.04783 27.7577 9.79037C27.4819 10.5329 27.3475 10.982 27.3546 11.1376C27.3546 11.3214 27.4147 11.4134 27.5349 11.4134C27.5773 11.4134 27.6091 11.4098 27.6304 11.4028C27.8354 11.3674 28.0193 11.2331 28.182 10.9997C28.3446 10.7663 28.4684 10.4834 28.5532 10.1511C28.5674 10.0945 28.6381 10.0662 28.7654 10.0662C28.9068 10.0662 28.9775 10.0945 28.9775 10.1511C28.9775 10.1581 28.9634 10.2112 28.9351 10.3102C28.8785 10.5153 28.8007 10.7168 28.7017 10.9148C28.6027 11.1128 28.4401 11.3108 28.2138 11.5088C27.9875 11.7069 27.7435 11.8023 27.4819 11.7953C27.1495 11.7953 26.909 11.6998 26.7605 11.5088C26.612 11.3179 26.5378 11.1199 26.5378 10.9148C26.5378 10.7805 26.6651 10.3562 26.9196 9.64186C27.1742 8.92761 27.3051 8.39016 27.3121 8.0295C27.3121 7.61227 27.1566 7.40365 26.8454 7.40365H26.7924C26.1842 7.40365 25.6715 7.76077 25.2542 8.47502L25.18 8.60231L24.8299 10.0238C24.5966 10.9502 24.4622 11.4487 24.4269 11.5195C24.3349 11.7104 24.1829 11.8059 23.9707 11.8059C23.8788 11.8059 23.8045 11.7846 23.748 11.7422C23.6914 11.6998 23.6525 11.6574 23.6313 11.6149C23.6101 11.5725 23.603 11.5371 23.6101 11.5088C23.6101 11.4169 23.7444 10.8406 24.0132 9.77976C24.2819 8.719 24.4233 8.14265 24.4375 8.05071C24.4445 8.01536 24.4481 7.93403 24.4481 7.80674C24.4481 7.53094 24.3632 7.39304 24.1935 7.39304C23.9248 7.39304 23.702 7.74663 23.5252 8.45381C23.4828 8.59524 23.4616 8.66949 23.4616 8.67657C23.4474 8.719 23.3802 8.74021 23.26 8.74021H23.1115C23.0691 8.69778 23.0479 8.66596 23.0479 8.64474Z" fill="black"/>
</g>
<defs>
<clipPath id="clip0_285_6071">
<rect width="52" height="52" rx="4" fill="white"/>
</clipPath>
</defs>
</svg>
