<svg width="37" height="37" viewBox="0 0 37 37" fill="none" xmlns="http://www.w3.org/2000/svg">
<path d="M18.5 34.6875C14.2068 34.6875 10.0895 32.982 7.05371 29.9463C4.01796 26.9105 2.3125 22.7932 2.3125 18.5C2.3125 14.2068 4.01796 10.0895 7.05371 7.05371C10.0895 4.01796 14.2068 2.3125 18.5 2.3125C22.7932 2.3125 26.9105 4.01796 29.9463 7.05371C32.982 10.0895 34.6875 14.2068 34.6875 18.5C34.6875 22.7932 32.982 26.9105 29.9463 29.9463C26.9105 32.982 22.7932 34.6875 18.5 34.6875ZM18.5 37C23.4065 37 28.1121 35.0509 31.5815 31.5815C35.0509 28.1121 37 23.4065 37 18.5C37 13.5935 35.0509 8.88795 31.5815 5.41852C28.1121 1.9491 23.4065 0 18.5 0C13.5935 0 8.88795 1.9491 5.41852 5.41852C1.9491 8.88795 0 13.5935 0 18.5C0 23.4065 1.9491 28.1121 5.41852 31.5815C8.88795 35.0509 13.5935 37 18.5 37Z" fill="currentColor"/>
<path d="M12.1522 13.3801C12.149 13.4548 12.1612 13.5293 12.1879 13.5992C12.2146 13.669 12.2553 13.7326 12.3075 13.7861C12.3597 13.8396 12.4223 13.8818 12.4914 13.9103C12.5606 13.9387 12.6348 13.9526 12.7095 13.9513H14.6173C14.9364 13.9513 15.1908 13.69 15.2324 13.3732C15.4406 11.8562 16.4812 10.7508 18.3358 10.7508C19.9222 10.7508 21.3744 11.544 21.3744 13.4518C21.3744 14.9202 20.5096 15.5955 19.1429 16.6223C17.5866 17.7531 16.354 19.0735 16.4419 21.2172L16.4488 21.719C16.4512 21.8707 16.5132 22.0154 16.6214 22.1218C16.7295 22.2283 16.8752 22.2879 17.0269 22.2879H18.9024C19.0557 22.2879 19.2028 22.227 19.3112 22.1185C19.4196 22.0101 19.4805 21.8631 19.4805 21.7097V21.4669C19.4805 19.8066 20.1118 19.3232 21.8161 18.0306C23.2244 16.9599 24.6929 15.7713 24.6929 13.2761C24.6929 9.78188 21.7421 8.09375 18.5116 8.09375C15.5816 8.09375 12.3719 9.45812 12.1522 13.3801ZM15.7528 26.7071C15.7528 27.9396 16.7356 28.8507 18.0884 28.8507C19.4967 28.8507 20.4656 27.9396 20.4656 26.7071C20.4656 25.4306 19.4944 24.5333 18.0861 24.5333C16.7356 24.5333 15.7528 25.4306 15.7528 26.7071Z" fill="currentColor"/>
</svg>
