<svg width="52" height="52" viewBox="0 0 52 52" fill="none" xmlns="http://www.w3.org/2000/svg">
<path d="M23.72 37.24C22.0133 37.24 20.5067 36.8267 19.2 36C17.8933 35.1733 16.8667 33.9467 16.12 32.32C15.3733 30.6667 15 28.6267 15 26.2C15 22.5733 15.7867 19.8 17.36 17.88C18.96 15.96 21.1333 15 23.88 15C24.8933 15 25.8133 15.1467 26.64 15.44C27.4667 15.7067 28.2 16.0933 28.84 16.6C29.5067 17.08 30.0667 17.6533 30.52 18.32H30.68L30.7728 17.7987C31.02 16.4108 32.2267 15.4 33.6364 15.4C33.8372 15.4 34 15.5628 34 15.7636V32.12C34 32.9467 34.16 33.5333 34.48 33.88C34.8 34.2 35.1867 34.36 35.64 34.36C35.8533 34.36 36.08 34.3333 36.32 34.28C36.5846 34.2212 36.84 34.4226 36.84 34.6937V36.4652C36.84 36.6233 36.7576 36.7716 36.6127 36.8345C36.5163 36.8764 36.4055 36.9182 36.28 36.96C36.04 37.04 35.7733 37.1067 35.48 37.16C35.1867 37.2133 34.8933 37.24 34.6 37.24C33.6133 37.24 32.7867 37 32.12 36.52C31.48 36.04 31.0133 35.1867 30.72 33.96H30.44C30.0133 34.6 29.48 35.1733 28.84 35.68C28.2 36.16 27.4533 36.5467 26.6 36.84C25.7467 37.1067 24.7867 37.24 23.72 37.24ZM24.44 34.32C25.9067 34.32 27.08 34.04 27.96 33.48C28.8667 32.92 29.52 32.0533 29.92 30.88C30.32 29.7067 30.52 28.2133 30.52 26.4V26.16C30.52 23.4933 30.0667 21.4533 29.16 20.04C28.28 18.6267 26.6933 17.92 24.4 17.92C22.4533 17.92 21 18.64 20.04 20.08C19.1067 21.4933 18.64 23.5467 18.64 26.24C18.64 28.9067 19.1333 30.92 20.12 32.28C21.1067 33.64 22.5467 34.32 24.44 34.32Z" fill="#454545"/>
<path d="M23.72 37.24C22.0133 37.24 20.5067 36.8267 19.2 36C17.8933 35.1733 16.8667 33.9467 16.12 32.32C15.3733 30.6667 15 28.6267 15 26.2C15 22.5733 15.7867 19.8 17.36 17.88C18.96 15.96 21.1333 15 23.88 15C24.8933 15 25.8133 15.1467 26.64 15.44C27.4667 15.7067 28.2 16.0933 28.84 16.6C29.5067 17.08 30.0667 17.6533 30.52 18.32H30.68L31.2 15.4H34V32.12C34 32.9467 34.16 33.5333 34.48 33.88C34.8 34.2 35.1867 34.36 35.64 34.36C35.8533 34.36 36.08 34.3333 36.32 34.28C36.56 34.2267 36.7333 34.1867 36.84 34.16V36.72C36.7067 36.8 36.52 36.88 36.28 36.96C36.04 37.04 35.7733 37.1067 35.48 37.16C35.1867 37.2133 34.8933 37.24 34.6 37.24C33.6133 37.24 32.7867 37 32.12 36.52C31.48 36.04 31.0133 35.1867 30.72 33.96H30.44C30.0133 34.6 29.48 35.1733 28.84 35.68C28.2 36.16 27.4533 36.5467 26.6 36.84C25.7467 37.1067 24.7867 37.24 23.72 37.24ZM24.44 34.32C25.9067 34.32 27.08 34.04 27.96 33.48C28.8667 32.92 29.52 32.0533 29.92 30.88C30.32 29.7067 30.52 28.2133 30.52 26.4V26.16C30.52 23.4933 30.0667 21.4533 29.16 20.04C28.28 18.6267 26.6933 17.92 24.4 17.92C22.4533 17.92 21 18.64 20.04 20.08C19.1067 21.4933 18.64 23.5467 18.64 26.24C18.64 28.9067 19.1333 30.92 20.12 32.28C21.1067 33.64 22.5467 34.32 24.44 34.32Z" fill="#454545"/>
</svg>
