<svg width="53" height="53" viewBox="0 0 53 53" fill="none" xmlns="http://www.w3.org/2000/svg">
<g filter="url(#filter0_d_530_2706)">
<rect width="52" height="52" fill="white"/>
<path d="M20.9295 43H18C18.4261 41.0053 18.6392 39.1995 18.6392 37.5826V18.3029C18.6392 16.297 18.8167 14.8028 19.1718 13.8238C19.5269 12.8448 20.2312 11.9826 21.2846 11.239C22.338 10.4954 23.6518 10.1183 25.2261 10.1059C27.0962 10.1059 28.6646 10.5963 29.931 11.5754C31.1975 12.5544 31.8366 13.9601 31.8485 15.7889C31.8485 17.9134 30.8365 19.6542 28.8125 21.0116C31.8308 22.4279 33.3399 24.6528 33.3399 27.686C33.3399 29.3383 32.9434 30.8138 32.1503 32.112C31.3573 33.4103 30.434 34.3427 29.3806 34.9093C28.3273 35.4758 27.0726 35.7532 25.6167 35.7414C23.9597 35.7414 22.6103 35.1217 21.5687 33.8824V37.1754C21.5687 39.4415 21.3556 41.3831 20.9295 43ZM21.5687 32.2891C22.4919 33.8116 23.7821 34.5729 25.4391 34.5729C27.037 34.5729 28.2088 33.9946 28.9545 32.8379C29.7002 31.6813 30.0731 30.265 30.0731 28.5889C30.0731 27.3142 29.8304 26.016 29.3451 24.694C28.8599 23.3721 28.2266 22.3571 27.4454 21.649C26.7352 21.826 26.0961 21.9145 25.5279 21.9145C24.3325 21.9145 23.7347 21.6017 23.7347 20.9762C23.7347 20.4097 24.2377 20.1264 25.2438 20.1264C25.8711 20.1264 26.6523 20.268 27.5874 20.5513C28.4278 19.135 28.848 17.5947 28.848 15.9306C28.848 14.4434 28.5226 13.3051 27.8715 12.5137C27.2204 11.7223 26.3624 11.3275 25.2971 11.3275C24.4568 11.3275 23.7406 11.563 23.1488 12.0357C22.5571 12.5084 22.1427 13.0678 21.906 13.7176C21.6693 14.3673 21.5568 15.4402 21.5687 16.9397V32.2891Z" fill="black"/>
</g>
<defs>
<filter id="filter0_d_530_2706" x="0" y="0" width="53" height="53" filterUnits="userSpaceOnUse" color-interpolation-filters="sRGB">
<feFlood flood-opacity="0" result="BackgroundImageFix"/>
<feColorMatrix in="SourceAlpha" type="matrix" values="0 0 0 0 0 0 0 0 0 0 0 0 0 0 0 0 0 0 127 0" result="hardAlpha"/>
<feOffset dx="1" dy="1"/>
<feColorMatrix type="matrix" values="0 0 0 0 0 0 0 0 0 0 0 0 0 0 0 0 0 0 0.25 0"/>
<feBlend mode="normal" in2="BackgroundImageFix" result="effect1_dropShadow_530_2706"/>
<feBlend mode="normal" in="SourceGraphic" in2="effect1_dropShadow_530_2706" result="shape"/>
</filter>
</defs>
</svg>
