<svg width="52" height="52" viewBox="0 0 52 52" fill="none" xmlns="http://www.w3.org/2000/svg">
<path d="M18 44V16.4537C18 14.4 18.3582 12.7642 19.0746 11.5463C19.8149 10.3045 20.806 9.40895 22.0478 8.8597C23.2896 8.28657 24.6746 8 26.203 8C27.8269 8 29.2 8.26269 30.3224 8.78806C31.4687 9.31343 32.3284 10.0896 32.9015 11.1164C33.4985 12.1194 33.797 13.3612 33.797 14.8418C33.797 15.9881 33.5582 16.9791 33.0806 17.8149C32.6269 18.6269 32.0179 19.2955 31.2537 19.8209C30.4896 20.3224 29.6418 20.6687 28.7104 20.8597V21.003C29.9284 21.1702 31.003 21.5403 31.9343 22.1134C32.8657 22.6866 33.594 23.4746 34.1194 24.4776C34.6687 25.4567 34.9433 26.6746 34.9433 28.1313C34.9433 29.7552 34.5731 31.1403 33.8328 32.2866C33.1164 33.4328 32.1254 34.3045 30.8597 34.9015C29.6179 35.4746 28.209 35.7612 26.6328 35.7612C25.7731 35.7612 25.0209 35.7134 24.3761 35.6179C23.7552 35.5224 23.194 35.3791 22.6925 35.1881C22.191 34.997 21.6776 34.7821 21.1522 34.5433V44H18ZM26.3463 33.1821C28.0179 33.1821 29.3433 32.7284 30.3224 31.8209C31.3015 30.8896 31.791 29.5881 31.791 27.9164C31.791 26.6507 31.5403 25.6119 31.0388 24.8C30.5612 23.9642 29.9164 23.3433 29.1045 22.9373C28.3164 22.5075 27.4687 22.2925 26.5612 22.2925H23.5881V19.8567H26.203C27.1104 19.8567 27.8866 19.6537 28.5313 19.2478C29.2 18.8418 29.7015 18.2687 30.0358 17.5284C30.394 16.7881 30.5731 15.9403 30.5731 14.9851C30.5731 13.5045 30.1313 12.406 29.2478 11.6896C28.3881 10.9731 27.3493 10.6149 26.1313 10.6149C25.2955 10.6149 24.4955 10.7821 23.7313 11.1164C22.9672 11.4269 22.3463 12.0119 21.8687 12.8716C21.391 13.7313 21.1522 14.9731 21.1522 16.597V31.7134C21.9881 32.1433 22.7881 32.5015 23.5522 32.7881C24.3164 33.0507 25.2478 33.1821 26.3463 33.1821Z" fill="#454545"/>
</svg>
