<svg width="52" height="52" viewBox="0 0 52 52" fill="none" xmlns="http://www.w3.org/2000/svg">
<path d="M35.24 41.16C34.2 41.16 33.3467 41 32.68 40.68C32.0133 40.3867 31.4267 39.9067 30.92 39.24C30.44 38.5733 29.9467 37.7067 29.44 36.64L19.72 16.24C19.2133 15.2 18.76 14.3733 18.36 13.76C17.9867 13.1467 17.4533 12.84 16.76 12.84C16.52 12.84 16.28 12.8667 16.04 12.92C15.8267 12.9467 15.6267 13 15.44 13.08V10.32C15.7333 10.24 16.0133 10.1733 16.28 10.12C16.5467 10.04 16.96 10 17.52 10C18.32 10 18.9733 10.12 19.48 10.36C20.0133 10.6 20.4933 11.0133 20.92 11.6C21.3733 12.16 21.84 12.96 22.32 14L32.24 34.6C32.64 35.4 32.9867 36.0667 33.28 36.6C33.6 37.16 33.96 37.5733 34.36 37.84C34.76 38.1333 35.28 38.28 35.92 38.28C36.2667 38.28 36.5867 38.2533 36.88 38.2C37.2 38.1733 37.48 38.1467 37.72 38.12V40.84C37.5333 40.8933 37.3067 40.9467 37.04 41C36.8 41.0533 36.5333 41.0933 36.24 41.12C35.9467 41.1467 35.6133 41.16 35.24 41.16ZM15 41.16L25.44 24.72L26.84 27.96L18.76 41.16H15ZM27.52 27.6L26.12 24.36L33.96 10.12H37.72L27.52 27.6Z" fill="#454545"/>
</svg>
