<svg width="52" height="52" viewBox="0 0 52 52" fill="none" xmlns="http://www.w3.org/2000/svg">
<path d="M25.84 41C23.9467 41 22.2533 40.6133 20.76 39.84C19.2667 39.0667 18.0933 37.9733 17.24 36.56C16.4133 35.1467 16 33.4933 16 31.6C16 29.8933 16.28 28.4133 16.84 27.16C17.4267 25.88 18.2533 24.8 19.32 23.92C20.4133 23.0133 21.72 22.2667 23.24 21.68C22.6267 21.28 22.0267 20.84 21.44 20.36C20.8533 19.88 20.3733 19.2933 20 18.6C19.6267 17.88 19.44 17.0133 19.44 16C19.44 15.04 19.7067 14.1067 20.24 13.2C20.7733 12.2667 21.6133 11.5067 22.76 10.92C23.9067 10.3067 25.3867 10 27.2 10C28.5333 10 29.6933 10.1467 30.68 10.44C31.6667 10.7333 32.4933 11.08 33.16 11.48C33.8533 11.8533 34.36 12.1867 34.68 12.48L33.16 15.24C32.3333 14.6 31.4133 14.0533 30.4 13.6C29.4133 13.12 28.3333 12.88 27.16 12.88C26.04 12.88 25.16 13.04 24.52 13.36C23.9067 13.68 23.48 14.08 23.24 14.56C23 15.0133 22.88 15.4533 22.88 15.88C22.88 16.3333 22.9867 16.7867 23.2 17.24C23.4133 17.6933 23.84 18.1867 24.48 18.72C25.1467 19.2267 26.1333 19.8267 27.44 20.52C29.8133 21.7733 31.5733 23.0133 32.72 24.24C33.8667 25.44 34.6267 26.6267 35 27.8C35.3733 28.9467 35.56 30.08 35.56 31.2C35.56 33.4667 35.1067 35.32 34.2 36.76C33.2933 38.2 32.0933 39.2667 30.6 39.96C29.1333 40.6533 27.5467 41 25.84 41ZM25.92 38.12C27.2533 38.12 28.3733 37.8267 29.28 37.24C30.2133 36.6533 30.92 35.84 31.4 34.8C31.88 33.76 32.12 32.5867 32.12 31.28C32.12 29.9733 31.88 28.8133 31.4 27.8C30.92 26.7867 30.2267 25.8933 29.32 25.12C28.44 24.3467 27.4 23.68 26.2 23.12C25.1867 23.4667 24.2667 23.88 23.44 24.36C22.64 24.84 21.9467 25.4133 21.36 26.08C20.8 26.72 20.36 27.48 20.04 28.36C19.7467 29.2133 19.6 30.1867 19.6 31.28C19.6 32.64 19.8533 33.84 20.36 34.88C20.8933 35.8933 21.6267 36.6933 22.56 37.28C23.52 37.84 24.64 38.12 25.92 38.12Z" fill="#454545"/>
</svg>
