<svg width="52" height="52" viewBox="0 0 52 52" fill="none" xmlns="http://www.w3.org/2000/svg">
<path d="M30.8507 40.4525V19.3484C30.8507 17.8039 30.5128 16.6455 29.8371 15.8733C29.1614 15.0769 28.1116 14.6787 26.6878 14.6787C25.3364 14.6787 24.2504 14.9563 23.4299 15.5113C22.6335 16.0422 22.0543 16.8265 21.6923 17.8643C21.3544 18.902 21.1855 20.181 21.1855 21.7014V31.7647H18V12.362H20.5701L21.0407 15.0045H21.2217C21.6561 14.3288 22.175 13.7738 22.7783 13.3394C23.3816 12.8808 24.0573 12.543 24.8054 12.3258C25.5535 12.1086 26.3379 12 27.1584 12C28.6546 12 29.9095 12.2534 30.9231 12.7602C31.9367 13.2428 32.6968 14.0151 33.2036 15.0769C33.7345 16.1146 34 17.4661 34 19.1312V40.4525H30.8507Z" fill="#454545"/>
</svg>
