<svg width="53" height="53" viewBox="0 0 53 53" fill="none" xmlns="http://www.w3.org/2000/svg">
<g filter="url(#filter0_d_531_2720)">
<rect width="52" height="52" fill="none"/>
<path d="M29.6464 29.9812H30.2856C30.0607 32.6603 28.9244 34 26.8767 34C26.1547 34 25.5393 33.8053 25.0303 33.4158C24.5213 33.0263 24.1781 32.5778 24.0005 32.0703C23.823 31.5627 23.7342 30.6893 23.7342 29.4501V23.59C23.7342 21.7015 23.6632 20.4918 23.5211 19.9607C23.3791 19.4296 23.024 19.164 22.4559 19.164C22.1244 19.164 21.722 19.2526 21.2486 19.4296L21 18.7922L25.9002 16.8094H26.6814V29.5917C26.6814 30.6421 26.7821 31.3621 26.9833 31.7516C27.1844 32.1411 27.5514 32.3358 28.0841 32.3358C28.8889 32.3358 29.4098 31.551 29.6464 29.9812Z" fill="black"/>
</g>
<defs>
<filter id="filter0_d_531_2720" x="0" y="0" width="53" height="53" filterUnits="userSpaceOnUse" color-interpolation-filters="sRGB">
<feFlood flood-opacity="0" result="BackgroundImageFix"/>
<feColorMatrix in="SourceAlpha" type="matrix" values="0 0 0 0 0 0 0 0 0 0 0 0 0 0 0 0 0 0 127 0" result="hardAlpha"/>
<feOffset dx="1" dy="1"/>
<feColorMatrix type="matrix" values="0 0 0 0 0 0 0 0 0 0 0 0 0 0 0 0 0 0 0.25 0"/>
<feBlend mode="normal" in2="BackgroundImageFix" result="effect1_dropShadow_531_2720"/>
<feBlend mode="normal" in="SourceGraphic" in2="effect1_dropShadow_531_2720" result="shape"/>
</filter>
</defs>
</svg>
