<svg width="53" height="53" viewBox="0 0 53 53" fill="none" xmlns="http://www.w3.org/2000/svg">
<g filter="url(#filter0_d_531_2722)">
<rect width="52" height="52" fill="none"/>
<path d="M22.6814 17.3051V25.0418L27.2976 20.1732C29.1322 18.2611 30.8544 17.3051 32.4642 17.3051C33.0914 17.3051 33.5946 17.4526 33.9733 17.7477C34.352 18.0428 34.5468 18.4263 34.5592 18.8985C34.5592 19.3588 34.4118 19.7247 34.1153 19.9961C33.8194 20.2675 33.4703 20.4033 33.0678 20.4033C32.7246 20.4033 32.2689 20.2498 31.7007 19.943C31.1326 19.6362 30.6946 19.4827 30.3869 19.4827C29.7713 19.4827 29.0908 19.8841 28.3451 20.6866L25.2381 24.0326L31.0971 31.3621C32.1149 32.6368 33.4643 33.2977 35.1451 33.345V34H29.3926L22.6814 25.3073V34H19.7342V24.0858C19.7342 22.1383 19.6573 20.9167 19.5034 20.421C19.3495 19.9253 19.0004 19.6716 18.4559 19.6597C18.1244 19.6597 17.722 19.7483 17.2486 19.9253L17 19.288L21.9002 17.3051H22.6814Z" fill="black"/>
</g>
<defs>
<filter id="filter0_d_531_2722" x="0" y="0" width="53" height="53" filterUnits="userSpaceOnUse" color-interpolation-filters="sRGB">
<feFlood flood-opacity="0" result="BackgroundImageFix"/>
<feColorMatrix in="SourceAlpha" type="matrix" values="0 0 0 0 0 0 0 0 0 0 0 0 0 0 0 0 0 0 127 0" result="hardAlpha"/>
<feOffset dx="1" dy="1"/>
<feColorMatrix type="matrix" values="0 0 0 0 0 0 0 0 0 0 0 0 0 0 0 0 0 0 0.25 0"/>
<feBlend mode="normal" in2="BackgroundImageFix" result="effect1_dropShadow_531_2722"/>
<feBlend mode="normal" in="SourceGraphic" in2="effect1_dropShadow_531_2722" result="shape"/>
</filter>
</defs>
</svg>
