<svg width="53" height="53" viewBox="0 0 53 53" fill="none" xmlns="http://www.w3.org/2000/svg">
<g filter="url(#filter0_d_531_2724)">
<rect width="52" height="52" fill="none"/>
<path d="M33.7248 32.6534H34.3639C34.3639 34.5182 34.0621 35.8755 33.4584 36.7253C32.8548 37.5751 32.0913 38 31.1681 38C30.4224 38 29.7064 37.7226 29.0198 37.1679C28.3332 36.6132 27.7179 35.1084 27.1733 32.6534L25.6465 25.7842L20.3556 37.7521L17 37.7521L24.5989 21.429C24.1964 19.3164 23.7112 17.7531 23.1431 16.7369C22.5749 15.7225 21.8706 15.2144 21.0303 15.2144C20.3556 15.2144 19.7697 15.4693 19.2726 15.9757C18.7755 16.4838 18.4914 17.2804 18.4204 18.3657H17.7812C17.8167 16.6307 18.1659 15.2445 18.8287 14.2053C19.4915 13.1678 20.3201 12.642 21.3143 12.6296C21.9535 12.6296 22.5572 12.8899 23.1253 13.4086C23.6935 13.9291 24.1906 14.8249 24.6167 16.0996C25.0428 17.3743 25.6997 20.0069 26.5874 23.9961L27.848 29.6083C28.357 31.9333 28.8897 33.4854 29.4459 34.2644C30.0022 35.0434 30.6768 35.4388 31.4699 35.4506C32.7957 35.4506 33.5472 34.5182 33.7248 32.6533V32.6534Z" fill="black"/>
</g>
<defs>
<filter id="filter0_d_531_2724" x="0" y="0" width="53" height="53" filterUnits="userSpaceOnUse" color-interpolation-filters="sRGB">
<feFlood flood-opacity="0" result="BackgroundImageFix"/>
<feColorMatrix in="SourceAlpha" type="matrix" values="0 0 0 0 0 0 0 0 0 0 0 0 0 0 0 0 0 0 127 0" result="hardAlpha"/>
<feOffset dx="1" dy="1"/>
<feColorMatrix type="matrix" values="0 0 0 0 0 0 0 0 0 0 0 0 0 0 0 0 0 0 0.25 0"/>
<feBlend mode="normal" in2="BackgroundImageFix" result="effect1_dropShadow_531_2724"/>
<feBlend mode="normal" in="SourceGraphic" in2="effect1_dropShadow_531_2724" result="shape"/>
</filter>
</defs>
</svg>
