<svg width="53" height="53" viewBox="0 0 53 53" fill="none" xmlns="http://www.w3.org/2000/svg">
<g filter="url(#filter0_d_531_2726)">
<rect width="52" height="52" fill="white"/>
<path d="M27.8658 27.236C25.7233 29.5256 23.8591 30.6705 22.2731 30.6705C21.2552 30.6705 20.3082 30.281 19.4324 29.5021V30.4404C19.4324 31.5262 19.598 32.618 19.9295 33.7156C20.3082 34.9314 20.4976 35.7339 20.4976 36.1234C20.4976 36.6664 20.326 37.1148 19.9828 37.4689C19.6396 37.823 19.2135 38 18.7044 38C18.1837 38 17.7693 37.7934 17.4616 37.3804C17.1539 36.9673 17 36.4716 17 35.8932C17 35.4683 17.1539 34.7012 17.4616 33.5917C17.8167 32.3643 17.9943 31.1721 17.9943 30.0155V13.9579H20.9237V24.4564C20.9237 25.5187 21.0125 26.2976 21.1901 26.7934C21.3676 27.2891 21.6931 27.6904 22.1666 27.9972C22.6401 28.304 23.1727 28.4634 23.7645 28.4752C24.8178 28.4752 26.1849 27.7552 27.8658 26.3153V13.9579H30.813V26.2622C30.813 27.3009 30.9195 28.0149 31.1326 28.4044C31.3456 28.7939 31.7066 28.9946 32.2156 29.0064C33.0199 29.0064 33.5419 28.2215 33.778 26.6517H34.4172C34.1917 29.3309 33.0554 30.6705 31.0083 30.6705C30.1206 30.6705 29.3868 30.3755 28.8068 29.7853C28.2267 29.1952 27.9132 28.3455 27.8658 27.236Z" fill="black"/>
</g>
<defs>
<filter id="filter0_d_531_2726" x="0" y="0" width="53" height="53" filterUnits="userSpaceOnUse" color-interpolation-filters="sRGB">
<feFlood flood-opacity="0" result="BackgroundImageFix"/>
<feColorMatrix in="SourceAlpha" type="matrix" values="0 0 0 0 0 0 0 0 0 0 0 0 0 0 0 0 0 0 127 0" result="hardAlpha"/>
<feOffset dx="1" dy="1"/>
<feColorMatrix type="matrix" values="0 0 0 0 0 0 0 0 0 0 0 0 0 0 0 0 0 0 0.25 0"/>
<feBlend mode="normal" in2="BackgroundImageFix" result="effect1_dropShadow_531_2726"/>
<feBlend mode="normal" in="SourceGraphic" in2="effect1_dropShadow_531_2726" result="shape"/>
</filter>
</defs>
</svg>
