<svg width="53" height="53" viewBox="0 0 53 53" fill="none" xmlns="http://www.w3.org/2000/svg">
<g filter="url(#filter0_d_531_2728)">
<rect width="52" height="52" fill="white"/>
<path d="M26.1316 34L22.2078 22.3862C21.9474 21.619 21.6042 20.8636 21.1781 20.12C20.7519 19.3765 20.1661 19.0047 19.4204 19.0047C19.0653 19.0047 18.6747 19.0813 18.2486 19.2348L18 18.6152L22.4209 16.8094H23.2021L27.8715 30.4238L30.7655 24.5283C31.2981 23.4661 31.5644 22.634 31.5644 22.0321C31.5644 21.5482 31.4638 20.8695 31.2626 19.9961C31.1087 19.3588 31.0318 18.8808 31.0318 18.5621C31.0318 17.3936 31.6651 16.8094 32.9315 16.8094C34.0559 16.8094 34.6182 17.3405 34.6182 18.4027C34.6182 19.4531 33.837 21.4597 32.2746 24.4221L27.1968 34H26.1316Z" fill="black"/>
</g>
<defs>
<filter id="filter0_d_531_2728" x="0" y="0" width="53" height="53" filterUnits="userSpaceOnUse" color-interpolation-filters="sRGB">
<feFlood flood-opacity="0" result="BackgroundImageFix"/>
<feColorMatrix in="SourceAlpha" type="matrix" values="0 0 0 0 0 0 0 0 0 0 0 0 0 0 0 0 0 0 127 0" result="hardAlpha"/>
<feOffset dx="1" dy="1"/>
<feColorMatrix type="matrix" values="0 0 0 0 0 0 0 0 0 0 0 0 0 0 0 0 0 0 0.25 0"/>
<feBlend mode="normal" in2="BackgroundImageFix" result="effect1_dropShadow_531_2728"/>
<feBlend mode="normal" in="SourceGraphic" in2="effect1_dropShadow_531_2728" result="shape"/>
</filter>
</defs>
</svg>
