<svg width="53" height="53" viewBox="0 0 53 53" fill="none" xmlns="http://www.w3.org/2000/svg">
<g filter="url(#filter0_d_531_2743)">
<rect width="52" height="52" fill="white"/>
<path d="M25.6527 30.4946C24.623 32.8315 23.0487 34 20.93 34C19.4505 34 18.0951 33.3214 16.8642 31.964C15.6333 30.6067 15.0119 28.6415 15 26.0686C15 23.9677 15.3669 22.2564 16.1008 20.9344C16.8346 19.6125 17.8052 18.5917 19.0125 17.8716C20.2198 17.1516 21.8119 16.7975 23.7885 16.8094V17.4644C22.0367 17.4644 20.6756 18.1845 19.7049 19.6243C18.7343 21.0642 18.2491 23.1062 18.2491 25.7499C18.2491 28.4291 18.5628 30.2644 19.1901 31.2559C19.8173 32.2473 20.5691 32.743 21.4449 32.743C22.0011 32.743 22.5398 32.5719 23.0606 32.2296C23.5813 31.8873 23.9541 31.5273 24.1791 31.1497C24.404 30.772 24.7295 29.9812 25.1556 28.7773C24.4099 27.2194 24.0371 25.5729 24.0371 23.8379C24.0371 21.2058 24.5755 19.8899 25.6527 19.8899C26.7299 19.8899 27.2684 21.1056 27.2684 23.5369C27.2684 25.213 26.8778 26.9596 26.0966 28.7773C26.9488 31.4211 28.168 32.743 29.754 32.743C30.6417 32.743 31.4052 32.2827 32.0443 31.3621C32.6835 30.4415 33.0084 28.6888 33.0208 26.104C33.0208 23.956 32.8131 22.3153 32.3994 21.1823C31.9858 20.0492 31.3578 19.1582 30.5175 18.509C29.6771 17.8598 28.6651 17.5117 27.4814 17.4644V16.8094C29.4699 16.8094 31.062 17.1693 32.2574 17.8893C33.4523 18.6094 34.4181 19.6243 35.1514 20.9344C35.8846 22.2445 36.2522 23.9383 36.2522 26.0155C36.2522 28.6121 35.6609 30.589 34.4767 31.9463C33.2925 33.3036 31.9023 33.9881 30.3044 34C28.1265 34 26.576 32.8315 25.6527 30.4946Z" fill="black"/>
</g>
<defs>
<filter id="filter0_d_531_2743" x="0" y="0" width="53" height="53" filterUnits="userSpaceOnUse" color-interpolation-filters="sRGB">
<feFlood flood-opacity="0" result="BackgroundImageFix"/>
<feColorMatrix in="SourceAlpha" type="matrix" values="0 0 0 0 0 0 0 0 0 0 0 0 0 0 0 0 0 0 127 0" result="hardAlpha"/>
<feOffset dx="1" dy="1"/>
<feColorMatrix type="matrix" values="0 0 0 0 0 0 0 0 0 0 0 0 0 0 0 0 0 0 0.25 0"/>
<feBlend mode="normal" in2="BackgroundImageFix" result="effect1_dropShadow_531_2743"/>
<feBlend mode="normal" in="SourceGraphic" in2="effect1_dropShadow_531_2743" result="shape"/>
</filter>
</defs>
</svg>
