<svg width="52" height="52" viewBox="0 0 52 52" fill="none" xmlns="http://www.w3.org/2000/svg">
<path d="M35.84 26.08C35.84 27.8667 35.6 29.4533 35.12 30.84C34.6667 32.2 34 33.36 33.12 34.32C32.2667 35.28 31.2133 36.0133 29.96 36.52C28.7333 37 27.36 37.24 25.84 37.24C24.4267 37.24 23.12 37 21.92 36.52C20.72 36.0133 19.68 35.28 18.8 34.32C17.92 33.36 17.2267 32.2 16.72 30.84C16.24 29.4533 16 27.8667 16 26.08C16 23.7067 16.4 21.7067 17.2 20.08C18 18.4267 19.1467 17.1733 20.64 16.32C22.1333 15.44 23.9067 15 25.96 15C27.9067 15 29.6133 15.44 31.08 16.32C32.5733 17.1733 33.7333 18.4267 34.56 20.08C35.4133 21.7067 35.84 23.7067 35.84 26.08ZM19.64 26.08C19.64 27.76 19.8533 29.2267 20.28 30.48C20.7333 31.7067 21.4267 32.6533 22.36 33.32C23.2933 33.9867 24.48 34.32 25.92 34.32C27.36 34.32 28.5467 33.9867 29.48 33.32C30.4133 32.6533 31.0933 31.7067 31.52 30.48C31.9733 29.2267 32.2 27.76 32.2 26.08C32.2 24.3733 31.9733 22.92 31.52 21.72C31.0667 20.52 30.3733 19.6 29.44 18.96C28.5333 18.2933 27.3467 17.96 25.88 17.96C23.6933 17.96 22.1067 18.68 21.12 20.12C20.1333 21.56 19.64 23.5467 19.64 26.08Z" fill="#454545"/>
</svg>
