<svg width="53" height="53" viewBox="0 0 53 53" fill="none" xmlns="http://www.w3.org/2000/svg">
<g filter="url(#filter0_d_531_2749)">
<rect width="52" height="52" fill="white"/>
<path d="M24.1906 13.5508V14.1881C21.5748 14.8608 20.2668 17.3275 20.2668 21.5884C20.2668 26.2033 21.8944 28.9178 25.1493 29.7322V19.4462C25.1493 17.9472 25.244 16.8556 25.4334 16.1709C25.6228 15.4863 26.0371 14.8786 26.6762 14.3474C27.3154 13.8163 28.0966 13.5508 29.0198 13.5508C30.6177 13.5508 32.0972 14.3002 33.4584 15.7992C34.8202 17.2982 35.5055 19.2514 35.518 21.6592C35.518 23.9134 34.8202 25.9259 33.4229 27.6963C32.0262 29.4667 29.9075 30.4758 27.0668 30.7236V38H25.1493V30.7236C22.6873 30.5112 20.7166 29.5965 19.2371 27.9795C17.7576 26.3626 17.0119 24.2498 17 21.6415C17 19.3046 17.6747 17.3984 19.024 15.9231C20.3734 14.4478 22.0955 13.657 24.1906 13.5508ZM27.0668 29.7322C30.7953 29.1775 32.6595 26.7757 32.6595 22.5267C32.6595 20.5674 32.263 18.9269 31.4699 17.605C30.6768 16.283 29.7359 15.6163 28.647 15.6044C28.2564 15.6044 27.9309 15.7402 27.6705 16.0116C27.41 16.283 27.2444 16.6135 27.1733 17.003C27.1023 17.3925 27.0668 18.1361 27.0668 19.2337V29.7322Z" fill="black"/>
</g>
<defs>
<filter id="filter0_d_531_2749" x="0" y="0" width="53" height="53" filterUnits="userSpaceOnUse" color-interpolation-filters="sRGB">
<feFlood flood-opacity="0" result="BackgroundImageFix"/>
<feColorMatrix in="SourceAlpha" type="matrix" values="0 0 0 0 0 0 0 0 0 0 0 0 0 0 0 0 0 0 127 0" result="hardAlpha"/>
<feOffset dx="1" dy="1"/>
<feColorMatrix type="matrix" values="0 0 0 0 0 0 0 0 0 0 0 0 0 0 0 0 0 0 0.25 0"/>
<feBlend mode="normal" in2="BackgroundImageFix" result="effect1_dropShadow_531_2749"/>
<feBlend mode="normal" in="SourceGraphic" in2="effect1_dropShadow_531_2749" result="shape"/>
</filter>
</defs>
</svg>
