<svg width="52" height="52" viewBox="0 0 52 52" fill="none" xmlns="http://www.w3.org/2000/svg">
<path d="M35.36 36.84C33.8933 36.84 32.7867 36.4133 32.04 35.56C31.2933 34.7067 30.92 33.4267 30.92 31.72V17.72H21.84V36.44H18.36V17.72H14V15H38.6V17.72H34.4V31.48C34.4 32.4133 34.5733 33.0667 34.92 33.44C35.2667 33.7867 35.7067 33.96 36.24 33.96C36.6133 33.96 36.9467 33.92 37.24 33.84C37.56 33.76 37.8133 33.6667 38 33.56V36.32C37.7867 36.4267 37.44 36.5333 36.96 36.64C36.5067 36.7733 35.9733 36.84 35.36 36.84Z" fill="#454545"/>
</svg>
