<svg width="53" height="53" viewBox="0 0 53 53" fill="none" xmlns="http://www.w3.org/2000/svg">
<g filter="url(#filter0_d_531_2733)">
<rect width="52" height="52" fill="white"/>
<path d="M34.3994 18.2874V20.8722H30.2804L29.9253 26.2542C29.8543 27.1867 29.8188 27.9951 29.8188 28.6797C29.8188 30.3203 30.0082 31.3176 30.3869 31.6716C30.7656 32.0257 31.2333 32.2086 31.7895 32.2205C32.9258 32.2205 33.6005 31.5065 33.8135 30.0783H34.4527C34.0621 33.3594 32.7483 35 30.5112 35C29.4695 35 28.6351 34.6813 28.0078 34.044C27.3805 33.4066 27.0609 32.4625 27.0491 31.2113C27.0491 30.3851 27.1733 28.6384 27.4219 25.971L27.9013 20.8722H24.1373C23.8887 25.1684 23.5928 28.3079 23.2496 30.2907C22.9064 32.2736 22.5217 33.5541 22.0955 34.1325C21.6694 34.7108 21.0954 35 20.3734 35C19.8288 35 19.3732 34.8407 19.0063 34.522C18.6393 34.2033 18.45 33.7843 18.4381 33.265C18.4381 32.7693 18.7577 32.0907 19.3969 31.229C20.332 29.9779 21.0303 28.6797 21.4919 27.3342C21.9535 25.9887 22.3027 23.8346 22.5394 20.8722H21.3321C20.3615 20.8722 19.6218 21.0847 19.1128 21.5096C18.6038 21.9345 18.1126 22.5541 17.6392 23.3685H17C17.3432 22.1057 17.7871 21.067 18.3316 20.2526C18.8761 19.4382 19.4324 18.9071 20.0005 18.6592C20.5687 18.4114 21.5926 18.2874 23.072 18.2874H34.3994Z" fill="black"/>
</g>
<defs>
<filter id="filter0_d_531_2733" x="0" y="0" width="53" height="53" filterUnits="userSpaceOnUse" color-interpolation-filters="sRGB">
<feFlood flood-opacity="0" result="BackgroundImageFix"/>
<feColorMatrix in="SourceAlpha" type="matrix" values="0 0 0 0 0 0 0 0 0 0 0 0 0 0 0 0 0 0 127 0" result="hardAlpha"/>
<feOffset dx="1" dy="1"/>
<feColorMatrix type="matrix" values="0 0 0 0 0 0 0 0 0 0 0 0 0 0 0 0 0 0 0.25 0"/>
<feBlend mode="normal" in2="BackgroundImageFix" result="effect1_dropShadow_531_2733"/>
<feBlend mode="normal" in="SourceGraphic" in2="effect1_dropShadow_531_2733" result="shape"/>
</filter>
</defs>
</svg>
