<svg width="52" height="52" viewBox="0 0 52 52" fill="none" xmlns="http://www.w3.org/2000/svg">
<path d="M16 41.44V20.84C16 18.4133 16.3867 16.4 17.16 14.8C17.9333 13.2 19 12 20.36 11.2C21.7467 10.4 23.3333 10 25.12 10C27.2 10 28.9733 10.4533 30.44 11.36C31.9333 12.24 33.0667 13.52 33.84 15.2C34.6133 16.88 35 18.92 35 21.32C35 23.5867 34.5867 25.5467 33.76 27.2C32.9333 28.8267 31.7867 30.08 30.32 30.96C28.88 31.8133 27.2267 32.24 25.36 32.24C24.2933 32.24 23.2533 32.0933 22.24 31.8C21.2267 31.48 20.3333 31.0267 19.56 30.44H19.36C19.4133 30.8667 19.4533 31.56 19.48 32.52C19.5067 33.48 19.52 34.56 19.52 35.76V41.44H16ZM25.32 29.32C26.6 29.32 27.6933 29.0133 28.6 28.4C29.5067 27.7867 30.1867 26.8933 30.64 25.72C31.12 24.52 31.36 23.0533 31.36 21.32C31.36 18.4667 30.8133 16.36 29.72 15C28.6533 13.64 27.0933 12.96 25.04 12.96C23.2533 12.96 21.8933 13.6267 20.96 14.96C20.0267 16.2667 19.56 18.24 19.56 20.88V27.36C20.3333 28.0267 21.2133 28.52 22.2 28.84C23.2133 29.16 24.2533 29.32 25.32 29.32Z" fill="#454545"/>
</svg>
