<svg width="53" height="53" viewBox="0 0 53 53" fill="none" xmlns="http://www.w3.org/2000/svg">
<g filter="url(#filter0_d_531_2739)">
<rect width="52" height="52" fill="none"/>
<path d="M25.6302 16.9066V19.4913H18.706C20.221 20.353 21.4579 21.4388 22.4167 22.7489C23.3754 24.059 23.8548 25.4576 23.8548 26.9447C23.8548 28.8686 23.0972 30.462 21.5822 31.7248C20.0672 32.9877 18.339 33.6191 16.3979 33.6191C14.1134 33.6191 12.1427 32.728 10.4856 30.9458C8.8286 29.1636 8 27.0805 8 24.6963C8 23.0203 8.43202 21.5392 9.29608 20.2526C10.1602 18.9661 11.1722 18.0869 12.3321 17.6147C13.492 17.1425 15.0544 16.9066 17.0193 16.9066H25.6302ZM17.5164 19.4913H16.895C15.1196 19.4913 13.7051 19.9281 12.6517 20.8014C11.5983 21.6748 11.0657 23.0557 11.0538 24.9442C11.0538 26.9389 11.61 28.6974 12.7227 30.22C13.8354 31.7425 15.1373 32.5096 16.6287 32.5215C17.8241 32.5215 18.8125 31.9491 19.5937 30.8042C20.3749 29.6593 20.7655 28.2667 20.7655 26.6261C20.7655 24.0413 19.6825 21.6631 17.5164 19.4913Z" fill="black"/>
<path d="M30.9268 24.3568C30.9268 21.4533 31.8086 19.0043 33.5722 17.0096C35.3357 15.0149 37.4368 14.0118 39.875 14C41.0232 14 41.8932 14.1947 42.485 14.5842C43.0767 14.9737 43.3727 15.4635 43.3727 16.0536C43.3727 16.4077 43.2425 16.7028 42.9821 16.9388C42.7216 17.1748 42.4198 17.2929 42.0766 17.2929C41.6386 17.2929 41.0055 17.1394 40.1769 16.8326C39.2062 16.4785 38.4014 16.3015 37.7622 16.3015C36.0697 16.3015 34.7381 17.0096 33.7675 18.426C32.7968 19.8423 32.3116 21.5419 32.3116 23.5247C32.3116 24.9646 32.6786 26.0564 33.4124 26.8C34.1462 27.5435 35.4187 27.9153 37.2296 27.9153C37.7386 27.9153 38.2771 27.9035 38.8453 27.8799C39.3305 27.868 39.6442 27.8622 39.7863 27.8622C41.112 27.8622 42.0707 28.2813 42.6625 29.1192C43.2543 29.9572 43.5561 31.0431 43.568 32.3767C43.568 34.2061 43.0767 35.6874 42.0944 36.8204C41.112 37.9535 39.8276 38.52 38.2416 38.52C36.6673 38.52 35.8803 37.9947 35.8803 36.9444C35.8803 36.1772 36.259 35.7936 37.0166 35.7936C37.277 35.7936 37.8569 35.9175 38.7565 36.1654C39.159 36.2835 39.4903 36.3424 39.7508 36.3424C40.3189 36.3424 40.8812 36.0887 41.4374 35.5812C41.9937 35.0736 42.2778 34.3123 42.2897 33.2973C42.2897 31.8456 41.6386 31.1197 40.3367 31.1197C40.1 31.1197 39.8159 31.1315 39.4844 31.1551C38.4902 31.2378 37.7622 31.2791 37.3006 31.2791C35.4187 31.2791 33.8859 30.6653 32.7022 29.4379C31.5185 28.2104 30.9268 26.5167 30.9268 24.3568Z" fill="black"/>
</g>
<defs>
<filter id="filter0_d_531_2739" x="0" y="0" width="53" height="53" filterUnits="userSpaceOnUse" color-interpolation-filters="sRGB">
<feFlood flood-opacity="0" result="BackgroundImageFix"/>
<feColorMatrix in="SourceAlpha" type="matrix" values="0 0 0 0 0 0 0 0 0 0 0 0 0 0 0 0 0 0 127 0" result="hardAlpha"/>
<feOffset dx="1" dy="1"/>
<feColorMatrix type="matrix" values="0 0 0 0 0 0 0 0 0 0 0 0 0 0 0 0 0 0 0.25 0"/>
<feBlend mode="normal" in2="BackgroundImageFix" result="effect1_dropShadow_531_2739"/>
<feBlend mode="normal" in="SourceGraphic" in2="effect1_dropShadow_531_2739" result="shape"/>
</filter>
</defs>
</svg>
