<svg width="52" height="52" viewBox="0 0 52 52" fill="none" xmlns="http://www.w3.org/2000/svg">
<path d="M29.64 36.88C28.4133 36.88 27.28 36.7067 26.24 36.36C25.2 35.9867 24.36 35.32 23.72 34.36C23.08 33.4 22.76 32.0267 22.76 30.24V17.72H17V15H34.68V17.72H26.32V29.88C26.32 30.8933 26.48 31.7067 26.8 32.32C27.12 32.9333 27.5733 33.3733 28.16 33.64C28.7467 33.9067 29.4133 34.04 30.16 34.04C30.7467 34.04 31.3467 34 31.96 33.92C32.6 33.8133 33.1333 33.7067 33.56 33.6V36.24C33.1867 36.4 32.6267 36.5467 31.88 36.68C31.16 36.8133 30.4133 36.88 29.64 36.88Z" fill="#454545"/>
</svg>
