<svg width="52" height="52" viewBox="0 0 52 52" fill="none" xmlns="http://www.w3.org/2000/svg">
<path d="M25.64 41C23.4533 41 21.64 40.3867 20.2 39.16C18.7867 37.9067 17.7333 36.1333 17.04 33.84C16.3467 31.52 16 28.7467 16 25.52C16 22.2667 16.32 19.48 16.96 17.16C17.6 14.84 18.6267 13.0667 20.04 11.84C21.48 10.6133 23.3467 10 25.64 10C27.8533 10 29.68 10.6133 31.12 11.84C32.56 13.04 33.6267 14.8 34.32 17.12C35.04 19.44 35.4 22.24 35.4 25.52C35.4 28.7467 35.0667 31.52 34.4 33.84C33.76 36.1333 32.72 37.9067 31.28 39.16C29.8667 40.3867 27.9867 41 25.64 41ZM25.64 38.08C27.0267 38.08 28.16 37.68 29.04 36.88C29.9467 36.08 30.6267 34.8267 31.08 33.12C31.5333 31.4133 31.7867 29.1867 31.84 26.44H19.56C19.6133 29.16 19.84 31.3733 20.24 33.08C20.6667 34.7867 21.32 36.0533 22.2 36.88C23.08 37.68 24.2267 38.08 25.64 38.08ZM19.56 23.72H31.8C31.72 21.2933 31.4533 19.2933 31 17.72C30.5467 16.12 29.88 14.9333 29 14.16C28.12 13.36 27 12.96 25.64 12.96C24.28 12.96 23.16 13.36 22.28 14.16C21.4267 14.9333 20.7867 16.12 20.36 17.72C19.9333 19.2933 19.6667 21.2933 19.56 23.72Z" fill="#454545"/>
</svg>
