<svg width="52" height="52" viewBox="0 0 52 52" fill="none" xmlns="http://www.w3.org/2000/svg">
<path d="M25.12 36.84C23.3333 36.84 21.8933 36.6133 20.8 36.16C19.7333 35.68 18.92 35.0133 18.36 34.16C17.8267 33.28 17.4667 32.2533 17.28 31.08C17.0933 29.88 17 28.56 17 27.12V15H20.52V27C20.52 28.52 20.64 29.8 20.88 30.84C21.12 31.8533 21.5867 32.6267 22.28 33.16C23 33.6933 24.04 33.96 25.4 33.96C26.68 33.96 27.7733 33.6267 28.68 32.96C29.5867 32.2933 30.2667 31.2667 30.72 29.88C31.2 28.4933 31.44 26.7333 31.44 24.6C31.44 22.7333 31.3333 21.0667 31.12 19.6C30.9067 18.1333 30.6 16.6 30.2 15H33.72C34.0133 16.04 34.2533 17.0667 34.44 18.08C34.6267 19.0667 34.76 20.0933 34.84 21.16C34.9467 22.2267 35 23.4267 35 24.76C35 28.8933 34.1333 31.9467 32.4 33.92C30.6667 35.8667 28.24 36.84 25.12 36.84Z" fill="#454545"/>
</svg>
