<svg width="52" height="52" viewBox="0 0 52 52" fill="none" xmlns="http://www.w3.org/2000/svg">
<path d="M27.948 42C28.325 41.2904 28.6466 40.5696 28.9127 39.8378C29.201 39.106 29.3451 38.4962 29.3451 38.0083C29.3451 37.587 29.2786 37.2322 29.1455 36.9439C29.0346 36.6778 28.7685 36.4338 28.3472 36.2121C27.948 36.0125 27.3271 35.824 26.4844 35.6466C24.5773 35.2252 23.0804 34.7152 21.9938 34.1164C20.9071 33.4955 20.131 32.7637 19.6653 31.921C19.2218 31.0561 19 30.0582 19 28.9272C19 27.6632 19.2661 26.4103 19.7983 25.1684C20.3527 23.9265 21.1178 22.6292 22.0936 21.2765C23.0693 19.9016 24.1781 18.4047 25.42 16.7859L29.0457 12.0956C28.957 12.0956 28.6466 12.1067 28.1143 12.1289C27.6043 12.1511 26.9723 12.1733 26.2183 12.1954C25.4865 12.2176 24.7436 12.2287 23.9896 12.2287H19.9979V10H32.3721V11.763L27.3825 18.3825C26.0963 20.1123 25.0541 21.5648 24.2557 22.7401C23.4796 23.9155 22.9141 24.9577 22.5593 25.8669C22.2044 26.754 22.027 27.641 22.027 28.5281C22.027 29.2821 22.1601 29.9362 22.4262 30.4906C22.6923 31.045 23.2134 31.5329 23.9896 31.9543C24.7879 32.3756 25.9854 32.7748 27.5821 33.1518C28.7353 33.4179 29.6556 33.7173 30.343 34.0499C31.0305 34.3825 31.5184 34.7928 31.8067 35.2807C32.1171 35.7685 32.2723 36.4006 32.2723 37.1767C32.2723 37.8198 32.2058 38.4186 32.0728 38.973C31.9397 39.5495 31.7623 40.0818 31.5405 40.5696C31.3188 41.0575 31.0859 41.5343 30.842 42H27.948Z" fill="#454545"/>
</svg>
