<svg width="53" height="53" viewBox="0 0 53 53" fill="none" xmlns="http://www.w3.org/2000/svg">
<g filter="url(#filter0_d_531_2713)">
<rect width="52" height="52" fill="none"/>
<path d="M24.0423 9.12365L24.3264 9.76099C23.1546 10.2443 22.5687 10.9348 22.5687 11.8324C22.5687 12.4573 22.7817 12.9353 23.2078 13.2664C23.6339 13.5975 24.1311 13.7621 24.6992 13.7621C24.7583 13.7621 24.8471 13.7568 24.9655 13.7444C25.8177 12.8468 26.8475 11.9917 28.0548 11.1773C29.2621 10.3629 30.2209 9.95574 30.931 9.95574C31.4756 9.95574 31.7477 10.1735 31.7477 10.6108C31.7477 11.3898 31.1915 12.1563 30.0788 12.9123C28.9661 13.6683 27.4215 14.2047 25.4449 14.5234C22.2491 17.7928 20.6512 21.6345 20.6512 26.0487C20.6512 27.8664 21.0121 29.2235 21.7342 30.1206C22.4563 31.0177 23.7346 31.472 25.5692 31.4838C25.7703 31.4838 26.2319 31.4603 26.954 31.413C27.7707 31.3776 28.327 31.3599 28.6229 31.3599C30.0078 31.3599 31.0021 31.8083 31.6057 32.7054C32.2094 33.6024 32.517 34.6882 32.5289 35.9629C32.5289 37.8277 32.0554 39.2971 31.1086 40.3712C30.1617 41.4453 28.8656 41.9881 27.2203 42C25.6698 42 24.8945 41.4807 24.8945 40.442C24.8945 39.6277 25.3087 39.2205 26.1373 39.2205C26.374 39.2205 26.8178 39.3209 27.4689 39.5214C28.0134 39.6985 28.4987 39.787 28.9248 39.787C29.6586 39.787 30.2386 39.5037 30.6647 38.9372C31.0908 38.3707 31.3097 37.7215 31.3216 36.9898C31.3216 36.1872 31.085 35.603 30.6115 35.2371C30.1379 34.8712 29.3567 34.6882 28.2679 34.6882C28.0193 34.6882 27.4156 34.7237 26.4569 34.7945C26.0189 34.8181 25.6579 34.8299 25.3739 34.8299C21.1247 34.8299 19 32.257 19 27.1109C19 22.3663 20.728 18.1704 24.1843 14.5234C23.2966 14.5004 22.5628 14.2702 21.9828 13.8329C21.4027 13.3956 21.1069 12.7654 21.095 11.9386C21.095 10.5807 22.0774 9.64238 24.0423 9.12365Z" fill="black"/>
</g>
<defs>
<filter id="filter0_d_531_2713" x="0" y="0" width="53" height="53" filterUnits="userSpaceOnUse" color-interpolation-filters="sRGB">
<feFlood flood-opacity="0" result="BackgroundImageFix"/>
<feColorMatrix in="SourceAlpha" type="matrix" values="0 0 0 0 0 0 0 0 0 0 0 0 0 0 0 0 0 0 127 0" result="hardAlpha"/>
<feOffset dx="1" dy="1"/>
<feColorMatrix type="matrix" values="0 0 0 0 0 0 0 0 0 0 0 0 0 0 0 0 0 0 0.25 0"/>
<feBlend mode="normal" in2="BackgroundImageFix" result="effect1_dropShadow_531_2713"/>
<feBlend mode="normal" in="SourceGraphic" in2="effect1_dropShadow_531_2713" result="shape"/>
</filter>
</defs>
</svg>
