<svg width="40" height="40" viewBox="0 0 40 40" fill="none" xmlns="http://www.w3.org/2000/svg">
<path d="M9 12.17C9 11.5431 9.217 11.0247 9.65099 10.6148C10.085 10.2049 10.6034 10 11.2061 10C11.7848 10 12.2791 10.2049 12.689 10.6148C13.0989 11.0247 13.3159 11.5431 13.34 12.17C13.3641 12.7969 13.1591 13.3152 12.7251 13.7251C12.2911 14.135 11.7728 14.34 11.17 14.34C10.5431 14.34 10.0247 14.135 9.61483 13.7251C9.20494 13.3152 9 12.7969 9 12.17ZM27.0832 12.17C27.0832 11.5431 27.3002 11.0247 27.7342 10.6148C28.1682 10.2049 28.6866 10 29.2893 10C29.868 10 30.3623 10.2049 30.7722 10.6148C31.182 11.0247 31.399 11.5431 31.4231 12.17C31.4473 12.7969 31.2423 13.3152 30.8083 13.7251C30.3743 14.135 29.8559 14.34 29.2532 14.34C28.6263 14.34 28.1079 14.135 27.698 13.7251C27.2881 13.3152 27.0832 12.7969 27.0832 12.17ZM18.0778 27.83C18.0778 27.2031 18.2827 26.6847 18.6926 26.2749C19.1025 25.865 19.6209 25.66 20.2477 25.66C20.7782 25.66 21.2604 25.8529 21.6944 26.2387C22.1284 26.6245 22.3454 27.1549 22.3454 27.83C22.3454 28.5051 22.1404 29.0235 21.7306 29.3852C21.3207 29.7468 20.8143 29.9518 20.2116 30C19.5847 30 19.0784 29.7951 18.6926 29.3852C18.3068 28.9753 18.1019 28.4569 18.0778 27.83Z" fill="black"/>
</svg>
