<svg width="40" height="40" viewBox="0 0 40 40" fill="none" xmlns="http://www.w3.org/2000/svg">
<path d="M26.6187 11.2651C26.7409 11.2651 26.8478 11.311 26.9394 11.4026C27.0311 11.4943 27.0769 11.6088 27.0769 11.7463C27.0769 11.8838 27.0235 11.9907 26.9165 12.0671C26.9013 12.0824 24.8391 13.0676 20.7299 15.0229L14.635 17.91L20.3175 20.6137C24.7169 22.6912 26.9471 23.7681 27.0082 23.8445C27.054 23.9362 27.0769 24.0202 27.0769 24.0966C27.0769 24.3715 26.9394 24.5243 26.6645 24.5548H26.527L19.928 21.4386C15.4981 19.3459 13.2679 18.2842 13.2373 18.2537C13.1304 18.1773 13.0769 18.0475 13.0769 17.8642C13.0922 17.6961 13.1915 17.5663 13.3748 17.4746C13.497 17.4135 15.6814 16.3824 19.928 14.3813C24.1746 12.3803 26.3361 11.3568 26.4124 11.311C26.4735 11.2804 26.5423 11.2651 26.6187 11.2651ZM13.0998 28.5417C13.0998 28.389 13.2144 28.2362 13.4435 28.0835H26.7103C26.9547 28.1751 27.0769 28.3279 27.0769 28.5417C27.0769 28.725 26.9624 28.8778 26.7332 29H13.4206C13.2068 28.8931 13.0998 28.7403 13.0998 28.5417Z" fill="black" stroke="black"/>
</svg>
