<svg width="40" height="40" viewBox="0 0 40 40" fill="none" xmlns="http://www.w3.org/2000/svg">
<g clip-path="url(#clip0_539_3303)">
<path d="M6.54926 39.2549H6.52697C6.43782 39.2549 6.37095 39.0741 6.32638 38.7125V19.8847L6.33752 1.05693C6.41182 0.72118 6.4824 0.553305 6.54926 0.553305C6.64585 0.553305 6.72014 0.747006 6.77215 1.13441V38.7125C6.71271 39.0741 6.64585 39.2549 6.57155 39.2549H6.54926Z" fill="black" stroke="black" stroke-width="0.5" stroke-linejoin="round"/>
</g>
<path d="M8.70959 14.832C8.70959 14.0748 8.99191 13.3551 9.55655 12.6729C10.1212 11.9907 10.7564 11.6458 11.4622 11.6383C11.8411 11.6383 12.1754 11.822 12.4652 12.1893C12.5841 11.9644 12.755 11.852 12.9778 11.852C13.0744 11.852 13.1599 11.8819 13.2342 11.9419C13.3084 12.0019 13.3456 12.0769 13.3456 12.1668C13.3456 12.2643 13.2081 12.864 12.9333 13.9661C12.6584 15.0681 12.5172 15.6904 12.5098 15.8328C12.5098 16.0202 12.5358 16.1439 12.5878 16.2039C12.6398 16.2639 12.7178 16.2976 12.8218 16.3051C12.8887 16.2976 12.963 16.2639 13.0447 16.2039C13.2007 16.054 13.353 15.6941 13.5016 15.1244C13.5462 14.9744 13.5833 14.8957 13.6131 14.8882C13.6279 14.8807 13.6651 14.877 13.7245 14.877H13.7691C13.9102 14.877 13.9808 14.9107 13.9808 14.9782C13.9808 15.0232 13.9622 15.1244 13.9251 15.2818C13.8879 15.4392 13.8137 15.6417 13.7022 15.889C13.5908 16.1364 13.4719 16.3239 13.3456 16.4513C13.249 16.5488 13.1301 16.6275 12.989 16.6875C12.9295 16.7025 12.8404 16.71 12.7215 16.71C12.4689 16.71 12.2572 16.6537 12.0863 16.5413C11.9154 16.4288 11.804 16.3126 11.752 16.1927L11.6851 16.024C11.6777 16.0165 11.6628 16.0202 11.6405 16.0352C11.6257 16.0502 11.6108 16.0652 11.5959 16.0802C11.1576 16.5 10.7118 16.71 10.2586 16.71C9.85002 16.71 9.48968 16.56 9.17765 16.2601C8.86561 15.9603 8.70959 15.4842 8.70959 14.832ZM12.2535 12.909C12.2535 12.864 12.2349 12.7816 12.1977 12.6616C12.1606 12.5417 12.0752 12.4105 11.9414 12.268C11.8077 12.1256 11.6368 12.0506 11.4288 12.0431C11.1688 12.0431 10.9199 12.1593 10.6821 12.3917C10.4444 12.6241 10.2586 12.9278 10.1249 13.3026C9.90945 13.8949 9.75715 14.5096 9.66799 15.1469C9.66799 15.1693 9.66799 15.2106 9.66799 15.2706C9.66799 15.3305 9.66428 15.3755 9.65685 15.4055C9.65685 15.7429 9.72371 15.9753 9.85745 16.1027C9.99118 16.2302 10.1509 16.2976 10.3366 16.3051C10.619 16.3051 10.8976 16.1814 11.1725 15.934C11.4474 15.6866 11.6108 15.4955 11.6628 15.3605C11.6777 15.3305 11.778 14.9294 11.9637 14.1573C12.1494 13.3851 12.246 12.969 12.2535 12.909Z" fill="black"/>
<path d="M26.7019 9.32027C26.7019 9.2453 26.7168 9.15909 26.7465 9.06163C26.7762 8.96417 26.8208 8.91544 26.8802 8.91544C26.8876 8.91544 27.1551 8.8967 27.6826 8.85921C28.2101 8.82173 28.4813 8.79924 28.4961 8.79174C28.5853 8.79174 28.6299 8.82547 28.6299 8.89295C28.6299 8.96042 28.5036 9.49645 28.2509 10.501C28.1915 10.7559 28.1284 11.0183 28.0615 11.2882C27.9946 11.5581 27.9389 11.7605 27.8943 11.8955L27.8498 12.1091C27.8498 12.1316 27.872 12.1204 27.9166 12.0754C28.2807 11.7755 28.6559 11.6256 29.0422 11.6256C29.5028 11.6256 29.8743 11.798 30.1566 12.1429C30.4389 12.4877 30.5838 12.9225 30.5912 13.4473C30.5912 14.2795 30.2978 15.0329 29.7108 15.7076C29.1239 16.3824 28.4924 16.7197 27.8163 16.7197C27.4448 16.7197 27.1068 16.5773 26.8022 16.2924C26.4976 16.0075 26.3416 15.5465 26.3341 14.9092V14.808C26.3341 14.6506 26.3639 14.4332 26.4233 14.1558C26.4827 13.8784 26.6647 13.1399 26.9694 11.9404C27.3408 10.4636 27.5266 9.68012 27.5266 9.59016C27.5266 9.5002 27.3854 9.44772 27.1031 9.43273C27.0659 9.43273 27.0362 9.43273 27.0139 9.43273H26.9582C26.8839 9.43273 26.8356 9.43273 26.8133 9.43273C26.7911 9.43273 26.765 9.42148 26.7353 9.39899C26.7056 9.3765 26.6945 9.35026 26.7019 9.32027ZM29.6328 12.9413V12.8738C29.6328 12.319 29.4062 12.0417 28.953 12.0417C28.8267 12.0417 28.6967 12.0716 28.563 12.1316C28.4293 12.1916 28.3067 12.2703 28.1952 12.3678C28.0838 12.4652 27.9872 12.5552 27.9055 12.6377C27.8238 12.7201 27.7569 12.8026 27.7049 12.8851L27.638 12.975L27.404 13.9421C27.2405 14.5869 27.1588 15.0442 27.1588 15.3141C27.1588 15.6739 27.248 15.9438 27.4263 16.1237C27.5451 16.2437 27.6937 16.3036 27.872 16.3036C28.1172 16.3036 28.3661 16.1837 28.6187 15.9438C28.8044 15.7714 28.953 15.5615 29.0645 15.3141C29.1759 15.0667 29.2985 14.6731 29.4322 14.1333C29.566 13.5935 29.6328 13.1962 29.6328 12.9413Z" fill="black"/>
<path d="M9.25546 29.3675C9.25546 28.5504 9.57492 27.8157 10.2139 27.1634C10.8528 26.5112 11.5437 26.1851 12.2867 26.1851C12.7027 26.1851 13.0296 26.275 13.2674 26.455C13.5051 26.6349 13.6277 26.871 13.6351 27.1634C13.6351 27.3808 13.5646 27.5645 13.4234 27.7144C13.2822 27.8644 13.1039 27.9431 12.8885 27.9506C12.7473 27.9506 12.6359 27.9131 12.5542 27.8381C12.4724 27.7632 12.4316 27.6507 12.4316 27.5008C12.4316 27.3508 12.4724 27.2234 12.5542 27.1184C12.6359 27.0135 12.7176 26.9348 12.7993 26.8823C12.8811 26.8298 12.9331 26.8073 12.9553 26.8148H12.9665C12.9665 26.7998 12.9442 26.7773 12.8996 26.7473C12.8551 26.7174 12.777 26.6874 12.6656 26.6574C12.5542 26.6274 12.4279 26.6124 12.2867 26.6124C12.0638 26.6124 11.8521 26.6649 11.6515 26.7698C11.4955 26.8373 11.3357 26.9535 11.1723 27.1184C10.8454 27.4483 10.6076 27.9131 10.459 28.5129C10.3104 29.1126 10.2324 29.5474 10.225 29.8173C10.225 30.1622 10.3216 30.4208 10.5148 30.5933C10.6782 30.7732 10.8937 30.8631 11.1611 30.8631H11.2057C12.0378 30.8631 12.725 30.5445 13.2674 29.9073C13.3343 29.8323 13.3788 29.7948 13.4011 29.7948C13.4308 29.7948 13.4791 29.8286 13.546 29.896C13.6129 29.9635 13.65 30.016 13.6574 30.0535C13.6649 30.091 13.6314 30.1472 13.5571 30.2222C13.4828 30.2971 13.3751 30.4021 13.234 30.537C13.0928 30.672 12.9256 30.7844 12.7325 30.8744C12.5393 30.9644 12.3016 31.0581 12.0192 31.1555C11.7369 31.253 11.4397 31.2942 11.1277 31.2792C10.5705 31.2792 10.121 31.0993 9.77924 30.7394C9.43748 30.3796 9.26288 29.9223 9.25546 29.3675Z" fill="black"/>
<path d="M29.4602 23.4716C29.4677 23.4716 29.7351 23.4529 30.2626 23.4154C30.7901 23.3779 31.0613 23.3554 31.0761 23.3479C31.1653 23.3479 31.2099 23.3779 31.2099 23.4379C31.2099 23.4903 30.9387 24.6224 30.3963 26.834C29.854 29.0456 29.5754 30.1738 29.5605 30.2188C29.5457 30.2638 29.5419 30.32 29.5494 30.3875C29.5494 30.7024 29.6534 30.8598 29.8614 30.8598C29.9283 30.8523 30.0026 30.8186 30.0843 30.7586C30.2403 30.6087 30.3926 30.2488 30.5412 29.679C30.5858 29.5291 30.6229 29.4504 30.6527 29.4429C30.6675 29.4354 30.7047 29.4317 30.7641 29.4317H30.8087H30.8533C30.9647 29.4317 31.0204 29.4616 31.0204 29.5216C31.0204 29.5591 31.0093 29.6191 30.987 29.7015C30.8904 30.0764 30.779 30.38 30.6527 30.6124C30.5264 30.8448 30.4223 30.9948 30.3406 31.0622C30.2589 31.1297 30.1549 31.1897 30.0286 31.2422C29.9691 31.2572 29.88 31.2646 29.7611 31.2646C29.5085 31.2646 29.2968 31.2084 29.1259 31.096C28.955 30.9835 28.8436 30.8673 28.7916 30.7474L28.7247 30.5787C28.7173 30.5712 28.7024 30.5749 28.6801 30.5899C28.6653 30.6049 28.6504 30.6199 28.6355 30.6349C28.1972 31.0547 27.7514 31.2646 27.2982 31.2646C26.8896 31.2646 26.5293 31.1147 26.2172 30.8148C25.9052 30.515 25.7492 30.0389 25.7492 29.3867C25.7492 29.0268 25.8235 28.6595 25.9721 28.2846C26.1207 27.9098 26.299 27.5874 26.507 27.3175C26.8562 26.8902 27.2054 26.5941 27.5546 26.4291C27.9037 26.2642 28.2195 26.1817 28.5018 26.1817C28.9179 26.1817 29.2299 26.3392 29.4379 26.654C29.4751 26.699 29.4937 26.714 29.4937 26.699C29.5011 26.669 29.6014 26.2605 29.7946 25.4733C29.9877 24.6861 30.0917 24.27 30.1066 24.225C30.1066 24.1276 30.0806 24.0676 30.0286 24.0451C29.9766 24.0226 29.8317 24.0039 29.594 23.9889H29.3599C29.3153 23.9439 29.2931 23.9139 29.2931 23.8989C29.2931 23.8839 29.3005 23.8127 29.3153 23.6853C29.3525 23.5428 29.4008 23.4716 29.4602 23.4716ZM29.3042 27.4862C29.1333 26.8939 28.8547 26.5978 28.4684 26.5978C28.2084 26.5978 27.9595 26.714 27.7217 26.9464C27.484 27.1788 27.2982 27.4825 27.1645 27.8573C26.949 28.4496 26.7967 29.0643 26.7076 29.7015C26.7076 29.724 26.7076 29.7653 26.7076 29.8252C26.7076 29.8852 26.7039 29.9302 26.6964 29.9602C26.6964 30.2975 26.7633 30.53 26.897 30.6574C27.0308 30.7848 27.1905 30.8523 27.3762 30.8598C27.7774 30.8598 28.1898 30.5899 28.6133 30.0501L28.7024 29.9264L29.3042 27.4862Z" fill="black"/>
<g clip-path="url(#clip1_539_3303)">
<path d="M33.4511 39.2549H33.4289C33.3397 39.2549 33.2728 39.0741 33.2283 38.7125V19.8847L33.2394 1.05693C33.3137 0.72118 33.3843 0.553305 33.4511 0.553305C33.5477 0.553305 33.622 0.747006 33.674 1.13441V38.7125C33.6146 39.0741 33.5477 39.2549 33.4734 39.2549H33.4511Z" fill="black" stroke="black" stroke-width="0.5"/>
</g>
<defs>
<clipPath id="clip0_539_3303">
<rect width="3.0981" height="25.8048" fill="white" transform="matrix(1 0 0 -1 5 32.8047)"/>
</clipPath>
<clipPath id="clip1_539_3303">
<rect width="3.0981" height="25.8048" fill="white" transform="matrix(1 0 0 -1 31.9019 32.8047)"/>
</clipPath>
</defs>
</svg>
