<svg width="53" height="53" viewBox="0 0 53 53" fill="none" xmlns="http://www.w3.org/2000/svg">
<g filter="url(#filter0_d)">
<rect width="52" height="52" fill="white"/>
<path d="M36 20.9295C36 20.2998 35.7901 20.03 35.5802 20.03C35.4603 20.03 35.1904 20.1499 35.1604 20.8396C35.0405 22.9085 32.9415 24.1379 30.9925 24.1379C29.2534 24.1379 27.7541 23.2084 26.1949 22.1589C24.5757 21.0795 22.9565 20 21.0075 20C18.2189 20 16 22.1289 16 24.8876C16 25.5472 16.2399 25.7871 16.4198 25.7871C16.7196 25.7871 16.8396 25.2174 16.8396 25.0974C16.9895 22.5787 19.4483 21.6792 21.0075 21.6792C22.7466 21.6792 24.2459 22.6087 25.8051 23.6582C27.4243 24.7376 29.0435 25.8171 30.9925 25.8171C33.7811 25.8171 36 23.6882 36 20.9295ZM36 27.946C36 27.0765 35.6402 27.0165 35.5802 27.0165C35.4603 27.0165 35.1904 27.1664 35.1604 27.8261C35.0405 29.8951 32.9415 31.1244 30.9925 31.1244C29.2534 31.1244 27.7541 30.1949 26.1949 29.1454C24.5757 28.066 22.9565 26.9865 21.0075 26.9865C18.2189 26.9865 16 29.1154 16 31.8741C16 32.5337 16.2399 32.7736 16.4198 32.7736C16.7196 32.7736 16.8396 32.2039 16.8396 32.084C16.9895 29.5652 19.4483 28.6657 21.0075 28.6657C22.7466 28.6657 24.2459 29.5952 25.8051 30.6447C27.4243 31.7241 29.0435 32.8036 30.9925 32.8036C33.8411 32.8036 36 30.5847 36 27.946Z" fill="black"/>
</g>
<defs>
<filter id="filter0_d" x="0" y="0" width="53" height="53" filterUnits="userSpaceOnUse" color-interpolation-filters="sRGB">
<feFlood flood-opacity="0" result="BackgroundImageFix"/>
<feColorMatrix in="SourceAlpha" type="matrix" values="0 0 0 0 0 0 0 0 0 0 0 0 0 0 0 0 0 0 127 0" result="hardAlpha"/>
<feOffset dx="1" dy="1"/>
<feColorMatrix type="matrix" values="0 0 0 0 0 0 0 0 0 0 0 0 0 0 0 0 0 0 0.25 0"/>
<feBlend mode="normal" in2="BackgroundImageFix" result="effect1_dropShadow"/>
<feBlend mode="normal" in="SourceGraphic" in2="effect1_dropShadow" result="shape"/>
</filter>
</defs>
</svg>
