<svg width="53" height="53" viewBox="0 0 53 53" fill="none" xmlns="http://www.w3.org/2000/svg">
<g filter="url(#filter0_d)">
<rect width="52" height="52" fill="white"/>
<path d="M25.5169 13.6507C25.5169 13.6241 25.5302 13.5843 25.5568 13.5312C25.5833 13.4781 25.6099 13.4382 25.6364 13.4117C25.663 13.3851 25.7028 13.332 25.756 13.2523C25.8091 13.1726 25.8622 13.1328 25.9153 13.1328C25.9684 13.1328 26.0349 13.1062 26.1145 13.0531C26.1942 13 26.2872 12.9867 26.3934 13.0132C26.6856 13.0664 26.9246 13.2656 27.1106 13.6109V38.0338H39.0232C39.4216 38.2463 39.6208 38.5119 39.6208 38.8306C39.6208 39.1493 39.4216 39.415 39.0232 39.6274H13.6441C13.6175 39.6274 13.5644 39.6009 13.4847 39.5478C13.4051 39.4946 13.2988 39.4017 13.166 39.2689C13.0332 39.1361 12.9801 38.99 13.0066 38.8306C13.0332 38.6712 13.0863 38.5252 13.166 38.3924C13.2457 38.2595 13.3387 38.1666 13.4449 38.1135C13.5511 38.0603 13.6175 38.0338 13.6441 38.0338H25.5169V13.6507Z" fill="black"/>
</g>
<defs>
<filter id="filter0_d" x="0" y="0" width="53" height="53" filterUnits="userSpaceOnUse" color-interpolation-filters="sRGB">
<feFlood flood-opacity="0" result="BackgroundImageFix"/>
<feColorMatrix in="SourceAlpha" type="matrix" values="0 0 0 0 0 0 0 0 0 0 0 0 0 0 0 0 0 0 127 0" result="hardAlpha"/>
<feOffset dx="1" dy="1"/>
<feColorMatrix type="matrix" values="0 0 0 0 0 0 0 0 0 0 0 0 0 0 0 0 0 0 0.25 0"/>
<feBlend mode="normal" in2="BackgroundImageFix" result="effect1_dropShadow"/>
<feBlend mode="normal" in="SourceGraphic" in2="effect1_dropShadow" result="shape"/>
</filter>
</defs>
</svg>
