<svg width="52" height="52" viewBox="0 0 52 52" fill="none" xmlns="http://www.w3.org/2000/svg">
<g clip-path="url(#clip0_285_6081)">
<path d="M52 0H0V52H52V0Z" fill="#D0F0FD"/>
<path d="M22.8604 16.2216C22.8604 15.1931 23.1773 14.4066 23.8111 13.8621C24.4448 13.3176 25.154 13.0303 25.9387 13C26.9044 13 27.6891 13.3025 28.2927 13.9075C28.8963 14.5125 29.198 15.2839 29.198 16.2216C29.198 17.0686 28.9264 17.8098 28.3832 18.445C27.84 19.0803 27.0553 19.3979 26.0292 19.3979C25.0333 19.3979 24.2638 19.0803 23.7205 18.445C23.1773 17.8098 22.8906 17.0686 22.8604 16.2216ZM11 26.6126C11 26.6126 11 26.4159 11 26.0227C11 25.6294 11.2113 25.3269 11.6338 25.1152H40.4247C40.8774 25.3572 41.1037 25.6597 41.1037 26.0227C41.1037 26.3857 40.8774 26.6882 40.4247 26.9302H11.6338C11.2113 26.7184 11 26.4159 11 26.0227V26.6126ZM22.8604 35.8237C22.8604 34.7952 23.1773 34.0087 23.8111 33.4642C24.4448 32.9197 25.154 32.6323 25.9387 32.6021C26.9044 32.6021 27.6891 32.9046 28.2927 33.5096C28.8963 34.1146 29.198 34.886 29.198 35.8237C29.198 36.6707 28.9264 37.4119 28.3832 38.0471C27.84 38.6824 27.0553 39 26.0292 39C25.0333 39 24.2638 38.6824 23.7205 38.0471C23.1773 37.4119 22.8906 36.6707 22.8604 35.8237Z" fill="black"/>
</g>
<defs>
<clipPath id="clip0_285_6081">
<rect width="52" height="52" rx="4" fill="white"/>
</clipPath>
</defs>
</svg>
