<svg width="52" height="52" viewBox="0 0 52 52" fill="none" xmlns="http://www.w3.org/2000/svg">
<path d="M39.6374 24.7099C40.0013 24.7099 40.1997 24.743 40.2328 24.8092C40.299 24.8422 40.3321 25.0407 40.3321 25.4046V26.5954C40.3321 26.9593 40.299 27.1743 40.2328 27.2405C40.1997 27.2735 40.0013 27.2901 39.6374 27.2901H12.6947C12.3308 27.2901 12.1158 27.2735 12.0496 27.2405C12.0165 27.1743 12 26.9593 12 26.5954V25.4046C12 25.0407 12.0165 24.8422 12.0496 24.8092C12.1158 24.743 12.3308 24.7099 12.6947 24.7099H39.6374ZM28.9198 15.729C28.9198 16.4898 28.6552 17.1349 28.126 17.6641C27.5967 18.1603 26.9517 18.4084 26.1908 18.4084C25.43 18.4084 24.785 18.1603 24.2557 17.6641C23.7595 17.1349 23.5115 16.4898 23.5115 15.729C23.5115 14.9682 23.7595 14.3232 24.2557 13.7939C24.785 13.2646 25.43 13 26.1908 13C26.9517 13 27.5967 13.2646 28.126 13.7939C28.6552 14.3232 28.9198 14.9682 28.9198 15.729ZM28.9198 36.3206C28.9198 37.0814 28.6552 37.7265 28.126 38.2557C27.5967 38.7519 26.9517 39 26.1908 39C25.43 39 24.785 38.7519 24.2557 38.2557C23.7595 37.7265 23.5115 37.0814 23.5115 36.3206C23.5115 35.5598 23.7595 34.9148 24.2557 34.3855C24.785 33.8562 25.43 33.5916 26.1908 33.5916C26.9517 33.5916 27.5967 33.8562 28.126 34.3855C28.6552 34.9148 28.9198 35.5598 28.9198 36.3206Z" fill="#454545"/>
</svg>
