<svg width="52" height="52" viewBox="0 0 52 52" fill="none" xmlns="http://www.w3.org/2000/svg">
<rect width="52" height="52" rx="4" fill="#D0F0FD"/>
<g clip-path="url(#clip0_285_5884)">
<path d="M39.6136 12.4048C39.1006 11.8729 38.2683 11.8729 37.7553 12.4048L12.3938 38.672C11.8804 39.2036 11.8804 40.0649 12.3938 40.5965C12.6504 40.8624 12.9869 40.9954 13.3231 40.9954C13.6593 40.9954 13.9958 40.8624 14.2521 40.5965L39.6136 14.3293C40.127 13.7977 40.127 12.9364 39.6136 12.4048Z" fill="black"/>
<path d="M18.2423 12.0146C14.8004 12.0146 12 14.9153 12 18.4801C12 22.0448 14.8004 24.9453 18.2423 24.9453C21.6843 24.9453 24.4845 22.0446 24.4845 18.4798C24.4845 14.9151 21.6841 12.0146 18.2423 12.0146ZM18.2423 22.2229C16.2494 22.2229 14.6283 20.5436 14.6283 18.4798C14.6283 16.4161 16.2497 14.7368 18.2423 14.7368C20.2351 14.7368 21.8562 16.4161 21.8562 18.4798C21.8562 20.5436 20.2351 22.2229 18.2423 22.2229Z" fill="black"/>
<path d="M33.7579 28.0635C30.3161 28.0635 27.5156 30.9639 27.5156 34.5287C27.5156 38.0934 30.3161 40.9939 33.7579 40.9939C37.1997 40.9939 40.0001 38.0936 40.0001 34.5287C40.0001 30.9637 37.1997 28.0635 33.7579 28.0635ZM33.7579 38.2715C31.7651 38.2715 30.1439 36.5922 30.1439 34.5284C30.1439 32.4647 31.7653 30.7854 33.7579 30.7854C35.7505 30.7854 37.3718 32.4647 37.3718 34.5284C37.3718 36.5922 35.7507 38.2715 33.7579 38.2715Z" fill="black"/>
</g>
<defs>
<clipPath id="clip0_285_5884">
<rect width="28" height="29" fill="white" transform="translate(12 12)"/>
</clipPath>
</defs>
</svg>
