<svg width="53" height="53" viewBox="0 0 53 53" fill="none" xmlns="http://www.w3.org/2000/svg">
<g filter="url(#filter0_d)">
<rect width="52" height="52" fill="white"/>
<path d="M14 26.4685C14 26.4685 14 26.3123 14 26C14 25.6877 14.1682 25.4474 14.5045 25.2793H25.2793V19.9099C25.2793 16.3303 25.3033 14.4925 25.3514 14.3964C25.4715 14.1321 25.6757 14 25.964 14C26.3003 14 26.5045 14.1441 26.5766 14.4324C26.6486 14.7207 26.6967 15.4174 26.7207 16.5225V19.982V25.2793H37.4595C37.8198 25.4715 38 25.7117 38 26C38 26.3123 37.8198 26.5526 37.4595 26.7207H26.7207V36.5586H37.4595C37.8198 36.7508 38 36.991 38 37.2793C38 37.5676 37.8198 37.8078 37.4595 38H14.5045C14.1682 37.8318 14 37.5916 14 37.2793C14 36.967 14.1682 36.7267 14.5045 36.5586H25.2793V26.7207H14.5045C14.1682 26.5526 14 26.3123 14 26V26.4685Z" fill="black"/>
</g>
<defs>
<filter id="filter0_d" x="0" y="0" width="53" height="53" filterUnits="userSpaceOnUse" color-interpolation-filters="sRGB">
<feFlood flood-opacity="0" result="BackgroundImageFix"/>
<feColorMatrix in="SourceAlpha" type="matrix" values="0 0 0 0 0 0 0 0 0 0 0 0 0 0 0 0 0 0 127 0" result="hardAlpha"/>
<feOffset dx="1" dy="1"/>
<feColorMatrix type="matrix" values="0 0 0 0 0 0 0 0 0 0 0 0 0 0 0 0 0 0 0.25 0"/>
<feBlend mode="normal" in2="BackgroundImageFix" result="effect1_dropShadow"/>
<feBlend mode="normal" in="SourceGraphic" in2="effect1_dropShadow" result="shape"/>
</filter>
</defs>
</svg>
