<svg width="52" height="52" viewBox="0 0 52 52" fill="none" xmlns="http://www.w3.org/2000/svg">
<path d="M35.5323 14.2903C35.7258 14.0968 35.8548 14 35.9194 14C35.9839 14 36.1129 14.1129 36.3065 14.3387L37.6129 15.5484C37.8387 15.8065 37.9516 15.9677 37.9516 16.0323C37.9516 16.0968 37.8387 16.2419 37.6129 16.4677L28.0323 26.0968L37.2258 35.2903C37.4516 35.4839 37.5645 35.6129 37.5645 35.6774C37.5645 35.7419 37.4516 35.9032 37.2258 36.1613L36.0161 37.371C35.7903 37.5968 35.6452 37.7097 35.5806 37.7097C35.5161 37.7097 35.371 37.5968 35.1452 37.371L25.9032 28.129L16.371 37.6613C16.1452 37.8871 16 38 15.9355 38C15.871 38 15.7258 37.8871 15.5 37.6613L14.2903 36.4032C14.0968 36.2097 14 36.0806 14 36.0161C14 35.9516 14.1129 35.7903 14.3387 35.5323L23.8226 26C23.1452 25.3226 22.4032 24.5968 21.5968 23.8226C20.8226 23.0484 20.0323 22.2581 19.2258 21.4516C18.4516 20.6452 17.6613 19.8548 16.8548 19.0806C16.0806 18.2742 15.3387 17.5323 14.629 16.8548C14.5 16.6935 14.4194 16.5645 14.3871 16.4677C14.3548 16.3387 14.4355 16.1774 14.629 15.9839L15.8387 14.7742C16.0645 14.5484 16.2097 14.4355 16.2742 14.4355C16.3387 14.4355 16.4839 14.5484 16.7097 14.7742L25.8548 23.9194L35.5323 14.3387V14.2903Z" fill="#454545"/>
</svg>
