<svg width="52" height="52" viewBox="0 0 52 52" fill="none" xmlns="http://www.w3.org/2000/svg">
<g clip-path="url(#clip0_285_6089)">
<path d="M52 0H0V52H52V0Z" fill="#D0F0FD"/>
<path d="M38 36.8603C38 37.4912 37.6667 37.8066 37 37.8066C36.8413 37.8066 36.4921 37.5543 35.9524 37.0496C35.4127 36.5449 33.9206 35.078 31.4762 32.6491L26.5238 27.7282L21.5238 32.6964C18.1587 35.9771 16.4286 37.6489 16.3333 37.712C16.2063 37.7751 16.0952 37.8066 16 37.8066C15.746 37.8066 15.5238 37.712 15.3333 37.5227C15.1429 37.3335 15.0317 37.1127 15 36.8603C15 36.6395 15.2222 36.2925 15.6667 35.8193C16.1111 35.3462 17.6032 33.8478 20.1429 31.3243L25.0952 26.4033L20.1429 21.4824C17.5714 18.9273 16.0794 17.429 15.6667 16.9873C15.254 16.5457 15.0317 16.1987 15 15.9464C15 15.6625 15.0952 15.4417 15.2857 15.2839C15.4762 15.1262 15.7143 15.0474 16 15.0474C16.1587 15.0474 16.2698 15.0631 16.3333 15.0947C16.4286 15.1578 18.1587 16.8296 21.5238 20.1102L26.5238 25.0785L31.4762 20.1575C33.9206 17.7286 35.4127 16.2618 35.9524 15.7571C36.4921 15.2524 36.8413 15 37 15C37.6667 15 38 15.3155 38 15.9464C38 16.1672 37.8413 16.4511 37.5238 16.7981C37.2064 17.1451 35.6508 18.6907 32.8571 21.4351L27.9048 26.4033L32.8571 31.3716C35.5238 34.0213 37.0476 35.5512 37.4286 35.9613C37.8095 36.3714 38 36.671 38 36.8603Z" fill="black"/>
</g>
<defs>
<clipPath id="clip0_285_6089">
<rect width="52" height="52" rx="4" fill="white"/>
</clipPath>
</defs>
</svg>
