<svg width="53" height="53" viewBox="0 0 53 53" fill="none" xmlns="http://www.w3.org/2000/svg">
<g filter="url(#filter0_d)">
<rect width="52" height="52" fill="white"/>
<path d="M10.1584 25.4356H10.4917C11.1107 25.4356 11.4837 25.3245 11.6107 25.1023V24.9118C11.6107 24.769 11.6107 24.5864 11.6107 24.3642C11.6107 24.142 11.6107 23.8801 11.6107 23.5785C11.6107 23.277 11.6186 22.9357 11.6345 22.5548C11.6504 22.1739 11.6504 21.7771 11.6345 21.3644C11.6186 20.9517 11.6186 20.5152 11.6345 20.0549C11.6504 19.5946 11.6504 19.1423 11.6345 18.6979C11.6345 18.1106 11.6345 17.4916 11.6345 16.8408C11.6345 16.1901 11.6345 15.5949 11.6345 15.0552C11.6345 14.5155 11.6345 14.0394 11.6345 13.6267C11.6345 13.214 11.6266 12.8648 11.6107 12.5791C11.5948 12.2934 11.5948 12.1585 11.6107 12.1744C11.5631 11.8728 11.452 11.6744 11.2774 11.5792C11.1028 11.484 10.7457 11.4125 10.206 11.3649H9.77747V10.8173C9.77747 10.4523 9.79334 10.2698 9.82508 10.2698L10.0632 10.2459C10.2219 10.2301 10.452 10.2142 10.7536 10.1983C11.0552 10.1825 11.3488 10.1666 11.6345 10.1507C11.9043 10.1348 12.198 10.119 12.5154 10.1031C12.8329 10.0872 13.0709 10.0634 13.2297 10.0317C13.3884 9.99992 13.4757 9.99199 13.4915 10.0079H13.563V17.5074C13.563 22.5389 13.5709 25.0705 13.5868 25.1023C13.6503 25.2292 13.7455 25.3165 13.8725 25.3642C14.2058 25.4118 14.5947 25.4356 15.0391 25.4356H15.42V26.5308H15.2295L14.682 26.507C14.3169 26.4911 13.928 26.4831 13.5154 26.4831C13.1027 26.4831 12.8011 26.4752 12.6106 26.4593C12.4202 26.4435 12.1186 26.4435 11.7059 26.4593C11.2933 26.4752 10.8965 26.4911 10.5155 26.507L9.96793 26.5308H9.77747V25.4356H10.1584Z" fill="black"/>
<path d="M17.4197 12.0316C17.4197 11.5871 17.5626 11.238 17.8483 10.984C18.134 10.73 18.4832 10.6031 18.8959 10.6031C19.2609 10.6348 19.5784 10.7697 19.8482 11.0078C20.118 11.2459 20.2529 11.5871 20.2529 12.0316C20.2529 12.5077 20.118 12.8648 19.8482 13.1029C19.5784 13.341 19.245 13.4601 18.8482 13.4601C18.4514 13.4601 18.1181 13.341 17.8483 13.1029C17.5785 12.8648 17.4356 12.5077 17.4197 12.0316ZM21.6576 26.5308C21.4195 26.4831 20.5942 26.4593 19.1816 26.4593C19.007 26.4593 18.7133 26.4593 18.3007 26.4593C17.888 26.4593 17.4912 26.4752 17.1102 26.507L16.5865 26.5308H16.396V25.4356H16.7769C17.2213 25.4356 17.6102 25.4118 17.9435 25.3642C18.0864 25.3007 18.1737 25.2134 18.2054 25.1023C18.2372 24.9912 18.253 24.6578 18.253 24.1023V21.6501V19.555C18.253 18.7296 18.2372 18.2058 18.2054 17.9836C18.1737 17.7614 18.0626 17.6106 17.8721 17.5313C17.6499 17.4202 17.2769 17.3646 16.7531 17.3646H16.4912V16.817C16.4912 16.452 16.5071 16.2694 16.5388 16.2694L16.7769 16.2456C16.9356 16.2297 17.1579 16.2139 17.4436 16.198C17.7293 16.1821 18.015 16.1663 18.3007 16.1504C18.5705 16.1345 18.8562 16.1186 19.1577 16.1028C19.4593 16.0869 19.6895 16.0631 19.8482 16.0313C20.0069 15.9996 20.0942 15.9917 20.1101 16.0075H20.1815V25.0547C20.2609 25.2134 20.3561 25.3086 20.4672 25.3404C20.5783 25.3721 20.8561 25.4038 21.3005 25.4356H21.8481V26.5308H21.6576Z" fill="black"/>
<path d="M23.3717 25.4356H23.705C24.324 25.4356 24.697 25.3245 24.824 25.1023V24.9118C24.824 24.769 24.824 24.5864 24.824 24.3642C24.824 24.142 24.824 23.896 24.824 23.6262C24.824 23.3563 24.832 23.0468 24.8478 22.6976C24.8637 22.3485 24.8637 22.0151 24.8478 21.6977C24.8478 21.2057 24.8478 20.6819 24.8478 20.1264C24.8478 19.5708 24.8399 19.1026 24.824 18.7217V18.1741C24.7764 17.8725 24.6653 17.6741 24.4907 17.5789C24.3161 17.4836 23.959 17.4122 23.4193 17.3646H22.9908V16.817C22.9908 16.4519 23.0067 16.2694 23.0384 16.2694L23.2765 16.2456C23.4352 16.2297 23.6574 16.2139 23.9431 16.198C24.2288 16.1821 24.5224 16.1663 24.824 16.1504C25.0938 16.1345 25.3795 16.1186 25.6811 16.1028C25.9827 16.0869 26.2128 16.0631 26.3716 16.0313C26.5303 15.9996 26.6176 15.9917 26.6334 16.0075H26.7049V16.9599C26.7049 17.563 26.7128 17.8646 26.7287 17.8646C26.7445 17.8646 26.7842 17.8249 26.8477 17.7455C26.9112 17.6662 27.0064 17.5471 27.1334 17.3884C27.2604 17.2297 27.4112 17.0868 27.5858 16.9599C27.7604 16.8329 27.9905 16.6821 28.2762 16.5075C28.5619 16.3329 28.8635 16.2059 29.1809 16.1266C29.4984 16.0472 29.9031 16.0075 30.3951 16.0075C30.6332 16.0075 30.8554 16.0234 31.0618 16.0551C31.2681 16.0869 31.4506 16.1345 31.6094 16.198C31.7681 16.2615 31.9189 16.325 32.0617 16.3885C32.2046 16.4519 32.3236 16.5234 32.4188 16.6027C32.5141 16.6821 32.6014 16.7694 32.6807 16.8646C32.7601 16.9599 32.8315 17.0472 32.895 17.1265C32.9585 17.2059 33.014 17.2932 33.0617 17.3884C33.1093 17.4836 33.141 17.563 33.1569 17.6265C33.1728 17.69 33.1966 17.7535 33.2283 17.817L33.2759 17.936L33.3474 17.8408C33.395 17.7773 33.4426 17.7138 33.4902 17.6503C33.5378 17.5868 33.6092 17.4995 33.7045 17.3884C33.7997 17.2773 33.9029 17.1741 34.014 17.0789C34.1251 16.9837 34.2441 16.8805 34.3711 16.7694C34.4981 16.6583 34.6568 16.5631 34.8473 16.4837C35.0377 16.4043 35.2203 16.325 35.3949 16.2456C35.5695 16.1663 35.7758 16.1107 36.0139 16.079C36.252 16.0472 36.498 16.0234 36.7519 16.0075C38.7518 16.0075 39.8391 16.9043 40.0137 18.6979C40.0295 18.809 40.0375 19.9121 40.0375 22.0072V24.0547C40.0375 24.6578 40.0533 25.015 40.0851 25.1261C40.1168 25.2372 40.2041 25.3165 40.347 25.3642C40.6803 25.4118 41.0692 25.4356 41.5136 25.4356H41.8945V26.5308H41.704L41.1565 26.507C40.7755 26.4911 40.3708 26.4831 39.9422 26.4831C39.5137 26.4831 39.2121 26.4752 39.0375 26.4593C37.4027 26.4593 36.5138 26.4831 36.371 26.5308H36.1805V25.4356H36.5615C37.5297 25.4356 38.0138 25.3086 38.0138 25.0547C38.0296 25.0229 38.0376 23.9277 38.0376 21.7691C38.0217 19.6264 38.0058 18.4915 37.99 18.3645C37.8947 17.9201 37.736 17.5868 37.5138 17.3646C37.2916 17.1424 37.1011 17.0075 36.9424 16.9599C36.7837 16.9122 36.5773 16.8964 36.3234 16.9122C35.6091 16.9122 34.9822 17.1821 34.4425 17.7217C34.014 18.1503 33.7442 18.5868 33.6331 19.0312C33.522 19.4756 33.4585 20.1343 33.4426 21.0073V22.531V23.9595C33.4426 24.4356 33.4505 24.7531 33.4664 24.9118C33.4823 25.0705 33.5061 25.1737 33.5378 25.2213C33.5696 25.2689 33.641 25.3165 33.7521 25.3642C34.0854 25.4118 34.4743 25.4356 34.9187 25.4356H35.2996V26.5308H35.1092L34.5378 26.507C34.1727 26.4911 33.7759 26.4831 33.3474 26.4831C32.9188 26.4831 32.6172 26.4752 32.4426 26.4593C30.8078 26.4593 29.919 26.4831 29.7761 26.5308H29.5857V25.4356H29.9666C30.9348 25.4356 31.4189 25.3086 31.4189 25.0547C31.4348 25.0229 31.4427 23.9277 31.4427 21.7691C31.4268 19.6264 31.411 18.4915 31.3951 18.3645C31.2999 17.9201 31.1411 17.5868 30.9189 17.3646C30.6967 17.1424 30.5062 17.0075 30.3475 16.9599C30.1888 16.9122 29.9825 16.8964 29.7285 16.9122C29.0143 16.9122 28.3873 17.1821 27.8477 17.7217C27.4191 18.1503 27.1493 18.5868 27.0382 19.0312C26.9271 19.4756 26.8636 20.1343 26.8477 21.0073V22.531V23.9595C26.8477 24.4356 26.8557 24.7531 26.8715 24.9118C26.8874 25.0705 26.9112 25.1737 26.9429 25.2213C26.9747 25.2689 27.0461 25.3165 27.1572 25.3642C27.4905 25.4118 27.8794 25.4356 28.3238 25.4356H28.7048V26.5308H28.5143L27.9667 26.507C27.5858 26.4911 27.181 26.4831 26.7525 26.4831C26.3239 26.4831 26.0224 26.4752 25.8478 26.4593C24.2129 26.4593 23.3241 26.4831 23.1812 26.5308H22.9908V25.4356H23.3717Z" fill="black"/>
<path d="M8.28615 35.9503C8.3647 35.479 8.66769 34.9347 9.1951 34.3175C9.72252 33.7003 10.3734 33.3861 11.1477 33.3749C11.5404 33.3749 11.8995 33.4759 12.2249 33.6779C12.5504 33.8799 12.7916 34.1324 12.9487 34.4354C13.42 33.7284 13.9867 33.3749 14.6488 33.3749C15.064 33.3749 15.4231 33.4984 15.7261 33.7452C16.0291 33.9921 16.1862 34.3231 16.1974 34.7383C16.1974 35.0638 16.1188 35.3275 15.9617 35.5295C15.8046 35.7315 15.6531 35.8549 15.5073 35.8998C15.3614 35.9447 15.2323 35.9671 15.1201 35.9671C14.9069 35.9671 14.733 35.9054 14.5983 35.782C14.4636 35.6585 14.3963 35.4958 14.3963 35.2938C14.3963 34.7776 14.6769 34.4241 15.2379 34.2334C15.1145 34.0875 14.8901 34.0145 14.5646 34.0145C14.4188 34.0145 14.3122 34.0258 14.2448 34.0482C13.8184 34.2278 13.5042 34.5981 13.3022 35.1592C12.6289 37.6391 12.2923 39.0867 12.2923 39.5019C12.2923 39.8161 12.382 40.0406 12.5616 40.1752C12.7411 40.3099 12.9375 40.3772 13.1507 40.3772C13.5659 40.3772 13.9755 40.192 14.3795 39.8217C14.7835 39.4514 15.0584 38.9969 15.2043 38.4583C15.2379 38.3461 15.2716 38.2844 15.3053 38.2731C15.3389 38.2619 15.4287 38.2507 15.5746 38.2395H15.6419C15.8102 38.2395 15.8944 38.2844 15.8944 38.3741C15.8944 38.3854 15.8832 38.4471 15.8607 38.5593C15.6812 39.1989 15.3333 39.7656 14.8171 40.2594C14.3009 40.7531 13.7006 41 13.0161 41C12.2305 41 11.6358 40.6465 11.2318 39.9396C10.7717 40.6353 10.2443 40.9832 9.64958 40.9832H9.54858C8.99872 40.9832 8.60597 40.8373 8.37031 40.5455C8.13466 40.2538 8.01122 39.9452 8 39.6197C8 39.2607 8.10661 38.9689 8.31982 38.7445C8.53303 38.52 8.78551 38.4078 9.07727 38.4078C9.5598 38.4078 9.80107 38.6435 9.80107 39.1148C9.80107 39.3392 9.73374 39.5356 9.59908 39.7039C9.46442 39.8722 9.33537 39.9844 9.21193 40.0406C9.0885 40.0967 9.01556 40.1247 8.99311 40.1247L8.94261 40.1415C8.94261 40.1528 8.97628 40.1752 9.04361 40.2089C9.11094 40.2425 9.20071 40.2818 9.31293 40.3267C9.42514 40.3716 9.53175 40.3884 9.63274 40.3772C10.0367 40.3772 10.3846 40.1247 10.6764 39.6197C10.7773 39.4402 10.9064 39.0587 11.0635 38.4751C11.2206 37.8916 11.3777 37.2856 11.5348 36.6572C11.6919 36.0288 11.7817 35.6585 11.8041 35.5463C11.8602 35.2433 11.8883 35.0245 11.8883 34.8898C11.8883 34.5756 11.8041 34.3512 11.6358 34.2165C11.4675 34.0819 11.2767 34.0145 11.0635 34.0145C10.6146 34.0145 10.1938 34.1941 9.80107 34.5532C9.40831 34.9123 9.13338 35.3724 8.97628 35.9334C8.95384 36.0344 8.92578 36.0905 8.89212 36.1018C8.85845 36.113 8.76868 36.1242 8.6228 36.1354H8.38715C8.31982 36.0681 8.28615 36.0064 8.28615 35.9503Z" fill="black"/>
<path d="M17.9814 36.8256C17.9814 36.8256 17.9814 36.7526 17.9814 36.6067C17.9814 36.4609 18.06 36.3486 18.2171 36.2701H31.0939C29.7922 35.2938 28.9898 34.0426 28.6869 32.5165C28.6869 32.5052 28.6869 32.4884 28.6869 32.466C28.6869 32.4435 28.6812 32.4267 28.67 32.4155C28.67 32.2808 28.7654 32.2135 28.9562 32.2135H29.0067C29.1077 32.2135 29.175 32.2191 29.2087 32.2303C29.2423 32.2415 29.276 32.264 29.3097 32.2976C29.3433 32.3313 29.3602 32.3818 29.3602 32.4491C29.3602 32.5165 29.377 32.6062 29.4107 32.7185C29.4443 32.8307 29.4892 32.9709 29.5453 33.1393C29.7922 33.8911 30.2018 34.5644 30.7741 35.1592C31.3464 35.7539 32.0141 36.1747 32.7771 36.4216C32.8781 36.4553 32.9286 36.517 32.9286 36.6067C32.9286 36.6741 32.9006 36.7246 32.8445 36.7582C32.7884 36.7919 32.6537 36.848 32.4405 36.9266C32.2273 37.0051 32.0141 37.1117 31.8009 37.2464C31.3408 37.5381 30.9424 37.8748 30.6058 38.2563C30.2691 38.6379 30.0166 39.0138 29.8483 39.3841C29.68 39.7544 29.5621 40.0349 29.4948 40.2257C29.4275 40.4165 29.3826 40.5904 29.3602 40.7475C29.3377 40.8597 29.3097 40.9271 29.276 40.9495C29.2423 40.9719 29.1526 40.9888 29.0067 41C28.7822 41 28.67 40.9383 28.67 40.8148C28.67 40.7363 28.6981 40.596 28.7542 40.394C29.1133 38.9801 29.8932 37.8299 31.0939 36.9434H18.2171C18.06 36.8648 17.9814 36.7526 17.9814 36.6067V36.8256Z" fill="black"/>
<path d="M34.2248 35.9839C34.236 35.9166 34.2528 35.8268 34.2753 35.7146C34.2977 35.6024 34.3651 35.3892 34.4773 35.075C34.5895 34.7608 34.7017 34.4971 34.8139 34.2839C34.9261 34.0707 35.1113 33.8631 35.3694 33.6611C35.6275 33.4591 35.8856 33.3637 36.1437 33.3749C36.5477 33.3749 36.8843 33.4759 37.1536 33.6779C37.423 33.8799 37.5913 34.0707 37.6586 34.2502C37.7259 34.4297 37.7596 34.5476 37.7596 34.6037C37.7596 34.6261 37.7652 34.6373 37.7764 34.6373L37.9616 34.4522C38.6461 33.734 39.426 33.3749 40.3013 33.3749C40.9073 33.3749 41.3954 33.5264 41.7657 33.8294C42.136 34.1324 42.3268 34.5756 42.338 35.1592C42.3492 35.7427 42.136 36.6236 41.6984 37.8018C41.2607 38.9801 41.0475 39.6927 41.0588 39.9396C41.0588 40.2313 41.1541 40.3772 41.3449 40.3772C41.4122 40.3772 41.4627 40.3716 41.4964 40.3604C41.8218 40.3043 42.1136 40.091 42.3717 39.7207C42.6298 39.3504 42.8262 38.9016 42.9608 38.3741C42.9833 38.2844 43.0955 38.2395 43.2975 38.2395C43.5219 38.2395 43.6341 38.2844 43.6341 38.3741C43.6341 38.3854 43.6117 38.4695 43.5668 38.6266C43.477 38.9521 43.3536 39.2719 43.1965 39.5861C43.0394 39.9003 42.7813 40.2145 42.4222 40.5287C42.0631 40.8429 41.6759 40.9944 41.2607 40.9832C40.7333 40.9832 40.3518 40.8317 40.1161 40.5287C39.8805 40.2257 39.7627 39.9115 39.7627 39.5861C39.7627 39.3729 39.9646 38.6996 40.3686 37.5662C40.7726 36.4328 40.9802 35.58 40.9914 35.0077C40.9914 34.3456 40.7445 34.0145 40.2508 34.0145H40.1666C39.2016 34.0145 38.388 34.5812 37.7259 35.7146L37.6081 35.9166L37.0526 38.1722C36.6823 39.6422 36.4691 40.4333 36.413 40.5455C36.2671 40.8485 36.0259 41 35.6892 41C35.5433 41 35.4255 40.9663 35.3357 40.899C35.246 40.8317 35.1842 40.7643 35.1506 40.697C35.1169 40.6297 35.1057 40.5736 35.1169 40.5287C35.1169 40.3828 35.3301 39.4683 35.7565 37.785C36.183 36.1018 36.4074 35.1872 36.4298 35.0413C36.4411 34.9852 36.4467 34.8562 36.4467 34.6542C36.4467 34.2165 36.312 33.9977 36.0427 33.9977C35.6163 33.9977 35.2628 34.5588 34.9823 35.681C34.9149 35.9054 34.8813 36.0232 34.8813 36.0344C34.8588 36.1018 34.7522 36.1354 34.5614 36.1354H34.3258C34.2585 36.0681 34.2248 36.0176 34.2248 35.9839Z" fill="black"/>
</g>
<defs>
<filter id="filter0_d" x="0" y="0" width="53" height="53" filterUnits="userSpaceOnUse" color-interpolation-filters="sRGB">
<feFlood flood-opacity="0" result="BackgroundImageFix"/>
<feColorMatrix in="SourceAlpha" type="matrix" values="0 0 0 0 0 0 0 0 0 0 0 0 0 0 0 0 0 0 127 0" result="hardAlpha"/>
<feOffset dx="1" dy="1"/>
<feColorMatrix type="matrix" values="0 0 0 0 0 0 0 0 0 0 0 0 0 0 0 0 0 0 0.25 0"/>
<feBlend mode="normal" in2="BackgroundImageFix" result="effect1_dropShadow"/>
<feBlend mode="normal" in="SourceGraphic" in2="effect1_dropShadow" result="shape"/>
</filter>
</defs>
</svg>
