<svg width="53" height="53" viewBox="0 0 53 53" fill="none" xmlns="http://www.w3.org/2000/svg">
<g filter="url(#filter0_d)">
<rect width="52" height="52" fill="white"/>
<path d="M8.9889 16L6 16.2365V16.8601C7.46219 16.8601 7.63422 17.0106 7.63422 18.0643V29.3318C7.63422 30.2994 7.39768 30.2994 6 30.2994V30.923C6.60208 30.88 7.65572 30.88 8.30081 30.88C8.94589 30.88 10.021 30.88 10.6231 30.923V30.2994C9.24693 30.2994 8.9889 30.2994 8.9889 29.3318V16Z" fill="black"/>
<path d="M21.0087 26.3214C21.0087 23.5476 18.9014 21.3328 16.4071 21.3328C13.8268 21.3328 11.784 23.6121 11.784 26.3214C11.784 29.0738 13.9343 31.1381 16.3856 31.1381C18.9229 31.1381 21.0087 29.0308 21.0087 26.3214ZM16.4071 30.665C15.6115 30.665 14.6439 30.321 14.0203 29.2673C13.4397 28.2997 13.4182 27.031 13.4182 26.1279C13.4182 25.3108 13.4182 23.9991 14.0848 23.0315C14.6869 22.1069 15.633 21.7628 16.3856 21.7628C17.2242 21.7628 18.1273 22.1499 18.7079 22.9885C19.3745 23.9776 19.3745 25.3323 19.3745 26.1279C19.3745 26.8805 19.3745 28.2137 18.8154 29.2243C18.2133 30.2564 17.2242 30.665 16.4071 30.665Z" fill="black"/>
<path d="M24.2251 27.031C25.2357 27.6976 26.0958 27.6976 26.3324 27.6976C28.2676 27.6976 29.7083 26.2354 29.7083 24.5797C29.7083 23.9991 29.5363 23.182 28.8482 22.4939C29.6868 21.6338 30.6974 21.6338 30.805 21.6338C30.891 21.6338 30.9985 21.6338 31.0845 21.6768C30.8695 21.7628 30.762 21.9778 30.762 22.2144C30.762 22.5154 30.977 22.7734 31.321 22.7734C31.4931 22.7734 31.8801 22.6659 31.8801 22.1929C31.8801 21.8058 31.5791 21.2037 30.8265 21.2037C29.7083 21.2037 28.8697 21.8918 28.5687 22.2144C27.9236 21.7198 27.171 21.4403 26.3539 21.4403C24.4186 21.4403 22.9779 22.9025 22.9779 24.5582C22.9779 25.7838 23.7305 26.5794 23.9456 26.773C23.6875 27.0955 23.3005 27.7191 23.3005 28.5577C23.3005 29.8049 24.0531 30.3424 24.2251 30.45C23.236 30.7295 22.2468 31.5036 22.2468 32.6217C22.2468 34.1054 24.2681 35.3311 26.9129 35.3311C29.4718 35.3311 31.6006 34.1915 31.6006 32.5787C31.6006 32.0412 31.45 30.7725 30.1599 30.1059C29.0632 29.5468 27.9881 29.5468 26.1388 29.5468C24.8272 29.5468 24.6766 29.5468 24.2896 29.1383C24.0746 28.9233 23.881 28.5147 23.881 28.0631C23.881 27.6976 24.0101 27.332 24.2251 27.031ZM26.3539 27.246C24.4616 27.246 24.4616 25.0742 24.4616 24.5797C24.4616 24.1926 24.4616 23.311 24.8272 22.7304C25.2357 22.1069 25.8808 21.8918 26.3324 21.8918C28.2246 21.8918 28.2246 24.0636 28.2246 24.5582C28.2246 24.9452 28.2246 25.8268 27.8591 26.4074C27.4505 27.031 26.8054 27.246 26.3539 27.246ZM26.9344 34.8795C24.8702 34.8795 23.3005 33.8259 23.3005 32.6002C23.3005 32.4282 23.3435 31.5896 24.1606 31.0305C24.6336 30.7295 24.8272 30.7295 26.3324 30.7295C28.1171 30.7295 30.5469 30.7295 30.5469 32.6002C30.5469 33.8689 28.9127 34.8795 26.9344 34.8795Z" fill="black"/>
<path d="M36.5286 33.0756C36.7579 32.8606 37.36 32.3876 37.5894 32.1869C38.4781 31.3698 39.3239 30.5813 39.3239 29.2768C39.3239 27.5709 37.8904 26.4671 36.0985 26.4671C34.3783 26.4671 33.2458 27.7716 33.2458 29.0474C33.2458 29.7499 33.8049 29.8502 34.0056 29.8502C34.3066 29.8502 34.751 29.6352 34.751 29.0905C34.751 28.345 34.0342 28.345 33.8622 28.345C34.2779 27.2985 35.2384 26.9402 35.9408 26.9402C37.274 26.9402 37.9621 28.0726 37.9621 29.2768C37.9621 30.7677 36.9156 31.8572 35.2241 33.5917L33.4178 35.4553C33.2458 35.613 33.2458 35.6417 33.2458 36H38.9082L39.3239 33.434H38.8795C38.8365 33.7207 38.7218 34.4375 38.5498 34.7099C38.4638 34.8245 37.3743 34.8245 37.145 34.8245H34.5933L36.5286 33.0756Z" fill="black"/>
<rect x="33" y="21" width="12" height="20" fill="#C4C4C4"/>
</g>
<defs>
<filter id="filter0_d" x="0" y="0" width="53" height="53" filterUnits="userSpaceOnUse" color-interpolation-filters="sRGB">
<feFlood flood-opacity="0" result="BackgroundImageFix"/>
<feColorMatrix in="SourceAlpha" type="matrix" values="0 0 0 0 0 0 0 0 0 0 0 0 0 0 0 0 0 0 127 0" result="hardAlpha"/>
<feOffset dx="1" dy="1"/>
<feColorMatrix type="matrix" values="0 0 0 0 0 0 0 0 0 0 0 0 0 0 0 0 0 0 0.25 0"/>
<feBlend mode="normal" in2="BackgroundImageFix" result="effect1_dropShadow"/>
<feBlend mode="normal" in="SourceGraphic" in2="effect1_dropShadow" result="shape"/>
</filter>
</defs>
</svg>
