<svg width="53" height="53" viewBox="0 0 53 53" fill="none" xmlns="http://www.w3.org/2000/svg">
<g filter="url(#filter0_d)">
<rect width="52" height="52" fill="white"/>
<path d="M12.2338 36.0254C12.2338 36.417 12.6091 36.6454 13.3596 36.7107C13.6533 36.7107 13.8001 36.8004 13.8001 36.9799C13.8001 36.9962 13.7838 37.1022 13.7512 37.298C13.7022 37.5264 13.6533 37.6733 13.6043 37.7385C13.5554 37.8038 13.4493 37.8364 13.2862 37.8364C13.2535 37.8364 13.1557 37.8364 12.9925 37.8364C12.8293 37.8364 12.552 37.8283 12.1604 37.812C11.7688 37.7956 11.2468 37.7875 10.5941 37.7875C9.43575 37.7875 8.6934 37.8038 8.3671 37.8364H8.17131C8.0571 37.7222 8 37.6325 8 37.5672C8.03263 37.1267 8.13868 36.8412 8.31815 36.7107H8.66077C9.80285 36.6617 10.6349 36.2538 11.157 35.487C11.2549 35.3891 12.7315 32.901 15.5866 28.0227C18.4418 23.1445 19.8939 20.6727 19.9428 20.6074C20.057 20.4116 20.2528 20.3137 20.5302 20.3137H20.726H21.142C21.2399 20.4606 21.2889 20.5422 21.2889 20.5585L21.9741 28.4633C22.4309 33.7331 22.6757 36.3925 22.7083 36.4415C22.7899 36.6209 23.3201 36.7107 24.299 36.7107C24.7069 36.7107 24.9109 36.7922 24.9109 36.9554C24.9109 36.988 24.8864 37.1022 24.8374 37.298C24.7885 37.5427 24.7477 37.6896 24.7151 37.7385C24.6824 37.7875 24.5682 37.8201 24.3725 37.8364C24.3235 37.8364 24.2093 37.8364 24.0298 37.8364C23.8504 37.8364 23.5322 37.8283 23.0754 37.812C22.6186 37.7956 22.023 37.7875 21.2889 37.7875C19.7552 37.7875 18.7518 37.8038 18.2787 37.8364H17.985C17.8871 37.7385 17.8382 37.6651 17.8382 37.6162C17.8382 37.5672 17.8545 37.4204 17.8871 37.1757C17.9524 36.9636 18.0013 36.833 18.0339 36.7841L18.1318 36.7107H18.6213C19.5023 36.6617 20.0244 36.523 20.1876 36.2946L19.8939 32.6237H14.0693L13.2372 34.0431C12.5683 35.1689 12.2338 35.8296 12.2338 36.0254ZM19.7715 31.4734C19.7715 31.294 19.6736 30.0214 19.4778 27.6556C19.2821 25.2899 19.1679 24.0989 19.1352 24.0826L18.4745 25.1349C18.2134 25.5754 17.6995 26.4483 16.9327 27.7535L14.7301 31.4734L17.2508 31.4979C18.9313 31.4979 19.7715 31.4898 19.7715 31.4734Z" fill="black"/>
<path d="M31.1518 22.2471C30.7113 22.2471 30.4503 22.2389 30.3687 22.2226C30.2871 22.2063 30.2463 22.1166 30.2463 21.9534C30.2463 21.5129 30.336 21.2437 30.5155 21.1458C30.5318 21.1295 31.5923 21.1213 33.697 21.1213C37.9227 21.1213 40.1497 21.1377 40.3781 21.1703C41.406 21.3334 42.2626 21.7005 42.9478 22.2716C43.6331 22.8426 43.9838 23.5931 44.0002 24.5231C44.0002 25.5673 43.527 26.5054 42.5807 27.3375C41.6344 28.1696 40.5495 28.7325 39.3258 29.0261L39.0811 29.0996C40.1253 29.2464 40.9818 29.6216 41.6507 30.2253C42.3197 30.829 42.6623 31.5795 42.6786 32.4768C42.6786 33.6679 42.0913 34.8181 40.9166 35.9275C39.7418 37.037 38.2979 37.6651 36.5848 37.812C36.4706 37.8283 34.7494 37.8364 31.421 37.8364C28.1579 37.8364 26.5019 37.8201 26.453 37.7875C26.3877 37.7385 26.3551 37.6733 26.3551 37.5917C26.3551 37.4775 26.3714 37.3633 26.404 37.2491C26.4856 36.9391 26.5672 36.7678 26.6488 36.7351C26.714 36.7188 26.8364 36.7107 27.0159 36.7107H27.1627C27.6032 36.7107 28.0927 36.6862 28.6311 36.6372C28.8595 36.5883 29.0145 36.4904 29.0961 36.3436C29.145 36.2783 29.7324 34.0105 30.8581 29.5401C31.9839 25.0697 32.5468 22.7121 32.5468 22.4674C32.5468 22.3532 32.0818 22.2797 31.1518 22.2471ZM41.3815 24.5231C41.3815 24.0336 41.2592 23.5768 41.0144 23.1526C40.7697 22.7284 40.37 22.451 39.8153 22.3205C39.7011 22.2879 38.9506 22.2634 37.5637 22.2471C37.2374 22.2471 36.8948 22.2471 36.5359 22.2471C36.1769 22.2471 35.8914 22.2553 35.6793 22.2716H35.3612C35.1164 22.2879 34.9615 22.3695 34.8962 22.5163C34.8636 22.5816 34.6025 23.5605 34.1131 25.4531C34.1131 25.502 34.1049 25.551 34.0886 25.5999L33.3299 28.6835H35.3122C36.6338 28.6835 37.3924 28.6672 37.5882 28.6346C38.5671 28.4714 39.44 27.9983 40.2068 27.2151C40.9737 26.432 41.3652 25.5346 41.3815 24.5231ZM40.06 32.2321C40.06 31.5142 39.8724 30.9187 39.4971 30.4456C39.1219 29.9724 38.6324 29.6951 38.0287 29.6135C37.9308 29.5972 37.2538 29.589 35.9975 29.589C34.0723 29.589 33.1015 29.5972 33.0852 29.6135C33.0852 29.6461 32.9465 30.2416 32.6691 31.4C32.3918 32.5584 32.1063 33.7086 31.8126 34.8507L31.3721 36.5638C31.3721 36.6291 31.47 36.6617 31.6657 36.6617C31.8615 36.6617 32.5223 36.678 33.6481 36.7107C35.1001 36.7107 35.8833 36.7025 35.9975 36.6862C37.009 36.572 37.939 36.0988 38.7874 35.2668C39.6358 34.4347 40.06 33.4231 40.06 32.2321Z" fill="black"/>
<path d="M28.7163 14.4895C28.7163 14.359 28.757 14.2448 28.8386 14.1469C28.9202 14.049 29.0426 14 29.2057 14C29.3199 14 29.4178 14.0408 29.4994 14.1224C29.581 14.1877 29.6625 14.3427 29.7441 14.5874C29.9073 15.1911 30.2417 15.6561 30.7475 15.9824C30.927 16.0966 31.0167 16.2434 31.0167 16.4229C31.0167 16.5697 30.9923 16.6676 30.9433 16.7165C30.8944 16.7655 30.7802 16.8389 30.6007 16.9368C29.8991 17.2957 29.2873 17.8097 28.7652 18.4786C28.7326 18.5112 28.6918 18.5602 28.6428 18.6254C28.5939 18.6907 28.5531 18.7397 28.5205 18.7723C28.4878 18.8049 28.4471 18.8212 28.3981 18.8212C28.3492 18.8212 28.2921 18.8294 28.2268 18.8457C28.1126 18.8457 28.0065 18.8049 27.9086 18.7233C27.8108 18.6418 27.7537 18.5194 27.7373 18.3562C27.7373 18.0463 28.1207 17.5649 28.8876 16.9123H24.7027L20.5178 16.8879C20.3057 16.741 20.1996 16.586 20.1996 16.4229C20.1996 16.3087 20.3057 16.1455 20.5178 15.9334H29.3036C28.912 15.3134 28.7163 14.8321 28.7163 14.4895Z" fill="black"/>
</g>
<defs>
<filter id="filter0_d" x="0" y="0" width="53" height="53" filterUnits="userSpaceOnUse" color-interpolation-filters="sRGB">
<feFlood flood-opacity="0" result="BackgroundImageFix"/>
<feColorMatrix in="SourceAlpha" type="matrix" values="0 0 0 0 0 0 0 0 0 0 0 0 0 0 0 0 0 0 127 0" result="hardAlpha"/>
<feOffset dx="1" dy="1"/>
<feColorMatrix type="matrix" values="0 0 0 0 0 0 0 0 0 0 0 0 0 0 0 0 0 0 0.25 0"/>
<feBlend mode="normal" in2="BackgroundImageFix" result="effect1_dropShadow"/>
<feBlend mode="normal" in="SourceGraphic" in2="effect1_dropShadow" result="shape"/>
</filter>
</defs>
</svg>
