<svg width="53" height="53" viewBox="0 0 53 53" fill="none" xmlns="http://www.w3.org/2000/svg">
<g filter="url(#filter0_d)">
<rect width="52" height="52" fill="white"/>
<path d="M7 43.5V8.99995H10.8685V9.89157H7.89162V42.6084H10.8685V43.5H7Z" fill="black"/>
<path d="M11.5157 17.5276C11.5157 16.5592 11.88 15.6389 12.6086 14.7664C13.3373 13.894 14.157 13.4529 15.0678 13.4434C15.5568 13.4434 15.9882 13.6783 16.3621 14.148C16.5155 13.8604 16.736 13.7166 17.0236 13.7166C17.1483 13.7166 17.2585 13.755 17.3544 13.8316C17.4503 13.9083 17.4982 14.0042 17.4982 14.1193C17.4982 14.2439 17.3208 15.0109 16.9661 16.4202C16.6114 17.8296 16.4292 18.6253 16.4196 18.8075C16.4196 19.0472 16.4532 19.2054 16.5203 19.2821C16.5874 19.3588 16.6881 19.4019 16.8223 19.4115C16.9086 19.4019 17.0044 19.3588 17.1099 19.2821C17.3112 19.0903 17.5078 18.6301 17.6995 17.9015C17.757 17.7097 17.805 17.6091 17.8433 17.5995C17.8625 17.5899 17.9104 17.5851 17.9871 17.5851H18.0447C18.2268 17.5851 18.3179 17.6282 18.3179 17.7145C18.3179 17.772 18.2939 17.9015 18.246 18.1028C18.1981 18.3041 18.1022 18.563 17.9584 18.8794C17.8146 19.1958 17.6612 19.4355 17.4982 19.5984C17.3736 19.7231 17.2202 19.8237 17.038 19.9004C16.9613 19.9196 16.8463 19.9292 16.6929 19.9292C16.3669 19.9292 16.0936 19.8573 15.8731 19.7135C15.6526 19.5697 15.5088 19.4211 15.4417 19.2677L15.3554 19.052C15.3458 19.0424 15.3267 19.0472 15.2979 19.0663C15.2787 19.0855 15.2595 19.1047 15.2404 19.1239C14.6747 19.6608 14.0995 19.9292 13.5146 19.9292C12.9873 19.9292 12.5224 19.7375 12.1197 19.354C11.717 18.9705 11.5157 18.3617 11.5157 17.5276ZM16.0888 15.0684C16.0888 15.0109 16.0649 14.9054 16.0169 14.752C15.969 14.5986 15.8588 14.4309 15.6862 14.2487C15.5136 14.0665 15.2931 13.9707 15.0247 13.9611C14.6891 13.9611 14.3679 14.1097 14.0611 14.4069C13.7543 14.7041 13.5146 15.0924 13.3421 15.5718C13.064 16.3292 12.8675 17.1153 12.7525 17.9302C12.7525 17.959 12.7525 18.0117 12.7525 18.0884C12.7525 18.1651 12.7477 18.2227 12.7381 18.261C12.7381 18.6924 12.8244 18.9896 12.9969 19.1526C13.1695 19.3156 13.3756 19.4019 13.6153 19.4115C13.9796 19.4115 14.3392 19.2533 14.6939 18.9369C15.0486 18.6205 15.2595 18.376 15.3267 18.2035C15.3458 18.1651 15.4753 17.6522 15.7149 16.6647C15.9546 15.6772 16.0793 15.1451 16.0888 15.0684Z" fill="black"/>
<path d="M34.7338 10.4814C34.7338 10.3855 34.753 10.2753 34.7913 10.1506C34.8297 10.026 34.8872 9.96367 34.9639 9.96367C34.9735 9.96367 35.3186 9.9397 35.9993 9.89176C36.68 9.84383 37.03 9.81506 37.0491 9.80548C37.1642 9.80548 37.2217 9.84862 37.2217 9.93491C37.2217 10.0212 37.0587 10.7067 36.7327 11.9914C36.6561 12.3174 36.5746 12.6529 36.4883 12.9981C36.402 13.3432 36.3301 13.6021 36.2726 13.7746L36.215 14.0479C36.215 14.0766 36.2438 14.0623 36.3013 14.0047C36.7711 13.6212 37.2553 13.4295 37.7538 13.4295C38.3482 13.4295 38.8276 13.65 39.1919 14.091C39.5562 14.532 39.7432 15.0881 39.7528 15.7592C39.7528 16.8234 39.3741 17.7869 38.6167 18.6498C37.8593 19.5127 37.0443 19.9441 36.1719 19.9441C35.6925 19.9441 35.2563 19.7619 34.8632 19.3976C34.4701 19.0333 34.2688 18.4437 34.2592 17.6287V17.4993C34.2592 17.298 34.2976 17.02 34.3743 16.6652C34.451 16.3105 34.6859 15.3661 35.0789 13.8322C35.5583 11.9435 35.798 10.9416 35.798 10.8265C35.798 10.7115 35.6158 10.6444 35.2515 10.6252C35.2036 10.6252 35.1652 10.6252 35.1365 10.6252H35.0646C34.9687 10.6252 34.9064 10.6252 34.8776 10.6252C34.8488 10.6252 34.8153 10.6108 34.7769 10.5821C34.7386 10.5533 34.7242 10.5197 34.7338 10.4814ZM38.516 15.1121V15.0258C38.516 14.3163 38.2236 13.9616 37.6388 13.9616C37.4758 13.9616 37.308 13.9999 37.1354 14.0766C36.9628 14.1533 36.8047 14.254 36.6608 14.3786C36.517 14.5033 36.3924 14.6183 36.2869 14.7238C36.1815 14.8292 36.0952 14.9347 36.0281 15.0402L35.9418 15.1552L35.6398 16.392C35.4289 17.2165 35.3234 17.8013 35.3234 18.1465C35.3234 18.6067 35.4385 18.9518 35.6686 19.1819C35.822 19.3353 36.0137 19.412 36.2438 19.412C36.5602 19.412 36.8814 19.2586 37.2073 18.9518C37.447 18.7313 37.6388 18.4628 37.7826 18.1465C37.9264 17.8301 38.0846 17.3267 38.2571 16.6365C38.4297 15.9462 38.516 15.438 38.516 15.1121Z" fill="black"/>
<path d="M12.2203 37.6327C12.2203 36.5877 12.6325 35.6481 13.457 34.814C14.2816 33.9799 15.1732 33.5629 16.1319 33.5629C16.6688 33.5629 17.0906 33.6779 17.3974 33.908C17.7042 34.1381 17.8624 34.4401 17.872 34.814C17.872 35.092 17.7809 35.3269 17.5988 35.5187C17.4166 35.7104 17.1865 35.8111 16.9085 35.8207C16.7263 35.8207 16.5825 35.7727 16.4771 35.6769C16.3716 35.581 16.3189 35.4372 16.3189 35.2454C16.3189 35.0537 16.3716 34.8907 16.4771 34.7565C16.5825 34.6223 16.688 34.5216 16.7934 34.4545C16.8989 34.3874 16.966 34.3586 16.9948 34.3682H17.0092C17.0092 34.349 16.9804 34.3203 16.9229 34.2819C16.8653 34.2436 16.7647 34.2052 16.6209 34.1669C16.4771 34.1285 16.3141 34.1093 16.1319 34.1093C15.8443 34.1093 15.5711 34.1765 15.3122 34.3107C15.1109 34.397 14.9047 34.5456 14.6938 34.7565C14.272 35.1783 13.9652 35.7727 13.7734 36.5397C13.5817 37.3067 13.481 37.8628 13.4714 38.2079C13.4714 38.6489 13.5961 38.9797 13.8453 39.2002C14.0563 39.4303 14.3343 39.5454 14.6794 39.5454H14.737C15.8107 39.5454 16.6976 39.1379 17.3974 38.323C17.4837 38.2271 17.5413 38.1792 17.57 38.1792C17.6084 38.1792 17.6707 38.2223 17.757 38.3086C17.8433 38.3949 17.8912 38.462 17.9008 38.5099C17.9104 38.5579 17.8672 38.6298 17.7713 38.7256C17.6755 38.8215 17.5365 38.9557 17.3543 39.1283C17.1721 39.3009 16.9564 39.4447 16.7072 39.5597C16.4579 39.6748 16.1511 39.7946 15.7868 39.9193C15.4224 40.0439 15.039 40.0966 14.6363 40.0775C13.9172 40.0775 13.3372 39.8474 12.8962 39.3872C12.4552 38.927 12.2299 38.3422 12.2203 37.6327Z" fill="black"/>
<path d="M38.2931 30.0969C38.3027 30.0969 38.6478 30.073 39.3285 30.025C40.0092 29.9771 40.3592 29.9483 40.3783 29.9388C40.4934 29.9388 40.5509 29.9771 40.5509 30.0538C40.5509 30.1209 40.201 31.5686 39.5011 34.3969C38.8012 37.2251 38.4417 38.668 38.4225 38.7256C38.4033 38.7831 38.3985 38.855 38.4081 38.9413C38.4081 39.3439 38.5424 39.5453 38.8108 39.5453C38.8971 39.5357 38.993 39.4925 39.0984 39.4158C39.2998 39.2241 39.4963 38.7639 39.688 38.0353C39.7456 37.8435 39.7935 37.7429 39.8319 37.7333C39.851 37.7237 39.899 37.7189 39.9757 37.7189H40.0332H40.0907C40.2345 37.7189 40.3064 37.7572 40.3064 37.8339C40.3064 37.8819 40.292 37.9586 40.2633 38.064C40.1387 38.5434 39.9948 38.9317 39.8319 39.2289C39.6689 39.5261 39.5346 39.7178 39.4292 39.8041C39.3237 39.8904 39.1895 39.9671 39.0265 40.0342C38.9498 40.0534 38.8348 40.063 38.6814 40.063C38.3554 40.063 38.0822 39.9911 37.8617 39.8473C37.6411 39.7035 37.4973 39.5549 37.4302 39.4015L37.3439 39.1857C37.3344 39.1762 37.3152 39.181 37.2864 39.2001C37.2672 39.2193 37.2481 39.2385 37.2289 39.2577C36.6632 39.7945 36.088 40.063 35.5032 40.063C34.9759 40.063 34.5109 39.8712 34.1082 39.4877C33.7055 39.1043 33.5042 38.4955 33.5042 37.6614C33.5042 37.2012 33.6001 36.7314 33.7918 36.252C33.9836 35.7727 34.2137 35.3604 34.4821 35.0153C34.9327 34.4688 35.3833 34.0901 35.8339 33.8792C36.2845 33.6682 36.692 33.5628 37.0563 33.5628C37.5932 33.5628 37.9959 33.7641 38.2643 34.1668C38.3123 34.2243 38.3362 34.2435 38.3362 34.2243C38.3458 34.1859 38.4752 33.6634 38.7245 32.6568C38.9738 31.6501 39.108 31.118 39.1272 31.0605C39.1272 30.9358 39.0936 30.8591 39.0265 30.8304C38.9594 30.8016 38.7725 30.7776 38.4657 30.7585H38.1637C38.1061 30.7009 38.0774 30.6626 38.0774 30.6434C38.0774 30.6242 38.087 30.5332 38.1061 30.3702C38.1541 30.188 38.2164 30.0969 38.2931 30.0969ZM38.0918 35.231C37.8712 34.4736 37.5117 34.0949 37.0132 34.0949C36.6776 34.0949 36.3564 34.2435 36.0497 34.5407C35.7429 34.8379 35.5032 35.2262 35.3306 35.7055C35.0526 36.4629 34.856 37.2491 34.741 38.064C34.741 38.0928 34.741 38.1455 34.741 38.2222C34.741 38.2989 34.7362 38.3564 34.7266 38.3948C34.7266 38.8262 34.8129 39.1234 34.9855 39.2864C35.158 39.4494 35.3642 39.5357 35.6038 39.5453C36.1216 39.5453 36.6537 39.2001 37.2001 38.5098L37.3152 38.3516L38.0918 35.231Z" fill="black"/>
<path d="M40.6659 9.89157V8.99995H44.5344V43.5H40.6659V42.6084H43.6428V9.89157H40.6659Z" fill="black"/>
</g>
<defs>
<filter id="filter0_d" x="0" y="0" width="53" height="53" filterUnits="userSpaceOnUse" color-interpolation-filters="sRGB">
<feFlood flood-opacity="0" result="BackgroundImageFix"/>
<feColorMatrix in="SourceAlpha" type="matrix" values="0 0 0 0 0 0 0 0 0 0 0 0 0 0 0 0 0 0 127 0" result="hardAlpha"/>
<feOffset dx="1" dy="1"/>
<feColorMatrix type="matrix" values="0 0 0 0 0 0 0 0 0 0 0 0 0 0 0 0 0 0 0.25 0"/>
<feBlend mode="normal" in2="BackgroundImageFix" result="effect1_dropShadow"/>
<feBlend mode="normal" in="SourceGraphic" in2="effect1_dropShadow" result="shape"/>
</filter>
</defs>
</svg>
