<svg width="16" height="16" viewBox="0 0 16 16" fill="none" xmlns="http://www.w3.org/2000/svg">
<mask id="mask0_645_18086" style="mask-type:alpha" maskUnits="userSpaceOnUse" x="1" y="1" width="14" height="14">
<path d="M8.00024 1.3335C11.6801 1.33367 14.6663 4.3206 14.6663 8.00049C14.6661 11.6802 11.68 14.6663 8.00024 14.6665C4.32035 14.6665 1.33343 11.6803 1.33325 8.00049C1.33325 4.32049 4.32024 1.3335 8.00024 1.3335ZM7.33325 10.0005V11.3335H8.66626V10.0005H7.33325ZM8.00024 4.6665C7.63358 4.6665 7.33325 4.96683 7.33325 5.3335V8.00049C7.33343 8.36701 7.63369 8.6665 8.00024 8.6665C8.36665 8.66633 8.66608 8.3669 8.66626 8.00049V5.3335C8.66626 4.96694 8.36676 4.66668 8.00024 4.6665Z" fill="black"/>
</mask>
<g mask="url(#mask0_645_18086)">
<rect width="16" height="16" fill="#394452"/>
</g>
</svg>
