<svg width="53" height="53" viewBox="0 0 53 53" fill="none" xmlns="http://www.w3.org/2000/svg">
<g filter="url(#filter0_d)">
<rect width="52" height="52" fill="white"/>
<path d="M9.0863 34.812L9.00762 34.7596C8.95517 34.7421 8.91146 34.7158 8.87649 34.6809C8.84153 34.6459 8.79782 34.5935 8.74536 34.5235C8.69291 34.4536 8.66669 34.3749 8.66669 34.2875C8.66669 34.2525 8.68417 34.1826 8.71914 34.0777C8.89398 33.8154 11.4204 30.9043 16.2984 25.3444C17.1901 24.3129 18.3091 23.0278 19.6554 21.4892C21.7709 19.0415 23.0123 17.6165 23.3795 17.2144C23.7466 16.8123 24.0176 16.6112 24.1925 16.6112C24.3673 16.6112 24.4897 16.6636 24.5596 16.7685C24.6296 16.8734 24.6733 16.9958 24.6908 17.1357C24.6908 17.2406 24.6645 17.3368 24.6121 17.4242C24.5946 17.4417 24.2799 17.8001 23.6679 18.4995C23.056 19.1988 22.1556 20.2391 20.9667 21.6203C19.7778 23.0016 18.6063 24.3391 17.4524 25.6329L10.3714 33.7367L17.3475 33.763H24.3498C24.5771 33.9378 24.6908 34.1127 24.6908 34.2875C24.6908 34.4973 24.5596 34.6721 24.2974 34.812H9.0863Z" fill="black"/>
<path d="M30.4605 30.6945C30.4605 31.1141 30.3207 31.4638 30.0409 31.7435C29.7612 32.0232 29.4202 32.1631 29.0181 32.1631H28.8345C29.6388 33.5444 30.7053 34.235 32.0341 34.235C33.258 34.235 34.1496 33.7105 34.7091 32.6614C35.0413 32.0844 35.2074 30.9655 35.2074 29.3045C35.2074 27.5036 34.9714 26.2885 34.4993 25.6591C34.0447 25.0821 33.5377 24.7936 32.9782 24.7936H32.8209C31.4571 24.7936 30.4256 25.3881 29.7262 26.577C29.6563 26.6994 29.5951 26.7693 29.5426 26.7868C29.4902 26.8043 29.359 26.8218 29.1492 26.8392C28.852 26.8392 28.6859 26.7868 28.6509 26.6819C28.616 26.612 28.5985 25.0821 28.5985 22.0924V18.7092C28.5985 17.835 28.6422 17.3979 28.7296 17.3979C28.7646 17.3629 28.7995 17.3454 28.8345 17.3454C28.852 17.3454 29.0356 17.4154 29.3853 17.5553C29.7349 17.6951 30.2157 17.835 30.8277 17.9749C31.4396 18.1147 32.0953 18.1847 32.7946 18.1847C34.036 18.1847 35.2249 17.9399 36.3614 17.4504C36.5012 17.3804 36.6149 17.3454 36.7023 17.3454C36.8422 17.3454 36.9121 17.5028 36.9121 17.8175V18.1585C35.4784 19.8544 33.6863 20.7024 31.5358 20.7024C30.9938 20.7024 30.5042 20.6499 30.0671 20.545L29.8049 20.4926V25.0034C30.1371 24.7587 30.3993 24.5663 30.5917 24.4265C30.784 24.2866 31.0987 24.1467 31.5358 24.0068C31.9729 23.867 32.4187 23.797 32.8733 23.797C34.2895 23.797 35.4872 24.3653 36.4663 25.5017C37.4454 26.6382 37.9349 27.9845 37.9349 29.5405C37.9349 31.1491 37.3754 32.5215 36.2565 33.658C35.1375 34.7945 33.7737 35.3714 32.1652 35.3889C30.749 35.3889 29.6126 34.9168 28.7558 33.9727C27.8991 33.0286 27.4708 31.9621 27.4708 30.7731C27.4708 30.3535 27.5669 30.0213 27.7592 29.7766C27.9516 29.5318 28.1526 29.3744 28.3624 29.3045C28.5723 29.2346 28.7733 29.1996 28.9656 29.1996C29.4027 29.1996 29.7612 29.3482 30.0409 29.6454C30.3207 29.9427 30.4605 30.2923 30.4605 30.6945Z" fill="black"/>
<rect x="27" y="14" width="14" height="23" fill="#C4C4C4"/>
</g>
<defs>
<filter id="filter0_d" x="0" y="0" width="53" height="53" filterUnits="userSpaceOnUse" color-interpolation-filters="sRGB">
<feFlood flood-opacity="0" result="BackgroundImageFix"/>
<feColorMatrix in="SourceAlpha" type="matrix" values="0 0 0 0 0 0 0 0 0 0 0 0 0 0 0 0 0 0 127 0" result="hardAlpha"/>
<feOffset dx="1" dy="1"/>
<feColorMatrix type="matrix" values="0 0 0 0 0 0 0 0 0 0 0 0 0 0 0 0 0 0 0.25 0"/>
<feBlend mode="normal" in2="BackgroundImageFix" result="effect1_dropShadow"/>
<feBlend mode="normal" in="SourceGraphic" in2="effect1_dropShadow" result="shape"/>
</filter>
</defs>
</svg>
