<svg width="52" height="52" viewBox="0 0 52 52" fill="none" xmlns="http://www.w3.org/2000/svg">
<path d="M14.04 32.5199C14.04 30.4666 14.4133 28.5466 15.16 26.7599C15.9333 24.9733 17 23.3999 18.36 22.0399C19.72 20.6799 21.2933 19.6133 23.08 18.8399C24.8933 18.0666 26.8267 17.6799 28.88 17.6799C30.9333 17.6799 32.8533 18.0666 34.64 18.8399C36.4267 19.5866 38 20.6399 39.36 21.9999C40.72 23.3599 41.7867 24.9466 42.56 26.7599C43.3333 28.5466 43.72 30.4666 43.72 32.5199H40.88C40.88 30.8666 40.5733 29.3199 39.96 27.8799C39.3467 26.4133 38.4933 25.1333 37.4 24.0399C36.3067 22.9466 35.0267 22.0933 33.56 21.4799C32.12 20.8399 30.56 20.5199 28.88 20.5199C27.2267 20.5199 25.6667 20.8399 24.2 21.4799C22.76 22.0933 21.4933 22.9466 20.4 24.0399C19.3067 25.1333 18.44 26.4133 17.8 27.8799C17.1867 29.3199 16.88 30.8666 16.88 32.5199H14.04Z" fill="#454545"/>
</svg>
