<svg width="52" height="52" viewBox="0 0 52 52" fill="none" xmlns="http://www.w3.org/2000/svg">
<path d="M43.0212 29.3799C42.2312 29.3799 41.6262 29.2399 41.2062 28.9599C40.7862 28.6799 40.5762 28.3849 40.5762 28.0749C40.5762 27.9049 40.6412 27.7449 40.7712 27.5949C40.9012 27.4449 41.0912 27.3699 41.3412 27.3699C41.5912 27.3699 41.7912 27.4399 41.9412 27.5799C42.1012 27.7199 42.2212 27.8999 42.3012 28.1199C42.3912 28.3399 42.4512 28.5599 42.4812 28.7799C42.5912 28.8099 42.6962 28.8299 42.7962 28.8399C42.9062 28.8499 43.0112 28.8549 43.1112 28.8549C43.5212 28.8549 43.8662 28.7699 44.1462 28.5999C44.4262 28.4199 44.5662 28.1549 44.5662 27.8049C44.5662 27.4949 44.4462 27.2349 44.2062 27.0249C43.9662 26.8049 43.6162 26.5399 43.1562 26.2299C42.8862 26.0399 42.6262 25.8449 42.3762 25.6449C42.1262 25.4349 41.9212 25.2049 41.7612 24.9549C41.6012 24.7049 41.5212 24.4249 41.5212 24.1149C41.5212 23.7949 41.6162 23.4749 41.8062 23.1549C42.0062 22.8249 42.3162 22.5549 42.7362 22.3449C43.1562 22.1249 43.6912 22.0149 44.3412 22.0149C45.0612 22.0149 45.6012 22.1399 45.9612 22.3899C46.3212 22.6399 46.5012 22.9099 46.5012 23.1999C46.5012 23.3499 46.4462 23.5049 46.3362 23.6649C46.2362 23.8249 46.0562 23.9049 45.7962 23.9049C45.4662 23.9049 45.2112 23.7749 45.0312 23.5149C44.8612 23.2449 44.7562 22.9599 44.7162 22.6599C44.5062 22.6099 44.2962 22.5849 44.0862 22.5849C43.6862 22.5849 43.3812 22.6799 43.1712 22.8699C42.9612 23.0499 42.8562 23.2849 42.8562 23.5749C42.8562 23.8849 42.9762 24.1549 43.2162 24.3849C43.4662 24.6049 43.8262 24.8749 44.2962 25.1949C44.5662 25.3749 44.8262 25.5699 45.0762 25.7799C45.3262 25.9799 45.5312 26.2099 45.6912 26.4699C45.8512 26.7199 45.9312 27.0199 45.9312 27.3699C45.9312 27.7899 45.8062 28.1499 45.5562 28.4499C45.3062 28.7499 44.9612 28.9799 44.5212 29.1399C44.0812 29.2999 43.5812 29.3799 43.0212 29.3799Z" fill="#454545"/>
<path d="M39.9711 24.94C39.9711 25.45 39.8861 25.965 39.7161 26.485C39.5561 27.005 39.3111 27.485 38.9811 27.925C38.6511 28.355 38.2411 28.705 37.7511 28.975C37.2611 29.245 36.6961 29.38 36.0561 29.38C35.5161 29.38 35.0611 29.285 34.6911 29.095C34.3311 28.905 34.0411 28.66 33.8211 28.36C33.6011 28.06 33.4411 27.735 33.3411 27.385C33.2511 27.025 33.2061 26.68 33.2061 26.35C33.2061 25.92 33.2811 25.455 33.4311 24.955C33.5911 24.455 33.8311 23.98 34.1511 23.53C34.4711 23.08 34.8811 22.715 35.3811 22.435C35.8811 22.145 36.4761 22 37.1661 22C37.8161 22 38.3461 22.135 38.7561 22.405C39.1761 22.665 39.4811 23.02 39.6711 23.47C39.8711 23.91 39.9711 24.4 39.9711 24.94ZM38.3811 24.7C38.3811 24.08 38.2811 23.57 38.0811 23.17C37.8911 22.76 37.5661 22.555 37.1061 22.555C36.7461 22.555 36.4211 22.675 36.1311 22.915C35.8511 23.155 35.6111 23.475 35.4111 23.875C35.2111 24.275 35.0561 24.715 34.9461 25.195C34.8461 25.665 34.7961 26.14 34.7961 26.62C34.7961 27.24 34.8961 27.765 35.0961 28.195C35.3061 28.615 35.6461 28.825 36.1161 28.825C36.4861 28.825 36.8111 28.7 37.0911 28.45C37.3711 28.2 37.6061 27.87 37.7961 27.46C37.9861 27.05 38.1311 26.605 38.2311 26.125C38.3311 25.635 38.3811 25.16 38.3811 24.7Z" fill="#454545"/>
<path d="M29.19 29.3799C28.42 29.3799 27.815 29.1399 27.375 28.6599C26.945 28.1799 26.73 27.5349 26.73 26.7249C26.73 26.0749 26.86 25.4649 27.12 24.8949C27.38 24.3249 27.725 23.8249 28.155 23.3949C28.585 22.9649 29.06 22.6299 29.58 22.3899C30.1 22.1399 30.615 22.0149 31.125 22.0149C31.595 22.0149 31.985 22.1149 32.295 22.3149C32.605 22.5149 32.76 22.7699 32.76 23.0799C32.76 23.2899 32.69 23.4649 32.55 23.6049C32.41 23.7449 32.225 23.8149 31.995 23.8149C31.775 23.8149 31.55 23.7299 31.32 23.5599C31.09 23.3799 30.95 23.0699 30.9 22.6299C30.53 22.6399 30.185 22.7799 29.865 23.0499C29.555 23.3199 29.285 23.6649 29.055 24.0849C28.825 24.5049 28.645 24.9499 28.515 25.4199C28.385 25.8899 28.32 26.3349 28.32 26.7549C28.32 27.1849 28.415 27.5599 28.605 27.8799C28.795 28.1999 29.15 28.3599 29.67 28.3599C30.1 28.3599 30.495 28.2449 30.855 28.0149C31.225 27.7849 31.545 27.4799 31.815 27.0999C31.975 27.1799 32.095 27.2749 32.175 27.3849C31.985 27.7249 31.75 28.0499 31.47 28.3599C31.2 28.6599 30.875 28.9049 30.495 29.0949C30.125 29.2849 29.69 29.3799 29.19 29.3799Z" fill="#454545"/>
<path d="M22.774 29.3799C22.004 29.3799 21.399 29.1399 20.959 28.6599C20.529 28.1799 20.314 27.5349 20.314 26.7249C20.314 26.0749 20.444 25.4649 20.704 24.8949C20.964 24.3249 21.309 23.8249 21.739 23.3949C22.169 22.9649 22.644 22.6299 23.164 22.3899C23.684 22.1399 24.199 22.0149 24.709 22.0149C25.179 22.0149 25.569 22.1149 25.879 22.3149C26.189 22.5149 26.344 22.7699 26.344 23.0799C26.344 23.2899 26.274 23.4649 26.134 23.6049C25.994 23.7449 25.809 23.8149 25.579 23.8149C25.359 23.8149 25.134 23.7299 24.904 23.5599C24.674 23.3799 24.534 23.0699 24.484 22.6299C24.114 22.6399 23.769 22.7799 23.449 23.0499C23.139 23.3199 22.869 23.6649 22.639 24.0849C22.409 24.5049 22.229 24.9499 22.099 25.4199C21.969 25.8899 21.904 26.3349 21.904 26.7549C21.904 27.1849 21.999 27.5599 22.189 27.8799C22.379 28.1999 22.734 28.3599 23.254 28.3599C23.684 28.3599 24.079 28.2449 24.439 28.0149C24.809 27.7849 25.129 27.4799 25.399 27.0999C25.559 27.1799 25.679 27.2749 25.759 27.3849C25.569 27.7249 25.334 28.0499 25.054 28.3599C24.784 28.6599 24.459 28.9049 24.079 29.0949C23.709 29.2849 23.274 29.3799 22.774 29.3799Z" fill="#454545"/>
<path d="M16.0468 29.2H14.5468L15.7768 23.875C15.8468 23.585 15.8818 23.395 15.8818 23.305C15.8818 23.065 15.7918 22.945 15.6118 22.945C15.4718 22.945 15.2868 23.025 15.0568 23.185C14.8368 23.335 14.6168 23.525 14.3968 23.755C14.3268 23.705 14.2618 23.655 14.2018 23.605C14.1518 23.555 14.1018 23.5 14.0518 23.44C14.4518 22.97 14.8668 22.62 15.2968 22.39C15.7268 22.15 16.1268 22.03 16.4968 22.03C16.8268 22.03 17.0468 22.11 17.1568 22.27C17.2668 22.42 17.3218 22.6 17.3218 22.81C17.3218 22.94 17.3018 23.095 17.2618 23.275C17.2218 23.445 17.1418 23.735 17.0218 24.145L16.5418 25.69L16.6318 25.705C17.1518 24.455 17.6618 23.525 18.1618 22.915C18.6618 22.305 19.2018 22 19.7818 22C20.1318 22 20.3768 22.09 20.5168 22.27C20.6668 22.45 20.7418 22.645 20.7418 22.855C20.7418 23.105 20.6618 23.3 20.5018 23.44C20.3418 23.58 20.1518 23.65 19.9318 23.65C19.7718 23.65 19.6018 23.61 19.4218 23.53C19.2418 23.44 19.0918 23.3 18.9718 23.11C18.6618 23.31 18.3268 23.675 17.9668 24.205C17.6068 24.725 17.2568 25.405 16.9168 26.245C16.5868 27.075 16.2968 28.06 16.0468 29.2Z" fill="#454545"/>
<path d="M7.815 29.365C7.505 29.365 7.21 29.285 6.93 29.125C6.65 28.955 6.425 28.695 6.255 28.345C6.085 27.995 6 27.545 6 26.995C6 26.315 6.13 25.675 6.39 25.075C6.65 24.475 6.99 23.945 7.41 23.485C7.83 23.025 8.29 22.665 8.79 22.405C9.3 22.135 9.8 22 10.29 22C10.48 22 10.695 22.03 10.935 22.09C11.175 22.14 11.425 22.23 11.685 22.36C11.895 22.33 12.11 22.3 12.33 22.27C12.56 22.24 12.795 22.205 13.035 22.165L13.08 22.225C12.96 22.645 12.855 23.045 12.765 23.425C12.675 23.795 12.585 24.175 12.495 24.565L11.805 27.535C11.795 27.605 11.775 27.695 11.745 27.805C11.715 27.915 11.7 28.02 11.7 28.12C11.7 28.21 11.72 28.285 11.76 28.345C11.8 28.405 11.87 28.435 11.97 28.435C12.14 28.435 12.355 28.345 12.615 28.165C12.875 27.985 13.11 27.765 13.32 27.505C13.45 27.595 13.565 27.695 13.665 27.805C13.325 28.255 12.96 28.63 12.57 28.93C12.18 29.23 11.74 29.38 11.25 29.38C10.88 29.38 10.615 29.29 10.455 29.11C10.295 28.92 10.215 28.685 10.215 28.405C10.215 28.135 10.27 27.825 10.38 27.475H10.305C9.935 28.115 9.535 28.59 9.105 28.9C8.685 29.21 8.255 29.365 7.815 29.365ZM11.295 23.305C11.085 23.115 10.865 22.965 10.635 22.855C10.405 22.735 10.17 22.675 9.93 22.675C9.56 22.675 9.23 22.81 8.94 23.08C8.65 23.35 8.405 23.7 8.205 24.13C8.005 24.55 7.855 25.005 7.755 25.495C7.655 25.975 7.605 26.435 7.605 26.875C7.605 27.475 7.685 27.885 7.845 28.105C8.005 28.315 8.195 28.42 8.415 28.42C8.675 28.42 8.96 28.295 9.27 28.045C9.59 27.785 9.9 27.375 10.2 26.815C10.51 26.245 10.775 25.495 10.995 24.565L11.295 23.305Z" fill="#454545"/>
</svg>
