<svg width="52" height="52" viewBox="0 0 52 52" fill="none" xmlns="http://www.w3.org/2000/svg">
<path d="M41.4304 27.27L40.8004 30H39.3004L40.5304 24.675C40.6004 24.385 40.6354 24.195 40.6354 24.105C40.6354 23.865 40.5454 23.745 40.3654 23.745C40.2254 23.745 40.0404 23.825 39.8104 23.985C39.5904 24.135 39.3704 24.325 39.1504 24.555C39.0804 24.505 39.0154 24.455 38.9554 24.405C38.9054 24.355 38.8554 24.3 38.8054 24.24C39.2054 23.77 39.6154 23.42 40.0354 23.19C40.4654 22.95 40.8654 22.83 41.2354 22.83C41.5754 22.83 41.8154 22.915 41.9554 23.085C42.0954 23.255 42.1654 23.455 42.1654 23.685C42.1654 23.805 42.1454 23.95 42.1054 24.12C42.0754 24.28 42.0454 24.45 42.0154 24.63H42.0604C42.4404 24.02 42.8854 23.565 43.3954 23.265C43.9154 22.955 44.4154 22.8 44.8954 22.8C45.3754 22.8 45.7404 22.935 45.9904 23.205C46.2504 23.465 46.3804 23.785 46.3804 24.165C46.3804 24.375 46.3404 24.655 46.2604 25.005C46.1904 25.355 46.1004 25.73 45.9904 26.13C45.8804 26.53 45.7704 26.925 45.6604 27.315C45.5504 27.695 45.4554 28.035 45.3754 28.335C45.3054 28.625 45.2704 28.83 45.2704 28.95C45.2704 29.02 45.2904 29.0851 45.3304 29.1451C45.3704 29.205 45.4404 29.2351 45.5404 29.2351C45.7104 29.2351 45.9254 29.145 46.1854 28.965C46.4454 28.785 46.6804 28.5651 46.8904 28.305C47.0204 28.3951 47.1354 28.495 47.2354 28.605C46.8954 29.055 46.5254 29.43 46.1254 29.73C45.7354 30.03 45.3004 30.18 44.8204 30.18C44.4504 30.18 44.1804 30.09 44.0104 29.91C43.8404 29.72 43.7554 29.485 43.7554 29.205C43.7554 29.005 43.7904 28.74 43.8604 28.41C43.9404 28.08 44.0354 27.72 44.1454 27.33C44.2554 26.94 44.3604 26.555 44.4604 26.175C44.5704 25.785 44.6604 25.43 44.7304 25.11C44.8104 24.79 44.8504 24.54 44.8504 24.36C44.8504 24.16 44.8054 23.995 44.7154 23.865C44.6254 23.735 44.4654 23.67 44.2354 23.67C43.9454 23.67 43.6204 23.795 43.2604 24.045C42.9004 24.295 42.5554 24.675 42.2254 25.185C41.9054 25.695 41.6504 26.35 41.4604 27.15L41.4304 27.27Z" fill="#454545"/>
<path d="M32.4937 30.1651C32.1837 30.1651 31.8887 30.085 31.6087 29.925C31.3287 29.755 31.1037 29.495 30.9337 29.1451C30.7637 28.7951 30.6787 28.345 30.6787 27.795C30.6787 27.115 30.8087 26.475 31.0687 25.875C31.3287 25.275 31.6687 24.745 32.0887 24.285C32.5087 23.825 32.9687 23.465 33.4687 23.205C33.9787 22.935 34.4787 22.8 34.9687 22.8C35.1587 22.8 35.3737 22.83 35.6137 22.89C35.8537 22.94 36.1037 23.03 36.3637 23.16C36.5737 23.13 36.7887 23.1 37.0087 23.07C37.2387 23.04 37.4737 23.005 37.7137 22.965L37.7587 23.025C37.6387 23.445 37.5337 23.845 37.4437 24.225C37.3537 24.595 37.2637 24.975 37.1737 25.365L36.4837 28.335C36.4737 28.405 36.4537 28.495 36.4237 28.605C36.3937 28.715 36.3787 28.82 36.3787 28.92C36.3787 29.01 36.3987 29.0851 36.4387 29.1451C36.4787 29.205 36.5487 29.2351 36.6487 29.2351C36.8187 29.2351 37.0337 29.145 37.2937 28.965C37.5537 28.785 37.7887 28.5651 37.9987 28.305C38.1287 28.3951 38.2437 28.495 38.3437 28.605C38.0037 29.055 37.6387 29.43 37.2487 29.73C36.8587 30.03 36.4187 30.18 35.9287 30.18C35.5587 30.18 35.2937 30.09 35.1337 29.91C34.9737 29.72 34.8937 29.485 34.8937 29.205C34.8937 28.935 34.9487 28.625 35.0587 28.275H34.9837C34.6137 28.915 34.2137 29.3901 33.7837 29.7001C33.3637 30.0101 32.9337 30.1651 32.4937 30.1651ZM35.9737 24.105C35.7637 23.915 35.5437 23.765 35.3137 23.655C35.0837 23.535 34.8487 23.475 34.6087 23.475C34.2387 23.475 33.9087 23.61 33.6187 23.88C33.3287 24.15 33.0837 24.5 32.8837 24.93C32.6837 25.35 32.5337 25.805 32.4337 26.295C32.3337 26.775 32.2837 27.235 32.2837 27.675C32.2837 28.275 32.3637 28.685 32.5237 28.905C32.6837 29.115 32.8737 29.22 33.0937 29.22C33.3537 29.22 33.6387 29.095 33.9487 28.845C34.2687 28.585 34.5787 28.175 34.8787 27.615C35.1887 27.045 35.4537 26.295 35.6737 25.365L35.9737 24.105Z" fill="#454545"/>
<path d="M30.47 23.805H28.745L27.8 27.915C27.71 28.305 27.665 28.585 27.665 28.755C27.665 28.915 27.7 29.045 27.77 29.145C27.84 29.235 27.965 29.28 28.145 29.28C28.355 29.28 28.605 29.195 28.895 29.025C29.185 28.845 29.445 28.61 29.675 28.32C29.805 28.41 29.92 28.51 30.02 28.62C29.67 29.11 29.27 29.495 28.82 29.775C28.37 30.055 27.905 30.195 27.425 30.195C27.105 30.195 26.85 30.13 26.66 30C26.48 29.87 26.355 29.715 26.285 29.535C26.215 29.345 26.18 29.17 26.18 29.01C26.18 28.9 26.19 28.765 26.21 28.605C26.23 28.445 26.265 28.25 26.315 28.02L27.245 23.805H26.12C26.12 23.725 26.125 23.65 26.135 23.58C26.145 23.51 26.165 23.44 26.195 23.37L27.38 23.19C27.45 22.9 27.525 22.575 27.605 22.215C27.695 21.845 27.775 21.495 27.845 21.165C28.085 21.145 28.33 21.125 28.58 21.105C28.84 21.075 29.09 21.04 29.33 21L29.375 21.06C29.305 21.36 29.235 21.665 29.165 21.975C29.095 22.275 29.005 22.665 28.895 23.145H30.59C30.59 23.265 30.58 23.38 30.56 23.49C30.54 23.59 30.51 23.695 30.47 23.805Z" fill="#454545"/>
<path d="M21.774 30.1799C21.004 30.1799 20.399 29.9399 19.959 29.4599C19.529 28.9799 19.314 28.3349 19.314 27.5249C19.314 26.8749 19.444 26.2649 19.704 25.6949C19.964 25.1249 20.309 24.6249 20.739 24.1949C21.169 23.7649 21.644 23.4299 22.164 23.1899C22.684 22.9399 23.199 22.8149 23.709 22.8149C24.179 22.8149 24.569 22.9149 24.879 23.1149C25.189 23.3149 25.344 23.5699 25.344 23.8799C25.344 24.0899 25.274 24.2649 25.134 24.4049C24.994 24.5449 24.809 24.6149 24.579 24.6149C24.359 24.6149 24.134 24.5299 23.904 24.3599C23.674 24.1799 23.534 23.8699 23.484 23.4299C23.114 23.4399 22.769 23.5799 22.449 23.8499C22.139 24.1199 21.869 24.4649 21.639 24.8849C21.409 25.3049 21.229 25.7499 21.099 26.2199C20.969 26.6899 20.904 27.1349 20.904 27.5549C20.904 27.9849 20.999 28.3599 21.189 28.6799C21.379 28.9999 21.734 29.1599 22.254 29.1599C22.684 29.1599 23.079 29.0449 23.439 28.8149C23.809 28.5849 24.129 28.2799 24.399 27.8999C24.559 27.9799 24.679 28.0749 24.759 28.1849C24.569 28.5249 24.334 28.8499 24.054 29.1599C23.784 29.4599 23.459 29.7049 23.079 29.8949C22.709 30.0849 22.274 30.1799 21.774 30.1799Z" fill="#454545"/>
<path d="M15.0468 30H13.5468L14.7768 24.675C14.8468 24.385 14.8818 24.195 14.8818 24.105C14.8818 23.865 14.7918 23.745 14.6118 23.745C14.4718 23.745 14.2868 23.825 14.0568 23.985C13.8368 24.135 13.6168 24.325 13.3968 24.555C13.3268 24.505 13.2618 24.455 13.2018 24.405C13.1518 24.355 13.1018 24.3 13.0518 24.24C13.4518 23.77 13.8668 23.42 14.2968 23.19C14.7268 22.95 15.1268 22.83 15.4968 22.83C15.8268 22.83 16.0468 22.91 16.1568 23.07C16.2668 23.22 16.3218 23.4 16.3218 23.61C16.3218 23.74 16.3018 23.895 16.2618 24.075C16.2218 24.245 16.1418 24.535 16.0218 24.945L15.5418 26.49L15.6318 26.505C16.1518 25.255 16.6618 24.325 17.1618 23.715C17.6618 23.105 18.2018 22.8 18.7818 22.8C19.1318 22.8 19.3768 22.89 19.5168 23.07C19.6668 23.25 19.7418 23.445 19.7418 23.655C19.7418 23.905 19.6618 24.1 19.5018 24.24C19.3418 24.38 19.1518 24.45 18.9318 24.45C18.7718 24.45 18.6018 24.41 18.4218 24.33C18.2418 24.24 18.0918 24.1 17.9718 23.91C17.6618 24.11 17.3268 24.475 16.9668 25.005C16.6068 25.525 16.2568 26.205 15.9168 27.045C15.5868 27.875 15.2968 28.86 15.0468 30Z" fill="#454545"/>
<path d="M6.815 30.1651C6.505 30.1651 6.21 30.085 5.93 29.925C5.65 29.755 5.425 29.495 5.255 29.1451C5.085 28.7951 5 28.345 5 27.795C5 27.115 5.13 26.475 5.39 25.875C5.65 25.275 5.99 24.745 6.41 24.285C6.83 23.825 7.29 23.465 7.79 23.205C8.3 22.935 8.8 22.8 9.29 22.8C9.48 22.8 9.695 22.83 9.935 22.89C10.175 22.94 10.425 23.03 10.685 23.16C10.895 23.13 11.11 23.1 11.33 23.07C11.56 23.04 11.795 23.005 12.035 22.965L12.08 23.025C11.96 23.445 11.855 23.845 11.765 24.225C11.675 24.595 11.585 24.975 11.495 25.365L10.805 28.335C10.795 28.405 10.775 28.495 10.745 28.605C10.715 28.715 10.7 28.82 10.7 28.92C10.7 29.01 10.72 29.0851 10.76 29.1451C10.8 29.205 10.87 29.2351 10.97 29.2351C11.14 29.2351 11.355 29.145 11.615 28.965C11.875 28.785 12.11 28.5651 12.32 28.305C12.45 28.3951 12.565 28.495 12.665 28.605C12.325 29.055 11.96 29.43 11.57 29.73C11.18 30.03 10.74 30.18 10.25 30.18C9.88 30.18 9.615 30.09 9.455 29.91C9.295 29.72 9.215 29.485 9.215 29.205C9.215 28.935 9.27 28.625 9.38 28.275H9.305C8.935 28.915 8.535 29.3901 8.105 29.7001C7.685 30.0101 7.255 30.1651 6.815 30.1651ZM10.295 24.105C10.085 23.915 9.865 23.765 9.635 23.655C9.405 23.535 9.17 23.475 8.93 23.475C8.56 23.475 8.23 23.61 7.94 23.88C7.65 24.15 7.405 24.5 7.205 24.93C7.005 25.35 6.855 25.805 6.755 26.295C6.655 26.775 6.605 27.235 6.605 27.675C6.605 28.275 6.685 28.685 6.845 28.905C7.005 29.115 7.195 29.22 7.415 29.22C7.675 29.22 7.96 29.095 8.27 28.845C8.59 28.585 8.9 28.175 9.2 27.615C9.51 27.045 9.775 26.295 9.995 25.365L10.295 24.105Z" fill="#454545"/>
</svg>
