<svg width="52" height="52" viewBox="0 0 52 52" fill="none" xmlns="http://www.w3.org/2000/svg">
<rect width="52" height="52" rx="4" fill="#D0F0FD"/>
<path d="M7.50759 26.4881C7.50759 26.4881 7.40025 26.4881 7.18558 26.4881C6.97091 26.4881 6.79039 26.4149 6.64402 26.2685C6.49765 26.1221 6.42447 25.9319 6.42447 25.6977C6.42447 25.3561 6.59035 25.0537 6.92212 24.7902C7.25388 24.5267 7.84423 24.395 8.69317 24.395C9.40549 24.395 9.9812 24.5511 10.4203 24.8634C10.8594 25.1756 11.1521 25.5464 11.2985 25.9758C11.3473 26.1124 11.3717 26.2636 11.3717 26.4295C11.3717 26.5954 11.3766 27.1565 11.3863 28.1127V29.1373C11.3863 29.6057 11.4107 29.9277 11.4595 30.1033C11.5083 30.279 11.6108 30.3668 11.7669 30.3668C11.9133 30.3668 12.0108 30.2887 12.0596 30.1326C12.1084 29.9765 12.1328 29.7179 12.1328 29.3569V28.8299H12.7183V29.4008C12.7085 29.7911 12.6939 30.0204 12.6744 30.0887C12.5865 30.3814 12.4158 30.6108 12.1621 30.7766C11.9084 30.9425 11.64 31.0303 11.3571 31.0401C11.0741 31.0499 10.8448 30.962 10.6691 30.7766C10.4935 30.5912 10.3764 30.3863 10.3178 30.1619V30.1033L10.2886 30.1473C10.2691 30.1765 10.2447 30.2058 10.2154 30.2351C10.1861 30.2643 10.1471 30.3083 10.0983 30.3668C10.0495 30.4254 9.99096 30.479 9.92266 30.5278C9.85435 30.5766 9.78117 30.6351 9.7031 30.7035C9.62504 30.7718 9.53722 30.8254 9.43964 30.8645C9.34206 30.9035 9.23473 30.9425 9.11763 30.9816C9.00054 31.0206 8.87369 31.0499 8.73708 31.0694C8.60047 31.0889 8.44922 31.1035 8.28334 31.1133C7.69787 31.1133 7.17094 30.962 6.70257 30.6595C6.23419 30.357 6 29.9326 6 29.3861C6 29.1812 6.03415 28.9861 6.10246 28.8007C6.17076 28.6153 6.30249 28.4152 6.49765 28.2006C6.69281 27.9859 6.927 27.8054 7.20022 27.659C7.47344 27.5126 7.85399 27.376 8.34188 27.2492C8.82978 27.1223 9.36646 27.0491 9.95193 27.0296H10.1568V26.7076C10.1568 26.3758 10.1276 26.1319 10.069 25.9758C9.85435 25.283 9.3811 24.9366 8.64926 24.9366C8.47362 24.9366 8.30773 24.9414 8.15161 24.9512C7.99548 24.961 7.87351 24.9805 7.78569 25.0097C7.69787 25.039 7.65883 25.0537 7.66859 25.0537C7.88327 25.2 7.9906 25.4147 7.9906 25.6977C7.9906 25.9416 7.91254 26.1319 7.75641 26.2685L7.50759 26.4881ZM7.34658 29.4008C7.34658 29.7033 7.46368 29.9716 7.69787 30.2058C7.93205 30.44 8.21991 30.562 8.56144 30.5717C8.93223 30.5717 9.25912 30.4595 9.5421 30.2351C9.82508 30.0106 10.0154 29.7179 10.1129 29.3569C10.1325 29.2886 10.1471 28.9666 10.1568 28.3908C10.1568 27.8249 10.152 27.5419 10.1422 27.5419C10.0641 27.5419 9.96169 27.5468 9.83484 27.5565C9.70798 27.5663 9.48843 27.6102 9.17618 27.6883C8.86393 27.7663 8.58095 27.8639 8.32725 27.981C8.07354 28.0981 7.84911 28.2786 7.65396 28.5226C7.4588 28.7665 7.35634 29.0593 7.34658 29.4008Z" fill="#111928"/>
<path d="M13.3436 30.2789H13.5485C13.929 30.2789 14.1583 30.2106 14.2364 30.0739V29.9568C14.2364 29.869 14.2364 29.7568 14.2364 29.6202C14.2364 29.4836 14.2413 29.3323 14.251 29.1665C14.2608 29.0006 14.2608 28.8103 14.251 28.5956C14.2413 28.381 14.2413 28.176 14.251 27.9809C14.251 27.6784 14.251 27.3564 14.251 27.0149C14.251 26.6733 14.251 26.3855 14.251 26.1513L14.2364 25.8146C14.2071 25.6292 14.1388 25.5073 14.0315 25.4487C13.9242 25.3902 13.7046 25.3463 13.3728 25.317H13.1094V24.9803C13.1094 24.7559 13.1191 24.6437 13.1386 24.6437L13.285 24.6291C13.3826 24.6193 13.5192 24.6095 13.6948 24.5998C13.8705 24.59 14.0461 24.5803 14.2218 24.5705C14.3779 24.5608 14.5487 24.551 14.7341 24.5412C14.9195 24.5315 15.0609 24.5168 15.1585 24.4973C15.2561 24.4778 15.3098 24.4729 15.3195 24.4827H15.3634V25.4926C15.744 24.8291 16.2173 24.4973 16.7832 24.4973H16.871C17.3101 24.4973 17.6321 24.6047 17.8371 24.8193C18.042 25.034 18.1444 25.2584 18.1444 25.4926C18.1444 25.6975 18.081 25.8732 17.9541 26.0196C17.8273 26.1659 17.6419 26.2391 17.398 26.2391C17.154 26.2391 16.9735 26.161 16.8564 26.0049C16.7393 25.8488 16.6759 25.6829 16.6661 25.5073C16.6661 25.4194 16.6759 25.3414 16.6954 25.2731C16.7149 25.2048 16.7393 25.1462 16.7686 25.0974C16.7978 25.0486 16.8125 25.0243 16.8125 25.0243C16.793 25.0047 16.6807 25.0243 16.4758 25.0828C16.3197 25.1609 16.2026 25.234 16.1246 25.3024C15.6659 25.7415 15.4366 26.6148 15.4366 27.9223V28.6981C15.4366 28.8249 15.4366 28.9567 15.4366 29.0933C15.4366 29.2299 15.4366 29.3567 15.4366 29.4738C15.4366 29.5909 15.4415 29.6885 15.4513 29.7666C15.461 29.8446 15.461 29.9178 15.4513 29.9861V30.0593C15.461 30.0788 15.4757 30.0983 15.4952 30.1179C15.5147 30.1374 15.5391 30.152 15.5684 30.1618C15.5976 30.1715 15.622 30.1862 15.6415 30.2057C15.6611 30.2252 15.6952 30.2349 15.744 30.2349C15.7928 30.2349 15.8269 30.2398 15.8465 30.2496C15.866 30.2593 15.9099 30.2642 15.9782 30.2642C16.0465 30.2642 16.0904 30.2642 16.1099 30.2642C16.1294 30.2642 16.1782 30.2691 16.2563 30.2789C16.3343 30.2886 16.3831 30.2886 16.4026 30.2789H16.8564V30.9521H16.7247C16.549 30.9229 15.9294 30.9082 14.8658 30.9082C13.8607 30.9082 13.3143 30.9229 13.2265 30.9521H13.1094V30.2789H13.3436Z" fill="#111928"/>
<path d="M23.9736 26.4881C23.9736 26.4881 23.8712 26.4881 23.6662 26.4881C23.4613 26.4881 23.2857 26.4149 23.1393 26.2685C22.993 26.1221 22.9149 25.9367 22.9051 25.7123C22.9051 25.4879 22.9783 25.3025 23.1247 25.1561C23.1735 25.1073 23.1979 25.0781 23.1979 25.0683C23.1979 25.0585 23.1491 25.0488 23.0515 25.039C22.7978 25 22.5587 24.9805 22.3343 24.9805C21.8562 24.9805 21.4659 25.1366 21.1634 25.4488C20.7047 25.9075 20.4754 26.6735 20.4754 27.7468C20.4754 28.547 20.6267 29.1763 20.9292 29.635C21.3292 30.2302 21.8659 30.5278 22.5392 30.5278C22.9393 30.5278 23.2613 30.401 23.5052 30.1473C23.7492 29.8936 23.9248 29.5911 24.0322 29.2398C24.0517 29.1617 24.0761 29.1129 24.1054 29.0934C24.1346 29.0739 24.2127 29.0641 24.3395 29.0641H24.5445C24.603 29.1227 24.6323 29.1666 24.6323 29.1959C24.6323 29.2349 24.6128 29.313 24.5737 29.4301C24.5347 29.5471 24.4566 29.7082 24.3395 29.9131C24.2224 30.118 24.081 30.3034 23.9151 30.4693C23.7492 30.6351 23.515 30.7864 23.2125 30.923C22.91 31.0596 22.5734 31.123 22.2026 31.1133C21.3634 31.1133 20.6316 30.801 20.0071 30.1765C19.3826 29.552 19.0654 28.7665 19.0557 27.82C19.0557 26.8052 19.3728 25.9807 20.0071 25.3464C20.6413 24.7121 21.378 24.395 22.2172 24.395C23.0564 24.395 23.6419 24.5267 23.9736 24.7902C24.3054 25.0537 24.4713 25.3659 24.4713 25.7269C24.4713 25.9514 24.3883 26.1319 24.2224 26.2685L23.9736 26.4881Z" fill="#111928"/>
<path d="M25.453 24.7755C25.9702 24.7365 26.3703 24.4633 26.6532 23.9559C26.9362 23.4485 27.0923 22.8532 27.1216 22.1702V21.9506H27.7071V24.6438H29.683V25.3171H27.7071V27.4248C27.7168 28.6445 27.7217 29.3325 27.7217 29.4886C27.7217 29.6447 27.7559 29.8008 27.8242 29.957C27.9608 30.3375 28.1999 30.5278 28.5414 30.5278C28.9707 30.5278 29.2342 30.1814 29.3318 29.4886C29.3415 29.4105 29.3464 29.1861 29.3464 28.8153V28.303H29.9319V28.8153V28.9909C29.9319 29.7423 29.727 30.3131 29.3171 30.7034C29.0537 30.9669 28.7121 31.0986 28.2926 31.0986C27.9608 31.0986 27.6729 31.0401 27.429 30.923C27.185 30.8059 26.9996 30.6547 26.8728 30.4693C26.7459 30.2839 26.6532 30.1131 26.5947 29.957C26.5361 29.8008 26.502 29.6447 26.4922 29.4886C26.4825 29.4203 26.4776 28.6982 26.4776 27.3223V25.3171H25.3213V24.7755H25.453Z" fill="#111928"/>
<path d="M32.7576 26.4881C32.7576 26.4881 32.6503 26.4881 32.4356 26.4881C32.2209 26.4881 32.0404 26.4149 31.894 26.2685C31.7477 26.1221 31.6745 25.9319 31.6745 25.6977C31.6745 25.3561 31.8403 25.0537 32.1721 24.7902C32.5039 24.5267 33.0942 24.395 33.9432 24.395C34.6555 24.395 35.2312 24.5511 35.6703 24.8634C36.1094 25.1756 36.4021 25.5464 36.5485 25.9758C36.5973 26.1124 36.6217 26.2636 36.6217 26.4295C36.6217 26.5954 36.6266 27.1565 36.6363 28.1127V29.1373C36.6363 29.6057 36.6607 29.9277 36.7095 30.1033C36.7583 30.279 36.8608 30.3668 37.0169 30.3668C37.1633 30.3668 37.2608 30.2887 37.3096 30.1326C37.3584 29.9765 37.3828 29.7179 37.3828 29.3569V28.8299H37.9683V29.4008C37.9585 29.7911 37.9439 30.0204 37.9244 30.0887C37.8365 30.3814 37.6658 30.6108 37.4121 30.7766C37.1584 30.9425 36.89 31.0303 36.6071 31.0401C36.3241 31.0499 36.0948 30.962 35.9191 30.7766C35.7435 30.5912 35.6264 30.3863 35.5678 30.1619V30.1033L35.5386 30.1473C35.5191 30.1765 35.4947 30.2058 35.4654 30.2351C35.4361 30.2643 35.3971 30.3083 35.3483 30.3668C35.2995 30.4254 35.241 30.479 35.1727 30.5278C35.1044 30.5766 35.0312 30.6351 34.9531 30.7035C34.875 30.7718 34.7872 30.8254 34.6896 30.8645C34.5921 30.9035 34.4847 30.9425 34.3676 30.9816C34.2505 31.0206 34.1237 31.0499 33.9871 31.0694C33.8505 31.0889 33.6992 31.1035 33.5333 31.1133C32.9479 31.1133 32.4209 30.962 31.9526 30.6595C31.4842 30.357 31.25 29.9326 31.25 29.3861C31.25 29.1812 31.2842 28.9861 31.3525 28.8007C31.4208 28.6153 31.5525 28.4152 31.7477 28.2006C31.9428 27.9859 32.177 27.8054 32.4502 27.659C32.7234 27.5126 33.104 27.376 33.5919 27.2492C34.0798 27.1223 34.6165 27.0491 35.2019 27.0296H35.4068V26.7076C35.4068 26.3758 35.3776 26.1319 35.319 25.9758C35.1044 25.283 34.6311 24.9366 33.8993 24.9366C33.7236 24.9366 33.5577 24.9414 33.4016 24.9512C33.2455 24.961 33.1235 24.9805 33.0357 25.0097C32.9479 25.039 32.9088 25.0537 32.9186 25.0537C33.1333 25.2 33.2406 25.4147 33.2406 25.6977C33.2406 25.9416 33.1625 26.1319 33.0064 26.2685L32.7576 26.4881ZM32.5966 29.4008C32.5966 29.7033 32.7137 29.9716 32.9479 30.2058C33.1821 30.44 33.4699 30.562 33.8114 30.5717C34.1822 30.5717 34.5091 30.4595 34.7921 30.2351C35.0751 30.0106 35.2654 29.7179 35.3629 29.3569C35.3825 29.2886 35.3971 28.9666 35.4068 28.3908C35.4068 27.8249 35.402 27.5419 35.3922 27.5419C35.3141 27.5419 35.2117 27.5468 35.0848 27.5565C34.958 27.5663 34.7384 27.6102 34.4262 27.6883C34.1139 27.7663 33.831 27.8639 33.5772 27.981C33.3235 28.0981 33.0991 28.2786 32.904 28.5226C32.7088 28.7665 32.6063 29.0593 32.5966 29.4008Z" fill="#111928"/>
<path d="M38.6668 30.2789H38.8717C39.2523 30.2789 39.4816 30.2106 39.5596 30.0739V29.9568C39.5596 29.869 39.5596 29.7568 39.5596 29.6202C39.5596 29.4836 39.5596 29.3323 39.5596 29.1665C39.5596 29.0006 39.5645 28.8103 39.5743 28.5956C39.584 28.381 39.584 28.176 39.5743 27.9809C39.5743 27.6784 39.5743 27.3564 39.5743 27.0149C39.5743 26.6733 39.5694 26.3855 39.5596 26.1513V25.8146C39.5304 25.6292 39.4621 25.5073 39.3547 25.4487C39.2474 25.3902 39.0278 25.3463 38.6961 25.317H38.4326V24.9803C38.4326 24.7559 38.4424 24.6437 38.4619 24.6437L38.6083 24.6291C38.7058 24.6193 38.8424 24.6095 39.0181 24.5998C39.1937 24.59 39.3742 24.5803 39.5596 24.5705C39.7255 24.5608 39.9012 24.551 40.0866 24.5412C40.272 24.5315 40.4135 24.5168 40.511 24.4973C40.6086 24.4778 40.6623 24.4729 40.672 24.4827H40.716V25.0682C40.716 25.439 40.7208 25.6244 40.7306 25.6244C40.7403 25.6244 40.7647 25.6 40.8038 25.5512C40.8428 25.5024 40.9014 25.4292 40.9794 25.3316C41.0575 25.234 41.1502 25.1462 41.2575 25.0682C41.3649 24.9901 41.5063 24.8974 41.682 24.7901C41.8576 24.6827 42.043 24.6047 42.2382 24.5559C42.4333 24.5071 42.6822 24.4827 42.9847 24.4827C44.0971 24.5217 44.7167 25.073 44.8435 26.1366C44.8533 26.205 44.8582 26.8831 44.8582 28.1712V29.4299C44.8582 29.8007 44.8679 30.0203 44.8874 30.0886C44.907 30.1569 44.9606 30.2057 45.0484 30.2349C45.2534 30.2642 45.4924 30.2789 45.7656 30.2789H45.9998V30.9521H45.8827L45.5315 30.9375C45.307 30.9278 45.0631 30.9229 44.7996 30.9229C44.5362 30.9229 44.3508 30.918 44.2434 30.9082C43.2384 30.9082 42.6919 30.9229 42.6041 30.9521H42.487V30.2789H42.7212C43.3164 30.2789 43.614 30.2008 43.614 30.0447C43.6238 30.0252 43.6287 29.3519 43.6287 28.0248C43.6189 26.7075 43.6092 26.0098 43.5994 25.9317C43.5409 25.6585 43.4433 25.4536 43.3067 25.317C43.1701 25.1804 43.053 25.0974 42.9554 25.0682C42.8578 25.0389 42.731 25.0291 42.5748 25.0389C42.1357 25.0389 41.7503 25.2048 41.4185 25.5365C41.1551 25.8 40.9892 26.0683 40.9209 26.3416C40.8526 26.6148 40.8135 27.0197 40.8038 27.5564V28.4932V29.3714C40.8038 29.6641 40.8087 29.8593 40.8184 29.9568C40.8282 30.0544 40.8428 30.1179 40.8623 30.1471C40.8818 30.1764 40.9257 30.2057 40.9941 30.2349C41.199 30.2642 41.438 30.2789 41.7113 30.2789H41.9454V30.9521H41.8283L41.4917 30.9375C41.2575 30.9278 41.0087 30.9229 40.7452 30.9229C40.4818 30.9229 40.2964 30.918 40.189 30.9082C39.184 30.9082 38.6375 30.9229 38.5497 30.9521H38.4326V30.2789H38.6668Z" fill="#111928"/>
</svg>
