<svg width="52" height="52" viewBox="0 0 52 52" fill="none" xmlns="http://www.w3.org/2000/svg">
<path d="M32.1895 16C34.4995 19.66 38.43 23.6797 42 25.9297C38.43 28.2097 34.4994 32.2297 32.1895 35.8896L30.4199 34.8691C31.1399 33.6992 32.13 32.3793 33.21 31.1494C33.7359 30.6436 34.2234 30.0994 34.6689 29.5215L35.0098 29.0791C35.0719 29.0154 35.1349 28.9527 35.1973 28.8896H16.8018C16.8644 28.953 16.9277 29.016 16.9902 29.0801C17.3291 29.3591 17.6368 29.6746 17.9072 30.0205L18.79 31.1504C19.87 32.3804 20.8601 33.7002 21.5801 34.8701L19.8105 35.8896C17.5005 32.2297 13.57 28.2099 10 25.96C13.57 23.68 17.5006 19.66 19.8105 16L21.5801 17.0205C20.8601 18.1904 19.87 19.5103 18.79 20.7402C18.2641 21.2461 17.7765 21.7903 17.3311 22.3682L16.9902 22.8105C16.9281 22.8743 16.8651 22.9369 16.8027 23H35.1982C35.1356 22.9366 35.0723 22.8736 35.0098 22.8096C34.6709 22.5305 34.3632 22.215 34.0928 21.8691L33.21 20.7393C32.13 19.5093 31.1399 18.1895 30.4199 17.0195L32.1895 16ZM14.6592 25C14.2453 25.3515 13.8408 25.6749 13.4502 25.96C13.8377 26.2323 14.239 26.5458 14.6494 26.8896H37.3408C37.7547 26.5382 38.1592 26.2148 38.5498 25.9297C38.1623 25.6574 37.761 25.3438 37.3506 25H14.6592Z" fill="#454545"/>
</svg>
