<svg width="52" height="52" viewBox="0 0 52 52" fill="none" xmlns="http://www.w3.org/2000/svg">
<rect width="52" height="52" rx="4" fill="#D0F0FD"/>
<path d="M11 15.9423C11 15.1316 11.2806 14.4612 11.8419 13.9312C12.4031 13.4011 13.0735 13.1361 13.853 13.1361C14.6013 13.1361 15.2405 13.4011 15.7706 13.9312C16.3006 14.4612 16.5812 15.1316 16.6124 15.9423C16.6436 16.753 16.3786 17.4233 15.8173 17.9534C15.2561 18.4835 14.5857 18.7485 13.8062 18.7485C12.9955 18.7485 12.3252 18.4835 11.7951 17.9534C11.265 17.4233 11 16.753 11 15.9423ZM34.3851 15.9423C34.3851 15.1316 34.6657 14.4612 35.227 13.9312C35.7882 13.4011 36.4586 13.1361 37.2381 13.1361C37.9864 13.1361 38.6256 13.4011 39.1557 13.9312C39.6857 14.4612 39.9664 15.1316 39.9975 15.9423C40.0287 16.753 39.7637 17.4233 39.2024 17.9534C38.6412 18.4835 37.9708 18.7485 37.1913 18.7485C36.3806 18.7485 35.7103 18.4835 35.1802 17.9534C34.6501 17.4233 34.3851 16.753 34.3851 15.9423ZM22.7393 36.1938C22.7393 35.3831 23.0044 34.7127 23.5344 34.1827C24.0645 33.6526 24.7349 33.3876 25.5455 33.3876C26.2315 33.3876 26.8551 33.637 27.4163 34.1359C27.9776 34.6348 28.2582 35.3207 28.2582 36.1938C28.2582 37.0668 27.9932 37.7372 27.4631 38.2049C26.9331 38.6726 26.2783 38.9376 25.4988 39C24.6881 39 24.0333 38.735 23.5344 38.2049C23.0355 37.6748 22.7705 37.0045 22.7393 36.1938Z" fill="black"/>
</svg>
