<svg width="52" height="52" viewBox="0 0 52 52" fill="none" xmlns="http://www.w3.org/2000/svg">
<path d="M24.16 12C26.5333 12 28.52 12.2267 30.12 12.68C31.7467 13.1333 32.96 13.88 33.76 14.92C34.5867 15.96 35 17.3467 35 19.08C35 20.2 34.7867 21.2 34.36 22.08C33.96 22.9333 33.3467 23.6533 32.52 24.24C31.72 24.8 30.7333 25.1867 29.56 25.4V25.6C30.76 25.7867 31.84 26.1333 32.8 26.64C33.7867 27.1467 34.56 27.8667 35.12 28.8C35.68 29.7333 35.96 30.9467 35.96 32.44C35.96 34.1733 35.56 35.6533 34.76 36.88C33.96 38.08 32.8133 39 31.32 39.64C29.8533 40.2533 28.0933 40.56 26.04 40.56H16V12H24.16ZM24.88 24.16C27.3333 24.16 29.0133 23.7733 29.92 23C30.8267 22.2 31.28 21.0267 31.28 19.48C31.28 17.9067 30.72 16.7867 29.6 16.12C28.5067 15.4267 26.7467 15.08 24.32 15.08H19.6V24.16H24.88ZM19.6 27.16V37.52H25.36C27.8933 37.52 29.6533 37.0267 30.64 36.04C31.6267 35.0533 32.12 33.76 32.12 32.16C32.12 31.1467 31.8933 30.2667 31.44 29.52C31.0133 28.7733 30.28 28.2 29.24 27.8C28.2267 27.3733 26.84 27.16 25.08 27.16H19.6Z" fill="#454545"/>
</svg>
