<svg width="53" height="53" viewBox="0 0 53 53" fill="none" xmlns="http://www.w3.org/2000/svg">
<g filter="url(#filter0_d)">
<rect width="52" height="52" fill="white"/>
<path d="M21.5637 41.8799C21.5637 41.9066 21.537 41.9466 21.4837 42H21.0702C21.0524 41.9822 20.9279 41.8622 20.6967 41.6398C20.4655 41.4175 20.2654 41.2263 20.0964 41.0663C19.9275 40.9062 19.6874 40.635 19.3761 40.2526C19.0649 39.8702 18.7892 39.5101 18.5491 39.1721C18.309 38.8342 18.0289 38.3851 17.7088 37.8249C17.3886 37.2647 17.113 36.7089 16.8817 36.1575C16.6505 35.6062 16.406 34.9437 16.1481 34.17C15.8902 33.3964 15.6901 32.6138 15.5478 31.8224C15.4056 31.031 15.2766 30.1283 15.161 29.1146C15.0454 28.1008 14.9921 27.0604 15.001 25.9933C15.001 19.6706 16.6194 14.7352 19.8563 11.1871C20.0609 10.9647 20.252 10.7691 20.4299 10.6001C20.6078 10.4312 20.7545 10.2889 20.8701 10.1733C20.9857 10.0577 21.0524 9.9999 21.0702 9.9999H21.4837C21.537 10.0533 21.5637 10.0933 21.5637 10.1199C21.5637 10.1644 21.4748 10.28 21.2969 10.4668C21.1191 10.6535 20.8879 10.9158 20.6033 11.2538C20.3187 11.5917 19.9986 12.0141 19.6429 12.521C19.2872 13.0278 18.927 13.6637 18.5624 14.4284C18.1979 15.1932 17.8599 16.0424 17.5487 16.9762C17.2374 17.9099 16.9707 19.0304 16.7484 20.3376C16.526 21.6448 16.3838 23.0498 16.3215 24.5527C16.3037 24.8906 16.2948 25.3752 16.2948 26.0066C16.2948 29.4658 16.7128 32.4893 17.5487 35.0771C18.3846 37.6648 19.674 39.8613 21.417 41.6665C21.5148 41.7732 21.5637 41.8444 21.5637 41.8799Z" fill="black"/>
<path d="M22.3107 16.4959C22.3196 16.4426 22.3329 16.3714 22.3507 16.2825C22.3685 16.1936 22.4218 16.0246 22.5108 15.7756C22.5997 15.5266 22.6886 15.3177 22.7775 15.1487C22.8665 14.9798 23.0132 14.8152 23.2177 14.6552C23.4222 14.4951 23.6268 14.4195 23.8313 14.4284C24.1514 14.4284 24.4182 14.5084 24.6316 14.6685C24.8451 14.8286 24.9785 14.9798 25.0318 15.122C25.0852 15.2643 25.1118 15.3577 25.1118 15.4022C25.1118 15.4199 25.1163 15.4288 25.1252 15.4288L25.2719 15.2821C25.8144 14.713 26.4324 14.4284 27.126 14.4284C27.6062 14.4284 27.9931 14.5485 28.2865 14.7886C28.58 15.0287 28.7311 15.3799 28.74 15.8423C28.7489 16.3048 28.58 17.0028 28.2332 17.9365C27.8863 18.8703 27.7174 19.435 27.7263 19.6306C27.7263 19.8618 27.8019 19.9774 27.953 19.9774C28.0064 19.9774 28.0464 19.973 28.0731 19.9641C28.331 19.9196 28.5622 19.7506 28.7667 19.4572C28.9712 19.1637 29.1269 18.808 29.2336 18.3901C29.2514 18.3189 29.3403 18.2834 29.5004 18.2834C29.6782 18.2834 29.7671 18.3189 29.7671 18.3901C29.7671 18.399 29.7493 18.4657 29.7138 18.5902C29.6426 18.848 29.5448 19.1015 29.4203 19.3505C29.2958 19.5995 29.0913 19.8485 28.8067 20.0975C28.5222 20.3465 28.2154 20.4665 27.8863 20.4576C27.4684 20.4576 27.166 20.3376 26.9793 20.0975C26.7926 19.8574 26.6992 19.6084 26.6992 19.3505C26.6992 19.1815 26.8592 18.648 27.1794 17.7498C27.4995 16.8516 27.664 16.1758 27.6729 15.7223C27.6729 15.1976 27.4773 14.9353 27.086 14.9353H27.0193C26.2545 14.9353 25.6098 15.3844 25.0852 16.2825L24.9918 16.4426L24.5516 18.23C24.2582 19.3949 24.0892 20.0219 24.0447 20.1108C23.9291 20.3509 23.7379 20.4709 23.4712 20.4709C23.3556 20.4709 23.2622 20.4443 23.191 20.3909C23.1199 20.3376 23.071 20.2842 23.0443 20.2308C23.0176 20.1775 23.0087 20.133 23.0176 20.0975C23.0176 19.9819 23.1866 19.2571 23.5245 17.9232C23.8624 16.5893 24.0403 15.8646 24.0581 15.749C24.067 15.7045 24.0714 15.6022 24.0714 15.4422C24.0714 15.0954 23.9647 14.922 23.7513 14.922C23.4134 14.922 23.1332 15.3666 22.9109 16.2558C22.8576 16.4337 22.8309 16.5271 22.8309 16.536C22.8131 16.5893 22.7286 16.616 22.5774 16.616H22.3907C22.3373 16.5626 22.3107 16.5226 22.3107 16.4959Z" fill="black"/>
<path d="M24.1715 29.8614C24.1715 29.7725 24.1893 29.6702 24.2249 29.5546C24.2604 29.439 24.3138 29.3812 24.3849 29.3812C24.3938 29.3812 24.7139 29.359 25.3453 29.3145C25.9767 29.2701 26.3013 29.2434 26.3191 29.2345C26.4258 29.2345 26.4791 29.2701 26.4791 29.3412C26.4791 29.4034 26.2568 30.3327 25.8122 32.129C25.3676 33.8898 25.1452 34.8013 25.1452 34.8635C25.3142 34.7746 25.4431 34.6901 25.5321 34.6101C25.7455 34.45 26.0523 34.1699 26.4525 33.7697C26.8526 33.3695 27.1639 33.0983 27.3862 32.956C27.7419 32.7159 28.0798 32.5959 28.3999 32.5959C28.6667 32.5959 28.8757 32.6804 29.0269 32.8493C29.178 33.0183 29.2581 33.2584 29.267 33.5696C29.267 33.7919 29.2358 33.9787 29.1736 34.1299C29.1113 34.281 29.0269 34.3922 28.9202 34.4633C28.8134 34.5345 28.7201 34.5834 28.64 34.6101C28.56 34.6367 28.48 34.6501 28.3999 34.6501C28.2221 34.6501 28.0798 34.6012 27.9731 34.5034C27.8664 34.4055 27.813 34.2766 27.813 34.1165C27.813 33.8942 27.8842 33.7119 28.0264 33.5696C28.1687 33.4274 28.311 33.334 28.4533 33.2895L28.6667 33.2495C28.56 33.1428 28.4533 33.0894 28.3466 33.0894H28.2932C28.0087 33.1161 27.7285 33.2273 27.4529 33.4229C27.1772 33.6185 26.8526 33.9031 26.4791 34.2766C26.1056 34.6501 25.8122 34.9213 25.5988 35.0903C25.6165 35.0992 25.6832 35.1125 25.7988 35.1303C25.9144 35.1481 26.0212 35.1748 26.119 35.2103C26.2168 35.2459 26.3324 35.2815 26.4658 35.317C26.5992 35.3526 26.7192 35.4149 26.8259 35.5038C26.9327 35.5927 27.0305 35.6727 27.1194 35.7439C27.2083 35.815 27.2839 35.9306 27.3462 36.0907C27.4084 36.2508 27.4351 36.3975 27.4262 36.5309C27.4262 36.6821 27.404 36.8643 27.3595 37.0778C27.315 37.2912 27.2884 37.469 27.2795 37.6113C27.2795 37.967 27.3995 38.1449 27.6396 38.1449C28.0665 38.1449 28.4133 37.6158 28.6801 36.5576C28.6978 36.4864 28.7868 36.4508 28.9468 36.4508H29.0002C29.1425 36.4508 29.2136 36.4909 29.2136 36.5709C29.2136 36.6154 29.2003 36.6776 29.1736 36.7576C28.809 38.0115 28.2843 38.6384 27.5996 38.6384C27.1994 38.6384 26.8749 38.5228 26.6259 38.2916C26.3769 38.0604 26.2524 37.7269 26.2524 37.2912C26.2524 37.1311 26.2657 36.9933 26.2924 36.8777C26.3191 36.7621 26.3324 36.6554 26.3324 36.5576C26.3324 36.3619 26.2702 36.193 26.1457 36.0507C26.0212 35.9084 25.8655 35.8061 25.6788 35.7439C25.4921 35.6816 25.3409 35.6327 25.2253 35.5972C25.1097 35.5616 25.0296 35.5482 24.9852 35.5571H24.9585C24.8518 35.9306 24.7584 36.2908 24.6784 36.6376C24.5983 36.9844 24.5361 37.2423 24.4916 37.4112C24.4472 37.5802 24.4072 37.7447 24.3716 37.9048C24.336 38.0649 24.3049 38.1716 24.2782 38.2249C24.2515 38.2783 24.2204 38.3361 24.1848 38.3983C24.1493 38.4606 24.1004 38.5006 24.0381 38.5184C23.9225 38.5984 23.798 38.6384 23.6646 38.6384C23.5134 38.6384 23.3978 38.594 23.3178 38.505C23.2378 38.4161 23.1978 38.3405 23.1978 38.2783C23.1978 38.1894 23.3623 37.4779 23.6913 36.144C24.0203 34.8102 24.3449 33.4985 24.665 32.2091L25.1586 30.2749C25.1675 30.1593 25.1363 30.0882 25.0652 30.0615C24.9941 30.0348 24.8207 30.0126 24.545 29.9948H24.4783C24.3894 29.9948 24.3316 29.9948 24.3049 29.9948C24.2782 29.9948 24.2471 29.9815 24.2115 29.9548C24.1759 29.9281 24.1626 29.897 24.1715 29.8614Z" fill="black"/>
<path d="M30.4874 10.16C30.4874 10.0888 30.5008 10.0444 30.5274 10.0266C30.5541 10.0088 30.6119 9.9999 30.7008 9.9999H30.7809H30.981C30.9988 10.0177 31.1232 10.1377 31.3545 10.3601C31.5857 10.5824 31.7857 10.7736 31.9547 10.9336C32.1237 11.0937 32.3638 11.3649 32.675 11.7473C32.9863 12.1297 33.2619 12.4898 33.502 12.8278C33.7421 13.1657 34.0222 13.6147 34.3424 14.175C34.6625 14.7352 34.9382 15.2866 35.1694 15.829C35.4006 16.3715 35.6451 17.034 35.903 17.8165C36.1609 18.5991 36.361 19.3816 36.5033 20.1642C36.6456 20.9467 36.7745 21.8493 36.8901 22.872C37.0057 23.8946 37.0591 24.9351 37.0502 25.9933C37.0502 27.0337 37.0191 27.9141 36.9568 28.6344C36.5389 33.721 34.9515 37.7805 32.1948 40.8128C31.9903 41.0352 31.7991 41.2308 31.6212 41.3997C31.4434 41.5687 31.2967 41.711 31.1811 41.8266C31.0654 41.9422 30.9988 42 30.981 42H30.7809C30.6653 42 30.5897 41.9911 30.5541 41.9733C30.5186 41.9555 30.4963 41.9111 30.4874 41.8399C30.9676 41.3597 31.4389 40.8084 31.9014 40.1859C34.4624 36.78 35.743 32.0492 35.743 25.9933C35.743 24.197 35.6274 22.5207 35.3962 20.9645C35.1649 19.4083 34.8804 18.1011 34.5425 17.0429C34.2045 15.9846 33.791 14.9887 33.3019 14.0549C32.8128 13.1212 32.3682 12.3965 31.968 11.8807C31.5679 11.3649 31.1277 10.8491 30.6475 10.3334C30.6297 10.3156 30.6119 10.2978 30.5941 10.28C30.5764 10.2622 30.563 10.2444 30.5541 10.2267C30.5452 10.2089 30.5319 10.1955 30.5141 10.1866L30.4874 10.16Z" fill="black"/>
</g>
<defs>
<filter id="filter0_d" x="0" y="0" width="53" height="53" filterUnits="userSpaceOnUse" color-interpolation-filters="sRGB">
<feFlood flood-opacity="0" result="BackgroundImageFix"/>
<feColorMatrix in="SourceAlpha" type="matrix" values="0 0 0 0 0 0 0 0 0 0 0 0 0 0 0 0 0 0 127 0"/>
<feOffset dx="1" dy="1"/>
<feColorMatrix type="matrix" values="0 0 0 0 0 0 0 0 0 0 0 0 0 0 0 0 0 0 0.25 0"/>
<feBlend mode="normal" in2="BackgroundImageFix" result="effect1_dropShadow"/>
<feBlend mode="normal" in="SourceGraphic" in2="effect1_dropShadow" result="shape"/>
</filter>
</defs>
</svg>
