<svg width="52" height="52" viewBox="0 0 52 52" fill="none" xmlns="http://www.w3.org/2000/svg">
<rect width="51.9997" height="52" rx="4" fill="#D0F0FD"/>
<path d="M21.5587 41.8878C21.5587 41.9145 21.532 41.9545 21.4787 42.0079H21.0652C21.0474 41.9901 20.9229 41.8701 20.6917 41.6477C20.4605 41.4254 20.2604 41.2342 20.0914 41.0742C19.9225 40.9141 19.6824 40.6429 19.3711 40.2605C19.0599 39.8781 18.7843 39.518 18.5442 39.18C18.3041 38.8421 18.024 38.393 17.7039 37.8328C17.3837 37.2726 17.1081 36.7168 16.8768 36.1654C16.6456 35.6141 16.4011 34.9516 16.1432 34.1779C15.8853 33.4043 15.6852 32.6217 15.5429 31.8303C15.4007 31.0389 15.2717 30.1362 15.1561 29.1225C15.0405 28.1087 14.9872 27.0683 14.9961 26.0012C14.9961 19.6785 16.6145 14.7431 19.8513 11.195C20.0559 10.9726 20.247 10.777 20.4249 10.608C20.6028 10.4391 20.7495 10.2968 20.8651 10.1812C20.9807 10.0656 21.0474 10.0078 21.0652 10.0078H21.4787C21.532 10.0612 21.5587 10.1012 21.5587 10.1278C21.5587 10.1723 21.4698 10.2879 21.2919 10.4747C21.1141 10.6614 20.8829 10.9237 20.5983 11.2617C20.3137 11.5996 19.9936 12.022 19.6379 12.5289C19.2822 13.0357 18.9221 13.6716 18.5575 14.4363C18.193 15.2011 17.855 16.0503 17.5438 16.9841C17.2325 17.9178 16.9658 19.0383 16.7435 20.3455C16.5211 21.6527 16.3789 23.0577 16.3166 24.5606C16.2988 24.8985 16.2899 25.3831 16.2899 26.0145C16.2899 29.4737 16.7079 32.4972 17.5438 35.085C18.3797 37.6727 19.669 39.8692 21.412 41.6744C21.5098 41.7811 21.5587 41.8523 21.5587 41.8878Z" fill="#111928"/>
<path d="M22.3018 16.4998C22.3107 16.4465 22.324 16.3753 22.3418 16.2864C22.3596 16.1975 22.4129 16.0285 22.5019 15.7795C22.5908 15.5305 22.6797 15.3216 22.7686 15.1526C22.8576 14.9837 23.0043 14.8191 23.2088 14.6591C23.4133 14.499 23.6179 14.4234 23.8224 14.4323C24.1424 14.4323 24.4092 14.5123 24.6226 14.6724C24.8361 14.8325 24.9695 14.9837 25.0228 15.1259C25.0762 15.2682 25.1028 15.3616 25.1028 15.4061C25.1028 15.4238 25.1073 15.4327 25.1162 15.4327L25.2629 15.286C25.8054 14.7169 26.4234 14.4323 27.117 14.4323C27.5972 14.4323 27.9841 14.5524 28.2775 14.7925C28.571 15.0326 28.7221 15.3838 28.731 15.8462C28.7399 16.3087 28.571 17.0067 28.2242 17.9404C27.8773 18.8742 27.7084 19.4389 27.7173 19.6345C27.7173 19.8657 27.7929 19.9813 27.944 19.9813C27.9974 19.9813 28.0374 19.9769 28.0641 19.968C28.322 19.9235 28.5532 19.7545 28.7577 19.4611C28.9622 19.1676 29.1179 18.8119 29.2246 18.394C29.2424 18.3228 29.3313 18.2873 29.4914 18.2873C29.6692 18.2873 29.7581 18.3228 29.7581 18.394C29.7581 18.4029 29.7403 18.4696 29.7048 18.5941C29.6336 18.8519 29.5358 19.1054 29.4113 19.3544C29.2868 19.6034 29.0823 19.8524 28.7977 20.1014C28.5132 20.3504 28.2064 20.4704 27.8773 20.4615C27.4594 20.4615 27.157 20.3415 26.9703 20.1014C26.7836 19.8613 26.6902 19.6123 26.6902 19.3544C26.6902 19.1854 26.8502 18.6519 27.1704 17.7537C27.4905 16.8555 27.655 16.1797 27.6639 15.7262C27.6639 15.2015 27.4683 14.9392 27.077 14.9392H27.0103C26.2455 14.9392 25.6008 15.3883 25.0762 16.2864L24.9828 16.4465L24.5426 18.2339C24.2492 19.3988 24.0802 20.0258 24.0357 20.1147C23.9201 20.3548 23.729 20.4748 23.4623 20.4748C23.3467 20.4748 23.2533 20.4482 23.1821 20.3948C23.111 20.3415 23.0621 20.2881 23.0354 20.2347C23.0087 20.1814 22.9998 20.1369 23.0087 20.1014C23.0087 19.9858 23.1777 19.261 23.5156 17.9271C23.8534 16.5932 24.0313 15.8685 24.0491 15.7529C24.058 15.7084 24.0624 15.6061 24.0624 15.4461C24.0624 15.0993 23.9557 14.9259 23.7424 14.9259C23.4045 14.9259 23.1243 15.3705 22.902 16.2597C22.8487 16.4376 22.822 16.531 22.822 16.5399C22.8042 16.5932 22.7197 16.6199 22.5685 16.6199H22.3818C22.3284 16.5665 22.3018 16.5265 22.3018 16.4998Z" fill="#111928"/>
<path d="M24.1661 29.8701C24.1661 29.7812 24.1839 29.6789 24.2195 29.5633C24.255 29.4477 24.3084 29.3899 24.3795 29.3899C24.3884 29.3899 24.7085 29.3677 25.3399 29.3232C25.9713 29.2788 26.2959 29.2521 26.3137 29.2432C26.4204 29.2432 26.4737 29.2788 26.4737 29.3499C26.4737 29.4121 26.2514 30.3414 25.8068 32.1377C25.3622 33.8985 25.1398 34.81 25.1398 34.8722C25.3088 34.7833 25.4377 34.6988 25.5267 34.6188C25.7401 34.4587 26.0469 34.1786 26.4471 33.7784C26.8472 33.3782 27.1585 33.107 27.3808 32.9647C27.7365 32.7246 28.0744 32.6046 28.3945 32.6046C28.6613 32.6046 28.8702 32.6891 29.0214 32.858C29.1725 33.027 29.2526 33.2671 29.2615 33.5783C29.2615 33.8006 29.2303 33.9874 29.1681 34.1386C29.1058 34.2897 29.0214 34.4009 28.9148 34.472C28.808 34.5432 28.7147 34.5921 28.6346 34.6188C28.5546 34.6454 28.4746 34.6588 28.3945 34.6588C28.2167 34.6588 28.0744 34.6099 27.9677 34.5121C27.861 34.4142 27.8076 34.2853 27.8076 34.1252C27.8076 33.9029 27.8788 33.7206 28.021 33.5783C28.1633 33.4361 28.3056 33.3427 28.4479 33.2982L28.6613 33.2582C28.5546 33.1515 28.4479 33.0981 28.3412 33.0981H28.2878C28.0033 33.1248 27.7231 33.236 27.4475 33.4316C27.1718 33.6272 26.8472 33.9118 26.4737 34.2853C26.1002 34.6588 25.8068 34.93 25.5934 35.099C25.6111 35.1079 25.6778 35.1212 25.7934 35.139C25.909 35.1568 26.0158 35.1835 26.1136 35.219C26.2114 35.2546 26.327 35.2902 26.4604 35.3257C26.5938 35.3613 26.7138 35.4236 26.8205 35.5125C26.9273 35.6014 27.0251 35.6814 27.114 35.7526C27.2029 35.8237 27.2785 35.9393 27.3408 36.0994C27.403 36.2595 27.4297 36.4062 27.4208 36.5396C27.4208 36.6908 27.3986 36.873 27.3541 37.0865C27.3096 37.2999 27.283 37.4777 27.2741 37.62C27.2741 37.9757 27.3941 38.1536 27.6342 38.1536C28.0611 38.1536 28.4079 37.6245 28.6747 36.5663C28.6924 36.4951 28.7814 36.4595 28.9413 36.4595H28.9947C29.137 36.4595 29.2081 36.4996 29.2081 36.5796C29.2081 36.6241 29.1948 36.6863 29.1681 36.7663C28.8035 38.0202 28.2789 38.6471 27.5942 38.6471C27.194 38.6471 26.8695 38.5315 26.6205 38.3003C26.3715 38.0691 26.247 37.7356 26.247 37.2999C26.247 37.1398 26.2603 37.002 26.287 36.8864C26.3137 36.7708 26.327 36.6641 26.327 36.5663C26.327 36.3706 26.2648 36.2017 26.1403 36.0594C26.0158 35.9171 25.8601 35.8148 25.6734 35.7526C25.4867 35.6903 25.3355 35.6414 25.2199 35.6059C25.1043 35.5703 25.0242 35.5569 24.9798 35.5658H24.9531C24.8464 35.9393 24.753 36.2995 24.673 36.6463C24.5929 36.9931 24.5307 37.251 24.4862 37.4199C24.4418 37.5889 24.4018 37.7534 24.3662 37.9135C24.3306 38.0736 24.2995 38.1803 24.2728 38.2336C24.2461 38.287 24.215 38.3448 24.1794 38.407C24.1439 38.4693 24.095 38.5093 24.0327 38.5271C23.9171 38.6071 23.7926 38.6471 23.6592 38.6471C23.508 38.6471 23.3924 38.6027 23.3124 38.5137C23.2324 38.4248 23.1924 38.3492 23.1924 38.287C23.1924 38.1981 23.3569 37.4866 23.6859 36.1527C24.0149 34.8189 24.3395 33.5072 24.6596 32.2178L25.1532 30.2836C25.1621 30.168 25.1309 30.0969 25.0598 30.0702C24.9887 30.0435 24.8153 30.0213 24.5396 30.0035H24.4729C24.384 30.0035 24.3262 30.0035 24.2995 30.0035C24.2728 30.0035 24.2417 29.9902 24.2061 29.9635C24.1705 29.9368 24.1572 29.9057 24.1661 29.8701Z" fill="#111928"/>
<path d="M30.4873 10.1679C30.4873 10.0967 30.5007 10.0523 30.5273 10.0345C30.554 10.0167 30.6118 10.0078 30.7007 10.0078H30.7808H30.9809C30.9987 10.0256 31.1231 10.1456 31.3544 10.368C31.5856 10.5903 31.7856 10.7815 31.9546 10.9415C32.1236 11.1016 32.3637 11.3728 32.6749 11.7552C32.9862 12.1376 33.2618 12.4977 33.5019 12.8357C33.742 13.1736 34.0221 13.6226 34.3423 14.1829C34.6624 14.7431 34.9381 15.2945 35.1693 15.8369C35.4005 16.3794 35.645 17.0419 35.9029 17.8244C36.1608 18.607 36.3609 19.3895 36.5032 20.1721C36.6455 20.9546 36.7744 21.8572 36.89 22.8799C37.0056 23.9025 37.059 24.943 37.0501 26.0012C37.0501 27.0416 37.019 27.922 36.9567 28.6423C36.5388 33.7289 34.9514 37.7884 32.1947 40.8207C31.9902 41.0431 31.799 41.2387 31.6211 41.4076C31.4433 41.5766 31.2966 41.7189 31.181 41.8345C31.0653 41.9501 30.9987 42.0079 30.9809 42.0079H30.7808C30.6652 42.0079 30.5896 41.999 30.554 41.9812C30.5185 41.9634 30.4962 41.919 30.4873 41.8478C30.9675 41.3676 31.4388 40.8163 31.9013 40.1938C34.4623 36.7879 35.7429 32.0571 35.7429 26.0012C35.7429 24.2049 35.6273 22.5286 35.3961 20.9724C35.1648 19.4162 34.8803 18.109 34.5424 17.0508C34.2044 15.9925 33.7909 14.9966 33.3018 14.0628C32.8127 13.1291 32.3681 12.4044 31.9679 11.8886C31.5678 11.3728 31.1276 10.857 30.6474 10.3413C30.6296 10.3235 30.6118 10.3057 30.594 10.2879C30.5763 10.2701 30.5629 10.2523 30.554 10.2346C30.5451 10.2168 30.5318 10.2034 30.514 10.1945L30.4873 10.1679Z" fill="#111928"/>
</svg>
