<svg width="52" height="52" viewBox="0 0 52 52" fill="none" xmlns="http://www.w3.org/2000/svg">
<rect width="52" height="52" rx="4" fill="#D0F0FD"/>
<path d="M24.7234 16C26.3881 16 27.7816 16.1587 28.9038 16.4762C30.0448 16.7937 30.8958 17.3165 31.4569 18.0448C32.0367 18.7731 32.3267 19.7442 32.3267 20.958C32.3267 21.7423 32.177 22.4426 31.8778 23.0588C31.5972 23.6564 31.167 24.1606 30.5872 24.5714C30.0261 24.9636 29.334 25.2344 28.511 25.3838V25.5238C29.3527 25.6545 30.1102 25.8973 30.7836 26.2521C31.4756 26.6069 32.018 27.1111 32.4108 27.7647C32.8036 28.4183 33 29.268 33 30.3137C33 31.5275 32.7194 32.564 32.1583 33.423C31.5972 34.2633 30.7929 34.9076 29.7455 35.3557C28.7168 35.7852 27.4823 36 26.0421 36H19V16H24.7234ZM25.2285 24.5154C26.9492 24.5154 28.1276 24.2446 28.7635 23.7031C29.3995 23.1429 29.7174 22.3212 29.7174 21.2381C29.7174 20.1363 29.3246 19.352 28.5391 18.8852C27.7722 18.3996 26.5377 18.1569 24.8357 18.1569H21.5251V24.5154H25.2285ZM21.5251 26.6162V33.8711H25.5651C27.342 33.8711 28.5765 33.5257 29.2685 32.8347C29.9606 32.1438 30.3066 31.2381 30.3066 30.1176C30.3066 29.408 30.1476 28.7918 29.8297 28.2689C29.5304 27.746 29.016 27.3445 28.2866 27.0644C27.5758 26.7656 26.6032 26.6162 25.3687 26.6162H21.5251Z" fill="black"/>
</svg>
