<svg width="52" height="52" viewBox="0 0 52 52" fill="none" xmlns="http://www.w3.org/2000/svg">
<path d="M37.1495 34.3049L36.3665 37.7805H34.5872L36.0463 31.2866C36.1352 30.9024 36.1708 30.7378 36.1708 30.5915C36.1708 30.2805 36.0463 30.1524 35.8505 30.1524C35.5125 30.1524 34.9253 30.5732 34.4093 31.1402C34.2491 31.0305 34.1246 30.9024 34 30.7561C34.9431 29.6037 35.9929 29.0366 36.8826 29.0366C37.6833 29.0366 37.9858 29.5305 37.9858 30.0793C37.9858 30.372 37.8968 30.7927 37.8078 31.2317H37.8612C38.7687 29.75 40.0854 29 41.2242 29C42.363 29 42.9858 29.7317 42.9858 30.6646C42.9858 31.9634 41.669 35.75 41.669 36.5C41.669 36.6646 41.7402 36.8476 41.9893 36.8476C42.3986 36.8476 43.0925 36.3537 43.5907 35.7134C43.7509 35.8232 43.8754 35.9329 44 36.0793C43.1993 37.1768 42.274 38 41.1352 38C40.2633 38 39.8719 37.4878 39.8719 36.811C39.8719 35.5854 41.1708 32 41.1708 30.9024C41.1708 30.4268 40.9751 30.061 40.4413 30.061C39.4093 30.061 37.8256 31.3963 37.1495 34.3049Z" fill="#454545"/>
<path d="M35.8927 27.7801H34L36.4335 16.4738C36.5107 16.1257 36.5687 15.8325 36.5687 15.6492C36.5687 15.1911 36.2017 15.1361 34.9657 15.1178C34.9464 15.0262 34.927 14.9162 34.927 14.8063C34.927 14.7513 34.927 14.6963 34.9464 14.623C36.3369 14.5314 37.7275 14.3665 38.6931 14L38.9442 14.1283C38.6352 15.1728 38.3648 16.3272 38.133 17.4267L37.5343 20.1754L37.1674 21.6047H37.2639C38.5193 19.9005 39.8906 18.9843 41.3391 18.9843C42.5558 18.9843 42.9807 19.6623 42.9807 20.3586C42.9807 21.5131 41.8798 22.4843 39.2146 23.4738C40.3734 26.534 40.6245 26.7356 40.9528 26.7356C41.4163 26.7356 42.015 26.3141 42.5558 25.7094C42.7296 25.8194 42.8648 25.9293 43 26.0759C42.0343 27.3037 40.9528 28 40.0451 28C38.9442 28 38.5386 27.1021 37.2833 23.5288C40.5086 22.466 41.1073 21.3848 41.1073 20.6885C41.1073 20.3403 40.9528 20.1021 40.5086 20.1021C39.2918 20.1021 37.1481 21.9895 36.7039 24.0602L35.8927 27.7801Z" fill="#454545"/>
<path d="M22.64 15.912C17.264 15.912 15.504 20.488 15.504 25.96C15.504 31.816 17.488 35.88 22.576 35.88C26.064 35.88 27.76 33.16 28.528 30.312H29.648V35.208C27.888 36.648 25.2 37.48 22.544 37.48C15.952 37.48 11.728 32.52 11.728 26.088C11.728 19.24 16.432 14.312 22.832 14.312C25.264 14.312 27.696 14.92 29.648 16.04V21.768H28.528C27.6 18.44 26.128 15.912 22.64 15.912Z" fill="#454545"/>
</svg>
