<svg width="53" height="53" viewBox="0 0 53 53" fill="none" xmlns="http://www.w3.org/2000/svg">
<g filter="url(#filter0_d)">
<rect width="52" height="52" fill="white"/>
<path d="M26.1837 29.5091C26.1837 29.1679 26.1837 28.1706 25.1338 28.1706C24.084 28.1706 24.084 29.2467 24.084 29.6404V31.8451C24.084 32.4225 24.084 32.8425 23.2178 33.2887C22.5092 33.6299 21.6955 33.7086 21.0919 33.7086C20.5407 33.7086 19.8058 33.6299 19.0971 33.3412C18.0997 32.895 18.0997 32.4225 18.0997 31.8451V16.9632C18.0997 16.3858 18.0997 15.9659 18.9659 15.5197C19.6745 15.1785 20.4882 15.0997 21.0919 15.0997C21.643 15.0997 22.3779 15.1785 23.0866 15.4672C24.084 15.9134 24.084 16.3858 24.084 16.9632V19.168C24.084 19.5617 24.084 20.6378 25.1338 20.6378C26.1837 20.6378 26.1837 19.6404 26.1837 19.2992V16.7795C26.1837 13.7612 23.0341 13 21.0919 13C19.1234 13 16 13.7874 16 16.7795V32.0288C16 35.0472 19.1496 35.8083 21.0919 35.8083C23.0604 35.8083 26.1837 35.0209 26.1837 32.0288V29.5091Z" fill="black"/>
<path d="M32.5879 35.5983C32.8679 35.3359 33.6028 34.7584 33.8828 34.5135C34.9676 33.5161 36 32.5537 36 30.9614C36 28.8792 34.2502 27.5319 32.063 27.5319C29.9633 27.5319 28.5809 29.1242 28.5809 30.6815C28.5809 31.5389 29.2633 31.6613 29.5083 31.6613C29.8758 31.6613 30.4182 31.3989 30.4182 30.734C30.4182 29.8241 29.5433 29.8241 29.3333 29.8241C29.8408 28.5467 31.0131 28.1093 31.8705 28.1093C33.4978 28.1093 34.3377 29.4916 34.3377 30.9614C34.3377 32.7812 33.0604 34.111 30.9956 36.2283L28.7909 38.503C28.5809 38.6954 28.5809 38.7304 28.5809 39.1679H35.4926L36 36.0358H35.4576C35.4051 36.3857 35.2651 37.2606 35.0551 37.5931C34.9501 37.7331 33.6203 37.7331 33.3403 37.7331H30.2257L32.5879 35.5983Z" fill="black"/>
<rect x="28" y="23" width="12" height="20" fill="#C4C4C4"/>
</g>
<defs>
<filter id="filter0_d" x="0" y="0" width="53" height="53" filterUnits="userSpaceOnUse" color-interpolation-filters="sRGB">
<feFlood flood-opacity="0" result="BackgroundImageFix"/>
<feColorMatrix in="SourceAlpha" type="matrix" values="0 0 0 0 0 0 0 0 0 0 0 0 0 0 0 0 0 0 127 0" result="hardAlpha"/>
<feOffset dx="1" dy="1"/>
<feColorMatrix type="matrix" values="0 0 0 0 0 0 0 0 0 0 0 0 0 0 0 0 0 0 0.25 0"/>
<feBlend mode="normal" in2="BackgroundImageFix" result="effect1_dropShadow"/>
<feBlend mode="normal" in="SourceGraphic" in2="effect1_dropShadow" result="shape"/>
</filter>
</defs>
</svg>
