<svg width="52" height="52" viewBox="0 0 52 52" fill="none" xmlns="http://www.w3.org/2000/svg">
<rect width="52" height="52" rx="4" fill="#D0F0FD"/>
<path d="M14.9092 22.7366C14.9092 21.0616 15.4413 19.5205 16.5056 18.1135C17.5698 16.7064 18.9696 16.0029 20.7048 16.0029C21.584 16.0029 22.44 16.2039 23.2729 16.6059C24.1058 17.0079 24.8693 17.5104 25.5634 18.1135C26.2575 18.7165 26.94 19.2972 27.611 19.8555C28.2819 20.4139 29.0107 20.9052 29.7974 21.3296C30.584 21.7539 31.3938 21.9661 32.2267 21.9661C33.6611 21.9661 34.8295 21.4412 35.7318 20.3915C36.6341 19.3418 37.0853 18.2028 37.0853 16.9744C37.0853 16.7064 37.1315 16.4831 37.2241 16.3044C37.3166 16.1257 37.4323 16.0252 37.5711 16.0029C37.895 16.0029 38.057 16.3714 38.057 17.1084C38.057 18.7611 37.5364 20.291 36.4953 21.6981C35.4542 23.1051 34.1238 23.8087 32.5043 23.8087H32.2267C31.3706 23.8087 30.5261 23.6076 29.6932 23.2056C28.8603 22.8036 28.0853 22.3123 27.368 21.7316C26.6508 21.1509 25.9683 20.559 25.3205 19.956C24.6727 19.353 23.9439 18.8616 23.1341 18.482C22.3243 18.1023 21.5261 17.9013 20.7395 17.8789C19.7215 17.8789 18.8192 18.1581 18.0326 18.7165C17.1997 19.3642 16.6328 20.1235 16.3321 20.9946C16.0313 21.8656 15.8462 22.5579 15.7768 23.0716C15.7074 23.5853 15.5801 23.8422 15.395 23.8422C15.0711 23.8422 14.9092 23.4736 14.9092 22.7366ZM14.9439 27.8288C14.9439 27.5385 15.1058 27.3151 15.4297 27.1588H37.5364C37.8835 27.3374 38.057 27.5608 38.057 27.8288C38.057 28.0745 37.895 28.2866 37.5711 28.4653L26.5351 28.4988H15.4992C15.129 28.3871 14.9439 28.1638 14.9439 27.8288ZM14.9439 34.328C14.9439 33.993 15.129 33.7697 15.4992 33.658H37.5711C37.895 33.8813 38.057 34.1047 38.057 34.328C38.057 34.596 37.8835 34.8194 37.5364 34.998H15.4297C15.1058 34.8417 14.9439 34.6184 14.9439 34.328Z" fill="black"/>
</svg>
