<svg width="53" height="53" viewBox="0 0 53 53" fill="none" xmlns="http://www.w3.org/2000/svg">
<g filter="url(#filter0_d)">
<rect width="52" height="52" fill="none"/>
<path d="M14.9088 22.7361C14.9088 21.0611 15.4409 19.52 16.5052 18.113C17.5694 16.7059 18.9692 16.0024 20.7044 16.0024C21.5836 16.0024 22.4396 16.2034 23.2725 16.6054C24.1054 17.0074 24.8689 17.5099 25.563 18.113C26.2571 18.716 26.9396 19.2967 27.6106 19.855C28.2815 20.4134 29.0103 20.9047 29.7969 21.3291C30.5836 21.7534 31.3933 21.9656 32.2262 21.9656C33.6607 21.9656 34.8291 21.4408 35.7314 20.391C36.6337 19.3413 37.0848 18.2023 37.0848 16.9739C37.0848 16.7059 37.1311 16.4826 37.2237 16.3039C37.3162 16.1252 37.4319 16.0247 37.5707 16.0024C37.8946 16.0024 38.0566 16.3709 38.0566 17.1079C38.0566 18.7607 37.536 20.2905 36.4949 21.6976C35.4537 23.1046 34.1234 23.8082 32.5039 23.8082H32.2262C31.3702 23.8082 30.5257 23.6072 29.6928 23.2051C28.8599 22.8031 28.0848 22.3118 27.3676 21.7311C26.6504 21.1504 25.9679 20.5586 25.3201 19.9555C24.6722 19.3525 23.9435 18.8612 23.1337 18.4815C22.3239 18.1018 21.5257 17.9008 20.7391 17.8785C19.7211 17.8785 18.8188 18.1576 18.0321 18.716C17.1992 19.3637 16.6324 20.123 16.3316 20.9941C16.0309 21.8651 15.8458 22.5575 15.7764 23.0711C15.707 23.5848 15.5797 23.8417 15.3946 23.8417C15.0707 23.8417 14.9088 23.4732 14.9088 22.7361ZM14.9435 27.8283C14.9435 27.538 15.1054 27.3146 15.4293 27.1583H37.536C37.883 27.337 38.0566 27.5603 38.0566 27.8283C38.0566 28.074 37.8946 28.2862 37.5707 28.4648L26.5347 28.4983H15.4987C15.1285 28.3867 14.9435 28.1633 14.9435 27.8283ZM14.9435 34.3275C14.9435 33.9925 15.1285 33.7692 15.4987 33.6575H37.5707C37.8946 33.8809 38.0566 34.1042 38.0566 34.3275C38.0566 34.5955 37.883 34.8189 37.536 34.9976H15.4293C15.1054 34.8412 14.9435 34.6179 14.9435 34.3275Z" fill="black"/>
</g>
<defs>
<filter id="filter0_d" x="0" y="0" width="53" height="53" filterUnits="userSpaceOnUse" color-interpolation-filters="sRGB">
<feFlood flood-opacity="0" result="BackgroundImageFix"/>
<feColorMatrix in="SourceAlpha" type="matrix" values="0 0 0 0 0 0 0 0 0 0 0 0 0 0 0 0 0 0 127 0" result="hardAlpha"/>
<feOffset dx="1" dy="1"/>
<feColorMatrix type="matrix" values="0 0 0 0 0 0 0 0 0 0 0 0 0 0 0 0 0 0 0.25 0"/>
<feBlend mode="normal" in2="BackgroundImageFix" result="effect1_dropShadow"/>
<feBlend mode="normal" in="SourceGraphic" in2="effect1_dropShadow" result="shape"/>
</filter>
</defs>
</svg>
