<svg width="52" height="52" viewBox="0 0 52 52" fill="none" xmlns="http://www.w3.org/2000/svg">
<path d="M15 22.3859V18.5836C16.6087 16.8775 18.5098 16 20.8009 16C22.8483 16 24.847 16.4875 26.9431 17.4624C28.9905 18.3886 30.7942 18.8761 32.3053 18.8761C34.0115 18.8761 36.1076 17.8524 37.9113 16V19.7535C36.3026 21.5085 34.304 22.3859 32.0616 22.3859C30.0629 22.3859 28.0156 21.8984 25.9194 20.9235C23.872 19.9973 22.0684 19.5098 20.5085 19.5098C18.9485 19.5098 16.9011 20.4848 15 22.3859ZM15 28.8693V25.4082H37.9113V28.8693H15ZM15 36.6689V33.2078H37.9113V36.6689H15Z" fill="#454545"/>
</svg>
