<svg width="52" height="52" viewBox="0 0 52 52" fill="none" xmlns="http://www.w3.org/2000/svg">
<path d="M36.0238 32.766C34.6891 32.766 33.6404 32.35 32.8778 31.518C32.1324 30.686 31.7598 29.568 31.7598 28.164C31.7598 27.0373 31.9851 25.98 32.4358 24.992C32.8864 24.004 33.4844 23.1373 34.2298 22.392C34.9751 21.6467 35.7984 21.066 36.6998 20.65C37.6011 20.2167 38.4938 20 39.3778 20C40.1924 20 40.8684 20.1733 41.4058 20.52C41.9431 20.8667 42.2118 21.3087 42.2118 21.846C42.2118 22.21 42.0904 22.5133 41.8478 22.756C41.6051 22.9987 41.2844 23.12 40.8858 23.12C40.5044 23.12 40.1144 22.9727 39.7158 22.678C39.3171 22.366 39.0744 21.8287 38.9878 21.066C38.3464 21.0833 37.7484 21.326 37.1938 21.794C36.6564 22.262 36.1884 22.86 35.7898 23.588C35.3911 24.316 35.0791 25.0873 34.8538 25.902C34.6284 26.7167 34.5158 27.488 34.5158 28.216C34.5158 28.9613 34.6804 29.6113 35.0098 30.166C35.3391 30.7207 35.9544 30.998 36.8558 30.998C37.6011 30.998 38.2858 30.7987 38.9098 30.4C39.5511 30.0013 40.1058 29.4727 40.5738 28.814C40.8511 28.9527 41.0591 29.1173 41.1978 29.308C40.8684 29.8973 40.4611 30.4607 39.9758 30.998C39.5078 31.518 38.9444 31.9427 38.2858 32.272C37.6444 32.6013 36.8904 32.766 36.0238 32.766Z" fill="#454545"/>
<path d="M24.5271 32.766C23.1577 32.766 22.1091 32.5233 21.3811 32.038C20.6531 31.5527 20.2891 31.0413 20.2891 30.504C20.2891 30.2093 20.4017 29.932 20.6271 29.672C20.8524 29.412 21.1817 29.282 21.6151 29.282C22.0484 29.282 22.3951 29.4033 22.6551 29.646C22.9324 29.8887 23.1404 30.2007 23.2791 30.582C23.4351 30.9633 23.5391 31.3447 23.5911 31.726C23.7817 31.778 23.9637 31.8127 24.1371 31.83C24.3277 31.8473 24.5097 31.856 24.6831 31.856C25.3937 31.856 25.9917 31.7087 26.4771 31.414C26.9624 31.102 27.2051 30.6427 27.2051 30.036C27.2051 29.4987 26.9971 29.048 26.5811 28.684C26.1651 28.3027 25.5584 27.8433 24.7611 27.306C24.2931 26.9767 23.8424 26.6387 23.4091 26.292C22.9757 25.928 22.6204 25.5293 22.3431 25.096C22.0657 24.6627 21.9271 24.1773 21.9271 23.64C21.9271 23.0853 22.0917 22.5307 22.4211 21.976C22.7677 21.404 23.3051 20.936 24.0331 20.572C24.7611 20.1907 25.6884 20 26.8151 20C28.0631 20 28.9991 20.2167 29.6231 20.65C30.2471 21.0833 30.5591 21.5513 30.5591 22.054C30.5591 22.314 30.4637 22.5827 30.2731 22.86C30.0997 23.1373 29.7877 23.276 29.3371 23.276C28.7651 23.276 28.3231 23.0507 28.0111 22.6C27.7164 22.132 27.5344 21.638 27.4651 21.118C27.1011 21.0313 26.7371 20.988 26.3731 20.988C25.6797 20.988 25.1511 21.1527 24.7871 21.482C24.4231 21.794 24.2411 22.2013 24.2411 22.704C24.2411 23.2413 24.4491 23.7093 24.8651 24.108C25.2984 24.4893 25.9224 24.9573 26.7371 25.512C27.2051 25.824 27.6557 26.162 28.0891 26.526C28.5224 26.8727 28.8777 27.2713 29.1551 27.722C29.4324 28.1553 29.5711 28.6753 29.5711 29.282C29.5711 30.01 29.3544 30.634 28.9211 31.154C28.4877 31.674 27.8897 32.0727 27.1271 32.35C26.3644 32.6273 25.4977 32.766 24.5271 32.766Z" fill="#454545"/>
<path d="M14.264 32.766C12.9293 32.766 11.8807 32.35 11.118 31.518C10.3727 30.686 10 29.568 10 28.164C10 27.0373 10.2253 25.98 10.676 24.992C11.1267 24.004 11.7247 23.1373 12.47 22.392C13.2153 21.6467 14.0387 21.066 14.94 20.65C15.8413 20.2167 16.734 20 17.618 20C18.4327 20 19.1087 20.1733 19.646 20.52C20.1833 20.8667 20.452 21.3087 20.452 21.846C20.452 22.21 20.3307 22.5133 20.088 22.756C19.8453 22.9987 19.5247 23.12 19.126 23.12C18.7447 23.12 18.3547 22.9727 17.956 22.678C17.5573 22.366 17.3147 21.8287 17.228 21.066C16.5867 21.0833 15.9887 21.326 15.434 21.794C14.8967 22.262 14.4287 22.86 14.03 23.588C13.6313 24.316 13.3193 25.0873 13.094 25.902C12.8687 26.7167 12.756 27.488 12.756 28.216C12.756 28.9613 12.9207 29.6113 13.25 30.166C13.5793 30.7207 14.1947 30.998 15.096 30.998C15.8413 30.998 16.526 30.7987 17.15 30.4C17.7913 30.0013 18.346 29.4727 18.814 28.814C19.0913 28.9527 19.2993 29.1173 19.438 29.308C19.1087 29.8973 18.7013 30.4607 18.216 30.998C17.748 31.518 17.1847 31.9427 16.526 32.272C15.8847 32.6013 15.1307 32.766 14.264 32.766Z" fill="#454545"/>
</svg>
