<svg width="52" height="52" viewBox="0 0 52 52" fill="none" xmlns="http://www.w3.org/2000/svg">
<path d="M37.238 32.7919C35.8687 32.7919 34.82 32.5492 34.092 32.0639C33.364 31.5785 33 31.0672 33 30.5299C33 30.2352 33.1127 29.9579 33.338 29.6979C33.5633 29.4379 33.8927 29.3079 34.326 29.3079C34.7593 29.3079 35.106 29.4292 35.366 29.6719C35.6433 29.9145 35.8513 30.2265 35.99 30.6079C36.146 30.9892 36.25 31.3705 36.302 31.7519C36.4927 31.8039 36.6747 31.8385 36.848 31.8559C37.0387 31.8732 37.2207 31.8819 37.394 31.8819C38.1047 31.8819 38.7027 31.7345 39.188 31.4399C39.6733 31.1279 39.916 30.6685 39.916 30.0619C39.916 29.5245 39.708 29.0739 39.292 28.7099C38.876 28.3285 38.2693 27.8692 37.472 27.3319C37.004 27.0025 36.5533 26.6645 36.12 26.3179C35.6867 25.9539 35.3313 25.5552 35.054 25.1219C34.7767 24.6885 34.638 24.2032 34.638 23.6659C34.638 23.1112 34.8027 22.5565 35.132 22.0019C35.4787 21.4299 36.016 20.9619 36.744 20.5979C37.472 20.2165 38.3993 20.0259 39.526 20.0259C40.774 20.0259 41.71 20.2425 42.334 20.6759C42.958 21.1092 43.27 21.5772 43.27 22.0799C43.27 22.3399 43.1747 22.6085 42.984 22.8859C42.8107 23.1632 42.4987 23.3019 42.048 23.3019C41.476 23.3019 41.034 23.0765 40.722 22.6259C40.4273 22.1579 40.2453 21.6639 40.176 21.1439C39.812 21.0572 39.448 21.0139 39.084 21.0139C38.3907 21.0139 37.862 21.1785 37.498 21.5079C37.134 21.8199 36.952 22.2272 36.952 22.7299C36.952 23.2672 37.16 23.7352 37.576 24.1339C38.0093 24.5152 38.6333 24.9832 39.448 25.5379C39.916 25.8499 40.3667 26.1879 40.8 26.5519C41.2333 26.8985 41.5887 27.2972 41.866 27.7479C42.1433 28.1812 42.282 28.7012 42.282 29.3079C42.282 30.0359 42.0653 30.6599 41.632 31.1799C41.1987 31.6999 40.6007 32.0985 39.838 32.3759C39.0753 32.6532 38.2087 32.7919 37.238 32.7919Z" fill="#454545"/>
<path d="M31.9511 25.096C31.9511 25.98 31.8038 26.8727 31.5091 27.774C31.2318 28.6753 30.8071 29.5073 30.2351 30.27C29.6631 31.0153 28.9524 31.622 28.1031 32.09C27.2538 32.558 26.2744 32.792 25.1651 32.792C24.2291 32.792 23.4404 32.6273 22.7991 32.298C22.1751 31.9687 21.6724 31.544 21.2911 31.024C20.9098 30.504 20.6324 29.9407 20.4591 29.334C20.3031 28.71 20.2251 28.112 20.2251 27.54C20.2251 26.7947 20.3551 25.9887 20.6151 25.122C20.8924 24.2553 21.3084 23.432 21.8631 22.652C22.4178 21.872 23.1284 21.2393 23.9951 20.754C24.8618 20.2513 25.8931 20 27.0891 20C28.2158 20 29.1344 20.234 29.8451 20.702C30.5731 21.1527 31.1018 21.768 31.4311 22.548C31.7778 23.3107 31.9511 24.16 31.9511 25.096ZM29.1951 24.68C29.1951 23.6053 29.0218 22.7213 28.6751 22.028C28.3458 21.3173 27.7824 20.962 26.9851 20.962C26.3611 20.962 25.7978 21.17 25.2951 21.586C24.8098 22.002 24.3938 22.5567 24.0471 23.25C23.7004 23.9433 23.4318 24.706 23.2411 25.538C23.0678 26.3527 22.9811 27.176 22.9811 28.008C22.9811 29.0827 23.1544 29.9927 23.5011 30.738C23.8651 31.466 24.4544 31.83 25.2691 31.83C25.9104 31.83 26.4738 31.6133 26.9591 31.18C27.4444 30.7467 27.8518 30.1747 28.1811 29.464C28.5104 28.7533 28.7618 27.982 28.9351 27.15C29.1084 26.3007 29.1951 25.4773 29.1951 24.68Z" fill="#454545"/>
<path d="M13.2639 32.7919C11.9293 32.7919 10.8806 32.3759 10.1179 31.5439C9.37261 30.7119 8.99994 29.5939 8.99994 28.1899C8.99994 27.0632 9.22527 26.0059 9.67594 25.0179C10.1266 24.0299 10.7246 23.1632 11.4699 22.4179C12.2153 21.6725 13.0386 21.0919 13.9399 20.6759C14.8413 20.2425 15.7339 20.0259 16.6179 20.0259C17.4326 20.0259 18.1086 20.1992 18.6459 20.5459C19.1833 20.8925 19.4519 21.3345 19.4519 21.8719C19.4519 22.2359 19.3306 22.5392 19.0879 22.7819C18.8453 23.0245 18.5246 23.1459 18.1259 23.1459C17.7446 23.1459 17.3546 22.9985 16.9559 22.7039C16.5573 22.3919 16.3146 21.8545 16.2279 21.0919C15.5866 21.1092 14.9886 21.3519 14.4339 21.8199C13.8966 22.2879 13.4286 22.8859 13.0299 23.6139C12.6313 24.3419 12.3193 25.1132 12.0939 25.9279C11.8686 26.7425 11.7559 27.5139 11.7559 28.2419C11.7559 28.9872 11.9206 29.6372 12.2499 30.1919C12.5793 30.7465 13.1946 31.0239 14.0959 31.0239C14.8413 31.0239 15.5259 30.8245 16.1499 30.4259C16.7913 30.0272 17.3459 29.4985 17.8139 28.8399C18.0913 28.9785 18.2993 29.1432 18.4379 29.3339C18.1086 29.9232 17.7013 30.4865 17.2159 31.0239C16.7479 31.5439 16.1846 31.9685 15.5259 32.2979C14.8846 32.6272 14.1306 32.7919 13.2639 32.7919Z" fill="#454545"/>
</svg>
