<svg width="52" height="52" viewBox="0 0 52 52" fill="none" xmlns="http://www.w3.org/2000/svg">
<path d="M42.0481 22.862H39.0581L37.4201 29.986C37.2641 30.662 37.1861 31.1473 37.1861 31.442C37.1861 31.7193 37.2467 31.9447 37.3681 32.118C37.4894 32.274 37.7061 32.352 38.0181 32.352C38.3821 32.352 38.8154 32.2047 39.3181 31.91C39.8207 31.598 40.2714 31.1907 40.6701 30.688C40.8954 30.844 41.0947 31.0173 41.2681 31.208C40.6614 32.0573 39.9681 32.7247 39.1881 33.21C38.4081 33.6953 37.6021 33.938 36.7701 33.938C36.2154 33.938 35.7734 33.8253 35.4441 33.6C35.1321 33.3747 34.9154 33.106 34.7941 32.794C34.6727 32.4647 34.6121 32.1613 34.6121 31.884C34.6121 31.6933 34.6294 31.4593 34.6641 31.182C34.6987 30.9047 34.7594 30.5667 34.8461 30.168L36.4581 22.862H34.5081C34.5081 22.7233 34.5167 22.5933 34.5341 22.472C34.5514 22.3507 34.5861 22.2293 34.6381 22.108L36.6921 21.796C36.8134 21.2933 36.9434 20.73 37.0821 20.106C37.2381 19.4647 37.3767 18.858 37.4981 18.286C37.9141 18.2513 38.3387 18.2167 38.7721 18.182C39.2227 18.13 39.6561 18.0693 40.0721 18L40.1501 18.104C40.0287 18.624 39.9074 19.1527 39.7861 19.69C39.6647 20.21 39.5087 20.886 39.3181 21.718H42.2561C42.2561 21.926 42.2387 22.1253 42.2041 22.316C42.1694 22.4893 42.1174 22.6713 42.0481 22.862Z" fill="#454545"/>
<path d="M31.9511 26.2161C31.9511 27.1001 31.8038 27.9928 31.5091 28.8941C31.2318 29.7955 30.8071 30.6275 30.2351 31.3901C29.6631 32.1355 28.9524 32.7421 28.1031 33.2101C27.2538 33.6781 26.2744 33.9121 25.1651 33.9121C24.2291 33.9121 23.4404 33.7475 22.7991 33.4181C22.1751 33.0888 21.6724 32.6641 21.2911 32.1441C20.9098 31.6241 20.6324 31.0608 20.4591 30.4541C20.3031 29.8301 20.2251 29.2321 20.2251 28.6601C20.2251 27.9148 20.3551 27.1088 20.6151 26.2421C20.8924 25.3755 21.3084 24.5521 21.8631 23.7721C22.4178 22.9921 23.1284 22.3594 23.9951 21.8741C24.8618 21.3714 25.8931 21.1201 27.0891 21.1201C28.2158 21.1201 29.1344 21.3541 29.8451 21.8221C30.5731 22.2728 31.1018 22.8881 31.4311 23.6681C31.7778 24.4308 31.9511 25.2801 31.9511 26.2161ZM29.1951 25.8001C29.1951 24.7254 29.0218 23.8415 28.6751 23.1481C28.3458 22.4375 27.7824 22.0821 26.9851 22.0821C26.3611 22.0821 25.7978 22.2901 25.2951 22.7061C24.8098 23.1221 24.3938 23.6768 24.0471 24.3701C23.7004 25.0635 23.4318 25.8261 23.2411 26.6581C23.0678 27.4728 22.9811 28.2961 22.9811 29.1281C22.9811 30.2028 23.1544 31.1128 23.5011 31.8581C23.8651 32.5861 24.4544 32.9501 25.2691 32.9501C25.9104 32.9501 26.4738 32.7335 26.9591 32.3001C27.4444 31.8668 27.8518 31.2948 28.1811 30.5841C28.5104 29.8734 28.7618 29.1021 28.9351 28.2701C29.1084 27.4208 29.1951 26.5974 29.1951 25.8001Z" fill="#454545"/>
<path d="M13.264 33.912C11.9293 33.912 10.8807 33.496 10.118 32.664C9.37267 31.832 9 30.714 9 29.31C9 28.1833 9.22533 27.126 9.676 26.138C10.1267 25.15 10.7247 24.2833 11.47 23.538C12.2153 22.7927 13.0387 22.212 13.94 21.796C14.8413 21.3627 15.734 21.146 16.618 21.146C17.4327 21.146 18.1087 21.3193 18.646 21.666C19.1833 22.0127 19.452 22.4547 19.452 22.992C19.452 23.356 19.3307 23.6593 19.088 23.902C18.8453 24.1447 18.5247 24.266 18.126 24.266C17.7447 24.266 17.3547 24.1187 16.956 23.824C16.5573 23.512 16.3147 22.9747 16.228 22.212C15.5867 22.2293 14.9887 22.472 14.434 22.94C13.8967 23.408 13.4287 24.006 13.03 24.734C12.6313 25.462 12.3193 26.2333 12.094 27.048C11.8687 27.8627 11.756 28.634 11.756 29.362C11.756 30.1073 11.9207 30.7573 12.25 31.312C12.5793 31.8667 13.1947 32.144 14.096 32.144C14.8413 32.144 15.526 31.9447 16.15 31.546C16.7913 31.1473 17.346 30.6187 17.814 29.96C18.0913 30.0987 18.2993 30.2633 18.438 30.454C18.1087 31.0433 17.7013 31.6067 17.216 32.144C16.748 32.664 16.1847 33.0887 15.526 33.418C14.8847 33.7473 14.1307 33.912 13.264 33.912Z" fill="#454545"/>
</svg>
