<svg width="53" height="53" viewBox="0 0 53 53" fill="none" xmlns="http://www.w3.org/2000/svg">
<g filter="url(#filter0_d)">
<rect width="52" height="52" fill="white"/>
<path d="M36 16.295C36 15.6475 36 15 35.2806 15C34.5611 15 34.5612 15.6475 34.5612 16.295V29.3165C34.5612 34.7122 28.6978 35.8633 26 35.8633C24.3813 35.8633 22.1151 35.5396 20.2086 34.3165C17.4388 32.554 17.4388 30.2518 17.4388 29.2806V16.295C17.4388 15.6475 17.4388 15 16.7194 15C16 15 16 15.6475 16 16.295V29.4604C16 34.9281 21.5036 37.3022 26 37.3022C30.6763 37.3022 36 34.7842 36 29.4964V16.295Z" fill="black"/>
</g>
<defs>
<filter id="filter0_d" x="0" y="0" width="53" height="53" filterUnits="userSpaceOnUse" color-interpolation-filters="sRGB">
<feFlood flood-opacity="0" result="BackgroundImageFix"/>
<feColorMatrix in="SourceAlpha" type="matrix" values="0 0 0 0 0 0 0 0 0 0 0 0 0 0 0 0 0 0 127 0" result="hardAlpha"/>
<feOffset dx="1" dy="1"/>
<feColorMatrix type="matrix" values="0 0 0 0 0 0 0 0 0 0 0 0 0 0 0 0 0 0 0.25 0"/>
<feBlend mode="normal" in2="BackgroundImageFix" result="effect1_dropShadow"/>
<feBlend mode="normal" in="SourceGraphic" in2="effect1_dropShadow" result="shape"/>
</filter>
</defs>
</svg>
