<svg width="53" height="53" viewBox="0 0 53 53" fill="none" xmlns="http://www.w3.org/2000/svg">
<rect width="53" height="53" rx="4" fill="#D0F0FD"/>
<path d="M20.2761 34.2113L20.2757 34.211C18.9136 33.3443 18.2386 32.3496 17.902 31.4577C17.5643 30.5632 17.5638 29.7646 17.5638 29.2806V16.295C17.5638 16.2898 17.5638 16.2847 17.5638 16.2795C17.5638 15.9676 17.5639 15.6253 17.4661 15.3613C17.4148 15.2227 17.3341 15.0979 17.207 15.0089C17.0799 14.9199 16.9181 14.875 16.7194 14.875C16.5207 14.875 16.3589 14.9199 16.2318 15.0089C16.1047 15.0979 16.024 15.2227 15.9727 15.3613C15.8749 15.6253 15.875 15.9676 15.875 16.2795C15.875 16.2847 15.875 16.2898 15.875 16.295V29.4604C15.875 32.2436 17.2786 34.2403 19.2451 35.5361C21.2075 36.8292 23.7327 37.4272 26 37.4272C28.358 37.4272 30.8835 36.7928 32.8235 35.4859C34.767 34.1765 36.125 32.1891 36.125 29.4964V16.295V16.2795C36.125 15.9675 36.1251 15.6252 36.0273 15.3613C35.976 15.2227 35.8953 15.0979 35.7682 15.0089C35.6411 14.9199 35.4793 14.875 35.2806 14.875C35.0818 14.875 34.9201 14.9199 34.793 15.0089C34.6658 15.0979 34.5852 15.2227 34.5339 15.3613C34.4361 15.6252 34.4362 15.9674 34.4362 16.2793V16.295V29.3165C34.4362 31.9573 33.0064 33.5569 31.2334 34.503C29.4542 35.4525 27.336 35.7383 26 35.7383C24.3944 35.7383 22.1549 35.4166 20.2761 34.2113Z" fill="#111928" stroke="#111928" stroke-width="0.25"/>
</svg>
