<svg width="53" height="53" viewBox="0 0 53 53" fill="none" xmlns="http://www.w3.org/2000/svg">
<g filter="url(#filter0_d)">
<rect width="52" height="52" fill="none"/>
<g clip-path="url(#clip0)">
<path d="M11.5838 22.7082C10.8269 22.7082 10.2241 22.4524 9.77553 21.9409C9.32695 21.4293 9.10266 20.8041 9.10266 20.0652C9.10266 18.0475 9.84562 16.2997 11.3315 14.8219C12.8174 13.3441 14.6678 12.6052 16.8827 12.6052C19.4339 12.6052 21.5647 13.401 23.2749 14.9924C24.9851 16.5839 25.8542 18.6443 25.8822 21.1736C25.8822 22.3956 25.6018 23.5608 25.0411 24.6691C24.4804 25.7775 23.8075 26.7437 23.0225 27.5679C22.2375 28.392 21.1161 29.4435 19.6582 30.7224C18.6489 31.6034 17.2471 32.9106 15.4528 34.6442L12.9716 37.0314L16.1677 37.074C20.5694 37.074 22.9104 37.003 23.1908 36.8609C23.387 36.804 23.7234 35.5394 24.2 33.0669V32.9391H25.8822V33.0669C25.8542 33.1522 25.6719 34.4453 25.3355 36.9461C24.9991 39.447 24.7888 40.7543 24.7047 40.868V40.9958H9.10266V40.1859V39.6744C9.10266 39.4754 9.18677 39.2623 9.35499 39.0349C9.5232 38.8076 9.94374 38.3103 10.6166 37.5429C11.4296 36.6335 12.1305 35.8378 12.7193 35.1557C12.9716 34.8715 13.4482 34.3458 14.1491 33.5785C14.85 32.8112 15.3267 32.2854 15.579 32.0012C15.8313 31.717 16.2378 31.2481 16.7985 30.5945C17.3593 29.9408 17.7518 29.4577 17.9761 29.1451C18.2003 28.8325 18.5228 28.4062 18.9433 27.8663C19.3638 27.3263 19.6582 26.8716 19.8264 26.5021C19.9946 26.1327 20.2049 25.7206 20.4572 25.2659C20.7096 24.8112 20.8918 24.3565 21.0039 23.9018C21.1161 23.4471 21.2142 23.0208 21.2983 22.6229C21.3824 22.2251 21.4245 21.7562 21.4245 21.2162C21.4245 19.4258 20.9479 17.877 19.9946 16.5697C19.0414 15.2624 17.6817 14.6088 15.9154 14.6088C14.9902 14.6088 14.1772 14.8503 13.4763 15.3335C12.7754 15.8166 12.2847 16.2855 12.0044 16.7402C11.724 17.1949 11.5838 17.4649 11.5838 17.5502C11.5838 17.5786 11.6539 17.5928 11.7941 17.5928C12.2988 17.5928 12.8174 17.7917 13.3501 18.1896C13.8828 18.5874 14.1491 19.2411 14.1491 20.1505C14.1491 20.861 13.9249 21.4578 13.4763 21.9409C13.0277 22.424 12.3969 22.6798 11.5838 22.7082Z" fill="black"/>
<path d="M29.6622 15.8251C29.6622 14.278 30.2271 12.9217 31.357 11.7564C32.4868 10.591 33.8446 10.0083 35.4303 10.0083C37.016 10.0083 38.3738 10.5709 39.5036 11.6961C40.6334 12.8213 41.2082 14.2177 41.2281 15.8853C41.2281 17.4525 40.6731 18.8188 39.5631 19.9842C38.453 21.1495 37.0854 21.7322 35.46 21.7322C33.8743 21.7322 32.5165 21.1595 31.3867 20.0143C30.2569 18.869 29.6821 17.4726 29.6622 15.8251ZM35.3113 11.244C34.1815 11.244 33.1607 11.666 32.2489 12.5098C31.3371 13.3537 30.8813 14.4688 30.8813 15.8552C30.8813 17.2014 31.3272 18.3064 32.2192 19.1704C33.1112 20.0344 34.1914 20.4764 35.46 20.4965C36.1339 20.4965 36.7583 20.3659 37.3331 20.1047C37.908 19.8435 38.3143 19.5823 38.5522 19.3211C38.79 19.0599 38.9981 18.8088 39.1765 18.5676C39.7315 17.8242 40.009 16.9201 40.009 15.8552C40.009 14.5894 39.5829 13.5044 38.7305 12.6002C37.8782 11.6961 36.7385 11.244 35.3113 11.244Z" fill="black"/>
<rect x="7" y="10.7949" width="19" height="31.7949" fill="#C4C4C4"/>
</g>
</g>
<defs>
<filter id="filter0_d" x="0" y="0" width="53" height="53" filterUnits="userSpaceOnUse" color-interpolation-filters="sRGB">
<feFlood flood-opacity="0" result="BackgroundImageFix"/>
<feColorMatrix in="SourceAlpha" type="matrix" values="0 0 0 0 0 0 0 0 0 0 0 0 0 0 0 0 0 0 127 0" result="hardAlpha"/>
<feOffset dx="1" dy="1"/>
<feColorMatrix type="matrix" values="0 0 0 0 0 0 0 0 0 0 0 0 0 0 0 0 0 0 0.25 0"/>
<feBlend mode="normal" in2="BackgroundImageFix" result="effect1_dropShadow"/>
<feBlend mode="normal" in="SourceGraphic" in2="effect1_dropShadow" result="shape"/>
</filter>
<clipPath id="clip0">
<rect width="38" height="31" fill="none" transform="translate(7 10)"/>
</clipPath>
</defs>
</svg>
