<svg width="53" height="53" viewBox="0 0 53 53" fill="none" xmlns="http://www.w3.org/2000/svg">
<g filter="url(#filter0_d_530_2710)">
<rect width="52" height="52" fill="none"/>
<path d="M26.5279 23.4028C25.9362 22.7419 25.1134 21.951 24.06 21.0304C22.9001 20.016 22.1189 19.2193 21.7164 18.6404C21.3139 18.0615 21.1128 17.4188 21.1128 16.7106C21.1128 15.6714 21.598 14.857 22.5687 14.2675C23.5393 13.6779 24.8057 13.377 26.3681 13.3646C27.9305 13.3646 29.2918 13.6301 30.4517 14.1613C31.6116 14.6924 32.1975 15.4236 32.2093 16.3566C32.2093 16.8045 32.0673 17.1763 31.7832 17.4719C31.4992 17.7676 31.1677 17.9145 30.789 17.9145C30.2445 17.9145 29.6053 17.5073 28.8715 16.6929C28.1258 15.8662 27.4985 15.289 26.9895 14.9579C26.4805 14.6269 25.8769 14.4569 25.1786 14.4445C24.3027 14.4445 23.5865 14.6393 23.0303 15.0288C22.474 15.4183 22.19 15.914 22.1781 16.5159C22.1781 17.0824 22.4089 17.6136 22.8705 18.1093C23.3321 18.605 24.5216 19.5079 26.4391 20.818C28.4868 22.2224 29.9309 23.3201 30.7712 24.1109C31.6116 24.9018 32.304 25.8636 32.8485 26.9967C33.393 28.1297 33.6594 29.3278 33.6475 30.5906C33.6475 32.8094 32.8663 34.7629 31.3039 36.4506C29.7415 38.1384 27.9069 38.9881 25.8 39C23.8944 39 22.2846 38.3214 20.9707 36.964C19.6569 35.6067 19 33.795 19 31.5289C19 29.3455 19.7221 27.522 21.166 26.0584C22.61 24.5948 24.3974 23.7096 26.5279 23.4028ZM27.3091 24.2171C23.9121 24.7718 22.2136 27.0971 22.2136 31.1925C22.2136 33.3051 22.6338 34.9458 23.4741 36.1142C24.3145 37.2827 25.3028 37.8669 26.4391 37.8669C27.6109 37.8669 28.5755 37.3063 29.3331 36.1851C30.0907 35.0639 30.4694 33.5353 30.4694 31.5997C30.4694 28.8143 29.416 26.3535 27.3091 24.2171Z" fill="black"/>
</g>
<defs>
<filter id="filter0_d_530_2710" x="0" y="0" width="53" height="53" filterUnits="userSpaceOnUse" color-interpolation-filters="sRGB">
<feFlood flood-opacity="0" result="BackgroundImageFix"/>
<feColorMatrix in="SourceAlpha" type="matrix" values="0 0 0 0 0 0 0 0 0 0 0 0 0 0 0 0 0 0 127 0" result="hardAlpha"/>
<feOffset dx="1" dy="1"/>
<feColorMatrix type="matrix" values="0 0 0 0 0 0 0 0 0 0 0 0 0 0 0 0 0 0 0.25 0"/>
<feBlend mode="normal" in2="BackgroundImageFix" result="effect1_dropShadow_530_2710"/>
<feBlend mode="normal" in="SourceGraphic" in2="effect1_dropShadow_530_2710" result="shape"/>
</filter>
</defs>
</svg>
