<svg width="52" height="52" viewBox="0 0 52 52" fill="none" xmlns="http://www.w3.org/2000/svg">
<g clip-path="url(#clip0_315_6229)">
<path d="M52 0H0V52H52V0Z" fill="white"/>
<mask id="mask0_315_6229" style="mask-type:luminance" maskUnits="userSpaceOnUse" x="8" y="11" width="3" height="30">
<path d="M10.8287 40.3418H8.5V11.6562H10.8287V40.3418Z" fill="white"/>
</mask>
<g mask="url(#mask0_315_6229)">
<path d="M9.6646 47.5139H9.64785C9.58084 47.5139 9.53058 47.3129 9.49707 46.9109V25.9795L9.50545 5.04818C9.56129 4.67492 9.61434 4.48828 9.6646 4.48828C9.73721 4.48828 9.79305 4.70362 9.83214 5.13431V46.9109C9.78747 47.3129 9.73721 47.5139 9.68136 47.5139H9.6646Z" fill="#0B76B7"/>
</g>
<path d="M10.8271 16.3146C10.8271 15.7765 11.0394 15.2651 11.4638 14.7802C11.8882 14.2953 12.3657 14.0503 12.8962 14.0449C13.181 14.0449 13.4323 14.1755 13.6501 14.4365C13.7394 14.2767 13.8679 14.1968 14.0354 14.1968C14.1081 14.1968 14.1723 14.2181 14.2281 14.2607C14.284 14.3033 14.3119 14.3566 14.3119 14.4205C14.3119 14.4899 14.2086 14.916 14.0019 15.6993C13.7953 16.4825 13.6892 16.9247 13.6836 17.026C13.6836 17.1592 13.7032 17.2471 13.7422 17.2896C13.7814 17.3323 13.84 17.3562 13.9181 17.3616C13.9685 17.3562 14.0243 17.3323 14.0857 17.2896C14.203 17.1831 14.3175 16.9274 14.4291 16.5224C14.4627 16.4159 14.4906 16.3599 14.5129 16.3547C14.5241 16.3493 14.552 16.3466 14.5967 16.3466H14.6302C14.7363 16.3466 14.7894 16.3706 14.7894 16.4185C14.7894 16.4506 14.7754 16.5224 14.7474 16.6343C14.7195 16.7462 14.6637 16.8901 14.5799 17.0659C14.4962 17.2417 14.4068 17.3749 14.3119 17.4655C14.2393 17.5348 14.1499 17.5907 14.0438 17.6333C13.9992 17.644 13.9321 17.6493 13.8428 17.6493C13.6529 17.6493 13.4938 17.6094 13.3653 17.5294C13.2369 17.4495 13.1531 17.3669 13.114 17.2817L13.0637 17.1618C13.0582 17.1565 13.047 17.1592 13.0302 17.1698C13.0191 17.1805 13.0079 17.1911 12.9967 17.2017C12.6672 17.5001 12.3322 17.6493 11.9915 17.6493C11.6844 17.6493 11.4135 17.5428 11.179 17.3297C10.9444 17.1165 10.8271 16.7782 10.8271 16.3146ZM13.491 14.9481C13.491 14.916 13.477 14.8574 13.4491 14.7722C13.4211 14.6869 13.3569 14.5937 13.2564 14.4925C13.1559 14.3912 13.0274 14.338 12.8711 14.3326C12.6756 14.3326 12.4885 14.4152 12.3098 14.5804C12.1311 14.7455 11.9915 14.9614 11.891 15.2278C11.7291 15.6487 11.6146 16.0855 11.5476 16.5384C11.5476 16.5544 11.5476 16.5837 11.5476 16.6263C11.5476 16.669 11.5448 16.7009 11.5392 16.7222C11.5392 16.962 11.5894 17.1271 11.69 17.2178C11.7905 17.3083 11.9105 17.3562 12.0502 17.3616C12.2624 17.3616 12.4718 17.2737 12.6784 17.0978C12.885 16.922 13.0079 16.7862 13.047 16.6903C13.0582 16.669 13.1335 16.3839 13.2732 15.8351C13.4128 15.2864 13.4854 14.9906 13.491 14.9481Z" fill="#0B76B7"/>
<path d="M24.589 12.3991C24.589 12.3458 24.6001 12.2845 24.6224 12.2152C24.6448 12.146 24.6783 12.1113 24.7229 12.1113C24.7285 12.1113 24.9296 12.098 25.3261 12.0714C25.7225 12.0448 25.9264 12.0288 25.9376 12.0234C26.0046 12.0234 26.0381 12.0474 26.0381 12.0954C26.0381 12.1433 25.9432 12.5243 25.7533 13.2382C25.7086 13.4194 25.6611 13.6058 25.6109 13.7976C25.5606 13.9894 25.5187 14.1333 25.4852 14.2292L25.4517 14.3811C25.4517 14.3971 25.4685 14.3891 25.502 14.3571C25.7757 14.1439 26.0576 14.0374 26.348 14.0374C26.6943 14.0374 26.9735 14.16 27.1857 14.4051C27.3979 14.6501 27.5068 14.9592 27.5124 15.3321C27.5124 15.9235 27.2918 16.4589 26.8506 16.9385C26.4095 17.418 25.9348 17.6578 25.4266 17.6578C25.1474 17.6578 24.8933 17.5565 24.6643 17.3541C24.4354 17.1516 24.3181 16.8239 24.3125 16.371V16.2992C24.3125 16.1873 24.3348 16.0328 24.3795 15.8356C24.4242 15.6385 24.561 15.1137 24.79 14.2612C25.0692 13.2116 25.2088 12.6548 25.2088 12.5909C25.2088 12.5269 25.1027 12.4896 24.8905 12.479C24.8625 12.479 24.8402 12.479 24.8235 12.479H24.7816C24.7257 12.479 24.6894 12.479 24.6727 12.479C24.6559 12.479 24.6364 12.471 24.6141 12.455C24.5917 12.439 24.5834 12.4204 24.589 12.3991ZM26.792 14.9725V14.9245C26.792 14.5303 26.6217 14.3331 26.281 14.3331C26.1861 14.3331 26.0884 14.3544 25.9878 14.3971C25.8873 14.4396 25.7952 14.4956 25.7114 14.5648C25.6277 14.6342 25.555 14.6981 25.4936 14.7567C25.4322 14.8153 25.3819 14.8739 25.3428 14.9325L25.2926 14.9964L25.1167 15.6837C24.9938 16.1419 24.9324 16.4669 24.9324 16.6587C24.9324 16.9145 24.9994 17.1063 25.1334 17.2342C25.2227 17.3194 25.3345 17.3621 25.4685 17.3621C25.6528 17.3621 25.8398 17.2768 26.0297 17.1063C26.1693 16.9838 26.281 16.8346 26.3648 16.6587C26.4486 16.483 26.5407 16.2033 26.6412 15.8196C26.7417 15.436 26.792 15.1536 26.792 14.9725Z" fill="#0B76B7"/>
<path d="M37.3359 16.2998C37.3359 15.7191 37.576 15.1969 38.0563 14.7334C38.5366 14.2698 39.0559 14.0381 39.6144 14.0381C39.9271 14.0381 40.1729 14.102 40.3516 14.2299C40.5303 14.3577 40.6224 14.5256 40.6279 14.7334C40.6279 14.8879 40.5749 15.0184 40.4689 15.125C40.3627 15.2316 40.2287 15.2875 40.0667 15.2928C39.9606 15.2928 39.8769 15.2661 39.8155 15.2129C39.754 15.1596 39.7233 15.0797 39.7233 14.9732C39.7233 14.8666 39.754 14.776 39.8155 14.7014C39.8769 14.6268 39.9383 14.5709 39.9997 14.5336C40.0611 14.4963 40.1002 14.4803 40.117 14.4857H40.1253C40.1253 14.475 40.1086 14.459 40.0751 14.4377C40.0416 14.4163 39.983 14.395 39.8992 14.3737C39.8155 14.3524 39.7205 14.3418 39.6144 14.3418C39.4468 14.3418 39.2877 14.3791 39.137 14.4536C39.0197 14.5016 38.8996 14.5842 38.7767 14.7014C38.531 14.9359 38.3523 15.2661 38.2406 15.6924C38.1289 16.1186 38.0703 16.4277 38.0647 16.6195C38.0647 16.8645 38.1373 17.0484 38.2825 17.1709C38.4053 17.2988 38.5673 17.3627 38.7683 17.3627H38.8019C39.4273 17.3627 39.9438 17.1363 40.3516 16.6834C40.4018 16.6301 40.4353 16.6035 40.452 16.6035C40.4744 16.6035 40.5107 16.6275 40.561 16.6755C40.6112 16.7234 40.6392 16.7607 40.6448 16.7873C40.6503 16.8139 40.6251 16.8539 40.5693 16.9072C40.5135 16.9604 40.4325 17.035 40.3264 17.1309C40.2203 17.2268 40.0946 17.3068 39.9494 17.3707C39.8043 17.4347 39.6255 17.5013 39.4133 17.5705C39.2011 17.6398 38.9778 17.6691 38.7432 17.6584C38.3244 17.6584 37.9865 17.5306 37.7296 17.2748C37.4728 17.0191 37.3415 16.6941 37.3359 16.2998Z" fill="#0B76B7"/>
<path d="M13.6557 22.459C13.6613 22.459 13.8623 22.4457 14.2588 22.4191C14.6553 22.3924 14.8591 22.3764 14.8703 22.3711C14.9373 22.3711 14.9709 22.3924 14.9709 22.4351C14.9709 22.4723 14.767 23.2769 14.3593 24.8486C13.9516 26.4204 13.7422 27.2222 13.7311 27.2542C13.7199 27.2862 13.7171 27.3261 13.7227 27.3741C13.7227 27.5978 13.8008 27.7097 13.9572 27.7097C14.0075 27.7044 14.0633 27.6804 14.1247 27.6378C14.242 27.5312 14.3565 27.2755 14.4682 26.8706C14.5017 26.764 14.5296 26.7081 14.552 26.7028C14.5631 26.6974 14.591 26.6948 14.6358 26.6948H14.6693H14.7028C14.7865 26.6948 14.8284 26.7161 14.8284 26.7587C14.8284 26.7853 14.8201 26.828 14.8033 26.8866C14.7307 27.153 14.6469 27.3687 14.552 27.534C14.457 27.6991 14.3789 27.8056 14.3175 27.8536C14.256 27.9015 14.1778 27.9442 14.0829 27.9814C14.0382 27.9921 13.9712 27.9974 13.8818 27.9974C13.692 27.9974 13.5328 27.9575 13.4044 27.8776C13.2759 27.7976 13.1921 27.7151 13.1531 27.6299L13.1028 27.5099C13.0972 27.5046 13.086 27.5073 13.0693 27.5179C13.0581 27.5286 13.047 27.5392 13.0358 27.5499C12.7063 27.8483 12.3712 27.9974 12.0306 27.9974C11.7234 27.9974 11.4526 27.8909 11.218 27.6778C10.9835 27.4646 10.8662 27.1263 10.8662 26.6628C10.8662 26.4071 10.9221 26.146 11.0337 25.8796C11.1454 25.6132 11.2795 25.3841 11.4358 25.1923C11.6983 24.8886 11.9608 24.6781 12.2232 24.5609C12.4857 24.4437 12.7231 24.3851 12.9353 24.3851C13.248 24.3851 13.4825 24.497 13.6389 24.7208C13.6669 24.7527 13.6808 24.7634 13.6808 24.7527C13.6864 24.7314 13.7617 24.441 13.907 23.8816C14.0522 23.3221 14.1303 23.0264 14.1416 22.9945C14.1416 22.9252 14.1219 22.8826 14.0829 22.8667C14.0438 22.8506 13.9349 22.8374 13.7562 22.8267H13.5803C13.5468 22.7947 13.53 22.7734 13.53 22.7627C13.53 22.7521 13.5356 22.7014 13.5468 22.6109C13.5747 22.5096 13.611 22.459 13.6557 22.459ZM13.5384 25.3121C13.4099 24.8912 13.2005 24.6808 12.9101 24.6808C12.7147 24.6808 12.5276 24.7634 12.3489 24.9285C12.1702 25.0937 12.0306 25.3095 11.9301 25.5759C11.7681 25.9968 11.6536 26.4337 11.5866 26.8866C11.5866 26.9026 11.5866 26.9319 11.5866 26.9745C11.5866 27.0171 11.5838 27.0491 11.5782 27.0704C11.5782 27.3101 11.6285 27.4753 11.729 27.5659C11.8295 27.6564 11.9496 27.7044 12.0892 27.7097C12.3908 27.7097 12.7007 27.5179 13.019 27.1343L13.086 27.0464L13.5384 25.3121Z" fill="#0B76B7"/>
<path d="M24.1475 26.5743C24.1475 26.2706 24.2006 25.9935 24.3066 25.7431C24.4128 25.4927 24.5496 25.2849 24.7171 25.1198C24.8847 24.9546 25.0717 24.816 25.2783 24.7042C25.4849 24.5923 25.6805 24.5097 25.8647 24.4565C26.049 24.4031 26.2249 24.3792 26.3925 24.3845H26.4176C26.6689 24.3845 26.8867 24.4431 27.071 24.5604C27.2553 24.6776 27.3474 24.8507 27.3474 25.0798C27.3474 25.5593 27.0375 25.8737 26.4176 26.0229C26.1439 26.0922 25.7698 26.1295 25.2951 26.1347C25.0885 26.1347 24.9823 26.1401 24.9768 26.1508C24.9768 26.1614 24.96 26.2547 24.9265 26.4304C24.893 26.6063 24.8735 26.7608 24.8679 26.894C24.8679 27.1444 24.9265 27.3415 25.0438 27.4854C25.161 27.6292 25.3369 27.7038 25.5715 27.7092C25.8061 27.7145 26.0658 27.6639 26.3506 27.5573C26.6354 27.4508 26.8923 27.2749 27.1212 27.0299C27.1715 26.9766 27.205 26.9499 27.2218 26.9499C27.2441 26.9499 27.2804 26.9739 27.3306 27.0219C27.3809 27.0698 27.4088 27.1071 27.4144 27.1338C27.42 27.1604 27.3949 27.203 27.339 27.2616C27.2832 27.3202 27.1994 27.3922 27.0877 27.4774C26.976 27.5626 26.8475 27.6452 26.7024 27.7251C26.5572 27.8051 26.3813 27.8717 26.1746 27.9249C25.968 27.9782 25.7558 28.0049 25.5381 28.0049C25.0968 28.0049 24.7562 27.8637 24.5161 27.5813C24.2759 27.2989 24.153 26.9633 24.1475 26.5743ZM26.9453 25.0958C26.9118 24.8188 26.722 24.6802 26.3757 24.6802C26.1914 24.6802 26.0211 24.7175 25.8647 24.7921C25.7084 24.8667 25.5827 24.9573 25.4877 25.0638C25.3928 25.1704 25.3118 25.2796 25.2448 25.3915C25.1778 25.5034 25.1331 25.5993 25.1108 25.6792C25.0885 25.7591 25.0745 25.8097 25.0689 25.831C25.0689 25.8364 25.1248 25.839 25.2365 25.839C25.8675 25.839 26.3087 25.7752 26.56 25.6472C26.8113 25.5194 26.9397 25.3356 26.9453 25.0958Z" fill="#0B76B7"/>
<path d="M37.5502 29.2113C37.5613 29.2113 37.5781 29.2166 37.6005 29.2273C37.6228 29.2379 37.6535 29.2459 37.6926 29.2513C37.7317 29.2566 37.7652 29.2593 37.7932 29.2593C37.8657 29.2593 37.9328 29.2246 37.9942 29.1554C38.0556 29.0861 38.1003 29.0088 38.1282 28.9236C38.184 28.7797 38.279 28.3722 38.413 27.7009C38.547 27.0295 38.6755 26.3902 38.7984 25.7827C38.9212 25.1754 38.9826 24.869 38.9826 24.8637V24.8397H38.589C38.3265 24.8397 38.1868 24.8344 38.1701 24.8237C38.1478 24.8077 38.1366 24.781 38.1366 24.7438L38.1952 24.52C38.2064 24.4933 38.2287 24.4801 38.2623 24.4801C38.2958 24.4801 38.427 24.4774 38.6559 24.4721C38.924 24.4721 39.058 24.4694 39.058 24.464C39.058 24.4534 39.0831 24.3202 39.1334 24.0645C39.1837 23.8088 39.2172 23.6542 39.2339 23.6009C39.4406 22.7218 39.8482 22.2822 40.457 22.2822C40.6636 22.2929 40.8339 22.3515 40.9679 22.4581C41.102 22.5647 41.169 22.7058 41.169 22.8817C41.169 23.0735 41.1103 23.212 40.9931 23.2972C40.8758 23.3825 40.7585 23.4278 40.6412 23.4331C40.3955 23.4331 40.2727 23.3212 40.2727 23.0974C40.2727 22.9962 40.3034 22.9083 40.3648 22.8337C40.4263 22.7591 40.4932 22.7032 40.5658 22.6659L40.6412 22.6259C40.5518 22.594 40.4681 22.578 40.3899 22.578C40.3229 22.578 40.2587 22.6046 40.1972 22.6579C40.1358 22.7112 40.094 22.7858 40.0716 22.8817C40.0325 23.0362 39.9878 23.244 39.9376 23.505C39.8873 23.7661 39.8426 23.9872 39.8036 24.1683C39.7645 24.3495 39.7449 24.4454 39.7449 24.456C39.7449 24.4667 39.8985 24.4721 40.2056 24.4721C40.457 24.4721 40.6022 24.4747 40.6412 24.4801C40.6803 24.4854 40.711 24.5013 40.7333 24.528C40.7389 24.5493 40.7333 24.5946 40.7166 24.6639C40.6998 24.7331 40.6859 24.7758 40.6747 24.7917C40.6636 24.8183 40.6384 24.8317 40.5994 24.8317C40.5602 24.8317 40.4094 24.8344 40.147 24.8397H39.6779L39.4852 25.8147C39.2172 27.1361 39.0301 27.9619 38.924 28.2922C38.7732 28.7451 38.5777 29.0808 38.3376 29.2992C38.131 29.4697 37.9272 29.5549 37.7261 29.5549C37.5474 29.5549 37.3854 29.5043 37.2402 29.4031C37.0951 29.3019 37.0225 29.158 37.0225 28.9715C37.0225 28.7744 37.0811 28.6306 37.1984 28.5399C37.3157 28.4494 37.433 28.4041 37.5502 28.4041C37.7959 28.4041 37.9187 28.516 37.9187 28.7397C37.9187 28.841 37.888 28.9289 37.8266 29.0035C37.7652 29.0781 37.6982 29.134 37.6256 29.1713L37.5502 29.2113Z" fill="#0B76B7"/>
<path d="M13.3759 37.9203C13.2921 37.9895 13.1693 38.0641 13.0073 38.144C12.8454 38.2239 12.675 38.264 12.4963 38.264C12.1445 38.264 11.8625 38.144 11.6503 37.9043C11.4381 37.6645 11.3292 37.3582 11.3236 36.9852C11.3236 36.4258 11.5386 35.9117 11.9686 35.4428C12.3986 34.9739 12.8761 34.7368 13.401 34.7314C13.6635 34.7314 13.9064 34.8594 14.1298 35.1151L14.1549 35.0831C14.1661 35.0671 14.18 35.0512 14.1968 35.0352C14.2136 35.0192 14.2387 34.9979 14.2722 34.9712C14.3057 34.9446 14.342 34.926 14.3811 34.9153C14.4202 34.9046 14.4649 34.8967 14.5151 34.8913C14.5933 34.8913 14.6575 34.9153 14.7078 34.9633C14.7581 35.0112 14.786 35.0618 14.7916 35.1151C14.7916 35.195 14.6324 35.8397 14.3141 37.0492C13.9958 38.2586 13.8282 38.8767 13.8115 38.9033C13.711 39.191 13.496 39.4281 13.1665 39.6146C12.837 39.801 12.46 39.8969 12.0356 39.9023C11.2482 39.9023 10.8545 39.7211 10.8545 39.3588C10.8545 39.2203 10.9048 39.0978 11.0053 38.9912C11.1058 38.8846 11.2342 38.8314 11.3906 38.8314C11.4744 38.8314 11.5526 38.8553 11.6252 38.9033C11.6978 38.9512 11.7368 39.0338 11.7424 39.151C11.7424 39.2043 11.7368 39.2549 11.7257 39.3029C11.7145 39.3508 11.695 39.3881 11.667 39.4148C11.6391 39.4414 11.6168 39.4681 11.6 39.4947C11.5833 39.5213 11.5637 39.5426 11.5414 39.5586L11.5246 39.5746H11.533C11.5889 39.5906 11.7564 39.5986 12.0356 39.5986C12.2478 39.5986 12.4154 39.5666 12.5382 39.5027C12.6667 39.4441 12.7867 39.3562 12.8984 39.239C13.0101 39.1217 13.0883 38.9965 13.133 38.8633C13.1665 38.7621 13.2112 38.5969 13.267 38.3678C13.3396 38.1121 13.3759 37.9629 13.3759 37.9203ZM13.9874 35.6426L13.9539 35.5546C13.9371 35.496 13.9232 35.4561 13.912 35.4348C13.9009 35.4135 13.8841 35.3762 13.8617 35.3229C13.8394 35.2696 13.8115 35.2323 13.778 35.211C13.7445 35.1897 13.7082 35.1604 13.6691 35.1231C13.63 35.0858 13.5797 35.0618 13.5183 35.0512C13.4569 35.0405 13.3954 35.0325 13.334 35.0272C13.0883 35.0272 12.851 35.1684 12.622 35.4508C12.4545 35.6585 12.3148 35.9755 12.2031 36.4018C12.0915 36.828 12.0356 37.1371 12.0356 37.3289C12.0356 37.7498 12.2087 37.9602 12.555 37.9602C12.8677 37.9602 13.1748 37.7737 13.4764 37.4008L13.5435 37.3209L13.9874 35.6426Z" fill="#0B76B7"/>
<path d="M24.5092 32.8067C24.5147 32.8067 24.7158 32.7933 25.1123 32.7667C25.5088 32.7401 25.7126 32.7241 25.7238 32.7188C25.7908 32.7188 25.8243 32.7427 25.8243 32.7907C25.8243 32.8493 25.7238 33.2515 25.5227 33.9975C25.3106 34.786 25.2044 35.1883 25.2044 35.2042C25.2044 35.2149 25.224 35.2016 25.2631 35.1643C25.6038 34.8766 25.9667 34.7327 26.352 34.7327C26.6536 34.7327 26.8966 34.8047 27.0809 34.9485C27.2651 35.0924 27.36 35.3029 27.3656 35.5799C27.3656 35.8516 27.2596 36.2725 27.0473 36.8426C26.8351 37.4127 26.7291 37.7537 26.7291 37.8656C26.7346 37.9401 26.7486 37.9908 26.7709 38.0174C26.7932 38.044 26.8351 38.0574 26.8966 38.0574C27.0529 38.0574 27.1981 37.9774 27.3321 37.8176C27.4662 37.6578 27.5751 37.4393 27.6588 37.1623C27.6756 37.1037 27.6923 37.069 27.7091 37.0584C27.7258 37.0477 27.7705 37.0424 27.8431 37.0424C27.9548 37.0424 28.0106 37.0637 28.0106 37.1063C28.0106 37.1117 27.9995 37.1516 27.9772 37.2263C27.8878 37.5406 27.7454 37.799 27.5499 38.0015C27.36 38.2306 27.1339 38.3451 26.8714 38.3451H26.8295C26.5671 38.3451 26.3772 38.2732 26.2599 38.1293C26.1426 37.9855 26.084 37.8336 26.084 37.6737C26.084 37.5885 26.1845 37.2742 26.3855 36.7307C26.5866 36.1873 26.6899 35.7797 26.6955 35.5079C26.6955 35.1936 26.5727 35.0364 26.3269 35.0364H26.2851C25.8215 35.0364 25.4195 35.2975 25.0788 35.8197L25.0201 35.9235L24.7354 37.0024C24.5566 37.6951 24.4533 38.0733 24.4254 38.1373C24.3528 38.2812 24.2299 38.3531 24.0568 38.3531C23.9787 38.3531 23.9117 38.3291 23.8558 38.2812C23.8 38.2332 23.7693 38.1853 23.7637 38.1373C23.7637 38.0627 23.9675 37.2528 24.3751 35.7078L24.995 33.3422C24.995 33.2728 24.9755 33.2302 24.9364 33.2142C24.8973 33.1983 24.7884 33.1849 24.6097 33.1743H24.4338C24.4003 33.1424 24.3835 33.121 24.3835 33.1103C24.3835 33.0997 24.3891 33.0491 24.4003 32.9585C24.4282 32.8573 24.4645 32.8067 24.5092 32.8067Z" fill="#0B76B7"/>
<path d="M38.9622 33.468C38.9622 33.3401 39.0152 33.2282 39.1213 33.1323C39.2274 33.0364 39.3502 32.9858 39.4899 32.9805C39.5903 32.9805 39.6742 33.0124 39.7411 33.0764C39.8082 33.1403 39.8445 33.2202 39.8501 33.3161C39.8501 33.4387 39.7942 33.5505 39.6825 33.6518C39.5708 33.753 39.448 33.8063 39.314 33.8117C39.2302 33.8117 39.152 33.785 39.0794 33.7317C39.0068 33.6785 38.9677 33.5905 38.9622 33.468ZM37.5967 35.9694C37.5967 35.9269 37.6219 35.8442 37.6721 35.7217C37.7224 35.5992 37.7894 35.4633 37.8731 35.3141C37.9569 35.1649 38.0797 35.0291 38.2417 34.9065C38.4037 34.784 38.5712 34.7254 38.7443 34.7307C38.9622 34.7307 39.1436 34.792 39.2888 34.9145C39.434 35.0371 39.5094 35.2022 39.515 35.41C39.515 35.5006 39.4759 35.6498 39.3977 35.8576C39.3195 36.0653 39.2078 36.3451 39.0626 36.6967C38.9174 37.0484 38.8002 37.3494 38.7108 37.5998C38.6829 37.717 38.6689 37.8023 38.6689 37.8555C38.6689 37.9887 38.7164 38.0553 38.8114 38.0553C38.8616 38.0553 38.9146 38.0473 38.9705 38.0314C39.0263 38.0154 39.0905 37.9781 39.1632 37.9195C39.2357 37.8609 39.3112 37.7676 39.3893 37.6398C39.4675 37.5119 39.5373 37.3547 39.5987 37.1682C39.6155 37.1043 39.6295 37.067 39.6407 37.0564C39.6518 37.0457 39.6993 37.0404 39.7831 37.0404C39.8947 37.0404 39.9506 37.067 39.9506 37.1203C39.9506 37.1629 39.9254 37.2455 39.8752 37.368C39.8249 37.4906 39.7551 37.6264 39.6658 37.7756C39.5764 37.9249 39.4508 38.058 39.2888 38.1753C39.1269 38.2924 38.9538 38.351 38.7694 38.351C38.5907 38.351 38.426 38.2951 38.2752 38.1833C38.1245 38.0713 38.0463 37.9008 38.0407 37.6717C38.0407 37.5812 38.0546 37.4959 38.0825 37.416C38.1104 37.3361 38.2305 37.0324 38.4427 36.5049C38.655 35.9668 38.7778 35.6444 38.8114 35.5379C38.8449 35.4313 38.8644 35.3274 38.87 35.2262C38.87 35.0983 38.8225 35.0344 38.7276 35.0344H38.7108C38.5433 35.0344 38.3897 35.1223 38.2501 35.2981C38.1104 35.4739 38.0044 35.6977 37.9317 35.9694C37.9262 35.9748 37.9206 35.9828 37.915 35.9935C37.9094 36.0041 37.9066 36.0121 37.9066 36.0174C37.9066 36.0228 37.901 36.028 37.8899 36.0334C37.8787 36.0387 37.8703 36.0414 37.8648 36.0414C37.8592 36.0414 37.848 36.0414 37.8313 36.0414C37.8145 36.0414 37.7922 36.0414 37.7642 36.0414H37.647C37.6134 36.0094 37.5967 35.9855 37.5967 35.9694Z" fill="#0B76B7"/>
<mask id="mask1_315_6229" style="mask-type:luminance" maskUnits="userSpaceOnUse" x="41" y="11" width="3" height="30">
<path d="M43.5016 40.3428H41.1729V11.6572H43.5016V40.3428Z" fill="white"/>
</mask>
<g mask="url(#mask1_315_6229)">
<path d="M42.3355 47.5109H42.3187C42.2517 47.5109 42.2015 47.31 42.168 46.908V25.9766L42.1763 5.04525C42.2322 4.67199 42.2852 4.48535 42.3355 4.48535C42.4081 4.48535 42.4639 4.70069 42.503 5.13138V46.908C42.4583 47.31 42.4081 47.5109 42.3522 47.5109H42.3355Z" fill="#0B76B7"/>
</g>
</g>
<defs>
<clipPath id="clip0_315_6229">
<rect width="52" height="52" rx="4" fill="white"/>
</clipPath>
</defs>
</svg>
