<svg width="52" height="52" viewBox="0 0 52 52" fill="none" xmlns="http://www.w3.org/2000/svg">
<g clip-path="url(#clip0_315_6287)">
<path d="M52 0H0V52H52V0Z" fill="white"/>
<path d="M36.1899 29.7481C36.1977 29.7481 36.4787 29.7284 37.0329 29.689C37.5871 29.6496 37.872 29.626 37.8876 29.6182C37.9813 29.6182 38.0281 29.6496 38.0281 29.7127C38.0281 29.7678 37.7432 30.9572 37.1734 33.2807C36.6036 35.6042 36.3109 36.7896 36.2953 36.8368C36.2797 36.8841 36.2758 36.9432 36.2836 37.014C36.2836 37.3449 36.3929 37.5102 36.6114 37.5102C36.6817 37.5024 36.7597 37.4669 36.8456 37.404C37.0095 37.2464 37.1695 36.8684 37.3256 36.2698C37.3724 36.1122 37.4115 36.0295 37.4427 36.0216C37.4583 36.0138 37.4974 36.0099 37.5598 36.0099H37.6066H37.6535C37.7705 36.0099 37.8291 36.0413 37.8291 36.1044C37.8291 36.1438 37.8173 36.2067 37.7939 36.2934C37.6925 36.6872 37.5754 37.0062 37.4427 37.2504C37.31 37.4945 37.2007 37.6521 37.1149 37.7229C37.029 37.7939 36.9197 37.8568 36.787 37.9119C36.7246 37.9278 36.6309 37.9356 36.5061 37.9356C36.2407 37.9356 36.0182 37.8765 35.8387 37.7584C35.6591 37.6402 35.542 37.5182 35.4874 37.3922L35.4172 37.2149C35.4093 37.2071 35.3937 37.211 35.3703 37.2267C35.3547 37.2424 35.3391 37.2583 35.3235 37.274C34.863 37.7151 34.3946 37.9356 33.9185 37.9356C33.4892 37.9356 33.1106 37.778 32.7828 37.463C32.455 37.1479 32.291 36.6478 32.291 35.9626C32.291 35.5845 32.3691 35.1986 32.5252 34.8048C32.6813 34.4109 32.8686 34.0722 33.0872 33.7887C33.4541 33.3397 33.8209 33.0286 34.1877 32.8553C34.5547 32.682 34.8864 32.5954 35.183 32.5954C35.6201 32.5954 35.9479 32.7608 36.1665 33.0916C36.2055 33.1389 36.225 33.1547 36.225 33.1389C36.2328 33.1074 36.3382 32.6781 36.5412 31.8511C36.7441 31.0241 36.8534 30.5869 36.869 30.5397C36.869 30.4373 36.8416 30.3743 36.787 30.3506C36.7324 30.327 36.5802 30.3073 36.3304 30.2916H36.0846C36.0377 30.2444 36.0143 30.2128 36.0143 30.1971C36.0143 30.1813 36.022 30.1065 36.0377 29.9726C36.0767 29.8229 36.1275 29.7481 36.1899 29.7481ZM36.026 33.9659C35.8464 33.3437 35.5538 33.0325 35.1479 33.0325C34.8746 33.0325 34.6132 33.1547 34.3634 33.3988C34.1136 33.643 33.9185 33.962 33.778 34.3558C33.5516 34.9781 33.3916 35.6239 33.298 36.2934C33.298 36.317 33.298 36.3604 33.298 36.4233C33.298 36.4863 33.2941 36.5336 33.2862 36.5651C33.2862 36.9195 33.3565 37.1638 33.497 37.2977C33.6375 37.4315 33.8053 37.5024 34.0005 37.5102C34.422 37.5102 34.8551 37.2267 35.3001 36.6596L35.3937 36.5296L36.026 33.9659Z" fill="#0B76B7"/>
<mask id="mask0_315_6287" style="mask-type:luminance" maskUnits="userSpaceOnUse" x="11" y="12" width="4" height="28">
<path d="M14.2549 39.5498H11V12.4389H14.2549V39.5498Z" fill="white"/>
</mask>
<g mask="url(#mask0_315_6287)">
<path d="M12.6277 46.3274H12.6043C12.5106 46.3274 12.4404 46.1375 12.3936 45.7576V25.9769L12.4053 6.19611C12.4833 5.84336 12.5575 5.66699 12.6277 5.66699C12.7292 5.66699 12.8072 5.8705 12.8619 6.27751V45.7576C12.7994 46.1375 12.7292 46.3274 12.6511 46.3274H12.6277Z" fill="#0B76B7"/>
</g>
<path d="M14.3887 20.6669C14.3887 19.8714 14.6853 19.1152 15.2785 18.3985C15.8717 17.6817 16.5391 17.3194 17.2806 17.3115C17.6787 17.3115 18.0299 17.5045 18.3343 17.8905C18.4593 17.6542 18.6388 17.536 18.8729 17.536C18.9745 17.536 19.0642 17.5676 19.1423 17.6305C19.2203 17.6936 19.2594 17.7723 19.2594 17.8669C19.2594 17.9692 19.1149 18.5993 18.8261 19.7572C18.5373 20.915 18.389 21.5687 18.3812 21.7184C18.3812 21.9153 18.4085 22.0452 18.4632 22.1083C18.5178 22.1713 18.5997 22.2067 18.7091 22.2146C18.7793 22.2067 18.8574 22.1713 18.9432 22.1083C19.1072 21.9507 19.2671 21.5727 19.4232 20.9741C19.4701 20.8166 19.5091 20.7339 19.5403 20.726C19.5559 20.7181 19.5949 20.7141 19.6574 20.7141H19.7042C19.8526 20.7141 19.9267 20.7496 19.9267 20.8205C19.9267 20.8678 19.9072 20.9741 19.8682 21.1395C19.8291 21.3049 19.751 21.5175 19.634 21.7774C19.5169 22.0374 19.3921 22.2343 19.2594 22.3682C19.1578 22.4706 19.033 22.5533 18.8847 22.6163C18.8222 22.632 18.7286 22.6399 18.6036 22.6399C18.3383 22.6399 18.1158 22.5808 17.9363 22.4627C17.7568 22.3446 17.6397 22.2225 17.585 22.0964L17.5148 21.9192C17.507 21.9113 17.4914 21.9153 17.468 21.9311C17.4523 21.9468 17.4367 21.9625 17.4211 21.9783C16.9606 22.4194 16.4923 22.6399 16.0161 22.6399C15.5868 22.6399 15.2083 22.4824 14.8804 22.1674C14.5526 21.8523 14.3887 21.3522 14.3887 20.6669ZM18.1119 18.6466C18.1119 18.5993 18.0924 18.5127 18.0534 18.3867C18.0143 18.2606 17.9246 18.1228 17.7841 17.9732C17.6436 17.8235 17.4641 17.7448 17.2455 17.7369C16.9723 17.7369 16.7108 17.8589 16.461 18.1031C16.2113 18.3473 16.0161 18.6663 15.8756 19.0601C15.6493 19.6823 15.4892 20.3282 15.3956 20.9977C15.3956 21.0213 15.3956 21.0646 15.3956 21.1277C15.3956 21.1907 15.3917 21.2379 15.3839 21.2695C15.3839 21.6239 15.4541 21.868 15.5946 22.0019C15.7351 22.1358 15.9029 22.2067 16.0981 22.2146C16.3947 22.2146 16.6874 22.0846 16.9762 21.8247C17.265 21.5648 17.4367 21.364 17.4914 21.2222C17.507 21.1907 17.6123 20.7693 17.8075 19.958C18.0026 19.1467 18.1041 18.7096 18.1119 18.6466Z" fill="#0B76B7"/>
<path d="M33.2926 14.8785C33.2926 14.7997 33.3082 14.7091 33.3394 14.6068C33.3707 14.5044 33.4175 14.4531 33.48 14.4531C33.4878 14.4531 33.7688 14.4335 34.323 14.3941C34.8772 14.3547 35.1621 14.3311 35.1776 14.3232C35.2713 14.3232 35.3182 14.3586 35.3182 14.4295C35.3182 14.5004 35.1855 15.0636 34.9201 16.119C34.8577 16.3868 34.7913 16.6625 34.721 16.946C34.6508 17.2296 34.5923 17.4422 34.5454 17.584L34.4986 17.8085C34.4986 17.8321 34.522 17.8203 34.5688 17.7731C34.9513 17.458 35.3454 17.3005 35.7513 17.3005C36.2353 17.3005 36.6256 17.4816 36.9222 17.8439C37.2188 18.2062 37.371 18.6631 37.3788 19.2144C37.3788 20.0887 37.0705 20.8802 36.4538 21.5891C35.8372 22.298 35.1737 22.6525 34.4634 22.6525C34.0732 22.6525 33.718 22.5028 33.398 22.2035C33.078 21.9042 32.9141 21.4198 32.9062 20.7503V20.644C32.9062 20.4785 32.9374 20.2501 32.9999 19.9588C33.0624 19.6673 33.2536 18.8915 33.5736 17.6313C33.9639 16.0796 34.159 15.2565 34.159 15.162C34.159 15.0675 34.0107 15.0124 33.7141 14.9967C33.6751 14.9967 33.6438 14.9967 33.6205 14.9967H33.5619C33.4839 14.9967 33.4331 14.9967 33.4097 14.9967C33.3863 14.9967 33.3589 14.9848 33.3278 14.9612C33.2965 14.9375 33.2848 14.91 33.2926 14.8785ZM36.3719 18.6828V18.6119C36.3719 18.029 36.1338 17.7376 35.6577 17.7376C35.525 17.7376 35.3884 17.7691 35.2479 17.8321C35.1074 17.8951 34.9786 17.9778 34.8615 18.0803C34.7445 18.1826 34.643 18.2771 34.5571 18.3638C34.4712 18.4504 34.401 18.5371 34.3464 18.6237L34.2761 18.7182L34.0302 19.7343C33.8585 20.4117 33.7727 20.8921 33.7727 21.1756C33.7727 21.5537 33.8663 21.8373 34.0537 22.0263C34.1785 22.1523 34.3346 22.2153 34.522 22.2153C34.7796 22.2153 35.041 22.0893 35.3064 21.8373C35.5015 21.6561 35.6577 21.4356 35.7748 21.1756C35.8919 20.9157 36.0207 20.5022 36.1612 19.9351C36.3016 19.368 36.3719 18.9506 36.3719 18.6828Z" fill="#0B76B7"/>
<path d="M14.9629 35.9382C14.9629 35.0797 15.2985 34.3079 15.9698 33.6226C16.6411 32.9373 17.367 32.5947 18.1476 32.5947C18.5847 32.5947 18.9281 32.6892 19.1779 32.8783C19.4277 33.0673 19.5564 33.3154 19.5642 33.6226C19.5642 33.851 19.4901 34.044 19.3417 34.2015C19.1935 34.359 19.0062 34.4418 18.7798 34.4496C18.6315 34.4496 18.5144 34.4102 18.4285 34.3314C18.3427 34.2527 18.2998 34.1346 18.2998 33.977C18.2998 33.8195 18.3427 33.6856 18.4285 33.5753C18.5144 33.4651 18.6002 33.3824 18.6861 33.3273C18.7719 33.2721 18.8266 33.2485 18.85 33.2563H18.8617C18.8617 33.2406 18.8383 33.2169 18.7915 33.1854C18.7446 33.154 18.6627 33.1224 18.5456 33.0909C18.4285 33.0595 18.2958 33.0436 18.1476 33.0436C17.9133 33.0436 17.6909 33.0988 17.4802 33.2091C17.3162 33.28 17.1484 33.402 16.9767 33.5753C16.6332 33.9219 16.3834 34.4102 16.2273 35.0403C16.0712 35.6704 15.9893 36.1272 15.9814 36.4108C15.9814 36.7731 16.083 37.0449 16.2859 37.226C16.4576 37.415 16.684 37.5095 16.965 37.5095H17.0118C17.886 37.5095 18.6081 37.1748 19.1779 36.5053C19.2481 36.4266 19.295 36.3872 19.3184 36.3872C19.3496 36.3872 19.4003 36.4226 19.4706 36.4935C19.5408 36.5644 19.5799 36.6195 19.5876 36.6589C19.5954 36.6983 19.5604 36.7574 19.4823 36.8361C19.4042 36.9149 19.291 37.0252 19.1427 37.167C18.9944 37.3087 18.8188 37.4269 18.6158 37.5214C18.4129 37.6159 18.1631 37.7144 17.8665 37.8167C17.5699 37.9191 17.2577 37.9624 16.9299 37.9467C16.3444 37.9467 15.8722 37.7577 15.5132 37.3796C15.1541 37.0015 14.9706 36.5211 14.9629 35.9382Z" fill="#0B76B7"/>
<mask id="mask1_315_6287" style="mask-type:luminance" maskUnits="userSpaceOnUse" x="38" y="12" width="4" height="28">
<path d="M41.5 39.5508H38.2451V12.4399H41.5V39.5508Z" fill="white"/>
</mask>
<g mask="url(#mask1_315_6287)">
<path d="M39.8728 46.3274H39.8494C39.7558 46.3274 39.6855 46.1375 39.6387 45.7576V25.9769L39.6503 6.19611C39.7284 5.84336 39.8025 5.66699 39.8728 5.66699C39.9743 5.66699 40.0523 5.8705 40.107 6.27751V45.7576C40.0445 46.1375 39.9743 46.3274 39.8962 46.3274H39.8728Z" fill="#0B76B7"/>
</g>
</g>
<defs>
<clipPath id="clip0_315_6287">
<rect width="52" height="52" rx="4" fill="white"/>
</clipPath>
</defs>
</svg>
