<svg width="52" height="52" viewBox="0 0 52 52" fill="none" xmlns="http://www.w3.org/2000/svg">
<g clip-path="url(#clip0_285_5912)">
<rect width="52" height="52" rx="4" fill="#D0F0FD"/>
<path d="M34.5921 12.0003V34.7187C34.5921 36.3886 34.631 38.2916 34.7474 39.573H31.6797L31.5244 36.3108H31.4466C30.3983 38.4076 28.1069 40 25.0389 40C20.4953 40 17.0003 36.1551 17.0003 30.4465C16.9614 24.1941 20.8448 20.3496 25.4274 20.3496C28.3011 20.3496 30.2427 21.7088 31.0974 23.2233H31.1749V12H34.5924L34.5921 12.0003ZM31.1745 28.4275C31.1745 28.0001 31.1356 27.4178 31.0192 26.9904C30.5144 24.8157 28.6503 23.0291 26.0872 23.0291C22.5529 23.0291 20.456 26.136 20.456 30.2912C20.456 34.0968 22.3198 37.2426 26.0093 37.2426C28.3008 37.2426 30.3976 35.7281 31.0192 33.165C31.1356 32.699 31.1745 32.2327 31.1745 31.6893V28.4271V28.4275Z" fill="#111928"/>
</g>
<defs>
<clipPath id="clip0_285_5912">
<rect width="52" height="52" rx="4" fill="white"/>
</clipPath>
</defs>
</svg>
