<svg width="52" height="52" viewBox="0 0 52 52" fill="none" xmlns="http://www.w3.org/2000/svg">
<path d="M35.4243 27.8647C34.2544 28.5847 32.9345 29.5749 31.7046 30.6548C31.1988 31.1807 30.6546 31.6683 30.0767 32.1138L29.6343 32.4546C28.8372 33.2322 28.092 34.0236 27.4448 34.7856L27.4448 12.4448L25.4448 12.4448L25.4448 34.6646C24.8288 33.94 24.1198 33.1912 23.3647 32.4546C23.0857 32.1157 22.7702 31.808 22.4243 31.5376L21.2944 30.6548C20.0645 29.5748 18.7447 28.5847 17.5747 27.8647L16.5552 29.6343C20.2151 31.9443 24.2349 35.8749 26.4849 39.4448C28.7649 35.8748 32.7848 31.9443 36.4448 29.6343L35.4243 27.8647Z" fill="#454545"/>
</svg>
