<svg width="52" height="52" viewBox="0 0 52 52" fill="none" xmlns="http://www.w3.org/2000/svg">
<path d="M12.84 41.44L11.04 39.64L14.52 36.16C12.36 33.6 11.08 30.32 11.08 26.72C11.08 18.6 17.64 12.04 25.76 12.04C29.36 12.04 32.64 13.32 35.2 15.48L38.68 12L40.48 13.8L37 17.28C39.16 19.84 40.44 23.12 40.44 26.72C40.44 34.84 33.8 41.4 25.76 41.4C22.16 41.4 18.88 40.12 16.32 37.96L12.84 41.44ZM13.96 26.72C13.96 29.52 14.92 32.08 16.56 34.12L33.16 17.52C31.12 15.88 28.56 14.92 25.76 14.92C19.24 14.92 13.96 20.2 13.96 26.72ZM25.76 38.52C32.28 38.52 37.56 33.24 37.56 26.72C37.56 23.92 36.6 21.36 34.96 19.32L18.36 35.92C20.4 37.56 22.96 38.52 25.76 38.52Z" fill="#454545"/>
</svg>
