<svg width="52" height="52" viewBox="0 0 52 52" fill="none" xmlns="http://www.w3.org/2000/svg">
<path d="M26.92 37.24C23.8267 37.24 21.56 36.6533 20.12 35.48C18.7067 34.28 18 32.7867 18 31C18 29.9333 18.2 29.0667 18.6 28.4C19.0267 27.7067 19.5733 27.16 20.24 26.76C20.9333 26.3333 21.6933 26 22.52 25.76V25.56C21.3733 25.1867 20.4533 24.6133 19.76 23.84C19.0667 23.04 18.72 22 18.72 20.72C18.72 19.4933 19.0267 18.4667 19.64 17.64C20.28 16.7867 21.1867 16.1333 22.36 15.68C23.56 15.2267 24.9867 15 26.64 15C28.1333 15 29.48 15.16 30.68 15.48C31.9067 15.7733 32.9067 16.1333 33.68 16.56L32.56 19.48C31.7067 19 30.7867 18.6267 29.8 18.36C28.84 18.0667 27.7867 17.92 26.64 17.92C25.04 17.92 23.8933 18.2 23.2 18.76C22.5333 19.2933 22.2 20.0267 22.2 20.96C22.2 22.1867 22.68 23.0533 23.64 23.56C24.6267 24.04 25.76 24.28 27.04 24.28H29.8V27H27.04C25.8667 27 24.88 27.1467 24.08 27.44C23.28 27.7333 22.6667 28.16 22.24 28.72C21.84 29.28 21.64 29.9733 21.64 30.8C21.64 31.9467 22.0933 32.8133 23 33.4C23.9333 33.96 25.24 34.24 26.92 34.24C28.3067 34.24 29.5067 34.1333 30.52 33.92C31.56 33.7067 32.4933 33.3867 33.32 32.96V36.08C32.4933 36.5067 31.5333 36.8 30.44 36.96C29.3467 37.1467 28.1733 37.24 26.92 37.24Z" fill="#454545"/>
</svg>
