<svg width="53" height="53" viewBox="0 0 53 53" fill="none" xmlns="http://www.w3.org/2000/svg">
<g filter="url(#filter0_d_531_2712)">
<rect width="52" height="52" fill="none"/>
<path d="M23.3499 24.9178C21.0182 24.0916 19.8522 22.8406 19.8522 21.1646C19.8522 19.8426 20.4678 18.7864 21.6987 17.9956C22.9296 17.2047 24.4684 16.8094 26.3149 16.8094C27.9838 16.8094 29.3095 17.0808 30.2919 17.6238C31.2742 18.1668 31.7655 18.8277 31.7655 19.6066C31.7655 20.008 31.6116 20.3561 31.3039 20.6512C30.9962 20.9463 30.6411 21.0996 30.2386 21.1115C29.5758 21.1115 29.0313 20.6512 28.6052 19.7306C28.0134 18.4559 27.1257 17.8185 25.942 17.8185C25.0069 17.8185 24.2376 18.1253 23.6339 18.7391C23.0303 19.3529 22.7284 20.2086 22.7284 21.3062C22.7284 23.4661 23.847 24.5461 26.0841 24.5461C26.3207 24.5461 26.5931 24.5225 26.9008 24.4752C27.4334 24.4044 27.8476 24.369 28.1436 24.369C28.8657 24.369 29.2266 24.5756 29.2266 24.9887C29.2266 25.449 28.8596 25.6791 28.1258 25.6791C27.8654 25.6791 27.4748 25.6379 26.954 25.5552C26.5634 25.4844 26.2616 25.449 26.0485 25.449C23.6813 25.449 22.4976 26.6528 22.4976 29.0606C22.4976 30.229 22.8114 31.1674 23.4386 31.8755C24.0659 32.5837 24.9419 32.9437 26.0663 32.9555C27.4748 32.9555 28.4099 32.2296 28.8715 30.7779C29.1082 30.0108 29.3686 29.4796 29.6527 29.1845C29.9368 28.8894 30.3274 28.7419 30.8245 28.7419C31.227 28.7419 31.588 28.8835 31.9075 29.1668C32.2271 29.4501 32.3928 29.8219 32.4047 30.2822C32.4047 31.3563 31.801 32.2415 30.5937 32.9378C29.3864 33.6341 27.9247 33.9882 26.2083 34C24.3264 34 22.6574 33.5515 21.2016 32.6545C19.7457 31.7575 19.0119 30.5596 19 29.0606C19 27.184 20.45 25.803 23.3499 24.9178Z" fill="black"/>
</g>
<defs>
<filter id="filter0_d_531_2712" x="0" y="0" width="53" height="53" filterUnits="userSpaceOnUse" color-interpolation-filters="sRGB">
<feFlood flood-opacity="0" result="BackgroundImageFix"/>
<feColorMatrix in="SourceAlpha" type="matrix" values="0 0 0 0 0 0 0 0 0 0 0 0 0 0 0 0 0 0 127 0" result="hardAlpha"/>
<feOffset dx="1" dy="1"/>
<feColorMatrix type="matrix" values="0 0 0 0 0 0 0 0 0 0 0 0 0 0 0 0 0 0 0.25 0"/>
<feBlend mode="normal" in2="BackgroundImageFix" result="effect1_dropShadow_531_2712"/>
<feBlend mode="normal" in="SourceGraphic" in2="effect1_dropShadow_531_2712" result="shape"/>
</filter>
</defs>
</svg>
