<svg width="53" height="53" viewBox="0 0 53 53" fill="none" xmlns="http://www.w3.org/2000/svg">
<g filter="url(#filter0_d_531_2715)">
<rect width="52" height="52" fill="none"/>
<path d="M20.8532 25.1292H32.0386V18.26C32.0386 17.0331 31.9623 16.2241 31.8078 15.8346C31.6888 15.5389 31.4403 15.2858 31.0621 15.0733C30.5531 14.79 30.0146 14.6484 29.4464 14.6484H28.5942V13.9934H38.8918V14.6484H38.0396C37.4715 14.6484 36.9335 14.7847 36.424 15.0556C36.0458 15.245 35.7901 15.5283 35.6605 15.9054C35.5309 16.2825 35.4599 17.0685 35.4475 18.26V33.751C35.4475 34.9668 35.5238 35.7693 35.6783 36.1588C35.7972 36.4539 36.0387 36.7076 36.4062 36.9201C36.9264 37.2033 37.4715 37.345 38.0396 37.345H38.8918V38H28.5942V37.345H29.4464C30.4288 37.345 31.1455 37.0558 31.5947 36.4775C31.8912 36.0998 32.0386 35.1909 32.0386 33.751V26.4393H20.8532V33.751C20.8532 34.9668 20.9301 35.7693 21.0841 36.1588C21.2025 36.4539 21.451 36.7076 21.8297 36.9201C22.3388 37.2033 22.8773 37.345 23.4454 37.345H24.3154V38H14V37.345H14.8522C15.8465 37.345 16.5685 37.0558 17.0183 36.4775C17.3023 36.0998 17.4444 35.1909 17.4444 33.751V18.26C17.4444 17.0331 17.3675 16.2241 17.2136 15.8346C17.0951 15.5389 16.8526 15.2858 16.4856 15.0733C15.9649 14.79 15.4204 14.6484 14.8522 14.6484H14V13.9934H24.3154V14.6484H23.4454C22.8773 14.6484 22.3388 14.7847 21.8297 15.0556C21.4628 15.245 21.2083 15.5283 21.0663 15.9054C20.9243 16.2825 20.8532 17.0685 20.8532 18.26V25.1292Z" fill="black"/>
</g>
<defs>
<filter id="filter0_d_531_2715" x="0" y="0" width="53" height="53" filterUnits="userSpaceOnUse" color-interpolation-filters="sRGB">
<feFlood flood-opacity="0" result="BackgroundImageFix"/>
<feColorMatrix in="SourceAlpha" type="matrix" values="0 0 0 0 0 0 0 0 0 0 0 0 0 0 0 0 0 0 127 0" result="hardAlpha"/>
<feOffset dx="1" dy="1"/>
<feColorMatrix type="matrix" values="0 0 0 0 0 0 0 0 0 0 0 0 0 0 0 0 0 0 0.25 0"/>
<feBlend mode="normal" in2="BackgroundImageFix" result="effect1_dropShadow_531_2715"/>
<feBlend mode="normal" in="SourceGraphic" in2="effect1_dropShadow_531_2715" result="shape"/>
</filter>
</defs>
</svg>
