<svg width="53" height="53" viewBox="0 0 53 53" fill="none" xmlns="http://www.w3.org/2000/svg">
<g filter="url(#filter0_d_531_2716)">
<rect width="52" height="52" fill="white"/>
<path d="M24.5514 17.0385C26.4098 14.7134 28.2324 13.5508 30.0198 13.5508C32.8131 13.5508 34.2099 15.5986 34.2099 19.6941V32.8304C34.2099 35.073 34.4348 36.7961 34.8845 38H31.884C31.4815 36.8905 31.2804 34.8605 31.2804 31.9098V19.3046C31.2804 18.0888 31.0909 17.1919 30.7122 16.6136C30.3335 16.0352 29.6706 15.7402 28.7237 15.7284C27.3034 15.7284 25.9126 16.5132 24.5514 18.083V30.2456H21.6219V18.083C21.6219 16.9853 21.5154 16.2299 21.3023 15.8169C21.0893 15.4038 20.7164 15.1972 20.1838 15.1972C19.3434 15.1972 18.8285 16.0235 18.6392 17.6758H18C18.2249 14.9258 19.3612 13.5508 21.4089 13.5508C22.3202 13.5508 23.0659 13.8636 23.6459 14.4891C24.226 15.1146 24.5278 15.9643 24.5514 17.0385Z" fill="black"/>
</g>
<defs>
<filter id="filter0_d_531_2716" x="0" y="0" width="53" height="53" filterUnits="userSpaceOnUse" color-interpolation-filters="sRGB">
<feFlood flood-opacity="0" result="BackgroundImageFix"/>
<feColorMatrix in="SourceAlpha" type="matrix" values="0 0 0 0 0 0 0 0 0 0 0 0 0 0 0 0 0 0 127 0" result="hardAlpha"/>
<feOffset dx="1" dy="1"/>
<feColorMatrix type="matrix" values="0 0 0 0 0 0 0 0 0 0 0 0 0 0 0 0 0 0 0.25 0"/>
<feBlend mode="normal" in2="BackgroundImageFix" result="effect1_dropShadow_531_2716"/>
<feBlend mode="normal" in="SourceGraphic" in2="effect1_dropShadow_531_2716" result="shape"/>
</filter>
</defs>
</svg>
