<svg width="52" height="52" viewBox="0 0 52 52" fill="none" xmlns="http://www.w3.org/2000/svg">
<path d="M12 37H22V39H10V13H12V37Z" fill="#454545"/>
<path d="M40 37H30V39H42V13H40V37Z" fill="#454545"/>
<path d="M33.1574 29.6098C33.4061 29.7561 33.797 30.0854 33.9746 30.378C32.3756 32.5366 30.6345 34 28.7868 34C26.4416 34 25.802 32.6098 24.5228 27.5244C21.7513 31.8415 20.1168 34 17.8071 34C15.9949 34 15 32.6829 15 31.5488C15 30.5244 15.7817 29.6829 16.9188 29.6829C17.7716 29.6829 18.6954 30.1951 19.3706 31.5488C20.7563 30.6341 22.7462 27.7805 24.0254 25.5488C22.4975 19.2561 22.2843 18.4146 21.0051 18.4146C20.0812 18.4146 18.9797 19.4756 18.3756 20.0976C18.1269 19.9146 17.7716 19.622 17.5584 19.3293C18.9442 17.6463 20.7919 16.1098 22.7817 16.1098C25.0203 16.1098 25.6244 17.3537 26.7614 22C29.2487 18.122 31.0964 16 33.335 16C34.8985 16 36 17.0244 36 18.2683C36 19.4024 35.1827 20.2073 34.0812 20.2073C33.335 20.2073 32.269 19.8049 31.8071 18.3415C30.599 19.1098 29.0711 20.9756 27.2234 23.9024C27.2589 24.0122 27.2944 24.1585 27.3299 24.3049C28.8934 30.8537 29.1777 31.6951 30.4213 31.6951C31.3807 31.6951 32.3401 30.5976 33.1574 29.6098Z" fill="#454545"/>
</svg>
