<svg width="52" height="52" viewBox="0 0 52 52" fill="none" xmlns="http://www.w3.org/2000/svg">
<path d="M22.72 40.84V32.72L15 11H18.64L22.52 22.56C22.7333 23.2 23 23.96 23.32 24.84C23.64 25.72 23.9333 26.5867 24.2 27.44C24.4933 28.2667 24.7067 28.9467 24.84 29.48H25C26.52 27.8 27.7067 26.04 28.56 24.2C29.44 22.3333 30.0533 20.32 30.4 18.16C30.7733 15.9733 30.96 13.5867 30.96 11H34.44C34.44 13.7467 34.2 16.3333 33.72 18.76C33.24 21.16 32.4 23.4933 31.2 25.76C30.0267 28 28.3733 30.28 26.24 32.6V40.84H22.72Z" fill="#454545"/>
</svg>
