<svg width="53" height="53" viewBox="0 0 53 53" fill="none" xmlns="http://www.w3.org/2000/svg">
<g filter="url(#filter0_d_530_2705)">
<rect width="52" height="52" fill="white"/>
<path d="M35.3169 13.9934L35.4057 19.6055H34.7133C34.6653 18.4725 34.4239 17.5643 33.9853 16.8791C33.5468 16.194 33.0147 15.7638 32.3874 15.5867C31.7602 15.4097 30.8428 15.3158 29.6355 15.3035H22.8888V33.6271C22.8888 35.2086 23.0899 36.2119 23.4924 36.6368C23.8949 37.0617 24.8417 37.2977 26.3331 37.345V38H16V37.345C17.4914 37.2977 18.4443 37.0617 18.8585 36.6368C19.2727 36.2119 19.4799 35.2086 19.4799 33.6271V18.3662C19.4799 16.7853 19.2727 15.7815 18.8585 15.3566C18.4443 14.9317 17.4914 14.6962 16 14.6484V13.9934H35.3169Z" fill="black"/>
</g>
<defs>
<filter id="filter0_d_530_2705" x="0" y="0" width="53" height="53" filterUnits="userSpaceOnUse" color-interpolation-filters="sRGB">
<feFlood flood-opacity="0" result="BackgroundImageFix"/>
<feColorMatrix in="SourceAlpha" type="matrix" values="0 0 0 0 0 0 0 0 0 0 0 0 0 0 0 0 0 0 127 0" result="hardAlpha"/>
<feOffset dx="1" dy="1"/>
<feColorMatrix type="matrix" values="0 0 0 0 0 0 0 0 0 0 0 0 0 0 0 0 0 0 0.25 0"/>
<feBlend mode="normal" in2="BackgroundImageFix" result="effect1_dropShadow_530_2705"/>
<feBlend mode="normal" in="SourceGraphic" in2="effect1_dropShadow_530_2705" result="shape"/>
</filter>
</defs>
</svg>
