<svg width="52" height="52" viewBox="0 0 52 52" fill="none" xmlns="http://www.w3.org/2000/svg">
<rect width="52" height="52" rx="4" fill="#D0F0FD"/>
<path d="M35 26.5197H20.3336C20.0684 26.5197 19.814 26.4119 19.6265 26.22C19.4389 26.0282 19.3336 25.7679 19.3336 25.4965C19.3336 25.2252 19.4389 24.9649 19.6265 24.773C19.814 24.5812 20.0684 24.4734 20.3336 24.4734H35C35.2652 24.4734 35.5196 24.5812 35.7071 24.773C35.8946 24.9649 36 25.2252 36 25.4965C36 25.7679 35.8946 26.0282 35.7071 26.22C35.5196 26.4119 35.2652 26.5197 35 26.5197ZM35 20.3806H20.3336C20.0684 20.3806 19.814 20.2728 19.6265 20.0809C19.4389 19.8891 19.3336 19.6288 19.3336 19.3574C19.3336 19.0861 19.4389 18.8258 19.6265 18.6339C19.814 18.4421 20.0684 18.3343 20.3336 18.3343H35C35.2652 18.3343 35.5196 18.4421 35.7071 18.6339C35.8946 18.8258 36 19.0861 36 19.3574C36 19.6288 35.8946 19.8891 35.7071 20.0809C35.5196 20.2728 35.2652 20.3806 35 20.3806ZM35 32.6588H20.3336C20.0684 32.6588 19.814 32.551 19.6265 32.3592C19.4389 32.1673 19.3336 31.907 19.3336 31.6357C19.3336 31.3643 19.4389 31.104 19.6265 30.9122C19.814 30.7203 20.0684 30.6125 20.3336 30.6125H35C35.2652 30.6125 35.5196 30.7203 35.7071 30.9122C35.8946 31.104 36 31.3643 36 31.6357C36 31.907 35.8946 32.1673 35.7071 32.3592C35.5196 32.551 35.2652 32.6588 35 32.6588ZM16.3336 20.7217C16.1603 20.7239 15.9882 20.6914 15.827 20.6262C15.668 20.5465 15.52 20.4456 15.387 20.3261C15.2634 20.1986 15.1656 20.0474 15.0993 19.8812C15.0329 19.715 14.9993 19.537 15.0003 19.3574C15.0052 18.9962 15.1433 18.6503 15.387 18.3888C15.5113 18.2615 15.6615 18.1637 15.827 18.1023C16.1516 17.9659 16.5157 17.9659 16.8403 18.1023C17.0039 18.1673 17.1535 18.2646 17.2803 18.3888C17.5239 18.6503 17.662 18.9962 17.6669 19.3574C17.668 19.537 17.6343 19.715 17.568 19.8812C17.5016 20.0474 17.4038 20.1986 17.2803 20.3261C17.1472 20.4456 16.9993 20.5465 16.8403 20.6262C16.6791 20.6914 16.507 20.7239 16.3336 20.7217ZM16.3336 26.8608C16.1594 26.8586 15.9873 26.8216 15.827 26.7517C15.666 26.6814 15.5173 26.5846 15.387 26.4652C15.2634 26.3377 15.1656 26.1865 15.0993 26.0203C15.0329 25.8541 14.9993 25.6761 15.0003 25.4965C15.0052 25.1353 15.1433 24.7894 15.387 24.5279C15.5173 24.4085 15.666 24.3117 15.827 24.2414C16.0683 24.1269 16.3376 24.0889 16.6003 24.1323L16.8403 24.2142L17.0803 24.3369C17.1495 24.3882 17.2162 24.4428 17.2803 24.5006C17.5302 24.7689 17.6688 25.1259 17.6669 25.4965C17.6669 25.8584 17.5265 26.2054 17.2764 26.4612C17.0264 26.7171 16.6872 26.8608 16.3336 26.8608ZM16.3336 32.9999C16.1603 33.0021 15.9882 32.9696 15.827 32.9044C15.668 32.8247 15.52 32.7238 15.387 32.6043C15.2702 32.4709 15.1756 32.3188 15.107 32.1541C15.0364 31.9908 15 31.8142 15 31.6357C15 31.4571 15.0364 31.2805 15.107 31.1172C15.1756 30.9525 15.2702 30.8004 15.387 30.667C15.5745 30.4777 15.8126 30.3495 16.0712 30.2985C16.3299 30.2475 16.5975 30.2761 16.8403 30.3805C17.0039 30.4455 17.1535 30.5428 17.2803 30.667C17.397 30.8004 17.4916 30.9525 17.5603 31.1172C17.6308 31.2805 17.6672 31.4571 17.6672 31.6357C17.6672 31.8142 17.6308 31.9908 17.5603 32.1541C17.4916 32.3188 17.397 32.4709 17.2803 32.6043C17.1557 32.7307 17.0079 32.8307 16.8455 32.8986C16.683 32.9665 16.5091 33.0009 16.3336 32.9999Z" fill="black"/>
</svg>
