<svg width="52" height="52" viewBox="0 0 52 52" fill="none" xmlns="http://www.w3.org/2000/svg">
<rect width="52" height="52" rx="4" fill="#D0F0FD"/>
<path fill-rule="evenodd" clip-rule="evenodd" d="M27.3626 36H30V16H27.3626V24.4594H16.6374V16H14V36H16.6374V26.6723H27.3626V36ZM34 36H38V35.2165H34.9781V35.1787L36.2105 33.7674C36.4298 33.5125 36.633 33.267 36.8202 33.031C37.0102 32.795 37.1725 32.5606 37.307 32.3277C37.4444 32.0917 37.5512 31.8526 37.6272 31.6102C37.7061 31.3679 37.7456 31.1131 37.7456 30.8456C37.7456 30.5592 37.7018 30.3028 37.614 30.0762C37.5292 29.8465 37.4079 29.653 37.25 29.4956C37.0921 29.3351 36.8991 29.2124 36.6711 29.1274C36.4459 29.0425 36.193 29 35.9123 29C35.7222 29 35.5409 29.022 35.3684 29.0661C35.1959 29.107 35.0322 29.1636 34.8772 29.236C34.7222 29.3084 34.5775 29.3949 34.443 29.4956C34.3085 29.5932 34.1827 29.6986 34.0658 29.8119L34.5132 30.3736C34.7149 30.1848 34.9269 30.0306 35.1491 29.911C35.3743 29.7883 35.6257 29.7269 35.9035 29.7269C36.0585 29.7269 36.1988 29.7521 36.3246 29.8024C36.4503 29.8528 36.5585 29.9283 36.6491 30.029C36.7427 30.1265 36.8143 30.2461 36.864 30.3877C36.9137 30.5293 36.9386 30.693 36.9386 30.8786C36.9386 31.1178 36.9064 31.3396 36.8421 31.5442C36.7778 31.7456 36.6842 31.947 36.5614 32.1483C36.4415 32.3497 36.2953 32.5559 36.1228 32.7667C35.9503 32.9775 35.7544 33.2104 35.5351 33.4653L34 35.2637V36Z" fill="black"/>
</svg>
