<svg width="52" height="52" viewBox="0 0 52 52" fill="none" xmlns="http://www.w3.org/2000/svg">
<path d="M13 34V17H15.5448V23.943H22.4552V17H25V34H22.4552V26.2727H15.5448V34H13Z" fill="#454545"/>
<path d="M33.9383 34C33.1427 34 32.4362 33.8962 31.8189 33.6885C31.2154 33.4808 30.6804 33.2064 30.214 32.8652C29.7476 32.5092 29.3429 32.1309 29 31.7304L30.1523 30.0838C30.6049 30.5585 31.1193 30.9738 31.6955 31.3298C32.2716 31.6859 32.9506 31.8639 33.7325 31.8639C34.3086 31.8639 34.8093 31.76 35.2346 31.5524C35.6598 31.3298 35.989 31.0183 36.2222 30.6178C36.4691 30.2173 36.5926 29.7277 36.5926 29.1492C36.5926 28.5558 36.4554 28.0366 36.1811 27.5916C35.9204 27.1318 35.4609 26.7832 34.8025 26.5458C34.1578 26.2936 33.2661 26.1675 32.1276 26.1675V24.2539C33.1289 24.2539 33.9108 24.1353 34.4733 23.8979C35.0494 23.6457 35.4609 23.3045 35.7078 22.8743C35.9685 22.4442 36.0988 21.9546 36.0988 21.4058C36.0988 20.6937 35.893 20.13 35.4815 19.7147C35.07 19.2845 34.5007 19.0694 33.7737 19.0694C33.1975 19.0694 32.6557 19.2103 32.1481 19.4921C31.6543 19.7592 31.1879 20.1226 30.749 20.5825L29.5144 18.9804C30.118 18.387 30.7764 17.9123 31.4897 17.5563C32.203 17.1854 32.9918 17 33.856 17C34.7613 17 35.5638 17.1706 36.2634 17.5118C36.963 17.8381 37.5117 18.3128 37.9095 18.9359C38.3073 19.5589 38.5062 20.3229 38.5062 21.2277C38.5062 22.1623 38.2661 22.9559 37.786 23.6086C37.3196 24.2613 36.6886 24.7509 35.893 25.0772V25.1662C36.4691 25.3294 36.9904 25.5964 37.4568 25.9673C37.9369 26.3233 38.3141 26.7832 38.5885 27.3469C38.8628 27.9106 39 28.5558 39 29.2827C39 30.2618 38.7668 31.1073 38.3004 31.8194C37.8477 32.5166 37.2373 33.058 36.4691 33.4437C35.701 33.8146 34.8573 34 33.9383 34Z" fill="#454545"/>
</svg>
