<svg width="52" height="52" viewBox="0 0 52 52" fill="none" xmlns="http://www.w3.org/2000/svg">
<path d="M13 34V17H15.5448V23.943H22.4552V17H25V34H22.4552V26.2727H15.5448V34H13Z" fill="#454545"/>
<path d="M29.1245 34V32.4813C30.6321 31.0156 31.8907 29.6782 32.9004 28.4693C33.9101 27.2453 34.6639 26.112 35.1618 25.0693C35.6736 24.0267 35.9295 23.052 35.9295 22.1453C35.9295 21.5409 35.8326 21.012 35.639 20.5587C35.4592 20.0902 35.1757 19.7351 34.7884 19.4933C34.4149 19.2364 33.9378 19.108 33.3568 19.108C32.7621 19.108 32.2158 19.2893 31.7178 19.652C31.2199 19.9996 30.7635 20.4302 30.3485 20.944L29 19.4933C29.6501 18.7076 30.3347 18.0956 31.0539 17.6573C31.787 17.2191 32.6584 17 33.668 17C34.5947 17 35.4039 17.2116 36.0954 17.6347C36.787 18.0427 37.3195 18.6244 37.6929 19.38C38.0802 20.1204 38.2739 20.9969 38.2739 22.0093C38.2739 23.0822 38.0318 24.1702 37.5477 25.2733C37.0636 26.3613 36.3997 27.4644 35.556 28.5827C34.7123 29.6858 33.751 30.804 32.6722 31.9373C33.0733 31.892 33.4952 31.8542 33.9378 31.824C34.3942 31.7787 34.8022 31.756 35.1618 31.756H39V34H29.1245Z" fill="#454545"/>
</svg>
