<svg width="52" height="52" viewBox="0 0 52 52" fill="none" xmlns="http://www.w3.org/2000/svg">
<path d="M13 34V17H15.5448V23.943H22.4552V17H25V34H22.4552V26.2727H15.5448V34H13Z" fill="#454545"/>
<path d="M33.9284 34C33.1513 34 32.456 33.8944 31.8425 33.6831C31.229 33.4718 30.6905 33.1926 30.227 32.8455C29.7635 32.4984 29.3545 32.1363 29 31.759L30.1247 30.0613C30.411 30.3782 30.7246 30.6724 31.0654 30.9441C31.4063 31.2006 31.788 31.4119 32.2106 31.5779C32.6469 31.7439 33.1309 31.8269 33.6626 31.8269C34.2215 31.8269 34.726 31.6911 35.1759 31.4194C35.6258 31.1327 35.9802 30.7253 36.2393 30.1971C36.4983 29.6538 36.6278 29.0124 36.6278 28.273C36.6278 27.1864 36.362 26.3413 35.8303 25.7377C35.3122 25.134 34.6237 24.8322 33.7648 24.8322C33.2877 24.8322 32.8787 24.9077 32.5378 25.0586C32.197 25.2095 31.8085 25.4434 31.3722 25.7603L30.2065 24.9228L30.6564 17H38.2843V19.2184H32.7014L32.3538 23.474C32.681 23.2929 33.0082 23.1571 33.3354 23.0666C33.6626 22.9609 34.0239 22.9081 34.4192 22.9081C35.2645 22.9081 36.0348 23.0968 36.7301 23.474C37.4254 23.8513 37.9775 24.4323 38.3865 25.217C38.7955 25.9867 39 26.9827 39 28.2051C39 29.4274 38.7614 30.4763 38.2843 31.3515C37.8071 32.2117 37.18 32.8682 36.4029 33.3209C35.6394 33.7736 34.8146 34 33.9284 34Z" fill="#454545"/>
</svg>
