<svg width="53" height="53" viewBox="0 0 53 53" fill="none" xmlns="http://www.w3.org/2000/svg">
<g filter="url(#filter0_d_531_4406)">
<rect width="52" height="52" fill="white"/>
<path fill-rule="evenodd" clip-rule="evenodd" d="M17 17H20.5V24.25L29 24.25V17H32.5V35H29V27.75L20.5 27.75V35H17V27.75V24.25V17Z" fill="black"/>
<path d="M40.4878 28.5137L38.894 28.6895C38.855 28.3613 38.7534 28.1191 38.5894 27.9629C38.4253 27.8066 38.2124 27.7285 37.9507 27.7285C37.603 27.7285 37.3081 27.8848 37.0659 28.1973C36.8276 28.5098 36.6772 29.1602 36.6147 30.1484C37.0249 29.6641 37.5347 29.4219 38.144 29.4219C38.8315 29.4219 39.4194 29.6836 39.9077 30.207C40.3999 30.7305 40.646 31.4062 40.646 32.2344C40.646 33.1133 40.3882 33.8184 39.8726 34.3496C39.3569 34.8809 38.6948 35.1465 37.8862 35.1465C37.019 35.1465 36.3062 34.8105 35.7476 34.1387C35.189 33.4629 34.9097 32.3574 34.9097 30.8223C34.9097 29.248 35.2007 28.1133 35.7827 27.418C36.3647 26.7227 37.1206 26.375 38.0503 26.375C38.7026 26.375 39.2417 26.5586 39.6675 26.9258C40.0972 27.2891 40.3706 27.8184 40.4878 28.5137ZM36.7554 32.1055C36.7554 32.6406 36.8784 33.0547 37.1245 33.3477C37.3706 33.6367 37.6519 33.7812 37.9683 33.7812C38.2729 33.7812 38.5269 33.6621 38.73 33.4238C38.9331 33.1855 39.0347 32.7949 39.0347 32.252C39.0347 31.6934 38.9253 31.2852 38.7065 31.0273C38.4878 30.7656 38.2144 30.6348 37.8862 30.6348C37.5698 30.6348 37.3022 30.7598 37.0835 31.0098C36.8647 31.2559 36.7554 31.6211 36.7554 32.1055Z" fill="black"/>
</g>
<defs>
<filter id="filter0_d_531_4406" x="0" y="0" width="53" height="53" filterUnits="userSpaceOnUse" color-interpolation-filters="sRGB">
<feFlood flood-opacity="0" result="BackgroundImageFix"/>
<feColorMatrix in="SourceAlpha" type="matrix" values="0 0 0 0 0 0 0 0 0 0 0 0 0 0 0 0 0 0 127 0" result="hardAlpha"/>
<feOffset dx="1" dy="1"/>
<feColorMatrix type="matrix" values="0 0 0 0 0 0 0 0 0 0 0 0 0 0 0 0 0 0 0.25 0"/>
<feBlend mode="normal" in2="BackgroundImageFix" result="effect1_dropShadow_531_4406"/>
<feBlend mode="normal" in="SourceGraphic" in2="effect1_dropShadow_531_4406" result="shape"/>
</filter>
</defs>
</svg>
