<svg width="52" height="52" viewBox="0 0 52 52" fill="none" xmlns="http://www.w3.org/2000/svg">
<path d="M37.8284 29.84L37.1684 33.04H35.2084L37.7284 20.7C37.7684 20.5133 37.8017 20.34 37.8284 20.18C37.855 20.02 37.8684 19.8933 37.8684 19.8C37.8684 19.5467 37.7484 19.3933 37.5084 19.34C37.2817 19.2733 36.8484 19.2333 36.2084 19.22C36.195 19.1267 36.1817 19.04 36.1684 18.96C36.1684 18.8667 36.175 18.7733 36.1884 18.68C36.9084 18.6267 37.6084 18.5533 38.2884 18.46C38.9817 18.3533 39.575 18.2 40.0684 18L40.3284 18.14C40.1684 18.7133 40.0217 19.3 39.8884 19.9C39.755 20.4867 39.6217 21.1 39.4884 21.74L38.8484 24.78L38.5284 26.14H38.6284C39.175 25.26 39.795 24.5933 40.4884 24.14C41.1817 23.6733 41.875 23.44 42.5684 23.44C43.195 23.44 43.675 23.6133 44.0084 23.96C44.355 24.3067 44.5284 24.7333 44.5284 25.24C44.5284 25.52 44.475 25.8933 44.3684 26.36C44.275 26.8267 44.155 27.3333 44.0084 27.88C43.8617 28.4133 43.715 28.94 43.5684 29.46C43.4217 29.9667 43.295 30.42 43.1884 30.82C43.095 31.2067 43.0484 31.48 43.0484 31.64C43.0484 31.7333 43.075 31.82 43.1284 31.9C43.1817 31.98 43.275 32.02 43.4084 32.02C43.635 32.02 43.9217 31.9 44.2684 31.66C44.615 31.42 44.9284 31.1267 45.2084 30.78C45.3817 30.9 45.535 31.0333 45.6684 31.18C45.215 31.78 44.7217 32.28 44.1884 32.68C43.6684 33.08 43.095 33.28 42.4684 33.28C41.975 33.28 41.6084 33.16 41.3684 32.92C41.1417 32.6667 41.0284 32.3533 41.0284 31.98C41.0284 31.7133 41.075 31.36 41.1684 30.92C41.275 30.48 41.4017 30 41.5484 29.48C41.695 28.96 41.835 28.44 41.9684 27.92C42.115 27.4 42.235 26.9267 42.3284 26.5C42.435 26.0733 42.4884 25.74 42.4884 25.5C42.4884 25.2333 42.4217 25.02 42.2884 24.86C42.1684 24.6867 41.975 24.6 41.7084 24.6C41.3484 24.6 40.915 24.78 40.4084 25.14C39.9017 25.4867 39.4084 26.0467 38.9284 26.82C38.4617 27.58 38.095 28.5867 37.8284 29.84Z" fill="#454545"/>
<path d="M26.4138 29.3999L25.5738 33.0399H23.5738L25.2138 25.9399C25.3072 25.5533 25.3538 25.2999 25.3538 25.1799C25.3538 24.8599 25.2338 24.6999 24.9938 24.6999C24.8072 24.6999 24.5605 24.8066 24.2538 25.0199C23.9605 25.2199 23.6672 25.4733 23.3738 25.7799C23.2805 25.7133 23.1938 25.6466 23.1138 25.5799C23.0472 25.5133 22.9805 25.4399 22.9138 25.3599C23.4472 24.7333 23.9938 24.2666 24.5538 23.9599C25.1272 23.6399 25.6605 23.4799 26.1538 23.4799C26.6072 23.4799 26.9272 23.5933 27.1138 23.8199C27.3005 24.0466 27.3938 24.3133 27.3938 24.6199C27.3938 24.7799 27.3672 24.9733 27.3138 25.1999C27.2738 25.4133 27.2338 25.6399 27.1938 25.8799H27.2538C27.7605 25.0666 28.3538 24.4599 29.0338 24.0599C29.7272 23.6466 30.3938 23.4399 31.0338 23.4399C31.6738 23.4399 32.1605 23.6199 32.4938 23.9799C32.8405 24.3266 33.0138 24.7533 33.0138 25.2599C33.0138 25.5399 32.9605 25.9133 32.8538 26.3799C32.7605 26.8466 32.6405 27.3466 32.4938 27.8799C32.3472 28.4133 32.2005 28.9399 32.0538 29.4599C31.9072 29.9666 31.7805 30.4199 31.6738 30.8199C31.5805 31.2066 31.5338 31.4799 31.5338 31.6399C31.5338 31.7333 31.5605 31.8199 31.6138 31.8999C31.6672 31.9799 31.7605 32.0199 31.8938 32.0199C32.1205 32.0199 32.4072 31.8999 32.7538 31.6599C33.1005 31.4199 33.4138 31.1266 33.6938 30.7799C33.8672 30.8999 34.0205 31.0333 34.1538 31.1799C33.7005 31.7799 33.2072 32.2799 32.6738 32.6799C32.1538 33.0799 31.5738 33.2799 30.9338 33.2799C30.4405 33.2799 30.0805 33.1599 29.8538 32.9199C29.6272 32.6666 29.5138 32.3533 29.5138 31.9799C29.5138 31.7133 29.5605 31.3599 29.6538 30.9199C29.7605 30.4799 29.8872 29.9999 30.0338 29.4799C30.1805 28.9599 30.3205 28.4466 30.4538 27.9399C30.6005 27.4199 30.7205 26.9466 30.8138 26.5199C30.9205 26.0933 30.9738 25.7599 30.9738 25.5199C30.9738 25.2533 30.9138 25.0333 30.7938 24.8599C30.6738 24.6866 30.4605 24.5999 30.1538 24.5999C29.7672 24.5999 29.3338 24.7666 28.8538 25.0999C28.3738 25.4333 27.9138 25.9399 27.4738 26.6199C27.0472 27.2999 26.7072 28.1733 26.4538 29.2399L26.4138 29.3999Z" fill="#454545"/>
<path d="M14.4982 33.2599C14.0849 33.2599 13.6916 33.1533 13.3182 32.9399C12.9449 32.7133 12.6449 32.3666 12.4182 31.8999C12.1916 31.4333 12.0782 30.8333 12.0782 30.0999C12.0782 29.1933 12.2516 28.3399 12.5982 27.5399C12.9449 26.7399 13.3982 26.0333 13.9582 25.4199C14.5182 24.8066 15.1316 24.3266 15.7982 23.9799C16.4782 23.6199 17.1449 23.4399 17.7982 23.4399C18.0516 23.4399 18.3382 23.4799 18.6582 23.5599C18.9782 23.6266 19.3116 23.7466 19.6582 23.9199C19.9382 23.8799 20.2249 23.8399 20.5182 23.7999C20.8249 23.7599 21.1382 23.7133 21.4582 23.6599L21.5182 23.7399C21.3582 24.2999 21.2182 24.8333 21.0982 25.3399C20.9782 25.8333 20.8582 26.3399 20.7382 26.8599L19.8182 30.8199C19.8049 30.9133 19.7782 31.0333 19.7382 31.1799C19.6982 31.3266 19.6782 31.4666 19.6782 31.5999C19.6782 31.7199 19.7049 31.8199 19.7582 31.8999C19.8116 31.9799 19.9049 32.0199 20.0382 32.0199C20.2649 32.0199 20.5516 31.8999 20.8982 31.6599C21.2449 31.4199 21.5582 31.1266 21.8382 30.7799C22.0116 30.8999 22.1649 31.0333 22.2982 31.1799C21.8449 31.7799 21.3582 32.2799 20.8382 32.6799C20.3182 33.0799 19.7316 33.2799 19.0782 33.2799C18.5849 33.2799 18.2316 33.1599 18.0182 32.9199C17.8049 32.6666 17.6982 32.3533 17.6982 31.9799C17.6982 31.6199 17.7716 31.2066 17.9182 30.7399H17.8182C17.3249 31.5933 16.7916 32.2266 16.2182 32.6399C15.6582 33.0533 15.0849 33.2599 14.4982 33.2599ZM19.1382 25.1799C18.8582 24.9266 18.5649 24.7266 18.2582 24.5799C17.9516 24.4199 17.6382 24.3399 17.3182 24.3399C16.8249 24.3399 16.3849 24.5199 15.9982 24.8799C15.6116 25.2399 15.2849 25.7066 15.0182 26.2799C14.7516 26.8399 14.5516 27.4466 14.4182 28.0999C14.2849 28.7399 14.2182 29.3533 14.2182 29.9399C14.2182 30.7399 14.3249 31.2866 14.5382 31.5799C14.7516 31.8599 15.0049 31.9999 15.2982 31.9999C15.6449 31.9999 16.0249 31.8333 16.4382 31.4999C16.8649 31.1533 17.2782 30.6066 17.6782 29.8599C18.0916 29.0999 18.4449 28.0999 18.7382 26.8599L19.1382 25.1799Z" fill="#454545"/>
<path d="M11.8 24.78H9.5L8.24 30.26C8.12 30.78 8.06 31.1534 8.06 31.38C8.06 31.5934 8.10667 31.7667 8.2 31.9C8.29333 32.02 8.46 32.08 8.7 32.08C8.98 32.08 9.31333 31.9667 9.7 31.74C10.0867 31.5 10.4333 31.1867 10.74 30.8C10.9133 30.92 11.0667 31.0534 11.2 31.2C10.7333 31.8534 10.2 32.3667 9.6 32.74C9 33.1134 8.38 33.3 7.74 33.3C7.31333 33.3 6.97333 33.2134 6.72 33.04C6.48 32.8667 6.31333 32.66 6.22 32.42C6.12667 32.1667 6.08 31.9334 6.08 31.72C6.08 31.5734 6.09333 31.3934 6.12 31.18C6.14667 30.9667 6.19333 30.7067 6.26 30.4L7.5 24.78H6C6 24.6734 6.00667 24.5734 6.02 24.48C6.03333 24.3867 6.06 24.2934 6.1 24.2L7.68 23.96C7.77333 23.5734 7.87333 23.14 7.98 22.66C8.1 22.1667 8.20667 21.7 8.3 21.26C8.62 21.2334 8.94667 21.2067 9.28 21.18C9.62667 21.14 9.96 21.0934 10.28 21.04L10.34 21.12C10.2467 21.52 10.1533 21.9267 10.06 22.34C9.96667 22.74 9.84667 23.26 9.7 23.9H11.96C11.96 24.06 11.9467 24.2134 11.92 24.36C11.8933 24.4934 11.8533 24.6334 11.8 24.78Z" fill="#454545"/>
</svg>
