<svg width="52" height="52" viewBox="0 0 52 52" fill="none" xmlns="http://www.w3.org/2000/svg">
<rect width="52" height="52" rx="4" fill="#D0F0FD"/>
<path d="M15.6382 26.7259C15.6382 26.7259 15.5103 26.7259 15.2546 26.7259C14.9988 26.7259 14.7796 26.6346 14.5969 26.4519C14.4142 26.2692 14.3168 26.0378 14.3046 25.7577C14.3046 25.4776 14.396 25.2462 14.5786 25.0635C14.6395 25.0026 14.67 24.9661 14.67 24.9539C14.67 24.9417 14.6091 24.9295 14.4873 24.9174C14.1706 24.8686 13.8723 24.8443 13.5921 24.8443C12.9954 24.8443 12.5082 25.0391 12.1307 25.4289C11.5583 26.0013 11.272 26.9573 11.272 28.297C11.272 29.2957 11.4608 30.0813 11.8384 30.6537C12.3377 31.3966 13.0076 31.768 13.8479 31.768C14.3472 31.768 14.7491 31.6097 15.0536 31.2931C15.3581 30.9764 15.5773 30.5989 15.7113 30.1604C15.7356 30.063 15.7661 30.0021 15.8026 29.9777C15.8392 29.9534 15.9366 29.9412 16.0949 29.9412H16.3507C16.4238 30.0143 16.4603 30.0691 16.4603 30.1056C16.4603 30.1543 16.4359 30.2518 16.3872 30.3979C16.3385 30.5441 16.2411 30.745 16.0949 31.0008C15.9488 31.2565 15.7722 31.4879 15.5651 31.695C15.3581 31.902 15.0658 32.0908 14.6883 32.2613C14.3107 32.4318 13.8905 32.511 13.4277 32.4988C12.3803 32.4988 11.4669 32.1091 10.6875 31.3296C9.908 30.5501 9.51218 29.5697 9.5 28.3884C9.5 27.1218 9.89582 26.0926 10.6875 25.301C11.4791 24.5094 12.3986 24.1135 13.446 24.1135C14.4934 24.1135 15.2241 24.278 15.6382 24.6068C16.0523 24.9356 16.2593 25.3254 16.2593 25.776C16.2593 26.0561 16.1558 26.2814 15.9488 26.4519L15.6382 26.7259Z" fill="#111928"/>
<path d="M17.501 28.3883C17.501 27.2313 17.8968 26.2326 18.6884 25.3923C19.4801 24.5519 20.4361 24.1257 21.5566 24.1135C22.6527 24.1135 23.5966 24.5276 24.3882 25.3558C25.1798 26.1839 25.5817 27.1887 25.5939 28.3701C25.5939 29.5271 25.2042 30.5014 24.4247 31.293C23.6453 32.0847 22.6892 32.4805 21.5566 32.4805C20.3752 32.4805 19.407 32.0725 18.6519 31.2565C17.8968 30.4405 17.5132 29.4844 17.501 28.3883ZM21.5566 31.7497C23.0424 31.7497 23.7853 30.7571 23.7853 28.772V28.1874V27.7307C23.7853 27.4627 23.7793 27.2313 23.7671 27.0365C23.7549 26.8416 23.7123 26.6102 23.6392 26.3423C23.5661 26.0743 23.4687 25.8551 23.3469 25.6846C23.2251 25.5141 23.0363 25.3436 22.7806 25.1731C22.5248 25.0026 22.2264 24.8808 21.8854 24.8077C21.8245 24.7955 21.7271 24.7894 21.5931 24.7894C21.2278 24.7894 20.8806 24.8625 20.5518 25.0087C20.0281 25.2766 19.6871 25.648 19.5288 26.123C19.3705 26.598 19.2913 27.1582 19.2913 27.8037V28.1691C19.2913 29.3383 19.407 30.1604 19.6384 30.6354C20.0281 31.3783 20.6675 31.7497 21.5566 31.7497Z" fill="#111928"/>
<path d="M26.6214 24.5885C27.2669 24.5398 27.7663 24.1987 28.1195 23.5654C28.4727 22.9321 28.6675 22.1892 28.7041 21.3367V21.0627H29.4348V24.4241H31.901V25.2644H29.4348V27.8951C29.447 29.4174 29.4531 30.2761 29.4531 30.4709C29.4531 30.6658 29.4957 30.8607 29.5809 31.0555C29.7515 31.5305 30.0498 31.768 30.4761 31.768C31.012 31.768 31.3408 31.3356 31.4626 30.4709C31.4748 30.3735 31.4809 30.0934 31.4809 29.6306V28.9912H32.2116V29.6306V29.8498C32.2116 30.7876 31.9559 31.5001 31.4443 31.9872C31.1155 32.3161 30.6892 32.4805 30.1655 32.4805C29.7515 32.4805 29.3922 32.4074 29.0877 32.2612C28.7832 32.1151 28.5518 31.9263 28.3935 31.6949C28.2352 31.4635 28.1195 31.2504 28.0464 31.0555C27.9733 30.8607 27.9307 30.6658 27.9185 30.4709C27.9063 30.3857 27.9002 29.4844 27.9002 27.7672V25.2644H26.457V24.5885H26.6214Z" fill="#111928"/>
<path d="M33.9778 31.4575H34.2336C34.7086 31.4575 34.9948 31.3722 35.0922 31.2017V31.0556C35.0922 30.946 35.0922 30.8059 35.0922 30.6354C35.0922 30.4649 35.0922 30.264 35.0922 30.0326C35.0922 29.8012 35.0922 29.5393 35.0922 29.247C35.0922 28.9547 35.0983 28.6502 35.1105 28.3336C35.1227 28.0169 35.1227 27.682 35.1105 27.3288C35.0983 26.9756 35.0983 26.6285 35.1105 26.2875C35.1105 25.8369 35.1105 25.3619 35.1105 24.8626C35.1105 24.3632 35.1105 23.9065 35.1105 23.4924C35.1105 23.0783 35.1044 22.713 35.0922 22.3963C35.08 22.0797 35.08 21.8117 35.0922 21.5925C35.1044 21.3733 35.1044 21.2698 35.0922 21.2819C35.0557 21.0505 34.9704 20.8983 34.8365 20.8252C34.7025 20.7522 34.4285 20.6974 34.0144 20.6608H33.6855V20.2406C33.6855 19.9605 33.6977 19.8205 33.7221 19.8205L33.9048 19.8022C34.0266 19.79 34.2032 19.7778 34.4346 19.7657C34.666 19.7535 34.8913 19.7413 35.1105 19.7291C35.3175 19.7169 35.5428 19.7048 35.7864 19.6926C36.03 19.6804 36.2127 19.6621 36.3345 19.6378C36.4563 19.6134 36.5233 19.6073 36.5354 19.6195H36.5902V25.5933C37.321 24.6799 38.1979 24.2232 39.2209 24.2232C40.7189 24.2232 41.541 24.9113 41.6872 26.2875C41.6993 26.3728 41.7054 27.2192 41.7054 28.8268V30.3979C41.7054 30.8607 41.7176 31.1348 41.742 31.22C41.7663 31.3053 41.8333 31.3662 41.9429 31.4027C42.1987 31.4392 42.4971 31.4575 42.8381 31.4575H43.1304V32.2979H42.9842L42.5458 32.2796C42.2657 32.2674 41.9612 32.2613 41.6323 32.2613C41.3035 32.2613 41.0721 32.2552 40.9381 32.243C39.6837 32.243 39.0017 32.2613 38.8921 32.2979H38.7459V31.4575H39.0382C39.7811 31.4575 40.1526 31.3601 40.1526 31.1652C40.1648 31.1408 40.1709 30.3005 40.1709 28.6442C40.1587 27 40.1465 26.1292 40.1343 26.0318C40.0613 25.6907 39.9395 25.435 39.769 25.2645C39.5985 25.094 39.4523 24.9905 39.3305 24.9539C39.2087 24.9174 39.0504 24.9052 38.8555 24.9174C38.3075 24.9174 37.8264 25.1244 37.4123 25.5385C37.0835 25.8673 36.8764 26.2023 36.7912 26.5433C36.7059 26.8843 36.6572 27.3897 36.645 28.0596V29.2287V30.3249C36.645 30.6902 36.6511 30.9338 36.6633 31.0556C36.6755 31.1774 36.6938 31.2565 36.7181 31.2931C36.7425 31.3296 36.7973 31.3662 36.8825 31.4027C37.1383 31.4392 37.4367 31.4575 37.7777 31.4575H38.07V32.2979H37.9238L37.5037 32.2796C37.2114 32.2674 36.9008 32.2613 36.572 32.2613C36.2431 32.2613 36.0117 32.2552 35.8778 32.243C34.6233 32.243 33.9413 32.2613 33.8317 32.2979H33.6855V31.4575H33.9778Z" fill="#111928"/>
</svg>
