<svg width="52" height="52" viewBox="0 0 52 52" fill="none" xmlns="http://www.w3.org/2000/svg">
<rect width="52" height="52" rx="4" fill="#D0F0FD"/>
<path d="M15.007 25.8142C15.007 25.8142 14.8819 25.8142 14.6316 25.8142C14.3813 25.8142 14.1667 25.7248 13.988 25.546C13.8092 25.3673 13.7138 25.1408 13.7019 24.8667C13.7019 24.5926 13.7913 24.3661 13.9701 24.1873C14.0297 24.1277 14.0595 24.092 14.0595 24.08C14.0595 24.0681 13.9999 24.0562 13.8807 24.0443C13.5708 23.9966 13.2788 23.9728 13.0047 23.9728C12.4207 23.9728 11.9439 24.1635 11.5744 24.5449C11.0143 25.1051 10.7342 26.0407 10.7342 27.3517C10.7342 28.329 10.9189 29.0978 11.2884 29.658C11.777 30.385 12.4326 30.7485 13.255 30.7485C13.7436 30.7485 14.1369 30.5936 14.4349 30.2837C14.7329 29.9738 14.9474 29.6043 15.0785 29.1753C15.1023 29.0799 15.1321 29.0203 15.1679 28.9965C15.2037 28.9727 15.299 28.9607 15.4539 28.9607H15.7042C15.7758 29.0322 15.8115 29.0859 15.8115 29.1216C15.8115 29.1693 15.7877 29.2647 15.74 29.4077C15.6923 29.5507 15.597 29.7474 15.4539 29.9977C15.3109 30.2479 15.1381 30.4744 14.9355 30.677C14.7329 30.8796 14.4468 31.0644 14.0773 31.2312C13.7079 31.3981 13.2967 31.4756 12.8438 31.4637C11.8188 31.4637 10.9249 31.0823 10.1621 30.3195C9.39927 29.5567 9.01192 28.5972 9 27.4411C9 26.2016 9.38736 25.1944 10.1621 24.4197C10.9368 23.645 11.8366 23.2577 12.8616 23.2577C13.8866 23.2577 14.6018 23.4186 15.007 23.7404C15.4122 24.0622 15.6149 24.4436 15.6149 24.8846C15.6149 25.1587 15.5135 25.3792 15.3109 25.546L15.007 25.8142Z" fill="#111928"/>
<path d="M16.8301 27.4416C16.8301 26.3094 17.2174 25.332 17.9921 24.5096C18.7669 23.6872 19.7025 23.2701 20.799 23.2582C21.8717 23.2582 22.7954 23.6634 23.5701 24.4739C24.3448 25.2843 24.7381 26.2676 24.75 27.4237C24.75 28.556 24.3686 29.5095 23.6058 30.2842C22.843 31.0589 21.9074 31.4463 20.799 31.4463C19.6429 31.4463 18.6953 31.047 17.9564 30.2485C17.2174 29.4499 16.842 28.5143 16.8301 27.4416ZM20.799 30.7312C22.2531 30.7312 22.9801 29.7598 22.9801 27.8171V27.245V26.798C22.9801 26.5358 22.9741 26.3094 22.9622 26.1187C22.9503 25.928 22.9086 25.7015 22.8371 25.4393C22.7656 25.1771 22.6702 24.9625 22.551 24.7957C22.4318 24.6288 22.2471 24.462 21.9968 24.2951C21.7465 24.1282 21.4545 24.0091 21.1208 23.9375C21.0612 23.9256 20.9658 23.9197 20.8347 23.9197C20.4772 23.9197 20.1375 23.9912 19.8157 24.1342C19.3032 24.3964 18.9695 24.7599 18.8145 25.2248C18.6596 25.6896 18.5821 26.2378 18.5821 26.8695V27.2271C18.5821 28.3713 18.6953 29.1758 18.9218 29.6406C19.3032 30.3677 19.9289 30.7312 20.799 30.7312Z" fill="#111928"/>
<path d="M30.5424 25.6178C30.5424 25.141 30.3815 24.7298 30.0597 24.3842C29.7379 24.0385 29.2731 23.8657 28.6652 23.8657C28.2362 23.8657 27.8667 23.9432 27.5568 24.0981C27.1992 24.3246 27.0205 24.6345 27.0205 25.0278C27.0085 25.0874 27.0085 25.1649 27.0205 25.2602C27.0324 25.3556 27.1277 25.4986 27.3065 25.6893C27.4853 25.88 27.7415 26.029 28.0753 26.1362C28.2898 26.1958 28.552 26.2495 28.8619 26.2971C29.1718 26.3448 29.434 26.3984 29.6485 26.458C29.8631 26.5176 30.0538 26.5951 30.2206 26.6904C30.4232 26.7858 30.6199 26.905 30.8106 27.048C31.0013 27.191 31.192 27.4354 31.3827 27.781C31.5734 28.1266 31.6747 28.4961 31.6866 28.8894C31.6866 29.6284 31.4602 30.2362 31.0073 30.713C30.5543 31.1897 29.8213 31.4341 28.8083 31.446H28.6652C28.0455 31.446 27.4734 31.2315 26.949 30.8024L26.8059 30.9275L26.645 31.0884C26.5735 31.1599 26.502 31.2255 26.4305 31.2851L26.2338 31.4639H26.0908H26.0193C25.9835 31.4639 25.9299 31.4281 25.8584 31.3566V29.9442V28.9073C25.8584 28.657 25.8703 28.508 25.8942 28.4604C25.918 28.4127 25.9776 28.3829 26.0729 28.371H26.2338C26.3769 28.371 26.4722 28.3948 26.5199 28.4425C26.5676 28.4902 26.5974 28.5617 26.6093 28.657C26.6212 28.7524 26.6629 28.9133 26.7344 29.1397C26.8059 29.3662 26.9192 29.6165 27.0741 29.8906C27.4913 30.4985 28.0693 30.8024 28.8083 30.8024C29.9644 30.8024 30.5424 30.3376 30.5424 29.4079C30.5424 29.0623 30.4352 28.7822 30.2206 28.5676C29.9823 28.2816 29.4876 28.0671 28.7368 27.924C27.9859 27.781 27.4913 27.6439 27.2529 27.5128C26.8238 27.3102 26.4841 27.0361 26.2338 26.6904C25.9835 26.3448 25.8584 25.9753 25.8584 25.582C25.8584 25.1172 25.9597 24.7239 26.1623 24.4021C26.3649 24.0803 26.6212 23.8419 26.9311 23.6869C27.241 23.532 27.5389 23.4247 27.825 23.3651C28.111 23.3056 28.3732 23.2758 28.6116 23.2758H28.8083C29.285 23.2758 29.7022 23.3651 30.0597 23.5439L30.3279 23.6869L30.4888 23.5618C30.608 23.4545 30.7391 23.3532 30.8821 23.2579H31.0251H31.0966C31.1324 23.2579 31.186 23.2936 31.2575 23.3651V25.725L31.1503 25.8323H30.6497C30.5782 25.7608 30.5424 25.6893 30.5424 25.6178Z" fill="#111928"/>
<path d="M33.0419 30.4442H33.2922C33.757 30.4442 34.0371 30.3608 34.1325 30.1939V30.0509C34.1325 29.9436 34.1325 29.8066 34.1325 29.6397C34.1325 29.4728 34.1325 29.2762 34.1325 29.0497C34.1325 28.8233 34.1325 28.567 34.1325 28.281C34.1325 27.9949 34.1384 27.697 34.1503 27.3871C34.1623 27.0772 34.1623 26.7494 34.1503 26.4038C34.1384 26.0582 34.1384 25.7185 34.1503 25.3847C34.1503 24.9438 34.1503 24.4789 34.1503 23.9903C34.1503 23.5016 34.1503 23.0547 34.1503 22.6494C34.1503 22.2442 34.1444 21.8866 34.1325 21.5767C34.1205 21.2669 34.1205 21.0046 34.1325 20.7901C34.1444 20.5756 34.1444 20.4743 34.1325 20.4862C34.0967 20.2597 34.0133 20.1107 33.8822 20.0392C33.7511 19.9677 33.4829 19.9141 33.0777 19.8783H32.7559V19.4671C32.7559 19.193 32.7678 19.0559 32.7916 19.0559L32.9704 19.0381C33.0896 19.0261 33.2624 19.0142 33.4889 19.0023C33.7153 18.9904 33.9358 18.9785 34.1503 18.9666C34.353 18.9546 34.5735 18.9427 34.8118 18.9308C35.0502 18.9189 35.229 18.901 35.3482 18.8772C35.4674 18.8533 35.5329 18.8474 35.5448 18.8593H35.5985V24.7054C36.3136 23.8115 37.1717 23.3645 38.1729 23.3645C39.6389 23.3645 40.4434 24.0379 40.5864 25.3847C40.5983 25.4682 40.6043 26.2965 40.6043 27.8698V29.4073C40.6043 29.8602 40.6162 30.1284 40.64 30.2118C40.6639 30.2952 40.7294 30.3548 40.8367 30.3906C41.087 30.4263 41.379 30.4442 41.7127 30.4442H41.9988V31.2666H41.8558L41.4267 31.2487C41.1525 31.2368 40.8546 31.2308 40.5328 31.2308C40.211 31.2308 39.9845 31.2249 39.8534 31.213C38.6258 31.213 37.9584 31.2308 37.8511 31.2666H37.7081V30.4442H37.9941C38.7211 30.4442 39.0847 30.3489 39.0847 30.1582C39.0966 30.1343 39.1025 29.3119 39.1025 27.691C39.0906 26.082 39.0787 25.2298 39.0668 25.1345C38.9953 24.8007 38.8761 24.5504 38.7092 24.3836C38.5424 24.2167 38.3993 24.1154 38.2802 24.0797C38.161 24.0439 38.006 24.032 37.8153 24.0439C37.279 24.0439 36.8082 24.2465 36.403 24.6518C36.0812 24.9736 35.8785 25.3013 35.7951 25.635C35.7117 25.9688 35.664 26.4634 35.6521 27.1189V28.2631V29.3358C35.6521 29.6933 35.6581 29.9317 35.67 30.0509C35.6819 30.1701 35.6998 30.2476 35.7236 30.2833C35.7474 30.3191 35.8011 30.3548 35.8845 30.3906C36.1348 30.4263 36.4268 30.4442 36.7605 30.4442H37.0466V31.2666H36.9036L36.4924 31.2487C36.2063 31.2368 35.9024 31.2308 35.5806 31.2308C35.2588 31.2308 35.0323 31.2249 34.9012 31.213C33.6736 31.213 33.0062 31.2308 32.8989 31.2666H32.7559V30.4442H33.0419Z" fill="#111928"/>
</svg>
