<svg width="52" height="52" viewBox="0 0 52 52" fill="none" xmlns="http://www.w3.org/2000/svg">
<path d="M36.9851 29.84L36.3251 33.04H34.3651L36.8851 20.7C36.9251 20.5133 36.9584 20.34 36.9851 20.18C37.0118 20.02 37.0251 19.8933 37.0251 19.8C37.0251 19.5467 36.9051 19.3933 36.6651 19.34C36.4384 19.2733 36.0051 19.2333 35.3651 19.22C35.3518 19.1267 35.3384 19.04 35.3251 18.96C35.3251 18.8667 35.3318 18.7733 35.3451 18.68C36.0651 18.6267 36.7651 18.5533 37.4451 18.46C38.1384 18.3533 38.7318 18.2 39.2251 18L39.4851 18.14C39.3251 18.7133 39.1784 19.3 39.0451 19.9C38.9118 20.4867 38.7784 21.1 38.6451 21.74L38.0051 24.78L37.6851 26.14H37.7851C38.3318 25.26 38.9518 24.5933 39.6451 24.14C40.3384 23.6733 41.0318 23.44 41.7251 23.44C42.3518 23.44 42.8318 23.6133 43.1651 23.96C43.5118 24.3067 43.6851 24.7333 43.6851 25.24C43.6851 25.52 43.6318 25.8933 43.5251 26.36C43.4318 26.8267 43.3118 27.3333 43.1651 27.88C43.0184 28.4133 42.8718 28.94 42.7251 29.46C42.5784 29.9667 42.4518 30.42 42.3451 30.82C42.2518 31.2067 42.2051 31.48 42.2051 31.64C42.2051 31.7333 42.2318 31.82 42.2851 31.9C42.3384 31.98 42.4318 32.02 42.5651 32.02C42.7918 32.02 43.0784 31.9 43.4251 31.66C43.7718 31.42 44.0851 31.1267 44.3651 30.78C44.5384 30.9 44.6918 31.0333 44.8251 31.18C44.3718 31.78 43.8784 32.28 43.3451 32.68C42.8251 33.08 42.2518 33.28 41.6251 33.28C41.1318 33.28 40.7651 33.16 40.5251 32.92C40.2984 32.6667 40.1851 32.3533 40.1851 31.98C40.1851 31.7133 40.2318 31.36 40.3251 30.92C40.4318 30.48 40.5584 30 40.7051 29.48C40.8518 28.96 40.9918 28.44 41.1251 27.92C41.2718 27.4 41.3918 26.9267 41.4851 26.5C41.5918 26.0733 41.6451 25.74 41.6451 25.5C41.6451 25.2333 41.5784 25.02 41.4451 24.86C41.3251 24.6867 41.1318 24.6 40.8651 24.6C40.5051 24.6 40.0718 24.78 39.5651 25.14C39.0584 25.4867 38.5651 26.0467 38.0851 26.82C37.6184 27.58 37.2518 28.5867 36.9851 29.84Z" fill="#454545"/>
<path d="M28.7215 33.28C27.6682 33.28 26.8615 33.0933 26.3015 32.72C25.7415 32.3466 25.4615 31.9533 25.4615 31.54C25.4615 31.3133 25.5482 31.1 25.7215 30.9C25.8949 30.7 26.1482 30.6 26.4815 30.6C26.8149 30.6 27.0815 30.6933 27.2815 30.88C27.4949 31.0666 27.6549 31.3066 27.7615 31.6C27.8815 31.8933 27.9615 32.1866 28.0015 32.48C28.1482 32.52 28.2882 32.5466 28.4215 32.56C28.5682 32.5733 28.7082 32.58 28.8415 32.58C29.3882 32.58 29.8482 32.4666 30.2215 32.24C30.5949 32 30.7815 31.6466 30.7815 31.18C30.7815 30.7666 30.6215 30.42 30.3015 30.14C29.9815 29.8466 29.5149 29.4933 28.9015 29.08C28.5415 28.8266 28.1949 28.5666 27.8615 28.3C27.5282 28.02 27.2549 27.7133 27.0415 27.38C26.8282 27.0466 26.7215 26.6733 26.7215 26.26C26.7215 25.8333 26.8482 25.4066 27.1015 24.98C27.3682 24.54 27.7815 24.18 28.3415 23.9C28.9015 23.6066 29.6149 23.46 30.4815 23.46C31.4415 23.46 32.1615 23.6266 32.6415 23.96C33.1215 24.2933 33.3615 24.6533 33.3615 25.04C33.3615 25.24 33.2882 25.4466 33.1415 25.66C33.0082 25.8733 32.7682 25.98 32.4215 25.98C31.9815 25.98 31.6415 25.8066 31.4015 25.46C31.1749 25.1 31.0349 24.72 30.9815 24.32C30.7015 24.2533 30.4215 24.22 30.1415 24.22C29.6082 24.22 29.2015 24.3466 28.9215 24.6C28.6415 24.84 28.5015 25.1533 28.5015 25.54C28.5015 25.9533 28.6615 26.3133 28.9815 26.62C29.3149 26.9133 29.7949 27.2733 30.4215 27.7C30.7815 27.94 31.1282 28.2 31.4615 28.48C31.7949 28.7466 32.0682 29.0533 32.2815 29.4C32.4949 29.7333 32.6015 30.1333 32.6015 30.6C32.6015 31.16 32.4349 31.64 32.1015 32.04C31.7682 32.44 31.3082 32.7466 30.7215 32.96C30.1349 33.1733 29.4682 33.28 28.7215 33.28Z" fill="#454545"/>
<path d="M24.6546 27.3599C24.6546 28.0399 24.5413 28.7266 24.3146 29.4199C24.1013 30.1133 23.7746 30.7533 23.3346 31.3399C22.8946 31.9133 22.348 32.3799 21.6946 32.7399C21.0413 33.0999 20.288 33.2799 19.4346 33.2799C18.7146 33.2799 18.108 33.1533 17.6146 32.8999C17.1346 32.6466 16.748 32.3199 16.4546 31.9199C16.1613 31.5199 15.948 31.0866 15.8146 30.6199C15.6946 30.1399 15.6346 29.6799 15.6346 29.2399C15.6346 28.6666 15.7346 28.0466 15.9346 27.3799C16.148 26.7133 16.468 26.0799 16.8946 25.4799C17.3213 24.8799 17.868 24.3933 18.5346 24.0199C19.2013 23.6333 19.9946 23.4399 20.9146 23.4399C21.7813 23.4399 22.488 23.6199 23.0346 23.9799C23.5946 24.3266 24.0013 24.7999 24.2546 25.3999C24.5213 25.9866 24.6546 26.6399 24.6546 27.3599ZM22.5346 27.0399C22.5346 26.2133 22.4013 25.5333 22.1346 24.9999C21.8813 24.4533 21.448 24.1799 20.8346 24.1799C20.3546 24.1799 19.9213 24.3399 19.5346 24.6599C19.1613 24.9799 18.8413 25.4066 18.5746 25.9399C18.308 26.4733 18.1013 27.0599 17.9546 27.6999C17.8213 28.3266 17.7546 28.9599 17.7546 29.5999C17.7546 30.4266 17.888 31.1266 18.1546 31.6999C18.4346 32.2599 18.888 32.5399 19.5146 32.5399C20.008 32.5399 20.4413 32.3733 20.8146 32.0399C21.188 31.7066 21.5013 31.2666 21.7546 30.7199C22.008 30.1733 22.2013 29.5799 22.3346 28.9399C22.468 28.2866 22.5346 27.6533 22.5346 27.0399Z" fill="#454545"/>
<path d="M10.28 33.28C9.25333 33.28 8.44667 32.96 7.86 32.32C7.28667 31.68 7 30.82 7 29.74C7 28.8733 7.17333 28.06 7.52 27.3C7.86667 26.54 8.32667 25.8733 8.9 25.3C9.47333 24.7266 10.1067 24.28 10.8 23.96C11.4933 23.6266 12.18 23.46 12.86 23.46C13.4867 23.46 14.0067 23.5933 14.42 23.86C14.8333 24.1266 15.04 24.4666 15.04 24.88C15.04 25.16 14.9467 25.3933 14.76 25.58C14.5733 25.7666 14.3267 25.86 14.02 25.86C13.7267 25.86 13.4267 25.7466 13.12 25.52C12.8133 25.28 12.6267 24.8666 12.56 24.28C12.0667 24.2933 11.6067 24.48 11.18 24.84C10.7667 25.2 10.4067 25.66 10.1 26.22C9.79333 26.78 9.55333 27.3733 9.38 28C9.20667 28.6266 9.12 29.22 9.12 29.78C9.12 30.3533 9.24667 30.8533 9.5 31.28C9.75333 31.7066 10.2267 31.92 10.92 31.92C11.4933 31.92 12.02 31.7666 12.5 31.46C12.9933 31.1533 13.42 30.7466 13.78 30.24C13.9933 30.3466 14.1533 30.4733 14.26 30.62C14.0067 31.0733 13.6933 31.5066 13.32 31.92C12.96 32.32 12.5267 32.6466 12.02 32.9C11.5267 33.1533 10.9467 33.28 10.28 33.28Z" fill="#454545"/>
</svg>
