<svg width="53" height="53" viewBox="0 0 53 53" fill="none" xmlns="http://www.w3.org/2000/svg">
<g filter="url(#filter0_d)">
<rect width="52" height="52" fill="none"/>
<path d="M17 26.0612C17 22.9643 18.0407 20.4259 20.1222 18.446C22.2037 16.466 24.666 15.3364 27.509 15.0572C27.5344 15.0572 27.7502 15.0572 28.1563 15.0572C28.5625 15.0572 29.0955 15.0445 29.7555 15.0191C30.4155 14.9937 31.0501 14.9937 31.6593 15.0191H35.4289C35.8096 15.2222 36 15.476 36 15.7806C36 16.0091 35.835 16.2502 35.505 16.5041L31.5451 16.5422C28.7275 16.5675 26.9886 16.6437 26.3287 16.7706C25.0848 17.0752 23.9806 17.5321 23.016 18.1414C22.0514 18.7506 21.3026 19.3725 20.7695 20.0071C20.2365 20.6417 19.7796 21.3398 19.3988 22.1013C19.018 22.8628 18.7896 23.472 18.7134 23.9289C18.6373 24.3858 18.5738 24.8174 18.523 25.2235V25.2997H35.4289C35.8096 25.5027 36 25.7566 36 26.0612C36 26.3658 35.8096 26.6196 35.4289 26.8227H18.523V26.8989C18.523 27.4319 18.65 28.0792 18.9038 28.8408C19.1576 29.6023 19.5765 30.4273 20.1603 31.3157C20.7442 32.2041 21.5564 33.0164 22.5972 33.7526C23.6379 34.4887 24.8691 35.0091 26.2906 35.3137C26.976 35.466 28.7275 35.5549 31.5451 35.5802H35.505C35.835 35.8341 36 36.0879 36 36.3418C36 36.6464 35.8096 36.9002 35.4289 37.1033H31.7355C31.5578 37.1033 31.2405 37.1033 30.7836 37.1033C30.3267 37.1033 29.9586 37.116 29.6794 37.1414C25.7448 37.1414 22.6353 36.0498 20.3507 33.8668C18.1169 31.7853 17 29.1834 17 26.0612Z" fill="black"/>
</g>
<defs>
<filter id="filter0_d" x="0" y="0" width="53" height="53" filterUnits="userSpaceOnUse" color-interpolation-filters="sRGB">
<feFlood flood-opacity="0" result="BackgroundImageFix"/>
<feColorMatrix in="SourceAlpha" type="matrix" values="0 0 0 0 0 0 0 0 0 0 0 0 0 0 0 0 0 0 127 0" result="hardAlpha"/>
<feOffset dx="1" dy="1"/>
<feColorMatrix type="matrix" values="0 0 0 0 0 0 0 0 0 0 0 0 0 0 0 0 0 0 0.25 0"/>
<feBlend mode="normal" in2="BackgroundImageFix" result="effect1_dropShadow"/>
<feBlend mode="normal" in="SourceGraphic" in2="effect1_dropShadow" result="shape"/>
</filter>
</defs>
</svg>
