<svg width="52" height="52" viewBox="0 0 52 52" fill="none" xmlns="http://www.w3.org/2000/svg">
<path d="M15.1904 36C14.8746 35.9997 14.5718 35.8833 14.3486 35.6764C14.1254 35.4696 14 35.1891 14 34.8967V17.1033C14.0022 16.8115 14.1283 16.5322 14.351 16.3258C14.5738 16.1194 14.8753 16.0023 15.1904 16H36.8096C37.4672 16 38 16.4944 38 17.1033V34.8967C37.9978 35.1885 37.8717 35.4678 37.649 35.6742C37.4263 35.8806 37.1247 35.9977 36.8096 36H15.1904ZM35.6 29.3333V18.2222H16.4V33.7778L28.4 22.6667L35.6 29.3333ZM35.6 32.4756L28.4 25.8089L19.7936 33.7778H35.6V32.4756ZM21.2 24.8889C20.5635 24.8889 19.953 24.6548 19.5029 24.238C19.0529 23.8213 18.8 23.256 18.8 22.6667C18.8 22.0773 19.0529 21.5121 19.5029 21.0953C19.953 20.6786 20.5635 20.4444 21.2 20.4444C21.8365 20.4444 22.447 20.6786 22.8971 21.0953C23.3471 21.5121 23.6 22.0773 23.6 22.6667C23.6 23.256 23.3471 23.8213 22.8971 24.238C22.447 24.6548 21.8365 24.8889 21.2 24.8889Z" fill="#454545"/>
</svg>
