<svg width="52" height="52" viewBox="0 0 52 52" fill="none" xmlns="http://www.w3.org/2000/svg">
<rect width="52" height="52" rx="4" fill="#D0F0FD"/>
<path fill-rule="evenodd" clip-rule="evenodd" d="M17.5385 15H34.4615C35.1348 15 35.7804 15.2674 36.2565 15.7435C36.7326 16.2196 37 16.8652 37 17.5385V34.4615C37 35.1348 36.7326 35.7804 36.2565 36.2565C35.7804 36.7326 35.1348 37 34.4615 37H17.5385C16.8652 37 16.2196 36.7326 15.7435 36.2565C15.2674 35.7804 15 35.1348 15 34.4615V17.5385C15 16.8652 15.2674 16.2196 15.7435 15.7435C16.2196 15.2674 16.8652 15 17.5385 15ZM17.5385 16.6923C17.314 16.6923 17.0988 16.7815 16.9401 16.9401C16.7815 17.0988 16.6923 17.314 16.6923 17.5385V27.4622L19.5388 24.6157C19.6109 24.5433 19.6969 24.4862 19.7915 24.4478C19.8862 24.4094 19.9877 24.3904 20.0898 24.3919C20.192 24.3935 20.2928 24.4156 20.3862 24.457C20.4797 24.4983 20.5638 24.5581 20.6337 24.6326L26.6329 31.06L31.3849 26.308C31.5277 26.1654 31.7213 26.0853 31.9231 26.0853C32.1249 26.0853 32.3184 26.1654 32.4612 26.308L35.3077 29.1545V17.5385C35.3077 17.314 35.2185 17.0988 35.0599 16.9401C34.9012 16.7815 34.686 16.6923 34.4615 16.6923H17.5385ZM16.6923 34.4615V29.6148L20.0583 26.2505L26.0525 32.6711L28.4386 35.3077H17.5385C17.314 35.3077 17.0988 35.2185 16.9401 35.0599C16.7815 34.9012 16.6923 34.686 16.6923 34.4615ZM34.4615 35.3077H30.4931L27.6635 32.182L31.9231 27.9225L35.3077 31.3071V34.4615C35.3077 34.686 35.2185 34.9012 35.0599 35.0599C34.9012 35.2185 34.686 35.3077 34.4615 35.3077ZM24.5615 22.6154C24.5615 22.2339 24.7131 21.868 24.9829 21.5982C25.2526 21.3285 25.6185 21.1769 26 21.1769C26.3815 21.1769 26.7474 21.3285 27.0171 21.5982C27.2869 21.868 27.4385 22.2339 27.4385 22.6154C27.4385 22.9969 27.2869 23.3628 27.0171 23.6325C26.7474 23.9023 26.3815 24.0538 26 24.0538C25.6185 24.0538 25.2526 23.9023 24.9829 23.6325C24.7131 23.3628 24.5615 22.9969 24.5615 22.6154ZM26 19.6538C25.6111 19.6538 25.226 19.7304 24.8667 19.8793C24.5074 20.0281 24.1809 20.2463 23.9059 20.5213C23.6309 20.7963 23.4127 21.1227 23.2639 21.4821C23.1151 21.8414 23.0385 22.2265 23.0385 22.6154C23.0385 23.0043 23.1151 23.3894 23.2639 23.7487C23.4127 24.108 23.6309 24.4345 23.9059 24.7095C24.1809 24.9845 24.5074 25.2027 24.8667 25.3515C25.226 25.5003 25.6111 25.5769 26 25.5769C26.7854 25.5769 27.5387 25.2649 28.0941 24.7095C28.6495 24.1541 28.9615 23.4008 28.9615 22.6154C28.9615 21.8299 28.6495 21.0767 28.0941 20.5213C27.5387 19.9659 26.7854 19.6538 26 19.6538Z" fill="black"/>
</svg>
