<svg width="53" height="53" viewBox="0 0 53 53" fill="none" xmlns="http://www.w3.org/2000/svg">
<g filter="url(#filter0_d_531_2719)">
<rect width="52" height="52" fill="none"/>
<path d="M31.3154 37.345V38H21V37.345H21.8522C22.8465 37.345 23.5685 37.0558 24.0183 36.4775C24.3023 36.0998 24.4444 35.1909 24.4444 33.751V18.2423C24.4444 17.026 24.3675 16.2241 24.2136 15.8346C24.0951 15.5389 23.8526 15.2857 23.4856 15.0733C22.9649 14.79 22.4204 14.6484 21.8522 14.6484H21V13.9933H31.3154V14.6484H30.4454C29.463 14.6484 28.7468 14.937 28.2971 15.5159C28.0011 15.893 27.8532 16.803 27.8532 18.2423V33.751C27.8532 34.9668 27.9301 35.7693 28.0841 36.1588C28.2025 36.4539 28.451 36.7076 28.8297 36.9201C29.3388 37.2033 29.8773 37.345 30.4454 37.345H31.3154Z" fill="black"/>
</g>
<defs>
<filter id="filter0_d_531_2719" x="0" y="0" width="53" height="53" filterUnits="userSpaceOnUse" color-interpolation-filters="sRGB">
<feFlood flood-opacity="0" result="BackgroundImageFix"/>
<feColorMatrix in="SourceAlpha" type="matrix" values="0 0 0 0 0 0 0 0 0 0 0 0 0 0 0 0 0 0 127 0" result="hardAlpha"/>
<feOffset dx="1" dy="1"/>
<feColorMatrix type="matrix" values="0 0 0 0 0 0 0 0 0 0 0 0 0 0 0 0 0 0 0.25 0"/>
<feBlend mode="normal" in2="BackgroundImageFix" result="effect1_dropShadow_531_2719"/>
<feBlend mode="normal" in="SourceGraphic" in2="effect1_dropShadow_531_2719" result="shape"/>
</filter>
</defs>
</svg>
