<svg width="52" height="52" viewBox="0 0 52 52" fill="none" xmlns="http://www.w3.org/2000/svg">
<path d="M28.04 36.84C26.6533 36.84 25.5067 36.5867 24.6 36.08C23.72 35.5733 23.0667 34.84 22.64 33.88C22.2133 32.92 22 31.7733 22 30.44V15H25.52V30.56C25.52 31.8667 25.8 32.76 26.36 33.24C26.92 33.6933 27.6267 33.92 28.48 33.92C29.0133 33.92 29.48 33.88 29.88 33.8C30.3067 33.72 30.72 33.6267 31.12 33.52V36.36C30.7733 36.4933 30.3467 36.6 29.84 36.68C29.3333 36.7867 28.7333 36.84 28.04 36.84Z" fill="#454545"/>
</svg>
