<svg width="53" height="53" viewBox="0 0 53 53" fill="none" xmlns="http://www.w3.org/2000/svg">
<g filter="url(#filter0_d_531_2721)">
<rect width="52" height="52" fill="white"/>
<path d="M23.2621 24.6866L32.1394 33.4855C33.5952 34.9372 34.8381 35.9228 35.8678 36.442C36.8976 36.9614 37.9273 37.2623 38.9571 37.345V38H27.5054V37.345C28.192 37.345 28.6831 37.2328 28.9791 37.0086C29.275 36.7843 29.4288 36.5247 29.4407 36.2296C29.4407 35.9463 29.3874 35.6926 29.2809 35.4683C29.1744 35.244 28.8015 34.8251 28.1624 34.2113L19.8532 26.0144V33.751C19.8532 34.9668 19.9301 35.7693 20.0841 36.1588C20.2025 36.4539 20.451 36.7076 20.8297 36.9201C21.3388 37.2033 21.8773 37.345 22.4454 37.345H23.2621V38H13V37.345H13.8522C14.8465 37.345 15.5685 37.0558 16.0183 36.4775C16.3023 36.0998 16.4444 35.1909 16.4444 33.751V18.2423C16.4444 17.0261 16.3675 16.2187 16.2136 15.8169C16.0951 15.5336 15.8526 15.2857 15.4856 15.0733C14.9649 14.79 14.4204 14.6484 13.8522 14.6484H13V13.9934H23.2621V14.6484H22.4454C21.8892 14.6484 21.3505 14.7847 20.8297 15.0556C20.4628 15.245 20.2083 15.5283 20.0663 15.9054C19.9243 16.2825 19.8532 17.0615 19.8532 18.2423V25.5895C20.0899 25.3652 20.9008 24.6158 22.2856 23.3411C25.801 20.1313 27.9257 17.9892 28.6595 16.9145C28.9791 16.4418 29.1389 16.0293 29.1389 15.6752C29.1389 15.4044 29.0146 15.1671 28.766 14.9671C28.5174 14.767 28.0972 14.6608 27.5054 14.6484H26.9551V13.9934H35.7968V14.6484C35.2766 14.6608 34.8025 14.7316 34.3764 14.8609C33.9503 14.9901 33.4301 15.2379 32.814 15.6044C32.198 15.9709 31.4416 16.5728 30.5415 17.4102C30.2805 17.6457 29.0797 18.8566 26.9373 21.0396L23.2621 24.6866Z" fill="black"/>
</g>
<defs>
<filter id="filter0_d_531_2721" x="0" y="0" width="53" height="53" filterUnits="userSpaceOnUse" color-interpolation-filters="sRGB">
<feFlood flood-opacity="0" result="BackgroundImageFix"/>
<feColorMatrix in="SourceAlpha" type="matrix" values="0 0 0 0 0 0 0 0 0 0 0 0 0 0 0 0 0 0 127 0" result="hardAlpha"/>
<feOffset dx="1" dy="1"/>
<feColorMatrix type="matrix" values="0 0 0 0 0 0 0 0 0 0 0 0 0 0 0 0 0 0 0.25 0"/>
<feBlend mode="normal" in2="BackgroundImageFix" result="effect1_dropShadow_531_2721"/>
<feBlend mode="normal" in="SourceGraphic" in2="effect1_dropShadow_531_2721" result="shape"/>
</filter>
</defs>
</svg>
