<svg width="53" height="53" viewBox="0 0 53 53" fill="none" xmlns="http://www.w3.org/2000/svg">
<g filter="url(#filter0_d_531_2723)">
<rect width="52" height="52" fill="none"/>
<path d="M13 39V38.345C13.9114 38.2033 14.6098 37.9082 15.095 37.4598C15.5803 37.0113 16.0893 36.1497 16.6219 34.875L25.0198 14.4445H25.6767L34.625 34.9812C35.2287 36.374 35.7489 37.2709 36.1874 37.6722C36.6259 38.0735 37.3947 38.2977 38.4955 38.345V39H28.6772V38.345C29.8016 38.2505 30.5237 38.0617 30.8433 37.7784C31.1629 37.4952 31.328 37.1292 31.3404 36.6808C31.3404 36.1261 31.0688 35.2232 30.5237 33.9721L24.3984 19.8974L18.717 33.795C18.1843 35.0816 17.918 36.0257 17.918 36.6277C17.918 37.1234 18.0837 37.5129 18.4151 37.7961C18.7466 38.0794 19.4152 38.2623 20.4214 38.345V39H13Z" fill="black"/>
</g>
<defs>
<filter id="filter0_d_531_2723" x="0" y="0" width="53" height="53" filterUnits="userSpaceOnUse" color-interpolation-filters="sRGB">
<feFlood flood-opacity="0" result="BackgroundImageFix"/>
<feColorMatrix in="SourceAlpha" type="matrix" values="0 0 0 0 0 0 0 0 0 0 0 0 0 0 0 0 0 0 127 0" result="hardAlpha"/>
<feOffset dx="1" dy="1"/>
<feColorMatrix type="matrix" values="0 0 0 0 0 0 0 0 0 0 0 0 0 0 0 0 0 0 0.25 0"/>
<feBlend mode="normal" in2="BackgroundImageFix" result="effect1_dropShadow_531_2723"/>
<feBlend mode="normal" in="SourceGraphic" in2="effect1_dropShadow_531_2723" result="shape"/>
</filter>
</defs>
</svg>
