<svg width="52" height="52" viewBox="0 0 52 52" fill="none" xmlns="http://www.w3.org/2000/svg">
<path d="M34.48 41C33.9733 41 33.52 40.92 33.12 40.76C32.72 40.6267 32.3733 40.3867 32.08 40.04C31.8133 39.6667 31.56 39.1467 31.32 38.48L28.16 29.56C28 29.08 27.8133 28.5333 27.6 27.92C27.3867 27.28 27.16 26.6267 26.92 25.96C26.7067 25.2933 26.5067 24.6667 26.32 24.08C26.16 23.4933 26.0267 22.9867 25.92 22.56H25.76C25.5733 23.52 25.28 24.6267 24.88 25.88C24.5067 27.1333 24.1467 28.2933 23.8 29.36L20.12 40.6H16.36L24.2 19.08L23.16 16.4C22.7333 15.2267 22.12 14.3467 21.32 13.76C20.5467 13.1733 19.52 12.88 18.24 12.88C17.76 12.88 17.3333 12.9067 16.96 12.96C16.6133 13.0133 16.2933 13.0667 16 13.12V10.32C16.24 10.24 16.4933 10.1867 16.76 10.16C17.0533 10.1067 17.36 10.0667 17.68 10.04C18 10.0133 18.3333 10 18.68 10C20.0667 10 21.2533 10.2267 22.24 10.68C23.2533 11.1333 24.12 11.84 24.84 12.8C25.5867 13.76 26.24 15 26.8 16.52L34.4 36.72C34.56 37.0933 34.6933 37.3867 34.8 37.6C34.9067 37.7867 35.0267 37.92 35.16 38C35.32 38.08 35.4933 38.12 35.68 38.12C35.8933 38.12 36.0933 38.0933 36.28 38.04C36.4667 37.9867 36.6267 37.9467 36.76 37.92V40.52C36.5733 40.6 36.36 40.68 36.12 40.76C35.88 40.84 35.6267 40.8933 35.36 40.92C35.0933 40.9733 34.8 41 34.48 41Z" fill="#454545"/>
</svg>
