<svg width="52" height="52" viewBox="0 0 52 52" fill="none" xmlns="http://www.w3.org/2000/svg">
<g clip-path="url(#clip0_285_5999)">
<path d="M52 0H0V52H52V0Z" fill="#D0F0FD"/>
<path d="M41 25.1552C41 25.1552 41 25.2748 41 25.514C41 25.7532 40.8369 25.9707 40.5107 26.1664H15.5883C15.6318 26.2099 15.8166 26.3622 16.1429 26.6231C16.4691 26.8841 16.7844 27.1777 17.0889 27.5039C17.3933 27.8301 17.7522 28.2324 18.1654 28.7109C18.5786 29.1893 18.9374 29.7982 19.2418 30.5376C19.5463 31.277 19.829 32.0491 20.09 32.8537C20.1987 33.2452 20.2531 33.517 20.2531 33.6692C20.2531 33.9085 20.0356 34.0281 19.6007 34.0281C19.4484 34.0281 19.3397 34.0281 19.2745 34.0281C19.2092 34.0281 19.144 33.9846 19.0787 33.8976C19.0135 33.8106 18.9591 33.7127 18.9156 33.604C18.8721 33.4953 18.8286 33.2887 18.7852 32.9842C18.3937 31.3967 17.6543 29.9831 16.5669 28.7435C15.4796 27.5039 14.153 26.5796 12.5872 25.9707C12.261 25.8402 12.0652 25.7206 12 25.6119C12 25.4596 12.0435 25.3509 12.1305 25.2857C12.2175 25.2204 12.3697 25.1443 12.5872 25.0573C13.631 24.6441 14.5553 24.1004 15.36 23.4263C16.1646 22.7521 16.7844 22.0888 17.2193 21.4364C17.6543 20.784 18.0022 20.1424 18.2632 19.5118C18.5242 18.8811 18.709 18.3809 18.8178 18.0112L18.9156 17.4566C18.9591 17.3262 18.9918 17.2392 19.0135 17.1957C19.0352 17.1522 19.0896 17.1087 19.1766 17.0652C19.2636 17.0217 19.4049 17 19.6007 17C20.0356 17 20.2531 17.1196 20.2531 17.3588C20.2531 17.511 20.1987 17.7829 20.09 18.1743C19.8725 18.979 19.6007 19.7292 19.2745 20.4252C18.9483 21.1211 18.6003 21.7082 18.2306 22.1867C17.8609 22.6651 17.5238 23.0674 17.2193 23.3937C16.9149 23.7199 16.5887 24.0243 16.2407 24.307C15.8928 24.5898 15.6753 24.7746 15.5883 24.8616H40.5107C40.8369 25.0573 41 25.2748 41 25.514V25.1552Z" fill="black"/>
</g>
<defs>
<clipPath id="clip0_285_5999">
<rect width="52" height="52" rx="4" fill="white"/>
</clipPath>
</defs>
</svg>
