<svg width="52" height="52" viewBox="0 0 52 52" fill="none" xmlns="http://www.w3.org/2000/svg">
<g clip-path="url(#clip0_285_6026)">
<path d="M52 0H0V52H52V0Z" fill="#D0F0FD"/>
<path d="M10.1583 25.4357H10.4916C11.1106 25.4357 11.4836 25.3246 11.6106 25.1024V24.9119C11.6106 24.7691 11.6106 24.5865 11.6106 24.3643C11.6106 24.1421 11.6106 23.8802 11.6106 23.5786C11.6106 23.2771 11.6185 22.9358 11.6344 22.5549C11.6503 22.174 11.6503 21.7772 11.6344 21.3645C11.6185 20.9518 11.6185 20.5153 11.6344 20.055C11.6503 19.5947 11.6503 19.1424 11.6344 18.698C11.6344 18.1107 11.6344 17.4917 11.6344 16.8409C11.6344 16.1902 11.6344 15.595 11.6344 15.0553C11.6344 14.5156 11.6344 14.0395 11.6344 13.6268C11.6344 13.2141 11.6265 12.8649 11.6106 12.5792C11.5947 12.2935 11.5947 12.1586 11.6106 12.1745C11.563 11.8729 11.4519 11.6745 11.2773 11.5793C11.1027 11.4841 10.7456 11.4126 10.2059 11.365H9.77734V10.8174C9.77734 10.4524 9.79321 10.2699 9.82495 10.2699L10.0631 10.246C10.2218 10.2302 10.4519 10.2143 10.7535 10.1984C11.0551 10.1826 11.3487 10.1667 11.6344 10.1508C11.9042 10.1349 12.1979 10.1191 12.5153 10.1032C12.8328 10.0873 13.0708 10.0635 13.2296 10.0318C13.3883 9.99998 13.4756 9.99205 13.4914 10.008H13.5629V17.5075C13.5629 22.539 13.5708 25.0706 13.5867 25.1024C13.6502 25.2293 13.7454 25.3166 13.8724 25.3643C14.2057 25.4119 14.5946 25.4357 15.039 25.4357H15.4199V26.5309H15.2294L14.6819 26.5071C14.3168 26.4912 13.9279 26.4832 13.5153 26.4832C13.1026 26.4832 12.801 26.4753 12.6105 26.4594C12.4201 26.4436 12.1185 26.4436 11.7058 26.4594C11.2932 26.4753 10.8964 26.4912 10.5154 26.5071L9.9678 26.5309H9.77734V25.4357H10.1583Z" fill="black"/>
<path d="M17.4202 12.032C17.4202 11.5875 17.5631 11.2384 17.8488 10.9844C18.1345 10.7304 18.4837 10.6035 18.8964 10.6035C19.2614 10.6352 19.5789 10.7701 19.8487 11.0082C20.1185 11.2463 20.2534 11.5875 20.2534 12.032C20.2534 12.5081 20.1185 12.8652 19.8487 13.1033C19.5789 13.3414 19.2455 13.4605 18.8487 13.4605C18.4519 13.4605 18.1186 13.3414 17.8488 13.1033C17.579 12.8652 17.4361 12.5081 17.4202 12.032ZM21.6581 26.5312C21.42 26.4835 20.5947 26.4597 19.1821 26.4597C19.0075 26.4597 18.7138 26.4597 18.3012 26.4597C17.8885 26.4597 17.4917 26.4756 17.1107 26.5074L16.587 26.5312H16.3965V25.436H16.7774C17.2218 25.436 17.6107 25.4122 17.944 25.3646C18.0869 25.3011 18.1742 25.2138 18.2059 25.1027C18.2377 24.9916 18.2535 24.6582 18.2535 24.1027V21.6505V19.5554C18.2535 18.73 18.2377 18.2062 18.2059 17.984C18.1742 17.7618 18.0631 17.611 17.8726 17.5317C17.6504 17.4206 17.2774 17.365 16.7536 17.365H16.4917V16.8174C16.4917 16.4524 16.5076 16.2698 16.5393 16.2698L16.7774 16.246C16.9361 16.2301 17.1584 16.2143 17.4441 16.1984C17.7298 16.1825 18.0155 16.1667 18.3012 16.1508C18.571 16.1349 18.8567 16.119 19.1582 16.1032C19.4598 16.0873 19.69 16.0635 19.8487 16.0317C20.0074 16 20.0947 15.9921 20.1106 16.0079H20.182V25.0551C20.2614 25.2138 20.3566 25.309 20.4677 25.3408C20.5788 25.3725 20.8566 25.4042 21.301 25.436H21.8486V26.5312H21.6581Z" fill="black"/>
<path d="M23.3721 25.436H23.7054C24.3244 25.436 24.6974 25.3249 24.8244 25.1027V24.9122C24.8244 24.7694 24.8244 24.5868 24.8244 24.3646C24.8244 24.1424 24.8244 23.8964 24.8244 23.6266C24.8244 23.3567 24.8324 23.0472 24.8482 22.698C24.8641 22.3489 24.8641 22.0155 24.8482 21.6981C24.8482 21.2061 24.8482 20.6823 24.8482 20.1268C24.8482 19.5712 24.8403 19.103 24.8244 18.7221V18.1745C24.7768 17.8729 24.6657 17.6745 24.4911 17.5793C24.3165 17.484 23.9594 17.4126 23.4197 17.365H22.9912V16.8174C22.9912 16.4523 23.0071 16.2698 23.0388 16.2698L23.2769 16.246C23.4356 16.2301 23.6578 16.2143 23.9435 16.1984C24.2292 16.1825 24.5228 16.1667 24.8244 16.1508C25.0942 16.1349 25.3799 16.119 25.6815 16.1032C25.9831 16.0873 26.2132 16.0635 26.372 16.0317C26.5307 16 26.618 15.9921 26.6338 16.0079H26.7053V16.9603C26.7053 17.5634 26.7132 17.865 26.7291 17.865C26.7449 17.865 26.7846 17.8253 26.8481 17.7459C26.9116 17.6666 27.0068 17.5475 27.1338 17.3888C27.2608 17.2301 27.4116 17.0872 27.5862 16.9603C27.7608 16.8333 27.9909 16.6825 28.2766 16.5079C28.5623 16.3333 28.8639 16.2063 29.1813 16.127C29.4988 16.0476 29.9035 16.0079 30.3955 16.0079C30.6336 16.0079 30.8558 16.0238 31.0622 16.0555C31.2685 16.0873 31.451 16.1349 31.6098 16.1984C31.7685 16.2619 31.9193 16.3254 32.0621 16.3889C32.205 16.4523 32.324 16.5238 32.4192 16.6031C32.5145 16.6825 32.6018 16.7698 32.6811 16.865C32.7605 16.9603 32.8319 17.0476 32.8954 17.1269C32.9589 17.2063 33.0144 17.2936 33.0621 17.3888C33.1097 17.484 33.1414 17.5634 33.1573 17.6269C33.1732 17.6904 33.197 17.7539 33.2287 17.8174L33.2763 17.9364L33.3478 17.8412C33.3954 17.7777 33.443 17.7142 33.4906 17.6507C33.5382 17.5872 33.6096 17.4999 33.7049 17.3888C33.8001 17.2777 33.9033 17.1745 34.0144 17.0793C34.1255 16.9841 34.2445 16.8809 34.3715 16.7698C34.4985 16.6587 34.6572 16.5635 34.8477 16.4841C35.0381 16.4047 35.2207 16.3254 35.3953 16.246C35.5699 16.1667 35.7762 16.1111 36.0143 16.0794C36.2524 16.0476 36.4984 16.0238 36.7523 16.0079C38.7522 16.0079 39.8395 16.9047 40.0141 18.6983C40.0299 18.8094 40.0379 19.9125 40.0379 22.0076V24.0551C40.0379 24.6582 40.0537 25.0154 40.0855 25.1265C40.1172 25.2376 40.2045 25.3169 40.3474 25.3646C40.6807 25.4122 41.0696 25.436 41.514 25.436H41.8949V26.5312H41.7044L41.1569 26.5074C40.7759 26.4915 40.3712 26.4835 39.9426 26.4835C39.5141 26.4835 39.2125 26.4756 39.0379 26.4597C37.4031 26.4597 36.5142 26.4835 36.3714 26.5312H36.1809V25.436H36.5619C37.5301 25.436 38.0142 25.309 38.0142 25.0551C38.03 25.0233 38.038 23.9281 38.038 21.7695C38.0221 19.6268 38.0062 18.4919 37.9904 18.3649C37.8951 17.9205 37.7364 17.5872 37.5142 17.365C37.292 17.1428 37.1015 17.0079 36.9428 16.9603C36.7841 16.9126 36.5777 16.8968 36.3238 16.9126C35.6095 16.9126 34.9826 17.1825 34.4429 17.7221C34.0144 18.1507 33.7446 18.5872 33.6335 19.0316C33.5224 19.476 33.4589 20.1347 33.443 21.0077V22.5314V23.9599C33.443 24.436 33.4509 24.7535 33.4668 24.9122C33.4827 25.0709 33.5065 25.1741 33.5382 25.2217C33.57 25.2693 33.6414 25.3169 33.7525 25.3646C34.0858 25.4122 34.4747 25.436 34.9191 25.436H35.3V26.5312H35.1096L34.5382 26.5074C34.1731 26.4915 33.7763 26.4835 33.3478 26.4835C32.9192 26.4835 32.6176 26.4756 32.443 26.4597C30.8082 26.4597 29.9194 26.4835 29.7765 26.5312H29.5861V25.436H29.967C30.9352 25.436 31.4193 25.309 31.4193 25.0551C31.4352 25.0233 31.4431 23.9281 31.4431 21.7695C31.4272 19.6268 31.4114 18.4919 31.3955 18.3649C31.3003 17.9205 31.1415 17.5872 30.9193 17.365C30.6971 17.1428 30.5066 17.0079 30.3479 16.9603C30.1892 16.9126 29.9829 16.8968 29.7289 16.9126C29.0147 16.9126 28.3877 17.1825 27.8481 17.7221C27.4195 18.1507 27.1497 18.5872 27.0386 19.0316C26.9275 19.476 26.864 20.1347 26.8481 21.0077V22.5314V23.9599C26.8481 24.436 26.8561 24.7535 26.8719 24.9122C26.8878 25.0709 26.9116 25.1741 26.9433 25.2217C26.9751 25.2693 27.0465 25.3169 27.1576 25.3646C27.4909 25.4122 27.8798 25.436 28.3242 25.436H28.7052V26.5312H28.5147L27.9671 26.5074C27.5862 26.4915 27.1814 26.4835 26.7529 26.4835C26.3243 26.4835 26.0228 26.4756 25.8482 26.4597C24.2133 26.4597 23.3245 26.4835 23.1816 26.5312H22.9912V25.436H23.3721Z" fill="black"/>
<path d="M8.28615 35.9504C8.3647 35.4791 8.66769 34.9348 9.1951 34.3176C9.72252 33.7004 10.3734 33.3862 11.1477 33.375C11.5404 33.375 11.8995 33.476 12.2249 33.678C12.5504 33.88 12.7916 34.1325 12.9487 34.4355C13.42 33.7285 13.9867 33.375 14.6488 33.375C15.064 33.375 15.4231 33.4985 15.7261 33.7453C16.0291 33.9922 16.1862 34.3232 16.1974 34.7384C16.1974 35.0639 16.1188 35.3276 15.9617 35.5296C15.8046 35.7316 15.6531 35.855 15.5073 35.8999C15.3614 35.9448 15.2323 35.9672 15.1201 35.9672C14.9069 35.9672 14.733 35.9055 14.5983 35.7821C14.4636 35.6586 14.3963 35.4959 14.3963 35.2939C14.3963 34.7777 14.6769 34.4242 15.2379 34.2335C15.1145 34.0876 14.8901 34.0146 14.5646 34.0146C14.4188 34.0146 14.3122 34.0259 14.2448 34.0483C13.8184 34.2279 13.5042 34.5982 13.3022 35.1593C12.6289 37.6392 12.2923 39.0868 12.2923 39.502C12.2923 39.8162 12.382 40.0407 12.5616 40.1753C12.7411 40.31 12.9375 40.3773 13.1507 40.3773C13.5659 40.3773 13.9755 40.1921 14.3795 39.8218C14.7835 39.4515 15.0584 38.997 15.2043 38.4584C15.2379 38.3462 15.2716 38.2845 15.3053 38.2732C15.3389 38.262 15.4287 38.2508 15.5746 38.2396H15.6419C15.8102 38.2396 15.8944 38.2845 15.8944 38.3742C15.8944 38.3855 15.8832 38.4472 15.8607 38.5594C15.6812 39.199 15.3333 39.7657 14.8171 40.2595C14.3009 40.7532 13.7006 41.0001 13.0161 41.0001C12.2305 41.0001 11.6358 40.6466 11.2318 39.9397C10.7717 40.6354 10.2443 40.9833 9.64958 40.9833H9.54858C8.99872 40.9833 8.60597 40.8374 8.37031 40.5456C8.13466 40.2539 8.01122 39.9453 8 39.6198C8 39.2608 8.10661 38.969 8.31982 38.7446C8.53303 38.5201 8.78551 38.4079 9.07727 38.4079C9.5598 38.4079 9.80107 38.6436 9.80107 39.1149C9.80107 39.3393 9.73374 39.5357 9.59908 39.704C9.46442 39.8723 9.33537 39.9845 9.21193 40.0407C9.0885 40.0968 9.01556 40.1248 8.99311 40.1248L8.94261 40.1416C8.94261 40.1529 8.97628 40.1753 9.04361 40.209C9.11094 40.2426 9.20071 40.2819 9.31293 40.3268C9.42514 40.3717 9.53175 40.3885 9.63274 40.3773C10.0367 40.3773 10.3846 40.1248 10.6764 39.6198C10.7773 39.4403 10.9064 39.0588 11.0635 38.4752C11.2206 37.8917 11.3777 37.2857 11.5348 36.6573C11.6919 36.0289 11.7817 35.6586 11.8041 35.5464C11.8602 35.2434 11.8883 35.0246 11.8883 34.8899C11.8883 34.5757 11.8041 34.3513 11.6358 34.2166C11.4675 34.082 11.2767 34.0146 11.0635 34.0146C10.6146 34.0146 10.1938 34.1942 9.80107 34.5533C9.40831 34.9124 9.13338 35.3725 8.97628 35.9335C8.95384 36.0345 8.92578 36.0906 8.89212 36.1019C8.85845 36.1131 8.76868 36.1243 8.6228 36.1355H8.38715C8.31982 36.0682 8.28615 36.0065 8.28615 35.9504Z" fill="black"/>
<path d="M17.9814 36.826C17.9814 36.826 17.9814 36.753 17.9814 36.6071C17.9814 36.4613 18.06 36.349 18.2171 36.2705H31.0939C29.7922 35.2942 28.9898 34.043 28.6869 32.5169C28.6869 32.5056 28.6869 32.4888 28.6869 32.4664C28.6869 32.4439 28.6812 32.4271 28.67 32.4159C28.67 32.2812 28.7654 32.2139 28.9562 32.2139H29.0067C29.1077 32.2139 29.175 32.2195 29.2087 32.2307C29.2423 32.2419 29.276 32.2644 29.3097 32.298C29.3433 32.3317 29.3602 32.3822 29.3602 32.4495C29.3602 32.5169 29.377 32.6066 29.4107 32.7189C29.4443 32.8311 29.4892 32.9713 29.5453 33.1397C29.7922 33.8915 30.2018 34.5648 30.7741 35.1596C31.3464 35.7543 32.0141 36.1751 32.7771 36.422C32.8781 36.4557 32.9286 36.5174 32.9286 36.6071C32.9286 36.6745 32.9006 36.725 32.8445 36.7586C32.7884 36.7923 32.6537 36.8484 32.4405 36.927C32.2273 37.0055 32.0141 37.1121 31.8009 37.2468C31.3408 37.5385 30.9424 37.8752 30.6058 38.2567C30.2691 38.6383 30.0166 39.0142 29.8483 39.3845C29.68 39.7548 29.5621 40.0353 29.4948 40.2261C29.4275 40.4169 29.3826 40.5908 29.3602 40.7479C29.3377 40.8601 29.3097 40.9275 29.276 40.9499C29.2423 40.9723 29.1526 40.9892 29.0067 41.0004C28.7822 41.0004 28.67 40.9387 28.67 40.8152C28.67 40.7367 28.6981 40.5964 28.7542 40.3944C29.1133 38.9805 29.8932 37.8303 31.0939 36.9438H18.2171C18.06 36.8652 17.9814 36.753 17.9814 36.6071V36.826Z" fill="black"/>
<path d="M34.2246 35.9839C34.2358 35.9166 34.2526 35.8268 34.2751 35.7146C34.2975 35.6024 34.3649 35.3892 34.4771 35.075C34.5893 34.7608 34.7015 34.4971 34.8137 34.2839C34.9259 34.0707 35.1111 33.8631 35.3692 33.6611C35.6273 33.4591 35.8854 33.3637 36.1435 33.3749C36.5475 33.3749 36.8841 33.4759 37.1534 33.6779C37.4228 33.8799 37.5911 34.0707 37.6584 34.2502C37.7257 34.4297 37.7594 34.5476 37.7594 34.6037C37.7594 34.6261 37.765 34.6373 37.7762 34.6373L37.9614 34.4522C38.6459 33.734 39.4258 33.3749 40.3011 33.3749C40.9071 33.3749 41.3952 33.5264 41.7655 33.8294C42.1358 34.1324 42.3266 34.5756 42.3378 35.1592C42.349 35.7427 42.1358 36.6236 41.6982 37.8018C41.2605 38.9801 41.0473 39.6927 41.0586 39.9396C41.0586 40.2313 41.1539 40.3772 41.3447 40.3772C41.412 40.3772 41.4625 40.3716 41.4962 40.3604C41.8216 40.3043 42.1134 40.091 42.3715 39.7207C42.6296 39.3504 42.826 38.9016 42.9606 38.3741C42.9831 38.2844 43.0953 38.2395 43.2973 38.2395C43.5217 38.2395 43.6339 38.2844 43.6339 38.3741C43.6339 38.3854 43.6115 38.4695 43.5666 38.6266C43.4768 38.9521 43.3534 39.2719 43.1963 39.5861C43.0392 39.9003 42.7811 40.2145 42.422 40.5287C42.0629 40.8429 41.6757 40.9944 41.2605 40.9832C40.7331 40.9832 40.3516 40.8317 40.1159 40.5287C39.8803 40.2257 39.7625 39.9115 39.7625 39.5861C39.7625 39.3729 39.9644 38.6996 40.3684 37.5662C40.7724 36.4328 40.98 35.58 40.9912 35.0077C40.9912 34.3456 40.7443 34.0145 40.2506 34.0145H40.1664C39.2014 34.0145 38.3878 34.5812 37.7257 35.7146L37.6079 35.9166L37.0524 38.1722C36.6821 39.6422 36.4689 40.4333 36.4128 40.5455C36.2669 40.8485 36.0257 41 35.689 41C35.5431 41 35.4253 40.9663 35.3355 40.899C35.2458 40.8317 35.184 40.7643 35.1504 40.697C35.1167 40.6297 35.1055 40.5736 35.1167 40.5287C35.1167 40.3828 35.3299 39.4683 35.7563 37.785C36.1828 36.1018 36.4072 35.1872 36.4296 35.0413C36.4409 34.9852 36.4465 34.8562 36.4465 34.6542C36.4465 34.2165 36.3118 33.9977 36.0425 33.9977C35.6161 33.9977 35.2626 34.5588 34.9821 35.681C34.9147 35.9054 34.8811 36.0232 34.8811 36.0344C34.8586 36.1018 34.752 36.1354 34.5612 36.1354H34.3256C34.2583 36.0681 34.2246 36.0176 34.2246 35.9839Z" fill="black"/>
</g>
<defs>
<clipPath id="clip0_285_6026">
<rect width="52" height="52" rx="4" fill="white"/>
</clipPath>
</defs>
</svg>
