<svg width="52" height="52" viewBox="0 0 52 52" fill="none" xmlns="http://www.w3.org/2000/svg">
<path d="M25.7468 33.14C23.9068 33.14 21.8068 32.38 21.8068 30.68C21.8068 29.42 22.9468 28.64 24.2468 27.96C23.6668 27.7 23.2668 27.3 23.2668 26.68C23.2668 25.94 23.8068 25.34 25.1068 24.6C24.2268 24.1 23.6468 23.28 23.6468 22.18C23.6468 20.14 25.6668 18.44 28.1268 18.44C29.2668 18.44 30.2668 18.82 30.8868 19.5C31.2668 19.26 31.5468 19.04 31.7268 18.78C31.4668 18.5 31.3468 18.16 31.3468 17.84C31.3468 17.32 31.7068 16.86 32.2868 16.86C32.7668 16.86 33.1868 17.16 33.1868 17.78C33.1868 18.6 32.4268 19.26 31.2468 19.98C31.4668 20.38 31.6068 20.86 31.6068 21.42C31.6068 23.5 29.7068 25.12 27.2668 25.12C26.7268 25.12 26.2068 25.04 25.7468 24.88C25.2068 25.24 24.8868 25.6 24.8868 25.92C24.8868 27.44 31.6068 26.32 31.6068 29.54C31.6068 31.86 28.1268 33.14 25.7468 33.14ZM27.2668 24.42C28.9668 24.42 29.6268 22.48 29.6268 21.18C29.6268 20.3 29.3268 19.08 27.9468 19.08C26.2268 19.08 25.6268 21.04 25.6268 22.3C25.6268 23.26 25.9668 24.42 27.2668 24.42ZM25.0068 28.22C24.1068 28.84 23.6068 29.52 23.6068 30.38C23.6068 31.78 24.9668 32.36 26.3068 32.36C27.8468 32.36 29.8468 31.58 29.8468 30.26C29.8468 28.68 26.9668 28.74 25.0068 28.22Z" fill="#454545"/>
<path d="M21.5798 22.3601C21.5798 25.0601 19.7798 28.2801 16.3598 28.2801C13.4998 28.2801 12.5598 26.0001 12.5598 24.2401C12.5598 21.9601 14.1598 18.4401 17.8398 18.4401C20.4398 18.4401 21.5798 20.2201 21.5798 22.3601ZM19.4598 22.0401C19.4598 20.3801 18.9798 19.1801 17.7598 19.1801C15.8598 19.1801 14.6798 22.0601 14.6798 24.6001C14.6798 26.2601 15.1798 27.5401 16.4398 27.5401C18.3998 27.5401 19.4598 24.5201 19.4598 22.0401Z" fill="#454545"/>
<path d="M11.18 25.78C11.36 25.9 11.5 26.02 11.64 26.18C10.74 27.38 9.7 28.28 8.42 28.28C7.44 28.28 7 27.74 7 26.92C7 26.62 7.06 26.28 7.14 25.92L9.24 15.7C9.32 15.32 9.38 15 9.38 14.82C9.38 14.3 9 14.24 7.72 14.22C7.68 14.04 7.66 13.86 7.7 13.68C9.14 13.58 10.58 13.4 11.58 13L11.84 13.14C11.56 14.14 11.3 15.28 11 16.74L9.14 25.8C9.1 25.98 9.02 26.34 9.02 26.6C9.02 26.84 9.1 27.02 9.38 27.02C9.84 27.02 10.62 26.48 11.18 25.78Z" fill="#454545"/>
<path d="M46 19H34V39H46V19Z" fill="#C4C4C4"/>
</svg>
