<svg width="40" height="40" viewBox="0 0 40 40" fill="none" xmlns="http://www.w3.org/2000/svg">
<path d="M19.5585 23.5152C18.7832 25.2746 17.598 26.1543 16.0029 26.1543C14.8891 26.1543 13.8687 25.6434 12.942 24.6215C12.0152 23.5996 11.5474 22.1201 11.5385 20.183C11.5385 18.6013 11.8147 17.3129 12.3672 16.3177C12.9196 15.3224 13.6504 14.5539 14.5593 14.0118C15.4176 13.4999 16.5342 13.2337 17.909 13.2132C18.045 13.2111 18.155 13.3219 18.155 13.4579V13.4579C18.155 13.5945 18.0442 13.7045 17.9078 13.7118C16.7074 13.7761 15.7651 14.316 15.0806 15.3314C14.3499 16.4154 13.9846 17.9527 13.9846 19.9431C13.9846 21.9601 14.2208 23.3419 14.693 24.0883C15.1653 24.8348 15.7312 25.208 16.3906 25.208C16.8094 25.208 17.2149 25.0791 17.607 24.8214C17.999 24.5637 18.2797 24.2927 18.4491 24.0084C18.6184 23.7241 18.8634 23.1287 19.1842 22.2223C18.6228 21.0494 18.3421 19.8098 18.3421 18.5036C18.3421 16.522 18.7475 15.5313 19.5585 15.5313C20.3695 15.5313 20.7749 16.4466 20.7749 18.277C20.7749 19.5388 20.4808 20.8539 19.8927 22.2223C20.5343 24.2127 21.4522 25.208 22.6462 25.208C23.3146 25.208 23.8893 24.8614 24.3705 24.1683C24.8517 23.4752 25.0963 22.1557 25.1057 20.2097C25.1057 18.5925 24.9493 17.3573 24.6379 16.5043C24.3264 15.6513 23.8536 14.9804 23.221 14.4917C22.6462 14.0476 21.9647 13.7907 21.1764 13.7207C21.042 13.7088 20.9353 13.5986 20.9353 13.4636V13.4636C20.9353 13.3247 21.048 13.2118 21.1869 13.2147C22.5672 13.2437 23.6819 13.5138 24.5309 14.0251C25.4305 14.5672 26.1577 15.3314 26.7097 16.3177C27.2618 17.304 27.5385 18.5792 27.5385 20.143C27.5385 22.098 27.0933 23.5862 26.2018 24.6082C25.3102 25.63 24.2636 26.1454 23.0606 26.1543C21.4209 26.1543 20.2536 25.2746 19.5585 23.5152Z" fill="black"/>
</svg>
