<svg width="52" height="52" viewBox="0 0 52 52" fill="none" xmlns="http://www.w3.org/2000/svg">
<path d="M17.2466 37.7041L31.6396 14.3133H34.1806L19.8049 37.7041H17.2466ZM13 19.7433C13 18.9427 13.145 18.1943 13.4351 17.4982C13.7252 16.802 14.1197 16.1987 14.6186 15.6882C15.1291 15.1661 15.7266 14.7542 16.4112 14.4525C17.0957 14.1508 17.8325 14 18.6215 14C19.3988 14 20.1298 14.1508 20.8144 14.4525C21.4989 14.7542 22.0964 15.1661 22.607 15.6882C23.1175 16.1987 23.5178 16.802 23.8078 17.4982C24.1095 18.1943 24.2603 18.9427 24.2603 19.7433C24.2603 20.5439 24.1095 21.298 23.8078 22.0058C23.5178 22.702 23.1175 23.3111 22.607 23.8332C22.0964 24.3553 21.4989 24.7672 20.8144 25.0689C20.1298 25.3706 19.3988 25.5214 18.6215 25.5214C17.8325 25.5214 17.0957 25.3706 16.4112 25.0689C15.7266 24.7672 15.1291 24.3553 14.6186 23.8332C14.1197 23.3111 13.7252 22.702 13.4351 22.0058C13.145 21.298 13 20.5439 13 19.7433ZM15.1407 19.7433C15.1407 20.2538 15.2277 20.7353 15.4017 21.1878C15.5874 21.6403 15.8368 22.0348 16.1501 22.3713C16.4634 22.7078 16.8289 22.9746 17.2466 23.1719C17.6759 23.3691 18.1342 23.4677 18.6215 23.4677C19.0972 23.4677 19.5497 23.3691 19.979 23.1719C20.4083 22.9746 20.7796 22.7078 21.0928 22.3713C21.4177 22.0348 21.673 21.6403 21.8586 21.1878C22.0442 20.7353 22.1371 20.2538 22.1371 19.7433C22.1371 19.2328 22.0442 18.7513 21.8586 18.2988C21.673 17.8463 21.4177 17.4518 21.0928 17.1153C20.7796 16.7788 20.4083 16.512 19.979 16.3147C19.5497 16.1175 19.0972 16.0189 18.6215 16.0189C18.1342 16.0189 17.6759 16.1175 17.2466 16.3147C16.8289 16.512 16.4634 16.7788 16.1501 17.1153C15.8368 17.4518 15.5874 17.8463 15.4017 18.2988C15.2277 18.7513 15.1407 19.2328 15.1407 19.7433ZM27.4452 32.2393C27.4452 31.4387 27.5903 30.6904 27.8803 29.9942C28.1704 29.2864 28.5649 28.6715 29.0638 28.1494C29.5743 27.6157 30.1661 27.198 30.839 26.8963C31.5236 26.5946 32.2603 26.4438 33.0493 26.4438C33.8267 26.4438 34.5576 26.5946 35.2422 26.8963C35.9268 27.198 36.5185 27.6157 37.0174 28.1494C37.5279 28.6715 37.9282 29.2864 38.2183 29.9942C38.5083 30.6904 38.6534 31.4387 38.6534 32.2393C38.6534 33.0399 38.5083 33.7941 38.2183 34.5018C37.9282 35.198 37.5279 35.8071 37.0174 36.3292C36.5185 36.8397 35.9268 37.2458 35.2422 37.5475C34.5576 37.8492 33.8267 38 33.0493 38C32.2603 38 31.5236 37.8492 30.839 37.5475C30.1661 37.2458 29.5743 36.8397 29.0638 36.3292C28.5649 35.8071 28.1704 35.198 27.8803 34.5018C27.5903 33.7941 27.4452 33.0399 27.4452 32.2393ZM29.5859 32.2393C29.5859 32.7498 29.673 33.2313 29.847 33.6838C30.0326 34.1247 30.2821 34.5134 30.5954 34.8499C30.9086 35.1864 31.2741 35.4532 31.6918 35.6505C32.1095 35.8477 32.562 35.9463 33.0493 35.9463C33.5366 35.9463 33.9891 35.8477 34.4068 35.6505C34.8361 35.4532 35.2074 35.1864 35.5207 34.8499C35.8455 34.5134 36.1008 34.1247 36.2864 33.6838C36.4721 33.2313 36.5649 32.7498 36.5649 32.2393C36.5649 31.7404 36.4721 31.2647 36.2864 30.8122C36.1008 30.3481 35.8455 29.9478 35.5207 29.6113C35.2074 29.2748 34.8361 29.008 34.4068 28.8107C33.9891 28.6019 33.5366 28.4975 33.0493 28.4975C32.562 28.4975 32.1095 28.6019 31.6918 28.8107C31.2741 29.008 30.9086 29.2748 30.5954 29.6113C30.2821 29.9478 30.0326 30.3481 29.847 30.8122C29.673 31.2647 29.5859 31.7404 29.5859 32.2393Z" fill="#454545"/>
</svg>
