<svg width="52" height="52" viewBox="0 0 52 52" fill="none" xmlns="http://www.w3.org/2000/svg">
<path d="M18 39.04V13H20.953V24.6106C20.953 25.9976 21.2997 27.0603 21.9932 27.7985C22.6868 28.5144 23.7046 28.8723 25.0469 28.8723C26.2773 28.8723 27.2505 28.6262 27.9663 28.1341C28.7046 27.6195 29.2415 26.8813 29.5771 25.9193C29.9126 24.935 30.0804 23.7493 30.0804 22.3623V13H33.0334V27.0267C33.0334 27.7202 33.1676 28.2124 33.4361 28.5032C33.7045 28.7717 34.0289 28.9059 34.4092 28.9059C34.5882 28.9059 34.7784 28.8835 34.9797 28.8388C35.181 28.794 35.3264 28.7605 35.4159 28.7381V30.8857C35.3041 30.9528 35.1475 31.0199 34.9461 31.0871C34.7448 31.1542 34.5211 31.2101 34.275 31.2548C34.0289 31.2996 33.7828 31.322 33.5368 31.322C32.709 31.322 32.0155 31.1206 31.4562 30.7179C30.9193 30.3153 30.5278 29.5994 30.2818 28.5703H30.0469C29.6665 29.152 29.2303 29.6553 28.7381 30.0804C28.2684 30.483 27.7091 30.7851 27.0603 30.9864C26.4339 31.2101 25.6957 31.322 24.8456 31.322C24.2639 31.322 23.727 31.2548 23.2348 31.1206C22.7651 31.0088 22.3288 30.841 21.9261 30.6173C21.5458 30.3712 21.2103 30.1027 20.9194 29.8119H20.7852C20.8299 30.0804 20.8635 30.4159 20.8859 30.8186C20.9082 31.1989 20.9194 31.6352 20.9194 32.1273C20.9418 32.6419 20.953 33.2011 20.953 33.8052V39.04H18Z" fill="#454545"/>
</svg>
