<svg width="53" height="53" viewBox="0 0 53 53" fill="none" xmlns="http://www.w3.org/2000/svg">
<rect width="53" height="53" rx="4" fill="#D0F0FD"/>
<path d="M34.0149 12.3362C34.1452 12.1082 34.2146 11.9706 34.251 11.8751C34.2909 11.7703 34.2919 11.7131 34.2919 11.6547C34.2919 11.5108 34.2326 11.3201 34.1096 11.164C33.9832 11.0037 33.7853 10.875 33.5122 10.875C33.29 10.875 33.1316 10.9326 33.0007 11.0689C32.885 11.1891 32.7958 11.3676 32.6886 11.5823L32.6809 11.5975L32.6803 11.5988L17.985 40.1712C17.8548 40.3991 17.7853 40.5368 17.7489 40.6322C17.709 40.737 17.708 40.7943 17.708 40.8527C17.708 41.0157 17.7774 41.2074 17.9052 41.3589C18.0356 41.5134 18.2325 41.6324 18.4877 41.6324C18.7099 41.6324 18.8683 41.5748 18.9993 41.4385C19.1149 41.3183 19.2041 41.1398 19.3113 40.9251L19.319 40.9099L19.3196 40.9086L34.0149 12.3362Z" fill="#111928" stroke="#111928" stroke-width="0.25"/>
<path d="M34.8543 18.1951L34.8689 18.1951C35.1362 18.1952 35.4416 18.1952 35.68 18.1053C35.8056 18.0578 35.9201 17.9831 36.0019 17.8652C36.0837 17.7474 36.125 17.598 36.125 17.4154C36.125 17.2329 36.0837 17.0835 36.0019 16.9656C35.9201 16.8478 35.8056 16.7731 35.68 16.7256C35.4416 16.6357 35.1362 16.6357 34.8689 16.6357L34.8543 16.6357H26.0491C20.389 16.6357 15.875 20.9409 15.875 26.2534C15.875 31.566 20.389 35.871 26.0491 35.871H34.8543H34.8689C35.1362 35.8711 35.4416 35.8711 35.68 35.7812C35.8056 35.7338 35.92 35.6591 36.0019 35.5412C36.0837 35.4234 36.125 35.274 36.125 35.0914C36.125 34.9089 36.0837 34.7595 36.0019 34.6416C35.9201 34.5238 35.8056 34.4491 35.68 34.4016C35.4416 34.3117 35.1362 34.3117 34.8689 34.3117H34.8543H26.1146C21.0721 34.3117 17.4343 30.5656 17.4343 26.2534C17.4343 21.9412 21.0721 18.1951 26.1146 18.1951H34.8543Z" fill="#111928" stroke="#111928" stroke-width="0.25"/>
</svg>
