<svg width="53" height="53" viewBox="0 0 53 53" fill="none" xmlns="http://www.w3.org/2000/svg">
<rect width="53" height="53" rx="4" fill="#D0F0FD"/>
<path d="M34.0149 12.3362C34.1452 12.1082 34.2146 11.9706 34.251 11.8751C34.2909 11.7703 34.2919 11.7131 34.2919 11.6547C34.2919 11.5108 34.2326 11.3201 34.1096 11.164C33.9832 11.0037 33.7853 10.875 33.5122 10.875C33.29 10.875 33.1316 10.9326 33.0007 11.0689C32.885 11.1891 32.7958 11.3676 32.6886 11.5823L32.6809 11.5975L32.6803 11.5988L17.985 40.1712C17.8548 40.3991 17.7853 40.5368 17.7489 40.6322C17.709 40.737 17.708 40.7943 17.708 40.8527C17.708 41.0157 17.7774 41.2074 17.9052 41.3589C18.0356 41.5134 18.2325 41.6324 18.4877 41.6324C18.71 41.6324 18.8683 41.5748 18.9992 41.4385C19.1148 41.3184 19.2039 41.14 19.3111 40.9256L19.319 40.9099L19.3196 40.9086L34.0149 12.3362Z" fill="#111928" stroke="#111928" stroke-width="0.25"/>
<path d="M25.8854 18.195C30.9279 18.195 34.5657 21.9412 34.5657 26.2533C34.5657 30.5656 30.9279 34.3116 25.8854 34.3116H17.1457H17.1311C16.8638 34.3116 16.5584 34.3116 16.32 34.4015C16.1944 34.4489 16.0799 34.5237 15.9981 34.6415C15.9163 34.7594 15.875 34.9088 15.875 35.0913C15.875 35.2739 15.9163 35.4233 15.9981 35.5411C16.0799 35.659 16.1944 35.7337 16.32 35.7812C16.5584 35.8711 16.8638 35.8711 17.1311 35.871H17.1457H25.9509C31.611 35.871 36.125 31.5659 36.125 26.2533C36.125 20.9408 31.611 16.6357 25.9509 16.6357H17.1457C17.1408 16.6357 17.136 16.6357 17.1311 16.6357C16.8638 16.6357 16.5584 16.6357 16.32 16.7256C16.1944 16.7731 16.0799 16.8478 15.9981 16.9656C15.9163 17.0835 15.875 17.2329 15.875 17.4154C15.875 17.598 15.9163 17.7474 15.9981 17.8652C16.08 17.9831 16.1944 18.0578 16.32 18.1052C16.5584 18.1951 16.8638 18.1951 17.1311 18.195C17.136 18.195 17.1408 18.195 17.1457 18.195H25.8854Z" fill="#111928" stroke="#111928" stroke-width="0.25"/>
</svg>
