<svg width="52" height="52" viewBox="0 0 52 52" fill="none" xmlns="http://www.w3.org/2000/svg">
<path d="M23.6 36.44L16 15H19.64L23.52 26.56C23.7333 27.2 24 27.96 24.32 28.84C24.64 29.72 24.9333 30.5867 25.2 31.44C25.4933 32.2667 25.7067 32.9467 25.84 33.48H26C27.52 31.8 28.7067 30.04 29.56 28.2C30.44 26.3333 31.0533 24.32 31.4 22.16C31.7733 19.9733 31.96 17.5867 31.96 15H35.44C35.44 17.8 35.2 20.4133 34.72 22.84C34.24 25.24 33.4133 27.56 32.24 29.8C31.0933 32.0133 29.48 34.2267 27.4 36.44H23.6Z" fill="#454545"/>
</svg>
