<svg width="52" height="52" viewBox="0 0 52 52" fill="none" xmlns="http://www.w3.org/2000/svg">
<path d="M37.64 40.56H33.44L18.16 16.84H18C18.0267 17.32 18.0533 17.8533 18.08 18.44C18.1333 19.0267 18.1733 19.6667 18.2 20.36C18.2267 21.0267 18.2533 21.72 18.28 22.44C18.3067 23.16 18.32 23.88 18.32 24.6V40.56H15V12H19.16L34.4 35.64H34.56C34.5333 35.32 34.5067 34.88 34.48 34.32C34.4533 33.7333 34.4267 33.0933 34.4 32.4C34.3733 31.68 34.3467 30.9467 34.32 30.2C34.2933 29.4533 34.28 28.76 34.28 28.12V12H37.64V40.56Z" fill="#454545"/>
</svg>
