<svg width="52" height="52" viewBox="0 0 52 52" fill="none" xmlns="http://www.w3.org/2000/svg">
<rect width="52" height="52" rx="4" fill="#D0F0FD"/>
<path fill-rule="evenodd" clip-rule="evenodd" d="M17.4209 15.8751C17.4209 15.7133 17.3762 15.5547 17.2917 15.4169C17.2072 15.2791 17.0863 15.1674 16.9424 15.0943C16.7984 15.0213 16.6371 14.9897 16.4763 15.003C16.3155 15.0163 16.1615 15.074 16.0315 15.1698L14.7922 16.0868C14.6183 16.2155 14.4982 16.4044 14.4553 16.6169C14.4123 16.8293 14.4495 17.0501 14.5597 17.2366C14.6699 17.4231 14.8452 17.562 15.0516 17.6263C15.2581 17.6906 15.481 17.6758 15.6772 17.5848V20.25C15.6772 20.4821 15.7691 20.7047 15.9328 20.8688C16.0965 21.0329 16.3184 21.125 16.5499 21.125C16.7814 21.125 17.0034 21.0329 17.167 20.8688C17.3307 20.7047 17.4226 20.4821 17.4226 20.25L17.4209 15.8751ZM21.8544 16.7501C21.5072 16.7501 21.1742 16.8883 20.9287 17.1345C20.6832 17.3806 20.5453 17.7145 20.5453 18.0625C20.5453 18.4106 20.6832 18.7445 20.9287 18.9906C21.1742 19.2368 21.5072 19.375 21.8544 19.375H36.6909C37.0381 19.375 37.3711 19.2368 37.6166 18.9906C37.8621 18.7445 38 18.4106 38 18.0625C38 17.7145 37.8621 17.3806 37.6166 17.1345C37.3711 16.8883 37.0381 16.7501 36.6909 16.7501H21.8544ZM21.8544 31.625C21.5072 31.625 21.1742 31.7633 20.9287 32.0094C20.6832 32.2556 20.5453 32.5894 20.5453 32.9375C20.5453 33.2856 20.6832 33.6194 20.9287 33.8656C21.1742 34.1117 21.5072 34.25 21.8544 34.25H36.6909C37.0381 34.25 37.3711 34.1117 37.6166 33.8656C37.8621 33.6194 38 33.2856 38 32.9375C38 32.5894 37.8621 32.2556 37.6166 32.0094C37.3711 31.7633 37.0381 31.625 36.6909 31.625H21.8544ZM20.5453 25.5C20.5453 25.1519 20.6832 24.8181 20.9287 24.572C21.1742 24.3258 21.5072 24.1875 21.8544 24.1875H36.6909C37.0381 24.1875 37.3711 24.3258 37.6166 24.572C37.8621 24.8181 38 25.1519 38 25.5C38 25.8481 37.8621 26.182 37.6166 26.4281C37.3711 26.6742 37.0381 26.8125 36.6909 26.8125H21.8544C21.5072 26.8125 21.1742 26.6742 20.9287 26.4281C20.6832 26.182 20.5453 25.8481 20.5453 25.5ZM16.0141 24.3275C15.8919 24.4168 15.8622 24.4973 15.857 24.5305C15.8143 24.7524 15.6878 24.949 15.5038 25.0794C15.3198 25.2098 15.0926 25.2639 14.8698 25.2302C14.647 25.1965 14.4459 25.0777 14.3084 24.8987C14.171 24.7197 14.1079 24.4943 14.1324 24.2698C14.2215 23.666 14.5863 23.2023 14.9964 22.9065C15.4084 22.6108 15.9233 22.4375 16.4452 22.4375C17.0474 22.4375 17.6077 22.6283 18.0196 23.0378C18.4315 23.4473 18.6078 23.988 18.6078 24.5253C18.6078 25.4178 18.0475 26.0215 17.2813 26.7618L17.2464 26.7933L17.2237 26.8125H18.0842C18.3156 26.8125 18.5376 26.9047 18.7013 27.0688C18.865 27.2329 18.9569 27.4555 18.9569 27.6875C18.9569 27.9196 18.865 28.1421 18.7013 28.3062C18.5376 28.4703 18.3156 28.5625 18.0842 28.5625H14.8725C14.6944 28.5625 14.5205 28.5078 14.3742 28.4057C14.228 28.3037 14.1164 28.1593 14.0545 27.9918C13.9925 27.8243 13.9832 27.6418 14.0277 27.4689C14.0722 27.2959 14.1684 27.1408 14.3035 27.0243L16.0874 25.4843C16.4766 25.1063 16.6773 24.8823 16.7821 24.7248C16.8624 24.604 16.8624 24.5638 16.8624 24.5305V24.527C16.8624 24.3695 16.8152 24.3048 16.7908 24.2803C16.7681 24.2575 16.6826 24.1875 16.4434 24.1875C16.2896 24.19 16.14 24.2388 16.0141 24.3275ZM15.1343 29.875C14.9029 29.875 14.6809 29.9672 14.5172 30.1313C14.3535 30.2954 14.2616 30.518 14.2616 30.75C14.2616 30.9821 14.3535 31.2046 14.5172 31.3687C14.6809 31.5328 14.9029 31.625 15.1343 31.625H15.7976L15.5358 31.94C15.4298 32.0676 15.3621 32.2229 15.3409 32.3876C15.3196 32.5524 15.3455 32.7198 15.4156 32.8703C15.4858 33.0208 15.5972 33.1482 15.7368 33.2376C15.8765 33.3269 16.0386 33.3746 16.2043 33.375C16.6564 33.375 16.8414 33.5098 16.9147 33.5885C17.0037 33.683 17.0544 33.8213 17.0544 33.97C17.0552 33.9788 17.0527 33.9875 17.0474 33.9945C17.0204 34.031 16.9866 34.0619 16.9479 34.0855C16.7515 34.1996 16.5272 34.2565 16.3003 34.25C16.1443 34.2539 15.9898 34.2197 15.85 34.1503C15.747 34.0943 15.7191 34.0435 15.7173 34.0383C15.621 33.8271 15.445 33.6629 15.228 33.5818C15.011 33.5008 14.7707 33.5095 14.5601 33.606C14.3494 33.7025 14.1857 33.879 14.1048 34.0966C14.024 34.3142 14.0327 34.5551 14.1289 34.7663C14.5007 35.5783 15.3996 36 16.3003 36C16.8571 36 17.4366 35.8565 17.9061 35.5485C18.3861 35.2318 18.7998 34.6963 18.7998 33.97C18.7998 33.4573 18.6323 32.8605 18.1802 32.3845C18.0492 32.2463 17.9014 32.1252 17.7403 32.024L18.3338 31.3118C18.4404 31.1842 18.5084 31.0287 18.53 30.8637C18.5516 30.6987 18.5257 30.5309 18.4556 30.3801C18.3854 30.2293 18.2738 30.1016 18.1338 30.0122C17.9938 29.9227 17.8313 29.8751 17.6653 29.875H15.1343Z" fill="black"/>
</svg>
