<svg width="53" height="53" viewBox="0 0 53 53" fill="none" xmlns="http://www.w3.org/2000/svg">
<g filter="url(#filter0_d_531_2744)">
<rect width="52" height="52" fill="white"/>
<path d="M14 32.4586H14.6569C14.7043 33.2966 14.9529 33.8808 15.4026 34.2113C15.8523 34.5419 16.5685 34.7071 17.5509 34.7071H22.3979L22.3624 33.5209C20.4804 33.1433 18.7641 32.0987 17.2136 30.3873C15.6631 28.6758 14.8877 26.5159 14.8877 23.9076C14.8877 21.016 15.9649 18.5486 18.1191 16.5073C20.2732 14.4661 23.0962 13.4445 26.588 13.4445C29.9613 13.4445 32.7186 14.4059 34.8616 16.3303C37.0046 18.2547 38.0752 20.7267 38.0752 23.7483C38.0752 26.1914 37.4129 28.2628 36.0866 29.9624C34.7604 31.662 32.9565 32.8481 30.6715 33.5209L30.494 34.7071H35.4297C36.5536 34.7071 37.294 34.4946 37.649 34.0697C38.0041 33.6448 38.1994 33.1079 38.2349 32.4586H38.8919V38H28.9493L29.4109 32.6534C32.4647 31.6974 33.9916 28.8824 33.9916 24.2086C33.9916 21.1516 33.2459 18.8089 31.7545 17.1801C30.2632 15.5513 28.5055 14.7369 26.4814 14.7369C24.339 14.7369 22.5696 15.5991 21.1728 17.3217C19.7761 19.0443 19.0719 21.2578 19.06 23.9607C19.06 25.9082 19.3738 27.6786 20.001 29.2719C20.6283 30.8653 21.8298 31.9925 23.6052 32.6534L23.9425 38H14V32.4586Z" fill="black"/>
</g>
<defs>
<filter id="filter0_d_531_2744" x="0" y="0" width="53" height="53" filterUnits="userSpaceOnUse" color-interpolation-filters="sRGB">
<feFlood flood-opacity="0" result="BackgroundImageFix"/>
<feColorMatrix in="SourceAlpha" type="matrix" values="0 0 0 0 0 0 0 0 0 0 0 0 0 0 0 0 0 0 127 0" result="hardAlpha"/>
<feOffset dx="1" dy="1"/>
<feColorMatrix type="matrix" values="0 0 0 0 0 0 0 0 0 0 0 0 0 0 0 0 0 0 0.25 0"/>
<feBlend mode="normal" in2="BackgroundImageFix" result="effect1_dropShadow_531_2744"/>
<feBlend mode="normal" in="SourceGraphic" in2="effect1_dropShadow_531_2744" result="shape"/>
</filter>
</defs>
</svg>
