<svg width="53" height="53" viewBox="0 0 53 53" fill="none" xmlns="http://www.w3.org/2000/svg">
<g filter="url(#filter0_d)">
<rect width="52" height="52" fill="none"/>
<path d="M22.9411 33.607C22.9411 34.089 22.7804 34.4908 22.459 34.8121C22.1376 35.1335 21.746 35.2942 21.284 35.2942H21.0731C21.997 36.881 23.2223 37.6743 24.7488 37.6743C26.1548 37.6743 27.1791 37.0718 27.8219 35.8666C28.2035 35.2038 28.3943 33.9183 28.3943 32.0102C28.3943 29.9413 28.1232 28.5454 27.5809 27.8223C27.0586 27.1595 26.4761 26.8281 25.8334 26.8281H25.6526C24.0859 26.8281 22.9009 27.511 22.0975 28.8768C22.0171 29.0174 21.9468 29.0977 21.8866 29.1178C21.8263 29.1379 21.6757 29.158 21.4346 29.1781C21.0932 29.1781 20.9024 29.1178 20.8622 28.9973C20.822 28.917 20.8019 27.1595 20.8019 23.7248V19.8382C20.8019 18.834 20.8522 18.3318 20.9526 18.3318C20.9928 18.2916 21.0329 18.2716 21.0731 18.2716C21.0932 18.2716 21.3041 18.3519 21.7058 18.5126C22.1075 18.6733 22.6599 18.834 23.3629 18.9946C24.0659 19.1553 24.8191 19.2357 25.6225 19.2357C27.0486 19.2357 28.4144 18.9545 29.72 18.3921C29.8807 18.3117 30.0112 18.2716 30.1117 18.2716C30.2723 18.2716 30.3527 18.4523 30.3527 18.8139V19.2055C28.7057 21.1539 26.6469 22.128 24.1763 22.128C23.5537 22.128 22.9913 22.0677 22.4891 21.9472L22.1879 21.887V27.0691C22.5695 26.7879 22.8708 26.5669 23.0917 26.4063C23.3127 26.2456 23.6742 26.0849 24.1763 25.9242C24.6785 25.7635 25.1907 25.6832 25.7129 25.6832C27.3398 25.6832 28.7157 26.336 29.8405 27.6415C30.9653 28.9471 31.5277 30.4937 31.5277 32.2813C31.5277 34.1292 30.885 35.7059 29.5995 37.0115C28.314 38.3171 26.7473 38.9799 24.8994 39C23.2725 39 21.9669 38.4577 20.9827 37.3731C19.9985 36.2884 19.5064 35.0632 19.5064 33.6974C19.5064 33.2153 19.6169 32.8337 19.8378 32.5525C20.0588 32.2713 20.2898 32.0905 20.5308 32.0102C20.7718 31.9298 21.0028 31.8897 21.2237 31.8897C21.7259 31.8897 22.1376 32.0604 22.459 32.4018C22.7804 32.7433 22.9411 33.145 22.9411 33.607Z" fill="black"/>
<g clip-path="url(#clip0)">
<path d="M17.3514 16.1099V15.13H33.6611V16.1099H17.3514Z" fill="black"/>
</g>
<rect x="18" y="18" width="15" height="21" fill="#C4C4C4"/>
</g>
<defs>
<filter id="filter0_d" x="0" y="0" width="53" height="53" filterUnits="userSpaceOnUse" color-interpolation-filters="sRGB">
<feFlood flood-opacity="0" result="BackgroundImageFix"/>
<feColorMatrix in="SourceAlpha" type="matrix" values="0 0 0 0 0 0 0 0 0 0 0 0 0 0 0 0 0 0 127 0" result="hardAlpha"/>
<feOffset dx="1" dy="1"/>
<feColorMatrix type="matrix" values="0 0 0 0 0 0 0 0 0 0 0 0 0 0 0 0 0 0 0.25 0"/>
<feBlend mode="normal" in2="BackgroundImageFix" result="effect1_dropShadow"/>
<feBlend mode="normal" in="SourceGraphic" in2="effect1_dropShadow" result="shape"/>
</filter>
<clipPath id="clip0">
<rect width="15.0619" height="5.24002" fill="none" transform="matrix(1 0 0 -1 18 18.24)"/>
</clipPath>
</defs>
</svg>
