<svg width="52" height="52" viewBox="0 0 52 52" fill="none" xmlns="http://www.w3.org/2000/svg">
<g clip-path="url(#clip0_319_6634)">
<path d="M52 0H0V52H52V0Z" fill="#D0F0FD"/>
<path d="M12.2338 36.0252C12.2338 36.4168 12.6091 36.6452 13.3596 36.7105C13.6533 36.7105 13.8001 36.8002 13.8001 36.9797C13.8001 36.996 13.7838 37.102 13.7512 37.2978C13.7022 37.5262 13.6533 37.6731 13.6043 37.7383C13.5554 37.8036 13.4493 37.8362 13.2862 37.8362C13.2535 37.8362 13.1557 37.8362 12.9925 37.8362C12.8293 37.8362 12.552 37.8281 12.1604 37.8118C11.7688 37.7954 11.2468 37.7873 10.5941 37.7873C9.43575 37.7873 8.6934 37.8036 8.3671 37.8362H8.17131C8.0571 37.722 8 37.6323 8 37.567C8.03263 37.1265 8.13868 36.841 8.31815 36.7105H8.66077C9.80285 36.6615 10.6349 36.2536 11.157 35.4868C11.2549 35.3889 12.7315 32.9008 15.5866 28.0225C18.4418 23.1443 19.8939 20.6725 19.9428 20.6072C20.057 20.4114 20.2528 20.3135 20.5302 20.3135H20.726H21.142C21.2399 20.4604 21.2889 20.542 21.2889 20.5583L21.9741 28.4631C22.4309 33.7329 22.6757 36.3923 22.7083 36.4413C22.7899 36.6207 23.3201 36.7105 24.299 36.7105C24.7069 36.7105 24.9109 36.792 24.9109 36.9552C24.9109 36.9878 24.8864 37.102 24.8374 37.2978C24.7885 37.5425 24.7477 37.6894 24.7151 37.7383C24.6824 37.7873 24.5682 37.8199 24.3725 37.8362C24.3235 37.8362 24.2093 37.8362 24.0298 37.8362C23.8504 37.8362 23.5322 37.8281 23.0754 37.8118C22.6186 37.7954 22.023 37.7873 21.2889 37.7873C19.7552 37.7873 18.7518 37.8036 18.2787 37.8362H17.985C17.8871 37.7383 17.8382 37.6649 17.8382 37.616C17.8382 37.567 17.8545 37.4202 17.8871 37.1755C17.9524 36.9634 18.0013 36.8328 18.0339 36.7839L18.1318 36.7105H18.6213C19.5023 36.6615 20.0244 36.5228 20.1876 36.2944L19.8939 32.6235H14.0693L13.2372 34.0429C12.5683 35.1687 12.2338 35.8294 12.2338 36.0252ZM19.7715 31.4732C19.7715 31.2938 19.6736 30.0212 19.4778 27.6554C19.2821 25.2897 19.1679 24.0987 19.1352 24.0824L18.4745 25.1347C18.2134 25.5752 17.6995 26.4481 16.9327 27.7533L14.7301 31.4732L17.2508 31.4977C18.9313 31.4977 19.7715 31.4896 19.7715 31.4732Z" fill="black"/>
<path d="M31.1522 22.2469C30.7117 22.2469 30.4507 22.2387 30.3691 22.2224C30.2875 22.2061 30.2467 22.1164 30.2467 21.9532C30.2467 21.5127 30.3364 21.2435 30.5159 21.1456C30.5322 21.1293 31.5927 21.1211 33.6974 21.1211C37.9231 21.1211 40.1501 21.1375 40.3785 21.1701C41.4064 21.3332 42.263 21.7003 42.9482 22.2714C43.6335 22.8424 43.9842 23.5929 44.0006 24.5229C44.0006 25.5671 43.5274 26.5052 42.5811 27.3373C41.6348 28.1694 40.5499 28.7323 39.3262 29.0259L39.0815 29.0994C40.1257 29.2462 40.9822 29.6214 41.6511 30.2251C42.3201 30.8288 42.6627 31.5793 42.679 32.4766C42.679 33.6677 42.0917 34.8179 40.917 35.9273C39.7422 37.0368 38.2983 37.6649 36.5852 37.8118C36.471 37.8281 34.7498 37.8362 31.4214 37.8362C28.1583 37.8362 26.5023 37.8199 26.4534 37.7873C26.3881 37.7383 26.3555 37.6731 26.3555 37.5915C26.3555 37.4773 26.3718 37.3631 26.4044 37.2489C26.486 36.9389 26.5676 36.7676 26.6492 36.7349C26.7144 36.7186 26.8368 36.7105 27.0163 36.7105H27.1631C27.6036 36.7105 28.0931 36.686 28.6315 36.637C28.8599 36.5881 29.0149 36.4902 29.0965 36.3434C29.1454 36.2781 29.7328 34.0103 30.8585 29.5399C31.9843 25.0695 32.5472 22.7119 32.5472 22.4672C32.5472 22.353 32.0822 22.2795 31.1522 22.2469ZM41.3819 24.5229C41.3819 24.0334 41.2596 23.5766 41.0148 23.1524C40.7701 22.7282 40.3704 22.4508 39.8157 22.3203C39.7015 22.2877 38.951 22.2632 37.5641 22.2469C37.2378 22.2469 36.8952 22.2469 36.5363 22.2469C36.1773 22.2469 35.8918 22.2551 35.6797 22.2714H35.3616C35.1168 22.2877 34.9619 22.3693 34.8966 22.5161C34.864 22.5814 34.6029 23.5603 34.1135 25.4529C34.1135 25.5018 34.1053 25.5508 34.089 25.5997L33.3303 28.6833H35.3126C36.6342 28.6833 37.3928 28.667 37.5886 28.6344C38.5675 28.4712 39.4404 27.9981 40.2072 27.2149C40.9741 26.4318 41.3656 25.5344 41.3819 24.5229ZM40.0604 32.2319C40.0604 31.514 39.8728 30.9185 39.4975 30.4454C39.1223 29.9722 38.6328 29.6949 38.0291 29.6133C37.9312 29.597 37.2542 29.5888 35.9979 29.5888C34.0727 29.5888 33.1019 29.597 33.0856 29.6133C33.0856 29.6459 32.9469 30.2414 32.6695 31.3998C32.3922 32.5582 32.1067 33.7084 31.813 34.8505L31.3725 36.5636C31.3725 36.6289 31.4704 36.6615 31.6661 36.6615C31.8619 36.6615 32.5227 36.6778 33.6485 36.7105C35.1005 36.7105 35.8837 36.7023 35.9979 36.686C37.0094 36.5718 37.9394 36.0986 38.7878 35.2666C39.6362 34.4345 40.0604 33.4229 40.0604 32.2319Z" fill="black"/>
<path d="M15.4797 9.55172C15.5243 9.29885 15.5689 9.14368 15.6135 9.08621C15.6581 9.02874 15.7529 9 15.8979 9C16.1209 9 16.2325 9.06322 16.2325 9.18966C16.2325 9.27012 16.2046 9.41379 16.1488 9.62069C16.0373 10.046 15.8979 10.4425 15.7306 10.8103C15.5633 11.1782 15.3849 11.4885 15.1953 11.7414C15.0057 11.9943 14.8328 12.2069 14.6767 12.3793C14.5205 12.5517 14.3532 12.7126 14.1748 12.8621C13.9963 13.0115 13.8848 13.1092 13.8402 13.1552H38.1765C36.9943 12.2471 36.2192 11.069 35.8512 9.62069C35.7954 9.41379 35.7675 9.27012 35.7675 9.18966C35.7675 9.06322 35.8791 9 36.1021 9C36.2025 9 36.2694 9.00575 36.3029 9.01724C36.3363 9.02874 36.3698 9.05172 36.4032 9.08621C36.4367 9.12069 36.4534 9.17241 36.4534 9.24138C36.4534 9.31035 36.4702 9.4023 36.5036 9.51724C36.5371 9.63218 36.5817 9.77586 36.6374 9.94828C36.8828 10.7184 37.2899 11.408 37.8587 12.0172C38.4275 12.6264 39.091 13.0575 39.8494 13.3103C39.9498 13.3448 40 13.408 40 13.5C40 13.569 39.9721 13.6207 39.9164 13.6552C39.8606 13.6897 39.7268 13.7471 39.5149 13.8276C39.303 13.908 39.0911 14.0172 38.8791 14.1552C38.4219 14.454 38.026 14.7989 37.6914 15.1897C37.3568 15.5805 37.1059 15.9655 36.9386 16.3448C36.7713 16.7241 36.6542 17.0115 36.5873 17.2069C36.5203 17.4023 36.4757 17.5805 36.4534 17.7414C36.4311 17.8563 36.4032 17.9253 36.3698 17.9483C36.3363 17.9713 36.2471 17.9885 36.1021 18C35.8791 18 35.7675 17.9368 35.7675 17.8103C35.7675 17.7299 35.7954 17.5862 35.8512 17.3793C36.2081 15.931 36.9832 14.7529 38.1765 13.8448H13.8402C13.8625 13.8678 13.9573 13.9483 14.1246 14.0862C14.2919 14.2241 14.4536 14.3793 14.6097 14.5517C14.7659 14.7241 14.9499 14.9368 15.1618 15.1897C15.3737 15.4425 15.5577 15.7644 15.7139 16.1552C15.87 16.546 16.015 16.954 16.1488 17.3793C16.2046 17.5862 16.2325 17.7299 16.2325 17.8103C16.2325 17.9368 16.1209 18 15.8979 18C15.8198 18 15.7641 18 15.7306 18C15.6971 18 15.6637 17.977 15.6302 17.931C15.5968 17.8851 15.5689 17.8333 15.5466 17.7759C15.5243 17.7184 15.502 17.6092 15.4797 17.4483C15.2789 16.6092 14.8997 15.8621 14.3421 15.2069C13.7844 14.5517 13.1041 14.0632 12.3011 13.7414C12.1338 13.6724 12.0335 13.6092 12 13.5517C12 13.4713 12.0223 13.4138 12.0669 13.3793C12.1115 13.3448 12.1896 13.3046 12.3011 13.2586C13.093 12.9368 13.7677 12.4483 14.3254 11.7931C14.883 11.1379 15.2678 10.3908 15.4797 9.55172Z" fill="black"/>
</g>
<defs>
<clipPath id="clip0_319_6634">
<rect width="52" height="52" rx="4" fill="white"/>
</clipPath>
</defs>
</svg>
