<svg width="52" height="52" viewBox="0 0 52 52" fill="none" xmlns="http://www.w3.org/2000/svg">
<path d="M24.04 40.56V36.96C21.4 36.9067 19.2267 36.5333 17.52 35.84C15.84 35.1467 14.52 34.2533 13.56 33.16C12.6267 32.04 11.96 30.84 11.56 29.56C11.1867 28.2533 11 26.9867 11 25.76C11 24.3467 11.2133 22.9867 11.64 21.68C12.0667 20.3733 12.7733 19.2133 13.76 18.2C14.7467 17.16 16.08 16.3333 17.76 15.72C19.44 15.08 21.5333 14.7467 24.04 14.72V12H27.6V14.72C30.1333 14.7467 32.24 15.0667 33.92 15.68C35.6 16.2933 36.92 17.1067 37.88 18.12C38.8667 19.1333 39.5733 20.3067 40 21.64C40.4267 22.9467 40.64 24.32 40.64 25.76C40.64 27.04 40.44 28.3333 40.04 29.64C39.64 30.9467 38.9467 32.1467 37.96 33.24C37 34.3067 35.6667 35.1867 33.96 35.88C32.28 36.5467 30.16 36.9067 27.6 36.96V40.56H24.04ZM24.04 34V17.76C21.64 17.8133 19.7467 18.2 18.36 18.92C17 19.6133 16.04 20.5467 15.48 21.72C14.92 22.8933 14.64 24.2267 14.64 25.72C14.64 27.2933 14.9467 28.6933 15.56 29.92C16.2 31.1467 17.2 32.12 18.56 32.84C19.9467 33.5333 21.7733 33.92 24.04 34ZM27.6 34C29.92 33.92 31.76 33.52 33.12 32.8C34.5067 32.0533 35.4933 31.0667 36.08 29.84C36.6933 28.6133 37 27.24 37 25.72C37 24.2 36.72 22.8533 36.16 21.68C35.6 20.5067 34.64 19.5733 33.28 18.88C31.92 18.1867 30.0267 17.8133 27.6 17.76V34Z" fill="#454545"/>
</svg>
