<svg width="52" height="52" viewBox="0 0 52 52" fill="none" xmlns="http://www.w3.org/2000/svg">
<path d="M24.6 46V36.72C22.4933 36.5333 20.64 35.9867 19.04 35.08C17.44 34.1467 16.2 32.8933 15.32 31.32C14.44 29.72 14 27.84 14 25.68C14 23.4933 14.4133 21.6133 15.24 20.04C16.0667 18.44 17.2667 17.1867 18.84 16.28C20.44 15.3467 22.36 14.8 24.6 14.64V6H28.04V14.64C30.1733 14.8267 32.0267 15.3867 33.6 16.32C35.2 17.2533 36.44 18.5067 37.32 20.08C38.2 21.6533 38.64 23.52 38.64 25.68C38.64 27.84 38.2133 29.72 37.36 31.32C36.5067 32.8933 35.2933 34.1467 33.72 35.08C32.1467 35.9867 30.2533 36.5333 28.04 36.72V46H24.6ZM24.6 33.92V17.48C22.9733 17.64 21.64 18.0533 20.6 18.72C19.5867 19.3867 18.84 20.3067 18.36 21.48C17.9067 22.6267 17.68 24.0267 17.68 25.68C17.68 27.3067 17.92 28.7067 18.4 29.88C18.88 31.0533 19.6267 31.9867 20.64 32.68C21.6533 33.3467 22.9733 33.76 24.6 33.92ZM28.04 33.92C29.64 33.7333 30.9467 33.3067 31.96 32.64C33 31.9467 33.76 31.0267 34.24 29.88C34.7467 28.7067 35 27.3067 35 25.68C35 23.2267 34.4267 21.32 33.28 19.96C32.16 18.6 30.4133 17.7867 28.04 17.52V33.92Z" fill="#454545"/>
</svg>
