<svg width="53" height="53" viewBox="0 0 53 53" fill="none" xmlns="http://www.w3.org/2000/svg">
<g filter="url(#filter0_d_531_2750)">
<rect width="52" height="52" fill="none"/>
<path d="M27.7242 34.6185C27.8782 36.4362 29.0145 37.345 31.1331 37.345V38H20.9065V37.345C23.0252 37.345 24.1614 36.4362 24.3154 34.6185C21.1906 34.6185 18.6931 33.7806 16.823 32.1046C14.9529 30.4285 14.0119 28.3926 14 25.9967C14 23.4354 14.9529 21.3936 16.8585 19.8711C18.7641 18.3485 21.2497 17.5164 24.3154 17.3748C24.1733 15.5566 23.037 14.6484 20.9065 14.6484V13.9933H31.1331V14.6484C29.0145 14.6484 27.8782 15.5566 27.7242 17.3748C31.11 17.481 33.672 18.3662 35.4119 20.0304C37.1519 21.6946 38.0272 23.6833 38.0396 25.9967C38.0396 28.3926 37.104 30.4285 35.2344 32.1046C33.3649 33.7806 30.8615 34.6185 27.7242 34.6185ZM24.3154 18.3485C22.2914 18.4672 20.7053 19.0921 19.5572 20.2252C18.409 21.3582 17.835 23.3823 17.835 26.2976C17.835 30.948 19.9952 33.397 24.3154 33.6448V18.3485ZM27.7242 18.3485V33.6448C29.6772 33.5621 31.245 32.9602 32.4292 31.839C33.6134 30.7178 34.21 28.6758 34.2224 25.7134C34.2224 21.0514 32.0563 18.5964 27.7242 18.3485Z" fill="black"/>
</g>
<defs>
<filter id="filter0_d_531_2750" x="0" y="0" width="53" height="53" filterUnits="userSpaceOnUse" color-interpolation-filters="sRGB">
<feFlood flood-opacity="0" result="BackgroundImageFix"/>
<feColorMatrix in="SourceAlpha" type="matrix" values="0 0 0 0 0 0 0 0 0 0 0 0 0 0 0 0 0 0 127 0" result="hardAlpha"/>
<feOffset dx="1" dy="1"/>
<feColorMatrix type="matrix" values="0 0 0 0 0 0 0 0 0 0 0 0 0 0 0 0 0 0 0.25 0"/>
<feBlend mode="normal" in2="BackgroundImageFix" result="effect1_dropShadow_531_2750"/>
<feBlend mode="normal" in="SourceGraphic" in2="effect1_dropShadow_531_2750" result="shape"/>
</filter>
</defs>
</svg>
