<svg width="52" height="52" viewBox="0 0 52 52" fill="none" xmlns="http://www.w3.org/2000/svg">
<path d="M19.56 12C23.2933 12 26.0133 12.7333 27.72 14.2C29.4267 15.6667 30.28 17.7333 30.28 20.4C30.28 21.5733 30.08 22.7067 29.68 23.8C29.3067 24.8667 28.68 25.8267 27.8 26.68C26.92 27.5333 25.7467 28.2133 24.28 28.72C22.8133 29.2 21.0133 29.44 18.88 29.44H15.6V40.56H12V12H19.56ZM19.24 15.08H15.6V26.36H18.48C20.2933 26.36 21.8 26.1733 23 25.8C24.2 25.4 25.0933 24.7733 25.68 23.92C26.2667 23.0667 26.56 21.9467 26.56 20.56C26.56 18.72 25.9733 17.3467 24.8 16.44C23.6267 15.5333 21.7733 15.08 19.24 15.08Z" fill="#454545"/>
<path d="M34 25H37V41H34V25Z" fill="#454545"/>
<circle cx="35.5" cy="22.5" r="1.5" fill="#454545"/>
</svg>
