<svg width="52" height="52" viewBox="0 0 52 52" fill="none" xmlns="http://www.w3.org/2000/svg">
<path d="M38.8098 9H42.4098L35.9698 19.32H33.6498L38.8098 9Z" fill="#454545"/>
<path d="M21.0742 27.4819L20.6055 29.4741C19.7331 33.159 19.0104 35.7502 18.4375 37.2476C17.3307 40.0991 15.9115 41.9025 14.1797 42.6577C13.4635 42.9702 12.7409 43.1265 12.0117 43.1265C11.2695 43.1265 10.7487 42.9832 10.4492 42.6968C10.1497 42.4233 10 42.0848 10 41.6812C10 41.2905 10.1302 40.952 10.3906 40.6655C10.651 40.3791 10.9831 40.2358 11.3867 40.2358C11.7773 40.2358 12.1029 40.327 12.3633 40.5093C12.6237 40.6916 12.7539 40.939 12.7539 41.2515C12.7539 41.577 12.6628 41.883 12.4805 42.1694C13.8216 41.9611 15.026 39.422 16.0938 34.5522C16.263 33.784 16.4518 32.8726 16.6602 31.8179C16.8815 30.7502 17.0508 29.9689 17.168 29.4741L17.6367 27.4819H13.9648L14.2773 26.1929H17.9102C19.4596 19.9038 21.276 15.5158 23.3594 13.0288C25.0781 10.9845 27.1549 9.9624 29.5898 9.9624C30.6836 9.9624 31.6016 10.1838 32.3438 10.6265C33.099 11.0692 33.4766 11.8049 33.4766 12.8335C33.4766 13.4325 33.2682 13.9077 32.8516 14.2593C32.4479 14.5978 31.9661 14.7671 31.4062 14.7671C30.8594 14.7671 30.3906 14.6108 30 14.2983C29.6224 13.9728 29.4336 13.5562 29.4336 13.0483C29.4336 12.5405 29.6094 12.0457 29.9609 11.564C29.3229 11.3426 28.8216 11.2319 28.457 11.2319C28.0924 11.2319 27.6562 11.4142 27.1484 11.7788C26.6536 12.1304 26.2109 12.6056 25.8203 13.2046C24.2969 15.5483 22.8125 19.8778 21.3672 26.1929H26.0352L25.7227 27.4819H21.0742Z" fill="#454545"/>
</svg>
