<svg width="53" height="53" viewBox="0 0 53 53" fill="none" xmlns="http://www.w3.org/2000/svg">
<g filter="url(#filter0_d_531_2745)">
<rect width="52" height="52" fill="none"/>
<path d="M27.7007 26.3861C29.3106 26.3861 30.529 26.1147 31.3582 25.5718C32.1873 25.0288 32.743 24.3679 33.0271 23.5889C33.3112 22.8099 33.4941 21.5117 33.5775 19.694C33.6609 17.6758 34.1101 16.1762 34.9268 15.1972C35.7436 14.2182 37.0982 13.7224 38.9926 13.7101V14.3828C38.318 14.4306 37.8617 14.6891 37.6255 15.1618C37.3894 15.6345 37.2651 16.6489 37.2527 18.2069C37.2527 20.473 37.0166 22.2199 36.5425 23.4473C36.0685 24.6747 35.1044 25.678 33.6485 26.457C32.1926 27.2359 30.21 27.649 27.7007 27.6962V33.3084C27.7007 34.6893 27.7776 35.5804 27.9316 35.9817C28.0855 36.383 28.4228 36.7135 28.9436 36.9732C29.4643 37.2328 30.2633 37.3568 31.3404 37.345V38H20.6522V37.345C21.7056 37.3331 22.4868 37.221 22.9958 37.0086C23.5048 36.7961 23.848 36.4775 24.0256 36.0526C24.2031 35.6277 24.2919 34.7129 24.2919 33.3084V27.6962C21.7471 27.6373 19.7703 27.2301 18.3619 26.4747C16.9534 25.7192 16.0005 24.7338 15.5034 23.5181C15.0063 22.3024 14.7518 20.5261 14.7399 18.1892C14.7399 16.702 14.6276 15.7159 14.4026 15.2326C14.1777 14.7493 13.7102 14.466 13 14.3828V13.7101C14.1955 13.7331 15.1602 13.9225 15.894 14.2766C16.6278 14.6307 17.2137 15.2556 17.6517 16.1532C18.0897 17.0508 18.3441 18.2299 18.4151 19.694C18.498 21.4998 18.6696 22.7922 18.93 23.5712C19.1905 24.3502 19.7526 25.0111 20.6167 25.5541C21.4808 26.097 22.7059 26.3743 24.2919 26.3861V18.6672C24.2919 17.2863 24.215 16.3958 24.0611 15.9939C23.9071 15.592 23.5698 15.268 23.0491 15.0202C22.5283 14.7723 21.7294 14.6484 20.6522 14.6484V13.9933H31.3404V14.6484C30.2515 14.6608 29.4526 14.7776 28.9436 15.0024C28.4345 15.2273 28.1032 15.5513 27.9493 15.9762C27.7954 16.4011 27.7126 17.2987 27.7007 18.6672V26.3861Z" fill="black"/>
</g>
<defs>
<filter id="filter0_d_531_2745" x="0" y="0" width="53" height="53" filterUnits="userSpaceOnUse" color-interpolation-filters="sRGB">
<feFlood flood-opacity="0" result="BackgroundImageFix"/>
<feColorMatrix in="SourceAlpha" type="matrix" values="0 0 0 0 0 0 0 0 0 0 0 0 0 0 0 0 0 0 127 0" result="hardAlpha"/>
<feOffset dx="1" dy="1"/>
<feColorMatrix type="matrix" values="0 0 0 0 0 0 0 0 0 0 0 0 0 0 0 0 0 0 0.25 0"/>
<feBlend mode="normal" in2="BackgroundImageFix" result="effect1_dropShadow_531_2745"/>
<feBlend mode="normal" in="SourceGraphic" in2="effect1_dropShadow_531_2745" result="shape"/>
</filter>
</defs>
</svg>
