<svg width="52" height="52" viewBox="0 0 52 52" fill="none" xmlns="http://www.w3.org/2000/svg">
<path d="M24.04 46V36.76C22.0133 36.68 20.24 36.3067 18.72 35.64C17.2267 34.9467 16.0667 33.8267 15.24 32.28C14.4133 30.7333 14 28.64 14 26V14.96H17.48V26.12C17.48 28.12 17.76 29.6667 18.32 30.76C18.9067 31.8533 19.6933 32.6133 20.68 33.04C21.6933 33.4667 22.8133 33.7333 24.04 33.84V6H27.48V33.8C29 33.6667 30.28 33.28 31.32 32.64C32.3867 32 33.2 31.0667 33.76 29.84C34.32 28.6133 34.6 27.0667 34.6 25.2C34.6 23.9733 34.5467 22.8133 34.44 21.72C34.36 20.6267 34.2267 19.5333 34.04 18.44C33.8533 17.3467 33.6133 16.1867 33.32 14.96H36.8C37.2267 16.7467 37.5333 18.44 37.72 20.04C37.9333 21.64 38.04 23.32 38.04 25.08C38.04 27.8267 37.5733 30.04 36.64 31.72C35.7333 33.3733 34.48 34.6 32.88 35.4C31.3067 36.1733 29.5067 36.6267 27.48 36.76V46H24.04Z" fill="#454545"/>
</svg>
