<svg width="52" height="52" viewBox="0 0 52 52" fill="none" xmlns="http://www.w3.org/2000/svg">
<path d="M38.1548 36.1505C37.3652 36.1505 35.8075 36.0651 34.7406 36.0651C33.9724 36.0651 32.2653 36.1078 31.5398 36.1078C31.5398 35.9157 31.5612 35.6383 31.6465 35.425C33.4603 35.2116 33.567 35.2756 33.8657 33.8032L35.8289 23.6888C35.9356 23.1553 35.9996 22.8353 35.9996 22.5792C35.9996 21.939 35.6155 21.9177 34.1431 21.811C34.1645 21.5976 34.2071 21.3629 34.2711 21.1282C35.082 21.1282 36.597 21.1709 37.3652 21.1709C37.92 21.1709 39.5418 21.1495 39.9685 21.1495C42.3158 21.1495 44.6843 21.7897 44.6843 24.393C44.6843 26.8255 42.6145 27.8285 40.6727 28.2766V28.3192C42.3584 28.554 44.1722 29.4715 44.1722 31.9041C44.1722 35.1902 40.8221 36.1505 38.1548 36.1505ZM38.4962 22.0457L37.3439 27.9565C37.728 27.9778 38.2188 27.9778 38.4535 27.9778C40.9288 27.9778 42.2731 26.6122 42.2731 24.5637C42.2731 22.6432 41.0781 22.0244 39.5418 22.0244C39.3284 22.0244 38.9656 22.0244 38.4962 22.0457ZM37.1732 28.874L35.9782 35.0835C36.6397 35.2116 37.5786 35.2969 38.1121 35.2969C40.3526 35.2969 41.6543 33.9313 41.6543 31.7761C41.6543 29.5142 40.2459 28.8314 38.1974 28.8314C37.984 28.8314 37.5359 28.8314 37.1732 28.874Z" fill="#454545"/>
<path d="M26.9893 33.2912L26.5625 30.5385H21.8681L20.3957 33.2272C20.0116 33.9314 19.7129 34.5288 19.7129 34.8276C19.7129 35.2543 20.1183 35.297 21.2706 35.4251C21.2706 35.6384 21.2279 35.8945 21.1426 36.1079C20.5451 36.0865 18.9447 36.0652 18.3046 36.0652C17.4937 36.0652 16.8535 36.0865 16 36.1079C16 35.8945 16.0427 35.6598 16.128 35.4464C17.8138 35.3184 17.9845 35.2757 19.7982 32.1603C21.3986 29.3863 24.2367 24.3717 26.0931 21.171C26.4772 21.0856 26.7973 21.0216 27.1173 21.0002L29.3152 33.1845C29.6993 35.2543 29.8913 35.2543 31.4917 35.4251C31.4917 35.6384 31.4491 35.8945 31.3637 36.1079C30.6809 36.0865 29.6353 36.0652 28.6964 36.0652C27.8642 36.0652 26.3492 36.0865 25.1969 36.1079C25.2182 35.8945 25.2396 35.6384 25.3249 35.4251C26.8399 35.2757 27.1387 35.2543 27.1387 34.3581C27.1387 34.2088 27.1173 33.974 26.9893 33.2912ZM22.3802 29.6423H26.4132L25.517 23.9236L22.3802 29.6423Z" fill="#454545"/>
<path d="M8 34C8 33.4667 8.18733 33 8.56198 32.6C8.93664 32.2 9.41047 32 9.98347 32C10.5124 32 10.9752 32.1778 11.3719 32.5333C11.7686 32.8889 11.978 33.3667 12 33.9667C12 34.5222 11.8127 35 11.438 35.4C11.0634 35.8 10.5895 36 10.0165 36C9.44353 36 8.9697 35.8111 8.59504 35.4333C8.22039 35.0556 8.02204 34.5778 8 34Z" fill="#111928"/>
<path d="M20 15L44.0025 15" stroke="#454545" stroke-width="2" stroke-linecap="square"/>
</svg>
