<svg width="53" height="53" viewBox="0 0 53 53" fill="none" xmlns="http://www.w3.org/2000/svg">
<g filter="url(#filter0_d_531_2736)">
<rect width="52" height="52" fill="none"/>
<path d="M21.036 38H18C18.4385 36.6421 18.6569 34.5884 18.6569 31.839V21.854C18.6569 19.0337 19.4559 16.9446 21.0538 15.5867C22.6517 14.2288 24.4147 13.5508 26.3446 13.5508C28.4397 13.5508 30.1263 14.2643 31.4047 15.693C32.683 17.1217 33.3221 19.0036 33.3221 21.3405C33.3221 23.8775 32.5285 26.0799 30.943 27.9441C29.3576 29.8084 27.5466 30.7414 25.5102 30.7414C24.1377 30.7414 22.8292 30.3041 21.5864 29.4313V31.7505C21.5864 34.2167 21.4035 36.3004 21.036 38ZM21.5864 25.3239C21.5864 26.7526 21.9646 27.8379 22.7227 28.5815C23.4808 29.325 24.4449 29.7021 25.6167 29.7145C27.0015 29.7145 28.1556 29.125 29.0788 27.9441C30.0021 26.7633 30.469 25.1947 30.4814 23.2349C30.4814 20.7687 29.8476 18.8142 28.5817 17.3748C27.3158 15.9355 25.9061 15.215 24.3561 15.215C23.3033 15.215 22.5807 15.5389 22.1901 16.1887C21.7995 16.8384 21.5988 17.906 21.5864 19.3931V25.3239Z" fill="black"/>
</g>
<defs>
<filter id="filter0_d_531_2736" x="0" y="0" width="53" height="53" filterUnits="userSpaceOnUse" color-interpolation-filters="sRGB">
<feFlood flood-opacity="0" result="BackgroundImageFix"/>
<feColorMatrix in="SourceAlpha" type="matrix" values="0 0 0 0 0 0 0 0 0 0 0 0 0 0 0 0 0 0 127 0" result="hardAlpha"/>
<feOffset dx="1" dy="1"/>
<feColorMatrix type="matrix" values="0 0 0 0 0 0 0 0 0 0 0 0 0 0 0 0 0 0 0.25 0"/>
<feBlend mode="normal" in2="BackgroundImageFix" result="effect1_dropShadow_531_2736"/>
<feBlend mode="normal" in="SourceGraphic" in2="effect1_dropShadow_531_2736" result="shape"/>
</filter>
</defs>
</svg>
