<svg width="52" height="52" viewBox="0 0 52 52" fill="none" xmlns="http://www.w3.org/2000/svg">
<g clip-path="url(#clip0_285_6003)">
<path d="M52 0H0V52H52V0Z" fill="#D0F0FD"/>
<path d="M12 25.9482C12 25.9482 12 25.8066 12 25.5236C12 25.2406 12.1524 25.0229 12.4572 24.8705H37.4403C34.9148 22.9763 33.3581 20.5488 32.7703 17.5878C32.7703 17.566 32.7703 17.5334 32.7703 17.4898C32.7703 17.4463 32.7594 17.4136 32.7376 17.3919C32.7376 17.1306 32.9227 17 33.2928 17H33.3908C33.5867 17 33.7173 17.0109 33.7827 17.0326C33.848 17.0544 33.9133 17.0979 33.9786 17.1633C34.0439 17.2286 34.0766 17.3265 34.0766 17.4572C34.0766 17.5878 34.1092 17.762 34.1745 17.9797C34.2399 18.1974 34.327 18.4696 34.4358 18.7961C34.9148 20.2548 35.7095 21.5612 36.8198 22.7151C37.9302 23.869 39.2256 24.6854 40.7061 25.1644C40.902 25.2297 41 25.3494 41 25.5236C41 25.6542 40.9456 25.7522 40.8367 25.8175C40.7279 25.8828 40.4666 25.9917 40.0529 26.1441C39.6393 26.2965 39.2256 26.5033 38.8119 26.7646C37.9193 27.3307 37.1464 27.9838 36.4932 28.7241C35.8401 29.4643 35.3502 30.1937 35.0236 30.9121C34.6971 31.6306 34.4685 32.1749 34.3378 32.545C34.2072 32.9151 34.1201 33.2526 34.0766 33.5574C34.033 33.7751 33.9786 33.9057 33.9133 33.9493C33.848 33.9928 33.6738 34.0255 33.3908 34.0473C32.9553 34.0473 32.7376 33.9275 32.7376 33.688C32.7376 33.5356 32.792 33.2635 32.9009 32.8716C33.5976 30.1283 35.1107 27.8967 37.4403 26.1768H12.4572C12.1524 26.0244 12 25.8066 12 25.5236V25.9482Z" fill="black"/>
</g>
<defs>
<clipPath id="clip0_285_6003">
<rect width="52" height="52" rx="4" fill="white"/>
</clipPath>
</defs>
</svg>
