<svg width="52" height="52" viewBox="0 0 52 52" fill="none" xmlns="http://www.w3.org/2000/svg">
<g clip-path="url(#clip0_285_6062)">
<path d="M52 0H0V52H52V0Z" fill="#D0F0FD"/>
<path d="M30.3554 21.4999C29.8572 21.4999 29.4697 21.3431 29.193 21.0294C28.9162 20.7158 28.7686 20.3098 28.7501 19.8117C28.7501 18.7968 29.193 17.8927 30.0786 17.0993C30.9643 16.3059 32.0344 15.9092 33.2891 15.9092C33.9349 15.9092 34.3408 15.9185 34.5069 15.9369C35.8723 16.1583 36.9148 16.6473 37.6344 17.4038C38.3539 18.1603 38.723 18.9814 38.7414 19.867C38.7414 20.8265 38.4278 21.7583 37.8004 22.6624C37.1731 23.5665 36.3059 24.2215 35.1988 24.6274L35.1158 24.6828C35.1158 24.7012 35.1988 24.7289 35.3649 24.7658C35.5309 24.8027 35.7985 24.8857 36.1675 25.0149C36.5365 25.144 36.8871 25.3378 37.2192 25.5961C38.7322 26.574 39.4887 27.8656 39.4887 29.4708C39.4887 30.9285 38.9167 32.2016 37.7727 33.2902C36.6288 34.3788 35.1804 34.9232 33.4275 34.9232C31.9514 34.9232 30.6783 34.5265 29.6081 33.7331C28.5379 32.9397 28.0029 31.9341 28.0029 30.7163C28.0029 30.1997 28.1689 29.7845 28.501 29.4708C28.8332 29.1572 29.2483 28.9911 29.7465 28.9727C30.2631 28.9727 30.6875 29.1387 31.0196 29.4708C31.3517 29.803 31.5178 30.2181 31.5178 30.7163C31.5178 30.9193 31.4901 31.1038 31.4348 31.2698C31.3794 31.4359 31.3148 31.5835 31.241 31.7127C31.1672 31.8418 31.0657 31.9525 30.9366 32.0448C30.8074 32.137 30.6967 32.2108 30.6045 32.2662C30.5122 32.3215 30.42 32.3584 30.3277 32.3769C30.2354 32.3953 30.1616 32.423 30.1063 32.4599L29.9956 32.4876C30.9366 33.3179 32.0806 33.7331 33.4275 33.7331C34.4423 33.7331 35.208 33.2441 35.7247 32.2662C36.0383 31.6573 36.1952 30.7255 36.1952 29.4708V28.9173C36.1952 27.1644 35.6047 25.9928 34.4239 25.4024C34.1471 25.2917 33.5843 25.2271 32.7356 25.2086L31.5732 25.1809L31.4901 25.1256C31.4532 25.0702 31.4348 24.9226 31.4348 24.6828C31.4348 24.3506 31.5086 24.1846 31.6562 24.1846C32.1728 24.1846 32.7079 24.1385 33.2614 24.0462C33.8888 23.9539 34.4608 23.5665 34.9774 22.8838C35.494 22.2011 35.7523 21.1678 35.7523 19.784V19.5626C35.7523 18.5109 35.4294 17.782 34.7837 17.3761C34.3777 17.1178 33.9441 16.9886 33.4828 16.9886C32.8924 16.9886 32.3481 17.0901 31.8499 17.2931C31.3517 17.496 31.0012 17.7082 30.7982 17.9296C30.5952 18.1511 30.4938 18.2618 30.4938 18.2618H30.5768C30.6321 18.2802 30.7059 18.2987 30.7982 18.3171C30.8905 18.3356 30.9827 18.3817 31.075 18.4555C31.1672 18.5293 31.2779 18.5939 31.4071 18.6492C31.5362 18.7046 31.6285 18.8061 31.6839 18.9537C31.7392 19.1013 31.813 19.2397 31.9053 19.3688C31.9975 19.498 32.0252 19.6825 31.9883 19.9224C31.9883 20.3283 31.8591 20.6881 31.6008 21.0018C31.3425 21.3154 30.9274 21.4815 30.3554 21.4999Z" fill="black"/>
<path d="M12.2081 18.6908C11.959 18.6908 11.7606 18.6078 11.613 18.4417C11.4654 18.2757 11.3916 18.0727 11.3916 17.8329C11.3916 17.1778 11.6361 16.6105 12.1251 16.1307C12.614 15.651 13.2229 15.4111 13.9517 15.4111C14.7912 15.4111 15.4924 15.6695 16.0551 16.1861C16.6179 16.7027 16.9039 17.3716 16.9131 18.1927C16.9131 18.5894 16.8209 18.9676 16.6364 19.3274C16.4518 19.6872 16.2304 20.0009 15.9721 20.2684C15.7138 20.536 15.3448 20.8773 14.865 21.2925C14.5329 21.5784 14.0716 22.0028 13.4812 22.5656L12.6647 23.3405L13.7165 23.3544C15.1649 23.3544 15.9352 23.3313 16.0275 23.2852C16.092 23.2667 16.2028 22.8562 16.3596 22.0536V22.012H16.9131V22.0536C16.9039 22.0812 16.8439 22.501 16.7332 23.3129C16.6225 24.1247 16.5533 24.5491 16.5257 24.586V24.6275H11.3916V24.3646V24.1985C11.3916 24.1339 11.4193 24.0647 11.4746 23.9909C11.53 23.9171 11.6684 23.7557 11.8898 23.5066C12.1573 23.2114 12.388 22.9531 12.5817 22.7316C12.6647 22.6394 12.8216 22.4687 13.0522 22.2196C13.2829 21.9705 13.4397 21.7999 13.5227 21.7076C13.6058 21.6153 13.7395 21.4631 13.924 21.2509C14.1086 21.0387 14.2377 20.8819 14.3115 20.7804C14.3853 20.679 14.4914 20.5406 14.6298 20.3653C14.7682 20.19 14.865 20.0424 14.9204 19.9225C14.9758 19.8025 15.0449 19.6688 15.128 19.5211C15.211 19.3735 15.271 19.2259 15.3079 19.0783C15.3448 18.9307 15.3771 18.7923 15.4047 18.6632C15.4324 18.534 15.4463 18.3818 15.4463 18.2065C15.4463 17.6253 15.2894 17.1225 14.9758 16.6981C14.6621 16.2737 14.2146 16.0616 13.6334 16.0616C13.329 16.0616 13.0614 16.14 12.8308 16.2968C12.6002 16.4536 12.4387 16.6059 12.3465 16.7535C12.2542 16.9011 12.2081 16.9887 12.2081 17.0164C12.2081 17.0256 12.2311 17.0302 12.2773 17.0302C12.4433 17.0302 12.614 17.0948 12.7893 17.224C12.9646 17.3531 13.0522 17.5653 13.0522 17.8605C13.0522 18.0912 12.9784 18.2849 12.8308 18.4417C12.6832 18.5986 12.4756 18.6816 12.2081 18.6908Z" fill="black"/>
<path d="M6.41474 29.4932C6.30404 29.4932 6.17488 29.4194 6.02727 29.2718C5.87966 29.1242 5.79663 28.995 5.77818 28.8843C5.75973 28.7736 6.04572 28.4968 6.63616 28.054C7.22659 27.6112 7.83548 27.1499 8.46282 26.6702C9.09016 26.1904 9.44073 25.9229 9.51454 25.8675C9.55144 25.8306 9.59757 25.8122 9.65292 25.8122H9.6806C9.7913 25.8122 9.92046 25.969 10.0681 26.2827C10.2157 26.5964 10.7139 27.6757 11.5626 29.5209C11.9132 30.3143 12.1992 30.9508 12.4206 31.4306L14.7731 36.5508C14.7916 36.5508 15.7511 34.5857 17.6515 30.6556C19.552 26.7255 21.4525 22.7677 23.3529 18.7823C25.2534 14.7968 26.2405 12.758 26.3143 12.6657C26.425 12.4074 26.6096 12.2783 26.8679 12.2783C26.997 12.2783 27.1077 12.3336 27.2 12.4443C27.2922 12.555 27.3568 12.6657 27.3937 12.7764V12.9425L20.9451 26.3104L14.441 39.7613C14.3672 39.8904 14.1919 39.955 13.9152 39.955C13.7491 39.955 13.6384 39.9273 13.583 39.872C13.5461 39.8351 12.642 37.8792 10.8707 34.0045L8.21373 28.1924L7.7709 28.4968C7.49414 28.7182 7.20814 28.9397 6.91293 29.1611C6.61771 29.3825 6.45165 29.4932 6.41474 29.4932Z" fill="black"/>
<path d="M40.6791 13.9389H26.8408V12.2783H40.6791V13.9389Z" fill="black"/>
<path d="M40.4443 15.8887H27.4443V37.5554H40.4443V15.8887Z" fill="#C4C4C4"/>
<path d="M18.0552 13H10.833V25.2778H18.0552V13Z" fill="#F2D3D3"/>
</g>
<defs>
<clipPath id="clip0_285_6062">
<rect width="52" height="52" rx="4" fill="white"/>
</clipPath>
</defs>
</svg>
