<svg width="52" height="52" viewBox="0 0 52 52" fill="none" xmlns="http://www.w3.org/2000/svg">
<path d="M12.2079 18.6905C11.9588 18.6905 11.7604 18.6075 11.6128 18.4414C11.4652 18.2754 11.3914 18.0724 11.3914 17.8326C11.3914 17.1775 11.6359 16.6102 12.1249 16.1304C12.6138 15.6507 13.2227 15.4108 13.9515 15.4108C14.791 15.4108 15.4922 15.6692 16.0549 16.1858C16.6177 16.7024 16.9037 17.3713 16.9129 18.1924C16.9129 18.5891 16.8207 18.9673 16.6362 19.3271C16.4516 19.6869 16.2302 20.0006 15.9719 20.2681C15.7136 20.5357 15.3446 20.877 14.8648 21.2922C14.5327 21.5781 14.0714 22.0025 13.481 22.5653L12.6645 23.3402L13.7163 23.3541C15.1647 23.3541 15.935 23.331 16.0273 23.2849C16.0918 23.2664 16.2026 22.8559 16.3594 22.0533V22.0117H16.9129V22.0533C16.9037 22.0809 16.8437 22.5007 16.733 23.3126C16.6223 24.1244 16.5531 24.5488 16.5255 24.5857V24.6272H11.3914V24.3643V24.1982C11.3914 24.1336 11.4191 24.0644 11.4744 23.9906C11.5298 23.9168 11.6682 23.7554 11.8896 23.5063C12.1571 23.2111 12.3878 22.9528 12.5815 22.7313C12.6645 22.6391 12.8214 22.4684 13.052 22.2193C13.2827 21.9702 13.4395 21.7996 13.5225 21.7073C13.6056 21.615 13.7393 21.4628 13.9238 21.2506C14.1084 21.0384 14.2375 20.8816 14.3113 20.7801C14.3851 20.6787 14.4912 20.5403 14.6296 20.365C14.768 20.1897 14.8648 20.0421 14.9202 19.9222C14.9756 19.8022 15.0447 19.6685 15.1278 19.5208C15.2108 19.3732 15.2708 19.2256 15.3077 19.078C15.3446 18.9304 15.3769 18.792 15.4045 18.6629C15.4322 18.5337 15.4461 18.3815 15.4461 18.2062C15.4461 17.625 15.2892 17.1222 14.9756 16.6978C14.6619 16.2734 14.2144 16.0613 13.6332 16.0613C13.3288 16.0613 13.0612 16.1397 12.8306 16.2965C12.6 16.4533 12.4385 16.6056 12.3463 16.7532C12.254 16.9008 12.2079 16.9884 12.2079 17.0161C12.2079 17.0253 12.2309 17.0299 12.2771 17.0299C12.4431 17.0299 12.6138 17.0945 12.7891 17.2237C12.9644 17.3528 13.052 17.565 13.052 17.8602C13.052 18.0909 12.9782 18.2846 12.8306 18.4414C12.683 18.5983 12.4754 18.6813 12.2079 18.6905Z" fill="#454545"/>
<path d="M18.0555 13H10.8333V25.2778H18.0555V13Z" fill="#F2D3D3"/>
<path d="M44 15.1432H28.5715V40.8575H44V15.1432Z" fill="#C4C4C4"/>
<path d="M14.5535 41.063L10.5861 29.8956H8V27.8385H12.2024L15.5233 37.5071L25.28 10.0002H27.3665L16.4637 41.063H14.5535Z" fill="#454545"/>
<rect x="25.6032" y="10.0073" width="18.3673" height="2.20408" fill="#454545"/>
</svg>
