<svg width="53" height="53" viewBox="0 0 53 53" fill="none" xmlns="http://www.w3.org/2000/svg">
<g filter="url(#filter0_d)">
<rect width="52" height="52" fill="white"/>
<path d="M30.3556 21.4996C29.8574 21.4996 29.4699 21.3428 29.1932 21.0291C28.9164 20.7155 28.7688 20.3095 28.7503 19.8114C28.7503 18.7965 29.1932 17.8924 30.0788 17.099C30.9645 16.3056 32.0346 15.9089 33.2893 15.9089C33.9351 15.9089 34.341 15.9182 34.5071 15.9366C35.8725 16.158 36.915 16.647 37.6346 17.4035C38.3541 18.16 38.7232 18.9811 38.7416 19.8667C38.7416 20.8262 38.428 21.758 37.8006 22.6621C37.1733 23.5662 36.3061 24.2212 35.199 24.6271L35.116 24.6825C35.116 24.7009 35.199 24.7286 35.3651 24.7655C35.5311 24.8024 35.7987 24.8854 36.1677 25.0146C36.5367 25.1437 36.8873 25.3375 37.2194 25.5958C38.7324 26.5737 39.4889 27.8653 39.4889 29.4705C39.4889 30.9282 38.9169 32.2013 37.7729 33.2899C36.629 34.3785 35.1806 34.9229 33.4277 34.9229C31.9516 34.9229 30.6785 34.5262 29.6083 33.7328C28.5381 32.9394 28.0031 31.9338 28.0031 30.716C28.0031 30.1994 28.1691 29.7842 28.5012 29.4705C28.8334 29.1569 29.2485 28.9908 29.7467 28.9724C30.2633 28.9724 30.6877 29.1384 31.0198 29.4705C31.3519 29.8027 31.518 30.2178 31.518 30.716C31.518 30.919 31.4903 31.1035 31.435 31.2695C31.3796 31.4356 31.315 31.5832 31.2412 31.7124C31.1674 31.8415 31.0659 31.9522 30.9368 32.0445C30.8076 32.1367 30.6969 32.2105 30.6047 32.2659C30.5124 32.3212 30.4202 32.3581 30.3279 32.3766C30.2356 32.395 30.1618 32.4227 30.1065 32.4596L29.9958 32.4873C30.9368 33.3176 32.0808 33.7328 33.4277 33.7328C34.4425 33.7328 35.2082 33.2438 35.7249 32.2659C36.0385 31.657 36.1954 30.7252 36.1954 29.4705V28.917C36.1954 27.1641 35.6049 25.9925 34.4241 25.4021C34.1473 25.2914 33.5845 25.2268 32.7358 25.2083L31.5734 25.1806L31.4903 25.1253C31.4534 25.0699 31.435 24.9223 31.435 24.6825C31.435 24.3503 31.5088 24.1843 31.6564 24.1843C32.173 24.1843 32.7081 24.1382 33.2616 24.0459C33.889 23.9536 34.461 23.5662 34.9776 22.8835C35.4942 22.2008 35.7525 21.1675 35.7525 19.7837V19.5623C35.7525 18.5106 35.4296 17.7817 34.7839 17.3758C34.3779 17.1175 33.9443 16.9883 33.483 16.9883C32.8926 16.9883 32.3483 17.0898 31.8501 17.2928C31.3519 17.4957 31.0014 17.7079 30.7984 17.9293C30.5954 18.1508 30.494 18.2615 30.494 18.2615H30.577C30.6323 18.2799 30.7061 18.2984 30.7984 18.3168C30.8907 18.3353 30.9829 18.3814 31.0752 18.4552C31.1674 18.529 31.2781 18.5936 31.4073 18.6489C31.5364 18.7043 31.6287 18.8058 31.6841 18.9534C31.7394 19.101 31.8132 19.2394 31.9055 19.3685C31.9977 19.4977 32.0254 19.6822 31.9885 19.9221C31.9885 20.328 31.8593 20.6878 31.601 21.0015C31.3427 21.3151 30.9276 21.4812 30.3556 21.4996Z" fill="black"/>
<path d="M12.2079 18.6905C11.9588 18.6905 11.7604 18.6075 11.6128 18.4414C11.4652 18.2754 11.3914 18.0724 11.3914 17.8326C11.3914 17.1775 11.6359 16.6102 12.1249 16.1304C12.6138 15.6507 13.2227 15.4108 13.9515 15.4108C14.791 15.4108 15.4922 15.6692 16.0549 16.1858C16.6177 16.7024 16.9037 17.3713 16.9129 18.1924C16.9129 18.5891 16.8207 18.9673 16.6362 19.3271C16.4516 19.6869 16.2302 20.0006 15.9719 20.2681C15.7136 20.5357 15.3446 20.877 14.8648 21.2922C14.5327 21.5781 14.0714 22.0025 13.481 22.5653L12.6645 23.3402L13.7163 23.3541C15.1647 23.3541 15.935 23.331 16.0273 23.2849C16.0918 23.2664 16.2026 22.8559 16.3594 22.0533V22.0117H16.9129V22.0533C16.9037 22.0809 16.8437 22.5007 16.733 23.3126C16.6223 24.1244 16.5531 24.5488 16.5255 24.5857V24.6272H11.3914V24.3643V24.1982C11.3914 24.1336 11.4191 24.0644 11.4744 23.9906C11.5298 23.9168 11.6682 23.7554 11.8896 23.5063C12.1571 23.2111 12.3878 22.9528 12.5815 22.7313C12.6645 22.6391 12.8214 22.4684 13.052 22.2193C13.2827 21.9702 13.4395 21.7996 13.5225 21.7073C13.6056 21.615 13.7393 21.4628 13.9238 21.2506C14.1084 21.0384 14.2375 20.8816 14.3113 20.7801C14.3851 20.6787 14.4912 20.5403 14.6296 20.365C14.768 20.1897 14.8648 20.0421 14.9202 19.9222C14.9756 19.8022 15.0447 19.6685 15.1278 19.5208C15.2108 19.3732 15.2708 19.2256 15.3077 19.078C15.3446 18.9304 15.3769 18.792 15.4045 18.6629C15.4322 18.5337 15.4461 18.3815 15.4461 18.2062C15.4461 17.625 15.2892 17.1222 14.9756 16.6978C14.6619 16.2734 14.2144 16.0613 13.6332 16.0613C13.3288 16.0613 13.0612 16.1397 12.8306 16.2965C12.6 16.4533 12.4385 16.6056 12.3463 16.7532C12.254 16.9008 12.2079 16.9884 12.2079 17.0161C12.2079 17.0253 12.2309 17.0299 12.2771 17.0299C12.4431 17.0299 12.6138 17.0945 12.7891 17.2237C12.9644 17.3528 13.052 17.565 13.052 17.8602C13.052 18.0909 12.9782 18.2846 12.8306 18.4414C12.683 18.5983 12.4754 18.6813 12.2079 18.6905Z" fill="black"/>
<path d="M6.41517 29.4928C6.30447 29.4928 6.17531 29.419 6.0277 29.2714C5.88009 29.1238 5.79706 28.9946 5.77861 28.8839C5.76016 28.7732 6.04615 28.4964 6.63659 28.0536C7.22702 27.6108 7.83591 27.1495 8.46325 26.6698C9.09059 26.19 9.44116 25.9225 9.51497 25.8671C9.55187 25.8302 9.598 25.8118 9.65335 25.8118H9.68103C9.79173 25.8118 9.92089 25.9686 10.0685 26.2823C10.2161 26.596 10.7143 27.6753 11.563 29.5205C11.9136 30.3139 12.1996 30.9504 12.421 31.4302L14.7735 36.5504C14.792 36.5504 15.7515 34.5853 17.6519 30.6552C19.5524 26.7251 21.4529 22.7673 23.3533 18.7819C25.2538 14.7964 26.2409 12.7576 26.3147 12.6653C26.4254 12.407 26.61 12.2779 26.8683 12.2779C26.9974 12.2779 27.1081 12.3332 27.2004 12.4439C27.2926 12.5546 27.3572 12.6653 27.3941 12.776V12.9421L20.9455 26.31L14.4414 39.7609C14.3676 39.89 14.1923 39.9546 13.9156 39.9546C13.7495 39.9546 13.6388 39.9269 13.5834 39.8716C13.5465 39.8347 12.6424 37.8788 10.8711 34.0041L8.21416 28.192L7.77133 28.4964C7.49457 28.7178 7.20857 28.9393 6.91336 29.1607C6.61814 29.3821 6.45208 29.4928 6.41517 29.4928Z" fill="black"/>
<path d="M40.6789 13.9385H26.8406V12.2779H40.6789V13.9385Z" fill="black"/>
<rect x="27.4445" y="15.8889" width="13" height="21.6667" fill="#C4C4C4"/>
<rect x="10.8333" y="13" width="7.22222" height="12.2778" fill="#F2D3D3"/>
</g>
<defs>
<filter id="filter0_d" x="0" y="0" width="53" height="53" filterUnits="userSpaceOnUse" color-interpolation-filters="sRGB">
<feFlood flood-opacity="0" result="BackgroundImageFix"/>
<feColorMatrix in="SourceAlpha" type="matrix" values="0 0 0 0 0 0 0 0 0 0 0 0 0 0 0 0 0 0 127 0" result="hardAlpha"/>
<feOffset dx="1" dy="1"/>
<feColorMatrix type="matrix" values="0 0 0 0 0 0 0 0 0 0 0 0 0 0 0 0 0 0 0.25 0"/>
<feBlend mode="normal" in2="BackgroundImageFix" result="effect1_dropShadow"/>
<feBlend mode="normal" in="SourceGraphic" in2="effect1_dropShadow" result="shape"/>
</filter>
</defs>
</svg>
