<svg width="52" height="52" viewBox="0 0 52 52" fill="none" xmlns="http://www.w3.org/2000/svg">
<path d="M36.3382 32.7919C35.0036 32.7919 33.9549 32.3759 33.1922 31.5439C32.4469 30.7119 32.0742 29.5939 32.0742 28.1899C32.0742 27.0632 32.2996 26.0059 32.7502 25.0179C33.2009 24.0299 33.7989 23.1632 34.5442 22.4179C35.2896 21.6725 36.1129 21.0919 37.0142 20.6759C37.9156 20.2425 38.8082 20.0259 39.6922 20.0259C40.5069 20.0259 41.1829 20.1992 41.7202 20.5459C42.2576 20.8925 42.5262 21.3345 42.5262 21.8719C42.5262 22.2359 42.4049 22.5392 42.1622 22.7819C41.9196 23.0245 41.5989 23.1459 41.2002 23.1459C40.8189 23.1459 40.4289 22.9985 40.0302 22.7039C39.6316 22.3919 39.3889 21.8545 39.3022 21.0919C38.6609 21.1092 38.0629 21.3519 37.5082 21.8199C36.9709 22.2879 36.5029 22.8859 36.1042 23.6139C35.7056 24.3419 35.3936 25.1132 35.1682 25.9279C34.9429 26.7425 34.8302 27.5139 34.8302 28.2419C34.8302 28.9872 34.9949 29.6372 35.3242 30.1919C35.6536 30.7465 36.2689 31.0239 37.1702 31.0239C37.9156 31.0239 38.6002 30.8245 39.2242 30.4259C39.8656 30.0272 40.4202 29.4985 40.8882 28.8399C41.1656 28.9785 41.3736 29.1432 41.5122 29.3339C41.1829 29.9232 40.7756 30.4865 40.2902 31.0239C39.8222 31.5439 39.2589 31.9685 38.6002 32.2979C37.9589 32.6272 37.2049 32.7919 36.3382 32.7919Z" fill="#454545"/>
<path d="M31.0007 22.132C31.0007 22.808 30.784 23.4147 30.3507 23.952C29.9174 24.472 29.328 24.9227 28.5827 25.304C27.8547 25.6853 27.04 25.9973 26.1387 26.24C25.2374 26.4827 24.3187 26.656 23.3827 26.76C23.2787 27.2973 23.2267 27.8 23.2267 28.268C23.2267 29.1347 23.4174 29.828 23.7987 30.348C24.18 30.8507 24.7954 31.102 25.6447 31.102C26.39 31.102 27.092 30.9027 27.7507 30.504C28.4094 30.1053 28.99 29.5853 29.4927 28.944C29.77 29.1 29.9694 29.2647 30.0907 29.438C29.5014 30.4433 28.782 31.258 27.9327 31.882C27.0834 32.4887 26.0694 32.792 24.8907 32.792C23.5214 32.792 22.438 32.3847 21.6407 31.57C20.8607 30.738 20.4707 29.6287 20.4707 28.242C20.4707 27.2713 20.6614 26.3007 21.0427 25.33C21.424 24.3593 21.9527 23.4753 22.6287 22.678C23.322 21.8633 24.1367 21.2133 25.0727 20.728C26.026 20.2427 27.0574 20 28.1667 20C29.1374 20 29.848 20.1907 30.2987 20.572C30.7667 20.9533 31.0007 21.4733 31.0007 22.132ZM23.5907 25.85C24.4054 25.746 25.1854 25.5553 25.9307 25.278C26.6934 24.9833 27.3174 24.602 27.8027 24.134C28.288 23.6487 28.5307 23.0593 28.5307 22.366C28.5307 21.9847 28.444 21.6813 28.2707 21.456C28.0974 21.2133 27.82 21.092 27.4387 21.092C26.9014 21.092 26.3814 21.326 25.8787 21.794C25.376 22.2447 24.9254 22.834 24.5267 23.562C24.128 24.29 23.816 25.0527 23.5907 25.85Z" fill="#454545"/>
<path d="M13.238 32.7919C11.8687 32.7919 10.82 32.5492 10.092 32.0639C9.364 31.5785 9 31.0672 9 30.5299C9 30.2352 9.11267 29.9579 9.338 29.6979C9.56333 29.4379 9.89267 29.3079 10.326 29.3079C10.7593 29.3079 11.106 29.4292 11.366 29.6719C11.6433 29.9145 11.8513 30.2265 11.99 30.6079C12.146 30.9892 12.25 31.3705 12.302 31.7519C12.4927 31.8039 12.6747 31.8385 12.848 31.8559C13.0387 31.8732 13.2207 31.8819 13.394 31.8819C14.1047 31.8819 14.7027 31.7345 15.188 31.4399C15.6733 31.1279 15.916 30.6685 15.916 30.0619C15.916 29.5245 15.708 29.0739 15.292 28.7099C14.876 28.3285 14.2693 27.8692 13.472 27.3319C13.004 27.0025 12.5533 26.6645 12.12 26.3179C11.6867 25.9539 11.3313 25.5552 11.054 25.1219C10.7767 24.6885 10.638 24.2032 10.638 23.6659C10.638 23.1112 10.8027 22.5565 11.132 22.0019C11.4787 21.4299 12.016 20.9619 12.744 20.5979C13.472 20.2165 14.3993 20.0259 15.526 20.0259C16.774 20.0259 17.71 20.2425 18.334 20.6759C18.958 21.1092 19.27 21.5772 19.27 22.0799C19.27 22.3399 19.1747 22.6085 18.984 22.8859C18.8107 23.1632 18.4987 23.3019 18.048 23.3019C17.476 23.3019 17.034 23.0765 16.722 22.6259C16.4273 22.1579 16.2453 21.6639 16.176 21.1439C15.812 21.0572 15.448 21.0139 15.084 21.0139C14.3907 21.0139 13.862 21.1785 13.498 21.5079C13.134 21.8199 12.952 22.2272 12.952 22.7299C12.952 23.2672 13.16 23.7352 13.576 24.1339C14.0093 24.5152 14.6333 24.9832 15.448 25.5379C15.916 25.8499 16.3667 26.1879 16.8 26.5519C17.2333 26.8985 17.5887 27.2972 17.866 27.7479C18.1433 28.1812 18.282 28.7012 18.282 29.3079C18.282 30.0359 18.0653 30.6599 17.632 31.1799C17.1987 31.6999 16.6007 32.0985 15.838 32.3759C15.0753 32.6532 14.2087 32.7919 13.238 32.7919Z" fill="#454545"/>
</svg>
