<svg width="37" height="37" viewBox="0 0 37 37" fill="none" xmlns="http://www.w3.org/2000/svg">
<path d="M15.9171 6.65585C16.5745 3.94805 20.4255 3.94805 21.0829 6.65585C21.5075 8.40506 23.5116 9.23516 25.0487 8.29856C27.4283 6.84868 30.1513 9.57175 28.7014 11.9513C27.7648 13.4884 28.5949 15.4925 30.3441 15.9171C33.052 16.5745 33.052 20.4255 30.3441 21.0829C28.5949 21.5075 27.7648 23.5116 28.7014 25.0487C30.1513 27.4283 27.4283 30.1513 25.0487 28.7014C23.5116 27.7648 21.5075 28.5949 21.0829 30.3441C20.4255 33.052 16.5745 33.052 15.9171 30.3441C15.4925 28.5949 13.4884 27.7648 11.9513 28.7014C9.57175 30.1513 6.84869 27.4283 8.29856 25.0487C9.23516 23.5116 8.40506 21.5075 6.65585 21.0829C3.94805 20.4255 3.94805 16.5745 6.65585 15.9171C8.40506 15.4925 9.23516 13.4884 8.29856 11.9513C6.84868 9.57175 9.57175 6.84868 11.9513 8.29856C13.4884 9.23516 15.4925 8.40506 15.9171 6.65585Z" stroke="#111827" stroke-width="2" stroke-linecap="round" stroke-linejoin="round"/>
<path d="M23.125 18.5C23.125 21.0543 21.0543 23.125 18.5 23.125C15.9457 23.125 13.875 21.0543 13.875 18.5C13.875 15.9457 15.9457 13.875 18.5 13.875C21.0543 13.875 23.125 15.9457 23.125 18.5Z" stroke="#111827" stroke-width="2" stroke-linecap="round" stroke-linejoin="round"/>
</svg>
