<svg width="52" height="52" viewBox="0 0 52 52" fill="none" xmlns="http://www.w3.org/2000/svg">
<path d="M24.64 36.84C22.72 36.84 21.0267 36.44 19.56 35.64C18.12 34.8133 17 33.6133 16.2 32.04C15.4 30.44 15 28.4933 15 26.2C15 23.5067 15.4667 21.3467 16.4 19.72C17.3333 18.0667 18.6533 16.8667 20.36 16.12C22.0667 15.3733 24.08 15 26.4 15H36.08V17.72H31.2C31.8933 18.36 32.4667 19.0933 32.92 19.92C33.4 20.7467 33.76 21.68 34 22.72C34.2667 23.76 34.4 24.92 34.4 26.2C34.4 27.64 34.1867 29.0133 33.76 30.32C33.36 31.6 32.7467 32.7333 31.92 33.72C31.12 34.68 30.1067 35.44 28.88 36C27.6533 36.56 26.24 36.84 24.64 36.84ZM24.72 33.92C26.16 33.92 27.3333 33.5733 28.24 32.88C29.1467 32.1867 29.8133 31.2667 30.24 30.12C30.6667 28.9467 30.88 27.6667 30.88 26.28C30.88 25.1333 30.76 24.0533 30.52 23.04C30.3067 22.0267 29.9733 21.08 29.52 20.2C29.0667 19.32 28.4933 18.4933 27.8 17.72H26.4C24.6667 17.72 23.2133 18.0133 22.04 18.6C20.8667 19.16 19.9867 20.0667 19.4 21.32C18.84 22.5467 18.56 24.1733 18.56 26.2C18.56 27.6933 18.7733 29.0267 19.2 30.2C19.6267 31.3733 20.2933 32.2933 21.2 32.96C22.1067 33.6 23.28 33.92 24.72 33.92Z" fill="#454545"/>
</svg>
