<svg width="53" height="53" viewBox="0 0 53 53" fill="none" xmlns="http://www.w3.org/2000/svg">
<g filter="url(#filter0_d)">
<rect width="52" height="52" fill="none"/>
<path d="M13 28.7308C13 26.8077 13.5909 25.0385 14.7726 23.4231C15.9543 21.8077 17.5085 21 19.4352 21C20.4114 21 21.362 21.2308 22.2868 21.6923C23.2116 22.1538 24.0594 22.7308 24.8301 23.4231C25.6007 24.1154 26.3586 24.7821 27.1036 25.4231C27.8486 26.0641 28.6578 26.6282 29.5312 27.1154C30.4047 27.6026 31.3038 27.8462 32.2287 27.8462C33.8214 27.8462 35.1187 27.2436 36.1206 26.0385C37.1225 24.8333 37.6235 23.5256 37.6235 22.1154C37.6235 21.8077 37.6749 21.5513 37.7776 21.3462C37.8804 21.141 38.0088 21.0256 38.163 21C38.5226 21 38.7024 21.4231 38.7024 22.2692C38.7024 24.1667 38.1244 25.9231 36.9684 27.5385C35.8124 29.1538 34.3352 29.9615 32.5369 29.9615H32.2287C31.2781 29.9615 30.3405 29.7308 29.4156 29.2692C28.4908 28.8077 27.6302 28.2436 26.8338 27.5769C26.0375 26.9103 25.2796 26.2436 24.5603 25.5769C23.841 24.9103 23.0318 24.3333 22.1326 23.8462C21.2335 23.359 20.3472 23.1282 19.4738 23.1538C18.3434 23.1538 17.3415 23.4744 16.4681 24.1154C15.5433 24.859 14.9139 25.7308 14.5799 26.7308C14.2459 27.7308 14.0404 28.5256 13.9634 29.1154C13.8863 29.7051 13.745 30 13.5395 30C13.1798 30 13 29.5769 13 28.7308Z" fill="black"/>
</g>
<defs>
<filter id="filter0_d" x="0" y="0" width="53" height="53" filterUnits="userSpaceOnUse" color-interpolation-filters="sRGB">
<feFlood flood-opacity="0" result="BackgroundImageFix"/>
<feColorMatrix in="SourceAlpha" type="matrix" values="0 0 0 0 0 0 0 0 0 0 0 0 0 0 0 0 0 0 127 0" result="hardAlpha"/>
<feOffset dx="1" dy="1"/>
<feColorMatrix type="matrix" values="0 0 0 0 0 0 0 0 0 0 0 0 0 0 0 0 0 0 0.25 0"/>
<feBlend mode="normal" in2="BackgroundImageFix" result="effect1_dropShadow"/>
<feBlend mode="normal" in="SourceGraphic" in2="effect1_dropShadow" result="shape"/>
</filter>
</defs>
</svg>
