<svg width="52" height="52" viewBox="0 0 52 52" fill="none" xmlns="http://www.w3.org/2000/svg">
<rect width="51.9997" height="52" rx="4" fill="#D0F0FD"/>
<path d="M4.32812 23.9009C4.32812 23.8244 4.36492 23.676 4.4385 23.4561C4.51208 23.236 4.61429 22.9874 4.7451 22.7099C4.87593 22.4325 5.05579 22.1933 5.28473 21.9924C5.51366 21.7916 5.75486 21.6864 6.00831 21.6768C6.38441 21.6768 6.66649 21.7964 6.85454 22.0355C7.04259 22.2747 7.13662 22.5569 7.13662 22.8821C7.13662 23.0543 6.99762 23.59 6.71964 24.4892C6.44164 25.3884 6.30265 26.0627 6.30265 26.5123C6.30265 26.9236 6.35989 27.2106 6.47435 27.3732C6.58882 27.5358 6.76051 27.6219 6.98944 27.6314C7.21838 27.641 7.43505 27.5597 7.63945 27.3876C7.84385 27.2154 7.99511 27.0527 8.09323 26.8997L8.22813 26.6557C8.24448 26.6176 8.39983 25.8905 8.69416 24.4748C8.93944 23.3269 9.08662 22.6574 9.1357 22.466C9.18477 22.2747 9.242 22.136 9.30739 22.0499C9.44632 21.9064 9.59353 21.8347 9.7489 21.8347C9.88783 21.8347 9.99005 21.8825 10.0554 21.9781C10.1209 22.0739 10.1536 22.1647 10.1536 22.2507L9.22148 26.8136C9.21333 26.8614 9.20925 26.938 9.20925 27.0431C9.20925 27.2823 9.23792 27.4401 9.29515 27.5167C9.35238 27.5932 9.43816 27.6362 9.55262 27.6459C9.73258 27.6171 9.8756 27.4689 9.98189 27.2011C10.0882 26.9332 10.2108 26.5123 10.3499 25.9383C10.3662 25.8618 10.4479 25.8235 10.5951 25.8235C10.7505 25.8235 10.8281 25.8666 10.8281 25.9526C10.8199 26.0005 10.8118 26.0675 10.8036 26.1535C10.7955 26.2397 10.7586 26.3927 10.6932 26.6128C10.6278 26.8327 10.5583 27.0384 10.4847 27.2297C10.4112 27.421 10.309 27.6028 10.1782 27.775C10.0473 27.9471 9.90019 28.0667 9.73666 28.1337C9.67116 28.1528 9.57313 28.1623 9.44224 28.1623C8.90266 28.1623 8.53065 27.8945 8.32624 27.3588C8.30989 27.3684 8.26492 27.4162 8.19133 27.5023C8.11775 27.5885 8.04417 27.6602 7.97057 27.7176C7.89699 27.775 7.80706 27.8468 7.70077 27.9328C7.59448 28.0188 7.47592 28.0763 7.34511 28.105C7.21429 28.1337 7.0753 28.1575 6.92812 28.1768C6.56837 28.1768 6.24951 28.0906 5.97153 27.9185C5.54637 27.6219 5.33379 27.1149 5.33379 26.3975C5.33379 25.8523 5.47686 25.1396 5.76303 24.2595C6.0492 23.3796 6.19227 22.8199 6.19227 22.5807C6.19227 22.5712 6.19227 22.5616 6.19227 22.5521C6.19227 22.466 6.19227 22.4086 6.19227 22.3799C6.19227 22.3512 6.17593 22.3177 6.14322 22.2795C6.11052 22.2412 6.06555 22.2221 6.00831 22.2221H5.95925C5.7712 22.2221 5.5995 22.3129 5.44416 22.4947C5.28881 22.6765 5.16617 22.8725 5.07624 23.083C4.9863 23.2934 4.9168 23.4942 4.86774 23.6856C4.8187 23.8769 4.78599 23.9822 4.76964 24.0012C4.75329 24.0205 4.68787 24.03 4.5734 24.03H4.40171C4.35265 23.9726 4.32812 23.9295 4.32812 23.9009Z" fill="#111928"/>
<path d="M12.9893 24.9235C12.9893 24.4252 13.0194 23.9521 13.0799 23.5043C13.1403 23.0566 13.2098 22.6702 13.2884 22.3452C13.367 22.0202 13.4788 21.7024 13.6238 21.3919C13.7689 21.0814 13.8836 20.8394 13.9683 20.666C14.0529 20.4928 14.1798 20.305 14.3491 20.1028C14.5183 19.9005 14.618 19.7777 14.6482 19.7344C14.6784 19.691 14.754 19.6153 14.8749 19.5068H14.9927H15.0289C15.1135 19.5068 15.1559 19.5394 15.1559 19.6043C15.1559 19.6261 15.1045 19.7018 15.0018 19.8319C14.899 19.9619 14.7751 20.1533 14.6301 20.4061C14.485 20.6588 14.337 20.9693 14.1859 21.3377C14.0348 21.706 13.9079 22.2044 13.8052 22.8327C13.7024 23.461 13.651 24.158 13.651 24.9235C13.651 25.6891 13.7024 26.3824 13.8052 27.0035C13.9079 27.6246 14.0317 28.1266 14.1768 28.5093C14.3218 28.8921 14.4699 29.2027 14.621 29.4409C14.7721 29.6793 14.899 29.8707 15.0018 30.0151C15.1045 30.1596 15.1559 30.2355 15.1559 30.2427C15.1559 30.3076 15.1105 30.3402 15.0199 30.3402H14.9927H14.8749L14.621 30.0802C14.0529 29.4663 13.6389 28.7007 13.379 27.7835C13.1192 26.8663 12.9893 25.9129 12.9893 24.9235Z" fill="#111928"/>
<path d="M15.387 23.8721C15.4492 23.4704 15.6895 23.0065 16.1077 22.4804C16.5259 21.9543 17.0421 21.6864 17.656 21.6768C17.9674 21.6768 18.2522 21.7629 18.5102 21.935C18.7682 22.1073 18.9596 22.3224 19.0842 22.5807C19.4579 21.9781 19.9072 21.6768 20.4322 21.6768C20.7614 21.6768 21.0462 21.782 21.2864 21.9924C21.5267 22.203 21.6512 22.4851 21.6601 22.839C21.6601 23.1165 21.5978 23.3412 21.4733 23.5135C21.3487 23.6856 21.2286 23.7908 21.1129 23.8292C20.9972 23.8673 20.895 23.8866 20.8059 23.8866C20.6368 23.8866 20.4989 23.8339 20.3921 23.7286C20.2855 23.6234 20.2321 23.4847 20.2321 23.3126C20.2321 22.8725 20.4544 22.5712 20.8994 22.4086C20.8015 22.2843 20.6235 22.2221 20.3655 22.2221C20.2498 22.2221 20.1653 22.2316 20.1119 22.2507C19.7738 22.4039 19.5246 22.7195 19.3644 23.1978C18.8305 25.3119 18.5636 26.5458 18.5636 26.8997C18.5636 27.1675 18.6348 27.3588 18.7772 27.4737C18.9196 27.5885 19.0752 27.6459 19.2443 27.6459C19.5736 27.6459 19.8983 27.488 20.2186 27.1723C20.539 26.8566 20.757 26.4692 20.8726 26.01C20.8994 25.9145 20.926 25.8618 20.9528 25.8523C20.9795 25.8427 21.0506 25.8332 21.1663 25.8235H21.2197C21.3531 25.8235 21.4199 25.8618 21.4199 25.9383C21.4199 25.9479 21.411 26.0005 21.3932 26.0962C21.2509 26.6414 20.975 27.1244 20.5657 27.5454C20.1563 27.9662 19.6803 28.1768 19.1375 28.1768C18.5147 28.1768 18.043 27.8754 17.7227 27.2728C17.3579 27.8658 16.9397 28.1623 16.4681 28.1623H16.388C15.9521 28.1623 15.6405 28.0381 15.4537 27.7893C15.2668 27.5406 15.169 27.2776 15.1602 27.0002C15.1602 26.6941 15.2446 26.4453 15.4137 26.254C15.5828 26.0627 15.783 25.9671 16.0144 25.9671C16.3969 25.9671 16.5882 26.168 16.5882 26.5697C16.5882 26.761 16.5348 26.9283 16.4281 27.0719C16.3213 27.2154 16.219 27.311 16.121 27.3588C16.0232 27.4067 15.9654 27.4306 15.9476 27.4306L15.9075 27.4449C15.9075 27.4546 15.9342 27.4737 15.9876 27.5023C16.041 27.5311 16.1122 27.5645 16.2012 27.6028C16.2901 27.641 16.3747 27.6554 16.4548 27.6459C16.7751 27.6459 17.051 27.4306 17.2823 27.0002C17.3624 26.8471 17.4647 26.5218 17.5893 26.0244C17.7139 25.527 17.8384 25.0105 17.963 24.4748C18.0876 23.9391 18.1587 23.6234 18.1766 23.5278C18.221 23.2695 18.2433 23.083 18.2433 22.9681C18.2433 22.7003 18.1766 22.509 18.043 22.3942C17.9096 22.2795 17.7584 22.2221 17.5893 22.2221C17.2334 22.2221 16.8996 22.3751 16.5882 22.6812C16.2768 22.9874 16.0587 23.3796 15.9342 23.8578C15.9164 23.9438 15.8942 23.9917 15.8675 24.0012C15.8408 24.0108 15.7697 24.0205 15.654 24.03H15.4671C15.4137 23.9726 15.387 23.92 15.387 23.8721Z" fill="#111928"/>
<path d="M21.7065 19.5187L21.7427 19.5078C21.7729 19.5078 21.8031 19.5078 21.8334 19.5078H21.9422L22.196 19.7679C22.7641 20.3817 23.1781 21.1473 23.4379 22.0645C23.6978 22.9817 23.8278 23.9351 23.8278 24.9245C23.8278 25.4156 23.7975 25.8887 23.7371 26.3436C23.6767 26.7986 23.6071 27.185 23.5286 27.5028C23.45 27.8206 23.3382 28.1384 23.1932 28.4561C23.0482 28.7739 22.9333 29.0159 22.8487 29.182C22.7641 29.3481 22.6402 29.5322 22.477 29.7344C22.3139 29.9367 22.2171 30.0559 22.1869 30.092C22.1567 30.1281 22.0872 30.1967 21.9784 30.2978C21.9603 30.3194 21.9482 30.3339 21.9422 30.3411H21.8334C21.785 30.3411 21.7518 30.3411 21.7336 30.3411C21.7155 30.3411 21.7004 30.3303 21.6883 30.3086C21.6762 30.287 21.6672 30.2545 21.6611 30.2111C21.6672 30.2039 21.7004 30.157 21.7608 30.0703C22.6976 28.9076 23.1659 27.1923 23.1659 24.9245C23.1659 22.6568 22.6976 20.9415 21.7608 19.7787C21.7004 19.692 21.6672 19.6451 21.6611 19.6378C21.6611 19.5801 21.6762 19.5403 21.7065 19.5187Z" fill="#111928"/>
<path d="M25.9912 24.0328C25.9912 23.9526 26.0216 23.8909 26.0823 23.8477H30.2269C30.292 23.897 30.3245 23.9587 30.3245 24.0328C30.3245 24.1007 30.2942 24.1594 30.2334 24.2087L28.1644 24.2181H26.0953C26.0259 24.1872 25.9912 24.1254 25.9912 24.0328ZM25.9912 25.8292C25.9912 25.7366 26.0259 25.6748 26.0953 25.644H30.2334C30.2942 25.7057 30.3245 25.7675 30.3245 25.8292C30.3245 25.9094 30.292 25.9711 30.2269 26.0143H26.0823C26.0216 25.9711 25.9912 25.9094 25.9912 25.8292Z" fill="#111928"/>
<path d="M38.9944 36.7863L38.9412 36.8405H38.6748L38.5505 36.7863C37.9822 36.5455 37.5175 36.2385 37.1564 35.8652C36.7953 35.4918 36.5615 35.0764 36.4549 34.6188C36.4252 34.4923 36.4105 34.3418 36.4105 34.1672C36.4105 33.9926 36.4046 33.0804 36.3927 31.4307C36.3868 29.4918 36.3809 28.4924 36.3749 28.4321C36.3394 28.1793 36.2744 27.9414 36.1796 27.7187C36.0849 27.4959 35.9754 27.3063 35.851 27.1497C35.7267 26.9931 35.5995 26.8517 35.4692 26.7252C35.339 26.5987 35.2147 26.4964 35.0963 26.4181C34.9779 26.3399 34.8832 26.2797 34.8121 26.2375C34.7411 26.1954 34.6967 26.1683 34.6789 26.1563C34.667 26.1321 34.6611 26.084 34.6611 26.0117C34.6611 25.9816 34.6611 25.9576 34.6611 25.9394C34.6611 25.9214 34.6641 25.9033 34.6701 25.8853C34.676 25.8673 34.6789 25.8582 34.6789 25.8582C34.6789 25.8582 34.6848 25.8521 34.6967 25.8401C34.7086 25.8281 34.7233 25.819 34.7411 25.813C34.7589 25.807 34.7736 25.798 34.7854 25.786C35.1585 25.5873 35.4899 25.3103 35.78 24.955C36.0997 24.5396 36.298 24.082 36.3749 23.5823C36.3809 23.522 36.3868 22.5226 36.3927 20.5838C36.3987 18.94 36.4016 18.0278 36.4016 17.8472C36.4016 17.6666 36.4193 17.5131 36.4549 17.3866C36.6739 16.4654 37.3665 15.7489 38.5327 15.2371L38.6748 15.1738H38.9412L38.9944 15.2281V15.3635C38.9944 15.4598 38.9885 15.5141 38.9767 15.5261L38.9057 15.5712C38.8524 15.5954 38.7843 15.6345 38.7014 15.6887C38.6186 15.7428 38.5209 15.8061 38.4084 15.8784C38.2959 15.9505 38.1864 16.0379 38.0799 16.1402C37.9733 16.2426 37.8667 16.357 37.7602 16.4835C37.6536 16.6099 37.5649 16.7544 37.4938 16.9169C37.4227 17.0795 37.3636 17.2511 37.3162 17.4318C37.2925 17.5522 37.2807 17.6967 37.2807 17.8652C37.2807 18.0339 37.2747 18.94 37.2629 20.5838C37.257 22.2215 37.254 23.1306 37.254 23.3113C37.254 23.4919 37.2363 23.6454 37.2008 23.7719C37.1475 24.0067 37.0646 24.2295 36.9521 24.4403C36.8397 24.651 36.7154 24.8316 36.5792 24.9821C36.443 25.1327 36.298 25.2711 36.1441 25.3976C35.9901 25.524 35.851 25.6264 35.7267 25.7047C35.6024 25.7829 35.4958 25.8431 35.4071 25.8853C35.3183 25.9274 35.2679 25.9576 35.2561 25.9756L35.1762 26.0027L35.3271 26.084C35.8303 26.3368 36.2447 26.65 36.5703 27.0233C36.8959 27.3966 37.106 27.803 37.2008 28.2425C37.2303 28.369 37.2452 28.5225 37.2452 28.7031C37.2452 28.8837 37.2511 29.7899 37.2629 31.4216C37.2629 31.7106 37.2629 32.0809 37.2629 32.5325C37.2688 33.7668 37.2837 34.4352 37.3073 34.5375C37.3132 34.5555 37.3162 34.5706 37.3162 34.5826C37.3458 34.7212 37.3872 34.8536 37.4406 34.98C37.4938 35.1065 37.559 35.2239 37.6358 35.3323C37.7128 35.4406 37.7898 35.543 37.8667 35.6393C37.9437 35.7356 38.0266 35.823 38.1153 35.9012C38.2042 35.9795 38.29 36.0488 38.3729 36.109C38.4558 36.1692 38.5327 36.2234 38.6038 36.2716C38.6748 36.3197 38.737 36.3589 38.7902 36.3889C38.8436 36.4191 38.8879 36.4462 38.9235 36.4702L38.9767 36.4883C38.9885 36.5003 38.9944 36.5545 38.9944 36.6509V36.7863Z" fill="#111928"/>
<path d="M41.7498 18.1119C42.134 17.6018 42.659 17.3467 43.3246 17.3467C43.654 17.3467 43.9833 17.4286 44.3127 17.5923C44.642 17.7561 44.9097 18.0459 45.1155 18.4615C45.3694 18.9843 45.4964 19.7024 45.4964 20.6156C45.4964 21.5918 45.3488 22.3382 45.0538 22.8546C44.9165 23.1192 44.7278 23.3302 44.4877 23.4876C44.2475 23.6451 44.0382 23.7427 43.8598 23.7805C43.6815 23.8183 43.5065 23.8403 43.3349 23.8467C43.1565 23.8467 42.978 23.8277 42.7997 23.7899C42.6213 23.7521 42.4119 23.6514 42.1718 23.4876C41.9317 23.3238 41.743 23.1128 41.6057 22.8546C41.3107 22.3382 41.1631 21.5918 41.1631 20.6156C41.1631 19.5196 41.3587 18.6851 41.7498 18.1119ZM44.0657 17.9986C43.8598 17.7971 43.6162 17.6963 43.3349 17.6963C43.0467 17.6963 42.7997 17.7971 42.5938 17.9986C42.4222 18.1623 42.309 18.3891 42.2542 18.6789C42.1993 18.9685 42.1718 19.5731 42.1718 20.4928C42.1718 21.4879 42.1993 22.143 42.2542 22.4578C42.309 22.7727 42.4326 23.0215 42.6247 23.2042C42.8168 23.3932 43.0535 23.4876 43.3349 23.4876C43.6094 23.4876 43.8427 23.3932 44.0348 23.2042C44.2337 23.0152 44.3573 22.7507 44.4053 22.4106C44.4533 22.0705 44.4808 21.4312 44.4877 20.4928C44.4877 19.5795 44.4602 18.978 44.4053 18.6883C44.3504 18.3985 44.2373 18.1687 44.0657 17.9986Z" fill="#111928"/>
<path d="M42.8006 29.0366L42.6369 29.0854C42.5194 29.118 42.3514 29.1504 42.133 29.183C41.9147 29.2156 41.6712 29.2383 41.4024 29.2514H41.1631V28.8023H41.4024C41.7971 28.7894 42.1624 28.7406 42.4983 28.656C42.8342 28.5714 43.0694 28.4933 43.2038 28.4218C43.3381 28.3502 43.4557 28.2787 43.5565 28.207C43.5732 28.1875 43.6236 28.1777 43.7076 28.1777C43.7832 28.1777 43.8546 28.1973 43.9217 28.2364V31.1545L43.9343 34.0823C43.9931 34.1279 44.0435 34.1572 44.0855 34.1702C44.1275 34.1832 44.2283 34.1962 44.3878 34.2092C44.5474 34.2222 44.8078 34.2287 45.1688 34.2287H45.4964V34.6777H45.3578C45.1814 34.6582 44.5139 34.6484 43.3549 34.6484C42.2128 34.6484 41.5536 34.6582 41.3771 34.6777H41.2261V34.2287H41.5536C41.7383 34.2287 41.8979 34.2287 42.0322 34.2287C42.1666 34.2287 42.2716 34.2255 42.3471 34.219C42.4228 34.2125 42.4899 34.2027 42.5487 34.1898C42.6075 34.1767 42.6411 34.1702 42.6495 34.1702C42.6579 34.1702 42.683 34.154 42.725 34.1214C42.7671 34.0888 42.7922 34.0759 42.8006 34.0823V29.0366Z" fill="#111928"/>
</svg>
