<svg width="52" height="52" viewBox="0 0 52 52" fill="none" xmlns="http://www.w3.org/2000/svg">
<path d="M9.03447 23.8628L9.52447 21.7628C9.97247 21.7348 10.4485 21.6788 10.8965 21.6228L10.9385 21.6788L9.79047 26.6348C9.76247 26.7608 9.69247 26.9988 9.69247 27.1808C9.69247 27.3488 9.74847 27.4748 9.94447 27.4748C10.2665 27.4748 10.8125 27.0968 11.2045 26.6068C11.3305 26.6908 11.4285 26.7748 11.5265 26.8868C10.8965 27.7268 10.1685 28.3568 9.27247 28.3568C8.58647 28.3568 8.30647 27.9788 8.30647 27.4468C8.30647 27.1948 8.36247 26.8868 8.46047 26.5788H8.39047C7.63447 27.8108 6.79447 28.3568 5.87047 28.3568C4.91847 28.3568 4.44247 27.7548 4.44247 26.9848C4.44247 25.9348 5.33847 23.3588 5.33847 22.6728C5.33847 22.4488 5.24047 22.3508 5.08647 22.3508C4.82047 22.3508 4.35847 22.6728 3.95247 23.1068C3.82647 23.0228 3.72847 22.9248 3.63047 22.8128C4.37247 21.9308 5.21247 21.4968 5.89847 21.4968C6.52847 21.4968 6.76647 21.8748 6.76647 22.3788C6.76647 23.3588 5.87047 25.8928 5.87047 26.8308C5.87047 27.2088 6.01047 27.5168 6.43047 27.5168C7.20047 27.5168 8.44647 26.4248 9.03447 23.8628Z" fill="#454545"/>
<path d="M15.3807 19.2954L15.6447 19.5594C14.2647 20.6514 13.5567 22.4394 13.5567 24.9234C13.5567 27.4074 14.2647 29.2074 15.6447 30.2994L15.3807 30.5514C13.4487 29.1714 12.5007 27.2874 12.5007 24.8994C12.5007 22.4874 13.4607 20.5914 15.3807 19.2954Z" fill="#454545"/>
<path d="M20.9958 26.4389C21.0798 26.4869 21.2118 26.5949 21.2718 26.6909C20.7318 27.3989 20.1438 27.8789 19.5198 27.8789C18.7278 27.8789 18.5118 27.4229 18.0798 25.7549C17.1438 27.1709 16.5918 27.8789 15.8118 27.8789C15.1998 27.8789 14.8638 27.4469 14.8638 27.0749C14.8638 26.7389 15.1278 26.4629 15.5118 26.4629C15.7998 26.4629 16.1118 26.6309 16.3398 27.0749C16.8078 26.7749 17.4798 25.8389 17.9118 25.1069C17.3958 23.0429 17.3238 22.7669 16.8918 22.7669C16.5798 22.7669 16.2078 23.1149 16.0038 23.3189C15.9198 23.2589 15.7998 23.1629 15.7278 23.0669C16.1958 22.5149 16.8198 22.0109 17.4918 22.0109C18.2478 22.0109 18.4518 22.4189 18.8358 23.9429C19.6758 22.6709 20.2998 21.9749 21.0558 21.9749C21.5838 21.9749 21.9558 22.3109 21.9558 22.7189C21.9558 23.0909 21.6798 23.3549 21.3078 23.3549C21.0558 23.3549 20.6958 23.2229 20.5398 22.7429C20.1318 22.9949 19.6158 23.6069 18.9918 24.5669C19.0038 24.6029 19.0158 24.6509 19.0278 24.6989C19.5558 26.8469 19.6518 27.1229 20.0718 27.1229C20.3958 27.1229 20.7198 26.7629 20.9958 26.4389Z" fill="#454545"/>
<path d="M21.4367 19.2959L21.1727 19.5599C22.5527 20.6519 23.2607 22.4399 23.2607 24.9239C23.2607 27.4079 22.5527 29.2079 21.1727 30.2999L21.4367 30.5519C23.3687 29.1719 24.3167 27.2879 24.3167 24.8999C24.3167 22.4879 23.3567 20.5919 21.4367 19.2959Z" fill="#454545"/>
<path d="M26.518 23.5H32.242C32.254 23.692 32.254 23.98 32.242 24.16H26.518C26.494 23.98 26.494 23.692 26.518 23.5ZM26.518 25.66H32.242C32.254 25.852 32.254 26.14 32.242 26.32H26.518C26.494 26.14 26.494 25.852 26.518 25.66Z" fill="#454545"/>
<path d="M35.8111 25.4275V25.5242C36.7778 25.959 36.9333 26.9496 36.9333 28.8582V33.4727C36.9333 35.2847 37.2111 36.1786 38 36.1786V37C36.6111 37 35.9778 36.1544 35.9778 32.8445V28.2542C35.9778 26.4664 35.7444 26.0557 35 25.8141V25.1376C35.7444 24.896 35.9778 24.4853 35.9778 22.6975V18.1313C35.9778 14.8697 36.6111 14 38 14V14.8456C37.2111 14.8456 36.9333 15.7395 36.9333 17.5032V22.1176C36.9333 24.0021 36.7778 25.0168 35.8111 25.4275Z" fill="#454545"/>
<path d="M45.772 19.792C45.772 22.048 44.764 23.704 42.856 23.704C40.984 23.704 40 22.084 40 19.924C40 17.86 40.9 16 42.952 16C44.98 16 45.772 17.788 45.772 19.792ZM42.844 16.468C41.656 16.468 41.272 18.016 41.272 19.708C41.272 21.424 41.668 23.248 42.94 23.248C44.128 23.248 44.512 21.712 44.512 19.972C44.512 18.256 44.128 16.468 42.844 16.468Z" fill="#454545"/>
<path d="M41.7309 35.2256C41.7069 35.0816 41.7069 34.9616 41.7309 34.8416C42.8709 34.7336 42.8829 34.6976 42.8829 33.8336V29.3576C42.8829 28.9616 42.8469 28.8416 42.5349 28.8416C42.3549 28.8416 41.9589 28.8896 41.4309 28.9976C41.3829 28.8656 41.3589 28.7576 41.3469 28.6136C42.5229 28.3136 43.2429 28.0496 44.2389 27.6296C44.3229 27.7136 44.3829 27.7856 44.4309 27.9056C44.2269 28.1456 44.1069 28.6376 44.1069 29.3096V33.7136C44.1069 34.7336 44.1309 34.7456 45.2949 34.8416C45.3189 34.9856 45.3189 35.0816 45.2949 35.2256C44.8749 35.2256 44.5029 35.1896 43.5549 35.1896C42.6309 35.1896 42.2229 35.2256 41.7309 35.2256Z" fill="#454545"/>
</svg>
