<svg width="52" height="52" viewBox="0 0 52 52" fill="none" xmlns="http://www.w3.org/2000/svg">
<path d="M32.5012 30.2221L31.4092 34.9541H28.8092L30.9412 25.7241C31.0625 25.2215 31.1232 24.8921 31.1232 24.7361C31.1232 24.3201 30.9672 24.1121 30.6552 24.1121C30.4125 24.1121 30.0918 24.2508 29.6932 24.5281C29.3118 24.7881 28.9305 25.1175 28.5492 25.5161C28.4278 25.4295 28.3152 25.3428 28.2112 25.2561C28.1245 25.1695 28.0378 25.0741 27.9512 24.9701C28.6445 24.1555 29.3552 23.5488 30.0832 23.1501C30.8285 22.7341 31.5218 22.5261 32.1632 22.5261C32.7525 22.5261 33.1685 22.6735 33.4112 22.9681C33.6538 23.2628 33.7752 23.6095 33.7752 24.0081C33.7752 24.2161 33.7405 24.4675 33.6712 24.7621C33.6192 25.0395 33.5672 25.3341 33.5152 25.6461H33.5932C34.2518 24.5888 35.0232 23.8001 35.9072 23.2801C36.8085 22.7428 37.6752 22.4741 38.5072 22.4741C39.3392 22.4741 39.9718 22.7081 40.4052 23.1761C40.8558 23.6268 41.0812 24.1815 41.0812 24.8401C41.0812 25.2041 41.0118 25.6895 40.8732 26.2961C40.7518 26.9028 40.5958 27.5528 40.4052 28.2461C40.2145 28.9395 40.0238 29.6241 39.8332 30.3001C39.6425 30.9588 39.4778 31.5481 39.3392 32.0681C39.2178 32.5708 39.1572 32.9261 39.1572 33.1341C39.1572 33.2555 39.1918 33.3681 39.2612 33.4721C39.3305 33.5761 39.4518 33.6281 39.6252 33.6281C39.9198 33.6281 40.2925 33.4721 40.7432 33.1601C41.1938 32.8481 41.6012 32.4668 41.9652 32.0161C42.1905 32.1721 42.3898 32.3455 42.5632 32.5361C41.9738 33.3161 41.3325 33.9661 40.6392 34.4861C39.9632 35.0061 39.2092 35.2661 38.3772 35.2661C37.7358 35.2661 37.2678 35.1101 36.9732 34.7981C36.6785 34.4688 36.5312 34.0615 36.5312 33.5761C36.5312 33.2295 36.5918 32.7701 36.7132 32.1981C36.8518 31.6261 37.0165 31.0021 37.2072 30.3261C37.3978 29.6501 37.5798 28.9828 37.7532 28.3241C37.9438 27.6481 38.0998 27.0328 38.2212 26.4781C38.3598 25.9235 38.4292 25.4901 38.4292 25.1781C38.4292 24.8315 38.3512 24.5455 38.1952 24.3201C38.0392 24.0948 37.7618 23.9821 37.3632 23.9821C36.8605 23.9821 36.2972 24.1988 35.6732 24.6321C35.0492 25.0655 34.4512 25.7241 33.8792 26.6081C33.3245 27.4921 32.8825 28.6275 32.5532 30.0141L32.5012 30.2221Z" fill="#454545"/>
<path d="M26.6327 32.016C26.858 32.172 27.0574 32.3453 27.2307 32.536C26.6414 33.316 26 33.966 25.3067 34.486C24.6307 35.006 23.8767 35.266 23.0447 35.266C22.4033 35.266 21.9353 35.11 21.6407 34.798C21.346 34.4687 21.1987 34.0353 21.1987 33.498C21.1987 33.3073 21.216 33.108 21.2507 32.9C21.2854 32.6747 21.3287 32.4493 21.3807 32.224L22.9407 25.724C23.062 25.2213 23.1227 24.892 23.1227 24.736C23.1227 24.32 22.9667 24.112 22.6547 24.112C22.412 24.112 22.0913 24.2507 21.6927 24.528C21.3113 24.788 20.93 25.1173 20.5487 25.516C20.4273 25.4293 20.3147 25.3427 20.2107 25.256C20.124 25.1693 20.0374 25.074 19.9507 24.97C20.644 24.1553 21.3547 23.5487 22.0827 23.15C22.828 22.734 23.5214 22.526 24.1627 22.526C24.752 22.526 25.168 22.682 25.4107 22.994C25.6707 23.2887 25.8007 23.6613 25.8007 24.112C25.8007 24.268 25.7834 24.4413 25.7487 24.632C25.7314 24.8053 25.7053 24.9873 25.6707 25.178L24.0067 32.094C23.9893 32.2153 23.9547 32.3713 23.9027 32.562C23.8507 32.7353 23.8247 32.9087 23.8247 33.082C23.8247 33.238 23.8593 33.368 23.9287 33.472C23.998 33.576 24.1194 33.628 24.2927 33.628C24.5874 33.628 24.96 33.472 25.4107 33.16C25.8614 32.848 26.2687 32.4667 26.6327 32.016ZM25.4367 19.51C24.9687 19.51 24.5874 19.354 24.2927 19.042C23.998 18.73 23.8507 18.3487 23.8507 17.898C23.8507 17.378 24.0327 16.936 24.3967 16.572C24.778 16.1907 25.2287 16 25.7487 16C26.2167 16 26.5894 16.156 26.8667 16.468C27.144 16.7627 27.2827 17.1353 27.2827 17.586C27.2827 18.106 27.1094 18.5567 26.7627 18.938C26.416 19.3193 25.974 19.51 25.4367 19.51Z" fill="#454545"/>
<path d="M13.238 35.266C11.8687 35.266 10.82 35.0233 10.092 34.538C9.364 34.0527 9 33.5413 9 33.004C9 32.7093 9.11267 32.432 9.338 32.172C9.56333 31.912 9.89267 31.782 10.326 31.782C10.7593 31.782 11.106 31.9033 11.366 32.146C11.6433 32.3887 11.8513 32.7007 11.99 33.082C12.146 33.4633 12.25 33.8447 12.302 34.226C12.4927 34.278 12.6747 34.3127 12.848 34.33C13.0387 34.3473 13.2207 34.356 13.394 34.356C14.1047 34.356 14.7027 34.2087 15.188 33.914C15.6733 33.602 15.916 33.1427 15.916 32.536C15.916 31.9987 15.708 31.548 15.292 31.184C14.876 30.8027 14.2693 30.3433 13.472 29.806C13.004 29.4767 12.5533 29.1387 12.12 28.792C11.6867 28.428 11.3313 28.0293 11.054 27.596C10.7767 27.1627 10.638 26.6773 10.638 26.14C10.638 25.5853 10.8027 25.0307 11.132 24.476C11.4787 23.904 12.016 23.436 12.744 23.072C13.472 22.6907 14.3993 22.5 15.526 22.5C16.774 22.5 17.71 22.7167 18.334 23.15C18.958 23.5833 19.27 24.0513 19.27 24.554C19.27 24.814 19.1747 25.0827 18.984 25.36C18.8107 25.6373 18.4987 25.776 18.048 25.776C17.476 25.776 17.034 25.5507 16.722 25.1C16.4273 24.632 16.2453 24.138 16.176 23.618C15.812 23.5313 15.448 23.488 15.084 23.488C14.3907 23.488 13.862 23.6527 13.498 23.982C13.134 24.294 12.952 24.7013 12.952 25.204C12.952 25.7413 13.16 26.2093 13.576 26.608C14.0093 26.9893 14.6333 27.4573 15.448 28.012C15.916 28.324 16.3667 28.662 16.8 29.026C17.2333 29.3727 17.5887 29.7713 17.866 30.222C18.1433 30.6553 18.282 31.1753 18.282 31.782C18.282 32.51 18.0653 33.134 17.632 33.654C17.1987 34.174 16.6007 34.5727 15.838 34.85C15.0753 35.1273 14.2087 35.266 13.238 35.266Z" fill="#454545"/>
</svg>
