<svg width="52" height="52" viewBox="0 0 52 52" fill="none" xmlns="http://www.w3.org/2000/svg">
<g clip-path="url(#clip0_285_6055)">
<path d="M52 0H0V52H52V0Z" fill="#D0F0FD"/>
<path d="M28.9306 22.6726C28.4366 22.6726 28.0433 22.508 27.7506 22.1787C27.4578 21.8493 27.3115 21.4469 27.3115 20.9712C27.3115 19.6723 27.7963 18.5472 28.7659 17.5959C29.7355 16.6445 30.943 16.1689 32.3882 16.1689C34.053 16.1689 35.4434 16.6811 36.5594 17.7056C37.6754 18.7301 38.2425 20.0565 38.2608 21.6847C38.2608 22.4714 38.0779 23.2214 37.712 23.9349C37.3461 24.6484 36.907 25.2704 36.3948 25.801C35.8825 26.3315 35.1507 27.0084 34.1994 27.8317C33.5408 28.3988 32.6261 29.2404 31.4552 30.3563L29.8361 31.8931L31.9217 31.9205C34.794 31.9205 36.3216 31.8748 36.5045 31.7833C36.6326 31.7467 36.8521 30.9326 37.1631 29.341V29.2587H38.2608V29.341C38.2425 29.3959 38.1236 30.2283 37.9041 31.8382C37.6845 33.4481 37.5473 34.2897 37.4924 34.3628V34.4452H27.3115V33.9238V33.5945C27.3115 33.4664 27.3664 33.3292 27.4761 33.1828C27.5859 33.0365 27.8603 32.7163 28.2994 32.2224C28.8299 31.637 29.2873 31.1247 29.6715 30.6856C29.8361 30.5027 30.1472 30.1642 30.6045 29.6703C31.0619 29.1763 31.3729 28.8379 31.5375 28.6549C31.7022 28.472 31.9675 28.1701 32.3334 27.7494C32.6992 27.3286 32.9554 27.0176 33.1017 26.8163C33.2481 26.6151 33.4585 26.3407 33.7329 25.9931C34.0073 25.6455 34.1994 25.3528 34.3092 25.1149C34.4189 24.8771 34.5561 24.6118 34.7208 24.3191C34.8854 24.0264 35.0044 23.7337 35.0775 23.441C35.1507 23.1483 35.2148 22.8738 35.2696 22.6177C35.3245 22.3616 35.352 22.0597 35.352 21.7121C35.352 20.5596 35.041 19.5625 34.4189 18.721C33.7969 17.8794 32.9096 17.4586 31.7571 17.4586C31.1534 17.4586 30.6228 17.6142 30.1654 17.9252C29.7081 18.2362 29.3879 18.538 29.205 18.8307C29.022 19.1235 28.9306 19.2973 28.9306 19.3521C28.9306 19.3704 28.9763 19.3796 29.0678 19.3796C29.3971 19.3796 29.7355 19.5076 30.0831 19.7638C30.4307 20.0199 30.6045 20.4407 30.6045 21.0261C30.6045 21.4835 30.4582 21.8676 30.1654 22.1787C29.8727 22.4897 29.4611 22.6543 28.9306 22.6726Z" fill="black"/>
<path d="M5.68767 29.3491C5.5779 29.3491 5.44984 29.276 5.30348 29.1296C5.15712 28.9832 5.0748 28.8552 5.0565 28.7454C5.03821 28.6356 5.32178 28.3612 5.9072 27.9222C6.49263 27.4831 7.09635 27.0257 7.71837 26.5501C8.34038 26.0744 8.68798 25.8091 8.76116 25.7543C8.79775 25.7177 8.84348 25.6994 8.89837 25.6994H8.92581C9.03558 25.6994 9.16364 25.8549 9.30999 26.1659C9.45635 26.4769 9.9503 27.5471 10.7918 29.3766C11.1394 30.1632 11.423 30.7944 11.6425 31.2701L13.9751 36.3468C13.9934 36.3468 14.9447 34.3984 16.829 30.5017C18.7134 26.605 20.5977 22.6808 22.4821 18.7291C24.3664 14.7775 25.3452 12.756 25.4183 12.6645C25.5281 12.4084 25.7111 12.2803 25.9672 12.2803C26.0952 12.2803 26.205 12.3352 26.2965 12.4449C26.388 12.5547 26.452 12.6645 26.4886 12.7742V12.9389L20.0946 26.1933L13.6458 39.5301C13.5726 39.6581 13.3988 39.7222 13.1244 39.7222C12.9597 39.7222 12.85 39.6947 12.7951 39.6398C12.7585 39.6033 11.8621 37.664 10.1058 33.8222L7.47139 28.0594L7.03232 28.3612C6.7579 28.5808 6.47433 28.8003 6.18162 29.0198C5.88891 29.2394 5.72426 29.3491 5.68767 29.3491Z" fill="black"/>
<path d="M39.6605 13.9238H25.9395V12.2773H39.6605V13.9238Z" fill="black"/>
<path d="M39 15.8887H26V37.5554H39V15.8887Z" fill="#C4C4C4"/>
</g>
<defs>
<clipPath id="clip0_285_6055">
<rect width="52" height="52" rx="4" fill="white"/>
</clipPath>
</defs>
</svg>
