<svg width="53" height="53" viewBox="0 0 53 53" fill="none" xmlns="http://www.w3.org/2000/svg">
<g filter="url(#filter0_d)">
<rect width="52" height="52" fill="white"/>
<path d="M32.9985 25.8758C32.9985 25.9828 32.8992 26.1355 32.7006 26.3341H29.1266C27.2021 26.3341 26.0031 26.3264 25.5296 26.3112C25.0561 26.2959 24.6131 26.2195 24.2007 26.082C23.0858 25.8071 22.1006 25.2878 21.2453 24.5241C20.3899 23.7604 19.7637 22.8593 19.3666 21.8206C19.1527 21.2097 19.0458 20.4918 19.0458 19.667C19.0458 18.8422 19.1527 18.132 19.3666 17.5363C19.7942 16.345 20.5197 15.3445 21.5431 14.535C22.5664 13.7255 23.7349 13.2291 25.0484 13.0458C25.0637 13.0458 25.2699 13.0458 25.667 13.0458C26.0641 13.0458 26.5758 13.0382 27.2021 13.0229C27.8283 13.0076 28.4392 13 29.0349 13H32.7006C32.7312 13.0458 32.777 13.0993 32.8381 13.1604C32.8992 13.2215 32.9374 13.2673 32.9527 13.2978C32.9679 13.3284 32.9832 13.3818 32.9985 13.4582C33.0137 13.5346 32.9145 13.6873 32.7006 13.9164H29.1724C26.698 13.9164 25.3768 13.9317 25.2088 13.9623C24.0786 14.1303 23.0705 14.5427 22.1846 15.1994C21.2987 15.8562 20.6648 16.6886 20.283 17.6967C20.0692 18.2771 19.9623 18.9339 19.9623 19.667C19.9623 20.4002 20.0692 21.0646 20.283 21.6603C20.6648 22.6531 21.2987 23.4779 22.1846 24.1346C23.0705 24.7914 24.0786 25.2038 25.2088 25.3718C25.3768 25.4024 26.698 25.4176 29.1724 25.4176H32.7006C32.7312 25.4635 32.777 25.5169 32.8381 25.578C32.8992 25.6391 32.9374 25.6849 32.9527 25.7155C32.9679 25.746 32.9832 25.7995 32.9985 25.8758ZM19 32.0388C19 32.0388 19 31.9854 19 31.8785C19 31.7715 19.0993 31.6035 19.2978 31.3744H27.7061L28.8745 29.9998L30.1575 28.5335C30.2339 28.4571 30.3332 28.4189 30.4554 28.4189C30.5776 28.4189 30.6845 28.4648 30.7761 28.5564C30.8678 28.648 30.9136 28.755 30.9136 28.8772C30.9136 28.923 30.8983 28.9764 30.8678 29.0375C30.8678 29.1292 30.5241 29.5339 29.8368 30.2518L28.9204 31.3286L30.8678 31.3744H32.7465C32.9145 31.5424 32.9985 31.6875 32.9985 31.8097C32.9985 31.9319 32.8992 32.0923 32.7006 32.2909H28.1185L26.6293 34.0779L25.1172 35.8191L28.9204 35.8649H32.7465C32.9145 36.0329 32.9985 36.1704 32.9985 36.2773C32.9985 36.3842 32.8992 36.5523 32.7006 36.7814H24.2924L23.0781 38.2018C22.5283 38.8586 22.1617 39.2786 21.9784 39.4619C21.7951 39.6452 21.6424 39.7445 21.5202 39.7598C21.398 39.7598 21.2987 39.6987 21.2223 39.5765C21.146 39.4543 21.1002 39.3397 21.0849 39.2328C21.1002 39.2175 21.4438 38.7899 22.1159 37.9498L23.0781 36.7814H21.1994L19.252 36.7355L19.0916 36.621C19.0305 36.5446 19 36.4453 19 36.3232C19 36.1857 19.084 36.0329 19.252 35.8649H21.5889L23.88 35.8191L25.415 34.0779L26.8813 32.2909H23.0781L19.252 32.245L19.0916 32.1534C19.0305 32.077 19 31.9854 19 31.8785V32.0388Z" fill="black"/>
</g>
<defs>
<filter id="filter0_d" x="0" y="0" width="53" height="53" filterUnits="userSpaceOnUse" color-interpolation-filters="sRGB">
<feFlood flood-opacity="0" result="BackgroundImageFix"/>
<feColorMatrix in="SourceAlpha" type="matrix" values="0 0 0 0 0 0 0 0 0 0 0 0 0 0 0 0 0 0 127 0" result="hardAlpha"/>
<feOffset dx="1" dy="1"/>
<feColorMatrix type="matrix" values="0 0 0 0 0 0 0 0 0 0 0 0 0 0 0 0 0 0 0.25 0"/>
<feBlend mode="normal" in2="BackgroundImageFix" result="effect1_dropShadow"/>
<feBlend mode="normal" in="SourceGraphic" in2="effect1_dropShadow" result="shape"/>
</filter>
</defs>
</svg>
