<svg width="53" height="53" viewBox="0 0 53 53" fill="none" xmlns="http://www.w3.org/2000/svg">
<rect width="53" height="53" rx="4" fill="#D0F0FD"/>
<path d="M22.259 15.2998C23.1278 14.6558 24.1165 14.251 25.2272 14.0859L25.2272 14.086L25.2312 14.0853C25.2618 14.0797 25.3647 14.073 25.5549 14.0672C25.7398 14.0615 25.9971 14.0567 26.3271 14.0529C26.987 14.0452 27.9353 14.0414 29.1724 14.0414H32.7006H32.7549L32.792 14.0017C32.9009 13.885 32.9848 13.7835 33.0403 13.6982C33.068 13.6556 33.0909 13.6135 33.1058 13.5729C33.1201 13.5338 33.1312 13.4848 33.1211 13.4338L33.1211 13.4337C33.1056 13.3565 33.0878 13.2888 33.0647 13.2422L33.0644 13.2418C33.039 13.191 32.9869 13.1324 32.9265 13.072C32.8684 13.0139 32.8288 12.9669 32.8045 12.9306L32.7674 12.875H32.7006H29.0349C28.4381 12.875 27.8262 12.8826 27.199 12.8979C26.5733 12.9132 26.0627 12.9208 25.667 12.9208H25.6647H25.6624H25.66H25.6577H25.6554H25.6531H25.6508H25.6485H25.6462H25.644H25.6417H25.6394H25.6371H25.6349H25.6326H25.6303H25.6281H25.6258H25.6236H25.6213H25.6191H25.6169H25.6146H25.6124H25.6102H25.608H25.6058H25.6036H25.6014H25.5992H25.597H25.5948H25.5926H25.5904H25.5882H25.5861H25.5839H25.5817H25.5796H25.5774H25.5753H25.5731H25.571H25.5689H25.5667H25.5646H25.5625H25.5603H25.5582H25.5561H25.554H25.5519H25.5498H25.5477H25.5456H25.5436H25.5415H25.5394H25.5373H25.5353H25.5332H25.5311H25.5291H25.527H25.525H25.523H25.5209H25.5189H25.5169H25.5148H25.5128H25.5108H25.5088H25.5068H25.5048H25.5028H25.5008H25.4988H25.4968H25.4948H25.4929H25.4909H25.4889H25.487H25.485H25.4831H25.4811H25.4792H25.4772H25.4753H25.4734H25.4714H25.4695H25.4676H25.4657H25.4638H25.4619H25.46H25.4581H25.4562H25.4543H25.4524H25.4505H25.4486H25.4468H25.4449H25.443H25.4412H25.4393H25.4375H25.4356H25.4338H25.432H25.4301H25.4283H25.4265H25.4247H25.4229H25.4211H25.4192H25.4174H25.4157H25.4139H25.4121H25.4103H25.4085H25.4067H25.405H25.4032H25.4014H25.3997H25.3979H25.3962H25.3944H25.3927H25.391H25.3892H25.3875H25.3858H25.3841H25.3824H25.3807H25.3789H25.3772H25.3756H25.3739H25.3722H25.3705H25.3688H25.3671H25.3655H25.3638H25.3621H25.3605H25.3588H25.3572H25.3555H25.3539H25.3523H25.3506H25.349H25.3474H25.3458H25.3442H25.3426H25.341H25.3394H25.3378H25.3362H25.3346H25.333H25.3314H25.3299H25.3283H25.3267H25.3252H25.3236H25.3221H25.3205H25.319H25.3174H25.3159H25.3144H25.3128H25.3113H25.3098H25.3083H25.3068H25.3053H25.3038H25.3023H25.3008H25.2993H25.2978H25.2964H25.2949H25.2934H25.292H25.2905H25.289H25.2876H25.2861H25.2847H25.2833H25.2818H25.2804H25.279H25.2776H25.2761H25.2747H25.2733H25.2719H25.2705H25.2691H25.2677H25.2663H25.265H25.2636H25.2622H25.2609H25.2595H25.2581H25.2568H25.2554H25.2541H25.2527H25.2514H25.2501H25.2487H25.2474H25.2461H25.2448H25.2435H25.2422H25.2409H25.2396H25.2383H25.237H25.2357H25.2344H25.2331H25.2319H25.2306H25.2293H25.2281H25.2268H25.2256H25.2243H25.2231H25.2219H25.2206H25.2194H25.2182H25.217H25.2157H25.2145H25.2133H25.2121H25.2109H25.2097H25.2085H25.2074H25.2062H25.205H25.2038H25.2027H25.2015H25.2003H25.1992H25.198H25.1969H25.1958H25.1946H25.1935H25.1924H25.1912H25.1901H25.189H25.1879H25.1868H25.1857H25.1846H25.1835H25.1824H25.1813H25.1802H25.1792H25.1781H25.177H25.176H25.1749H25.1739H25.1728H25.1718H25.1707H25.1697H25.1687H25.1676H25.1666H25.1656H25.1646H25.1636H25.1626H25.1616H25.1606H25.1596H25.1586H25.1576H25.1566H25.1557H25.1547H25.1537H25.1528H25.1518H25.1508H25.1499H25.149H25.148H25.1471H25.1461H25.1452H25.1443H25.1434H25.1425H25.1416H25.1407H25.1398H25.1389H25.138H25.1371H25.1362H25.1353H25.1344H25.1336H25.1327H25.1319H25.131H25.1301H25.1293H25.1285H25.1276H25.1268H25.1259H25.1251H25.1243H25.1235H25.1227H25.1219H25.1211H25.1203H25.1195H25.1187H25.1179H25.1171H25.1163H25.1156H25.1148H25.114H25.1133H25.1125H25.1118H25.111H25.1103H25.1095H25.1088H25.1081H25.1073H25.1066H25.1059H25.1052H25.1045H25.1038H25.1031H25.1024H25.1017H25.101H25.1003H25.0996H25.099H25.0983H25.0976H25.097H25.0963H25.0957H25.095H25.0944H25.0937H25.0931H25.0925H25.0919H25.0912H25.0906H25.09H25.0894H25.0888H25.0882H25.0876H25.087H25.0864H25.0858H25.0853H25.0847H25.0841H25.0836H25.083H25.0825H25.0819H25.0814H25.0808H25.0803H25.0797H25.0792H25.0787H25.0782H25.0777H25.0771H25.0766H25.0761H25.0756H25.0751H25.0747H25.0742H25.0737H25.0732H25.0727H25.0723H25.0718H25.0713H25.0709H25.0704H25.07H25.0696H25.0691H25.0687H25.0683H25.0678H25.0674H25.067H25.0666H25.0662H25.0658H25.0654H25.065H25.0646H25.0642H25.0638H25.0635H25.0631H25.0627H25.0624H25.062H25.0616H25.0613H25.0609H25.0606H25.0603H25.0599H25.0596H25.0593H25.059H25.0587H25.0583H25.058H25.0577H25.0574H25.0571H25.0569H25.0566H25.0563H25.056H25.0557H25.0555H25.0552H25.055H25.0547H25.0545H25.0542H25.054H25.0537H25.0535H25.0533H25.0531H25.0528H25.0526H25.0524H25.0522H25.052H25.0518H25.0516H25.0514H25.0512H25.0511H25.0509H25.0507H25.0506H25.0504H25.0502H25.0501H25.0499H25.0498H25.0497H25.0495H25.0494H25.0493H25.0491H25.049H25.0489H25.0488H25.0487H25.0486H25.0485H25.0484H25.0397L25.0311 12.922C23.696 13.1083 22.5066 13.6134 21.4655 14.437C20.4244 15.2605 19.6847 16.2801 19.249 17.4941C19.029 18.1067 18.9208 18.8319 18.9208 19.667C18.9208 20.5022 19.029 21.2347 19.2486 21.8619L19.2486 21.8619L19.2498 21.8652C19.6543 22.9232 20.2922 23.8408 21.162 24.6173C22.0313 25.3935 23.0332 25.9221 24.1659 26.2022C24.5894 26.3428 25.0429 26.4205 25.5256 26.4361L25.5256 26.4361C26.0016 26.4514 27.2029 26.4591 29.1266 26.4591H32.7006H32.7524L32.789 26.4225C32.8915 26.32 32.9726 26.2252 33.0288 26.1387C33.0834 26.0547 33.1235 25.9651 33.1235 25.8758V25.8634L33.1211 25.8512C33.1056 25.7743 33.0878 25.7064 33.0646 25.6597L33.0645 25.6596C33.039 25.6087 32.9869 25.55 32.9265 25.4896C32.8683 25.4314 32.8288 25.3846 32.8046 25.3483L32.7675 25.2926H32.7006H29.1724C27.9353 25.2926 26.987 25.2888 26.3271 25.2812C25.9971 25.2774 25.7398 25.2726 25.5549 25.2669C25.3647 25.2611 25.2618 25.2544 25.2312 25.2488L25.2312 25.2488L25.2272 25.2482C24.1165 25.0831 23.1278 24.6783 22.259 24.0342L22.259 24.0342C21.3919 23.3914 20.7732 22.586 20.4002 21.6168C20.1923 21.0369 20.0873 20.3875 20.0873 19.667C20.0873 18.9462 20.1924 18.3046 20.4001 17.7405C20.7732 16.7555 21.3921 15.9426 22.259 15.2998ZM22.259 15.2998L22.1846 15.1994M22.259 15.2998L22.1846 15.1994M22.1846 15.1994C21.2987 15.8562 20.6648 16.6886 20.283 17.6967L19.3666 21.8206C19.1527 21.2097 19.0458 20.4918 19.0458 19.667C19.0458 18.8422 19.1527 18.132 19.3666 17.5363C19.7942 16.345 20.5197 15.3445 21.5431 14.535C22.5664 13.7255 23.7349 13.2291 25.0484 13.0458H25.667C26.0641 13.0458 26.5758 13.0382 27.2021 13.0229C27.8283 13.0076 28.4392 13 29.0349 13H32.7006C32.7312 13.0458 32.777 13.0993 32.8381 13.1604C32.8992 13.2215 32.9374 13.2673 32.9527 13.2978C32.9679 13.3284 32.9832 13.3818 32.9985 13.4582C33.0137 13.5346 32.9145 13.6873 32.7006 13.9164H29.1724C26.698 13.9164 25.3768 13.9317 25.2088 13.9623C24.0786 14.1303 23.0705 14.5427 22.1846 15.1994ZM30.8645 28.468C30.7511 28.3546 30.613 28.2939 30.4554 28.2939C30.3048 28.2939 30.1721 28.3421 30.0691 28.4451L30.0689 28.4449L30.0634 28.4512L28.7804 29.9175L28.7793 29.9188L27.6483 31.2494H19.2978H19.2407L30.7761 28.5564M30.8645 28.468L30.7761 28.5564M30.8645 28.468C30.8645 28.468 30.8645 28.468 30.8644 28.468L30.7761 28.5564M30.8645 28.468C30.9781 28.5815 31.0386 28.7197 31.0386 28.8772C31.0386 28.9432 31.0189 29.0098 30.9887 29.0745M30.7761 28.5564C30.8678 28.648 30.9136 28.755 30.9136 28.8772C30.9136 28.923 30.8983 28.9764 30.8678 29.0375M30.9887 29.0745C30.9912 29.0627 30.9928 29.0503 30.9928 29.0375H30.8678M30.9887 29.0745C30.9828 29.1022 30.9717 29.1263 30.9632 29.143C30.9489 29.1714 30.9292 29.2028 30.9061 29.2361C30.8597 29.3031 30.7922 29.3884 30.7053 29.4907C30.5315 29.6955 30.2725 29.9774 29.9296 30.3356M30.9887 29.0745C30.9858 29.0808 30.9828 29.0871 30.9796 29.0933L30.8678 29.0375M30.8678 29.0375L29.9296 30.3356M29.9296 30.3356C29.9288 30.3365 29.9279 30.3374 29.9271 30.3382L29.8368 30.2518L29.932 30.3328L29.9296 30.3356ZM29.0247 31.206L28.9204 31.3286L29.0813 31.3324L29.1856 31.2098L29.0247 31.206ZM26.7196 32.2909L26.617 32.4159H26.7787L26.8813 32.2909H26.7196ZM21.5889 35.7399H21.5876L21.5864 35.7399L21.5889 35.8649V35.7399ZM23.7862 35.7364L23.88 35.8191L23.8775 35.6941L23.8226 35.6952L23.7862 35.7364ZM23.1735 38.2826C23.1736 38.2824 23.1738 38.2822 23.174 38.282L23.0781 38.2018L23.1731 38.283L23.1735 38.2826ZM22.8132 36.9064H22.9752L23.0781 36.7814H22.9162L22.8132 36.9064ZM28.9211 35.7399H28.9204V35.8649L28.9219 35.7399L28.9211 35.7399ZM25.281 35.8211L25.3885 35.6974L25.2246 35.6954L25.1172 35.8191L25.281 35.8211ZM30.8707 31.2494L30.8693 31.2494H30.8678V31.3744L30.8707 31.2494ZM28.1185 32.4159H28.177L28.2145 32.3709L28.1185 32.2909V32.4159ZM24.2924 36.9064H24.35L24.3874 36.8626L24.2924 36.7814V36.9064ZM25.3212 33.9952L25.3198 33.9969L25.3184 33.9986L25.415 34.0779L25.3212 33.9952ZM18.875 32.0388H18.8958C18.8818 31.9879 18.875 31.9343 18.875 31.8785V31.8791V31.8798V31.8804V31.881V31.8816V31.8822V31.8829V31.8835V31.8841V31.8847V31.8853V31.8859V31.8865V31.8871V31.8878V31.8884V31.889V31.8896V31.8902V31.8908V31.8914V31.892V31.8926V31.8932V31.8938V31.8944V31.895V31.8956V31.8962V31.8967V31.8973V31.8979V31.8985V31.8991V31.8997V31.9003V31.9008V31.9014V31.902V31.9026V31.9032V31.9037V31.9043V31.9049V31.9054V31.906V31.9066V31.9072V31.9077V31.9083V31.9089V31.9094V31.91V31.9105V31.9111V31.9117V31.9122V31.9128V31.9133V31.9139V31.9144V31.915V31.9155V31.9161V31.9166V31.9172V31.9177V31.9183V31.9188V31.9193V31.9199V31.9204V31.921V31.9215V31.922V31.9226V31.9231V31.9236V31.9242V31.9247V31.9252V31.9257V31.9263V31.9268V31.9273V31.9278V31.9284V31.9289V31.9294V31.9299V31.9304V31.9309V31.9315V31.932V31.9325V31.933V31.9335V31.934V31.9345V31.935V31.9355V31.936V31.9365V31.937V31.9375V31.938V31.9385V31.939V31.9395V31.94V31.9405V31.941V31.9415V31.9419V31.9424V31.9429V31.9434V31.9439V31.9444V31.9448V31.9453V31.9458V31.9463V31.9468V31.9472V31.9477V31.9482V31.9486V31.9491V31.9496V31.95V31.9505V31.951V31.9514V31.9519V31.9524V31.9528V31.9533V31.9537V31.9542V31.9546V31.9551V31.9556V31.956V31.9565V31.9569V31.9573V31.9578V31.9582V31.9587V31.9591V31.9596V31.96V31.9604V31.9609V31.9613V31.9618V31.9622V31.9626V31.963V31.9635V31.9639V31.9643V31.9648V31.9652V31.9656V31.966V31.9665V31.9669V31.9673V31.9677V31.9681V31.9685V31.969V31.9694V31.9698V31.9702V31.9706V31.971V31.9714V31.9718V31.9722V31.9726V31.973V31.9734V31.9738V31.9742V31.9746V31.975V31.9754V31.9758V31.9762V31.9766V31.977V31.9774V31.9778V31.9781V31.9785V31.9789V31.9793V31.9797V31.98V31.9804V31.9808V31.9812V31.9816V31.9819V31.9823V31.9827V31.983V31.9834V31.9838V31.9841V31.9845V31.9849V31.9852V31.9856V31.986V31.9863V31.9867V31.987V31.9874V31.9877V31.9881V31.9884V31.9888V31.9891V31.9895V31.9898V31.9902V31.9905V31.9909V31.9912V31.9916V31.9919V31.9922V31.9926V31.9929V31.9932V31.9936V31.9939V31.9942V31.9946V31.9949V31.9952V31.9955V31.9959V31.9962V31.9965V31.9968V31.9972V31.9975V31.9978V31.9981V31.9984V31.9987V31.9991V31.9994V31.9997V32V32.0003V32.0006V32.0009V32.0012V32.0015V32.0018V32.0021V32.0024V32.0027V32.003V32.0033V32.0036V32.0039V32.0042V32.0045V32.0048V32.005V32.0053V32.0056V32.0059V32.0062V32.0065V32.0067V32.007V32.0073V32.0076V32.0079V32.0081V32.0084V32.0087V32.0089V32.0092V32.0095V32.0097V32.01V32.0103V32.0105V32.0108V32.0111V32.0113V32.0116V32.0118V32.0121V32.0124V32.0126V32.0129V32.0131V32.0134V32.0136V32.0139V32.0141V32.0143V32.0146V32.0148V32.0151V32.0153V32.0156V32.0158V32.016V32.0163V32.0165V32.0167V32.017V32.0172V32.0174V32.0177V32.0179V32.0181V32.0183V32.0186V32.0188V32.019V32.0192V32.0194V32.0196V32.0199V32.0201V32.0203V32.0205V32.0207V32.0209V32.0211V32.0213V32.0215V32.0218V32.022V32.0222V32.0224V32.0226V32.0228V32.023V32.0232V32.0233V32.0235V32.0237V32.0239V32.0241V32.0243V32.0245V32.0247V32.0249V32.025V32.0252V32.0254V32.0256V32.0258V32.0259V32.0261V32.0263V32.0265V32.0266V32.0268V32.027V32.0272V32.0273V32.0275V32.0277V32.0278V32.028V32.0282V32.0283V32.0285V32.0286V32.0288V32.0289V32.0291V32.0292V32.0294V32.0296V32.0297V32.0299V32.03V32.0301V32.0303V32.0304V32.0306V32.0307V32.0309V32.031V32.0311V32.0313V32.0314V32.0315V32.0317V32.0318V32.0319V32.0321V32.0322V32.0323V32.0324V32.0326V32.0327V32.0328V32.0329V32.033V32.0332V32.0333V32.0334V32.0335V32.0336V32.0337V32.0338V32.034V32.0341V32.0342V32.0343V32.0344V32.0345V32.0346V32.0347V32.0348V32.0349V32.035V32.0351V32.0352V32.0353V32.0354V32.0355V32.0355V32.0356V32.0357V32.0358V32.0359V32.036V32.0361V32.0361V32.0362V32.0363V32.0364V32.0364V32.0365V32.0366V32.0367V32.0367V32.0368V32.0369V32.037V32.037V32.0371V32.0371V32.0372V32.0373V32.0373V32.0374V32.0374V32.0375V32.0376V32.0376V32.0377V32.0377V32.0378V32.0378V32.0379V32.0379V32.038V32.038V32.038V32.0381V32.0381V32.0382V32.0382V32.0382V32.0383V32.0383V32.0384V32.0384V32.0384V32.0384V32.0385V32.0385V32.0385V32.0386V32.0386V32.0386V32.0386V32.0386V32.0387V32.0387V32.0387V32.0387V32.0387V32.0388V32.0388V32.0388Z" fill="#111928" stroke="#111928" stroke-width="0.25"/>
</svg>
