<svg width="53" height="53" viewBox="0 0 53 53" fill="none" xmlns="http://www.w3.org/2000/svg">
<g filter="url(#filter0_d)">
<rect width="52" height="52" fill="none"/>
<path d="M16.075 14.7193C16.105 14.6993 19.1308 14.6893 25.1523 14.6893H34.1845L35.0548 16.7148C35.6449 18.0952 35.96 18.8254 36 18.9054H35.3999L35.2948 18.6953C35.0848 18.2852 34.8047 17.8951 34.4546 17.525C33.9545 17.0449 33.3993 16.6598 32.7892 16.3698C32.179 16.0797 31.4739 15.8646 30.6737 15.7246C29.8735 15.5846 29.1183 15.4995 28.4081 15.4695C27.6979 15.4395 26.7827 15.4195 25.6624 15.4095H23.7869H23.3218H18.9407L19.0608 15.5746C23.6919 21.9061 26.0175 25.1019 26.0375 25.1619C26.0475 25.182 26.0475 25.212 26.0375 25.252C26.0075 25.282 24.6872 26.7924 22.0765 29.7831L18.1155 34.2842C18.1155 34.2942 19.1708 34.2992 21.2813 34.2992C21.8015 34.2992 22.5066 34.2992 23.3968 34.2992C24.2871 34.2992 24.9272 34.3042 25.3173 34.3142C26.6777 34.3142 27.7779 34.2892 28.6182 34.2392C29.4584 34.1892 30.2936 34.0842 31.1238 33.9241C31.954 33.7641 32.6592 33.519 33.2393 33.189C33.8195 32.8589 34.3346 32.4238 34.7847 31.8836C34.9947 31.6236 35.1998 31.2635 35.3999 30.8034H36C36 30.8134 35.965 30.9184 35.895 31.1184C35.825 31.3185 35.6999 31.6436 35.5199 32.0937C35.3398 32.5438 35.1848 32.9639 35.0548 33.354L34.1845 35.6796L25.1673 35.6946C19.1458 35.6946 16.12 35.6846 16.09 35.6646C16.03 35.6446 16 35.5996 16 35.5295C16 35.5095 16.01 35.4795 16.03 35.4395L24.027 26.2872C24.027 26.2772 23.862 26.0522 23.5319 25.6121C23.2018 25.172 22.6767 24.4518 21.9565 23.4515C21.2363 22.4513 20.5861 21.561 20.006 20.7809L16.015 15.3045L16 15.0794C16 14.8694 16.025 14.7493 16.075 14.7193Z" fill="black"/>
<path d="M26.1288 38.849C26.1288 38.6793 26.1959 38.5308 26.3303 38.4035C26.4647 38.2762 26.6203 38.2091 26.797 38.202C26.9243 38.202 27.0304 38.2444 27.1153 38.3293C27.2001 38.4141 27.2461 38.5202 27.2532 38.6475C27.2532 38.8102 27.1825 38.9587 27.041 39.093C26.8996 39.2274 26.744 39.2981 26.5743 39.3052C26.4682 39.3052 26.3692 39.2698 26.2773 39.1991C26.1853 39.1284 26.1358 39.0117 26.1288 38.849ZM24.3997 42.1692C24.3997 42.1127 24.4315 42.0031 24.4952 41.8404C24.5588 41.6778 24.6437 41.4974 24.7498 41.2994C24.8558 41.1014 25.0114 40.9211 25.2165 40.7584C25.4216 40.5958 25.6337 40.518 25.853 40.5251C26.1288 40.5251 26.3586 40.6064 26.5425 40.769C26.7263 40.9317 26.8218 41.1509 26.8289 41.4267C26.8289 41.5469 26.7794 41.7449 26.6804 42.0207C26.5814 42.2965 26.4399 42.6678 26.2561 43.1345C26.0722 43.6013 25.9237 44.0008 25.8105 44.3332C25.7752 44.4888 25.7575 44.6019 25.7575 44.6726C25.7575 44.8494 25.8176 44.9378 25.9378 44.9378C26.0015 44.9378 26.0687 44.9272 26.1394 44.906C26.2101 44.8848 26.2914 44.8353 26.3833 44.7575C26.4753 44.6797 26.5708 44.556 26.6698 44.3862C26.7688 44.2165 26.8572 44.0079 26.9349 43.7604C26.9562 43.6755 26.9738 43.626 26.988 43.6119C27.0021 43.5977 27.0622 43.5907 27.1683 43.5907C27.3098 43.5907 27.3805 43.626 27.3805 43.6967C27.3805 43.7533 27.3486 43.8629 27.285 44.0256C27.2214 44.1882 27.133 44.3686 27.0198 44.5666C26.9067 44.7646 26.7475 44.9414 26.5425 45.097C26.3374 45.2525 26.1182 45.3303 25.8848 45.3303C25.6585 45.3303 25.4499 45.2561 25.2589 45.1076C25.068 44.9591 24.969 44.7328 24.9619 44.4287C24.9619 44.3085 24.9796 44.1953 25.015 44.0892C25.0503 43.9832 25.2024 43.5801 25.4711 42.88C25.7398 42.1657 25.8954 41.7379 25.9378 41.5964C25.9803 41.455 26.005 41.3171 26.0121 41.1827C26.0121 41.013 25.952 40.9281 25.8318 40.9281H25.8105C25.5984 40.9281 25.4039 41.0448 25.2271 41.2782C25.0503 41.5116 24.916 41.8086 24.824 42.1692C24.817 42.1763 24.8099 42.1869 24.8028 42.2011C24.7957 42.2152 24.7922 42.2258 24.7922 42.2329C24.7922 42.24 24.7851 42.247 24.771 42.2541C24.7568 42.2612 24.7462 42.2647 24.7392 42.2647C24.7321 42.2647 24.7179 42.2647 24.6967 42.2647C24.6755 42.2647 24.6472 42.2647 24.6119 42.2647H24.4634C24.4209 42.2223 24.3997 42.1905 24.3997 42.1692Z" fill="black"/>
<path d="M23.0482 8.64458C23.0552 8.60215 23.0658 8.54558 23.08 8.47486C23.0941 8.40414 23.1366 8.26978 23.2073 8.07177C23.278 7.87376 23.3487 7.70757 23.4194 7.57321C23.4901 7.43885 23.6068 7.30802 23.7695 7.18073C23.9321 7.05344 24.0948 6.99333 24.2574 7.0004C24.512 7.0004 24.7242 7.06404 24.8939 7.19133C25.0636 7.31863 25.1697 7.43885 25.2121 7.552C25.2545 7.66514 25.2758 7.7394 25.2758 7.77476C25.2758 7.7889 25.2793 7.79597 25.2864 7.79597L25.4031 7.67929C25.8344 7.22669 26.3259 7.0004 26.8775 7.0004C27.2594 7.0004 27.567 7.09587 27.8004 7.2868C28.0338 7.47774 28.154 7.75708 28.161 8.12481C28.1681 8.49254 28.0338 9.04767 27.758 9.79021C27.4822 10.5327 27.3478 10.9818 27.3549 11.1374C27.3549 11.3212 27.415 11.4132 27.5352 11.4132C27.5776 11.4132 27.6094 11.4096 27.6307 11.4026C27.8357 11.3672 28.0196 11.2329 28.1823 10.9995C28.3449 10.7661 28.4687 10.4832 28.5535 10.1509C28.5677 10.0943 28.6384 10.066 28.7657 10.066C28.9071 10.066 28.9778 10.0943 28.9778 10.1509C28.9778 10.1579 28.9637 10.211 28.9354 10.31C28.8788 10.5151 28.801 10.7166 28.702 10.9146C28.603 11.1126 28.4404 11.3106 28.2141 11.5086C27.9878 11.7067 27.7438 11.8021 27.4822 11.7951C27.1498 11.7951 26.9093 11.6996 26.7608 11.5086C26.6123 11.3177 26.5381 11.1197 26.5381 10.9146C26.5381 10.7803 26.6654 10.356 26.9199 9.6417C27.1745 8.92745 27.3054 8.39 27.3124 8.02934C27.3124 7.61211 27.1569 7.40349 26.8457 7.40349H26.7927C26.1845 7.40349 25.6718 7.76061 25.2545 8.47486L25.1803 8.60215L24.8302 10.0236C24.5969 10.95 24.4625 11.4485 24.4272 11.5193C24.3352 11.7102 24.1832 11.8057 23.971 11.8057C23.8791 11.8057 23.8048 11.7844 23.7483 11.742C23.6917 11.6996 23.6528 11.6572 23.6316 11.6147C23.6104 11.5723 23.6033 11.5369 23.6104 11.5086C23.6104 11.4167 23.7447 10.8404 24.0135 9.7796C24.2822 8.71884 24.4236 8.14249 24.4378 8.05055C24.4448 8.0152 24.4484 7.93387 24.4484 7.80658C24.4484 7.53078 24.3635 7.39288 24.1938 7.39288C23.9251 7.39288 23.7023 7.74647 23.5255 8.45365C23.4831 8.59508 23.4619 8.66933 23.4619 8.67641C23.4477 8.71884 23.3805 8.74005 23.2603 8.74005H23.1118C23.0694 8.69762 23.0482 8.6658 23.0482 8.64458Z" fill="black"/>
</g>
<defs>
<filter id="filter0_d" x="0" y="0" width="53" height="53" filterUnits="userSpaceOnUse" color-interpolation-filters="sRGB">
<feFlood flood-opacity="0" result="BackgroundImageFix"/>
<feColorMatrix in="SourceAlpha" type="matrix" values="0 0 0 0 0 0 0 0 0 0 0 0 0 0 0 0 0 0 127 0" result="hardAlpha"/>
<feOffset dx="1" dy="1"/>
<feColorMatrix type="matrix" values="0 0 0 0 0 0 0 0 0 0 0 0 0 0 0 0 0 0 0.25 0"/>
<feBlend mode="normal" in2="BackgroundImageFix" result="effect1_dropShadow"/>
<feBlend mode="normal" in="SourceGraphic" in2="effect1_dropShadow" result="shape"/>
</filter>
</defs>
</svg>
