<svg width="52" height="52" viewBox="0 0 52 52" fill="none" xmlns="http://www.w3.org/2000/svg">
<path d="M19 37V34.7199L26.1515 25.6303L19.303 17.3109V15H33.6364V17.465H25.8485C25.404 17.465 24.8586 17.465 24.2121 17.465C23.5859 17.465 23.1111 17.4547 22.7879 17.4342L29 24.9216V25.7535L22.1212 34.535C22.8889 34.535 23.6263 34.535 24.3333 34.535C25.0606 34.5145 25.8283 34.5042 26.6364 34.5042H34V37H19Z" fill="#454545"/>
<path d="M26.5901 39.4113C26.2301 39.4113 25.9801 39.1413 25.9801 38.7913C25.9801 38.3913 26.3101 38.0613 26.7101 38.0613C27.0701 38.0613 27.3001 38.3213 27.3001 38.6713C27.3001 39.0713 27.0001 39.4113 26.5901 39.4113ZM27.0501 44.2213C27.1401 44.2813 27.2101 44.3413 27.2801 44.4213C26.8301 45.0213 26.3101 45.4713 25.6701 45.4713C25.1801 45.4713 24.9601 45.2013 24.9601 44.7913C24.9601 44.6413 24.9901 44.4813 25.0301 44.3013L25.6301 41.8013C25.6801 41.5913 25.7001 41.5013 25.7001 41.4213C25.7001 41.2513 25.6301 41.1813 25.5201 41.1813C25.3301 41.1813 25.0001 41.4113 24.7101 41.7213C24.6201 41.6613 24.5501 41.5913 24.4801 41.5113C25.0101 40.8813 25.6101 40.5713 26.1001 40.5713C26.5501 40.5713 26.7301 40.8413 26.7301 41.1813C26.7301 41.3013 26.7101 41.4413 26.6801 41.5913L26.0401 44.2513C26.0201 44.3413 25.9701 44.5013 25.9701 44.6313C25.9701 44.7513 26.0101 44.8413 26.1501 44.8413C26.3801 44.8413 26.7701 44.5713 27.0501 44.2213Z" fill="#454545"/>
<path d="M24.973 9.84293L24.533 11.7429H23.533L24.353 8.19293C24.403 7.98293 24.423 7.89293 24.423 7.81293C24.423 7.64293 24.353 7.57293 24.243 7.57293C24.053 7.57293 23.723 7.80293 23.433 8.11293C23.343 8.05293 23.273 7.98293 23.203 7.90293C23.733 7.27293 24.323 6.96293 24.823 6.96293C25.273 6.96293 25.443 7.23293 25.443 7.53293C25.443 7.69293 25.393 7.92293 25.343 8.16293H25.373C25.883 7.35293 26.623 6.94293 27.263 6.94293C27.903 6.94293 28.253 7.34293 28.253 7.85293C28.253 8.56293 27.513 10.6329 27.513 11.0429C27.513 11.1329 27.553 11.2329 27.693 11.2329C27.923 11.2329 28.313 10.9629 28.593 10.6129C28.683 10.6729 28.753 10.7329 28.823 10.8129C28.373 11.4129 27.853 11.8629 27.213 11.8629C26.723 11.8629 26.503 11.5829 26.503 11.2129C26.503 10.5429 27.233 8.58293 27.233 7.98293C27.233 7.72293 27.123 7.52293 26.823 7.52293C26.243 7.52293 25.353 8.25293 24.973 9.84293Z" fill="#454545"/>
</svg>
