<svg width="53" height="53" viewBox="0 0 53 53" fill="none" xmlns="http://www.w3.org/2000/svg">
<g filter="url(#filter0_d)">
<rect width="52" height="52" fill="none"/>
<path d="M25.8969 13.9165C29.5859 13.9165 32.0835 16.6203 32.0835 19.6219C32.0835 22.7381 29.4943 25.3502 25.9198 25.3502H19.802C19.4124 25.3502 19 25.3502 19 25.8085C19 26.2668 19.4124 26.2668 19.802 26.2668H25.9885C29.838 26.2668 33 23.3568 33 19.6448C33 15.91 29.8609 13 25.9656 13H19.802C19.4124 13 19 13 19 13.4583C19 13.9165 19.4124 13.9165 19.802 13.9165H25.8969ZM28.1195 32.1784H32.198C32.5876 32.1784 33 32.1784 33 31.7201C33 31.2619 32.5876 31.2619 32.198 31.2619H28.9214C29.1277 31.0098 30.0213 29.9787 30.4795 29.4517C30.9149 28.9705 30.9149 28.9247 30.9149 28.7643C30.9149 28.5123 30.6858 28.3061 30.4566 28.3061C30.2504 28.3061 30.2275 28.329 29.7463 28.856L27.707 31.2619H19.802C19.4124 31.2619 19 31.2619 19 31.7201C19 32.1784 19.4124 32.1784 19.802 32.1784H26.9051L23.8805 35.707H19.802C19.4124 35.707 19 35.707 19 36.1653C19 36.6236 19.4124 36.6236 19.802 36.6236H23.0786C22.8723 36.8756 21.8871 38.0213 21.5205 38.4337C21.0851 38.9149 21.0851 38.9607 21.0851 39.1211C21.0851 39.3732 21.3142 39.5794 21.5434 39.5794C21.7496 39.5794 21.7725 39.5565 22.2537 39.0295L24.293 36.6236H32.198C32.5876 36.6236 33 36.6236 33 36.1653C33 35.707 32.5876 35.707 32.198 35.707H25.0949L28.1195 32.1784Z" fill="black"/>
</g>
<defs>
<filter id="filter0_d" x="0" y="0" width="53" height="53" filterUnits="userSpaceOnUse" color-interpolation-filters="sRGB">
<feFlood flood-opacity="0" result="BackgroundImageFix"/>
<feColorMatrix in="SourceAlpha" type="matrix" values="0 0 0 0 0 0 0 0 0 0 0 0 0 0 0 0 0 0 127 0" result="hardAlpha"/>
<feOffset dx="1" dy="1"/>
<feColorMatrix type="matrix" values="0 0 0 0 0 0 0 0 0 0 0 0 0 0 0 0 0 0 0.25 0"/>
<feBlend mode="normal" in2="BackgroundImageFix" result="effect1_dropShadow"/>
<feBlend mode="normal" in="SourceGraphic" in2="effect1_dropShadow" result="shape"/>
</filter>
</defs>
</svg>
