<svg width="53" height="53" viewBox="0 0 53 53" fill="none" xmlns="http://www.w3.org/2000/svg">
<g filter="url(#filter0_d_531_2738)">
<rect width="52" height="52" fill="white"/>
<path d="M35.9383 13.9933L36.2047 19.6232H35.53C35.4004 18.6318 35.2228 17.9236 34.9973 17.4987C34.6298 16.8136 34.1451 16.3126 33.5415 15.9939C32.9378 15.6752 32.133 15.5106 31.1269 15.4982H27.7357V33.8396C27.7357 35.3148 27.8955 36.2354 28.2151 36.6014C28.6648 37.0971 29.3573 37.345 30.2924 37.345H31.1269V38H20.918V37.345H21.7702C22.7881 37.345 23.5102 37.0381 23.9363 36.4243C24.1967 36.0467 24.3269 35.1851 24.3269 33.8396V15.4982H21.4329C20.3085 15.4982 19.5095 15.5814 19.036 15.746C18.4205 15.9709 17.8939 16.4011 17.4559 17.0384C17.0179 17.6758 16.7576 18.538 16.6747 19.6232H16L16.2841 13.9933H35.9383Z" fill="black"/>
</g>
<defs>
<filter id="filter0_d_531_2738" x="0" y="0" width="53" height="53" filterUnits="userSpaceOnUse" color-interpolation-filters="sRGB">
<feFlood flood-opacity="0" result="BackgroundImageFix"/>
<feColorMatrix in="SourceAlpha" type="matrix" values="0 0 0 0 0 0 0 0 0 0 0 0 0 0 0 0 0 0 127 0" result="hardAlpha"/>
<feOffset dx="1" dy="1"/>
<feColorMatrix type="matrix" values="0 0 0 0 0 0 0 0 0 0 0 0 0 0 0 0 0 0 0.25 0"/>
<feBlend mode="normal" in2="BackgroundImageFix" result="effect1_dropShadow_531_2738"/>
<feBlend mode="normal" in="SourceGraphic" in2="effect1_dropShadow_531_2738" result="shape"/>
</filter>
</defs>
</svg>
