<svg width="53" height="53" viewBox="0 0 53 53" fill="none" xmlns="http://www.w3.org/2000/svg">
<g filter="url(#filter0_d_531_2740)">
<rect width="52" height="52" fill="none"/>
<path d="M27.5399 19.8722L27.025 24.9532C26.9434 25.8384 26.9008 26.7236 26.9008 27.6088C26.9008 29.296 27.0961 30.3176 27.4867 30.6716C27.8773 31.0257 28.3336 31.2081 28.8538 31.2205C29.99 31.2205 30.6647 30.5052 30.8778 29.0783H31.5347C31.1441 32.3588 29.8374 34 27.6109 34C25.2798 34 24.1133 32.6651 24.1133 29.9989C24.1133 28.6534 24.2447 26.9768 24.5039 24.9709L25.1608 19.8722H23.4031C22.4337 19.8722 21.6809 20.0315 21.1483 20.3502C20.6157 20.6689 20.1132 21.3239 19.6392 22.3153H19C19.3799 21.0159 19.8291 19.989 20.3493 19.2348C20.8713 18.4789 21.3685 17.9654 21.8407 17.6946C22.3148 17.4219 23.0196 17.2874 23.9535 17.2874H32.6887V19.8722H27.5399Z" fill="black"/>
</g>
<defs>
<filter id="filter0_d_531_2740" x="0" y="0" width="53" height="53" filterUnits="userSpaceOnUse" color-interpolation-filters="sRGB">
<feFlood flood-opacity="0" result="BackgroundImageFix"/>
<feColorMatrix in="SourceAlpha" type="matrix" values="0 0 0 0 0 0 0 0 0 0 0 0 0 0 0 0 0 0 127 0" result="hardAlpha"/>
<feOffset dx="1" dy="1"/>
<feColorMatrix type="matrix" values="0 0 0 0 0 0 0 0 0 0 0 0 0 0 0 0 0 0 0.25 0"/>
<feBlend mode="normal" in2="BackgroundImageFix" result="effect1_dropShadow_531_2740"/>
<feBlend mode="normal" in="SourceGraphic" in2="effect1_dropShadow_531_2740" result="shape"/>
</filter>
</defs>
</svg>
