<svg width="52" height="52" viewBox="0 0 52 52" fill="none" xmlns="http://www.w3.org/2000/svg">
<rect width="52" height="52" rx="4" fill="#D0F0FD"/>
<path d="M23.6656 15.8113C23.6656 14.9992 23.9467 14.3277 24.5089 13.7967C25.0711 13.2658 25.7426 13.0003 26.5234 13.0003C27.273 13.0003 27.9133 13.2658 28.4443 13.7967C28.9752 14.3277 29.2563 14.9992 29.2876 15.8113C29.3188 16.6233 29.0533 17.2948 28.4911 17.8258C27.9289 18.3568 27.2574 18.6223 26.4766 18.6223C25.6645 18.6223 24.993 18.3568 24.462 17.8258C23.9311 17.2948 23.6656 16.6233 23.6656 15.8113ZM14.811 33.2862C15.623 33.2862 16.2789 33.5517 16.7787 34.0827C17.2784 34.6136 17.5439 35.2852 17.5751 36.0972C17.5751 36.8468 17.3253 37.5027 16.8255 38.0649C16.3258 38.6271 15.6387 38.9082 14.7641 38.9082C13.9521 38.9082 13.2962 38.6427 12.7964 38.1118C12.2967 37.5808 12.0312 36.9093 12 36.0972C12 35.2852 12.2655 34.6136 12.7964 34.0827C13.3274 33.5517 13.9989 33.2862 14.811 33.2862ZM35.4249 36.0972C35.4249 35.2852 35.6904 34.6136 36.2213 34.0827C36.7523 33.5517 37.4238 33.2862 38.2359 33.2862C38.9855 33.2862 39.6257 33.5517 40.1567 34.0827C40.6877 34.6136 40.9688 35.2852 41 36.0972C41 36.8156 40.7501 37.4559 40.2504 38.0181C39.7507 38.5803 39.0635 38.877 38.189 38.9082C37.377 38.9082 36.7211 38.6427 36.2213 38.1118C35.7216 37.5808 35.4561 36.9093 35.4249 36.0972Z" fill="black"/>
</svg>
