<svg width="53" height="53" viewBox="0 0 53 53" fill="none" xmlns="http://www.w3.org/2000/svg">
<g filter="url(#filter0_d)">
<rect width="52" height="52" fill="white"/>
<path d="M23.6656 15.811C23.6656 14.999 23.9467 14.3275 24.5089 13.7965C25.0711 13.2655 25.7426 13 26.5234 13C27.273 13 27.9133 13.2655 28.4443 13.7965C28.9752 14.3275 29.2563 14.999 29.2876 15.811C29.3188 16.6231 29.0533 17.2946 28.4911 17.8256C27.9289 18.3565 27.2574 18.622 26.4766 18.622C25.6645 18.622 24.993 18.3565 24.462 17.8256C23.9311 17.2946 23.6656 16.6231 23.6656 15.811ZM14.811 33.286C15.623 33.286 16.2789 33.5515 16.7787 34.0824C17.2784 34.6134 17.5439 35.2849 17.5751 36.097C17.5751 36.8466 17.3253 37.5025 16.8255 38.0647C16.3258 38.6269 15.6387 38.908 14.7641 38.908C13.9521 38.908 13.2962 38.6425 12.7964 38.1115C12.2967 37.5805 12.0312 36.909 12 36.097C12 35.2849 12.2655 34.6134 12.7964 34.0824C13.3274 33.5515 13.9989 33.286 14.811 33.286ZM35.4249 36.097C35.4249 35.2849 35.6904 34.6134 36.2213 34.0824C36.7523 33.5515 37.4238 33.286 38.2359 33.286C38.9855 33.286 39.6257 33.5515 40.1567 34.0824C40.6877 34.6134 40.9688 35.2849 41 36.097C41 36.8153 40.7501 37.4556 40.2504 38.0178C39.7507 38.58 39.0635 38.8767 38.189 38.908C37.377 38.908 36.7211 38.6425 36.2213 38.1115C35.7216 37.5805 35.4561 36.909 35.4249 36.097Z" fill="black"/>
</g>
<defs>
<filter id="filter0_d" x="0" y="0" width="53" height="53" filterUnits="userSpaceOnUse" color-interpolation-filters="sRGB">
<feFlood flood-opacity="0" result="BackgroundImageFix"/>
<feColorMatrix in="SourceAlpha" type="matrix" values="0 0 0 0 0 0 0 0 0 0 0 0 0 0 0 0 0 0 127 0" result="hardAlpha"/>
<feOffset dx="1" dy="1"/>
<feColorMatrix type="matrix" values="0 0 0 0 0 0 0 0 0 0 0 0 0 0 0 0 0 0 0.25 0"/>
<feBlend mode="normal" in2="BackgroundImageFix" result="effect1_dropShadow"/>
<feBlend mode="normal" in="SourceGraphic" in2="effect1_dropShadow" result="shape"/>
</filter>
</defs>
</svg>
