<svg width="53" height="53" viewBox="0 0 53 53" fill="none" xmlns="http://www.w3.org/2000/svg">
<g filter="url(#filter0_d_531_2717)">
<rect width="52" height="52" fill="none"/>
<path d="M26.4392 13.3646C28.4396 13.3646 30.1262 14.5277 31.4992 16.8523C32.8722 19.1768 33.5587 22.2166 33.5587 25.9698C33.5587 30.0064 32.8189 33.1872 31.3394 35.5123C29.8599 37.8374 28.1495 39 26.2083 39C24.3028 39 22.6278 37.8728 21.1838 35.6185C19.7398 33.3642 19.0119 30.2955 19 26.4124C19 22.5294 19.716 19.384 21.1483 16.9762C22.5806 14.5685 24.3441 13.3646 26.4392 13.3646ZM30.2564 25.5804C30.2564 18.1217 28.9425 14.3914 26.3149 14.3914C23.6162 14.3914 22.2668 18.1217 22.2668 25.5804H30.2564ZM22.2668 26.678C22.2668 30.5375 22.6278 33.382 23.3499 35.2113C24.0719 37.0407 25.0424 37.9613 26.2616 37.9732C28.9012 37.9732 30.2328 34.2081 30.2564 26.678H22.2668Z" fill="black"/>
</g>
<defs>
<filter id="filter0_d_531_2717" x="0" y="0" width="53" height="53" filterUnits="userSpaceOnUse" color-interpolation-filters="sRGB">
<feFlood flood-opacity="0" result="BackgroundImageFix"/>
<feColorMatrix in="SourceAlpha" type="matrix" values="0 0 0 0 0 0 0 0 0 0 0 0 0 0 0 0 0 0 127 0" result="hardAlpha"/>
<feOffset dx="1" dy="1"/>
<feColorMatrix type="matrix" values="0 0 0 0 0 0 0 0 0 0 0 0 0 0 0 0 0 0 0.25 0"/>
<feBlend mode="normal" in2="BackgroundImageFix" result="effect1_dropShadow_531_2717"/>
<feBlend mode="normal" in="SourceGraphic" in2="effect1_dropShadow_531_2717" result="shape"/>
</filter>
</defs>
</svg>
