<svg width="52" height="52" viewBox="0 0 52 52" fill="none" xmlns="http://www.w3.org/2000/svg">
<path d="M36.3172 34.3049L35.5343 37.7805H33.7549L35.214 31.2866C35.303 30.9024 35.3385 30.7378 35.3385 30.5915C35.3385 30.2805 35.214 30.1524 35.0183 30.1524C34.6802 30.1524 34.093 30.5732 33.577 31.1402C33.4168 31.0305 33.2923 30.9024 33.1677 30.7561C34.1108 29.6037 35.1606 29.0366 36.0503 29.0366C36.851 29.0366 37.1535 29.5305 37.1535 30.0793C37.1535 30.372 37.0645 30.7927 36.9756 31.2317H37.0289C37.9364 29.75 39.2531 29 40.3919 29C41.5307 29 42.1535 29.7317 42.1535 30.6646C42.1535 31.9634 40.8368 35.75 40.8368 36.5C40.8368 36.6646 40.9079 36.8476 41.157 36.8476C41.5663 36.8476 42.2603 36.3537 42.7585 35.7134C42.9186 35.8232 43.0432 35.9329 43.1677 36.0793C42.367 37.1768 41.4417 38 40.303 38C39.4311 38 39.0396 37.4878 39.0396 36.811C39.0396 35.5854 40.3385 32 40.3385 30.9024C40.3385 30.4268 40.1428 30.061 39.609 30.061C38.577 30.061 36.9933 31.3963 36.3172 34.3049Z" fill="#454545"/>
<path d="M35.0604 27.7801H33.1677L35.6012 16.4738C35.6785 16.1257 35.7364 15.8325 35.7364 15.6492C35.7364 15.1911 35.3694 15.1361 34.1334 15.1178C34.1141 15.0262 34.0948 14.9162 34.0948 14.8063C34.0948 14.7513 34.0948 14.6963 34.1141 14.623C35.5046 14.5314 36.8952 14.3665 37.8609 14L38.1119 14.1283C37.8029 15.1728 37.5325 16.3272 37.3008 17.4267L36.7021 20.1754L36.3351 21.6047H36.4317C37.687 19.9005 39.0583 18.9843 40.5068 18.9843C41.7235 18.9843 42.1484 19.6623 42.1484 20.3586C42.1484 21.5131 41.0476 22.4843 38.3823 23.4738C39.5411 26.534 39.7922 26.7356 40.1205 26.7356C40.584 26.7356 41.1827 26.3141 41.7235 25.7094C41.8973 25.8194 42.0325 25.9293 42.1677 26.0759C41.2021 27.3037 40.1205 28 39.2128 28C38.1119 28 37.7064 27.1021 36.451 23.5288C39.6763 22.466 40.275 21.3848 40.275 20.6885C40.275 20.3403 40.1205 20.1021 39.6763 20.1021C38.4596 20.1021 36.3158 21.9895 35.8716 24.0602L35.0604 27.7801Z" fill="#454545"/>
<path d="M16.08 17.848V29.624C16.08 33.752 17.744 35.96 21.584 35.96C25.872 35.96 27.28 33.272 27.28 29.496V18.968C27.216 17.88 26.832 17.24 26.256 16.856C25.712 16.504 25.008 16.28 24.208 16.184V15H32.4V16.184C31.76 16.28 31.12 16.44 30.576 16.728C29.872 17.112 29.36 17.816 29.328 19.032V29.528C29.328 34.392 26.672 37.624 20.848 37.624C15.92 37.624 12.752 35.288 12.752 29.88V18.104C12.752 17.208 12.496 16.664 11.888 16.504C11.44 16.376 10.608 16.344 10 16.312V15H18.832V16.312C17.904 16.408 17.392 16.376 16.944 16.504C16.4 16.664 16.112 17.112 16.08 17.848Z" fill="#454545"/>
</svg>
