<svg width="52" height="52" viewBox="0 0 52 52" fill="none" xmlns="http://www.w3.org/2000/svg">
<rect width="52" height="52" rx="4" fill="#D0F0FD"/>
<path d="M36.8347 14.1146C37.8536 14.0382 38.3503 14 38.3248 14C38.4394 14 38.5158 14.0446 38.554 14.1337C38.5668 14.1847 38.2548 15.4965 37.6179 18.0692L36.6436 21.9282L36.7392 21.8709C37.0958 21.6544 37.6116 21.2277 38.2866 20.5909C38.7069 20.1834 39.0444 19.8713 39.2991 19.6548C39.9996 19.069 40.6682 18.7888 41.305 18.8142C41.5088 18.827 41.6744 18.8715 41.8017 18.948C42.0692 19.0881 42.2539 19.3428 42.3558 19.7121C42.4322 20.0178 42.4449 20.368 42.394 20.7629C42.2794 21.3742 42.0055 21.7881 41.5725 22.0046C41.2159 22.1702 40.8784 22.1829 40.56 22.0428C40.1906 21.8645 40.0505 21.5398 40.1397 21.0685C40.1906 20.8138 40.3116 20.5782 40.5027 20.3617C40.7574 20.1324 41.0312 19.9987 41.3241 19.9605C41.4006 19.9605 41.4388 19.9541 41.4388 19.9414C41.4388 19.9032 41.3942 19.8395 41.305 19.7503C41.1649 19.6484 40.8848 19.6739 40.4645 19.8268C40.2734 19.8904 40.0505 20.0114 39.7958 20.1897C39.4774 20.3935 39.0062 20.8011 38.3821 21.4124C37.9873 21.7945 37.688 22.0747 37.4842 22.253C37.4205 22.3039 37.4078 22.3358 37.446 22.3485C37.4842 22.3485 37.567 22.3612 37.6944 22.3867C38.1401 22.5013 38.4713 22.616 38.6878 22.7306C39.21 22.9726 39.5729 23.3037 39.7767 23.724C39.8659 23.9023 39.9104 24.1379 39.9104 24.4308C39.9104 24.6346 39.8913 24.8257 39.8531 25.004C39.7767 25.3224 39.7385 25.6153 39.7385 25.8828C39.7385 26.1757 39.7831 26.3667 39.8722 26.4559C39.9741 26.5578 40.1397 26.5832 40.3689 26.5323C40.509 26.4941 40.6364 26.4113 40.751 26.2839C41.0185 26.0165 41.2732 25.4179 41.5152 24.4882C41.5407 24.399 41.6362 24.3481 41.8017 24.3353C41.84 24.3353 41.9036 24.3353 41.9928 24.3353C42.2348 24.3353 42.3685 24.3481 42.394 24.3735C42.4704 24.4245 42.4704 24.5773 42.394 24.832C42.2029 25.5198 41.9291 26.0993 41.5725 26.5705C41.2541 27.0163 40.8784 27.2965 40.4454 27.4111C40.3562 27.4366 40.2034 27.4493 39.9869 27.4493C39.7576 27.4493 39.592 27.4366 39.4902 27.4111C39.2227 27.3347 39.0062 27.2391 38.8406 27.1245C38.3821 26.8189 38.1147 26.354 38.0382 25.7299C38.0128 25.4752 38.0319 25.2268 38.0956 24.9849C38.1592 24.6537 38.1592 24.3926 38.0956 24.2016C37.9172 23.7049 37.4142 23.3674 36.5863 23.1891L36.3571 23.1509L35.8986 24.9467C35.5802 26.182 35.4082 26.8252 35.3828 26.8762C35.2554 27.1436 35.0389 27.3283 34.7332 27.4302C34.5295 27.4811 34.3257 27.4748 34.1219 27.4111C33.9691 27.3474 33.8481 27.2328 33.7589 27.0672C33.6952 26.9653 33.6825 26.8316 33.7207 26.666C33.7589 26.4113 34.1983 24.5964 35.0389 21.2214C35.9814 17.4769 36.4271 15.5474 36.3762 15.4328C36.287 15.3437 36.0132 15.2927 35.5547 15.28C35.249 15.28 35.0771 15.2354 35.0389 15.1462C35.0134 15.108 35.0325 14.9616 35.0962 14.7069C35.1599 14.4394 35.2108 14.2929 35.249 14.2675C35.2872 14.2292 35.3255 14.2101 35.3637 14.2101L36.8347 14.1146Z" fill="#111928"/>
<path d="M35.0975 29.7693C35.2885 29.7183 35.5496 29.7183 35.8808 29.7693C36.6067 29.9476 37.0779 30.3424 37.2945 30.9537L37.3327 31.0683L37.5428 30.8773C37.7848 30.6353 38.0077 30.4506 38.2115 30.3233C38.8483 29.9157 39.5487 29.7183 40.3129 29.731C41.0389 29.7693 41.5929 29.973 41.975 30.3424C42.4717 30.8264 42.6436 31.5332 42.4908 32.4629C42.3634 33.2016 42.0132 34.3224 41.44 35.8253C41.2235 36.4239 41.1153 36.8441 41.1153 37.0861C41.1153 37.2899 41.1599 37.4173 41.249 37.4682C41.3509 37.5192 41.5101 37.5064 41.7266 37.43C42.2233 37.239 42.6245 36.7104 42.9302 35.8444C42.9556 35.7552 42.9811 35.6661 43.0066 35.5769C43.0703 35.3859 43.1339 35.284 43.1976 35.2712C43.2358 35.2585 43.3505 35.2521 43.5415 35.2521C43.7835 35.2521 43.9236 35.2649 43.9618 35.2903C43.9873 35.3158 44 35.3668 44 35.4432C44 35.6597 43.8726 36.0227 43.6179 36.5321C43.3887 37.0033 43.1085 37.3918 42.7773 37.6975C42.2806 38.1687 41.7393 38.3979 41.1535 38.3852C40.4275 38.347 39.9181 38.0477 39.6252 37.4873C39.5105 37.2581 39.4532 36.997 39.4532 36.704C39.466 36.4493 39.5424 36.15 39.6825 35.8062C40.1664 34.4816 40.4785 33.52 40.6186 32.9214C40.8223 32.1573 40.8606 31.5714 40.7332 31.1639C40.6313 30.8072 40.383 30.6289 39.9881 30.6289C38.9183 30.6289 38.014 31.2466 37.2754 32.482L37.1607 32.6922L36.5303 35.1757C36.1355 36.8059 35.9062 37.6784 35.8425 37.793C35.6642 38.1751 35.3649 38.3725 34.9447 38.3852C34.7409 38.3852 34.5626 38.3279 34.4097 38.2133C34.3461 38.1878 34.2887 38.1177 34.2378 38.0031C34.1741 37.8758 34.1678 37.6847 34.2187 37.43C34.2824 37.1371 34.5053 36.2201 34.8873 34.679C35.384 32.7049 35.6388 31.6797 35.6515 31.6033C35.7279 31.0174 35.626 30.6926 35.3458 30.6289C34.9892 30.5907 34.6899 30.8837 34.4479 31.5077C34.3588 31.737 34.2696 32.0363 34.1805 32.4056L34.085 32.7495C33.9449 32.8259 33.792 32.8641 33.6265 32.8641H33.2635L33.2062 32.8068C33.1552 32.7559 33.1552 32.6221 33.2062 32.4056C33.6647 30.8136 34.2951 29.9348 35.0975 29.7693Z" fill="#111928"/>
<path d="M16.08 17.848V29.624C16.08 33.752 17.744 35.96 21.584 35.96C25.872 35.96 27.28 33.272 27.28 29.496V18.968C27.216 17.88 26.832 17.24 26.256 16.856C25.712 16.504 25.008 16.28 24.208 16.184V15H32.4V16.184C31.76 16.28 31.12 16.44 30.576 16.728C29.872 17.112 29.36 17.816 29.328 19.032V29.528C29.328 34.392 26.672 37.624 20.848 37.624C15.92 37.624 12.752 35.288 12.752 29.88V18.104C12.752 17.208 12.496 16.664 11.888 16.504C11.44 16.376 10.608 16.344 10 16.312V15H18.832V16.312C17.904 16.408 17.392 16.376 16.944 16.504C16.4 16.664 16.112 17.112 16.08 17.848Z" fill="#111928"/>
</svg>
