<svg width="52" height="52" viewBox="0 0 52 52" fill="none" xmlns="http://www.w3.org/2000/svg">
<g clip-path="url(#clip0_285_6007)">
<path d="M52 0H0V52H52V0Z" fill="#D0F0FD"/>
<path d="M19.3161 17.8506C19.1054 17.8506 19 17.6504 19 17.25C19 17.1657 19 17.1025 19 17.0603C19 17.0182 19 16.9655 19 16.9023C19 16.8391 19.0211 16.8075 19.0632 16.8075C19.1054 16.8075 19.1159 16.7758 19.0948 16.7126C19.0738 16.6494 19.0948 16.6283 19.158 16.6494C19.2213 16.6705 19.2634 16.6599 19.2845 16.6178C19.3056 16.5757 19.3477 16.5651 19.4109 16.5862C19.4741 16.6073 19.5374 16.5862 19.6006 16.523C20.5278 16.2912 21.4128 15.8908 22.2557 15.3218C23.0986 14.7529 23.7308 14.1734 24.1523 13.5833C24.7845 12.8036 25.2375 12.0239 25.5115 11.2443C25.7854 10.4646 25.9435 9.89559 25.9856 9.53735C26.0278 9.17912 26.1542 9 26.3649 9C26.5756 9 26.6915 9.10536 26.7126 9.31609C26.7126 9.42145 26.7442 9.64272 26.8074 9.97988C26.8707 10.3171 27.0603 10.8439 27.3764 11.5603C27.6925 12.2768 28.0823 12.9406 28.5459 13.5517C29.2413 14.3736 29.9894 15.0268 30.7902 15.5115C31.591 15.9962 32.2653 16.3122 32.8132 16.4598L33.6034 16.681C33.6877 16.7653 33.7298 16.955 33.7298 17.25C33.7298 17.6714 33.6139 17.8822 33.3821 17.8822C33.2768 17.8822 33.1293 17.8506 32.9396 17.7873C30.4952 17.113 28.5881 15.7538 27.2184 13.7098L26.9971 13.3937V37.6062L27.2184 37.2901C27.8505 36.3208 28.6513 35.499 29.6207 34.8246C30.59 34.1503 31.4013 33.6972 32.0546 33.4654C32.7078 33.2336 33.1609 33.1283 33.4137 33.1494C33.6245 33.1494 33.7298 33.3495 33.7298 33.7499C33.7298 33.8342 33.7298 33.8974 33.7298 33.9396C33.7298 33.9817 33.7298 34.0344 33.7298 34.0976C33.7298 34.1608 33.7088 34.1925 33.6666 34.1925C33.6245 34.1925 33.6139 34.2241 33.635 34.2873C33.6561 34.3505 33.635 34.3716 33.5718 34.3505C33.5086 34.3294 33.4664 34.34 33.4454 34.3821C33.4243 34.4243 33.3821 34.4348 33.3189 34.4137C33.2557 34.3926 33.1925 34.4137 33.1293 34.4769C31.9281 34.793 30.8745 35.3198 29.9684 36.0574C29.0622 36.7949 28.3879 37.5641 27.9454 38.3649C27.5028 39.1656 27.1868 39.861 26.9971 40.4511C26.8074 41.0411 26.7126 41.452 26.7126 41.6838C26.6705 41.8945 26.5546 41.9999 26.3649 41.9999C26.1963 41.9999 26.0804 41.8208 26.0172 41.4625C25.954 41.1043 25.7854 40.5353 25.5115 39.7557C25.2375 38.976 24.7845 38.1963 24.1523 37.4166C23.9205 37.1005 23.6571 36.8055 23.3621 36.5315C23.067 36.2576 22.7509 36.0152 22.4138 35.8045C22.0766 35.5938 21.7605 35.4041 21.4655 35.2356C21.1705 35.067 20.8755 34.93 20.5805 34.8246C20.2854 34.7193 20.0431 34.6244 19.8534 34.5402C19.6638 34.4559 19.4847 34.4032 19.3161 34.3821L19.1264 34.3189C19.0421 34.2346 19 34.0449 19 33.7499C19 33.3285 19.1159 33.1177 19.3477 33.1177C19.4531 33.1177 19.6006 33.1494 19.7902 33.2126C22.2347 33.8869 24.1417 35.2461 25.5115 37.2901L25.7327 37.6062V13.3937L25.5115 13.7098C24.8582 14.6791 24.0469 15.5009 23.0776 16.1753C22.1082 16.8496 21.3075 17.3027 20.6753 17.5345C20.0431 17.7663 19.59 17.8716 19.3161 17.8506Z" fill="black"/>
</g>
<defs>
<clipPath id="clip0_285_6007">
<rect width="52" height="52" rx="4" fill="white"/>
</clipPath>
</defs>
</svg>
