<svg width="52" height="52" viewBox="0 0 52 52" fill="none" xmlns="http://www.w3.org/2000/svg">
<path d="M25.96 11C28.2099 14.57 32.2297 18.5005 35.8896 20.8105L34.8701 22.5801C33.7002 21.8601 32.3803 20.87 31.1504 19.79L30.0205 18.9072C29.6746 18.6368 29.3591 18.3291 29.0801 17.9902C28.5138 17.4378 27.9732 16.8789 27.4785 16.3281L27 15.7803V36.2207C27.6161 35.4961 28.325 34.7474 29.0801 34.0107C29.3591 33.6718 29.6746 33.3641 30.0205 33.0938L31.1504 32.2109C32.3803 31.131 33.7002 30.1409 34.8701 29.4209L35.8896 31.1904C32.2297 33.5004 28.2099 37.431 25.96 41.001C23.6801 37.4312 19.6598 33.5005 16 31.1904L17.0205 29.4209C18.1903 30.1409 19.5105 31.1312 20.7402 32.2109C21.2459 32.7367 21.7904 33.2246 22.3682 33.6699L22.8105 34.0107C23.6074 34.7882 24.353 35.5799 25 36.3418V15.6592C24.3528 16.4212 23.6076 17.2136 22.8105 17.9912L22.3682 18.332C21.7903 18.7775 21.2461 19.2651 20.7402 19.791C19.5104 20.8709 18.1904 21.8611 17.0205 22.5811L16 20.8115C19.66 18.5015 23.68 14.57 25.96 11Z" fill="#454545"/>
</svg>
