<svg width="53" height="53" viewBox="0 0 53 53" fill="none" xmlns="http://www.w3.org/2000/svg">
<g filter="url(#filter0_d_531_2741)">
<rect width="52" height="52" fill="white"/>
<path d="M28.4396 16.8094C30.5821 17.0691 32.1622 17.972 33.1801 19.5181C34.198 21.0642 34.7128 22.8523 34.7247 24.8824C34.7247 27.3729 33.979 29.515 32.4877 31.309C30.9963 33.1029 29.215 34 27.1436 34C25.9954 34 24.9479 33.6931 24.001 33.0794C23.0542 32.4656 22.4209 31.7103 22.1013 30.8133C21.7817 29.9162 21.6219 28.6711 21.6219 27.0777V21.2177C21.6219 20.1555 21.5212 19.4296 21.3201 19.0401C21.1189 18.6506 20.7461 18.4559 20.2016 18.4559C19.4085 18.4559 18.8877 19.2467 18.6392 20.8282H18C18.1539 18.1491 19.3079 16.8094 21.4621 16.8094C22.1959 16.8094 22.7996 16.9983 23.2731 17.3759C23.7466 17.7536 24.0779 18.1845 24.2673 18.6683C24.4568 19.1522 24.5514 20.0492 24.5514 21.3593V27.3079C24.5514 28.7007 24.6283 29.7452 24.7822 30.4415C24.9361 31.1378 25.2971 31.7162 25.8652 32.1765C26.4334 32.6368 27.0548 32.861 27.7295 32.8492C28.8657 32.8492 29.7831 32.1942 30.4814 30.8841C31.1797 29.574 31.5289 27.5853 31.5289 24.9178C31.5289 22.5455 31.2685 20.7987 30.7477 19.6775C30.227 18.5563 29.422 17.8127 28.3331 17.4468L28.4396 16.8094Z" fill="black"/>
</g>
<defs>
<filter id="filter0_d_531_2741" x="0" y="0" width="53" height="53" filterUnits="userSpaceOnUse" color-interpolation-filters="sRGB">
<feFlood flood-opacity="0" result="BackgroundImageFix"/>
<feColorMatrix in="SourceAlpha" type="matrix" values="0 0 0 0 0 0 0 0 0 0 0 0 0 0 0 0 0 0 127 0" result="hardAlpha"/>
<feOffset dx="1" dy="1"/>
<feColorMatrix type="matrix" values="0 0 0 0 0 0 0 0 0 0 0 0 0 0 0 0 0 0 0.25 0"/>
<feBlend mode="normal" in2="BackgroundImageFix" result="effect1_dropShadow_531_2741"/>
<feBlend mode="normal" in="SourceGraphic" in2="effect1_dropShadow_531_2741" result="shape"/>
</filter>
</defs>
</svg>
