<svg width="52" height="52" viewBox="0 0 52 52" fill="none" xmlns="http://www.w3.org/2000/svg">
<path d="M39.9049 11.4896C39.9049 11.3591 39.9456 11.2449 40.0272 11.147C40.1088 11.0491 40.2312 11.0001 40.3943 11.0001C40.5085 11.0001 40.6064 11.0409 40.688 11.1225C40.7696 11.1878 40.8511 11.3428 40.9327 11.5875C41.0959 12.1912 42.0421 14.075 42.5479 14.4013C42.7274 14.5155 42.8174 14.6982 42.8171 14.8418C42.8169 14.9653 42.8174 15.1982 42.3993 15.3312H40.688H36.5031L10.3182 15.3068C10.1061 15.1599 10 15.0049 10 14.8418C10 14.7276 10.1061 14.5644 10.3182 14.3523H41.104C40.7124 13.7323 39.9049 11.8322 39.9049 11.4896Z" fill="#454545"/>
<path d="M35.0711 39.8798C34.0351 39.8798 31.9911 39.7678 30.5911 39.7678C29.5831 39.7678 27.3431 39.8238 26.3911 39.8238C26.3911 39.5718 26.4191 39.2078 26.5311 38.9278C28.9111 38.6478 29.0511 38.7318 29.4431 36.7998L32.0191 23.5278C32.1591 22.8278 32.2431 22.4078 32.2431 22.0718C32.2431 21.2318 31.7391 21.2038 29.8071 21.0638C29.8351 20.7838 29.8911 20.4758 29.9751 20.1678C31.0391 20.1678 33.0271 20.2238 34.0351 20.2238C34.7631 20.2238 36.8911 20.1958 37.4511 20.1958C40.5311 20.1958 43.6391 21.0358 43.6391 24.4518C43.6391 27.6438 40.9231 28.9598 38.3751 29.5478V29.6038C40.5871 29.9118 42.9671 31.1158 42.9671 34.3078C42.9671 38.6198 38.5711 39.8798 35.0711 39.8798ZM35.5191 21.3718L34.0071 29.1278C34.5111 29.1558 35.1551 29.1558 35.4631 29.1558C38.7111 29.1558 40.4751 27.3638 40.4751 24.6758C40.4751 22.1558 38.9071 21.3438 36.8911 21.3438C36.6111 21.3438 36.1351 21.3438 35.5191 21.3718ZM33.7831 30.3318L32.2151 38.4798C33.0831 38.6478 34.3151 38.7598 35.0151 38.7598C37.9551 38.7598 39.6631 36.9678 39.6631 34.1398C39.6631 31.1718 37.8151 30.2758 35.1271 30.2758C34.8471 30.2758 34.2591 30.2758 33.7831 30.3318Z" fill="#454545"/>
<path d="M20.4201 36.1279L19.8601 32.5159H13.7001L11.7681 36.0439C11.2641 36.9679 10.8721 37.7519 10.8721 38.1439C10.8721 38.7039 11.4041 38.7599 12.9161 38.9279C12.9161 39.2079 12.8601 39.5439 12.7481 39.8239C11.9641 39.7959 9.86406 39.7679 9.02406 39.7679C7.96006 39.7679 7.12006 39.7959 6.00006 39.8239C6.00006 39.5439 6.05606 39.2359 6.16806 38.9559C8.38006 38.7879 8.60406 38.7319 10.9841 34.6439C13.0841 31.0039 16.8081 24.4239 19.2441 20.2239C19.7481 20.1119 20.1681 20.0279 20.5881 19.9999L23.4721 35.9879C23.9761 38.7039 24.2281 38.7039 26.3281 38.9279C26.3281 39.2079 26.2721 39.5439 26.1601 39.8239C25.2641 39.7959 23.8921 39.7679 22.6601 39.7679C21.5681 39.7679 19.5801 39.7959 18.0681 39.8239C18.0961 39.5439 18.1241 39.2079 18.2361 38.9279C20.2241 38.7319 20.6161 38.7039 20.6161 37.5279C20.6161 37.3319 20.5881 37.0239 20.4201 36.1279ZM14.3721 31.3399H19.6641L18.4881 23.8359L14.3721 31.3399Z" fill="#454545"/>
</svg>
