<svg width="52" height="52" viewBox="0 0 52 52" fill="none" xmlns="http://www.w3.org/2000/svg">
<path d="M28.7599 45.4799C29.1866 44.6266 29.5733 43.7733 29.9199 42.9199C30.2666 42.0933 30.4399 41.3066 30.4399 40.5599C30.4399 40.1599 30.3733 39.7999 30.2399 39.4799C30.1066 39.1599 29.7999 38.8533 29.3199 38.5599C28.8666 38.2933 28.1066 38.0533 27.0399 37.8399C25.0933 37.4133 23.4399 36.8666 22.0799 36.1999C20.7466 35.5333 19.7333 34.6666 19.0399 33.5999C18.3466 32.5066 17.9999 31.1333 17.9999 29.4799C17.9999 28.0399 18.2666 26.7866 18.7999 25.7199C19.3333 24.6533 20.0533 23.7733 20.9599 23.0799C21.8666 22.3866 22.8799 21.8933 23.9999 21.5999V21.3599C22.9866 21.0933 22.1333 20.7199 21.4399 20.2399C20.7466 19.7333 20.2266 19.1066 19.8799 18.3599C19.5333 17.6133 19.3599 16.7333 19.3599 15.7199C19.3599 14.4666 19.6266 13.4399 20.1599 12.6399C20.7199 11.8133 21.4399 11.1466 22.3199 10.6399C23.2266 10.1333 24.2133 9.73326 25.2799 9.43992C24.9599 9.46659 24.5333 9.50659 23.9999 9.55992C23.4666 9.58659 22.8933 9.61326 22.2799 9.63993C21.6666 9.66659 21.0533 9.67992 20.4399 9.67992H19.1999V6.99992H34.0799V9.47993H33.0399C31.6533 9.47993 30.3333 9.57326 29.0799 9.75992C27.8533 9.94659 26.7599 10.2666 25.7999 10.7199C24.8666 11.1733 24.1199 11.7866 23.5599 12.5599C23.0266 13.3333 22.7599 14.2933 22.7599 15.4399C22.7599 16.3466 22.9733 17.1466 23.3999 17.8399C23.8266 18.5333 24.5199 19.0799 25.4799 19.4799C26.4399 19.8799 27.7066 20.0799 29.2799 20.0799H33.5999V22.7599H29.1599C27.2933 22.7599 25.7999 23.0533 24.6799 23.6399C23.5866 24.1999 22.7999 24.9466 22.3199 25.8799C21.8399 26.8133 21.5999 27.8533 21.5999 28.9999C21.5999 30.2533 21.8399 31.2399 22.3199 31.9599C22.7999 32.6799 23.5733 33.2533 24.6399 33.6799C25.7066 34.1066 27.1066 34.5333 28.8399 34.9599C30.2533 35.2799 31.3199 35.6666 32.0399 36.1199C32.7866 36.5733 33.2933 37.0933 33.5599 37.6799C33.8266 38.2666 33.9599 38.9199 33.9599 39.6399C33.9599 40.4133 33.8799 41.1199 33.7199 41.7599C33.5866 42.4266 33.3866 43.0533 33.1199 43.6399C32.8533 44.2266 32.5599 44.8399 32.2399 45.4799H28.7599Z" fill="#454545"/>
</svg>
