<svg width="53" height="53" viewBox="0 0 53 53" fill="none" xmlns="http://www.w3.org/2000/svg">
<g filter="url(#filter0_d)">
<rect width="52" height="52" fill="white"/>
<path d="M34.8543 18.3093C35.4108 18.3093 36 18.3093 36 17.6547C36 17 35.4108 17 34.8543 17H26.0491C20.4517 17 16 21.2553 16 26.4926C16 31.7299 20.4517 35.9853 26.0491 35.9853H34.8543C35.4108 35.9853 36 35.9853 36 35.3306C36 34.6759 35.4108 34.6759 34.8543 34.6759H26.1146C21.0082 34.6759 17.3093 30.8789 17.3093 26.4926C17.3093 22.1064 21.0082 18.3093 26.1146 18.3093H34.8543Z" fill="black"/>
</g>
<defs>
<filter id="filter0_d" x="0" y="0" width="53" height="53" filterUnits="userSpaceOnUse" color-interpolation-filters="sRGB">
<feFlood flood-opacity="0" result="BackgroundImageFix"/>
<feColorMatrix in="SourceAlpha" type="matrix" values="0 0 0 0 0 0 0 0 0 0 0 0 0 0 0 0 0 0 127 0" result="hardAlpha"/>
<feOffset dx="1" dy="1"/>
<feColorMatrix type="matrix" values="0 0 0 0 0 0 0 0 0 0 0 0 0 0 0 0 0 0 0.25 0"/>
<feBlend mode="normal" in2="BackgroundImageFix" result="effect1_dropShadow"/>
<feBlend mode="normal" in="SourceGraphic" in2="effect1_dropShadow" result="shape"/>
</filter>
</defs>
</svg>
