<svg width="53" height="53" viewBox="0 0 53 53" fill="none" xmlns="http://www.w3.org/2000/svg">
<rect width="53" height="53" rx="4" fill="#D0F0FD"/>
<path d="M31.7239 18.0908L31.7243 18.0911C33.0864 18.9579 33.7613 19.9526 34.098 20.8445C34.4356 21.739 34.4362 22.5376 34.4362 23.0216V36.0072V36.0227C34.4362 36.3346 34.4361 36.6769 34.5339 36.9409C34.5852 37.0795 34.6659 37.2043 34.793 37.2933C34.9201 37.3823 35.0819 37.4272 35.2806 37.4272C35.4793 37.4272 35.6411 37.3823 35.7682 37.2933C35.8953 37.2043 35.976 37.0795 36.0273 36.9409C36.1251 36.6769 36.125 36.3347 36.125 36.0227V36.0072V22.8417C36.125 20.0586 34.7214 18.0619 32.7549 16.7661C30.7925 15.473 28.2673 14.875 26 14.875C23.642 14.875 21.1165 15.5094 19.1765 16.8163C17.233 18.1257 15.875 20.1131 15.875 22.8058V36.0072L15.875 36.0227C15.875 36.3346 15.8749 36.6769 15.9727 36.9409C16.024 37.0795 16.1047 37.2043 16.2318 37.2933C16.3589 37.3823 16.5207 37.4272 16.7194 37.4272C16.9182 37.4272 17.0799 37.3823 17.207 37.2933C17.3342 37.2043 17.4148 37.0795 17.4661 36.9409C17.5639 36.677 17.5638 36.3348 17.5638 36.023L17.5638 36.0072V22.9856C17.5638 20.3448 18.9936 18.7453 20.7666 17.7991C22.5458 16.8496 24.664 16.5639 26 16.5639C27.6056 16.5639 29.8451 16.8856 31.7239 18.0908Z" fill="#111928" stroke="#111928" stroke-width="0.25"/>
</svg>
