<svg width="53" height="53" viewBox="0 0 53 53" fill="none" xmlns="http://www.w3.org/2000/svg">
<g filter="url(#filter0_d)">
<rect width="52" height="52" fill="white"/>
<path d="M36 22.8417C36 17.3741 30.4964 15 26 15C21.3237 15 16 17.518 16 22.8058V36.0072C16 36.6547 16 37.3022 16.7194 37.3022C17.4389 37.3022 17.4388 36.6547 17.4388 36.0072V22.9856C17.4388 17.5899 23.3022 16.4389 26 16.4389C27.6187 16.4389 29.8849 16.7626 31.7914 17.9856C34.5611 19.7482 34.5612 22.0504 34.5612 23.0216V36.0072C34.5612 36.6547 34.5612 37.3022 35.2806 37.3022C36 37.3022 36 36.6547 36 36.0072V22.8417Z" fill="black"/>
</g>
<defs>
<filter id="filter0_d" x="0" y="0" width="53" height="53" filterUnits="userSpaceOnUse" color-interpolation-filters="sRGB">
<feFlood flood-opacity="0" result="BackgroundImageFix"/>
<feColorMatrix in="SourceAlpha" type="matrix" values="0 0 0 0 0 0 0 0 0 0 0 0 0 0 0 0 0 0 127 0" result="hardAlpha"/>
<feOffset dx="1" dy="1"/>
<feColorMatrix type="matrix" values="0 0 0 0 0 0 0 0 0 0 0 0 0 0 0 0 0 0 0.25 0"/>
<feBlend mode="normal" in2="BackgroundImageFix" result="effect1_dropShadow"/>
<feBlend mode="normal" in="SourceGraphic" in2="effect1_dropShadow" result="shape"/>
</filter>
</defs>
</svg>
