<svg width="53" height="53" viewBox="0 0 53 53" fill="none" xmlns="http://www.w3.org/2000/svg">
<rect width="53" height="53" rx="4" fill="#D0F0FD"/>
<path d="M26.1837 29.5091C26.1837 29.1679 26.1837 28.1706 25.1338 28.1706C24.084 28.1706 24.084 29.2467 24.084 29.6404V31.8451C24.084 32.4225 24.084 32.8425 23.2178 33.2887C22.5092 33.6299 21.6955 33.7086 21.0919 33.7086C20.5407 33.7086 19.8058 33.6299 19.0971 33.3412C18.0997 32.895 18.0997 32.4225 18.0997 31.8451V16.9632C18.0997 16.3858 18.0997 15.9659 18.9659 15.5197C19.6745 15.1785 20.4882 15.0997 21.0919 15.0997C21.643 15.0997 22.3779 15.1785 23.0866 15.4672C24.084 15.9134 24.084 16.3858 24.084 16.9632V19.168C24.084 19.5617 24.084 20.6378 25.1338 20.6378C26.1837 20.6378 26.1837 19.6404 26.1837 19.2992V16.7795C26.1837 13.7612 23.0341 13 21.0919 13C19.1234 13 16 13.7874 16 16.7795V32.0288C16 35.0472 19.1496 35.8083 21.0919 35.8083C23.0604 35.8083 26.1837 35.0209 26.1837 32.0288V29.5091Z" fill="#111928"/>
<path d="M32.5881 35.5986C32.8681 35.3362 33.603 34.7587 33.883 34.5138C34.9678 33.5164 36.0002 32.554 36.0002 30.9617C36.0002 28.8795 34.2504 27.5322 32.0632 27.5322C29.9635 27.5322 28.5811 29.1245 28.5811 30.6818C28.5811 31.5392 29.2635 31.6616 29.5085 31.6616C29.876 31.6616 30.4184 31.3992 30.4184 30.7343C30.4184 29.8244 29.5435 29.8244 29.3335 29.8244C29.841 28.547 31.0133 28.1096 31.8707 28.1096C33.498 28.1096 34.3379 29.4919 34.3379 30.9617C34.3379 32.7815 33.0606 34.1113 30.9958 36.2286L28.7911 38.5033C28.5811 38.6957 28.5811 38.7307 28.5811 39.1682H35.4928L36.0002 36.0361H35.4578C35.4053 36.386 35.2653 37.2609 35.0553 37.5934C34.9503 37.7334 33.6205 37.7334 33.3405 37.7334H30.2259L32.5881 35.5986Z" fill="#111928"/>
<path d="M40 23H28V43H40V23Z" fill="#C4C4C4"/>
</svg>
