<svg width="53" height="53" viewBox="0 0 53 53" fill="none" xmlns="http://www.w3.org/2000/svg">
<g filter="url(#filter0_d)">
<rect width="52" height="52" fill="white"/>
<path d="M30.1037 13.5926C30.1037 13.2667 29.8667 13 29.5111 13C29.0667 13 28.9778 13.3259 28.8 13.9482C28.4444 15.1333 28.7407 14.0963 28.4148 15.2815C28.0593 15.1037 27.1111 14.6593 26.0148 14.6593C24.3259 14.6593 22.4 15.5482 21.3037 17.8296C20.1481 20.2296 20 22.8963 20 25.6519C20 27.5185 20 32.8519 22.5778 35.163C21.8963 37.4444 21.8963 37.5037 21.8963 37.5926C21.8963 37.9185 22.1333 38.1852 22.4889 38.1852C22.9333 38.1852 23.0222 37.8889 23.2 37.237C23.5556 36.0519 23.2593 37.0889 23.5852 35.9037C24.2963 36.2889 25.1852 36.5259 25.9852 36.5259C29.3037 36.5259 30.6074 33.7407 31.1407 32.3185C31.9111 30.2444 32 27.7852 32 25.6519C32 23.4593 32 18.5407 29.4222 16.0815L30.1037 13.5926ZM22.963 33.8C21.9852 31.7556 21.9852 28.1111 21.9852 25.2963C21.9852 22.8963 21.9852 20.8519 22.4 18.9556C22.963 16.2 24.6815 15.3111 26.0148 15.3111C26.6074 15.3111 27.3778 15.4889 28.1481 16.1407L22.963 33.8ZM29.037 17.3259C30.0148 19.0444 30.0148 22.4815 30.0148 25.2963C30.0148 27.4593 30.0148 29.6519 29.6593 31.637C29.1259 34.7481 27.5556 35.8741 25.9852 35.8741C25.3037 35.8741 24.5926 35.637 23.8815 35.0148L29.037 17.3259Z" fill="black"/>
</g>
<defs>
<filter id="filter0_d" x="0" y="0" width="53" height="53" filterUnits="userSpaceOnUse" color-interpolation-filters="sRGB">
<feFlood flood-opacity="0" result="BackgroundImageFix"/>
<feColorMatrix in="SourceAlpha" type="matrix" values="0 0 0 0 0 0 0 0 0 0 0 0 0 0 0 0 0 0 127 0" result="hardAlpha"/>
<feOffset dx="1" dy="1"/>
<feColorMatrix type="matrix" values="0 0 0 0 0 0 0 0 0 0 0 0 0 0 0 0 0 0 0.25 0"/>
<feBlend mode="normal" in2="BackgroundImageFix" result="effect1_dropShadow"/>
<feBlend mode="normal" in="SourceGraphic" in2="effect1_dropShadow" result="shape"/>
</filter>
</defs>
</svg>
