<svg width="53" height="53" viewBox="0 0 53 53" fill="none" xmlns="http://www.w3.org/2000/svg">
<rect width="53" height="53" rx="4" fill="#D0F0FD"/>
<path d="M30.2243 13.6256L30.2287 13.6094V13.5926C30.2287 13.2018 29.9398 12.875 29.5111 12.875C29.3846 12.875 29.2738 12.8983 29.1775 12.951C29.0809 13.0038 29.0082 13.0812 28.9497 13.1743C28.8419 13.3459 28.7716 13.5924 28.689 13.8816C28.686 13.892 28.683 13.9025 28.68 13.9131C28.5026 14.5045 28.4878 14.5413 28.4765 14.579C28.4662 14.6133 28.4587 14.6485 28.3342 15.1031C27.901 14.8973 27.0203 14.5343 26.0148 14.5343C24.2804 14.5343 22.3093 15.4485 21.1911 17.7754C20.0221 20.2031 19.875 22.8952 19.875 25.6519V25.6535C19.875 26.5873 19.875 28.396 20.1991 30.2621C20.5176 32.0967 21.1535 34.0132 22.4356 35.2024C22.1098 36.2936 21.9447 36.8612 21.8609 37.167C21.7762 37.4765 21.7713 37.529 21.7713 37.5926C21.7713 37.9834 22.0602 38.3102 22.4889 38.3102C22.6137 38.3102 22.7236 38.2894 22.8198 38.2398C22.9168 38.1898 22.9904 38.1153 23.0496 38.0232C23.1622 37.8479 23.2335 37.5891 23.3202 37.2714C23.4975 36.6806 23.5122 36.6439 23.5235 36.6062C23.5338 36.5719 23.5412 36.5369 23.6648 36.086C24.3676 36.4376 25.2147 36.6509 25.9852 36.6509C29.3929 36.6509 30.7241 33.7856 31.2577 32.3624L31.2579 32.362C32.0369 30.2647 32.125 27.7849 32.125 25.6519V25.6496C32.125 24.5535 32.125 22.7668 31.8008 20.9448C31.4814 19.1491 30.8438 17.2995 29.5623 16.0431L30.2243 13.6256ZM22.9397 33.4356C22.55 32.465 22.3419 31.1916 22.232 29.827C22.1103 28.3144 22.1102 26.7046 22.1102 25.2963C22.1102 22.8929 22.1108 20.8629 22.5221 18.9823L22.5221 18.9823L22.5225 18.9806C22.7994 17.6253 23.3577 16.7408 23.9995 16.1952C24.6419 15.6492 25.3756 15.4361 26.0148 15.4361C26.5652 15.4361 27.2807 15.596 28.005 16.1844L22.9397 33.4356ZM29.0692 17.662C29.4522 18.487 29.6587 19.6352 29.768 20.9107C29.8897 22.3303 29.8898 23.8878 29.8898 25.2963C29.8898 27.4618 29.8894 29.6428 29.5363 31.615L29.5361 31.6159C29.2722 33.1548 28.7544 34.1878 28.1218 34.8348C27.4909 35.4799 26.7385 35.7491 25.9852 35.7491C25.355 35.7491 24.6935 35.5373 24.024 34.9725L29.0692 17.662Z" fill="#111928" stroke="#111928" stroke-width="0.25"/>
</svg>
