<svg width="52" height="52" viewBox="0 0 52 52" fill="none" xmlns="http://www.w3.org/2000/svg">
<rect width="52" height="52" rx="4" fill="#D0F0FD"/>
<path d="M26.9904 14.6479V14.6473L26.9782 14.6485C24.1609 14.9251 21.7191 16.0454 19.6568 18.0072C17.5877 19.9753 16.5547 22.4995 16.5547 25.5692C16.5547 28.6661 17.6641 31.2521 19.8814 33.3185C22.1514 35.4873 25.2359 36.5654 29.1199 36.5654V36.5659L29.1312 36.5649C29.3998 36.5404 29.7567 36.528 30.2032 36.528H30.2058H30.2085H30.2111H30.2137H30.2163H30.2189H30.2215H30.2241H30.2267H30.2293H30.2319H30.2345H30.2371H30.2397H30.2423H30.2448H30.2474H30.25H30.2526H30.2551H30.2577H30.2602H30.2628H30.2654H30.2679H30.2705H30.273H30.2755H30.2781H30.2806H30.2831H30.2857H30.2882H30.2907H30.2932H30.2957H30.2983H30.3008H30.3033H30.3058H30.3083H30.3108H30.3133H30.3158H30.3182H30.3207H30.3232H30.3257H30.3282H30.3306H30.3331H30.3356H30.338H30.3405H30.3429H30.3454H30.3478H30.3503H30.3527H30.3552H30.3576H30.36H30.3625H30.3649H30.3673H30.3698H30.3722H30.3746H30.377H30.3794H30.3818H30.3842H30.3866H30.389H30.3914H30.3938H30.3962H30.3986H30.4009H30.4033H30.4057H30.4081H30.4104H30.4128H30.4152H30.4175H30.4199H30.4222H30.4246H30.4269H30.4293H30.4316H30.4339H30.4363H30.4386H30.4409H30.4433H30.4456H30.4479H30.4502H30.4525H30.4548H30.4571H30.4594H30.4617H30.464H30.4663H30.4686H30.4709H30.4732H30.4755H30.4777H30.48H30.4823H30.4846H30.4868H30.4891H30.4913H30.4936H30.4958H30.4981H30.5003H30.5026H30.5048H30.5071H30.5093H30.5115H30.5137H30.516H30.5182H30.5204H30.5226H30.5248H30.527H30.5292H30.5315H30.5336H30.5358H30.538H30.5402H30.5424H30.5446H30.5468H30.549H30.5511H30.5533H30.5555H30.5576H30.5598H30.5619H30.5641H30.5663H30.5684H30.5705H30.5727H30.5748H30.577H30.5791H30.5812H30.5834H30.5855H30.5876H30.5897H30.5918H30.5939H30.596H30.5982H30.6003H30.6024H30.6044H30.6065H30.6086H30.6107H30.6128H30.6149H30.617H30.619H30.6211H30.6232H30.6252H30.6273H30.6293H30.6314H30.6335H30.6355H30.6375H30.6396H30.6416H30.6437H30.6457H30.6477H30.6498H30.6518H30.6538H30.6558H30.6578H30.6598H30.6618H30.6638H30.6658H30.6678H30.6698H30.6718H30.6738H30.6758H30.6778H30.6798H30.6817H30.6837H30.6857H30.6877H30.6896H30.6916H30.6935H30.6955H30.6974H30.6994H30.7013H30.7033H30.7052H30.7072H30.7091H30.711H30.7129H30.7149H30.7168H30.7187H30.7206H30.7225H30.7244H30.7263H30.7282H30.7301H30.732H30.7339H30.7358H30.7377H30.7396H30.7415H30.7433H30.7452H30.7471H30.7489H30.7508H30.7527H30.7545H30.7564H30.7582H30.7601H30.7619H30.7638H30.7656H30.7674H30.7693H30.7711H30.7729H30.7747H30.7766H30.7784H30.7802H30.782H30.7838H30.7856H30.7874H30.7892H30.791H30.7928H30.7946H30.7964H30.7981H30.7999H30.8017H30.8035H30.8052H30.807H30.8088H30.8105H30.8123H30.814H30.8158H30.8175H30.8193H30.821H30.8228H30.8245H30.8262H30.828H30.8297H30.8314H30.8331H30.8348H30.8366H30.8383H30.84H30.8417H30.8434H30.8451H30.8468H30.8485H30.8501H30.8518H30.8535H30.8552H30.8569H30.8585H30.8602H30.8619H30.8635H30.8652H30.8668H30.8685H30.8701H30.8718H30.8734H30.8751H30.8767H30.8784H30.88H30.8816H30.8832H30.8849H30.8865H30.8881H30.8897H30.8913H30.8929H30.8945H30.8961H30.8977H30.8993H30.9009H30.9025H30.9041H30.9057H30.9072H30.9088H30.9104H30.912H30.9135H30.9151H30.9166H30.9182H30.9197H30.9213H30.9228H30.9244H30.9259H30.9275H30.929H30.9305H30.9321H30.9336H30.9351H30.9366H30.9381H30.9396H30.9412H30.9427H30.9442H30.9457H30.9472H30.9487H30.9501H30.9516H30.9531H30.9546H30.9561H30.9576H30.959H30.9605H30.962H30.9634H30.9649H30.9663H30.9678H30.9692H30.9707H30.9721H30.9736H30.975H30.9764H30.9779H30.9793H30.9807H30.9821H30.9836H30.985H30.9864H30.9878H30.9892H30.9906H30.992H30.9934H30.9948H30.9962H30.9976H30.999H31.0003H31.0017H31.0031H31.0045H31.0058H31.0072H31.0085H31.0099H31.0113H31.0126H31.014H31.0153H31.0167H31.018H31.0193H31.0207H31.022H31.0233H31.0246H31.026H31.0273H31.0286H31.0299H31.0312H31.0325H31.0338H31.0351H31.0364H31.0377H31.039H31.0403H31.0416H31.0429H31.0441H31.0454H31.0467H31.0479H31.0492H31.0505H31.0517H31.053H31.0542H31.0555H31.0567H31.058H31.0592H31.0604H31.0617H31.0629H31.0641H31.0654H31.0666H31.0678H31.069H31.0702H31.0714H31.0726H31.0738H31.075H31.0762H31.0774H31.0786H31.0798H31.081H31.0822H31.0833H31.0845H31.0857H31.0869H31.088H31.0892H31.0903H31.0915H31.0926H31.0938H31.0949H31.0961H31.0972H31.0984H31.0995H31.1006H31.1017H31.1029H31.104H31.1051H31.1062H31.1073H31.1084H31.1095H31.1106H31.1117H31.1128H31.1139H31.115H31.1161H31.1172H31.1183H31.1193H31.1204H31.1215H31.1226H31.1236H31.1247H31.1257H31.1268H31.1278H31.1289H31.1299H31.131H31.132H31.133H31.1341H31.1351H31.1361H31.1372H34.7609H34.7921L34.8197 36.5133C35.2148 36.3025 35.4462 36.0192 35.4462 35.6559C35.4462 35.3486 35.2467 35.0673 34.9118 34.8096L34.8781 34.7836H34.8355H30.951C29.5699 34.7712 28.4512 34.7433 27.5945 34.6998C26.735 34.6562 26.1469 34.5973 25.8221 34.5251L25.8212 34.5249C24.4407 34.2291 23.2489 33.7246 22.2435 33.0135C21.2326 32.2984 20.4476 31.5122 19.8848 30.656C19.3162 29.7906 18.9108 28.991 18.6662 28.2569C18.4276 27.541 18.307 26.9367 18.2993 26.4414H34.7609H34.7921L34.8197 26.4267C35.2148 26.2159 35.4462 25.9325 35.4462 25.5692C35.4462 25.206 35.2148 24.9225 34.8197 24.7118L34.7921 24.6971H34.7609H18.3063C18.3545 24.3198 18.4137 23.92 18.4841 23.4977C18.5557 23.068 18.7732 22.4836 19.145 21.74C19.5144 21.0014 19.9573 20.3247 20.4738 19.7098C20.9861 19.0999 21.7096 18.4978 22.6489 17.9046L22.6489 17.9046C23.5818 17.3153 24.6514 16.8721 25.859 16.5761C26.4951 16.4546 28.1868 16.3797 30.9515 16.3548L30.9516 16.3548L34.8367 16.3175L34.8786 16.3171L34.9118 16.2915C35.2423 16.0372 35.4462 15.7682 35.4462 15.4826C35.4462 15.1193 35.2148 14.836 34.8197 14.6252L34.7921 14.6105H34.7609H31.065C30.4645 14.5855 29.8394 14.5856 29.1897 14.6106C28.5429 14.6355 28.0218 14.6479 27.6255 14.6479H27.6232H27.6208H27.6185H27.6162H27.6139H27.6116H27.6093H27.607H27.6047H27.6024H27.6001H27.5978H27.5955H27.5932H27.591H27.5887H27.5864H27.5842H27.5819H27.5797H27.5774H27.5752H27.5729H27.5707H27.5685H27.5662H27.564H27.5618H27.5596H27.5574H27.5552H27.553H27.5508H27.5486H27.5464H27.5442H27.542H27.5399H27.5377H27.5355H27.5334H27.5312H27.5291H27.5269H27.5248H27.5226H27.5205H27.5184H27.5162H27.5141H27.512H27.5099H27.5078H27.5057H27.5036H27.5015H27.4994H27.4973H27.4952H27.4931H27.491H27.489H27.4869H27.4848H27.4828H27.4807H27.4787H27.4766H27.4746H27.4725H27.4705H27.4685H27.4665H27.4644H27.4624H27.4604H27.4584H27.4564H27.4544H27.4524H27.4504H27.4484H27.4464H27.4445H27.4425H27.4405H27.4386H27.4366H27.4346H27.4327H27.4307H27.4288H27.4269H27.4249H27.423H27.4211H27.4191H27.4172H27.4153H27.4134H27.4115H27.4096H27.4077H27.4058H27.4039H27.402H27.4002H27.3983H27.3964H27.3945H27.3927H27.3908H27.389H27.3871H27.3853H27.3834H27.3816H27.3798H27.3779H27.3761H27.3743H27.3725H27.3707H27.3689H27.3671H27.3653H27.3635H27.3617H27.3599H27.3581H27.3563H27.3546H27.3528H27.351H27.3493H27.3475H27.3458H27.344H27.3423H27.3405H27.3388H27.3371H27.3353H27.3336H27.3319H27.3302H27.3285H27.3268H27.3251H27.3234H27.3217H27.32H27.3183H27.3166H27.315H27.3133H27.3116H27.31H27.3083H27.3067H27.305H27.3034H27.3017H27.3001H27.2985H27.2968H27.2952H27.2936H27.292H27.2904H27.2888H27.2872H27.2856H27.284H27.2824H27.2808H27.2792H27.2776H27.2761H27.2745H27.2729H27.2714H27.2698H27.2683H27.2667H27.2652H27.2636H27.2621H27.2606H27.2591H27.2575H27.256H27.2545H27.253H27.2515H27.25H27.2485H27.247H27.2455H27.244H27.2426H27.2411H27.2396H27.2382H27.2367H27.2352H27.2338H27.2323H27.2309H27.2295H27.228H27.2266H27.2252H27.2237H27.2223H27.2209H27.2195H27.2181H27.2167H27.2153H27.2139H27.2125H27.2111H27.2098H27.2084H27.207H27.2056H27.2043H27.2029H27.2016H27.2002H27.1989H27.1975H27.1962H27.1949H27.1935H27.1922H27.1909H27.1896H27.1883H27.187H27.1857H27.1844H27.1831H27.1818H27.1805H27.1792H27.1779H27.1767H27.1754H27.1741H27.1729H27.1716H27.1704H27.1691H27.1679H27.1666H27.1654H27.1642H27.163H27.1617H27.1605H27.1593H27.1581H27.1569H27.1557H27.1545H27.1533H27.1521H27.1509H27.1498H27.1486H27.1474H27.1462H27.1451H27.1439H27.1428H27.1416H27.1405H27.1393H27.1382H27.1371H27.1359H27.1348H27.1337H27.1326H27.1315H27.1304H27.1293H27.1282H27.1271H27.126H27.1249H27.1238H27.1228H27.1217H27.1206H27.1196H27.1185H27.1174H27.1164H27.1153H27.1143H27.1133H27.1122H27.1112H27.1102H27.1092H27.1081H27.1071H27.1061H27.1051H27.1041H27.1031H27.1021H27.1011H27.1002H27.0992H27.0982H27.0972H27.0963H27.0953H27.0944H27.0934H27.0925H27.0915H27.0906H27.0896H27.0887H27.0878H27.0869H27.086H27.085H27.0841H27.0832H27.0823H27.0814H27.0805H27.0796H27.0788H27.0779H27.077H27.0761H27.0753H27.0744H27.0736H27.0727H27.0718H27.071H27.0702H27.0693H27.0685H27.0677H27.0668H27.066H27.0652H27.0644H27.0636H27.0628H27.062H27.0612H27.0604H27.0596H27.0588H27.0581H27.0573H27.0565H27.0558H27.055H27.0542H27.0535H27.0527H27.052H27.0513H27.0505H27.0498H27.0491H27.0484H27.0476H27.0469H27.0462H27.0455H27.0448H27.0441H27.0434H27.0427H27.0421H27.0414H27.0407H27.04H27.0394H27.0387H27.0381H27.0374H27.0368H27.0361H27.0355H27.0348H27.0342H27.0336H27.033H27.0323H27.0317H27.0311H27.0305H27.0299H27.0293H27.0287H27.0281H27.0275H27.027H27.0264H27.0258H27.0252H27.0247H27.0241H27.0236H27.023H27.0225H27.0219H27.0214H27.0209H27.0203H27.0198H27.0193H27.0188H27.0183H27.0178H27.0173H27.0168H27.0163H27.0158H27.0153H27.0148H27.0143H27.0139H27.0134H27.0129H27.0125H27.012H27.0115H27.0111H27.0107H27.0102H27.0098H27.0094H27.0089H27.0085H27.0081H27.0077H27.0073H27.0069H27.0065H27.0061H27.0057H27.0053H27.0049H27.0045H27.0041H27.0038H27.0034H27.0031H27.0027H27.0023H27.002H27.0016H27.0013H27.001H27.0006H27.0003H27H26.9997H26.9994H26.999H26.9987H26.9984H26.9981H26.9978H26.9976H26.9973H26.997H26.9967H26.9964H26.9962H26.9959H26.9956H26.9954H26.9951H26.9949H26.9947H26.9944H26.9942H26.994H26.9937H26.9935H26.9933H26.9931H26.9929H26.9927H26.9925H26.9923H26.9921H26.9919H26.9917H26.9915H26.9914H26.9912H26.991H26.9909H26.9907H26.9906H26.9904Z" fill="#111928" stroke="#111928" stroke-width="0.25"/>
</svg>
