<svg width="53" height="53" viewBox="0 0 53 53" fill="none" xmlns="http://www.w3.org/2000/svg">
<g filter="url(#filter0_d)">
<rect width="52" height="52" fill="white"/>
<path d="M18.5702 18.6588V33.0753C18.5702 34.6411 18.3338 35.1728 16.8272 35.2024C16.5022 35.2024 16 35.2319 16 35.7046C16 36.2363 16.4727 36.2363 17.0044 36.2363H21.5835C22.1152 36.2363 22.5583 36.2363 22.5583 35.7046C22.5583 35.2319 22.0857 35.2024 21.6721 35.2024C20.0473 35.1728 19.8109 34.5524 19.8109 33.0162V19.486L32.5731 36.3545C32.839 36.709 32.9867 36.7976 33.1935 36.7976C33.6957 36.7976 33.6957 36.325 33.6957 35.8227V19.1315C33.6957 17.4771 33.9616 17.0635 35.3205 17.034C35.4978 17.034 36 17.0044 36 16.5318C36 16 35.5569 16 35.0251 16H30.712C30.1802 16 29.7075 16 29.7075 16.5318C29.7075 17.034 30.2393 17.034 30.5643 17.034C32.2186 17.0635 32.4549 17.6544 32.4549 19.2201V28.4668L23.5332 16.4136C23.2378 16 23.1492 16 22.4697 16H17.3294C16.7976 16 16.3545 16 16.3545 16.5318C16.3545 16.9749 16.7976 17.034 16.9749 17.034C17.7725 17.1226 18.3338 17.5953 18.6292 17.9498C18.5702 18.1861 18.5702 18.2452 18.5702 18.6588ZM32.6617 34.7297L19.8109 17.743C19.5155 17.3885 19.5155 17.3294 19.1905 17.034H22.7061L32.6617 30.4756V34.7297Z" fill="black"/>
</g>
<defs>
<filter id="filter0_d" x="0" y="0" width="53" height="53" filterUnits="userSpaceOnUse" color-interpolation-filters="sRGB">
<feFlood flood-opacity="0" result="BackgroundImageFix"/>
<feColorMatrix in="SourceAlpha" type="matrix" values="0 0 0 0 0 0 0 0 0 0 0 0 0 0 0 0 0 0 127 0" result="hardAlpha"/>
<feOffset dx="1" dy="1"/>
<feColorMatrix type="matrix" values="0 0 0 0 0 0 0 0 0 0 0 0 0 0 0 0 0 0 0.25 0"/>
<feBlend mode="normal" in2="BackgroundImageFix" result="effect1_dropShadow"/>
<feBlend mode="normal" in="SourceGraphic" in2="effect1_dropShadow" result="shape"/>
</filter>
</defs>
</svg>
