<svg width="53" height="53" viewBox="0 0 53 53" fill="none" xmlns="http://www.w3.org/2000/svg">
<rect width="53" height="53" rx="4" fill="#D0F0FD"/>
<path d="M18.4452 33.0753V18.6588V18.6537C18.4452 18.2798 18.4452 18.1863 18.4927 17.9825C18.2016 17.6509 17.6843 17.2407 16.9676 17.159C16.8683 17.1582 16.6947 17.1413 16.5399 17.0596C16.4589 17.0169 16.3802 16.9548 16.3218 16.8655C16.263 16.7755 16.2295 16.6645 16.2295 16.5318C16.2295 16.3818 16.2608 16.2559 16.328 16.155C16.3958 16.0534 16.4918 15.9895 16.5986 15.9494C16.7973 15.8749 17.06 15.875 17.3119 15.875C17.3178 15.875 17.3236 15.875 17.3294 15.875H22.4697H22.4734C22.6402 15.875 22.7762 15.875 22.8884 15.8817C23.0018 15.8884 23.0994 15.9024 23.1877 15.9341C23.3712 15.9999 23.4864 16.133 23.6343 16.3401C23.6345 16.3404 23.6347 16.3407 23.6349 16.341L32.3299 28.0878V19.2201C32.3299 18.8305 32.3151 18.5087 32.269 18.2436C32.223 17.9789 32.1471 17.7789 32.0307 17.627C31.8023 17.3287 31.3832 17.1738 30.5632 17.159L30.5556 17.159C30.3982 17.159 30.1659 17.1591 29.9715 17.0888C29.8698 17.052 29.7705 16.9934 29.697 16.8989C29.6224 16.803 29.5825 16.6806 29.5825 16.5318C29.5825 16.3803 29.6163 16.2535 29.6874 16.1524C29.7586 16.0512 29.8585 15.9883 29.968 15.9489C30.1734 15.8749 30.4427 15.875 30.6958 15.875L30.712 15.875H35.0251L35.0426 15.875C35.2945 15.875 35.5572 15.8749 35.7559 15.9494C35.8627 15.9895 35.9587 16.0534 36.0265 16.155C36.0937 16.2559 36.125 16.3818 36.125 16.5318C36.125 16.6734 36.0869 16.7901 36.0202 16.8827C35.9544 16.9741 35.8663 17.0344 35.778 17.0741C35.6058 17.1516 35.4146 17.1589 35.3219 17.159M18.4452 33.0753L35.3205 17.034M18.4452 33.0753C18.4452 33.4649 18.4304 33.7833 18.3865 34.0432C18.3426 34.3029 18.271 34.4958 18.1634 34.6403C17.9533 34.9225 17.5722 35.0626 16.826 35.0774L18.4452 33.0753ZM35.3219 17.159C35.3214 17.159 35.321 17.159 35.3205 17.159V17.034M35.3219 17.159C35.3223 17.159 35.3228 17.159 35.3232 17.159L35.3205 17.034M35.3219 17.159C34.6459 17.1738 34.2963 17.2857 34.0984 17.5486C33.9968 17.6836 33.9261 17.8696 33.8817 18.1309C33.8373 18.3923 33.8207 18.72 33.8207 19.1315V35.8227V35.8377C33.8207 36.0772 33.8208 36.3385 33.751 36.5395C33.714 36.6462 33.6546 36.7452 33.5581 36.8165C33.4611 36.8881 33.339 36.9226 33.1935 36.9226C33.0677 36.9226 32.9536 36.8943 32.8343 36.8118C32.7213 36.7335 32.6082 36.6096 32.4734 36.4299L32.4734 36.4299L32.5731 36.3545C32.839 36.709 32.9867 36.7976 33.1935 36.7976C33.6957 36.7976 33.6957 36.325 33.6957 35.8227V19.1315C33.6957 17.4771 33.9616 17.0635 35.3205 17.034M32.5367 34.3573L19.9106 17.6676L19.9107 17.6675L19.9069 17.663C19.8179 17.5562 19.7554 17.4752 19.7012 17.4052C19.6321 17.3158 19.5767 17.2441 19.4975 17.159H22.6431L32.5367 30.5168V34.3573ZM19.9359 19.8584L32.4731 36.4295L16.8272 35.2024C16.5022 35.2024 16 35.2319 16 35.7046C16 36.2363 16.4727 36.2363 17.0044 36.2363H21.5835C22.1152 36.2363 22.5583 36.2363 22.5583 35.7046C22.5583 35.2319 22.0857 35.2024 21.6721 35.2024L21.6744 35.0774C21.674 35.0774 21.6736 35.0774 21.6733 35.0774C20.8702 35.0626 20.4579 34.9012 20.2323 34.5994C19.9984 34.2865 19.9359 33.7894 19.9359 33.0162V19.8584ZM32.4549 28.2567V28.4668L32.3299 28.2979L32.4549 28.2567Z" fill="#111928" stroke="#111928" stroke-width="0.25"/>
</svg>
