<svg width="53" height="53" viewBox="0 0 53 53" fill="none" xmlns="http://www.w3.org/2000/svg">
<g filter="url(#filter0_d)">
<rect width="52" height="52" fill="none"/>
<path d="M33.905 12.2766C34.1669 11.8183 34.1669 11.7529 34.1669 11.6547C34.1669 11.4255 33.9705 11 33.5122 11C33.1194 11 33.0212 11.1964 32.7921 11.6547L18.0949 40.2308C17.833 40.689 17.833 40.7545 17.833 40.8527C17.833 41.1146 18.0621 41.5074 18.4877 41.5074C18.8805 41.5074 18.9787 41.311 19.2078 40.8527L33.905 12.2766Z" fill="black"/>
<path d="M34.8543 18.0704C35.4108 18.0704 36 18.0704 36 17.4157C36 16.761 35.4108 16.761 34.8543 16.761H26.0491C20.4517 16.761 16 21.0164 16 26.2537C16 31.491 20.4517 35.7463 26.0491 35.7463H34.8543C35.4108 35.7463 36 35.7463 36 35.0917C36 34.437 35.4108 34.437 34.8543 34.437H26.1146C21.0082 34.437 17.3093 30.6399 17.3093 26.2537C17.3093 21.8674 21.0082 18.0704 26.1146 18.0704H34.8543Z" fill="black"/>
</g>
<defs>
<filter id="filter0_d" x="0" y="0" width="53" height="53" filterUnits="userSpaceOnUse" color-interpolation-filters="sRGB">
<feFlood flood-opacity="0" result="BackgroundImageFix"/>
<feColorMatrix in="SourceAlpha" type="matrix" values="0 0 0 0 0 0 0 0 0 0 0 0 0 0 0 0 0 0 127 0" result="hardAlpha"/>
<feOffset dx="1" dy="1"/>
<feColorMatrix type="matrix" values="0 0 0 0 0 0 0 0 0 0 0 0 0 0 0 0 0 0 0.25 0"/>
<feBlend mode="normal" in2="BackgroundImageFix" result="effect1_dropShadow"/>
<feBlend mode="normal" in="SourceGraphic" in2="effect1_dropShadow" result="shape"/>
</filter>
</defs>
</svg>
