<svg width="53" height="53" viewBox="0 0 53 53" fill="none" xmlns="http://www.w3.org/2000/svg">
<rect width="53" height="53" rx="4" fill="#D0F0FD"/>
<path d="M26.7212 14.7499V14.7505H26.7214H26.7215H26.7217H26.7218H26.722H26.7222H26.7224H26.7225H26.7227H26.7229H26.7231H26.7233H26.7235H26.7237H26.7239H26.7241H26.7243H26.7246H26.7248H26.725H26.7252H26.7255H26.7257H26.726H26.7262H26.7264H26.7267H26.727H26.7272H26.7275H26.7278H26.728H26.7283H26.7286H26.7289H26.7292H26.7295H26.7297H26.73H26.7304H26.7307H26.731H26.7313H26.7316H26.7319H26.7323H26.7326H26.7329H26.7333H26.7336H26.734H26.7343H26.7347H26.735H26.7354H26.7357H26.7361H26.7365H26.7369H26.7372H26.7376H26.738H26.7384H26.7388H26.7392H26.7396H26.74H26.7404H26.7408H26.7413H26.7417H26.7421H26.7425H26.743H26.7434H26.7439H26.7443H26.7448H26.7452H26.7457H26.7461H26.7466H26.7471H26.7475H26.748H26.7485H26.749H26.7495H26.75H26.7505H26.751H26.7515H26.752H26.7525H26.753H26.7535H26.754H26.7546H26.7551H26.7556H26.7562H26.7567H26.7573H26.7578H26.7584H26.7589H26.7595H26.7601H26.7606H26.7612H26.7618H26.7624H26.7629H26.7635H26.7641H26.7647H26.7653H26.7659H26.7665H26.7671H26.7678H26.7684H26.769H26.7696H26.7703H26.7709H26.7715H26.7722H26.7728H26.7735H26.7741H26.7748H26.7755H26.7761H26.7768H26.7775H26.7781H26.7788H26.7795H26.7802H26.7809H26.7816H26.7823H26.783H26.7837H26.7844H26.7851H26.7859H26.7866H26.7873H26.788H26.7888H26.7895H26.7903H26.791H26.7917H26.7925H26.7933H26.794H26.7948H26.7956H26.7963H26.7971H26.7979H26.7987H26.7995H26.8003H26.8011H26.8019H26.8027H26.8035H26.8043H26.8051H26.8059H26.8067H26.8076H26.8084H26.8092H26.8101H26.8109H26.8118H26.8126H26.8135H26.8143H26.8152H26.8161H26.8169H26.8178H26.8187H26.8196H26.8205H26.8213H26.8222H26.8231H26.824H26.8249H26.8259H26.8268H26.8277H26.8286H26.8295H26.8305H26.8314H26.8323H26.8333H26.8342H26.8351H26.8361H26.8371H26.838H26.839H26.8399H26.8409H26.8419H26.8429H26.8438H26.8448H26.8458H26.8468H26.8478H26.8488H26.8498H26.8508H26.8518H26.8529H26.8539H26.8549H26.8559H26.857H26.858H26.859H26.8601H26.8611H26.8622H26.8632H26.8643H26.8654H26.8664H26.8675H26.8686H26.8697H26.8707H26.8718H26.8729H26.874H26.8751H26.8762H26.8773H26.8784H26.8795H26.8806H26.8818H26.8829H26.884H26.8852H26.8863H26.8874H26.8886H26.8897H26.8909H26.892H26.8932H26.8943H26.8955H26.8967H26.8979H26.899H26.9002H26.9014H26.9026H26.9038H26.905H26.9062H26.9074H26.9086H26.9098H26.911H26.9123H26.9135H26.9147H26.9159H26.9172H26.9184H26.9197H26.9209H26.9222H26.9234H26.9247H26.9259H26.9272H26.9285H26.9298H26.931H26.9323H26.9336H26.9349H26.9362H26.9375H26.9388H26.9401H26.9414H26.9427H26.944H26.9454H26.9467H26.948H26.9493H26.9507H26.952H26.9534H26.9547H26.9561H26.9574H26.9588H26.9601H26.9615H26.9629H26.9643H26.9656H26.967H26.9684H26.9698H26.9712H26.9726H26.974H26.9754H26.9768H26.9782H26.9796H26.9811H26.9825H26.9839H26.9853H26.9868H26.9882H26.9897H26.9911H26.9926H26.994H26.9955H26.9969H26.9984H26.9999H27.0014H27.0028H27.0043H27.0058H27.0073H27.0088H27.0103H27.0118H27.0133H27.0148H27.0163H27.0178H27.0194H27.0209H27.0224H27.0239H27.0255H27.027H27.0286H27.0301H27.0317H27.0332H27.0348H27.0363H27.0379H27.0395H27.0411H27.0426H27.0442H27.0458H27.0474H27.049H27.0506H27.0522H27.0538H27.0554H27.057H27.0586H27.0603H27.0619H27.0635H27.0652H27.0668H27.0684H27.0701H27.0717H27.0734H27.075H27.0767H27.0784H27.08H27.0817H27.0834H27.0851H27.0867H27.0884H27.0901H27.0918H27.0935H27.0952H27.0969H27.0986H27.1003H27.1021H27.1038H27.1055H27.1072H27.109H27.1107H27.1125H27.1142H27.1159H27.1177H27.1195H27.1212H27.123H27.1247H27.1265H27.1283H27.1301H27.1319H27.1336H27.1354H27.1372H27.139H27.1408H27.1426H27.1445H27.1463H27.1481H27.1499H27.1517H27.1536H27.1554H27.1572H27.1591H27.1609H27.1628H27.1646H27.1665H27.1683H27.1702H27.1721H27.1739H27.1758H27.1777H27.1796H27.1815H27.1834H27.1853H27.1872H27.1891H27.191H27.1929H27.1948H27.1967H27.1986H27.2006H27.2025H27.2044H27.2064H27.2083H27.2102H27.2122H27.2141H27.2161H27.2181H27.22H27.222H27.224H27.2259H27.2279H27.2299H27.2319H27.2339H27.2359H27.2379H27.2399H27.2419H27.2439H27.2459H27.2479H27.25H27.252H27.254H27.2561H27.2581H27.2601H27.2622H27.2642H27.2663H27.2683H27.2704H27.2725H27.2745H27.2766H27.2787H27.2808H27.2828H27.2849H27.287H27.2891H27.2912H27.2933H27.2954H27.2975H27.2997H27.3018H27.3039C27.6639 14.7505 28.1539 14.7377 28.7748 14.7118C29.3721 14.6869 29.9576 14.6858 30.5315 14.7085L33.87 8.3002C33.9191 8.16006 34.0089 8.05081 34.1375 7.97845C34.266 7.90618 34.4253 7.875 34.6067 7.875C34.8136 7.875 34.9971 7.93477 35.1509 8.05777M26.7212 14.7499L35.0728 8.15538M26.7212 14.7499L26.709 14.7511C23.7807 15.0387 21.2427 16.2031 19.0991 18.2421L19.1853 18.3327M26.7212 14.7499L19.1853 18.3327M35.1509 8.05777L35.0728 8.15538M35.1509 8.05777C35.1509 8.05777 35.1509 8.05777 35.1509 8.05776L35.0728 8.15538M35.1509 8.05777C35.2973 8.17489 35.3954 8.31537 35.4285 8.48046C35.4543 8.60933 35.4776 8.68545 35.4954 8.721C35.5109 8.75203 35.5093 8.78079 35.5089 8.78763L35.5089 8.7879C35.5082 8.79909 35.5064 8.80862 35.505 8.81464C35.5023 8.82707 35.4982 8.83974 35.4944 8.85074C35.4864 8.87354 35.4746 8.90303 35.4596 8.93782C35.4295 9.00807 35.3834 9.10854 35.3217 9.2384C35.1981 9.49854 35.0099 9.88142 34.7573 10.3866C34.2675 11.3662 33.5345 12.8079 32.5583 14.7117M35.0728 8.15538C35.2023 8.25896 35.28 8.3755 35.3059 8.50498C35.3318 8.63446 35.3577 8.7251 35.3836 8.7769C35.4092 8.82815 34.4206 10.8064 32.4178 14.7117H32.5583M32.5583 14.7117C32.537 14.7531 32.5157 14.7948 32.4942 14.8367H32.3537H34.8009C35.1894 15.0439 35.3836 15.3028 35.3836 15.6136C35.3836 15.8467 35.2153 16.0927 34.8786 16.3516L31.5379 16.3905M32.5583 14.7117H34.8009H34.8321L34.8597 14.7264C35.2698 14.9451 35.5086 15.2384 35.5086 15.6136C35.5086 15.9081 35.2983 16.1865 34.9548 16.4507L34.9217 16.4761L34.8801 16.4766L31.6147 16.5146M31.6147 16.5146L31.6491 16.4476L31.5379 16.3905M31.6147 16.5146L31.5394 16.5155L31.5379 16.3905M31.6147 16.5146L27.1588 25.1998M31.5379 16.3905L27.0183 25.1998H27.1588M27.1588 25.1998L27.0947 25.3248H34.8009C35.1894 25.532 35.3836 25.7909 35.3836 26.1017C35.3836 26.4125 35.1894 26.6714 34.8009 26.8786H26.1774M27.1588 25.1998H34.8009H34.8321L34.8597 25.2145C35.2698 25.4332 35.5086 25.7264 35.5086 26.1017C35.5086 26.4769 35.2698 26.7702 34.8597 26.9889L34.8321 27.0036H34.8009H26.2536M26.2536 27.0036L26.2885 26.9359L26.1774 26.8786M26.2536 27.0036H26.1774V26.8786M26.2536 27.0036L22.4971 34.2889M26.1774 26.8786L22.3317 34.3368M22.3317 34.3368L22.3956 34.2294C22.4293 34.2494 22.4631 34.2692 22.4971 34.2889M22.3317 34.3368C23.2899 34.9065 24.3387 35.3079 25.4781 35.541C26.1774 35.6964 27.9642 35.787 30.8387 35.8129M22.3317 34.3368L22.4428 34.3941L22.4971 34.2889M22.4971 34.2889C23.4152 34.8197 24.417 35.1963 25.5032 35.4185L25.5052 35.419C25.8434 35.4941 26.4553 35.5553 27.349 35.6007C28.2399 35.6459 29.4031 35.675 30.8392 35.6879M30.8392 35.6879H30.8387V35.8129M30.8392 35.6879C30.8394 35.6879 30.8396 35.6879 30.8398 35.6879L30.8387 35.8129M30.8392 35.6879H34.8786H34.9211L34.9548 35.7138C35.3027 35.9814 35.5086 36.2726 35.5086 36.5898C35.5086 36.9651 35.2698 37.2583 34.8597 37.477L34.8321 37.4917H34.8009H31.033H31.0319H31.0309H31.0298H31.0287H31.0277H31.0266H31.0255H31.0244H31.0233H31.0222H31.0211H31.02H31.0189H31.0178H31.0167H31.0156H31.0145H31.0134H31.0123H31.0112H31.01H31.0089H31.0078H31.0067H31.0055H31.0044H31.0032H31.0021H31.0009H30.9998H30.9986H30.9975H30.9963H30.9952H30.994H30.9928H30.9917H30.9905H30.9893H30.9881H30.987H30.9858H30.9846H30.9834H30.9822H30.981H30.9798H30.9786H30.9774H30.9762H30.975H30.9738H30.9725H30.9713H30.9701H30.9689H30.9676H30.9664H30.9652H30.9639H30.9627H30.9614H30.9602H30.9589H30.9577H30.9564H30.9552H30.9539H30.9526H30.9514H30.9501H30.9488H30.9476H30.9463H30.945H30.9437H30.9424H30.9411H30.9398H30.9385H30.9372H30.9359H30.9346H30.9333H30.932H30.9307H30.9294H30.928H30.9267H30.9254H30.9241H30.9227H30.9214H30.92H30.9187H30.9174H30.916H30.9147H30.9133H30.912H30.9106H30.9092H30.9079H30.9065H30.9051H30.9037H30.9024H30.901H30.8996H30.8982H30.8968H30.8954H30.894H30.8926H30.8912H30.8898H30.8884H30.887H30.8856H30.8842H30.8828H30.8813H30.8799H30.8785H30.8771H30.8756H30.8742H30.8727H30.8713H30.8699H30.8684H30.867H30.8655H30.864H30.8626H30.8611H30.8597H30.8582H30.8567H30.8552H30.8538H30.8523H30.8508H30.8493H30.8478H30.8463H30.8448H30.8433H30.8418H30.8403H30.8388H30.8373H30.8358H30.8343H30.8327H30.8312H30.8297H30.8282H30.8266H30.8251H30.8236H30.822H30.8205H30.8189H30.8174H30.8158H30.8143H30.8127H30.8111H30.8096H30.808H30.8064H30.8049H30.8033H30.8017H30.8001H30.7985H30.797H30.7954H30.7938H30.7922H30.7906H30.789H30.7874H30.7858H30.7841H30.7825H30.7809H30.7793H30.7777H30.776H30.7744H30.7728H30.7711H30.7695H30.7679H30.7662H30.7646H30.7629H30.7613H30.7596H30.7579H30.7563H30.7546H30.753H30.7513H30.7496H30.7479H30.7463H30.7446H30.7429H30.7412H30.7395H30.7378H30.7361H30.7344H30.7327H30.731H30.7293H30.7276H30.7259H30.7241H30.7224H30.7207H30.719H30.7172H30.7155H30.7138H30.712H30.7103H30.7085H30.7068H30.705H30.7033H30.7015H30.6998H30.698H30.6962H30.6945H30.6927H30.6909H30.6891H30.6874H30.6856H30.6838H30.682H30.6802H30.6784H30.6766H30.6748H30.673H30.6712H30.6694H30.6676H30.6658H30.6639H30.6621H30.6603H30.6585H30.6566H30.6548H30.653H30.6511H30.6493H30.6474H30.6456H30.6437H30.6419H30.64H30.6382H30.6363H30.6344H30.6326H30.6307H30.6288H30.6269H30.625H30.6232H30.6213H30.6194H30.6175H30.6156H30.6137H30.6118H30.6099H30.608H30.6061H30.6042H30.6022H30.6003H30.5984H30.5965H30.5945H30.5926H30.5907H30.5887H30.5868H30.5848H30.5829H30.5809H30.579H30.577H30.5751H30.5731H30.5712H30.5692H30.5672H30.5652H30.5633H30.5613H30.5593H30.5573H30.5553H30.5533H30.5513H30.5493H30.5473H30.5453H30.5433H30.5413H30.5393H30.5373H30.5353H30.5333H30.5312H30.5292H30.5272H30.5252H30.5231H30.5211H30.519H30.517H30.5149H30.5129H30.5108H30.5088H30.5067H30.5047H30.5026H30.5005H30.4985H30.4964H30.4943H30.4922H30.4901H30.4881H30.486H30.4839H30.4818H30.4797H30.4776H30.4755H30.4734H30.4713H30.4691H30.467H30.4649H30.4628H30.4607H30.4585H30.4564H30.4543H30.4521H30.45H30.4479H30.4457H30.4436H30.4414H30.4393H30.4371H30.4349H30.4328H30.4306H30.4284H30.4263H30.4241H30.4219H30.4197H30.4176H30.4154H30.4132H30.411H30.4088H30.4066H30.4044H30.4022H30.4H30.3978H30.3955H30.3933H30.3911H30.3889H30.3867H30.3844H30.3822H30.38H30.3777H30.3755H30.3733H30.371H30.3688H30.3665H30.3642H30.362H30.3597H30.3575H30.3552H30.3529H30.3507H30.3484H30.3461H30.3438H30.3415H30.3392H30.337H30.3347H30.3324H30.3301H30.3278H30.3255H30.3232H30.3208H30.3185H30.3162H30.3139H30.3116H30.3092H30.3069H30.3046H30.3022H30.2999H30.2976H30.2952H30.2929H30.2905H30.2882H30.2858H30.2835H30.2811H30.2787H30.2764H30.274H30.2716H30.2692H30.2669H30.2645H30.2621H30.2597H30.2573H30.2549H30.2525H30.2501H30.2477H30.2453H30.2429H30.2405H30.2381H30.2357H30.2332H30.2308H30.2284H30.226H30.2235H30.2211H30.2187H30.2162H30.2138H30.2113H30.2089H30.2064H30.204H30.2015H30.199H30.1966H30.1941H30.1916H30.1892H30.1867H30.1842H30.1817H30.1792H30.1767H30.1743H30.1718H30.1693H30.1668H30.1643H30.1618H30.1592H30.1567H30.1542H30.1517H30.1492H30.1466H30.1441H30.1416H30.1391H30.1365H30.134H30.1314H30.1289H30.1263H30.1238H30.1212H30.1187H30.1161H30.1136H30.111H30.1084H30.1059H30.1033H30.1007C29.6624 37.4917 29.304 37.5047 29.0243 37.53L29.013 37.531V37.5305C26.0762 37.5305 23.6179 36.9794 21.6447 35.8695M30.8387 35.8129H34.8786C35.2153 36.0719 35.3836 36.3308 35.3836 36.5898C35.3836 36.9006 35.1894 37.1595 34.8009 37.3667H31.033H30.1007C29.6604 37.3667 29.2979 37.3797 29.013 37.4055C26.0894 37.4055 23.6526 36.8565 21.7023 35.7584C21.6831 35.7956 21.6639 35.8326 21.6447 35.8695M21.6447 35.8695C21.6084 35.849 21.5721 35.8283 21.5361 35.8075L16.3108 44.048L16.2465 44.1552C16.3989 44.2467 16.5775 44.2896 16.7769 44.2896C16.9747 44.2896 17.1468 44.2473 17.2792 44.148L17.2042 44.048L17.2601 44.1598C17.2853 44.1472 17.3009 44.1281 17.3025 44.1262L17.3026 44.126C17.3077 44.1201 17.3121 44.1141 17.3153 44.1096C17.3219 44.1002 17.3293 44.0887 17.3369 44.0764C17.3524 44.0512 17.3731 44.0156 17.3986 43.9705C17.4498 43.88 17.5229 43.7466 17.6177 43.5708C17.8074 43.2189 18.0852 42.6949 18.451 41.9988C19.1726 40.626 20.2372 38.5828 21.6447 35.8695ZM19.1853 18.3327L19.0991 18.2421C16.9488 20.2877 15.875 22.911 15.875 26.1017C15.875 29.7566 17.3153 32.6858 20.1914 34.8781L19.1853 18.3327ZM16.0871 42.8564L16.083 42.8643L16.1942 42.9215L16.0925 42.8488C16.0907 42.8514 16.0889 42.8539 16.0871 42.8564ZM16.0777 43.7373H16.0777H16.0777ZM17.8713 23.947L17.748 23.9264L17.8713 23.9469C17.9459 23.4993 18.1723 22.8911 18.559 22.1177C18.9432 21.3493 19.404 20.6455 19.9413 20.0058C20.4745 19.3712 21.2273 18.7447 22.2042 18.1277C23.1751 17.5146 24.2881 17.0534 25.5446 16.7455C26.134 16.6232 27.4884 16.5463 29.6221 16.5181L25.1301 25.1998H17.6858C17.736 24.8057 17.7978 24.3881 17.8713 23.947ZM24.2244 27.0036L21.0109 33.2459C19.9432 32.3219 19.1269 31.2565 18.5604 30.0496C17.9795 28.812 17.6902 27.7985 17.6791 27.0036H24.2244Z" fill="#111928" stroke="#111928" stroke-width="0.25"/>
</svg>
