<svg width="53" height="53" viewBox="0 0 53 53" fill="none" xmlns="http://www.w3.org/2000/svg">
<g filter="url(#filter0_d)">
<rect width="52" height="52" fill="none"/>
<path d="M20.3506 34.8418C17.4502 32.6665 16 29.7531 16 26.1017C16 22.9423 17.0618 20.3527 19.1853 18.3327C21.3088 16.3128 23.8208 15.1604 26.7212 14.8755C26.7471 14.8755 26.9413 14.8755 27.3039 14.8755C27.6664 14.8755 28.1584 14.8626 28.78 14.8367C29.4015 14.8108 30.01 14.8108 30.6057 14.8367L33.9852 8.3496C34.0629 8.11653 34.27 8 34.6067 8C34.788 8 34.9433 8.05179 35.0728 8.15538C35.2023 8.25896 35.28 8.3755 35.3059 8.50498C35.3318 8.63446 35.3577 8.7251 35.3836 8.7769C35.4095 8.82869 34.3995 10.8486 32.3537 14.8367H34.8009C35.1894 15.0439 35.3836 15.3028 35.3836 15.6136C35.3836 15.8467 35.2153 16.0927 34.8786 16.3516L31.5379 16.3905L26.9542 25.3248H34.8009C35.1894 25.532 35.3836 25.7909 35.3836 26.1017C35.3836 26.4125 35.1894 26.6714 34.8009 26.8786H26.1774L22.3317 34.3368C23.2899 34.9065 24.3387 35.3079 25.4781 35.541C26.1774 35.6964 27.9642 35.787 30.8387 35.8129H34.8786C35.2153 36.0719 35.3836 36.3308 35.3836 36.5898C35.3836 36.9006 35.1894 37.1595 34.8009 37.3667H31.033C30.8517 37.3667 30.5409 37.3667 30.1007 37.3667C29.6604 37.3667 29.2979 37.3797 29.013 37.4055C26.0349 37.4055 23.5618 36.8358 21.5937 35.6964C18.7191 41.2382 17.256 44.0221 17.2042 44.048C17.1006 44.1257 16.9582 44.1646 16.7769 44.1646C16.5956 44.1646 16.4402 44.1257 16.3108 44.048C16.1813 43.9703 16.1036 43.8667 16.0777 43.7373C16.0518 43.6078 16.0259 43.5171 16 43.4653C16 43.2841 16.0647 43.1028 16.1942 42.9215L20.3506 34.8418ZM21.0498 33.4434L24.4293 26.8786H17.5538V26.9563C17.5538 27.785 17.8516 28.8338 18.4472 30.1027C19.0428 31.3716 19.9104 32.4852 21.0498 33.4434ZM25.2062 25.3248L29.8288 16.3905C27.5758 16.4164 26.1385 16.4941 25.517 16.6236C24.2481 16.9343 23.1216 17.4005 22.1375 18.022C21.1534 18.6435 20.3895 19.278 19.8456 19.9254C19.3018 20.5728 18.8357 21.2849 18.4472 22.0618C18.0588 22.8387 17.8257 23.4602 17.748 23.9264C17.6703 24.3925 17.6056 24.8328 17.5538 25.2471V25.3248H25.2062Z" fill="black"/>
</g>
<defs>
<filter id="filter0_d" x="0" y="0" width="53" height="53" filterUnits="userSpaceOnUse" color-interpolation-filters="sRGB">
<feFlood flood-opacity="0" result="BackgroundImageFix"/>
<feColorMatrix in="SourceAlpha" type="matrix" values="0 0 0 0 0 0 0 0 0 0 0 0 0 0 0 0 0 0 127 0" result="hardAlpha"/>
<feOffset dx="1" dy="1"/>
<feColorMatrix type="matrix" values="0 0 0 0 0 0 0 0 0 0 0 0 0 0 0 0 0 0 0.25 0"/>
<feBlend mode="normal" in2="BackgroundImageFix" result="effect1_dropShadow"/>
<feBlend mode="normal" in="SourceGraphic" in2="effect1_dropShadow" result="shape"/>
</filter>
</defs>
</svg>
