<svg width="53" height="53" viewBox="0 0 53 53" fill="none" xmlns="http://www.w3.org/2000/svg">
<rect width="53" height="53" rx="4" fill="#D0F0FD"/>
<path d="M35.5904 34.8009L35.5897 34.8007C35.3468 34.7482 35.073 34.5972 34.7829 34.3743C34.4945 34.1528 34.1987 33.8672 33.912 33.5571C33.3557 32.9553 32.8426 32.271 32.4929 31.8045L32.4622 31.7636C32.4338 31.7231 32.3827 31.653 32.3108 31.5544C31.8596 30.9358 30.5889 29.1937 28.9539 26.5698C30.195 26.3316 31.4193 25.9351 32.3486 25.1838C33.3298 24.3906 33.9707 23.2112 33.9707 21.444C33.9707 19.3666 32.868 17.9684 31.3385 17.0959C29.8144 16.2266 27.8623 15.875 26.131 15.875H16.9898C16.9844 15.875 16.979 15.875 16.9736 15.875C16.7244 15.875 16.4587 15.8749 16.2561 15.9479C16.1479 15.9868 16.0492 16.049 15.9787 16.1491C15.9084 16.2491 15.875 16.3744 15.875 16.524C15.875 16.6726 15.9172 16.7938 15.9923 16.888C16.0661 16.9806 16.1644 17.0381 16.2623 17.0743C16.4508 17.144 16.6657 17.1439 16.7804 17.1439C16.7823 17.1439 16.7842 17.1439 16.786 17.1439C17.2003 17.1439 17.5114 17.1568 17.7472 17.1967C17.9826 17.2366 18.1282 17.3012 18.2244 17.3931C18.3196 17.4841 18.3821 17.6167 18.4192 17.8267C18.4567 18.0384 18.466 18.314 18.466 18.6783V33.2635C18.466 33.6278 18.4567 33.9034 18.4192 34.1151C18.3821 34.3251 18.3196 34.4577 18.2244 34.5487C18.1282 34.6406 17.9826 34.7052 17.7472 34.7451C17.5114 34.785 17.2003 34.7979 16.786 34.7979H16.7804C16.6657 34.7979 16.4508 34.7978 16.2623 34.8675C16.1644 34.9037 16.0661 34.9612 15.9923 35.0538C15.9172 35.148 15.875 35.2692 15.875 35.4178C15.875 35.5674 15.9084 35.6927 15.9787 35.7927C16.0492 35.8928 16.1479 35.955 16.2561 35.9939C16.4587 36.0669 16.7244 36.0668 16.9736 36.0668H16.9898H24.9665L24.9839 36.0668C25.2319 36.0668 25.4911 36.0669 25.6872 35.9933C25.7927 35.9538 25.8877 35.8906 25.9548 35.7901C26.0213 35.6903 26.0522 35.5659 26.0522 35.4178C26.0522 35.2724 26.0155 35.1523 25.9454 35.0574C25.876 34.9634 25.7816 34.9047 25.6839 34.8678C25.4986 34.7978 25.2758 34.7979 25.1215 34.7979H25.1121C24.6982 34.7979 24.3893 34.7832 24.1568 34.7412C23.9249 34.6993 23.7832 34.6326 23.6903 34.5397C23.5979 34.4473 23.5383 34.3136 23.5037 34.1042C23.4687 33.8932 23.4612 33.6209 23.4612 33.2635V26.9256H24.3163L28.6451 33.6208C28.6453 33.6211 28.6454 33.6214 28.6456 33.6217C28.6854 33.6854 28.7331 33.762 28.7865 33.8478C29.1194 34.3828 29.6761 35.2776 29.9564 35.661C30.0596 35.8372 30.1521 35.9583 30.3273 36.0167C30.4089 36.0439 30.5022 36.0555 30.6114 36.0612C30.7202 36.0668 30.8539 36.0668 31.0185 36.0668H31.0218H35.0393L35.0567 36.0668C35.3047 36.0668 35.5639 36.0669 35.76 35.9933C35.8655 35.9538 35.9605 35.8906 36.0276 35.7901C36.0941 35.6903 36.125 35.5659 36.125 35.4178C36.125 35.1174 35.9005 34.8697 35.5904 34.8009ZM31.9213 23.8288C31.3924 24.4323 30.5432 24.9078 29.2317 25.1913C29.9102 24.099 29.9824 22.6548 29.9824 21.4731C29.9824 20.1736 29.8331 18.7225 29.0491 17.5395C29.642 17.6948 30.455 17.9788 31.1635 18.4887C32.0083 19.0966 32.7018 20.0227 32.7018 21.444C32.7018 22.371 32.4882 23.182 31.9213 23.8288ZM23.4612 18.591C23.4612 18.2788 23.4647 17.9273 23.6636 17.6482C23.8558 17.3785 24.2582 17.1439 25.1412 17.1439C26.3649 17.1439 27.245 17.3963 27.8248 18.0413C28.4082 18.6903 28.7134 19.7646 28.7134 21.4731C28.7134 23.3554 28.4828 24.3697 27.7366 24.9361C27.3601 25.2219 26.8397 25.4039 26.1178 25.513C25.4225 25.6181 24.5515 25.6541 23.4612 25.6566V18.591ZM19.5585 34.7979C19.6386 34.5546 19.6816 34.281 19.7052 34.036C19.7349 33.728 19.7349 33.4539 19.7349 33.3223V33.3217V18.6201V18.6194C19.7349 18.4734 19.7349 18.1992 19.7052 17.8947C19.6816 17.6526 19.6386 17.3847 19.5588 17.1439H22.458C22.1922 17.6011 22.1923 18.1181 22.1923 18.4916L22.1923 18.5036V33.3217V33.3224C22.1923 33.4685 22.1923 33.7426 22.222 34.0471C22.2456 34.2892 22.2886 34.557 22.3684 34.7979H19.5585ZM30.8861 34.7979L25.7875 26.8949C25.8936 26.8787 25.9872 26.8674 26.131 26.8674C26.5491 26.8674 27.1461 26.8152 27.5811 26.7602C27.6022 26.7942 27.6267 26.8338 27.6545 26.8786C27.9895 27.42 28.7993 28.7286 29.7975 30.2005C30.8758 31.7903 32.1789 33.5785 33.345 34.7979H30.8861Z" fill="#111928" stroke="#111928" stroke-width="0.25"/>
</svg>
