<svg width="52" height="52" viewBox="0 0 52 52" fill="none" xmlns="http://www.w3.org/2000/svg">
<path d="M17 40V12H27.1569C30.5033 12 32.9608 12.6536 34.5294 13.9608C36.098 15.2418 36.8824 17.0719 36.8824 19.451C36.8824 21.1765 36.4379 22.6536 35.549 23.8824C34.6863 25.085 33.4575 25.9869 31.8627 26.5882L40.6078 40H32.9608L25.4706 27.5686H23.7843V40H17ZM19.0784 37.9216H21.7059V14.0784H19.0784V37.9216ZM34.0196 37.9608H36.9216L30.0588 27.1765C29.2745 27.3333 28.4771 27.4379 27.6667 27.4902L34.0196 37.9608ZM23.7843 25.4902H29.2353V14.0784H23.7843V25.4902ZM31.3529 24.8235C32.2941 24.3791 33.0654 23.7647 33.6667 22.9804C34.2941 22.1961 34.6078 21.0196 34.6078 19.451C34.6078 18.0131 34.3333 16.9281 33.7843 16.1961C33.2353 15.4379 32.4248 14.8889 31.3529 14.549V24.8235Z" fill="#454545"/>
</svg>
