<svg width="53" height="53" viewBox="0 0 53 53" fill="none" xmlns="http://www.w3.org/2000/svg">
<g filter="url(#filter0_d)">
<rect width="52" height="52" fill="none"/>
<path d="M23.3362 26.8006H24.3843L28.7511 33.5546C29.0422 34.0204 29.7409 35.1558 30.0611 35.5924C30.2649 35.9418 30.3523 35.9418 31.0218 35.9418H35.0393C35.5633 35.9418 36 35.9418 36 35.4178C36 35.1849 35.8253 34.9811 35.5633 34.9229C34.4862 34.69 33.0597 32.7686 32.361 31.837C32.1572 31.5459 30.7016 29.6245 28.7511 26.4803C31.3421 26.0146 33.8457 24.9083 33.8457 21.444C33.8457 17.3974 29.5662 16 26.131 16H16.9898C16.4658 16 16 16 16 16.524C16 17.0189 16.5531 17.0189 16.786 17.0189C18.4454 17.0189 18.591 17.2227 18.591 18.6783V33.2635C18.591 34.7191 18.4454 34.9229 16.786 34.9229C16.5531 34.9229 16 34.9229 16 35.4178C16 35.9418 16.4658 35.9418 16.9898 35.9418H24.9665C25.4905 35.9418 25.9272 35.9418 25.9272 35.4178C25.9272 34.9229 25.4323 34.9229 25.1121 34.9229C23.4527 34.9229 23.3362 34.69 23.3362 33.2635V26.8006ZM28.9549 25.3741C29.77 24.2969 29.8574 22.754 29.8574 21.4731C29.8574 20.0757 29.6827 18.5328 28.7511 17.3392C29.9447 17.6012 32.8268 18.5036 32.8268 21.444C32.8268 23.3362 31.9534 24.821 28.9549 25.3741ZM23.3362 18.591C23.3362 17.9796 23.3362 17.0189 25.1412 17.0189C27.6157 17.0189 28.8384 18.0378 28.8384 21.4731C28.8384 25.2285 27.936 25.7817 23.3362 25.7817V18.591ZM19.377 34.9229C19.6099 34.3988 19.6099 33.5837 19.6099 33.3217V18.6201C19.6099 18.329 19.6099 17.5429 19.377 17.0189H22.6958C22.3173 17.4847 22.3173 18.067 22.3173 18.5036V33.3217C22.3173 33.6128 22.3173 34.3988 22.5502 34.9229H19.377ZM25.5779 26.8006C25.7817 26.7715 25.8981 26.7424 26.131 26.7424C26.5677 26.7424 27.2082 26.6841 27.6448 26.6259C28.0815 27.3246 31.2256 32.5066 33.6419 34.9229H30.818L25.5779 26.8006Z" fill="black"/>
</g>
<defs>
<filter id="filter0_d" x="0" y="0" width="53" height="53" filterUnits="userSpaceOnUse" color-interpolation-filters="sRGB">
<feFlood flood-opacity="0" result="BackgroundImageFix"/>
<feColorMatrix in="SourceAlpha" type="matrix" values="0 0 0 0 0 0 0 0 0 0 0 0 0 0 0 0 0 0 127 0" result="hardAlpha"/>
<feOffset dx="1" dy="1"/>
<feColorMatrix type="matrix" values="0 0 0 0 0 0 0 0 0 0 0 0 0 0 0 0 0 0 0.25 0"/>
<feBlend mode="normal" in2="BackgroundImageFix" result="effect1_dropShadow"/>
<feBlend mode="normal" in="SourceGraphic" in2="effect1_dropShadow" result="shape"/>
</filter>
</defs>
</svg>
