<svg width="53" height="53" viewBox="0 0 53 53" fill="none" xmlns="http://www.w3.org/2000/svg">
<rect width="53" height="53" rx="4" fill="#D0F0FD"/>
<path d="M29.7769 38.132C29.7769 38.1321 29.7769 38.1322 29.777 38.1323C29.841 38.3115 29.9112 38.4849 30.0166 38.6129C30.1289 38.7492 30.2793 38.8319 30.4859 38.8319C30.8376 38.8319 31.125 38.5446 31.125 38.1928C31.125 38.1149 31.1161 38.0439 30.988 37.7361L22.1976 13.5754C22.1975 13.5752 22.1974 13.575 22.1974 13.5748C22.1227 13.3632 22.0582 13.1858 21.9617 13.0661C21.9101 13.0021 21.848 12.9523 21.77 12.9196C21.6935 12.8876 21.6084 12.875 21.5141 12.875C21.1624 12.875 20.875 13.1624 20.875 13.5141C20.875 13.5921 20.8839 13.6631 21.012 13.9709L29.7769 38.132Z" fill="#111928" stroke="#111928" stroke-width="0.25"/>
</svg>
