<svg width="53" height="53" viewBox="0 0 53 53" fill="none" xmlns="http://www.w3.org/2000/svg">
<rect width="53" height="53" rx="4" fill="#D0F0FD"/>
<path d="M34.8543 18.4343L34.8689 18.4343C35.1362 18.4343 35.4416 18.4344 35.68 18.3444C35.8056 18.297 35.92 18.2223 36.0019 18.1044C36.0837 17.9866 36.125 17.8373 36.125 17.6547C36.125 17.4721 36.0837 17.3227 36.0019 17.2049C35.9201 17.087 35.8056 17.0123 35.68 16.9649C35.4416 16.8749 35.1362 16.875 34.8689 16.875L34.8543 16.875H26.0491C20.389 16.875 15.875 21.1801 15.875 26.4926C15.875 31.8051 20.389 36.1103 26.0491 36.1103H34.8543H34.8689C35.1362 36.1103 35.4416 36.1104 35.68 36.0204C35.8056 35.973 35.9201 35.8983 36.0019 35.7804C36.0837 35.6626 36.125 35.5132 36.125 35.3306C36.125 35.148 36.0837 34.9986 36.0019 34.8808C35.9201 34.7629 35.8056 34.6882 35.68 34.6408C35.4416 34.5508 35.1362 34.5509 34.8689 34.5509H34.8543H26.1146C21.0721 34.5509 17.4343 30.8049 17.4343 26.4926C17.4343 22.1804 21.0721 18.4343 26.1146 18.4343H34.8543Z" fill="#111928" stroke="#111928" stroke-width="0.25"/>
</svg>
