<svg width="53" height="53" viewBox="0 0 53 53" fill="none" xmlns="http://www.w3.org/2000/svg">
<g filter="url(#filter0_d)">
<rect width="52" height="52" fill="white"/>
<path d="M25.8854 18.3093C30.9918 18.3093 34.6907 22.1064 34.6907 26.4926C34.6907 30.8789 30.9918 34.6759 25.8854 34.6759H17.1457C16.5892 34.6759 16 34.6759 16 35.3306C16 35.9853 16.5892 35.9853 17.1457 35.9853H25.9509C31.5483 35.9853 36 31.73 36 26.4926C36 21.2553 31.5483 17 25.9509 17H17.1457C16.5892 17 16 17 16 17.6547C16 18.3093 16.5892 18.3093 17.1457 18.3093H25.8854Z" fill="black"/>
</g>
<defs>
<filter id="filter0_d" x="0" y="0" width="53" height="53" filterUnits="userSpaceOnUse" color-interpolation-filters="sRGB">
<feFlood flood-opacity="0" result="BackgroundImageFix"/>
<feColorMatrix in="SourceAlpha" type="matrix" values="0 0 0 0 0 0 0 0 0 0 0 0 0 0 0 0 0 0 127 0" result="hardAlpha"/>
<feOffset dx="1" dy="1"/>
<feColorMatrix type="matrix" values="0 0 0 0 0 0 0 0 0 0 0 0 0 0 0 0 0 0 0.25 0"/>
<feBlend mode="normal" in2="BackgroundImageFix" result="effect1_dropShadow"/>
<feBlend mode="normal" in="SourceGraphic" in2="effect1_dropShadow" result="shape"/>
</filter>
</defs>
</svg>
