<svg width="53" height="53" viewBox="0 0 53 53" fill="none" xmlns="http://www.w3.org/2000/svg">
<rect width="53" height="53" rx="4" fill="#D0F0FD"/>
<path d="M30.6539 28.7717L30.654 28.7717L30.6579 28.7674C30.8916 28.5114 31.026 28.3643 31.1276 28.2849C31.1827 28.2419 31.2348 28.213 31.2939 28.1972C31.35 28.1821 31.4049 28.1811 31.4566 28.1811C31.7508 28.1811 32.0399 28.4393 32.0399 28.7643L32.0399 28.7687C32.0399 28.8057 32.0399 28.8494 32.0307 28.896C32.0206 28.9471 32.0008 28.9962 31.968 29.0515C31.906 29.1558 31.7883 29.2967 31.573 29.5347C31.1966 29.9675 30.5306 30.7359 30.1896 31.1369H33.198L33.2116 31.1369C33.3962 31.1369 33.6159 31.1368 33.7892 31.2022C33.8824 31.2374 33.9695 31.2936 34.0321 31.3839C34.0948 31.4741 34.125 31.5866 34.125 31.7201C34.125 31.8536 34.0948 31.9662 34.0322 32.0563C33.9695 32.1466 33.8824 32.2029 33.7892 32.2381C33.6159 32.3035 33.3962 32.3034 33.2116 32.3034L33.198 32.3034H29.177L26.3667 35.582H33.198L33.2116 35.582C33.3962 35.582 33.6159 35.5819 33.7892 35.6473C33.8824 35.6825 33.9695 35.7388 34.0322 35.8291C34.0948 35.9192 34.125 36.0318 34.125 36.1653C34.125 36.2988 34.0948 36.4113 34.0322 36.5015C33.9695 36.5918 33.8824 36.6481 33.7892 36.6833C33.6159 36.7487 33.3962 36.7486 33.2116 36.7486L33.198 36.7486H25.3509L23.3491 39.1103L23.3461 39.1138L23.346 39.1138L23.3421 39.118C23.1084 39.374 22.9741 39.5211 22.8724 39.6006C22.8173 39.6436 22.7652 39.6725 22.7061 39.6883C22.65 39.7034 22.5951 39.7044 22.5434 39.7044C22.2492 39.7044 21.9601 39.4462 21.9601 39.1211L21.9601 39.1167C21.9601 39.0797 21.9601 39.036 21.9693 38.9894C21.9794 38.9383 21.9992 38.8892 22.032 38.8339C22.094 38.7295 22.2119 38.5885 22.4275 38.3502M30.6539 28.7717L22.5205 38.4337M30.6539 28.7717L30.6509 28.7752L28.6491 31.1369H20.802L20.7884 31.1369C20.6038 31.1369 20.3841 31.1368 20.2108 31.2022C20.1176 31.2374 20.0305 31.2936 19.9679 31.3839C19.9052 31.4741 19.875 31.5866 19.875 31.7201C19.875 31.8536 19.9052 31.9662 19.9678 32.0563C20.0305 32.1466 20.1176 32.2029 20.2108 32.2381C20.3841 32.3035 20.6038 32.3034 20.7884 32.3034L20.802 32.3034H27.6333L24.823 35.582M30.6539 28.7717L24.823 35.582M22.4275 38.3502C22.4276 38.3501 22.4277 38.3499 22.4278 38.3498L22.5205 38.4337M22.4275 38.3502C22.4274 38.3503 22.4272 38.3505 22.4271 38.3507L22.5205 38.4337M22.4275 38.3502C22.7298 38.01 23.4524 37.1717 23.8108 36.7486M22.5205 38.4337C22.8435 38.0703 23.6468 37.1376 23.9744 36.7486H23.8108M23.8108 36.7486H20.802L20.7884 36.7486C20.6038 36.7486 20.3841 36.7487 20.2108 36.6833C20.1176 36.6481 20.0305 36.5918 19.9678 36.5015C19.9052 36.4113 19.875 36.2988 19.875 36.1653C19.875 36.0318 19.9052 35.9192 19.9678 35.8291C20.0305 35.7388 20.1176 35.6825 20.2108 35.6473C20.3841 35.5819 20.6038 35.582 20.7884 35.582L20.802 35.582H24.823M23.8108 36.7486C23.8508 36.7013 23.8863 36.6592 23.9161 36.6236H20.802C20.4124 36.6236 20 36.6236 20 36.1653C20 35.707 20.4124 35.707 20.802 35.707L24.823 35.582M26.8969 14.0415C30.5207 14.0415 32.9585 16.6931 32.9585 19.6219C32.9585 22.6634 30.431 25.2252 26.9198 25.2252H20.802L20.7884 25.2252C20.6038 25.2252 20.3841 25.2251 20.2108 25.2905C20.1176 25.3257 20.0305 25.382 19.9678 25.4723C19.9052 25.5625 19.875 25.675 19.875 25.8085C19.875 25.942 19.9052 26.0545 19.9678 26.1447C20.0305 26.235 20.1176 26.2913 20.2108 26.3265C20.3841 26.3919 20.6038 26.3918 20.7884 26.3918L20.802 26.3918H26.9885C30.8992 26.3918 34.125 23.4334 34.125 19.6448C34.125 15.8337 30.9224 12.875 26.9656 12.875H20.802C20.7975 12.875 20.7929 12.875 20.7884 12.875C20.6038 12.875 20.3841 12.8749 20.2108 12.9403C20.1176 12.9755 20.0305 13.0318 19.9678 13.1221C19.9052 13.2123 19.875 13.3248 19.875 13.4583C19.875 13.5918 19.9052 13.7043 19.9679 13.7945C20.0305 13.8848 20.1176 13.941 20.2108 13.9762C20.3841 14.0416 20.6038 14.0415 20.7884 14.0415C20.7929 14.0415 20.7975 14.0415 20.802 14.0415H26.8969Z" fill="#111928" stroke="#111928" stroke-width="0.25"/>
<path fill-rule="evenodd" clip-rule="evenodd" d="M20.7799 12.75C20.7874 12.75 20.7948 12.75 20.802 12.75H26.9656C30.984 12.75 34.25 15.7574 34.25 19.6448C34.25 23.51 30.9605 26.5168 26.9885 26.5168H20.802C20.7948 26.5168 20.7874 26.5168 20.7799 26.5168C20.602 26.517 20.362 26.5171 20.1666 26.4434C20.0563 26.4018 19.9458 26.3322 19.8652 26.2161C19.7847 26.1001 19.75 25.9609 19.75 25.8085C19.75 25.6561 19.7847 25.5169 19.8652 25.401C19.9458 25.2849 20.0563 25.2153 20.1666 25.1736C20.362 25.0999 20.602 25.1001 20.7799 25.1002C20.7874 25.1002 20.7948 25.1002 20.802 25.1002H26.9198C30.3677 25.1002 32.8335 22.5888 32.8335 19.6219C32.8335 16.7659 30.4555 14.1665 26.8969 14.1665H20.802C20.7948 14.1665 20.7874 14.1665 20.7799 14.1665C20.602 14.1667 20.362 14.1668 20.1666 14.0932C20.0563 14.0515 19.9458 13.9819 19.8652 13.8658C19.7847 13.7499 19.75 13.6107 19.75 13.4583C19.75 13.3059 19.7847 13.1667 19.8652 13.0508C19.9458 12.9347 20.0563 12.8651 20.1666 12.8234C20.362 12.7497 20.602 12.7499 20.7799 12.75ZM20.2759 13.336C20.2669 13.3489 20.25 13.3816 20.25 13.4583C20.25 13.535 20.2669 13.5677 20.2759 13.5806C20.2847 13.5934 20.3017 13.6097 20.3432 13.6253C20.4432 13.6631 20.5922 13.6665 20.802 13.6665H26.8969C30.7163 13.6665 33.3335 16.4747 33.3335 19.6219C33.3335 22.8874 30.6209 25.6002 26.9198 25.6002H20.802C20.5922 25.6002 20.4432 25.6036 20.3432 25.6414C20.3017 25.657 20.2848 25.6734 20.2759 25.6862C20.2669 25.6991 20.25 25.7318 20.25 25.8085C20.25 25.8853 20.2669 25.9179 20.2759 25.9309C20.2848 25.9437 20.3017 25.96 20.3432 25.9756C20.4432 26.0134 20.5922 26.0168 20.802 26.0168H26.9885C30.7155 26.0168 33.75 23.2037 33.75 19.6448C33.75 16.0626 30.7378 13.25 26.9656 13.25H20.802C20.5922 13.25 20.4432 13.2534 20.3432 13.2912C20.3017 13.3068 20.2848 13.3232 20.2759 13.336ZM31.2615 28.0765C31.3351 28.0567 31.4048 28.0561 31.4566 28.0561C31.8158 28.0561 32.1649 28.3663 32.1649 28.7643L32.1649 28.7705C32.1649 28.8065 32.165 28.8613 32.1533 28.9203C32.1399 28.9881 32.1139 29.0505 32.0754 29.1154C32.0061 29.2322 31.8795 29.3822 31.6666 29.6176C31.3467 29.9854 30.8204 30.5924 30.4608 31.0119H33.198C33.2052 31.0119 33.2126 31.0119 33.2201 31.0119C33.398 31.0118 33.638 31.0116 33.8334 31.0853C33.9437 31.1269 34.0542 31.1965 34.1348 31.3126C34.2153 31.4286 34.25 31.5677 34.25 31.7201C34.25 31.8725 34.2153 32.0117 34.1348 32.1277C34.0542 32.2438 33.9437 32.3134 33.8334 32.355C33.638 32.4287 33.398 32.4286 33.2201 32.4284C33.2126 32.4284 33.2052 32.4284 33.198 32.4284H29.2345L26.6385 35.457H33.198C33.2052 35.457 33.2126 35.457 33.2201 35.457C33.398 35.4569 33.638 35.4567 33.8334 35.5304C33.9437 35.5721 34.0542 35.6417 34.1348 35.7578C34.2153 35.8737 34.25 36.0129 34.25 36.1653C34.25 36.3177 34.2153 36.4569 34.1348 36.5729C34.0542 36.689 33.9437 36.7586 33.8334 36.8002C33.638 36.8739 33.398 36.8738 33.2201 36.8736C33.2126 36.8736 33.2052 36.8736 33.198 36.8736H25.4088L23.4384 39.1982L23.4214 39.2166C23.1996 39.4596 23.0594 39.6131 22.9493 39.6991C22.885 39.7494 22.818 39.7877 22.7385 39.8091C22.6649 39.8288 22.5952 39.8294 22.5434 39.8294C22.1842 39.8294 21.8351 39.5192 21.8351 39.1211L21.8351 39.1149C21.8351 39.0789 21.835 39.0242 21.8467 38.9652C21.8601 38.8973 21.8861 38.8349 21.9246 38.7701C21.994 38.6531 22.1208 38.5028 22.3344 38.2668C22.5929 37.9759 23.1588 37.3207 23.5403 36.8736H20.802C20.7948 36.8736 20.7874 36.8736 20.7799 36.8736C20.602 36.8738 20.362 36.8739 20.1666 36.8002C20.0563 36.7586 19.9458 36.689 19.8652 36.5729C19.7847 36.4569 19.75 36.3177 19.75 36.1653C19.75 36.0129 19.7847 35.8737 19.8652 35.7578C19.9458 35.6417 20.0563 35.5721 20.1666 35.5304C20.362 35.4567 20.602 35.4569 20.7799 35.457C20.7874 35.457 20.7948 35.457 20.802 35.457H24.7655L27.3615 32.4284H20.802C20.7948 32.4284 20.7874 32.4284 20.7799 32.4284C20.602 32.4286 20.362 32.4287 20.1666 32.355C20.0563 32.3134 19.9458 32.2438 19.8652 32.1277C19.7847 32.0117 19.75 31.8725 19.75 31.7201C19.75 31.5677 19.7847 31.4286 19.8652 31.3126C19.9458 31.1965 20.0563 31.1269 20.1666 31.0853C20.362 31.0116 20.602 31.0118 20.7799 31.0119C20.7874 31.0119 20.7948 31.0119 20.802 31.0119H28.5912L30.5616 28.6873L30.5786 28.6689C30.8004 28.4259 30.9406 28.2724 31.0507 28.1864C31.115 28.1362 31.182 28.0978 31.2615 28.0765ZM30.934 29.0212L28.8228 31.5119H20.802C20.5922 31.5119 20.4432 31.5153 20.3432 31.5531C20.3017 31.5687 20.2847 31.585 20.2759 31.5978C20.2669 31.6108 20.25 31.6434 20.25 31.7201C20.25 31.7969 20.2669 31.8295 20.2759 31.8425C20.2848 31.8553 20.3017 31.8716 20.3432 31.8872C20.4432 31.925 20.5922 31.9284 20.802 31.9284H28.4487L24.9955 35.957H20.802C20.5922 35.957 20.4432 35.9604 20.3432 35.9982C20.3017 36.0138 20.2848 36.0301 20.2759 36.043C20.2669 36.0559 20.25 36.0886 20.25 36.1653C20.25 36.2421 20.2669 36.2747 20.2759 36.2877C20.2848 36.3005 20.3017 36.3168 20.3432 36.3324C20.4432 36.3702 20.5922 36.3736 20.802 36.3736H24.6064L24.272 36.782C24.0628 37.0376 23.0752 38.186 22.7073 38.5998L22.7059 38.6015C22.4845 38.8462 22.3938 38.9592 22.3545 39.0254C22.3386 39.0522 22.3371 39.0623 22.3371 39.0623C22.3359 39.0685 22.3351 39.0767 22.3351 39.1211C22.3351 39.2272 22.4442 39.3294 22.5434 39.3294C22.5947 39.3294 22.6052 39.3271 22.6089 39.3262L22.6108 39.3255L22.6142 39.3238C22.6185 39.3215 22.6271 39.3163 22.6415 39.3051C22.7117 39.2503 22.8187 39.1352 23.066 38.8644L25.1772 36.3736H33.198C33.4078 36.3736 33.5568 36.3702 33.6568 36.3324C33.6983 36.3168 33.7152 36.3005 33.7241 36.2877C33.7331 36.2747 33.75 36.2421 33.75 36.1653C33.75 36.0886 33.7331 36.0559 33.7241 36.043C33.7152 36.0301 33.6983 36.0138 33.6568 35.9982C33.5568 35.9604 33.4078 35.957 33.198 35.957H25.5513L29.0045 31.9284H33.198C33.4078 31.9284 33.5568 31.925 33.6568 31.8872C33.6983 31.8716 33.7152 31.8553 33.7241 31.8425C33.7331 31.8295 33.75 31.7969 33.75 31.7201C33.75 31.6434 33.7331 31.6108 33.7241 31.5978C33.7153 31.585 33.6983 31.5687 33.6568 31.5531C33.5568 31.5153 33.4078 31.5119 33.198 31.5119H29.3938L29.7279 31.1036C29.9373 30.8478 30.8344 29.8127 31.2908 29.2877L31.2941 29.284C31.5155 29.0393 31.6062 28.9263 31.6455 28.8601C31.6609 28.8342 31.6628 28.8233 31.6628 28.8233C31.6641 28.817 31.6649 28.8088 31.6649 28.7643C31.6649 28.6583 31.5558 28.5561 31.4566 28.5561C31.4053 28.5561 31.3948 28.5584 31.3911 28.5594C31.3911 28.5594 31.3893 28.5599 31.3858 28.5617C31.3815 28.564 31.3729 28.5692 31.3585 28.5805C31.2883 28.6353 31.1813 28.7504 30.934 29.0212Z" fill="#111928"/>
</svg>
