<svg width="53" height="53" viewBox="0 0 53 53" fill="none" xmlns="http://www.w3.org/2000/svg">
<rect width="53" height="53" rx="4" fill="#D0F0FD"/>
<path d="M25.8854 18.4343C30.9279 18.4343 34.5657 22.1804 34.5657 26.4926C34.5657 30.8049 30.9279 34.5509 25.8854 34.5509H17.1457H17.1311C16.8638 34.5509 16.5584 34.5508 16.32 34.6408C16.1944 34.6882 16.0799 34.7629 15.9981 34.8808C15.9163 34.9986 15.875 35.148 15.875 35.3306C15.875 35.5132 15.9163 35.6626 15.9981 35.7804C16.0799 35.8983 16.1944 35.973 16.32 36.0204C16.5584 36.1104 16.8638 36.1103 17.1311 36.1103H17.1457H25.9509C31.611 36.1103 36.125 31.8052 36.125 26.4926C36.125 21.1801 31.611 16.875 25.9509 16.875H17.1457C17.1408 16.875 17.136 16.875 17.1311 16.875C16.8638 16.875 16.5584 16.8749 16.32 16.9649C16.1944 17.0123 16.0799 17.087 15.9981 17.2049C15.9163 17.3227 15.875 17.4721 15.875 17.6547C15.875 17.8373 15.9163 17.9866 15.9981 18.1044C16.08 18.2223 16.1944 18.297 16.32 18.3444C16.5584 18.4344 16.8638 18.4343 17.1311 18.4343C17.136 18.4343 17.1408 18.4343 17.1457 18.4343H25.8854Z" fill="#111928" stroke="#111928" stroke-width="0.25"/>
</svg>
